<svg width="35" height="35" viewBox="0 0 35 35" fill="none" xmlns="http://www.w3.org/2000/svg">
<rect x="7" y="8" width="21" height="20" fill="white"/>
<path fill-rule="evenodd" clip-rule="evenodd" d="M16.9747 0.0264578C16.3818 0.243835 16.0002 0.452807 15.0437 1.08401C14.439 1.48305 13.7854 1.86554 13.5911 1.93417C13.1027 2.10638 12.503 2.13229 11.0082 2.04571C8.75747 1.91526 8.3721 2.15794 7.22104 4.43038C6.76606 5.32877 6.41964 5.89494 6.17591 6.13866C5.93691 6.37766 5.35701 6.73599 4.49267 7.17871C2.99616 7.94535 2.54389 8.28993 2.25543 8.88323C2.03779 9.33085 2.01914 9.67045 2.08121 12.0565C2.11667 13.4185 2.06913 13.5601 1.07925 15.0418C-0.359749 17.1959 -0.359749 17.7728 1.07925 19.9269C1.49089 20.5431 1.88318 21.2045 1.95103 21.3968C2.12201 21.8815 2.14783 22.484 2.06134 23.9762C1.93098 26.2258 2.16727 26.6005 4.45494 27.7713C5.35193 28.2304 5.93473 28.589 6.17591 28.8301C6.41754 29.0717 6.76283 29.6336 7.19986 30.4964C7.94706 31.9713 8.3032 32.4393 8.89886 32.7289C9.34648 32.9466 9.68607 32.9652 12.0721 32.9032C13.4287 32.8678 13.577 32.9168 15.0437 33.8847C16.4658 34.8232 16.766 34.9508 17.5416 34.9462C18.2711 34.9419 18.6094 34.7902 20.083 33.8059C21.3996 32.9267 21.584 32.8681 22.9279 32.9032C25.3139 32.9652 25.6535 32.9466 26.1011 32.7289C26.7028 32.4365 27.0642 31.962 27.7983 30.5012C28.6394 28.8275 28.8069 28.6609 30.5451 27.7713C32.8327 26.6005 33.069 26.2258 32.9387 23.9762C32.8522 22.484 32.878 21.8815 33.049 21.3968C33.1168 21.2045 33.5091 20.5431 33.9208 19.9269C35.3597 17.7728 35.3597 17.1959 33.9208 15.0418C33.5091 14.4257 33.1168 13.7643 33.049 13.5719C32.8781 13.0875 32.8526 12.4848 32.9402 10.9969C33.0727 8.74727 32.8269 8.35673 30.554 7.20541C28.8221 6.3282 28.6447 6.15197 27.7983 4.46758C27.0644 3.00714 26.703 2.53255 26.1011 2.23936C25.6551 2.02198 25.2761 2.0015 22.8841 2.06576C21.5895 2.10051 21.3916 2.03669 20.083 1.16281C18.7467 0.270273 18.2698 0.0456307 17.633 0.00877381C17.3432 -0.00794749 17.0469 -6.87048e-05 16.9747 0.0264578ZM26.39 10.3998C26.4819 10.5484 26.1006 11.0064 25.2478 11.7718C23.9884 12.9023 22.3734 14.6982 21.2129 16.2587C19.232 18.9224 17.9145 21.111 16.0889 24.77C15.483 25.9844 14.9507 26.9469 14.8757 26.9632C14.6249 27.0177 14.4796 26.9288 14.221 26.562C12.478 24.0906 11.0371 22.3216 9.83998 21.1838C8.52898 19.9378 8.33393 19.4724 8.76728 18.6242C9.15327 17.8687 9.86861 17.5282 10.6293 17.7379C11.162 17.8847 12.1973 18.926 13.5981 20.7236C14.067 21.3255 14.4854 21.8179 14.5278 21.8179C14.5894 21.8179 15.1949 20.9465 15.9644 19.7502C16.1844 19.4084 16.4557 19.0357 17.2319 18.0096C18.6703 16.1083 20.2782 14.3415 21.7898 13.0012C23.7328 11.2784 26.1042 9.93737 26.39 10.3998Z" fill="#019EEB"/>
</svg>
