<svg width="299" height="280" viewBox="0 0 299 280" fill="none" xmlns="http://www.w3.org/2000/svg">
<path d="M211.102 67.2645C216.049 57.363 211.49 43.0219 197.425 41.3031L190.868 40.5019C189.552 39.2391 188.197 38.0032 186.802 36.7956C183.506 33.9404 180.083 31.3241 176.556 28.9453L175.371 19.249C173.08 0.498485 148.354 -1.35733 141.622 13.6829C104.432 4.96325 63.778 16.6664 37.035 47.5453C-1.35363 91.8708 3.45916 158.924 47.7847 197.313C82.3119 227.215 130.629 230.905 168.447 210.126C169.588 212.071 171.062 213.867 172.861 215.425L239.04 272.74C251.393 283.438 270.079 282.097 280.778 269.744L291.767 257.056C302.465 244.703 301.124 226.016 288.771 215.318L222.593 158.003C220.793 156.444 218.806 155.242 216.717 154.391C227.397 125.942 225.322 94.0717 211.102 67.2645Z" fill="#2678F4"/>
<path d="M182.649 180.596C181.809 179.868 180.545 179.928 179.753 180.707C146.942 212.973 94.3036 215.112 58.9141 184.462C21.6857 152.22 17.6435 95.9032 49.8856 58.6748C82.1276 21.4464 138.445 17.4042 175.673 49.6463C211.062 80.2957 216.463 132.7 189.214 169.782C188.556 170.678 188.677 171.938 189.518 172.665L234.132 211.304C235.008 212.062 235.103 213.388 234.344 214.264L230.223 219.022C229.465 219.898 228.139 219.993 227.264 219.234L182.649 180.596Z" fill="#FFD600"/>
<path fill-rule="evenodd" clip-rule="evenodd" d="M175.018 50.4022C138.207 18.5217 82.522 22.5186 50.6415 59.3295C18.761 96.1404 22.7579 151.826 59.5688 183.706C94.561 214.012 146.61 211.897 179.051 179.994C180.203 178.861 182.057 178.76 183.304 179.84L227.918 218.478C228.377 218.875 229.07 218.826 229.467 218.367L233.588 213.609C233.985 213.15 233.936 212.457 233.477 212.06L188.863 173.421C187.616 172.341 187.452 170.492 188.408 169.19C215.351 132.525 210.01 80.7076 175.018 50.4022ZM49.1297 58.0202C81.7333 20.3743 138.682 16.2868 176.328 48.8904C212.114 79.8839 217.575 132.876 190.02 170.374C189.66 170.864 189.739 171.534 190.172 171.909L234.786 210.548C236.08 211.668 236.22 213.625 235.1 214.918L230.979 219.676C229.859 220.97 227.902 221.11 226.609 219.99L181.995 181.352C181.561 180.976 180.887 180.994 180.454 181.42C147.275 214.048 94.0461 216.212 58.2594 185.218C20.6136 152.614 16.526 95.666 49.1297 58.0202Z" fill="#333333"/>
<path d="M178.993 170.49C149.481 204.565 97.9337 208.265 63.858 178.754C29.7823 149.242 26.0824 97.6942 55.594 63.6185C85.1057 29.5428 136.653 25.8429 170.729 55.3546C204.805 84.8662 208.505 136.414 178.993 170.49Z" fill="#2678F4"/>
<path fill-rule="evenodd" clip-rule="evenodd" d="M170.074 56.1104C136.416 26.9603 85.5 30.6149 56.3499 64.2731C27.1998 97.9314 30.8543 148.848 64.5126 177.998C98.1708 207.148 149.087 203.493 178.237 169.835C207.387 136.177 203.733 85.2605 170.074 56.1104ZM54.8381 62.9638C84.7113 28.4706 136.891 24.7254 171.384 54.5986C205.877 84.4718 209.622 136.651 179.749 171.144C149.876 205.638 97.6964 209.383 63.2032 179.51C28.71 149.636 24.9648 97.457 54.8381 62.9638Z" fill="#333333"/>
<path d="M205.544 171.278C207.061 169.526 209.712 169.336 211.463 170.853L277.642 228.168C282.898 232.72 283.468 240.671 278.917 245.926L267.927 258.615C263.376 263.871 255.425 264.441 250.169 259.889L183.991 202.575C182.239 201.058 182.049 198.407 183.566 196.655L205.544 171.278Z" fill="#FF5E71"/>
<path fill-rule="evenodd" clip-rule="evenodd" d="M204.788 170.624C206.667 168.454 209.949 168.219 212.118 170.097L278.297 227.412C283.97 232.325 284.586 240.908 279.672 246.581L268.683 259.269C263.77 264.943 255.188 265.559 249.515 260.645L183.336 203.331C181.167 201.452 180.931 198.17 182.81 196.001L204.788 170.624ZM210.809 171.609C209.474 170.454 207.456 170.599 206.3 171.933L184.322 197.31C183.166 198.644 183.311 200.663 184.646 201.819L250.824 259.133C255.662 263.324 262.981 262.798 267.172 257.96L278.161 245.272C282.351 240.433 281.826 233.114 276.987 228.924L210.809 171.609Z" fill="#333333"/>
<path d="M118.986 80.4279C121.418 80.4279 122.826 80.2465 123.708 80.0587C124.138 79.9673 124.438 79.8754 124.659 79.8078L124.678 79.802C124.916 79.729 125.002 79.7079 125.07 79.7079C125.823 79.7079 126.45 80.3611 126.913 81.4184C127.361 82.443 127.566 83.6634 127.566 84.4002C127.566 84.95 127.456 85.5164 127.214 85.9297C126.985 86.3214 126.644 86.5726 126.114 86.5726C125.801 86.5726 125.584 86.5251 125.425 86.4575C125.269 86.3911 125.147 86.2966 125.035 86.1719C124.918 86.0414 124.815 85.8821 124.69 85.6795L124.641 85.5987C124.533 85.4217 124.409 85.2179 124.261 85.0159C123.905 84.5311 123.404 84.0454 122.532 83.688C121.673 83.3359 120.475 83.1166 118.734 83.1166C117.733 83.1166 116.963 83.1605 116.383 83.3065C115.785 83.4572 115.345 83.7285 115.072 84.2048C114.817 84.649 114.741 85.2177 114.715 85.874C114.699 86.3025 114.703 86.81 114.708 87.3913C114.711 87.7048 114.714 88.0407 114.714 88.3962C114.714 88.9123 114.72 89.3398 114.77 89.676C114.82 90.0151 114.924 90.3326 115.177 90.5672C115.426 90.797 115.753 90.886 116.1 90.9288C116.45 90.972 116.895 90.9759 117.438 90.9759C117.831 90.9759 118.168 90.9041 118.451 90.7571C118.737 90.6086 118.945 90.396 119.096 90.153C119.381 89.6928 119.469 89.1035 119.54 88.6246L119.541 88.6199C119.619 88.0925 119.68 87.6822 119.844 87.3897C119.919 87.2571 120.008 87.1625 120.123 87.0975C120.241 87.0313 120.413 86.9799 120.678 86.9799C121.039 86.9799 121.326 87.1469 121.574 87.472C121.831 87.8099 122.027 88.2992 122.17 88.8712C122.454 90.0113 122.49 91.3363 122.49 92.0322C122.49 92.7568 122.428 94.1639 122.108 95.3769C121.948 95.9854 121.732 96.5105 121.453 96.8753C121.182 97.2291 120.874 97.4086 120.498 97.4086C120.279 97.4086 120.154 97.3627 120.078 97.3135C120.003 97.2648 119.939 97.1889 119.881 97.0637C119.822 96.933 119.778 96.7659 119.738 96.5538C119.718 96.4493 119.7 96.3402 119.681 96.2232L119.678 96.2077C119.66 96.097 119.641 95.9796 119.619 95.8616C119.529 95.3774 119.381 94.7985 118.954 94.3497C118.513 93.8858 117.844 93.6286 116.862 93.6286C116.42 93.6286 116.049 93.7292 115.753 93.936C115.457 94.1431 115.275 94.4292 115.163 94.7305C114.964 95.2683 114.965 95.935 114.966 96.4666L114.966 96.5682C114.966 97.8797 114.988 98.8753 115.085 99.6215C115.181 100.361 115.358 100.933 115.734 101.33C116.119 101.736 116.641 101.885 117.241 101.947C117.728 101.997 118.33 101.995 119.042 101.993C119.198 101.992 119.359 101.992 119.526 101.992C121.417 101.992 122.744 101.667 123.711 101.149C124.684 100.628 125.256 99.9296 125.667 99.2518C125.849 98.9518 126.002 98.652 126.139 98.3822L126.184 98.2928C126.337 97.9931 126.47 97.741 126.618 97.5308C126.763 97.3244 126.91 97.1764 127.081 97.0776C127.249 96.9806 127.464 96.9159 127.77 96.9159C128.164 96.9159 128.478 97.1298 128.713 97.4965C128.952 97.8705 129.078 98.3658 129.078 98.8002C129.078 99.9397 128.618 101.586 127.967 102.958C127.643 103.641 127.284 104.231 126.931 104.643C126.558 105.08 126.275 105.221 126.114 105.221C126.026 105.221 125.852 105.2 125.573 105.158C125.483 105.144 125.383 105.129 125.276 105.112L125.274 105.112C125.07 105.08 124.837 105.044 124.589 105.009L124.579 105.007L124.568 105.006C124.482 104.999 124.393 104.99 124.301 104.982L124.299 104.981C123.552 104.912 122.616 104.825 121.506 104.825H106.71C105.571 104.825 105.11 104.564 104.92 104.36C104.733 104.159 104.718 103.921 104.718 103.696C104.718 103.308 104.828 103.163 104.949 103.065C105.027 103.002 105.128 102.945 105.267 102.878C105.31 102.858 105.361 102.834 105.417 102.808C105.521 102.761 105.639 102.706 105.744 102.653C106.105 102.469 106.505 102.203 106.825 101.698C107.139 101.201 107.351 100.509 107.417 99.5119C107.454 98.9428 107.489 98.4277 107.52 97.9574L107.522 97.9346L107.522 97.9325L107.523 97.9121L107.524 97.9074C107.853 93.0031 107.854 92.9909 107.525 87.0432C107.461 85.6391 107.237 84.7134 106.903 84.087C106.557 83.4378 106.108 83.138 105.678 82.9597C105.528 82.8971 105.371 82.8468 105.241 82.8051C105.201 82.7922 105.164 82.7801 105.13 82.7688C104.97 82.7156 104.866 82.6717 104.787 82.6177C104.719 82.5709 104.665 82.5124 104.622 82.4127C104.576 82.304 104.538 82.1297 104.538 81.8442C104.538 81.4044 104.683 81.1323 104.894 80.9433C105.12 80.7399 105.46 80.5999 105.895 80.5145C106.57 80.3822 107.335 80.401 108.011 80.4176C108.224 80.4229 108.428 80.4279 108.618 80.4279H118.986Z" fill="white"/>
<path d="M45.942 92.5362C45.942 85.4326 52.6549 79.9239 59.5624 79.9239C61.2545 79.9239 62.6489 80.3464 63.7472 80.7769C64.1029 80.9164 64.4141 81.0508 64.7017 81.1751C64.8688 81.2473 65.028 81.3161 65.1832 81.3803C65.5683 81.5398 65.9629 81.6879 66.2944 81.6879C66.7438 81.6879 67.0366 81.6145 67.283 81.5469L67.3206 81.5366C67.5353 81.4774 67.6861 81.4359 67.9144 81.4359C68.4659 81.4359 69.2174 81.8671 69.8548 82.8742C70.4806 83.863 70.9507 85.3482 70.9507 87.2802C70.9507 88.2264 70.6683 89.0713 70.17 89.6717C69.6783 90.2641 68.9596 90.6406 68.0224 90.6406C67.2441 90.6406 66.7138 90.3177 66.2377 89.785C65.8754 89.3795 65.5704 88.886 65.2267 88.3301C65.0914 88.1113 64.9502 87.8829 64.7972 87.6463C64.2726 86.8353 63.6366 85.9826 62.696 85.3378C61.7475 84.6875 60.5197 84.2686 58.8424 84.2686C57.3044 84.2686 56.202 84.9962 55.4985 85.9891C54.8053 86.9674 54.4987 88.1991 54.4987 89.2602C54.4987 91.9934 55.2275 94.5532 56.6339 96.441C58.0482 98.3394 60.1404 99.5439 62.8024 99.5439C65.1774 99.5439 66.5753 98.8947 67.526 98.2254C67.8392 98.0048 68.1173 97.7703 68.3442 97.579C68.4437 97.4951 68.5339 97.4191 68.6123 97.3567C68.9028 97.1253 69.0534 97.0599 69.1744 97.0599C69.5053 97.0599 69.7749 97.246 69.9821 97.584C70.193 97.9282 70.3027 98.3812 70.3027 98.7642C70.3027 99.45 69.9284 100.597 69.3132 101.584C69.0096 102.072 68.6622 102.496 68.2995 102.794C67.9348 103.093 67.5852 103.241 67.2664 103.241C66.8658 103.241 66.4058 103.406 65.9387 103.599C65.7321 103.684 65.5251 103.774 65.3076 103.869C64.9882 104.008 64.6461 104.157 64.2494 104.314C62.9635 104.825 61.3265 105.329 59.2744 105.329C51.9307 105.329 45.942 99.5253 45.942 92.5362Z" fill="white"/>
<path d="M143.919 79.9239C137.012 79.9239 130.299 85.4326 130.299 92.5362C130.299 99.5253 136.287 105.329 143.631 105.329C145.683 105.329 147.32 104.825 148.606 104.314C149.003 104.157 149.345 104.008 149.664 103.869C149.882 103.774 150.089 103.684 150.295 103.599C150.763 103.406 151.223 103.241 151.623 103.241C151.942 103.241 152.292 103.093 152.656 102.794C153.019 102.496 153.366 102.072 153.67 101.584C154.285 100.597 154.659 99.45 154.659 98.7642C154.659 98.3812 154.55 97.9282 154.339 97.584C154.132 97.246 153.862 97.0599 153.531 97.0599C153.41 97.0599 153.26 97.1253 152.969 97.3567C152.891 97.4191 152.801 97.4948 152.701 97.5786C152.474 97.77 152.196 98.0048 151.883 98.2254C150.932 98.8947 149.534 99.5439 147.159 99.5439C144.497 99.5439 142.405 98.3394 140.991 96.4409C139.584 94.5532 138.855 91.9934 138.855 89.2602C138.855 88.1991 139.162 86.9674 139.855 85.9891C140.559 84.9962 141.661 84.2686 143.199 84.2686C144.876 84.2686 146.104 84.6875 147.053 85.3378C147.993 85.9826 148.629 86.8353 149.154 87.6463C149.307 87.8828 149.448 88.1114 149.583 88.3301C149.927 88.8861 150.232 89.3795 150.594 89.785C151.07 90.3177 151.601 90.6406 152.379 90.6406C153.316 90.6406 154.035 90.2641 154.527 89.6717C155.025 89.0713 155.307 88.2264 155.307 87.2802C155.307 85.3482 154.837 83.863 154.212 82.8742C153.574 81.8671 152.823 81.4359 152.271 81.4359C152.043 81.4359 151.892 81.4774 151.677 81.5366L151.64 81.5469C151.393 81.6145 151.1 81.6879 150.651 81.6879C150.32 81.6879 149.925 81.5398 149.54 81.3803C149.385 81.316 149.226 81.2473 149.059 81.1751C148.771 81.0508 148.46 80.9164 148.104 80.7769C147.006 80.3464 145.611 79.9239 143.919 79.9239Z" fill="white"/>
<path d="M180.49 80.0319C180.593 80.0319 180.702 80.0313 180.818 80.0307C181.703 80.0261 182.936 80.0197 184.001 80.2518C184.601 80.3827 185.104 80.581 185.449 80.8634C185.528 80.9279 185.599 80.9973 185.662 81.0724C185.86 81.3097 185.974 81.6048 185.974 81.9882C185.974 82.6278 185.779 82.928 185.543 83.0995C185.36 83.2325 185.115 83.3171 184.809 83.3708C184.663 83.3963 184.504 83.4149 184.332 83.4284C184.103 83.4463 183.867 83.4545 183.62 83.4631L183.512 83.467C183.231 83.477 182.939 83.4893 182.658 83.5202C182.11 83.5803 181.515 83.7181 181.093 84.1395C180.955 84.278 180.716 84.481 180.406 84.7447L180.405 84.7457L180.223 84.8998C179.834 85.2314 179.376 85.6279 178.938 86.0518C178.502 86.474 178.075 86.9345 177.755 87.3966C177.441 87.8482 177.19 88.3564 177.19 88.8642C177.19 89.4737 177.46 90.0174 177.767 90.4684C178 90.8111 178.283 91.1378 178.524 91.4158L178.525 91.417C178.598 91.5009 178.667 91.5804 178.729 91.6545L178.734 91.6605L186.258 100.264L186.259 100.266C186.578 100.627 186.968 100.875 187.342 101.077C187.505 101.165 187.672 101.247 187.83 101.326L187.899 101.36C188.08 101.45 188.25 101.535 188.409 101.626C188.727 101.808 188.976 101.998 189.148 102.241C189.314 102.476 189.43 102.791 189.43 103.264C189.43 103.639 189.336 103.899 189.2 104.088C189.062 104.28 188.859 104.43 188.592 104.543C188.043 104.777 187.31 104.825 186.61 104.825H180.49C179.779 104.825 179.544 104.789 179.299 104.623C179.161 104.529 179.006 104.382 178.785 104.131C178.596 103.917 178.374 103.645 178.086 103.292L177.935 103.106L175.487 100.118L175.482 100.112C175.429 100.051 175.364 99.9733 175.289 99.8838C174.937 99.4642 174.36 98.7758 173.765 98.1509C173.404 97.772 173.026 97.4047 172.679 97.1292C172.505 96.9916 172.33 96.8693 172.16 96.7796C171.998 96.6939 171.802 96.6166 171.598 96.6166C171.291 96.6166 171.017 96.6948 170.79 96.8578C170.566 97.0185 170.418 97.2392 170.32 97.4723C170.131 97.9218 170.098 98.4926 170.098 99.0162V99.7722C170.098 100.83 170.8 101.414 171.34 101.863L171.383 101.899C171.967 102.386 172.366 102.746 172.366 103.408C172.366 103.645 172.324 103.837 172.209 104.009C172.092 104.184 171.868 104.383 171.419 104.569C170.503 104.948 168.785 105.221 165.622 105.221C162.78 105.221 161.258 104.974 160.455 104.618C160.067 104.445 159.877 104.259 159.776 104.089C159.673 103.916 159.634 103.711 159.634 103.444C159.634 103.052 159.725 102.86 159.829 102.73C159.933 102.6 160.062 102.509 160.257 102.371L160.258 102.37C160.306 102.336 160.358 102.3 160.414 102.259C160.684 102.063 160.998 101.81 161.268 101.387C161.537 100.968 161.746 100.409 161.861 99.6195C162.19 97.5675 162.226 95.2342 162.226 93.1842C162.226 93.0207 162.226 92.8549 162.226 92.6871V92.6622C162.229 90.5641 162.232 88.1624 161.86 86.0955C161.736 85.2792 161.511 84.7166 161.22 84.3053C160.925 83.8907 160.585 83.6626 160.302 83.489L160.202 83.428C159.963 83.2825 159.817 83.1935 159.703 83.0516C159.594 82.9155 159.49 82.6901 159.49 82.2042C159.49 82.1877 159.49 82.1715 159.489 82.1555C159.489 82.1446 159.489 82.1338 159.489 82.1231C159.487 81.9807 159.485 81.8502 159.539 81.6927C159.598 81.5224 159.738 81.2891 160.119 81.0462C160.915 80.5394 162.698 80.0319 166.63 80.0319L166.686 80.0319C167.544 80.0317 168.814 80.0315 169.876 80.3106C170.417 80.4527 170.864 80.6578 171.171 80.9392C171.464 81.2079 171.646 81.5602 171.646 82.0602C171.646 82.4498 171.55 82.6392 171.432 82.7838C171.363 82.8676 171.278 82.9465 171.165 83.0445C171.144 83.063 171.121 83.0823 171.097 83.1025C171.003 83.1836 170.892 83.2785 170.783 83.3839C170.498 83.6618 170.211 84.0283 170 84.6173C169.793 85.1963 169.666 85.9724 169.666 87.0642C169.666 87.2995 169.674 87.7291 169.781 88.1095C169.835 88.3001 169.923 88.514 170.078 88.6863C170.244 88.8717 170.478 88.9959 170.77 88.9959C171.008 88.9959 171.24 88.889 171.43 88.7746C171.631 88.6532 171.844 88.4866 172.056 88.2968C172.482 87.9161 172.944 87.4083 173.369 86.8825C173.794 86.3557 174.192 85.7993 174.485 85.3161C174.632 85.075 174.756 84.8453 174.846 84.6422C174.929 84.4541 175.006 84.2371 175.006 84.0402C175.006 83.565 174.825 83.2099 174.686 82.937L174.672 82.9097C174.528 82.6258 174.43 82.418 174.43 82.1322C174.43 81.6146 174.651 81.2411 175.034 80.948C175.435 80.6417 176.013 80.4268 176.689 80.2838C177.918 80.0238 179.327 80.0284 180.235 80.0313C180.325 80.0316 180.41 80.0319 180.49 80.0319Z" fill="white"/>
<path d="M74.5569 81.3684C74.034 81.7346 73.7649 82.1585 73.7649 82.6722C73.7649 82.8836 73.8517 83.0387 74.0179 83.1886C74.1949 83.3483 74.4295 83.4733 74.7028 83.619L74.7308 83.6339L74.7328 83.6351C74.8355 83.6905 74.9209 83.7316 75.009 83.7741C75.0596 83.7985 75.1111 83.8233 75.1674 83.8515C75.3078 83.922 75.4614 84.0067 75.603 84.1312C75.9055 84.3973 76.0745 84.7729 76.1834 85.3585C76.3949 86.4961 76.4289 88.744 76.4289 93.5082C76.4289 96.7254 76.3442 98.5862 76.136 99.7089C76.014 100.367 75.7685 100.843 75.4547 101.207C75.1463 101.564 74.7881 101.793 74.4839 101.974C74.439 102.001 74.3954 102.027 74.3541 102.051C74.0979 102.203 73.9106 102.314 73.7647 102.458C73.6236 102.597 73.5263 102.765 73.513 103.057C73.5157 103.495 73.7319 103.846 74.1469 104.146C74.5766 104.456 75.1918 104.688 75.8981 104.854C77.306 105.184 78.9299 105.221 79.7533 105.221C80.613 105.221 82.3187 105.184 83.7995 104.844C84.5424 104.674 85.1919 104.435 85.6466 104.113C86.0896 103.8 86.3177 103.433 86.3177 102.976C86.3177 102.466 86.1993 102.266 86.0842 102.145C86.0148 102.071 85.9269 102.007 85.8025 101.926C85.7827 101.913 85.7615 101.899 85.739 101.885L85.7118 101.868C85.6098 101.803 85.4876 101.726 85.3713 101.639C85.0369 101.391 84.7038 101.041 84.4623 100.413C84.2273 99.8018 84.0857 98.9435 84.0857 97.6842C84.0857 97.4288 84.0825 97.1861 84.0795 96.958C84.0733 96.4915 84.068 96.086 84.0924 95.7575C84.1297 95.2566 84.2411 94.7914 84.6277 94.459C84.991 94.1467 85.5226 94.0206 86.1964 93.9556C86.8853 93.8892 87.8225 93.8806 89.0773 93.8806L89.2604 93.8804C89.6238 93.8798 89.9484 93.8793 90.2191 93.9011C90.5327 93.9263 90.8448 93.9849 91.1032 94.1595C91.3793 94.3461 91.5345 94.6223 91.6201 94.955C91.7025 95.2752 91.7289 95.6792 91.7289 96.1722C91.7289 99.8467 91.066 101.093 90.25 101.717C90.0763 101.849 89.9037 101.947 89.7665 102.024L89.7303 102.045C89.5781 102.131 89.4836 102.189 89.4107 102.258C89.306 102.357 89.1757 102.541 89.2084 103.17L89.2089 103.181V103.192C89.2089 103.637 89.4115 103.976 89.7858 104.257C90.1748 104.548 90.7349 104.762 91.3854 104.912C92.683 105.21 94.1863 105.221 94.9813 105.221C98.5153 105.221 100.204 104.768 101.002 104.275C101.387 104.038 101.554 103.798 101.634 103.599C101.719 103.391 101.726 103.188 101.726 102.976C101.726 102.62 101.632 102.454 101.507 102.328C101.363 102.184 101.163 102.075 100.846 101.902L100.719 101.832L100.718 101.831C100.187 101.536 99.8266 101.21 99.6185 100.764C99.4187 100.336 99.3857 99.849 99.3857 99.3042V89.9442C99.3857 88.5102 99.4104 87.4326 99.4654 86.6164C99.52 85.805 99.6057 85.2275 99.7378 84.8058C99.8742 84.3703 100.067 84.0799 100.339 83.8705C100.541 83.7155 100.783 83.6143 100.992 83.5268L100.993 83.5264C101.031 83.5105 101.068 83.4951 101.104 83.4798C101.411 83.3243 101.624 83.1437 101.762 82.9409C101.898 82.7392 101.978 82.4904 101.978 82.1682C101.978 81.696 101.763 81.3365 101.37 81.041C100.963 80.7344 100.377 80.5105 99.6977 80.3542C98.3417 80.0423 96.7667 80.0319 95.9173 80.0319C92.3503 80.0319 90.7066 80.5385 89.9582 81.0518C89.5983 81.2986 89.4509 81.5432 89.3834 81.7387C89.3163 81.9332 89.3166 82.1058 89.3169 82.2774L89.3169 82.3122C89.3169 82.6636 89.4309 82.8733 89.6035 83.046C89.7849 83.2274 90.0273 83.3672 90.3456 83.5508L90.4338 83.6017L90.4565 83.6138C90.5647 83.6714 90.7303 83.7596 90.8888 83.9145C91.0662 84.0879 91.217 84.3238 91.3394 84.6625C91.5774 85.3206 91.7289 86.4272 91.7289 88.3962L91.7291 88.4908C91.7297 88.721 91.7304 88.9592 91.6978 89.1637C91.6573 89.4179 91.5587 89.6762 91.3149 89.8768C91.0893 90.0624 90.787 90.1577 90.4325 90.2131C90.0723 90.2695 89.6053 90.2919 89.0053 90.2919H87.1693C87.0045 90.2919 86.8366 90.2945 86.673 90.297C86.4371 90.3007 86.21 90.3043 86.0141 90.2996C85.6729 90.2915 85.3278 90.2595 85.0268 90.1331C84.703 89.9971 84.4527 89.7618 84.2947 89.4038C84.1456 89.0662 84.0857 88.6362 84.0857 88.1082C84.0857 86.5183 84.1367 85.5474 84.3229 84.9083C84.4205 84.5735 84.5592 84.3121 84.7568 84.0948C84.9476 83.885 85.1743 83.7379 85.4095 83.6059C85.8311 83.3492 86.128 83.1579 86.3322 82.9178C86.5175 82.6999 86.6417 82.4212 86.6417 81.9522C86.6417 81.5712 86.4662 81.2682 86.1287 81.0075C85.7786 80.7371 85.2723 80.53 84.6804 80.3788C83.5003 80.0773 82.1215 80.0319 81.3733 80.0319C80.376 80.0319 78.4077 80.1038 76.7006 80.5109C75.8444 80.7151 75.089 80.9957 74.5569 81.3684Z" fill="white"/>
<path d="M95.8902 133.932C98.3223 133.932 99.73 133.751 100.613 133.563C101.042 133.472 101.342 133.38 101.563 133.312L101.582 133.306C101.82 133.233 101.906 133.212 101.974 133.212C102.727 133.212 103.355 133.865 103.817 134.923C104.265 135.947 104.471 137.168 104.471 137.905C104.471 138.454 104.361 139.021 104.119 139.434C103.889 139.826 103.549 140.077 103.018 140.077C102.705 140.077 102.488 140.029 102.329 139.962C102.173 139.895 102.051 139.801 101.939 139.676C101.822 139.546 101.719 139.386 101.595 139.184L101.545 139.103C101.437 138.926 101.314 138.722 101.165 138.52C100.809 138.035 100.308 137.55 99.4362 137.192C98.5774 136.84 97.3793 136.621 95.6382 136.621C94.6375 136.621 93.8671 136.665 93.2874 136.811C92.6892 136.961 92.2492 137.233 91.9758 137.709C91.7207 138.153 91.645 138.722 91.6194 139.378C91.6027 139.807 91.6074 140.314 91.6126 140.896C91.6155 141.209 91.6185 141.545 91.6185 141.901C91.6185 142.417 91.6245 142.844 91.6743 143.18C91.7244 143.519 91.8282 143.837 92.0817 144.072C92.33 144.301 92.657 144.39 93.0043 144.433C93.3538 144.476 93.7995 144.48 94.3422 144.48C94.735 144.48 95.0718 144.408 95.3553 144.261C95.6416 144.113 95.8492 143.9 95.9999 143.657C96.2853 143.197 96.3729 142.608 96.4441 142.129L96.4448 142.124C96.5232 141.597 96.5847 141.186 96.7485 140.894C96.8228 140.761 96.912 140.667 97.0274 140.602C97.1448 140.536 97.3175 140.484 97.5822 140.484C97.9436 140.484 98.2303 140.651 98.478 140.976C98.7353 141.314 98.9315 141.803 99.074 142.375C99.3579 143.516 99.3946 144.841 99.3946 145.537C99.3946 146.261 99.3318 147.668 99.0124 148.881C98.8521 149.49 98.6359 150.015 98.357 150.38C98.0864 150.733 97.7783 150.913 97.4022 150.913C97.1829 150.913 97.0582 150.867 96.9823 150.818C96.9069 150.769 96.8427 150.693 96.7856 150.568C96.7261 150.437 96.6822 150.27 96.6418 150.058C96.622 149.954 96.6041 149.844 96.585 149.727L96.583 149.716C96.5648 149.604 96.5454 149.485 96.5233 149.366C96.4334 148.882 96.2852 148.303 95.8585 147.854C95.4174 147.39 94.7481 147.133 93.7662 147.133C93.3244 147.133 92.9532 147.233 92.6573 147.44C92.3611 147.647 92.1793 147.933 92.0677 148.235C91.8685 148.773 91.8696 149.439 91.8704 149.971L91.8705 150.073C91.8705 151.384 91.8926 152.38 91.9893 153.126C92.0852 153.865 92.2626 154.438 92.638 154.834C93.0227 155.24 93.5453 155.389 94.1454 155.451C94.6321 155.502 95.2343 155.5 95.9457 155.497L95.9472 155.497C96.103 155.497 96.264 155.496 96.4302 155.496C98.3214 155.496 99.6482 155.171 100.615 154.653C101.588 154.132 102.161 153.434 102.572 152.756C102.753 152.456 102.906 152.156 103.043 151.886L103.088 151.797C103.241 151.497 103.374 151.245 103.522 151.035C103.667 150.829 103.815 150.681 103.985 150.582C104.153 150.485 104.369 150.42 104.674 150.42C105.068 150.42 105.382 150.634 105.617 151.001C105.856 151.375 105.983 151.87 105.983 152.305C105.983 153.444 105.522 155.09 104.871 156.463C104.547 157.145 104.188 157.735 103.835 158.147C103.462 158.584 103.18 158.725 103.018 158.725C102.93 158.725 102.756 158.704 102.477 158.662C102.387 158.648 102.286 158.633 102.178 158.616C101.974 158.584 101.741 158.548 101.494 158.513L101.483 158.512L101.472 158.511C101.386 158.503 101.297 158.494 101.205 158.486L101.203 158.486C100.457 158.416 99.5198 158.329 98.4102 158.329H83.6142C82.4753 158.329 82.0144 158.068 81.8243 157.864C81.6369 157.663 81.6218 157.425 81.6218 157.201C81.6218 156.812 81.7322 156.668 81.8532 156.569C81.9308 156.506 82.0318 156.449 82.1716 156.382C82.214 156.362 82.2655 156.338 82.3215 156.312C82.4248 156.265 82.5435 156.21 82.6485 156.157C83.0089 155.973 83.4094 155.707 83.7287 155.202C84.043 154.705 84.2551 154.014 84.3209 153.016C84.3598 152.427 84.3954 151.895 84.4279 151.412C84.7571 146.507 84.7579 146.495 84.4293 140.548C84.3649 139.143 84.1411 138.218 83.8074 137.591C83.4614 136.942 83.0122 136.642 82.5826 136.464C82.4318 136.401 82.2754 136.351 82.1457 136.309C82.1056 136.296 82.0681 136.284 82.034 136.273C81.8746 136.22 81.7699 136.176 81.6912 136.122C81.623 136.075 81.5689 136.017 81.5266 135.917C81.4805 135.808 81.4418 135.634 81.4418 135.349C81.4418 134.909 81.5873 134.637 81.798 134.448C82.0247 134.244 82.3646 134.104 82.7995 134.019C83.4741 133.886 84.2396 133.905 84.9156 133.922C85.1286 133.927 85.3326 133.932 85.5222 133.932H95.8902Z" fill="white"/>
<path d="M122.731 133.932C125.163 133.932 126.571 133.751 127.454 133.563C127.883 133.472 128.183 133.38 128.404 133.312L128.423 133.306C128.661 133.233 128.747 133.212 128.815 133.212C129.568 133.212 130.196 133.865 130.658 134.923C131.107 135.947 131.312 137.168 131.312 137.905C131.312 138.454 131.202 139.021 130.96 139.434C130.73 139.826 130.39 140.077 129.859 140.077C129.546 140.077 129.329 140.029 129.17 139.962C129.014 139.895 128.892 139.801 128.781 139.676C128.663 139.546 128.56 139.386 128.436 139.184L128.386 139.103C128.278 138.926 128.155 138.722 128.006 138.52C127.65 138.035 127.149 137.55 126.277 137.192C125.419 136.84 124.22 136.621 122.479 136.621C121.479 136.621 120.708 136.665 120.128 136.811C119.53 136.961 119.09 137.233 118.817 137.709C118.562 138.153 118.486 138.722 118.461 139.378C118.444 139.807 118.448 140.314 118.454 140.896C118.457 141.209 118.46 141.545 118.46 141.901C118.46 142.417 118.466 142.844 118.515 143.18C118.565 143.519 118.669 143.837 118.923 144.072C119.171 144.301 119.498 144.39 119.845 144.433C120.195 144.476 120.641 144.48 121.183 144.48C121.576 144.48 121.913 144.408 122.196 144.261C122.483 144.113 122.69 143.9 122.841 143.657C123.126 143.197 123.214 142.608 123.285 142.129L123.286 142.124C123.364 141.597 123.426 141.186 123.59 140.894C123.664 140.761 123.753 140.667 123.868 140.602C123.986 140.536 124.159 140.484 124.423 140.484C124.785 140.484 125.071 140.651 125.319 140.976C125.576 141.314 125.773 141.803 125.915 142.375C126.199 143.516 126.236 144.841 126.236 145.537C126.236 146.261 126.173 147.668 125.853 148.881C125.693 149.49 125.477 150.015 125.198 150.38C124.927 150.733 124.619 150.913 124.243 150.913C124.024 150.913 123.899 150.867 123.823 150.818C123.748 150.769 123.684 150.693 123.627 150.568C123.567 150.437 123.523 150.27 123.483 150.058C123.463 149.954 123.445 149.844 123.426 149.727L123.424 149.716C123.406 149.604 123.386 149.485 123.364 149.366C123.274 148.882 123.126 148.303 122.7 147.854C122.258 147.39 121.589 147.133 120.607 147.133C120.165 147.133 119.794 147.233 119.498 147.44C119.202 147.647 119.02 147.934 118.909 148.235C118.71 148.773 118.711 149.439 118.712 149.971L118.712 150.073C118.712 151.384 118.734 152.38 118.83 153.126C118.926 153.865 119.104 154.438 119.479 154.834C119.864 155.24 120.386 155.389 120.987 155.451C121.473 155.502 122.075 155.5 122.787 155.497C122.943 155.497 123.105 155.496 123.271 155.496C125.162 155.496 126.489 155.171 127.456 154.653C128.429 154.132 129.002 153.434 129.413 152.756C129.594 152.456 129.747 152.156 129.884 151.887L129.929 151.797C130.082 151.497 130.215 151.245 130.363 151.035C130.508 150.829 130.656 150.681 130.826 150.582C130.994 150.485 131.21 150.42 131.515 150.42C131.909 150.42 132.223 150.634 132.458 151.001C132.697 151.375 132.824 151.87 132.824 152.305C132.824 153.444 132.363 155.09 131.712 156.463C131.388 157.145 131.029 157.735 130.677 158.147C130.303 158.584 130.021 158.725 129.859 158.725C129.771 158.725 129.598 158.704 129.319 158.662C129.228 158.648 129.128 158.633 129.021 158.616L129.019 158.616C128.815 158.584 128.582 158.548 128.335 158.513L128.324 158.512L128.313 158.511C128.227 158.503 128.138 158.494 128.046 158.486C127.299 158.416 126.361 158.329 125.251 158.329H110.455C109.316 158.329 108.855 158.068 108.665 157.864C108.478 157.663 108.463 157.425 108.463 157.201C108.463 156.812 108.573 156.668 108.694 156.569C108.772 156.506 108.873 156.449 109.013 156.382C109.055 156.362 109.107 156.338 109.163 156.312C109.266 156.265 109.385 156.21 109.49 156.157C109.85 155.973 110.25 155.707 110.57 155.202C110.884 154.705 111.096 154.014 111.162 153.016C111.201 152.429 111.236 151.899 111.269 151.416L111.269 151.412C111.598 146.507 111.599 146.495 111.27 140.548C111.206 139.143 110.982 138.218 110.648 137.591C110.302 136.942 109.853 136.642 109.424 136.464C109.273 136.401 109.117 136.351 108.987 136.309C108.947 136.296 108.909 136.284 108.875 136.273C108.716 136.22 108.611 136.176 108.532 136.122C108.464 136.075 108.41 136.017 108.368 135.917C108.322 135.808 108.283 135.634 108.283 135.349C108.283 134.909 108.428 134.637 108.639 134.448C108.866 134.244 109.206 134.104 109.641 134.019C110.315 133.886 111.081 133.905 111.757 133.922C111.97 133.927 112.174 133.932 112.363 133.932H122.731Z" fill="white"/>
<path d="M134.62 140.065C134.62 138.638 135.231 136.953 136.104 135.619C136.538 134.955 137.026 134.397 137.514 134.009C138.008 133.617 138.464 133.428 138.844 133.428C138.922 133.428 139.045 133.446 139.263 133.491C139.36 133.512 139.47 133.536 139.596 133.564L139.624 133.57C139.762 133.601 139.917 133.635 140.09 133.671L140.1 133.673L140.111 133.675C140.805 133.785 141.801 133.932 143.272 133.932H152.128C153.711 133.932 154.459 133.784 155.019 133.672L155.035 133.669L155.052 133.664C155.108 133.648 155.16 133.633 155.21 133.618C155.616 133.5 155.863 133.428 156.412 133.428C156.642 133.428 157.003 133.549 157.443 133.849C157.873 134.142 158.337 134.577 158.766 135.136C159.623 136.253 160.313 137.83 160.313 139.669C160.313 140.5 160.097 141.136 159.721 141.559C159.352 141.974 158.783 142.237 157.96 142.237C156.644 142.237 155.977 141.373 155.372 140.323C155.299 140.197 155.226 140.066 155.153 139.933C154.935 139.541 154.71 139.137 154.467 138.818C154.13 138.377 153.68 137.989 153.028 137.989C152.569 137.989 152.205 138.153 151.94 138.422C151.686 138.68 151.547 139.009 151.466 139.308C151.327 139.83 151.342 140.385 151.348 140.582C151.348 140.594 151.348 140.605 151.348 140.615C151.349 140.625 151.349 140.634 151.349 140.641V151.693C151.349 152.814 151.565 153.583 151.941 154.126C152.319 154.674 152.822 154.938 153.266 155.119C153.376 155.164 153.485 155.204 153.587 155.242L153.602 155.248C153.7 155.284 153.789 155.318 153.876 155.352C154.059 155.426 154.201 155.496 154.314 155.579C154.421 155.658 154.501 155.749 154.558 155.87C154.616 155.995 154.661 156.175 154.661 156.445C154.661 156.68 154.625 156.911 154.501 157.134C154.379 157.355 154.149 157.605 153.701 157.842C152.783 158.327 151.016 158.725 147.664 158.725L147.532 158.725C146.549 158.726 144.549 158.727 142.763 158.42C141.824 158.259 140.983 158.019 140.388 157.673C139.799 157.331 139.516 156.931 139.516 156.445C139.516 156.059 139.624 155.863 139.752 155.736C139.899 155.59 140.12 155.487 140.438 155.379C140.506 155.356 140.582 155.332 140.661 155.306C140.913 155.225 141.207 155.131 141.467 155.004C141.83 154.828 142.186 154.565 142.42 154.12L142.424 154.113L142.427 154.105C142.54 153.868 142.625 153.549 142.691 153.218C142.759 152.88 142.813 152.498 142.857 152.118C142.944 151.358 142.989 150.582 143.008 150.125L143.008 150.124L143.296 142.168C143.368 140.28 143.224 139.244 142.936 138.674C142.781 138.366 142.573 138.172 142.323 138.072C142.111 137.987 141.9 137.988 141.784 137.989L141.76 137.989C141.161 137.989 140.7 138.382 140.338 138.796C140.234 138.916 140.129 139.048 140.024 139.188C139.865 139.398 139.707 139.625 139.549 139.852C139.447 139.999 139.344 140.146 139.242 140.287C138.473 141.354 137.659 142.237 136.432 142.237C135.348 142.237 134.62 141.228 134.62 140.065Z" fill="white"/>
<path d="M163.323 141.397C163.323 137.917 166.701 133.428 173.487 133.428C174.586 133.428 175.769 133.67 176.765 133.92C177.109 134.006 177.425 134.092 177.706 134.168C177.832 134.202 177.95 134.235 178.062 134.265C178.241 134.312 178.403 134.354 178.54 134.383C178.669 134.411 178.807 134.436 178.923 134.436C179.118 134.436 179.296 134.388 179.449 134.332C179.568 134.289 179.693 134.233 179.805 134.182L179.881 134.148C180.158 134.025 180.404 133.932 180.687 133.932C180.86 133.932 181.171 134.042 181.578 134.334C181.97 134.614 182.398 135.026 182.796 135.535C183.595 136.558 184.228 137.918 184.228 139.309C184.228 140.396 183.539 141.337 182.523 141.337C182.046 141.337 181.593 141.136 181.098 140.776C180.707 140.492 180.325 140.137 179.904 139.744L179.902 139.743C179.78 139.63 179.656 139.513 179.526 139.395C178.398 138.362 177.007 137.233 174.963 137.233C174.352 137.233 173.687 137.37 173.162 137.716C172.617 138.076 172.24 138.652 172.24 139.453C172.24 140.318 172.63 140.925 173.253 141.365C173.845 141.782 174.656 142.057 175.53 142.312C175.786 142.387 176.051 142.461 176.322 142.537C177.944 142.992 179.805 143.513 181.536 144.663C182.613 145.375 183.397 146.15 183.914 147.05C184.43 147.949 184.696 148.999 184.696 150.289C184.696 152.279 183.879 154.405 182.059 156.038C180.239 157.669 177.386 158.833 173.271 158.833C172.113 158.833 170.528 158.683 168.979 158.394C167.423 158.105 165.946 157.683 164.979 157.157C164.633 156.962 164.305 156.607 164.005 156.118C163.707 155.632 163.453 155.039 163.249 154.407C162.838 153.14 162.639 151.77 162.639 150.901C162.639 150.468 162.737 150.071 162.92 149.797C163.089 149.542 163.34 149.376 163.731 149.376C164.179 149.376 164.523 149.612 164.915 150.11C165.112 150.361 165.306 150.657 165.523 150.995L165.566 151.062C165.769 151.377 165.99 151.721 166.24 152.065C166.779 152.807 167.467 153.573 168.468 154.15C169.471 154.728 170.76 155.1 172.479 155.1C172.924 155.1 173.678 154.993 174.336 154.694C174.986 154.398 175.671 153.848 175.671 152.917C175.671 152.097 175.264 151.533 174.653 151.121C174.071 150.729 173.272 150.451 172.415 150.173C172.287 150.131 172.157 150.089 172.024 150.047C170.351 149.509 168.371 148.873 166.585 147.441C164.67 145.908 163.323 143.822 163.323 141.397Z" fill="white"/>
<path fill-rule="evenodd" clip-rule="evenodd" d="M50.994 135.169C50.994 134.851 51.0911 134.621 51.2416 134.442C51.3985 134.255 51.6321 134.102 51.9308 133.984C52.5353 133.743 53.308 133.68 53.9223 133.68H65.6583C70.5717 133.68 73.7656 135.197 75.738 137.443C77.7193 139.7 78.5227 142.756 78.5227 145.933C78.5227 149.203 77.5642 152.346 75.5266 154.665C73.497 156.974 70.36 158.509 65.9103 158.509C64.3685 158.509 63.0819 158.473 61.9774 158.402L61.5925 158.389C60.6297 158.357 59.7563 158.329 58.8543 158.329C57.8377 158.329 56.7865 158.365 55.7794 158.401L55.7719 158.401L55.7644 158.402C54.7665 158.473 53.7685 158.509 52.7343 158.509C52.182 158.509 51.5695 158.369 51.1096 158.085C50.6623 157.81 50.382 157.418 50.382 156.877C50.382 156.587 50.4221 156.411 50.4697 156.302C50.5133 156.201 50.5691 156.142 50.6391 156.096C50.7195 156.044 50.8269 156.001 50.9877 155.954C51.0275 155.942 51.073 155.929 51.122 155.915C51.2486 155.879 51.3996 155.837 51.5401 155.786C51.9709 155.631 52.4313 155.362 52.7748 154.741C53.1043 154.145 53.3063 153.26 53.3339 151.917L53.6219 139.426L53.6219 139.425C53.6408 138.453 53.48 137.779 53.1781 137.295C52.8713 136.804 52.4531 136.565 52.0905 136.398C52.0078 136.36 51.9253 136.325 51.8493 136.292L51.832 136.285C51.7493 136.249 51.6747 136.217 51.6038 136.184C51.4614 136.117 51.3539 136.054 51.2698 135.981C51.1292 135.859 50.994 135.66 50.994 135.169ZM63.4623 136.765C62.6755 136.765 62.0756 136.92 61.7362 137.429C61.5784 137.665 61.5049 137.941 61.467 138.222C61.4291 138.502 61.4227 138.822 61.4227 139.165V152.593C61.4227 153.058 61.4406 153.479 61.5043 153.844C61.5683 154.211 61.6826 154.548 61.8941 154.829C62.3342 155.414 63.0722 155.604 64.0743 155.604C65.2838 155.604 66.2691 155.293 67.0589 154.748C67.8455 154.205 68.4125 153.447 68.8184 152.593C69.6245 150.895 69.822 148.757 69.822 146.941C69.822 142.691 69.0258 140.134 67.7961 138.637C66.5478 137.118 64.9173 136.765 63.4623 136.765Z" fill="white"/>
<path d="M104.222 124.619C103.327 124.619 102.661 124.384 102.225 123.914C101.788 123.444 101.57 122.845 101.57 122.118V117.888H99.2201V115.958H100.748C101.117 115.958 101.38 115.885 101.537 115.74C101.693 115.594 101.772 115.325 101.772 114.934V112.903H104.054V115.958H107.428V117.888H104.054V122.689H107.428V124.619H104.222Z" fill="white"/>
<path d="M113.028 112.198H115.512V117.536H115.613C115.714 117.289 115.837 117.06 115.982 116.847C116.128 116.635 116.301 116.45 116.503 116.293C116.715 116.126 116.956 115.997 117.225 115.907C117.504 115.807 117.818 115.756 118.165 115.756C118.579 115.756 118.959 115.829 119.306 115.975C119.653 116.109 119.949 116.316 120.196 116.596C120.442 116.875 120.632 117.217 120.766 117.62C120.912 118.022 120.985 118.487 120.985 119.013V124.619H118.5V119.348C118.5 118.229 118.014 117.67 117.04 117.67C116.85 117.67 116.659 117.698 116.469 117.754C116.29 117.799 116.128 117.877 115.982 117.989C115.837 118.09 115.719 118.218 115.63 118.375C115.552 118.532 115.512 118.716 115.512 118.929V124.619H113.028V112.198Z" fill="white"/>
<path d="M130.63 124.821C129.175 124.821 128.073 124.418 127.323 123.612C126.573 122.806 126.198 121.71 126.198 120.322C126.198 119.617 126.294 118.985 126.484 118.425C126.685 117.855 126.965 117.373 127.323 116.982C127.692 116.579 128.134 116.277 128.649 116.075C129.175 115.863 129.763 115.756 130.412 115.756C131.061 115.756 131.643 115.863 132.157 116.075C132.672 116.277 133.108 116.568 133.467 116.948C133.825 117.329 134.099 117.793 134.289 118.341C134.491 118.878 134.591 119.483 134.591 120.154V120.893H128.666V121.044C128.666 121.603 128.839 122.057 129.186 122.403C129.533 122.739 130.042 122.907 130.714 122.907C131.228 122.907 131.671 122.812 132.04 122.622C132.409 122.42 132.728 122.157 132.997 121.833L134.339 123.293C134.004 123.707 133.534 124.065 132.929 124.367C132.325 124.67 131.559 124.821 130.63 124.821ZM130.428 117.536C129.891 117.536 129.46 117.703 129.136 118.039C128.823 118.364 128.666 118.806 128.666 119.365V119.5H132.157V119.365C132.157 118.795 132.001 118.347 131.687 118.022C131.385 117.698 130.966 117.536 130.428 117.536Z" fill="white"/>
<path d="M157.094 21.3111C157.204 20.4184 158.498 20.4184 158.607 21.3111L160.019 32.8654C161.548 45.3773 171.407 55.2367 183.919 56.7657L195.474 58.1776C196.366 58.2867 196.366 59.5812 195.474 59.6903L183.919 61.1022C171.407 62.6312 161.548 72.4906 160.019 85.0025L158.607 96.5567C158.498 97.4494 157.204 97.4494 157.094 96.5567L155.682 85.0025C154.153 72.4906 144.294 62.6312 131.782 61.1022L120.228 59.6903C119.335 59.5812 119.335 58.2867 120.228 58.1776L131.782 56.7657C144.294 55.2367 154.153 45.3773 155.682 32.8654L157.094 21.3111Z" fill="white"/>
<path fill-rule="evenodd" clip-rule="evenodd" d="M156.102 21.1898C156.354 19.1255 159.347 19.1255 159.6 21.1898L161.012 32.7441C162.485 44.7999 171.985 54.2998 184.041 55.773L195.595 57.185C197.659 57.4373 197.659 60.4306 195.595 60.6829L184.041 62.0948C171.985 63.5681 162.485 73.068 161.012 85.1238L159.6 96.678C159.347 98.7423 156.354 98.7423 156.102 96.678L154.69 85.1238C153.217 73.068 143.717 63.5681 131.661 62.0948L120.107 60.6829C118.042 60.4306 118.042 57.4373 120.107 57.185L131.661 55.773C143.717 54.2998 153.217 44.7999 154.69 32.7441L156.102 21.1898ZM157.851 23.3661L156.675 32.9867C155.09 45.9547 144.872 56.1736 131.903 57.7583L122.283 58.9339L131.903 60.1096C144.872 61.6943 155.09 71.9131 156.675 84.8812L157.851 94.5018L159.026 84.8812C160.611 71.9131 170.83 61.6943 183.798 60.1096L193.419 58.9339L183.798 57.7583C170.83 56.1736 160.611 45.9547 159.026 32.9867L157.851 23.3661Z" fill="#333333"/>
<path d="M249.376 218.476C249.209 218.476 249.064 218.446 248.941 218.387C248.817 218.326 248.715 218.238 248.634 218.125C248.555 218.012 248.496 217.872 248.457 217.707C248.42 217.542 248.401 217.354 248.401 217.142C248.401 216.933 248.42 216.746 248.457 216.581C248.496 216.413 248.555 216.273 248.634 216.16C248.715 216.046 248.817 215.96 248.941 215.901C249.064 215.84 249.209 215.809 249.376 215.809C249.711 215.809 249.958 215.926 250.115 216.16C250.273 216.394 250.352 216.721 250.352 217.142C250.352 217.563 250.273 217.891 250.115 218.125C249.958 218.359 249.711 218.476 249.376 218.476ZM249.376 218.08C249.463 218.08 249.535 218.064 249.594 218.032C249.653 217.998 249.7 217.95 249.735 217.888C249.772 217.827 249.798 217.752 249.812 217.663C249.83 217.572 249.838 217.471 249.838 217.36V216.921C249.838 216.699 249.804 216.524 249.735 216.396C249.668 216.268 249.549 216.204 249.376 216.204C249.204 216.204 249.083 216.268 249.014 216.396C248.948 216.524 248.915 216.699 248.915 216.921V217.364C248.915 217.586 248.948 217.76 249.014 217.888C249.083 218.016 249.204 218.08 249.376 218.08Z" fill="white"/>
<path d="M253.036 217.982L253.918 215.56L254.838 215.894C255.074 215.98 255.23 216.113 255.306 216.293C255.382 216.472 255.378 216.678 255.294 216.909C255.21 217.141 255.081 217.301 254.907 217.39C254.733 217.478 254.528 217.48 254.292 217.394L253.827 217.225L253.491 218.148L253.036 217.982ZM253.962 216.853L254.334 216.988C254.456 217.033 254.553 217.041 254.624 217.011C254.696 216.98 254.751 216.91 254.791 216.801L254.839 216.669C254.879 216.56 254.881 216.472 254.845 216.404C254.81 216.334 254.732 216.276 254.609 216.232L254.238 216.096L253.962 216.853Z" fill="white"/>
<path d="M257.214 220.114L258.871 218.139L259.621 218.768C259.814 218.929 259.915 219.108 259.925 219.303C259.935 219.497 259.861 219.689 259.703 219.878C259.544 220.066 259.368 220.173 259.175 220.197C258.981 220.221 258.788 220.152 258.596 219.99L258.216 219.672L257.585 220.425L257.214 220.114ZM258.471 219.369L258.773 219.624C258.873 219.707 258.962 219.748 259.038 219.745C259.116 219.739 259.193 219.693 259.267 219.604L259.357 219.496C259.432 219.408 259.464 219.325 259.454 219.249C259.445 219.171 259.391 219.091 259.291 219.007L258.988 218.753L258.471 219.369Z" fill="white"/>
<path d="M260.779 224.272C260.695 224.127 260.648 223.986 260.638 223.85C260.63 223.713 260.654 223.581 260.712 223.454C260.77 223.329 260.861 223.208 260.985 223.091C261.109 222.977 261.263 222.867 261.446 222.761C261.628 222.656 261.799 222.579 261.96 222.528C262.125 222.478 262.276 222.459 262.414 222.471C262.552 222.485 262.678 222.53 262.791 222.607C262.906 222.683 263.005 222.794 263.089 222.939C263.256 223.229 263.278 223.5 263.154 223.754C263.03 224.007 262.786 224.239 262.422 224.45C262.057 224.66 261.734 224.756 261.452 224.736C261.171 224.717 260.947 224.562 260.779 224.272ZM261.121 224.074C261.164 224.149 261.215 224.204 261.272 224.239C261.331 224.273 261.396 224.29 261.467 224.289C261.539 224.29 261.617 224.275 261.701 224.243C261.788 224.213 261.88 224.17 261.976 224.114L262.357 223.894C262.549 223.784 262.683 223.666 262.759 223.543C262.837 223.421 262.833 223.285 262.746 223.136C262.66 222.987 262.544 222.914 262.399 222.919C262.255 222.925 262.087 222.984 261.895 223.095L261.511 223.316C261.319 223.427 261.184 223.543 261.107 223.665C261.03 223.789 261.035 223.925 261.121 224.074Z" fill="white"/>
<path d="M262.314 228.533C262.276 228.314 262.28 228.121 262.328 227.953C262.376 227.787 262.454 227.644 262.56 227.525L262.909 227.76C262.817 227.874 262.754 227.99 262.72 228.109C262.688 228.229 262.684 228.352 262.706 228.479C262.732 228.624 262.784 228.73 262.863 228.796C262.942 228.862 263.044 228.884 263.167 228.862C263.269 228.844 263.341 228.802 263.381 228.735C263.424 228.667 263.445 228.562 263.442 228.42L263.438 228.143C263.438 227.901 263.493 227.718 263.604 227.596C263.718 227.474 263.863 227.397 264.04 227.366C264.283 227.323 264.482 227.369 264.638 227.504C264.797 227.639 264.901 227.845 264.95 228.124C264.985 228.323 264.984 228.5 264.946 228.654C264.909 228.81 264.843 228.942 264.749 229.048L264.402 228.821C264.47 228.739 264.519 228.647 264.548 228.544C264.58 228.441 264.584 228.325 264.562 228.196C264.513 227.92 264.375 227.802 264.147 227.842C264.05 227.859 263.981 227.901 263.94 227.968C263.899 228.036 263.879 228.142 263.88 228.287L263.879 228.56C263.877 228.788 263.825 228.966 263.722 229.095C263.62 229.223 263.474 229.303 263.285 229.337C263.166 229.358 263.053 229.356 262.947 229.333C262.842 229.308 262.747 229.263 262.66 229.196C262.575 229.128 262.503 229.038 262.444 228.926C262.384 228.817 262.341 228.685 262.314 228.533Z" fill="white"/>
<path d="M262.486 232.541L262.842 232.604L262.741 233.175L264.568 233.497L264.668 232.926L265.025 232.989L264.74 234.604L264.384 234.541L264.484 233.97L262.658 233.648L262.557 234.219L262.201 234.156L262.486 232.541Z" fill="white"/>
<path d="M262.568 238.21L262.587 238.178L260.984 237.252L261.191 236.894L263.424 238.183L263.126 238.698L261.186 238.358L261.167 238.39L262.77 239.316L262.563 239.674L260.33 238.385L260.628 237.87L262.568 238.21Z" fill="white"/>
<path d="M257.551 241.861L257.574 241.842C257.558 241.789 257.546 241.732 257.539 241.674C257.532 241.616 257.534 241.557 257.546 241.499C257.558 241.441 257.582 241.382 257.617 241.324C257.65 241.268 257.697 241.213 257.759 241.161C257.959 240.993 258.185 240.954 258.436 241.042C258.686 241.134 258.945 241.339 259.213 241.658C259.495 241.994 259.65 242.301 259.678 242.58C259.706 242.858 259.594 243.103 259.343 243.313C259.245 243.396 259.148 243.455 259.053 243.49C258.955 243.527 258.86 243.544 258.768 243.541C258.673 243.54 258.582 243.52 258.492 243.483C258.403 243.449 258.316 243.403 258.232 243.345L258.49 242.963C258.539 242.994 258.588 243.022 258.638 243.047C258.686 243.074 258.735 243.091 258.786 243.097C258.835 243.106 258.885 243.105 258.935 243.092C258.987 243.08 259.039 243.053 259.092 243.008C259.215 242.905 259.261 242.783 259.232 242.64C259.202 242.498 259.116 242.342 258.974 242.172L258.708 241.855C258.637 241.77 258.565 241.697 258.494 241.634C258.422 241.576 258.351 241.533 258.28 241.506C258.209 241.478 258.139 241.47 258.07 241.479C258.002 241.491 257.935 241.525 257.867 241.582C257.761 241.671 257.707 241.769 257.705 241.877C257.704 241.987 257.744 242.092 257.827 242.19L257.962 242.351L258.321 242.049L258.547 242.318L257.857 242.898L256.99 241.865L257.321 241.587L257.551 241.861Z" fill="white"/>
<path d="M248.776 245.552V243.373H249.256V245.552H250.032V245.951H248V245.552H248.776Z" fill="white"/>
<path d="M243.734 244.481L244.442 244.739L244.821 243.698L245.276 243.863L244.394 246.286L243.939 246.121L244.306 245.114L243.598 244.856L243.231 245.863L242.777 245.697L243.658 243.275L244.113 243.44L243.734 244.481Z" fill="white"/>
<path d="M240.353 241.12C240.482 241.228 240.574 241.344 240.63 241.468C240.685 241.595 240.707 241.727 240.696 241.866C240.684 242.004 240.64 242.148 240.564 242.3C240.486 242.45 240.379 242.606 240.243 242.769C240.109 242.929 239.974 243.061 239.84 243.163C239.702 243.266 239.566 243.336 239.433 243.372C239.298 243.406 239.165 243.407 239.032 243.373C238.898 243.341 238.767 243.271 238.639 243.163C238.382 242.948 238.269 242.7 238.299 242.42C238.328 242.139 238.478 241.838 238.749 241.515C239.02 241.192 239.291 240.992 239.562 240.914C239.833 240.836 240.097 240.905 240.353 241.12ZM240.099 241.423C240.033 241.368 239.967 241.333 239.901 241.32C239.834 241.308 239.767 241.315 239.701 241.34C239.633 241.363 239.565 241.404 239.497 241.463C239.425 241.521 239.354 241.593 239.282 241.678L239 242.015C238.857 242.185 238.771 242.341 238.742 242.483C238.711 242.624 238.761 242.75 238.893 242.861C239.025 242.971 239.159 243 239.294 242.946C239.427 242.891 239.565 242.778 239.707 242.608L239.992 242.269C240.135 242.099 240.222 241.944 240.253 241.803C240.283 241.661 240.231 241.534 240.099 241.423Z" fill="white"/>
<path d="M235.365 239.27L236.757 238.466C236.84 238.418 236.913 238.373 236.977 238.331C237.039 238.286 237.088 238.24 237.122 238.191C237.154 238.142 237.169 238.087 237.169 238.028C237.167 237.966 237.143 237.895 237.096 237.814C237.05 237.733 237 237.677 236.949 237.647C236.896 237.615 236.841 237.601 236.784 237.606C236.724 237.609 236.659 237.628 236.591 237.662C236.521 237.694 236.444 237.734 236.361 237.782L234.97 238.585L234.728 238.166L236.055 237.4C236.213 237.309 236.356 237.239 236.485 237.19C236.613 237.142 236.733 237.122 236.844 237.132C236.955 237.142 237.059 237.185 237.158 237.262C237.253 237.338 237.346 237.456 237.439 237.616C237.531 237.776 237.587 237.917 237.606 238.04C237.623 238.161 237.607 238.272 237.56 238.373C237.513 238.474 237.437 238.568 237.331 238.655C237.224 238.742 237.092 238.831 236.935 238.922L235.607 239.689L235.365 239.27Z" fill="white"/>
<path d="M235.348 232.748L235.353 232.777C235.408 232.79 235.463 232.808 235.517 232.831C235.571 232.854 235.62 232.885 235.665 232.925C235.709 232.964 235.748 233.014 235.781 233.073C235.813 233.13 235.837 233.198 235.851 233.278C235.896 233.535 235.818 233.75 235.616 233.924C235.411 234.095 235.103 234.216 234.694 234.289C234.262 234.365 233.918 234.345 233.663 234.23C233.408 234.115 233.252 233.897 233.195 233.574C233.172 233.448 233.17 233.335 233.187 233.234C233.204 233.131 233.237 233.04 233.286 232.962C233.334 232.881 233.396 232.811 233.474 232.752C233.548 232.692 233.631 232.639 233.724 232.596L233.924 233.01C233.874 233.037 233.825 233.065 233.778 233.096C233.731 233.125 233.692 233.159 233.661 233.199C233.628 233.238 233.605 233.282 233.591 233.332C233.575 233.382 233.573 233.441 233.585 233.509C233.612 233.667 233.695 233.768 233.833 233.814C233.972 233.86 234.15 233.863 234.368 233.825L234.775 233.753C234.884 233.734 234.984 233.709 235.073 233.678C235.16 233.645 235.233 233.605 235.292 233.557C235.351 233.509 235.394 233.453 235.42 233.388C235.444 233.324 235.448 233.248 235.432 233.161C235.408 233.025 235.35 232.929 235.258 232.873C235.163 232.817 235.052 232.8 234.926 232.822L234.719 232.859L234.8 233.321L234.455 233.382L234.298 232.494L235.626 232.26L235.701 232.686L235.348 232.748Z" fill="white"/>
<path d="M234.773 227.989L234.642 228.731L235.733 228.924L235.649 229.4L233.11 228.952L233.194 228.476L234.249 228.662L234.38 227.92L233.325 227.734L233.409 227.257L235.948 227.705L235.864 228.182L234.773 227.989Z" fill="white"/>
<path d="M235.634 222.853L237.521 223.943L237.281 224.359L235.394 223.269L235.006 223.941L234.66 223.742L235.676 221.982L236.021 222.182L235.634 222.853Z" fill="white"/>
<path d="M240.418 220.616C240.248 220.759 240.078 220.851 239.909 220.894C239.741 220.935 239.579 220.94 239.422 220.907L239.451 220.487C239.596 220.51 239.728 220.507 239.848 220.477C239.968 220.444 240.077 220.386 240.175 220.304C240.288 220.209 240.354 220.111 240.371 220.009C240.389 219.907 240.357 219.809 240.277 219.712C240.21 219.633 240.138 219.593 240.059 219.591C239.979 219.588 239.878 219.622 239.756 219.696L239.519 219.837C239.309 219.959 239.123 220.002 238.962 219.967C238.799 219.93 238.66 219.843 238.544 219.705C238.386 219.516 238.326 219.321 238.365 219.118C238.402 218.913 238.529 218.72 238.746 218.538C238.901 218.408 239.054 218.321 239.207 218.276C239.361 218.23 239.508 218.221 239.647 218.249L239.624 218.664C239.519 218.646 239.414 218.65 239.311 218.676C239.206 218.7 239.103 218.754 239.003 218.838C238.788 219.018 238.755 219.197 238.904 219.375C238.967 219.45 239.038 219.489 239.116 219.49C239.195 219.492 239.297 219.456 239.422 219.383L239.659 219.247C239.858 219.135 240.038 219.091 240.2 219.116C240.363 219.14 240.505 219.226 240.629 219.373C240.706 219.466 240.762 219.564 240.794 219.669C240.826 219.771 240.834 219.876 240.819 219.985C240.803 220.092 240.761 220.2 240.694 220.307C240.629 220.414 240.537 220.516 240.418 220.616Z" fill="white"/>
<path d="M254.159 244.2C254.159 244.45 253.956 244.653 253.705 244.653C253.455 244.653 253.252 244.45 253.252 244.2C253.252 243.949 253.455 243.746 253.705 243.746C253.956 243.746 254.159 243.949 254.159 244.2Z" fill="white"/>
<path d="M244.595 217.526C244.595 217.777 244.392 217.98 244.141 217.98C243.891 217.98 243.687 217.777 243.687 217.526C243.687 217.275 243.891 217.072 244.141 217.072C244.392 217.072 244.595 217.275 244.595 217.526Z" fill="white"/>
</svg>
