<svg width="405" height="147" viewBox="0 0 405 147" fill="none" xmlns="http://www.w3.org/2000/svg">
<path d="M281.507 108.504L282.637 117.754C285.071 137.671 313.952 137.671 316.386 117.754L318.239 102.589C319.354 93.4666 326.543 86.2779 335.665 85.163L350.83 83.31C362.611 81.8703 367.423 71.1774 365.267 62.1779L395.999 45.1808C402.384 41.6495 405.571 34.2457 403.748 27.1808C401.924 20.1159 395.552 15.1796 388.256 15.1796H316.394L316.386 15.1175C313.952 -4.79945 285.071 -4.80003 282.637 15.1175L282.629 15.1796H16.2556C12.0122 15.1796 7.94249 16.8653 4.94191 19.8659C1.94132 22.8664 0.255615 26.9361 0.255615 31.1796V90.1796C0.255615 99.0161 7.41906 106.18 16.2556 106.18H79.2556V130.18C79.2556 139.016 86.4191 146.18 95.2556 146.18H209.256C211.964 146.18 214.629 145.492 216.999 144.181L281.507 108.504Z" fill="#AF71FE"/>
<path fill-rule="evenodd" clip-rule="evenodd" d="M174.902 130.18H209.256L388.256 31.1796H174.902V130.18Z" fill="#2678F4"/>
<path fill-rule="evenodd" clip-rule="evenodd" d="M173.902 31.1796C173.902 30.6273 174.35 30.1796 174.902 30.1796H388.256C388.712 30.1796 389.11 30.4881 389.224 30.9296C389.338 31.3712 389.139 31.8339 388.74 32.0546L209.74 131.055C209.591 131.137 209.425 131.18 209.256 131.18H174.902C174.35 131.18 173.902 130.732 173.902 130.18V31.1796ZM175.902 32.1796V129.18H208.998L384.381 32.1796H175.902Z" fill="#333333"/>
<path d="M16.2556 31.1796L354.256 31.1796L175.256 130.18H95.2556V90.1796H16.2556V31.1796Z" fill="#333333"/>
<path fill-rule="evenodd" clip-rule="evenodd" d="M15.5485 30.4725C15.736 30.2849 15.9904 30.1796 16.2556 30.1796L354.256 30.1796C354.712 30.1796 355.11 30.4881 355.224 30.9296C355.338 31.3712 355.139 31.8339 354.74 32.0546L175.74 131.055C175.591 131.137 175.425 131.18 175.256 131.18H95.2556C94.7033 131.18 94.2556 130.732 94.2556 130.18V91.1796H16.2556C15.7033 91.1796 15.2556 90.7318 15.2556 90.1796V31.1796C15.2556 30.9143 15.361 30.66 15.5485 30.4725ZM17.2556 32.1796V89.1796H95.2556C95.8079 89.1796 96.2556 89.6273 96.2556 90.1796V129.18H174.998L350.381 32.1796L17.2556 32.1796Z" fill="#333333"/>
<path d="M106.764 60.3536C106.764 52.0728 114.59 45.6496 122.644 45.6496C124.616 45.6496 126.241 46.142 127.522 46.6441C127.937 46.8067 128.3 46.9634 128.635 47.1084C128.83 47.1926 129.016 47.2728 129.197 47.348C129.646 47.5339 130.108 47.7076 130.498 47.7076C131.023 47.7076 131.366 47.6217 131.654 47.5427L131.697 47.5307C131.948 47.4617 132.123 47.4136 132.388 47.4136C133.026 47.4136 133.9 47.9133 134.643 49.0867C135.372 50.2384 135.92 51.9691 135.92 54.2216C135.92 55.3234 135.591 56.3067 135.011 57.005C134.439 57.6937 133.604 58.1316 132.514 58.1316C131.609 58.1316 130.993 57.7568 130.439 57.1368C130.017 56.6645 129.662 56.0899 129.261 55.4416C129.103 55.1863 128.939 54.9195 128.76 54.643C128.147 53.6964 127.404 52.7003 126.305 51.9467C125.197 51.1867 123.762 50.6976 121.804 50.6976C120.006 50.6976 118.716 51.5484 117.894 52.7093C117.084 53.8526 116.726 55.2918 116.726 56.5316C116.726 59.722 117.576 62.7107 119.219 64.9153C120.871 67.1326 123.314 68.5396 126.424 68.5396C129.197 68.5396 130.83 67.7815 131.94 66.9994C132.306 66.7418 132.632 66.4676 132.896 66.2443C133.013 66.1463 133.117 66.0582 133.208 65.9855C133.547 65.7157 133.72 65.6416 133.858 65.6416C134.239 65.6416 134.551 65.8557 134.791 66.2481C135.036 66.6478 135.164 67.1744 135.164 67.6196C135.164 68.417 134.728 69.7527 134.011 70.9042C133.657 71.4722 133.252 71.966 132.83 72.3125C132.406 72.6609 132 72.8316 131.632 72.8316C131.162 72.8316 130.623 73.0253 130.079 73.2499C129.837 73.3495 129.596 73.4547 129.342 73.5652C128.969 73.7274 128.571 73.901 128.108 74.0849C126.608 74.6806 124.7 75.2676 122.308 75.2676C113.745 75.2676 106.764 68.5014 106.764 60.3536Z" fill="white"/>
<path d="M182.118 53.3816C182.118 51.7195 182.83 49.7555 183.848 48.2007C184.354 47.4272 184.923 46.7768 185.491 46.3252C186.066 45.8682 186.596 45.6496 187.036 45.6496C187.126 45.6496 187.268 45.6701 187.523 45.7231C187.637 45.7468 187.764 45.7751 187.912 45.8078L187.944 45.8149C188.105 45.8504 188.285 45.8903 188.487 45.9328L188.5 45.9355L188.513 45.9374C189.322 46.0653 190.485 46.2376 192.202 46.2376H202.535C204.382 46.2376 205.255 46.0645 205.909 45.9339L205.928 45.9299L205.948 45.9243C206.013 45.9057 206.074 45.8879 206.133 45.8709C206.605 45.7333 206.893 45.6496 207.533 45.6496C207.797 45.6496 208.217 45.7897 208.73 46.139C209.23 46.4795 209.771 46.9869 210.27 47.6379C211.269 48.9398 212.073 50.7778 212.073 52.9196C212.073 53.8883 211.821 54.6273 211.385 55.1181C210.957 55.5998 210.296 55.9056 209.339 55.9056C207.808 55.9056 207.034 54.9031 206.328 53.6779C206.243 53.5314 206.158 53.3784 206.072 53.2236C205.818 52.7665 205.555 52.2933 205.271 51.9207C204.878 51.4052 204.349 50.9496 203.585 50.9496C203.045 50.9496 202.619 51.1421 202.308 51.4583C202.01 51.7608 201.846 52.146 201.752 52.4965C201.589 53.1067 201.607 53.7559 201.613 53.9859C201.614 54.0037 201.614 54.019 201.614 54.0316C201.614 54.0402 201.615 54.0476 201.615 54.0536V66.9476C201.615 68.2568 201.867 69.1564 202.307 69.7931C202.75 70.4349 203.339 70.7429 203.858 70.9543C203.986 71.0068 204.114 71.0544 204.232 71.0986L204.25 71.1052C204.364 71.1476 204.469 71.1866 204.569 71.2271C204.782 71.3129 204.948 71.3942 205.078 71.4903C205.202 71.5816 205.294 71.6864 205.36 71.8263C205.427 71.9702 205.479 72.1782 205.479 72.4916C205.479 72.7651 205.437 73.0327 205.294 73.2906C205.152 73.5467 204.886 73.8368 204.364 74.1128C203.296 74.6778 201.236 75.1416 197.326 75.1416L197.172 75.1417C196.026 75.1425 193.693 75.1444 191.61 74.7865C190.515 74.5985 189.535 74.3181 188.842 73.9157C188.157 73.5178 187.83 73.0538 187.83 72.4916C187.83 72.0443 187.956 71.8182 188.103 71.6724C188.273 71.5039 188.528 71.3848 188.899 71.2587C188.979 71.2315 189.066 71.2034 189.158 71.1738C189.453 71.0793 189.797 70.969 190.101 70.8207C190.525 70.614 190.942 70.3061 191.217 69.7844L191.222 69.7756L191.226 69.7665C191.358 69.4886 191.457 69.1163 191.534 68.7297C191.614 68.3345 191.677 67.889 191.728 67.4454C191.83 66.5579 191.883 65.6524 191.904 65.1196L191.904 65.1177L192.24 55.8357C192.324 53.6328 192.156 52.4219 191.819 51.7545C191.637 51.3939 191.393 51.1649 191.099 51.0475C190.849 50.9479 190.602 50.9489 190.466 50.9495L190.438 50.9496C189.735 50.9496 189.194 51.411 188.772 51.8951C188.651 52.0339 188.529 52.187 188.407 52.3486C188.221 52.5955 188.035 52.8622 187.85 53.1275L187.849 53.1285C187.73 53.2999 187.61 53.4707 187.492 53.6353C186.595 54.8801 185.648 55.9056 184.223 55.9056C182.966 55.9056 182.118 54.7356 182.118 53.3816Z" fill="white"/>
<path d="M164.508 47.7956C164.508 47.3307 164.713 46.9869 165.094 46.705C165.494 46.4086 166.076 46.1941 166.763 46.0482C168.059 45.7727 169.552 45.7744 170.451 45.7755L170.602 45.7756C171.407 45.7756 172.906 45.7774 174.199 46.0679C174.846 46.2135 175.395 46.4221 175.771 46.7037C176.13 46.9716 176.318 47.2905 176.318 47.7116C176.318 48.1614 176.179 48.3731 175.998 48.5305C175.892 48.6225 175.758 48.7062 175.586 48.7978C175.5 48.8433 175.411 48.888 175.313 48.9367L175.302 48.9422C175.21 48.9884 175.11 49.0381 175.01 49.0909C174.59 49.3119 174.109 49.6127 173.745 50.1559C173.379 50.7007 173.168 51.4334 173.168 52.4576V63.8062C173.168 64.7511 173.168 67.6018 171.454 70.2173C169.76 72.8025 166.314 75.2676 159.178 75.2676C155.104 75.2676 152.206 74.4818 150.144 73.3283C148.086 72.1773 146.833 70.6447 146.071 69.0993C144.692 66.3059 144.906 63.4834 144.966 62.6885C144.973 62.5951 144.978 62.5296 144.978 62.4956V52.8089C145.023 52.0561 144.853 51.463 144.556 50.9743C144.266 50.4956 143.868 50.1427 143.515 49.8513C143.46 49.8055 143.406 49.7614 143.354 49.7187C142.685 49.1696 142.29 48.8457 142.29 48.2156C142.29 48.1727 142.289 48.1321 142.288 48.0928C142.284 47.9476 142.281 47.8195 142.331 47.6531C142.388 47.4666 142.527 47.2088 142.923 46.9376C143.755 46.3679 145.667 45.7756 149.98 45.7756C153.393 45.7756 155.363 46.0929 156.465 46.5693C157.005 46.803 157.305 47.0618 157.475 47.3108C157.642 47.5566 157.712 47.8373 157.712 48.1736C157.712 48.842 157.546 49.0642 157.41 49.1776C157.324 49.2491 157.21 49.3093 157.046 49.3745C156.964 49.4069 156.879 49.4375 156.78 49.4725L156.779 49.4729C156.683 49.5071 156.576 49.5453 156.468 49.5884C156.018 49.767 155.508 50.0436 155.113 50.6715C154.73 51.2796 154.49 52.1634 154.436 53.4871L154.436 53.4973V61.2356C154.436 63.7841 154.915 65.9537 156.032 67.4978C157.169 69.07 158.917 69.9256 161.278 69.9256C163.006 69.9256 164.322 69.5668 165.318 68.9916C166.316 68.4154 166.964 67.6387 167.379 66.8501C168.151 65.3873 168.126 63.8758 168.12 63.5166C168.12 63.5061 168.12 63.4966 168.12 63.4881C168.12 63.4777 168.12 63.4689 168.12 63.4616V53.0036C168.12 51.8146 167.881 50.9738 167.472 50.3594C167.061 49.7433 166.518 49.4124 166.031 49.1775C165.89 49.1093 165.732 49.0398 165.589 48.977C165.505 48.94 165.426 48.9053 165.359 48.8745C165.156 48.7813 164.996 48.6974 164.87 48.6035C164.749 48.5135 164.665 48.4198 164.609 48.3083C164.552 48.1962 164.508 48.037 164.508 47.7956Z" fill="white"/>
<path d="M138.728 93.3816C138.728 91.7195 139.439 89.7555 140.457 88.2007C140.964 87.4272 141.532 86.7768 142.1 86.3252C142.675 85.8682 143.205 85.6496 143.646 85.6496C143.735 85.6496 143.877 85.6701 144.132 85.7231C144.246 85.7468 144.374 85.7752 144.522 85.8079L144.553 85.8149C144.714 85.8504 144.894 85.8903 145.097 85.9328L145.109 85.9355L145.122 85.9374C145.932 86.0653 147.094 86.2376 148.812 86.2376H159.144C160.991 86.2376 161.865 86.0645 162.518 85.9339L162.537 85.9299L162.557 85.9243C162.622 85.9057 162.684 85.8878 162.742 85.8707C163.215 85.7331 163.502 85.6496 164.142 85.6496C164.406 85.6496 164.826 85.7897 165.339 86.139C165.839 86.4795 166.38 86.9869 166.879 87.6379C167.878 88.9398 168.682 90.7778 168.682 92.9196C168.682 93.8883 168.43 94.6273 167.994 95.1181C167.566 95.5998 166.905 95.9056 165.948 95.9056C164.417 95.9056 163.643 94.9031 162.937 93.6779C162.852 93.5313 162.767 93.3784 162.681 93.2235C162.427 92.7665 162.164 92.2933 161.88 91.9207C161.487 91.4052 160.958 90.9496 160.194 90.9496C159.654 90.9496 159.228 91.1421 158.917 91.4583C158.619 91.7608 158.455 92.146 158.361 92.4965C158.198 93.1067 158.216 93.7559 158.222 93.9859C158.223 94.016 158.224 94.0389 158.224 94.0536V106.948C158.224 108.257 158.476 109.156 158.916 109.793C159.359 110.435 159.948 110.743 160.467 110.954C160.596 111.007 160.723 111.054 160.841 111.099L160.859 111.105C160.973 111.148 161.078 111.187 161.178 111.227C161.391 111.313 161.557 111.394 161.687 111.49C161.811 111.582 161.903 111.686 161.969 111.826C162.036 111.97 162.088 112.178 162.088 112.492C162.088 112.765 162.046 113.033 161.903 113.291C161.761 113.547 161.495 113.837 160.973 114.113C159.905 114.678 157.845 115.142 153.936 115.142L153.781 115.142C152.635 115.143 150.302 115.144 148.219 114.787C147.124 114.598 146.144 114.318 145.451 113.916C144.766 113.518 144.44 113.054 144.44 112.492C144.44 112.044 144.565 111.818 144.712 111.672C144.882 111.504 145.137 111.385 145.508 111.259C145.588 111.231 145.675 111.203 145.767 111.174C146.062 111.079 146.406 110.969 146.71 110.821C147.134 110.614 147.551 110.306 147.826 109.784L147.831 109.776L147.835 109.767C147.967 109.489 148.066 109.116 148.144 108.73C148.223 108.334 148.286 107.889 148.337 107.445C148.439 106.558 148.492 105.652 148.513 105.12L148.513 105.118L148.849 95.8366C148.933 93.6332 148.765 92.422 148.428 91.7545C148.246 91.3939 148.002 91.1649 147.708 91.0475C147.458 90.9479 147.211 90.9489 147.075 90.9495L147.048 90.9496C146.344 90.9496 145.803 91.411 145.381 91.8951C145.075 92.2459 144.766 92.6885 144.459 93.1276C144.339 93.2992 144.22 93.4704 144.101 93.6353C143.204 94.8801 142.257 95.9056 140.832 95.9056C139.575 95.9056 138.728 94.7356 138.728 93.3816Z" fill="white"/>
<path d="M178.178 91.5756C178.178 90.0897 178.531 88.5883 179.275 87.4748C180.005 86.3821 181.116 85.6496 182.718 85.6496C184.321 85.6496 185.431 86.3821 186.161 87.4748C186.905 88.5883 187.258 90.0897 187.258 91.5756C187.258 94.0785 186.323 97.1501 185.171 99.4127L185.168 99.4191L185.165 99.4255C184.983 99.8078 184.535 100.664 184.009 101.417C183.746 101.794 183.476 102.127 183.222 102.361C182.949 102.612 182.782 102.668 182.718 102.668C182.655 102.668 182.488 102.612 182.215 102.361C181.961 102.127 181.691 101.794 181.427 101.417C180.902 100.664 180.453 99.8078 180.272 99.4255L180.269 99.4191L180.266 99.4127C179.114 97.1501 178.178 94.0785 178.178 91.5756Z" fill="white"/>
<path d="M114.344 88.2996C114.344 87.8254 114.669 87.3894 115.426 86.9948C116.173 86.6058 117.209 86.3327 118.316 86.1466C120.518 85.7761 122.834 85.7756 123.252 85.7756C124.517 85.7756 126.383 85.7984 127.925 86.1613C128.697 86.343 129.341 86.5999 129.783 86.9452C130.206 87.276 130.438 87.6798 130.438 88.2156C130.438 88.4964 130.367 88.6678 130.272 88.7955C130.167 88.9362 130.007 89.0607 129.766 89.2017C129.652 89.2683 129.531 89.3328 129.396 89.4049L129.376 89.4158C129.235 89.4905 129.082 89.5725 128.928 89.6637C128.619 89.847 128.29 90.0774 128.001 90.4043L127.997 90.4088C127.71 90.7412 127.538 91.2589 127.419 91.7993C127.296 92.3619 127.214 93.0387 127.158 93.7631C127.046 95.2129 127.036 96.9111 127.036 98.3796V102.538C127.036 106.264 127.159 108.152 127.407 109.176C127.534 109.701 127.706 110.055 127.955 110.314C128.139 110.506 128.367 110.634 128.525 110.723C128.562 110.743 128.595 110.762 128.622 110.778C128.843 110.911 129.064 111.027 129.262 111.131C129.313 111.157 129.362 111.183 129.41 111.209C129.65 111.336 129.842 111.446 129.998 111.565C130.149 111.681 130.252 111.796 130.32 111.927C130.388 112.058 130.438 112.233 130.438 112.492C130.438 112.784 130.414 113.042 130.289 113.29C130.167 113.53 129.922 113.815 129.373 114.093C128.242 114.665 125.953 115.142 121.362 115.142C120.477 115.142 118.764 115.13 117.282 114.797C116.538 114.63 115.898 114.392 115.455 114.068C115.028 113.757 114.806 113.388 114.806 112.912C114.806 112.471 115.015 112.213 115.397 111.935C115.527 111.841 115.649 111.764 115.783 111.678C115.872 111.621 115.967 111.561 116.072 111.49C116.311 111.33 116.573 111.137 116.787 110.883C117.135 110.476 117.381 109.819 117.552 108.603C117.725 107.37 117.83 105.484 117.83 102.538V98.3796C117.83 95.7053 117.725 94.0365 117.556 92.9529C117.386 91.8638 117.145 91.3182 116.841 90.9307L116.839 90.9289C116.558 90.5738 116.234 90.3065 115.925 90.0848C115.772 89.9748 115.619 89.8731 115.477 89.7792L115.475 89.7782C115.331 89.6821 115.199 89.5949 115.076 89.5061C114.829 89.3276 114.651 89.1662 114.532 88.9854C114.419 88.8151 114.344 88.6045 114.344 88.2996Z" fill="white"/>
<path d="M178.556 111.106C178.556 108.82 180.433 106.944 182.718 106.944C185.004 106.944 186.88 108.82 186.88 111.106C186.88 113.391 185.004 115.268 182.718 115.268C180.433 115.268 178.556 113.391 178.556 111.106Z" fill="white"/>
<path d="M298.519 17.0583C298.662 15.8867 300.361 15.8867 300.504 17.0583L302.357 32.2224C304.364 48.6434 317.304 61.5831 333.725 63.5898L348.889 65.4429C350.06 65.586 350.06 67.2849 348.889 67.4281L333.725 69.2812C317.304 71.2879 304.364 84.2276 302.357 100.649L300.504 115.813C300.361 116.984 298.662 116.984 298.519 115.813L296.666 100.649C294.659 84.2276 281.719 71.2879 265.298 69.2812L250.134 67.4281C248.963 67.2849 248.963 65.586 250.134 65.4429L265.298 63.5898C281.719 61.5831 294.659 48.6434 296.666 32.2224L298.519 17.0583Z" fill="white"/>
<path fill-rule="evenodd" clip-rule="evenodd" d="M297.526 16.937C297.813 14.5937 301.21 14.5938 301.497 16.937L303.35 32.1011C305.301 48.066 317.881 60.6462 333.846 62.5972L349.01 64.4503C351.353 64.7366 351.353 68.1344 349.01 68.4207L333.846 70.2738C317.881 72.2247 305.301 84.805 303.35 100.77L301.497 115.934C301.21 118.277 297.813 118.277 297.526 115.934L295.673 100.77C293.722 84.805 281.142 72.2247 265.177 70.2738L250.013 68.4207C247.67 68.1344 247.67 64.7366 250.013 64.4503L265.177 62.5972C281.142 60.6462 293.722 48.0659 295.673 32.1011L297.526 16.937ZM299.512 17.1796L297.658 32.3437C295.596 49.2208 282.297 62.52 265.42 64.5824L250.256 66.4355L265.42 68.2886C282.297 70.351 295.596 83.6502 297.658 100.527L299.512 115.691L301.365 100.527C303.427 83.6502 316.726 70.351 333.603 68.2886L348.767 66.4355L333.603 64.5824C316.726 62.52 303.427 49.2208 301.365 32.3437L299.512 17.1796Z" fill="#333333"/>
<path d="M55.6869 43.2366C55.243 43.2366 54.9149 43.086 54.7025 42.7848C54.4932 42.4836 54.3886 42.062 54.3886 41.5198C54.3886 40.9777 54.4932 40.556 54.7025 40.2548C54.9149 39.9536 55.243 39.803 55.6869 39.803C56.1307 39.803 56.4573 39.9536 56.6666 40.2548C56.879 40.556 56.9852 40.9777 56.9852 41.5198C56.9852 42.062 56.879 42.4836 56.6666 42.7848C56.4573 43.086 56.1307 43.2366 55.6869 43.2366ZM55.6869 42.6612C55.8898 42.6612 56.0293 42.5867 56.1054 42.4377C56.1846 42.2855 56.2243 42.0747 56.2243 41.8052V41.2297C56.2243 40.9634 56.1846 40.7557 56.1054 40.6067C56.0293 40.4546 55.8898 40.3785 55.6869 40.3785C55.484 40.3785 55.3429 40.4546 55.2636 40.6067C55.1875 40.7557 55.1495 40.9634 55.1495 41.2297V41.8099C55.1495 42.0762 55.1875 42.2855 55.2636 42.4377C55.3429 42.5867 55.484 42.6612 55.6869 42.6612Z" fill="white"/>
<path d="M60.2396 43.8575L61.375 40.7382L62.5816 41.1774C62.7335 41.2327 62.8604 41.3058 62.9622 41.3969C63.0651 41.4849 63.1411 41.5868 63.1901 41.7025C63.242 41.8192 63.2666 41.9463 63.2639 42.0836C63.2611 42.2209 63.2321 42.3656 63.1768 42.5175C63.1215 42.6695 63.0508 42.7989 62.9646 42.9059C62.8784 43.0129 62.7779 43.0944 62.6631 43.1504C62.5512 43.2075 62.427 43.2382 62.2904 43.2425C62.155 43.2438 62.0113 43.2168 61.8594 43.1615L61.3276 42.968L60.9144 44.1031L60.2396 43.8575ZM61.5244 42.4272L61.8864 42.559C62.0443 42.6165 62.1639 42.6263 62.2451 42.5884C62.3294 42.5515 62.3965 42.4646 62.4463 42.3276L62.4951 42.1935C62.545 42.0565 62.5495 41.9468 62.5086 41.8644C62.4707 41.7831 62.3728 41.7138 62.2149 41.6563L61.853 41.5245L61.5244 42.4272Z" fill="white"/>
<path d="M65.498 46.5245L67.6317 43.9817L68.6153 44.807C68.7392 44.911 68.8334 45.0231 68.8979 45.1435C68.9645 45.2614 69.001 45.3831 69.0075 45.5086C69.0164 45.6361 68.9961 45.7639 68.9465 45.892C68.897 46.0201 68.8202 46.1461 68.7163 46.27C68.6124 46.3938 68.5016 46.4913 68.384 46.5623C68.2665 46.6334 68.1442 46.6756 68.0171 46.689C67.8924 46.7044 67.7652 46.6907 67.6354 46.6481C67.5077 46.603 67.3819 46.5285 67.258 46.4246L66.8245 46.0608L66.0481 46.9861L65.498 46.5245ZM67.1944 45.62L67.4895 45.8676C67.6182 45.9756 67.7272 46.0257 67.8166 46.0179C67.9083 46.0121 68.0011 45.9533 68.0948 45.8416L68.1865 45.7323C68.2803 45.6206 68.322 45.5191 68.3118 45.4277C68.304 45.3384 68.2357 45.2397 68.107 45.1317L67.8119 44.8841L67.1944 45.62Z" fill="white"/>
<path d="M70.0095 51.7802C69.7876 51.3958 69.7539 51.0363 69.9086 50.7018C70.0648 50.37 70.3777 50.0685 70.8472 49.7974C71.3167 49.5264 71.7342 49.4061 72.0996 49.4368C72.4667 49.4701 72.7612 49.679 72.9831 50.0634C73.2051 50.4478 73.2379 50.8059 73.0817 51.1377C72.9271 51.4723 72.615 51.7751 72.1455 52.0462C71.676 52.3173 71.2577 52.4361 70.8906 52.4027C70.5252 52.3721 70.2315 52.1646 70.0095 51.7802ZM70.5079 51.4925C70.6093 51.6682 70.7436 51.7518 70.9107 51.7432C71.0821 51.7357 71.2845 51.6646 71.5179 51.5299L72.0163 51.2422C72.2469 51.109 72.4069 50.9708 72.4963 50.8277C72.5901 50.6857 72.5862 50.5269 72.4848 50.3511C72.3833 50.1754 72.2469 50.0913 72.0755 50.0987C71.9084 50.1073 71.7095 50.1782 71.4789 50.3114L70.9764 50.6015C70.7458 50.7346 70.5836 50.8722 70.4898 51.0142C70.4004 51.1573 70.4064 51.3168 70.5079 51.4925Z" fill="white"/>
<path d="M71.9348 57.117C71.8864 56.8423 71.8895 56.5954 71.9443 56.3765C71.9991 56.1576 72.0935 55.9719 72.2276 55.8195L72.749 56.1477C72.6388 56.2895 72.5649 56.4361 72.5272 56.5876C72.4901 56.7423 72.4845 56.893 72.5103 57.0397C72.5401 57.2083 72.6001 57.3297 72.6905 57.4039C72.7808 57.4781 72.8962 57.5029 73.0367 57.4781C73.1523 57.4577 73.2336 57.4079 73.2808 57.3288C73.3286 57.2528 73.3509 57.1329 73.3478 56.9693L73.3438 56.6175C73.342 56.3152 73.4122 56.0839 73.5546 55.9236C73.7001 55.7627 73.893 55.6611 74.1334 55.6187C74.4488 55.5631 74.7105 55.6232 74.9186 55.799C75.1298 55.9742 75.2681 56.2476 75.3336 56.6191C75.3782 56.8721 75.378 57.0991 75.333 57.3002C75.2879 57.5013 75.2085 57.6714 75.0946 57.8106L74.5795 57.491C74.6609 57.3865 74.7176 57.2702 74.7498 57.1422C74.7851 57.0137 74.7895 56.8744 74.7631 56.7246C74.7075 56.4092 74.5501 56.2744 74.2909 56.3201C74.1785 56.3399 74.1003 56.3891 74.0562 56.4677C74.0127 56.5494 73.9909 56.6724 73.9908 56.8366L73.9902 57.1892C73.9902 57.4629 73.9264 57.685 73.7987 57.8556C73.671 58.0262 73.4776 58.1344 73.2185 58.1801C73.0655 58.207 72.9187 58.2055 72.7782 58.1756C72.6409 58.1451 72.5144 58.0853 72.3989 57.9962C72.2865 57.9065 72.19 57.7883 72.1094 57.6416C72.0294 57.498 71.9712 57.3231 71.9348 57.117Z" fill="white"/>
<path d="M72.1604 62.1347L72.6802 62.2263L72.5564 62.9288L74.7857 63.3219L74.9095 62.6194L75.4294 62.7111L75.0578 64.8186L74.5379 64.727L74.6618 64.0244L72.4325 63.6314L72.3086 64.3339L71.7887 64.2422L72.1604 62.1347Z" fill="white"/>
<path d="M72.1346 69.2694L72.1607 69.2241L70.2497 68.1208L70.5541 67.5936L73.4288 69.2534L73.0008 69.9947L70.7117 69.5462L70.6856 69.5915L72.5966 70.6949L72.2922 71.222L69.4175 69.5623L69.8455 68.821L72.1346 69.2694Z" fill="white"/>
<path d="M65.9888 73.8807L66.0215 73.8532C65.9986 73.7814 65.9825 73.708 65.9733 73.6329C65.9641 73.5578 65.9663 73.4815 65.9798 73.4039C65.9954 73.3288 66.0256 73.2538 66.0704 73.1789C66.1128 73.1061 66.1728 73.0371 66.2505 72.9719C66.3744 72.868 66.5094 72.8044 66.6554 72.7812C66.7991 72.76 66.9505 72.7777 67.1099 72.8344C67.2692 72.8911 67.4331 72.9853 67.6016 73.1171C67.7677 73.2509 67.9353 73.4186 68.1044 73.6202C68.4672 74.0525 68.6654 74.449 68.6991 74.8098C68.7349 75.173 68.5876 75.4932 68.2573 75.7703C68.1261 75.8804 67.9955 75.959 67.8653 76.0061C67.7372 76.0556 67.6104 76.0772 67.485 76.0707C67.3591 76.0687 67.2354 76.0421 67.1139 75.991C66.9923 75.9398 66.8723 75.8708 66.7539 75.784L67.16 75.2321C67.2194 75.2733 67.2792 75.3101 67.3394 75.3423C67.3992 75.3791 67.46 75.4046 67.5217 75.4191C67.5835 75.4335 67.6454 75.4332 67.7074 75.4184C67.7715 75.406 67.8352 75.3733 67.8983 75.3203C68.0367 75.2042 68.0872 75.0646 68.0497 74.9015C68.0098 74.7405 67.9032 74.5568 67.73 74.3503L67.3815 73.935C67.2083 73.7286 67.0394 73.5889 66.8747 73.516C66.7076 73.4451 66.5451 73.4759 66.3873 73.6084C66.2634 73.7123 66.2017 73.8262 66.2021 73.95C66.2025 74.0738 66.2506 74.1928 66.3464 74.3069L66.5023 74.4927L66.9358 74.1289L67.2599 74.5151L66.3382 75.2885L65.198 73.9296L65.6861 73.52L65.9888 73.8807Z" fill="white"/>
<path d="M54.8656 79.775V77.0405H55.579V79.775H56.5349V80.36H53.9097V79.775H54.8656Z" fill="white"/>
<path d="M48.6388 77.1921L49.4253 77.4784L49.9003 76.1735L50.5751 76.4191L49.4398 79.5384L48.765 79.2928L49.2253 78.0281L48.4387 77.7418L47.9784 79.0065L47.3036 78.7609L48.439 75.6416L49.1138 75.8872L48.6388 77.1921Z" fill="white"/>
<path d="M44.3344 72.9497C44.6744 73.235 44.829 73.5613 44.7981 73.9286C44.7648 74.2938 44.5739 74.6841 44.2254 75.0994C43.8769 75.5147 43.5257 75.7705 43.1718 75.8667C42.8155 75.9609 42.4673 75.8653 42.1273 75.58C41.7873 75.2947 41.6339 74.9694 41.6672 74.6042C41.6981 74.2369 41.8878 73.8456 42.2363 73.4303C42.5848 73.015 42.9372 72.7603 43.2935 72.6661C43.6474 72.5698 43.9943 72.6644 44.3344 72.9497ZM43.9645 73.3905C43.809 73.2601 43.6543 73.2275 43.5002 73.2927C43.3417 73.3584 43.1758 73.4944 43.0026 73.7008L42.6327 74.1417C42.4615 74.3457 42.3584 74.5302 42.3233 74.6953C42.2838 74.8608 42.3417 75.0088 42.4972 75.1392C42.6526 75.2696 42.8096 75.302 42.9681 75.2364C43.1222 75.1711 43.2848 75.0365 43.456 74.8325L43.829 74.3881C44.0001 74.184 44.1055 73.9993 44.145 73.8338C44.1801 73.6687 44.1199 73.5209 43.9645 73.3905Z" fill="white"/>
<path d="M37.9761 70.6273L39.7965 69.5763C39.8871 69.524 39.9693 69.4729 40.043 69.423C40.1123 69.372 40.166 69.3191 40.2039 69.2642C40.2402 69.2067 40.2584 69.1431 40.2585 69.0735C40.2558 69.0054 40.2283 68.9261 40.176 68.8355C40.1237 68.7449 40.0688 68.6815 40.0112 68.6451C39.9509 68.6104 39.8875 68.5957 39.8211 68.6012C39.753 68.6038 39.6804 68.6238 39.6031 68.6611C39.5214 68.6973 39.4353 68.7415 39.3447 68.7938L37.5243 69.8448L37.1676 69.227L38.9057 68.2236C39.1033 68.1094 39.2842 68.0233 39.4484 67.9652C39.6109 67.9043 39.763 67.8824 39.9046 67.8994C40.0463 67.9165 40.1799 67.9766 40.3054 68.0799C40.4309 68.1832 40.5539 68.3391 40.6744 68.5478C40.7948 68.7565 40.8684 68.941 40.8951 69.1013C40.9218 69.2616 40.9071 69.4074 40.851 69.5386C40.795 69.6698 40.7007 69.7919 40.5683 69.905C40.4343 70.0153 40.2685 70.1275 40.0708 70.2417L38.3328 71.2451L37.9761 70.6273Z" fill="white"/>
<path d="M38.0308 62.4634L38.0383 62.5055C38.1119 62.5215 38.1835 62.5443 38.2531 62.5739C38.3228 62.6035 38.3878 62.6435 38.4482 62.694C38.5055 62.7451 38.5553 62.8087 38.5977 62.885C38.6396 62.9581 38.6693 63.0446 38.687 63.1445C38.715 63.3037 38.7026 63.4524 38.6497 63.5905C38.5962 63.7255 38.5051 63.8478 38.3764 63.9574C38.2476 64.067 38.0841 64.1619 37.8857 64.2419C37.6868 64.3188 37.4577 64.3802 37.1986 64.4258C36.6428 64.5238 36.2003 64.4972 35.871 64.346C35.5386 64.1954 35.335 63.9078 35.2601 63.4831C35.2304 63.3145 35.2276 63.1621 35.2519 63.0258C35.273 62.8901 35.3178 62.7695 35.3861 62.6641C35.4508 62.5561 35.5356 62.4623 35.6407 62.3826C35.7458 62.3029 35.8655 62.2335 36 62.1744L36.2748 62.802C36.2094 62.8328 36.1477 62.8662 36.0897 62.9022C36.028 62.9357 35.9754 62.9755 35.9321 63.0218C35.8887 63.0681 35.858 63.1218 35.8398 63.1829C35.8185 63.2446 35.815 63.3161 35.8293 63.3973C35.8607 63.5752 35.9563 63.6887 36.1163 63.7378C36.2757 63.7837 36.4881 63.7833 36.7535 63.7365L37.2874 63.6424C37.5528 63.5956 37.7582 63.5191 37.9037 63.413C38.0486 63.3037 38.1032 63.1476 38.0674 62.9447C38.0393 62.7854 37.9716 62.675 37.8642 62.6135C37.7567 62.552 37.6296 62.5341 37.4829 62.56L37.244 62.6021L37.3423 63.1594L36.8459 63.247L36.6369 62.0621L38.3838 61.754L38.4945 62.3816L38.0308 62.4634Z" fill="white"/>
<path d="M37.317 56.5035L37.1717 57.3278L38.5393 57.5689L38.4146 58.2761L35.1455 57.6997L35.2702 56.9925L36.5956 57.2262L36.741 56.4019L35.4156 56.1682L35.5402 55.461L38.8093 56.0375L38.6846 56.7447L37.317 56.5035Z" fill="white"/>
<path d="M38.4362 49.9485L40.8044 51.3158L40.4477 51.9336L38.0796 50.5663L37.6016 51.3942L37.095 51.1017L38.4076 48.8282L38.9142 49.1207L38.4362 49.9485Z" fill="white"/>
<path d="M44.4069 47.1923C44.1932 47.3717 43.9778 47.4924 43.7609 47.5544C43.5439 47.6164 43.3359 47.6275 43.1368 47.5876L43.1603 46.9719C43.3382 46.9965 43.5022 46.9872 43.6522 46.944C43.8047 46.8989 43.938 46.8284 44.0522 46.7326C44.1833 46.6226 44.2584 46.5099 44.2775 46.3945C44.2966 46.2792 44.2603 46.1668 44.1686 46.0575C44.0932 45.9677 44.0094 45.9221 43.9173 45.9208C43.8276 45.9174 43.7126 45.958 43.5724 46.0425L43.2698 46.222C43.0089 46.3747 42.7735 46.4295 42.5634 46.3863C42.3514 46.3408 42.1669 46.2245 42.01 46.0375C41.8041 45.7922 41.7253 45.5355 41.7735 45.2674C41.8197 44.9969 41.9873 44.7404 42.2763 44.4979C42.473 44.3328 42.6697 44.2195 42.8664 44.1579C43.0631 44.0964 43.2502 44.0801 43.4277 44.1091L43.4084 44.715C43.2772 44.6968 43.1482 44.7058 43.0212 44.7419C42.8923 44.7757 42.7695 44.8414 42.6529 44.9393C42.4076 45.1451 42.3695 45.3488 42.5387 45.5504C42.612 45.6378 42.6938 45.681 42.7839 45.6798C42.8764 45.6767 42.9938 45.6341 43.136 45.552L43.4417 45.3762C43.6787 45.2394 43.903 45.1836 44.1146 45.2089C44.3262 45.2342 44.5165 45.3476 44.6857 45.5492C44.7855 45.6682 44.8576 45.796 44.9019 45.9327C44.9442 46.0669 44.9556 46.2063 44.9362 46.3509C44.9148 46.493 44.8607 46.6357 44.7739 46.7789C44.6895 46.92 44.5672 47.0578 44.4069 47.1923Z" fill="white"/>
<path d="M61.8439 77.2303C61.8439 77.5528 61.5824 77.8143 61.2598 77.8143C60.9372 77.8143 60.6757 77.5528 60.6757 77.2303C60.6757 76.9077 60.9372 76.6462 61.2598 76.6462C61.5824 76.6462 61.8439 76.9077 61.8439 77.2303Z" fill="white"/>
<path d="M49.5302 42.8882C49.5302 43.2108 49.2687 43.4723 48.9461 43.4723C48.6235 43.4723 48.362 43.2108 48.362 42.8882C48.362 42.5657 48.6235 42.3042 48.9461 42.3042C49.2687 42.3042 49.5302 42.5657 49.5302 42.8882Z" fill="white"/>
</svg>
