<svg width="391" height="225" viewBox="0 0 391 225" fill="none" xmlns="http://www.w3.org/2000/svg">
<path d="M300.607 76.867C312.321 80.0055 319.272 92.0455 316.133 103.759L312.886 115.878L359.855 128.464C365.061 129.859 369.138 133.364 371.411 137.813C372.058 138.809 372.618 139.873 373.081 140.996L387.471 175.945C396.938 198.935 380.035 224.175 355.172 224.175C330.309 224.175 313.406 198.935 322.873 175.945L328.902 161.303L302.603 154.257L299.355 166.376C296.216 178.09 284.177 185.041 272.463 181.902L83.6015 131.297C73.8234 128.677 67.0752 120.393 65.9407 110.921C57.9495 124.075 41.9743 130.968 26.3577 126.783C7.39307 121.702 -3.86141 102.208 1.22015 83.2436L16.3747 26.6861C21.4563 7.72143 40.9496 -3.53304 59.9142 1.54852C75.5309 5.733 85.9194 19.69 86.2631 35.0769C91.9817 27.4412 101.968 23.6415 111.746 26.2615L300.607 76.867Z" fill="#12D778"/>
<path d="M121.531 123.058L140.474 52.3613L287.927 91.8714L268.984 162.568L121.531 123.058Z" fill="#AF71FE"/>
<path fill-rule="evenodd" clip-rule="evenodd" d="M120.306 123.765L139.767 51.1366L289.152 91.1643L269.691 163.793L120.306 123.765ZM122.755 122.351L268.277 161.344L286.703 92.5785L141.181 53.5861L122.755 122.351Z" fill="#333333"/>
<path d="M109.411 119.811L128.354 49.1137L140.474 52.3611L121.53 123.058L109.411 119.811Z" fill="#FFD600"/>
<path fill-rule="evenodd" clip-rule="evenodd" d="M108.186 120.518L127.647 47.889L141.698 51.6541L122.237 124.283L108.186 120.518ZM110.636 119.104L120.823 121.833L139.249 53.0683L129.061 50.3385L110.636 119.104Z" fill="#333333"/>
<path fill-rule="evenodd" clip-rule="evenodd" d="M82.8001 106.186C81.7613 110.062 84.0588 114.047 87.9325 115.091C87.9361 115.092 87.9397 115.093 87.9433 115.094L109.152 120.777C109.686 120.92 110.234 120.603 110.377 120.07L129.32 49.3727C129.463 48.8392 129.147 48.2909 128.613 48.148L107.432 42.4724C107.422 42.4699 107.413 42.4674 107.404 42.4649C103.524 41.4252 99.5355 43.7279 98.4958 47.6081L82.8001 106.186ZM106.89 44.3976C106.889 44.3974 106.887 44.3971 106.886 44.3968C104.073 43.643 101.182 45.3125 100.428 48.1257L84.7319 106.703C83.9781 109.516 85.6476 112.408 88.4608 113.162C88.4608 113.162 88.4609 113.162 88.4608 113.162C88.8125 113.256 89.1654 113.312 89.5152 113.333C91.9636 113.48 94.26 111.895 94.9195 109.433L110.615 50.8555C111.179 48.7525 110.388 46.6056 108.778 45.3408C108.237 44.916 107.603 44.5906 106.898 44.3999C106.895 44.3992 106.892 44.3984 106.89 44.3976ZM112.547 51.3732C113.084 49.3682 112.729 47.3344 111.725 45.6934L127.13 49.821L108.704 118.586L93.2996 114.458C94.9897 113.539 96.3142 111.956 96.8515 109.951L112.547 51.3732Z" fill="#333333"/>
<path d="M268.984 162.568L287.927 91.8714L296.007 94.0363C298.238 94.6342 299.562 96.9275 298.964 99.1586L282.186 161.776C281.588 164.007 279.295 165.331 277.064 164.733L268.984 162.568Z" fill="#FFD600"/>
<path fill-rule="evenodd" clip-rule="evenodd" d="M267.759 163.275L287.22 90.6466L296.266 93.0704C299.03 93.8112 300.671 96.6528 299.93 99.4174L283.152 162.035C282.411 164.799 279.569 166.44 276.805 165.699L267.759 163.275ZM270.209 161.861L277.322 163.767C279.02 164.222 280.765 163.215 281.22 161.517L297.998 98.8998C298.453 97.2021 297.446 95.4571 295.748 95.0022L288.634 93.0961L270.209 161.861Z" fill="#333333"/>
<rect x="290.035" y="132.487" width="4.18234" height="66.9174" transform="rotate(-75 290.035 132.487)" fill="#333333"/>
<rect x="59.764" y="70.7864" width="4.18234" height="60.6439" transform="rotate(-75 59.764 70.7864)" fill="#333333"/>
<path d="M30.9582 109.614C21.4759 107.073 15.8487 97.3265 18.3894 87.8442L33.544 31.2866C36.0848 21.8043 45.8314 16.177 55.3137 18.7178C64.7961 21.2586 70.4233 31.0053 67.8825 40.4876L52.728 97.0451C50.1872 106.527 40.4405 112.155 30.9582 109.614Z" fill="#FFD600"/>
<path fill-rule="evenodd" clip-rule="evenodd" d="M30.6994 110.58C20.6836 107.896 14.7398 97.6012 17.4235 87.5854L32.5781 31.0278C35.2618 21.012 45.5568 15.0682 55.5726 17.7519C65.5884 20.4357 71.5322 30.7307 68.8485 40.7464L53.6939 97.304C51.0102 107.32 40.7152 113.264 30.6994 110.58ZM19.3554 88.103C16.9575 97.0519 22.2682 106.25 31.217 108.648C40.1659 111.046 49.3642 105.735 51.762 96.7864L66.9166 40.2288C69.3144 31.2799 64.0038 22.0816 55.0549 19.6838C46.1061 17.286 36.9078 22.5966 34.5099 31.5455L19.3554 88.103Z" fill="#333333"/>
<path d="M138.45 92.7853C135.845 98.8025 133.921 94.1357 132.698 97.1282C132.018 98.7907 133.517 100.228 134.93 100.805C136.135 101.298 137.316 101.732 138.514 102.124C139.695 102.558 140.917 103.009 142.081 103.485C143.244 103.96 144.35 104.461 145.621 105.029C146.876 105.638 148.355 106.291 150.142 107.022C160.658 111.319 168.16 105.897 171.32 98.1662C174.377 90.6848 173.516 81.9903 161.962 77.2684L148.412 71.7312C146.957 71.1368 144.428 70.4426 143.647 72.3544C142.543 75.056 146.509 74.2518 144.676 78.4988L138.45 92.7853ZM154.77 82.2843C155.416 80.7049 155.829 80.0493 157.575 80.7627C160.775 82.0706 163.804 85.1031 159.83 94.8288C158.131 98.9851 155.026 103.973 149.789 101.833C147.544 100.916 147.569 99.907 148.435 97.7873L154.77 82.2843Z" fill="white"/>
<path d="M138.45 92.7853L137.944 92.5647L137.943 92.5659L138.45 92.7853ZM138.514 102.124L138.704 101.606L138.695 101.603L138.686 101.599L138.514 102.124ZM145.621 105.029L145.863 104.532L145.855 104.528L145.846 104.525L145.621 105.029ZM144.676 78.4988L145.183 78.7194L145.183 78.7176L144.676 78.4988ZM137.943 92.5659C137.307 94.0352 136.743 94.7774 136.278 95.1514C135.843 95.5017 135.463 95.5555 135.079 95.5393C134.859 95.53 134.677 95.5011 134.423 95.4761C134.194 95.4535 133.919 95.4365 133.64 95.4915C133.344 95.5497 133.06 95.6843 132.804 95.934C132.557 96.1748 132.357 96.5027 132.187 96.9193L133.209 97.3371C133.344 97.0056 133.472 96.8247 133.575 96.7244C133.669 96.6331 133.756 96.5943 133.853 96.5751C133.966 96.5528 134.107 96.5546 134.314 96.5751C134.497 96.5931 134.773 96.6318 135.033 96.6427C135.608 96.667 136.274 96.5723 136.971 96.0117C137.638 95.4749 138.29 94.544 138.957 93.0046L137.943 92.5659ZM132.187 96.9193C131.758 97.9684 132.032 98.9439 132.583 99.699C133.122 100.438 133.942 100.998 134.721 101.316L135.139 100.294C134.505 100.035 133.869 99.5873 133.475 99.0481C133.094 98.5247 132.958 97.9505 133.209 97.3371L132.187 96.9193ZM134.721 101.316C135.938 101.814 137.132 102.252 138.342 102.649L138.686 101.599C137.501 101.211 136.332 100.782 135.139 100.294L134.721 101.316ZM138.323 102.642C139.505 103.077 140.719 103.525 141.872 103.996L142.29 102.974C141.115 102.494 139.884 102.04 138.704 101.606L138.323 102.642ZM141.872 103.996C143.025 104.467 144.121 104.963 145.396 105.533L145.846 104.525C144.579 103.958 143.464 103.453 142.29 102.974L141.872 103.996ZM145.38 105.525C146.648 106.142 148.139 106.799 149.933 107.533L150.351 106.511C148.571 105.783 147.103 105.135 145.863 104.532L145.38 105.525ZM149.933 107.533C155.318 109.733 159.99 109.463 163.736 107.599C167.467 105.741 170.213 102.335 171.831 98.3751L170.808 97.9573C169.267 101.728 166.682 104.898 163.243 106.61C159.819 108.315 155.482 108.607 150.351 106.511L149.933 107.533ZM171.831 98.3751C173.391 94.5566 173.977 90.3684 172.642 86.5023C171.301 82.6192 168.058 79.1633 162.171 76.7573L161.753 77.7796C167.42 80.0954 170.384 83.3478 171.598 86.8628C172.818 90.3947 172.305 94.2944 170.808 97.9573L171.831 98.3751ZM162.171 76.7573L148.621 71.2201L148.203 72.2424L161.753 77.7796L162.171 76.7573ZM148.621 71.2201C147.875 70.9151 146.8 70.5607 145.782 70.5508C145.268 70.5458 144.735 70.628 144.259 70.8782C143.772 71.1345 143.379 71.55 143.135 72.1456L144.158 72.5633C144.305 72.203 144.521 71.9883 144.773 71.8556C145.037 71.7168 145.374 71.6512 145.771 71.6551C146.577 71.663 147.495 71.9529 148.203 72.2424L148.621 71.2201ZM143.135 72.1456C142.813 72.9349 142.831 73.5628 143.107 74.1066C143.234 74.3572 143.403 74.5642 143.564 74.7393C143.644 74.8271 143.728 74.9121 143.805 74.9911C143.885 75.0722 143.959 75.1471 144.031 75.2244C144.315 75.5269 144.519 75.8125 144.589 76.2204C144.661 76.6401 144.604 77.2727 144.169 78.28L145.183 78.7176C145.665 77.6014 145.799 76.7419 145.678 76.0335C145.554 75.3133 145.179 74.8348 144.838 74.4698C144.754 74.3802 144.669 74.2943 144.592 74.2163C144.514 74.1364 144.443 74.0643 144.377 73.9927C144.245 73.8488 144.153 73.7277 144.092 73.6074C143.992 73.4095 143.928 73.1248 144.158 72.5633L143.135 72.1456ZM144.17 78.2782L137.944 92.5647L138.956 93.0059L145.183 78.7194L144.17 78.2782ZM155.282 82.4932C155.443 82.0989 155.578 81.7925 155.714 81.5554C155.85 81.3186 155.966 81.191 156.07 81.1211C156.229 81.013 156.531 80.9325 157.366 81.2739L157.784 80.2516C156.873 79.8795 156.095 79.7701 155.451 80.2064C155.152 80.4086 154.934 80.6964 154.757 81.0045C154.58 81.3122 154.421 81.68 154.259 82.0754L155.282 82.4932ZM157.366 81.2739C158.882 81.8935 160.272 82.8822 160.865 84.8021C161.47 86.7588 161.287 89.8026 159.319 94.62L160.341 95.0377C162.347 90.1294 162.637 86.794 161.921 84.476C161.193 82.1213 159.468 80.9398 157.784 80.2516L157.366 81.2739ZM159.319 94.62C158.478 96.6776 157.314 98.8699 155.764 100.284C154.996 100.985 154.148 101.481 153.21 101.687C152.277 101.892 151.215 101.819 149.998 101.322L149.58 102.344C150.981 102.917 152.271 103.023 153.447 102.765C154.617 102.508 155.634 101.898 156.508 101.1C158.245 99.5162 159.483 97.1364 160.341 95.0377L159.319 94.62ZM149.998 101.322C148.912 100.878 148.576 100.488 148.479 100.121C148.426 99.919 148.427 99.6605 148.505 99.3027C148.583 98.9432 148.733 98.518 148.946 97.9962L147.924 97.5784C147.704 98.1165 147.525 98.6123 147.426 99.0667C147.326 99.5229 147.298 99.9714 147.411 100.402C147.647 101.298 148.421 101.87 149.58 102.344L149.998 101.322ZM148.946 97.9962L155.282 82.4932L154.259 82.0754L147.924 97.5784L148.946 97.9962Z" fill="#AF71FE"/>
<path d="M192.666 94.4993C184.038 91.4251 173.862 94.5679 170.622 103.661C168.678 109.117 169.499 120.993 181.173 125.152C190.393 128.437 199.802 124.639 202.996 115.673C206.206 106.664 201.591 97.679 192.666 94.4993ZM183.014 103.262C183.828 100.978 185.726 99.1286 188.306 100.048C192.874 101.675 191.81 112.688 190.529 116.283C189.791 118.356 187.732 120.387 185.364 119.543C180.415 117.78 181.643 107.111 183.014 103.262Z" fill="white"/>
<path d="M192.852 93.9792C184.016 90.8311 173.47 94.0215 170.102 103.476L171.142 103.847C174.254 95.1142 184.06 92.0192 192.481 95.0195L192.852 93.9792ZM170.102 103.476C169.088 106.321 168.806 110.782 170.268 115.071C171.739 119.385 174.977 123.53 180.988 125.672L181.358 124.632C175.696 122.614 172.686 118.742 171.314 114.715C169.932 110.662 170.212 106.458 171.142 103.847L170.102 103.476ZM180.988 125.672C190.454 129.045 200.205 125.152 203.517 115.858L202.476 115.487C199.398 124.127 190.333 127.829 181.358 124.632L180.988 125.672ZM203.517 115.858C206.835 106.545 202.046 97.2552 192.852 93.9792L192.481 95.0195C201.135 98.1028 205.578 106.782 202.476 115.487L203.517 115.858ZM183.534 103.448C183.915 102.379 184.536 101.455 185.316 100.905C186.073 100.372 187.006 100.171 188.121 100.568L188.491 99.5277C187.027 99.0058 185.72 99.2698 184.68 100.002C183.662 100.719 182.927 101.862 182.494 103.077L183.534 103.448ZM188.121 100.568C189.055 100.901 189.756 101.73 190.247 102.969C190.738 104.207 190.988 105.78 191.059 107.451C191.202 110.8 190.621 114.379 190.009 116.098L191.049 116.469C191.718 114.592 192.31 110.868 192.163 107.404C192.089 105.67 191.828 103.96 191.274 102.562C190.72 101.166 189.842 100.009 188.491 99.5277L188.121 100.568ZM190.009 116.098C189.671 117.046 189.032 117.975 188.232 118.561C187.444 119.138 186.526 119.371 185.549 119.023L185.179 120.063C186.57 120.559 187.866 120.198 188.884 119.452C189.889 118.716 190.649 117.593 191.049 116.469L190.009 116.098ZM185.549 119.023C184.502 118.65 183.745 117.797 183.224 116.579C182.701 115.356 182.439 113.811 182.371 112.162C182.233 108.861 182.873 105.302 183.534 103.448L182.494 103.077C181.783 105.071 181.124 108.772 181.267 112.208C181.339 113.928 181.613 115.62 182.208 117.014C182.806 118.412 183.751 119.555 185.179 120.063L185.549 119.023Z" fill="#AF71FE"/>
<path d="M225.013 102.969C224.722 105.693 223.323 107.801 220.376 107.486C217.965 107.229 218.477 106.245 218.577 105.307L219.292 98.6103C219.388 97.7174 219.4 97.1769 221.141 97.3629C224.133 97.6824 225.313 100.157 225.013 102.969ZM207.083 115.684C206.692 119.345 203.595 117.479 203.333 119.935C203.023 122.837 209.626 123.587 211.501 123.788C213.51 124.002 219.953 124.555 220.263 121.653C220.54 119.063 217.033 121.037 217.495 115.442L217.771 112.852C217.824 112.361 218.026 112.157 218.562 112.214C219.767 112.343 221.083 112.709 222.422 112.852C228.628 113.515 234.635 110.544 235.345 103.892C236.06 97.1952 230.589 93.0436 224.517 92.3951C222.642 92.1948 218.646 92.4002 212.172 91.7088C211.056 91.5896 209.994 91.3859 208.878 91.2667C207.494 91.1189 205.487 91.3109 205.296 93.0967C204.996 95.9094 209.305 94.8795 208.947 98.228L207.083 115.684Z" fill="white"/>
<path d="M217.495 115.442L216.945 115.383L216.944 115.396L217.495 115.442ZM224.464 102.911C224.326 104.206 223.929 105.285 223.282 105.995C222.658 106.681 221.751 107.078 220.435 106.937L220.318 108.035C221.949 108.209 223.215 107.709 224.099 106.739C224.961 105.793 225.41 104.455 225.562 103.028L224.464 102.911ZM220.435 106.937C219.249 106.81 219.08 106.526 219.046 106.444C219.018 106.373 219.005 106.264 219.026 106.066C219.036 105.969 219.053 105.867 219.072 105.747C219.09 105.632 219.112 105.5 219.126 105.366L218.028 105.249C218.017 105.349 218.001 105.452 217.982 105.572C217.963 105.686 217.942 105.817 217.928 105.948C217.9 106.206 217.891 106.535 218.024 106.86C218.312 107.568 219.093 107.904 220.318 108.035L220.435 106.937ZM219.126 105.366L219.841 98.669L218.743 98.5517L218.028 105.249L219.126 105.366ZM219.841 98.669C219.867 98.4273 219.882 98.2713 219.913 98.142C219.942 98.0241 219.971 97.9915 219.982 97.9803C219.993 97.9703 220.042 97.9265 220.216 97.8994C220.396 97.8715 220.669 97.8678 221.083 97.9119L221.2 96.8138C220.743 96.765 220.362 96.7591 220.047 96.8081C219.725 96.858 219.439 96.9703 219.217 97.1838C218.996 97.3961 218.895 97.6543 218.84 97.8831C218.787 98.1005 218.765 98.347 218.743 98.5517L219.841 98.669ZM221.083 97.9119C222.42 98.0547 223.307 98.6658 223.843 99.5238C224.392 100.401 224.605 101.589 224.464 102.911L225.562 103.028C225.721 101.537 225.495 100.082 224.78 98.9383C224.053 97.7762 222.854 96.9905 221.2 96.8138L221.083 97.9119ZM206.534 115.626C206.445 116.458 206.211 116.905 205.963 117.173C205.709 117.448 205.385 117.598 204.978 117.74C204.614 117.867 204.076 118.012 203.663 118.294C203.186 118.619 202.865 119.114 202.784 119.876L203.882 119.994C203.932 119.529 204.096 119.335 204.286 119.206C204.539 119.033 204.85 118.954 205.341 118.783C205.79 118.627 206.33 118.404 206.775 117.922C207.226 117.434 207.526 116.741 207.632 115.743L206.534 115.626ZM202.784 119.876C202.679 120.853 203.176 121.612 203.871 122.165C204.554 122.709 205.485 123.106 206.433 123.402C208.337 123.995 210.506 124.237 211.442 124.337L211.559 123.238C210.62 123.138 208.55 122.905 206.762 122.347C205.863 122.067 205.084 121.72 204.559 121.301C204.044 120.891 203.831 120.468 203.882 119.994L202.784 119.876ZM211.442 124.337C212.45 124.444 214.613 124.642 216.576 124.438C217.554 124.336 218.531 124.131 219.3 123.731C220.084 123.324 220.709 122.679 220.812 121.711L219.714 121.594C219.662 122.077 219.366 122.452 218.791 122.751C218.202 123.057 217.385 123.244 216.462 123.34C214.623 123.531 212.56 123.345 211.559 123.238L211.442 124.337ZM220.812 121.711C220.853 121.331 220.828 120.995 220.728 120.697C220.626 120.392 220.458 120.16 220.261 119.975C220.073 119.797 219.857 119.662 219.669 119.55C219.466 119.43 219.297 119.337 219.118 119.217C218.79 118.995 218.491 118.716 218.283 118.202C218.068 117.669 217.933 116.838 218.045 115.487L216.944 115.396C216.825 116.843 216.956 117.864 217.259 118.615C217.57 119.386 218.044 119.824 218.5 120.132C218.714 120.276 218.94 120.402 219.105 120.5C219.284 120.606 219.409 120.69 219.503 120.778C219.589 120.86 219.646 120.942 219.681 121.047C219.718 121.158 219.743 121.327 219.714 121.594L220.812 121.711ZM218.044 115.5L218.32 112.911L217.222 112.794L216.946 115.383L218.044 115.5ZM218.32 112.911C218.33 112.818 218.345 112.767 218.355 112.741C218.363 112.72 218.363 112.732 218.342 112.749C218.321 112.767 218.308 112.766 218.327 112.763C218.35 112.758 218.404 112.753 218.503 112.763L218.62 111.665C218.295 111.63 217.923 111.656 217.628 111.907C217.339 112.152 217.253 112.504 217.222 112.794L218.32 112.911ZM218.503 112.763C219.078 112.825 219.683 112.943 220.337 113.07C220.981 113.195 221.667 113.327 222.364 113.401L222.481 112.303C221.838 112.235 221.197 112.112 220.547 111.986C219.906 111.862 219.251 111.733 218.62 111.665L218.503 112.763ZM222.364 113.401C225.565 113.743 228.748 113.152 231.239 111.583C233.744 110.004 235.521 107.449 235.894 103.951L234.796 103.833C234.459 106.987 232.877 109.244 230.65 110.648C228.408 112.061 225.485 112.624 222.481 112.303L222.364 113.401ZM235.894 103.951C236.271 100.423 235.012 97.5447 232.859 95.4771C230.718 93.4217 227.71 92.1808 224.575 91.846L224.458 92.9441C227.395 93.2578 230.16 94.417 232.094 96.2738C234.015 98.1184 235.135 100.665 234.796 103.833L235.894 103.951ZM224.575 91.846C223.61 91.7429 222.095 91.7433 220.085 91.6842C218.052 91.6244 215.45 91.5035 212.231 91.1598L212.114 92.2579C215.369 92.6056 218.001 92.7277 220.053 92.7881C222.128 92.8491 223.549 92.847 224.458 92.9441L224.575 91.846ZM212.231 91.1598C211.686 91.1016 211.152 91.0225 210.606 90.9416C210.063 90.8611 209.508 90.7786 208.937 90.7176L208.82 91.8158C209.365 91.874 209.898 91.953 210.444 92.034C210.987 92.1145 211.543 92.1969 212.114 92.2579L212.231 91.1598ZM208.937 90.7176C208.208 90.6398 207.264 90.6435 206.452 90.9373C205.606 91.2432 204.87 91.8855 204.747 93.0381L205.845 93.1554C205.913 92.5221 206.276 92.1755 206.827 91.9758C207.413 91.7641 208.164 91.7458 208.82 91.8158L208.937 90.7176ZM204.747 93.0381C204.654 93.9085 204.926 94.5379 205.402 95.0073C205.833 95.4323 206.427 95.7137 206.89 95.9523C207.395 96.2123 207.793 96.4414 208.062 96.7629C208.304 97.0528 208.474 97.4625 208.398 98.1693L209.497 98.2866C209.6 97.3192 209.366 96.602 208.91 96.0554C208.48 95.5403 207.887 95.2233 207.396 94.9706C206.864 94.6965 206.459 94.4987 206.178 94.2211C205.942 93.9879 205.788 93.6912 205.845 93.1554L204.747 93.0381ZM208.398 98.1693L206.534 115.626L207.632 115.743L209.497 98.2866L208.398 98.1693Z" fill="#AF71FE"/>
<path d="M243.159 105.584C241.531 104.725 238.405 102.568 237.127 104.991C235.64 107.811 240.313 106.265 237.385 112.488C233.991 119.886 234.328 119.15 230.039 126.126C227.54 130.189 225.761 127.017 224.609 129.201C224.337 129.718 223.748 130.93 226.369 132.313L242.691 140.923C244.041 141.635 245.09 142.341 245.922 142.881C246.693 143.44 247.266 143.895 247.544 144.041C249.132 144.879 253.833 141.166 255.257 138.465C255.844 137.353 255.962 135.588 254.692 134.918C251.435 133.2 250.785 140.015 242.644 135.72C238.474 133.52 237.93 133.589 240.989 127.791C241.659 126.52 242.415 124.99 244.083 125.87C248.094 127.986 243.432 130.857 245.895 132.155C248.277 133.412 251.069 128.794 251.928 127.165C252.745 125.617 254.954 121.045 252.65 119.83C249.831 118.343 249.769 123.945 246.751 122.353C244.328 121.075 244.251 120.933 245.466 118.629C247.875 114.062 247.858 113.038 252.266 115.363C259.811 119.343 255.258 121.815 258.396 123.47C259.944 124.287 261.278 123.011 261.969 121.7C262.891 119.953 263.991 115.558 261.727 114.364C261.092 114.029 259.918 114.425 254.597 111.618L243.159 105.584Z" fill="white"/>
<path d="M237.385 112.488L236.886 112.253L236.884 112.258L237.385 112.488ZM230.039 126.126L230.509 126.415L230.509 126.415L230.039 126.126ZM245.922 142.881L246.246 142.434L246.235 142.426L246.223 142.418L245.922 142.881ZM243.417 105.096C242.665 104.699 241.384 103.893 240.171 103.528C239.553 103.343 238.88 103.246 238.245 103.405C237.583 103.572 237.025 104.001 236.639 104.733L237.615 105.249C237.868 104.77 238.18 104.56 238.514 104.476C238.875 104.386 239.326 104.428 239.853 104.586C240.929 104.909 242.026 105.611 242.902 106.073L243.417 105.096ZM236.639 104.733C236.432 105.125 236.309 105.483 236.281 105.821C236.251 106.172 236.325 106.471 236.463 106.734C236.592 106.981 236.773 107.181 236.928 107.343C237.097 107.52 237.234 107.65 237.371 107.816C237.614 108.109 237.816 108.467 237.819 109.09C237.821 109.747 237.602 110.731 236.886 112.253L237.885 112.723C238.633 111.134 238.927 109.977 238.923 109.086C238.919 108.16 238.595 107.562 238.221 107.111C238.05 106.905 237.856 106.716 237.726 106.58C237.581 106.429 237.494 106.322 237.44 106.22C237.395 106.133 237.37 106.043 237.381 105.914C237.393 105.772 237.45 105.561 237.615 105.249L236.639 104.733ZM236.884 112.258C233.5 119.631 233.849 118.875 229.568 125.837L230.509 126.415C234.807 119.425 234.481 120.141 237.887 112.718L236.884 112.258ZM229.568 125.837C228.974 126.804 228.454 127.287 228.023 127.535C227.603 127.776 227.22 127.821 226.826 127.816C226.603 127.813 226.439 127.797 226.196 127.788C225.979 127.78 225.733 127.78 225.484 127.829C224.93 127.94 224.474 128.273 224.121 128.944L225.097 129.459C225.32 129.037 225.519 128.948 225.7 128.912C225.819 128.889 225.961 128.884 226.154 128.892C226.318 128.898 226.585 128.917 226.812 128.92C227.319 128.927 227.921 128.867 228.573 128.492C229.215 128.124 229.854 127.48 230.509 126.415L229.568 125.837ZM224.121 128.944C223.979 129.213 223.665 129.815 223.871 130.576C224.076 131.333 224.744 132.079 226.111 132.801L226.627 131.824C225.373 131.163 225.025 130.612 224.937 130.288C224.85 129.968 224.967 129.706 225.097 129.459L224.121 128.944ZM226.111 132.801L242.433 141.411L242.949 140.434L226.627 131.824L226.111 132.801ZM242.433 141.411C243.757 142.109 244.783 142.8 245.621 143.344L246.223 142.418C245.398 141.882 244.326 141.161 242.949 140.434L242.433 141.411ZM245.598 143.328C245.983 143.607 246.308 143.853 246.591 144.061C246.855 144.255 247.103 144.433 247.286 144.53L247.801 143.553C247.706 143.503 247.529 143.38 247.245 143.171C246.979 142.975 246.632 142.714 246.246 142.434L245.598 143.328ZM247.286 144.53C247.914 144.861 248.715 144.698 249.422 144.416C250.17 144.12 250.994 143.62 251.793 143.022C253.381 141.833 254.981 140.171 255.745 138.723L254.769 138.207C254.108 139.459 252.646 141.005 251.131 142.138C250.378 142.702 249.64 143.142 249.015 143.39C248.35 143.654 247.967 143.64 247.801 143.553L247.286 144.53ZM255.745 138.723C256.081 138.086 256.287 137.262 256.221 136.48C256.154 135.686 255.797 134.877 254.949 134.43L254.434 135.406C254.857 135.63 255.076 136.038 255.121 136.572C255.167 137.118 255.019 137.732 254.769 138.207L255.745 138.723ZM254.949 134.43C254.468 134.176 254.006 134.066 253.551 134.084C253.101 134.101 252.697 134.243 252.329 134.431C251.966 134.616 251.614 134.86 251.277 135.098C250.93 135.342 250.591 135.587 250.215 135.812C249.479 136.253 248.629 136.605 247.499 136.613C246.359 136.62 244.883 136.277 242.901 135.232L242.386 136.208C244.475 137.31 246.132 137.726 247.506 137.717C248.89 137.708 249.933 137.269 250.783 136.759C251.202 136.508 251.58 136.236 251.913 136C252.256 135.759 252.548 135.559 252.831 135.414C253.109 135.272 253.354 135.197 253.595 135.187C253.83 135.178 254.101 135.231 254.434 135.406L254.949 134.43ZM242.901 135.232C241.836 134.67 241.061 134.282 240.502 133.909C239.951 133.541 239.721 133.257 239.637 132.956C239.548 132.638 239.585 132.173 239.888 131.359C240.188 130.554 240.711 129.501 241.477 128.048L240.5 127.533C239.737 128.98 239.181 130.092 238.853 130.974C238.528 131.846 238.388 132.589 238.574 133.253C238.764 133.935 239.261 134.409 239.889 134.828C240.51 135.242 241.366 135.67 242.386 136.208L242.901 135.232ZM241.477 128.048C241.83 127.378 242.14 126.785 242.53 126.435C242.71 126.274 242.882 126.19 243.059 126.168C243.237 126.146 243.483 126.177 243.826 126.358L244.341 125.381C243.85 125.122 243.376 125.015 242.922 125.072C242.467 125.129 242.095 125.342 241.793 125.612C241.221 126.125 240.817 126.932 240.5 127.533L241.477 128.048ZM243.826 126.358C244.744 126.842 245.069 127.316 245.181 127.712C245.3 128.134 245.216 128.598 245.042 129.155C245 129.291 244.955 129.427 244.907 129.567C244.861 129.706 244.813 129.849 244.769 129.992C244.683 130.273 244.604 130.581 244.586 130.891C244.567 131.208 244.612 131.547 244.793 131.869C244.973 132.191 245.26 132.445 245.637 132.644L246.152 131.667C245.914 131.541 245.808 131.422 245.756 131.329C245.705 131.238 245.678 131.122 245.688 130.955C245.698 130.78 245.746 130.572 245.825 130.316C245.864 130.189 245.907 130.059 245.954 129.918C246.001 129.78 246.05 129.633 246.097 129.483C246.28 128.896 246.456 128.164 246.244 127.412C246.024 126.634 245.428 125.955 244.341 125.381L243.826 126.358ZM245.637 132.644C246.423 133.059 247.231 132.97 247.953 132.636C248.659 132.311 249.316 131.74 249.889 131.116C251.04 129.863 251.979 128.253 252.417 127.423L251.44 126.908C251.019 127.706 250.132 129.219 249.076 130.369C248.546 130.946 248.005 131.396 247.49 131.634C246.992 131.864 246.557 131.881 246.152 131.667L245.637 132.644ZM252.417 127.423C252.829 126.642 253.612 125.062 253.996 123.505C254.187 122.728 254.291 121.911 254.169 121.18C254.043 120.429 253.671 119.744 252.908 119.342L252.393 120.319C252.782 120.524 252.997 120.866 253.079 121.362C253.166 121.879 253.099 122.528 252.923 123.241C252.574 124.66 251.845 126.14 251.44 126.908L252.417 127.423ZM252.908 119.342C252.492 119.122 252.089 119.014 251.696 119.025C251.3 119.036 250.957 119.167 250.663 119.357C250.11 119.716 249.68 120.326 249.33 120.804C248.942 121.333 248.628 121.735 248.27 121.945C248.107 122.04 247.943 122.09 247.759 122.088C247.571 122.087 247.327 122.032 247.008 121.864L246.493 122.841C246.93 123.071 247.347 123.19 247.751 123.193C248.159 123.196 248.517 123.08 248.829 122.898C249.419 122.551 249.863 121.944 250.22 121.457C250.615 120.92 250.918 120.508 251.264 120.284C251.419 120.183 251.568 120.133 251.726 120.129C251.888 120.124 252.104 120.166 252.393 120.319L252.908 119.342ZM247.008 121.864C246.395 121.541 245.969 121.309 245.673 121.103C245.375 120.895 245.292 120.769 245.265 120.692C245.241 120.624 245.226 120.495 245.334 120.186C245.444 119.874 245.647 119.47 245.955 118.887L244.978 118.372C244.678 118.941 244.434 119.417 244.293 119.82C244.15 120.225 244.077 120.644 244.224 121.059C244.367 121.466 244.682 121.758 245.042 122.009C245.404 122.261 245.895 122.526 246.493 122.841L247.008 121.864ZM245.955 118.887C246.569 117.722 247.004 116.832 247.403 116.142C247.805 115.447 248.11 115.069 248.412 114.878C248.672 114.713 248.993 114.651 249.552 114.787C250.135 114.929 250.908 115.271 252.008 115.851L252.523 114.875C251.419 114.292 250.541 113.891 249.813 113.714C249.06 113.53 248.408 113.573 247.821 113.945C247.275 114.29 246.857 114.879 246.447 115.589C246.034 116.302 245.568 117.253 244.978 118.372L245.955 118.887ZM252.008 115.851C253.858 116.827 254.921 117.688 255.542 118.43C256.151 119.159 256.352 119.794 256.437 120.37C256.482 120.672 256.496 120.955 256.516 121.263C256.535 121.558 256.56 121.882 256.64 122.199C256.722 122.527 256.863 122.852 257.113 123.159C257.361 123.463 257.696 123.726 258.138 123.958L258.653 122.982C258.31 122.801 258.102 122.625 257.969 122.461C257.838 122.301 257.761 122.13 257.711 121.93C257.658 121.721 257.637 121.488 257.618 121.192C257.6 120.908 257.583 120.567 257.53 120.207C257.419 119.461 257.147 118.628 256.389 117.722C255.643 116.83 254.446 115.889 252.523 114.875L252.008 115.851ZM258.138 123.958C259.112 124.472 260.042 124.32 260.795 123.852C261.52 123.402 262.085 122.665 262.457 121.958L261.481 121.443C261.162 122.046 260.714 122.602 260.213 122.914C259.739 123.208 259.228 123.285 258.653 122.982L258.138 123.958ZM262.457 121.958C262.952 121.02 263.48 119.411 263.593 117.865C263.703 116.366 263.434 114.64 261.985 113.876L261.469 114.852C262.283 115.282 262.597 116.351 262.492 117.784C262.39 119.171 261.908 120.633 261.481 121.443L262.457 121.958ZM261.985 113.876C261.738 113.745 261.455 113.695 261.197 113.646C260.917 113.592 260.564 113.527 260.07 113.387C259.079 113.106 257.492 112.521 254.854 111.129L254.339 112.106C257.023 113.522 258.684 114.142 259.769 114.449C260.312 114.603 260.705 114.676 260.99 114.731C261.297 114.789 261.399 114.815 261.469 114.852L261.985 113.876ZM254.854 111.129L243.417 105.096L242.902 106.073L254.339 112.106L254.854 111.129Z" fill="#AF71FE"/>
<path d="M271.947 139.664C272.403 136.963 270.563 134.376 267.862 133.92C265.161 133.465 262.574 135.305 262.118 138.005C261.662 140.706 263.503 143.293 266.203 143.749C268.904 144.205 271.491 142.365 271.947 139.664ZM275.82 119.144C276.373 115.868 275.413 112.109 271.65 111.474C267.887 110.838 265.747 114.075 265.194 117.351C264.731 120.096 265.189 123.588 266.017 126.232C266.274 127.141 267.338 130.28 268.445 130.467C269.552 130.654 271.587 128.037 272.127 127.264C273.778 125.038 275.356 121.889 275.82 119.144Z" fill="white"/>
<path d="M266.017 126.232L266.549 126.082L266.547 126.075L266.544 126.067L266.017 126.232ZM272.127 127.264L271.684 126.935L271.679 126.941L271.674 126.947L272.127 127.264ZM272.491 139.756C272.998 136.755 270.955 133.882 267.954 133.376L267.77 134.465C270.17 134.87 271.807 137.172 271.402 139.572L272.491 139.756ZM267.954 133.376C264.952 132.869 262.08 134.912 261.574 137.913L262.663 138.097C263.068 135.697 265.37 134.06 267.77 134.465L267.954 133.376ZM261.574 137.913C261.067 140.915 263.11 143.787 266.111 144.294L266.295 143.205C263.895 142.8 262.258 140.497 262.663 138.097L261.574 137.913ZM266.111 144.294C269.113 144.8 271.985 142.757 272.491 139.756L271.402 139.572C270.997 141.972 268.695 143.61 266.295 143.205L266.111 144.294ZM276.364 119.236C276.653 117.524 276.555 115.648 275.857 114.092C275.148 112.512 273.823 111.28 271.742 110.929L271.558 112.018C273.241 112.302 274.277 113.268 274.85 114.544C275.434 115.847 275.539 117.488 275.275 119.052L276.364 119.236ZM271.742 110.929C269.661 110.578 268.005 111.306 266.816 112.567C265.647 113.807 264.939 115.547 264.65 117.259L265.739 117.443C266.002 115.879 266.641 114.363 267.62 113.324C268.58 112.306 269.875 111.734 271.558 112.018L271.742 110.929ZM264.65 117.259C264.168 120.114 264.644 123.697 265.491 126.398L266.544 126.067C265.733 123.479 265.294 120.078 265.739 117.443L264.65 117.259ZM265.486 126.382C265.62 126.856 265.96 127.899 266.413 128.857C266.639 129.334 266.904 129.813 267.198 130.192C267.474 130.549 267.859 130.928 268.353 131.011L268.537 129.922C268.477 129.912 268.314 129.829 268.071 129.516C267.847 129.226 267.622 128.829 267.411 128.384C266.992 127.498 266.672 126.517 266.549 126.082L265.486 126.382ZM268.353 131.011C268.846 131.095 269.335 130.863 269.712 130.617C270.115 130.355 270.522 129.989 270.892 129.613C271.635 128.857 272.298 127.983 272.58 127.58L271.674 126.947C271.416 127.318 270.791 128.139 270.104 128.839C269.76 129.189 269.417 129.491 269.11 129.691C268.778 129.908 268.597 129.933 268.537 129.922L268.353 131.011ZM272.571 127.592C274.256 125.319 275.882 122.091 276.364 119.236L275.275 119.052C274.831 121.687 273.299 124.756 271.684 126.935L272.571 127.592Z" fill="#AF71FE"/>
<path d="M353.7 147.764C354.241 146.449 356.103 146.449 356.645 147.764L371.035 182.713C375.685 194.004 367.383 206.4 355.172 206.4Lnan nanL355.172 206.4C342.961 206.4 334.66 194.004 339.309 182.713L353.7 147.764Z" fill="#AF71FE"/>
<path fill-rule="evenodd" clip-rule="evenodd" d="M355.72 148.145C355.519 147.656 354.826 147.656 354.624 148.145L340.234 183.094C335.855 193.727 343.673 205.4 355.172 205.4C366.671 205.4 374.489 193.727 370.111 183.094L355.72 148.145ZM352.775 147.383C353.656 145.243 356.688 145.243 357.569 147.383L371.96 182.332C376.88 194.281 368.095 207.4 355.172 207.4C342.249 207.4 333.464 194.281 338.384 182.332L352.775 147.383Z" fill="#333333"/>
<path d="M355.99 176.903C355.842 176.903 355.714 176.877 355.606 176.825C355.497 176.77 355.407 176.693 355.336 176.594C355.266 176.494 355.214 176.371 355.179 176.226C355.147 176.08 355.13 175.914 355.13 175.727C355.13 175.543 355.147 175.378 355.179 175.232C355.214 175.085 355.266 174.961 355.336 174.861C355.407 174.761 355.497 174.685 355.606 174.633C355.714 174.579 355.842 174.552 355.99 174.552C356.285 174.552 356.502 174.655 356.641 174.861C356.78 175.067 356.85 175.356 356.85 175.727C356.85 176.099 356.78 176.387 356.641 176.594C356.502 176.8 356.285 176.903 355.99 176.903ZM355.99 176.554C356.066 176.554 356.13 176.54 356.182 176.512C356.234 176.482 356.276 176.439 356.306 176.385C356.339 176.331 356.361 176.265 356.374 176.186C356.39 176.106 356.397 176.017 356.397 175.919V175.532C356.397 175.337 356.367 175.182 356.306 175.07C356.247 174.957 356.142 174.9 355.99 174.9C355.838 174.9 355.732 174.957 355.671 175.07C355.612 175.182 355.583 175.337 355.583 175.532V175.923C355.583 176.118 355.612 176.272 355.671 176.385C355.732 176.498 355.838 176.554 355.99 176.554Z" fill="white"/>
<path d="M359.194 177.345L359.971 175.21L360.782 175.505C360.99 175.581 361.127 175.698 361.195 175.856C361.262 176.014 361.258 176.196 361.184 176.4C361.11 176.604 360.996 176.745 360.843 176.823C360.689 176.901 360.509 176.902 360.301 176.827L359.891 176.677L359.594 177.491L359.194 177.345ZM360.01 176.35L360.337 176.469C360.445 176.509 360.531 176.515 360.593 176.49C360.656 176.462 360.706 176.4 360.74 176.304L360.783 176.188C360.818 176.092 360.819 176.014 360.788 175.954C360.757 175.892 360.688 175.842 360.58 175.802L360.253 175.683L360.01 176.35Z" fill="white"/>
<path d="M362.857 179.213L364.318 177.472L364.979 178.027C365.148 178.169 365.237 178.326 365.246 178.498C365.255 178.67 365.19 178.839 365.05 179.005C364.911 179.171 364.756 179.265 364.585 179.286C364.414 179.307 364.244 179.246 364.074 179.104L363.74 178.824L363.183 179.487L362.857 179.213ZM363.964 178.557L364.231 178.781C364.319 178.855 364.397 178.89 364.465 178.887C364.533 178.883 364.601 178.842 364.666 178.763L364.746 178.669C364.811 178.591 364.84 178.518 364.831 178.451C364.823 178.382 364.775 178.311 364.687 178.237L364.42 178.013L363.964 178.557Z" fill="white"/>
<path d="M365.984 182.861C365.911 182.733 365.869 182.609 365.86 182.489C365.853 182.368 365.874 182.251 365.925 182.139C365.977 182.029 366.057 181.923 366.166 181.82C366.275 181.719 366.411 181.622 366.573 181.529C366.732 181.436 366.883 181.368 367.026 181.323C367.171 181.28 367.304 181.263 367.425 181.273C367.548 181.285 367.658 181.325 367.758 181.393C367.859 181.46 367.947 181.557 368.02 181.685C368.168 181.941 368.187 182.181 368.078 182.404C367.969 182.627 367.754 182.832 367.432 183.018C367.111 183.203 366.826 183.287 366.578 183.27C366.33 183.253 366.132 183.116 365.984 182.861ZM366.286 182.687C366.324 182.752 366.368 182.801 366.419 182.832C366.471 182.862 366.528 182.876 366.591 182.875C366.654 182.877 366.723 182.863 366.797 182.835C366.874 182.808 366.955 182.77 367.04 182.722L367.375 182.528C367.544 182.43 367.663 182.327 367.73 182.218C367.798 182.111 367.795 181.991 367.719 181.86C367.643 181.728 367.541 181.664 367.412 181.668C367.285 181.674 367.137 181.725 366.968 181.823L366.63 182.018C366.46 182.116 366.342 182.218 366.273 182.326C366.206 182.435 366.21 182.555 366.286 182.687Z" fill="white"/>
<path d="M367.33 186.595C367.296 186.403 367.3 186.232 367.342 186.084C367.385 185.937 367.453 185.812 367.547 185.707L367.854 185.914C367.773 186.014 367.717 186.117 367.687 186.221C367.66 186.327 367.656 186.436 367.675 186.547C367.698 186.676 367.744 186.769 367.814 186.827C367.884 186.885 367.973 186.905 368.082 186.886C368.172 186.87 368.235 186.832 368.27 186.773C368.308 186.713 368.326 186.621 368.324 186.496L368.321 186.252C368.321 186.038 368.369 185.877 368.467 185.77C368.567 185.662 368.695 185.594 368.851 185.566C369.065 185.529 369.241 185.569 369.379 185.688C369.519 185.807 369.61 185.989 369.654 186.235C369.684 186.41 369.683 186.566 369.65 186.702C369.617 186.84 369.559 186.956 369.477 187.05L369.17 186.849C369.23 186.777 369.273 186.695 369.299 186.605C369.327 186.514 369.331 186.412 369.311 186.299C369.268 186.055 369.146 185.951 368.945 185.986C368.86 186.001 368.799 186.038 368.763 186.098C368.727 186.157 368.71 186.25 368.71 186.378L368.71 186.62C368.708 186.821 368.661 186.977 368.571 187.09C368.481 187.203 368.352 187.274 368.186 187.304C368.081 187.322 367.981 187.321 367.887 187.3C367.795 187.279 367.711 187.239 367.635 187.179C367.56 187.12 367.497 187.041 367.444 186.942C367.392 186.845 367.354 186.73 367.33 186.595Z" fill="white"/>
<path d="M367.481 190.106L367.795 190.161L367.707 190.665L369.316 190.949L369.405 190.445L369.719 190.5L369.468 191.924L369.154 191.869L369.243 191.365L367.633 191.082L367.544 191.585L367.23 191.53L367.481 190.106Z" fill="white"/>
<path d="M367.562 195.081L367.578 195.053L366.165 194.237L366.347 193.921L368.316 195.058L368.054 195.512L366.343 195.212L366.327 195.24L367.739 196.056L367.557 196.372L365.589 195.235L365.851 194.781L367.562 195.081Z" fill="white"/>
<path d="M363.154 198.283L363.174 198.266C363.159 198.218 363.149 198.169 363.143 198.118C363.137 198.066 363.139 198.015 363.149 197.963C363.16 197.912 363.181 197.861 363.211 197.809C363.24 197.759 363.282 197.711 363.337 197.665C363.514 197.518 363.712 197.483 363.934 197.56C364.155 197.641 364.383 197.822 364.619 198.103C364.867 198.399 365.004 198.67 365.028 198.916C365.053 199.161 364.955 199.377 364.734 199.563C364.647 199.635 364.562 199.687 364.477 199.718C364.391 199.751 364.308 199.766 364.226 199.763C364.143 199.762 364.062 199.745 363.983 199.712C363.904 199.682 363.828 199.641 363.754 199.59L363.982 199.254C364.024 199.281 364.067 199.306 364.112 199.328C364.154 199.352 364.198 199.366 364.242 199.372C364.286 199.38 364.33 199.379 364.374 199.367C364.42 199.357 364.466 199.333 364.512 199.294C364.62 199.203 364.661 199.095 364.635 198.969C364.609 198.844 364.534 198.706 364.408 198.556L364.174 198.277C364.111 198.202 364.048 198.137 363.985 198.083C363.922 198.031 363.859 197.993 363.796 197.969C363.733 197.945 363.672 197.937 363.611 197.946C363.551 197.956 363.492 197.986 363.432 198.037C363.339 198.115 363.291 198.201 363.289 198.297C363.288 198.394 363.324 198.486 363.397 198.572L363.516 198.714L363.833 198.448L364.032 198.685L363.423 199.196L362.659 198.286L362.951 198.041L363.154 198.283Z" fill="white"/>
<path d="M355.461 202.402V200.481H355.884V202.402H356.568V202.754H354.777V202.402H355.461Z" fill="white"/>
<path d="M351.039 200.581L351.663 200.808L351.997 199.89L352.398 200.036L351.621 202.171L351.22 202.026L351.543 201.138L350.918 200.911L350.596 201.798L350.195 201.652L350.972 199.517L351.373 199.663L351.039 200.581Z" fill="white"/>
<path d="M348.078 197.629C348.191 197.724 348.273 197.826 348.322 197.936C348.371 198.047 348.39 198.164 348.381 198.287C348.37 198.408 348.331 198.535 348.264 198.669C348.196 198.802 348.101 198.939 347.981 199.082C347.863 199.224 347.744 199.34 347.626 199.43C347.504 199.521 347.385 199.582 347.267 199.614C347.148 199.644 347.03 199.645 346.914 199.615C346.796 199.587 346.68 199.525 346.567 199.43C346.341 199.24 346.241 199.022 346.267 198.775C346.293 198.527 346.426 198.262 346.664 197.977C346.903 197.693 347.142 197.516 347.381 197.448C347.62 197.379 347.852 197.439 348.078 197.629ZM347.854 197.896C347.796 197.847 347.738 197.817 347.68 197.805C347.621 197.795 347.562 197.801 347.504 197.823C347.444 197.843 347.384 197.88 347.324 197.931C347.26 197.983 347.197 198.046 347.134 198.121L346.885 198.418C346.76 198.567 346.684 198.705 346.658 198.831C346.63 198.955 346.675 199.066 346.791 199.163C346.908 199.261 347.025 199.286 347.144 199.239C347.262 199.19 347.383 199.091 347.509 198.941L347.76 198.642C347.886 198.492 347.962 198.355 347.99 198.231C348.016 198.105 347.971 197.994 347.854 197.896Z" fill="white"/>
<path d="M343.696 196.015L344.922 195.307C344.996 195.265 345.061 195.225 345.117 195.188C345.172 195.148 345.214 195.107 345.245 195.065C345.272 195.021 345.286 194.973 345.286 194.921C345.285 194.866 345.263 194.803 345.222 194.732C345.181 194.661 345.137 194.612 345.092 194.585C345.046 194.557 344.997 194.545 344.947 194.549C344.894 194.552 344.837 194.568 344.776 194.598C344.715 194.626 344.647 194.661 344.574 194.704L343.347 195.412L343.134 195.043L344.304 194.367C344.443 194.287 344.57 194.225 344.683 194.182C344.796 194.14 344.901 194.122 344.999 194.131C345.097 194.14 345.189 194.178 345.276 194.246C345.36 194.313 345.442 194.417 345.524 194.558C345.605 194.699 345.654 194.823 345.672 194.931C345.686 195.038 345.672 195.136 345.631 195.225C345.59 195.314 345.522 195.397 345.428 195.474C345.335 195.55 345.218 195.629 345.079 195.709L343.909 196.385L343.696 196.015Z" fill="white"/>
<path d="M343.689 190.288L343.694 190.314C343.742 190.325 343.79 190.341 343.838 190.361C343.885 190.381 343.929 190.409 343.968 190.444C344.007 190.479 344.041 190.522 344.07 190.575C344.099 190.625 344.119 190.685 344.132 190.756C344.172 190.982 344.103 191.172 343.925 191.324C343.744 191.475 343.473 191.583 343.112 191.646C342.731 191.713 342.429 191.696 342.203 191.595C341.978 191.493 341.841 191.301 341.791 191.016C341.771 190.905 341.769 190.805 341.784 190.717C341.799 190.626 341.828 190.546 341.871 190.476C341.913 190.405 341.969 190.343 342.037 190.292C342.102 190.238 342.176 190.192 342.257 190.154L342.434 190.519C342.389 190.543 342.346 190.568 342.305 190.595C342.263 190.62 342.229 190.65 342.202 190.686C342.173 190.72 342.152 190.759 342.14 190.803C342.126 190.847 342.124 190.899 342.134 190.959C342.159 191.098 342.232 191.188 342.354 191.228C342.475 191.268 342.632 191.271 342.825 191.237L343.184 191.174C343.28 191.157 343.368 191.135 343.447 191.108C343.523 191.079 343.588 191.043 343.64 191.001C343.692 190.959 343.729 190.909 343.752 190.852C343.773 190.796 343.777 190.729 343.763 190.652C343.742 190.532 343.691 190.448 343.609 190.398C343.526 190.349 343.428 190.334 343.317 190.354L343.134 190.386L343.206 190.793L342.902 190.847L342.764 190.064L343.934 189.858L344 190.233L343.689 190.288Z" fill="white"/>
<path d="M343.182 186.116L343.066 186.77L344.028 186.94L343.954 187.36L341.716 186.965L341.79 186.545L342.72 186.709L342.835 186.055L341.905 185.891L341.979 185.471L344.218 185.865L344.144 186.286L343.182 186.116Z" fill="white"/>
<path d="M343.933 181.61L345.597 182.571L345.385 182.938L343.721 181.977L343.379 182.569L343.075 182.393L343.97 180.842L344.275 181.018L343.933 181.61Z" fill="white"/>
<path d="M348.135 179.656C347.986 179.781 347.836 179.863 347.686 179.901C347.538 179.937 347.395 179.941 347.258 179.912L347.283 179.542C347.411 179.562 347.527 179.559 347.633 179.533C347.739 179.504 347.835 179.453 347.921 179.38C348.021 179.297 348.079 179.21 348.094 179.12C348.11 179.031 348.082 178.944 348.011 178.859C347.952 178.789 347.888 178.753 347.819 178.752C347.749 178.749 347.66 178.78 347.552 178.844L347.343 178.969C347.158 179.076 346.994 179.114 346.852 179.083C346.708 179.051 346.586 178.974 346.484 178.852C346.344 178.686 346.292 178.514 346.326 178.335C346.358 178.154 346.47 177.984 346.662 177.823C346.798 177.709 346.933 177.632 347.068 177.593C347.204 177.553 347.333 177.545 347.456 177.569L347.435 177.935C347.343 177.919 347.251 177.923 347.159 177.945C347.067 177.967 346.976 178.014 346.888 178.088C346.698 178.247 346.669 178.405 346.8 178.561C346.856 178.628 346.919 178.662 346.988 178.663C347.057 178.665 347.147 178.633 347.257 178.569L347.467 178.448C347.642 178.35 347.801 178.311 347.944 178.333C348.087 178.355 348.213 178.431 348.321 178.56C348.39 178.642 348.438 178.728 348.467 178.82C348.495 178.911 348.502 179.004 348.489 179.1C348.475 179.194 348.438 179.288 348.379 179.383C348.321 179.477 348.24 179.568 348.135 179.656Z" fill="white"/>
<path d="M360.206 200.395C360.206 200.615 360.027 200.795 359.806 200.795C359.585 200.795 359.406 200.615 359.406 200.395C359.406 200.174 359.585 199.994 359.806 199.994C360.027 199.994 360.206 200.174 360.206 200.395Z" fill="white"/>
<path d="M351.775 176.881C351.775 177.102 351.596 177.281 351.375 177.281C351.154 177.281 350.975 177.102 350.975 176.881C350.975 176.66 351.154 176.481 351.375 176.481C351.596 176.481 351.775 176.66 351.775 176.881Z" fill="white"/>
</svg>
