<svg xmlns="http://www.w3.org/2000/svg" width="391" height="225" fill="none">
<path fill="#12D778" d="M300.607 76.867c11.714 3.138 18.665 15.178 15.526 26.892l-3.247 12.119 46.969 12.586a18.242 18.242 0 0 1 11.556 9.349c.647.996 1.207 2.06 1.67 3.183l14.39 34.949c9.467 22.99-7.436 48.23-32.299 48.23s-41.766-25.24-32.299-48.23l6.029-14.642-26.299-7.046-3.248 12.119c-3.139 11.714-15.178 18.665-26.892 15.526L83.601 131.297c-9.778-2.62-16.526-10.904-17.66-20.376-7.992 13.154-23.967 20.047-39.583 15.862-18.965-5.081-30.22-24.575-25.138-43.54l15.155-56.557C21.456 7.721 40.95-3.533 59.915 1.55 75.53 5.733 85.918 19.69 86.262 35.077c5.719-7.636 15.705-11.435 25.483-8.815l188.861 50.605Z"/><path fill="#AF71FE" d="m121.531 123.058 18.943-70.697 147.453 39.51-18.943 70.697-147.453-39.51Z"/><path fill="#333" fill-rule="evenodd" d="m120.306 123.765 19.461-72.628 149.385 40.027-19.461 72.629-149.385-40.028Zm2.449-1.414 145.522 38.993 18.426-68.765-145.522-38.993-18.426 68.765Z" clip-rule="evenodd"/><path fill="#FFD600" d="m109.411 119.811 18.943-70.697 12.12 3.247-18.944 70.697-12.119-3.247Z"/><path fill="#333" fill-rule="evenodd" d="m108.186 120.518 19.461-72.629 14.051 3.765-19.461 72.629-14.051-3.765Zm2.45-1.414 10.187 2.729 18.426-68.765-10.188-2.73-18.425 68.766Z" clip-rule="evenodd"/><path fill="#333" fill-rule="evenodd" d="M82.8 106.186a7.273 7.273 0 0 0 5.143 8.908l21.209 5.683a1 1 0 0 0 1.225-.707l18.943-70.697a1 1 0 0 0-.707-1.225l-21.181-5.676-.028-.007a7.274 7.274 0 0 0-8.908 5.143L82.8 106.186Zm24.09-61.788-.004-.001a5.273 5.273 0 0 0-6.458 3.729l-15.696 58.577a5.274 5.274 0 0 0 3.729 6.459 5.274 5.274 0 0 0 6.459-3.729l15.695-58.577a5.274 5.274 0 0 0-3.725-6.458Zm5.657 6.975a7.254 7.254 0 0 0-.822-5.68l15.405 4.128-18.426 68.765-15.404-4.128a7.251 7.251 0 0 0 3.552-4.507l15.695-58.578Z" clip-rule="evenodd"/><path fill="#FFD600" d="m268.984 162.568 18.943-70.697 8.08 2.165a4.182 4.182 0 0 1 2.957 5.123l-16.778 62.617a4.182 4.182 0 0 1-5.122 2.957l-8.08-2.165Z"/><path fill="#333" fill-rule="evenodd" d="m267.759 163.275 19.461-72.628 9.046 2.423a5.182 5.182 0 0 1 3.664 6.347l-16.778 62.618a5.183 5.183 0 0 1-6.347 3.664l-9.046-2.424Zm2.45-1.414 7.113 1.906a3.182 3.182 0 0 0 3.898-2.25L297.998 98.9a3.182 3.182 0 0 0-2.25-3.898l-7.114-1.906-18.425 68.765Z" clip-rule="evenodd"/><path fill="#333" d="m290.035 132.487 1.082-4.04 64.637 17.32-1.082 4.04zM59.764 70.786l1.082-4.04 58.578 15.697-1.083 4.04z"/><path fill="#FFD600" d="M30.958 109.614c-9.482-2.541-15.11-12.288-12.569-21.77l15.155-56.557c2.54-9.483 12.287-15.11 21.77-12.57 9.482 2.542 15.11 12.288 12.568 21.77L52.728 97.046c-2.54 9.482-12.288 15.11-21.77 12.569Z"/><path fill="#333" fill-rule="evenodd" d="M30.7 110.58c-10.016-2.684-15.96-12.979-13.276-22.995l15.154-56.557c2.684-10.016 12.979-15.96 22.995-13.276 10.015 2.684 15.96 12.979 13.276 22.994L53.694 97.304c-2.684 10.016-12.979 15.96-22.995 13.276ZM19.354 88.103c-2.398 8.949 2.913 18.147 11.862 20.545 8.949 2.398 18.147-2.913 20.545-11.862L66.917 40.23c2.397-8.95-2.913-18.147-11.862-20.545-8.949-2.398-18.147 2.913-20.545 11.861L19.355 88.103Z" clip-rule="evenodd"/><path fill="#fff" d="M138.45 92.785c-2.605 6.017-4.529 1.35-5.752 4.343-.68 1.663.819 3.1 2.232 3.677 1.205.493 2.386.927 3.584 1.319 1.181.434 2.403.885 3.567 1.361 1.163.475 2.269.976 3.54 1.544a78.527 78.527 0 0 0 4.521 1.993c10.516 4.297 18.018-1.125 21.178-8.856 3.057-7.481 2.196-16.176-9.358-20.898l-13.55-5.537c-1.455-.594-3.984-1.288-4.765.623-1.104 2.702 2.862 1.898 1.029 6.145l-6.226 14.286Zm16.32-10.5c.646-1.58 1.059-2.236 2.805-1.522 3.2 1.308 6.229 4.34 2.255 14.066-1.699 4.156-4.804 9.144-10.041 7.004-2.245-.917-2.22-1.926-1.354-4.046l6.335-15.503Z"/><path fill="#AF71FE" d="m138.45 92.785-.506-.22h-.001l.507.22Zm.064 9.339.19-.518-.009-.003-.009-.004-.172.525Zm7.107 2.905.242-.497-.008-.004-.009-.003-.225.504Zm-.945-26.53.507.22v-.001l-.507-.22Zm-6.733 14.067c-.636 1.47-1.2 2.211-1.665 2.585-.435.35-.815.404-1.199.388-.22-.009-.402-.038-.656-.063a2.677 2.677 0 0 0-.783.016 1.62 1.62 0 0 0-.836.442c-.247.24-.447.569-.617.985l1.022.418c.135-.331.263-.512.366-.613a.52.52 0 0 1 .278-.149c.113-.022.254-.02.461 0 .183.018.459.057.719.068.575.024 1.241-.07 1.938-.631.667-.537 1.319-1.468 1.986-3.007l-1.014-.44Zm-5.756 4.353c-.429 1.05-.155 2.025.396 2.78.539.739 1.359 1.299 2.138 1.617l.418-1.022c-.634-.259-1.27-.707-1.664-1.246-.381-.523-.517-1.097-.266-1.71l-1.022-.419Zm2.534 4.397c1.217.498 2.411.936 3.621 1.333l.344-1.05a52.286 52.286 0 0 1-3.547-1.305l-.418 1.022Zm3.602 1.326c1.182.435 2.396.883 3.549 1.354l.418-1.022c-1.175-.48-2.406-.934-3.586-1.368l-.381 1.036Zm3.549 1.354c1.153.471 2.249.967 3.524 1.537l.45-1.008c-1.267-.567-2.382-1.072-3.556-1.551l-.418 1.022Zm3.508 1.529c1.268.617 2.759 1.274 4.553 2.008l.418-1.022a76.966 76.966 0 0 1-4.488-1.979l-.483.993Zm4.553 2.008c5.385 2.2 10.057 1.93 13.803.066 3.731-1.858 6.477-5.264 8.095-9.224l-1.023-.418c-1.541 3.771-4.126 6.941-7.565 8.653-3.424 1.705-7.761 1.997-12.892-.099l-.418 1.022Zm21.898-9.158c1.56-3.818 2.146-8.007.811-11.873-1.341-3.883-4.584-7.339-10.471-9.745l-.418 1.023c5.667 2.315 8.631 5.568 9.845 9.083 1.22 3.532.707 7.431-.79 11.094l1.023.418Zm-9.66-21.618-13.55-5.537-.418 1.022 13.55 5.538.418-1.023Zm-13.55-5.537c-.746-.305-1.821-.66-2.839-.67-.514-.004-1.047.078-1.523.328-.487.257-.88.672-1.124 1.268l1.023.417c.147-.36.363-.575.615-.707.264-.14.601-.205.998-.2.806.007 1.724.297 2.432.586l.418-1.022Zm-5.486.926c-.322.789-.304 1.417-.028 1.96.127.251.296.458.457.633.08.088.164.173.241.252.08.081.154.156.226.233.284.303.488.588.558.996.072.42.015 1.053-.42 2.06l1.014.438c.482-1.117.616-1.976.495-2.684-.124-.72-.499-1.2-.84-1.564-.084-.09-.169-.176-.246-.254-.078-.08-.149-.152-.215-.223a1.77 1.77 0 0 1-.285-.386c-.1-.198-.164-.482.066-1.044l-1.023-.417Zm1.035 6.132-6.226 14.287 1.012.44 6.227-14.286-1.013-.44Zm11.112 4.215c.161-.394.296-.7.432-.938.136-.236.252-.364.356-.434.159-.108.461-.188 1.296.153l.418-1.022c-.911-.373-1.689-.482-2.333-.046-.299.203-.517.49-.694.798a9.182 9.182 0 0 0-.498 1.071l1.023.418Zm2.084-1.22c1.516.62 2.906 1.61 3.499 3.53.605 1.956.422 5-1.546 9.817l1.022.418c2.006-4.909 2.296-8.244 1.58-10.562-.728-2.355-2.453-3.536-4.137-4.224l-.418 1.022Zm1.953 13.347c-.841 2.058-2.005 4.25-3.555 5.664-.768.701-1.616 1.197-2.554 1.403-.933.205-1.995.132-3.212-.365l-.418 1.022c1.401.573 2.691.679 3.867.421 1.17-.257 2.187-.867 3.061-1.665 1.737-1.584 2.975-3.964 3.833-6.062l-1.022-.418Zm-9.321 6.702c-1.086-.444-1.422-.834-1.519-1.201-.053-.202-.052-.46.026-.818.078-.36.228-.785.441-1.307l-1.022-.418c-.22.538-.399 1.034-.498 1.489-.1.456-.128.904-.015 1.335.236.896 1.01 1.468 2.169 1.942l.418-1.022Zm-1.052-3.326 6.336-15.503-1.023-.418-6.335 15.503 1.022.418Z"/><path fill="#fff" d="M192.666 94.5c-8.628-3.075-18.804.068-22.044 9.161-1.944 5.456-1.123 17.332 10.551 21.491 9.22 3.285 18.629-.513 21.823-9.479 3.21-9.009-1.405-17.994-10.33-21.174Zm-9.652 8.762c.814-2.284 2.712-4.133 5.292-3.214 4.568 1.627 3.504 12.64 2.223 16.235-.738 2.073-2.797 4.104-5.165 3.26-4.949-1.763-3.721-12.432-2.35-16.281Z"/><path fill="#AF71FE" d="M192.852 93.98c-8.836-3.149-19.382.041-22.75 9.496l1.04.371c3.112-8.733 12.918-11.828 21.339-8.828l.371-1.04Zm-22.75 9.496c-1.014 2.845-1.296 7.306.166 11.595 1.471 4.314 4.709 8.459 10.72 10.601l.37-1.04c-5.662-2.018-8.672-5.89-10.044-9.917-1.382-4.053-1.102-8.257-.172-10.868l-1.04-.371Zm10.886 22.196c9.466 3.373 19.217-.52 22.529-9.814l-1.041-.371c-3.078 8.64-12.143 12.342-21.118 9.145l-.37 1.04Zm22.529-9.814c3.318-9.313-1.471-18.603-10.665-21.879l-.371 1.04c8.654 3.084 13.097 11.763 9.995 20.468l1.041.371Zm-19.983-12.41c.381-1.069 1.002-1.993 1.782-2.543.757-.533 1.69-.734 2.805-.337l.37-1.04c-1.464-.522-2.771-.258-3.811.474-1.018.717-1.753 1.86-2.186 3.075l1.04.371Zm4.587-2.88c.934.333 1.635 1.162 2.126 2.401.491 1.238.741 2.811.812 4.482.143 3.349-.438 6.928-1.05 8.647l1.04.371c.669-1.877 1.261-5.601 1.114-9.065-.074-1.734-.335-3.444-.889-4.842-.554-1.396-1.432-2.553-2.783-3.034l-.37 1.04Zm1.888 15.53c-.338.948-.977 1.877-1.777 2.463-.788.577-1.706.81-2.683.462l-.37 1.04c1.391.496 2.687.135 3.705-.611 1.005-.736 1.765-1.859 2.165-2.983l-1.04-.371Zm-4.46 2.925c-1.047-.373-1.804-1.226-2.325-2.444-.523-1.223-.785-2.768-.853-4.417-.138-3.301.502-6.86 1.163-8.714l-1.04-.371c-.711 1.994-1.37 5.695-1.227 9.131.072 1.72.346 3.412.941 4.806.598 1.398 1.543 2.541 2.971 3.049l.37-1.04Z"/><path fill="#fff" d="M225.013 102.969c-.291 2.724-1.69 4.832-4.637 4.517-2.411-.257-1.899-1.241-1.799-2.179l.715-6.697c.096-.893.108-1.433 1.849-1.247 2.992.32 4.172 2.794 3.872 5.606Zm-17.93 12.715c-.391 3.661-3.488 1.795-3.75 4.251-.31 2.902 6.293 3.652 8.168 3.853 2.009.214 8.452.767 8.762-2.135.277-2.59-3.23-.616-2.768-6.211l.276-2.59c.053-.491.255-.695.791-.638 1.205.129 2.521.495 3.86.638 6.206.663 12.213-2.308 12.923-8.96.715-6.697-4.756-10.848-10.828-11.497-1.875-.2-5.871.005-12.345-.686-1.116-.12-2.178-.323-3.294-.442-1.384-.148-3.391.044-3.582 1.83-.3 2.812 4.009 1.782 3.651 5.131l-1.864 17.456Z"/><path fill="#AF71FE" d="m217.495 115.442-.55-.059-.001.013.551.046Zm6.969-12.531c-.138 1.295-.535 2.374-1.182 3.084-.624.686-1.531 1.083-2.847.942l-.117 1.098c1.631.174 2.897-.326 3.781-1.296.862-.946 1.311-2.284 1.463-3.711l-1.098-.117Zm-4.029 4.026c-1.186-.127-1.355-.411-1.389-.493-.028-.071-.041-.18-.02-.378.01-.097.027-.199.046-.319.018-.115.04-.247.054-.381l-1.098-.117c-.011.1-.027.203-.046.323-.019.114-.04.245-.054.376-.028.258-.037.587.096.912.288.708 1.069 1.044 2.294 1.175l.117-1.098Zm-1.309-1.571.715-6.697-1.098-.117-.715 6.697 1.098.117Zm.715-6.697c.026-.242.041-.398.072-.527.029-.118.058-.15.069-.162.011-.01.06-.053.234-.08.18-.029.453-.032.867.012l.117-1.098c-.457-.049-.838-.055-1.153-.006-.322.05-.608.162-.83.376a1.39 1.39 0 0 0-.377.7c-.053.216-.075.463-.097.668l1.098.117Zm1.242-.757c1.337.143 2.224.754 2.76 1.612.549.877.762 2.065.621 3.387l1.098.117c.159-1.491-.067-2.946-.782-4.09-.727-1.162-1.926-1.948-3.58-2.124l-.117 1.098Zm-14.549 17.714c-.089.832-.323 1.279-.571 1.547-.254.275-.578.425-.985.567-.364.127-.902.272-1.315.554-.477.325-.798.82-.879 1.582l1.098.118c.05-.465.214-.659.404-.788.253-.173.564-.252 1.055-.423.449-.156.989-.379 1.434-.861.451-.488.751-1.181.857-2.179l-1.098-.117Zm-3.75 4.25c-.105.977.392 1.736 1.087 2.289.683.544 1.614.941 2.562 1.237 1.904.593 4.073.835 5.009.935l.117-1.099c-.939-.1-3.009-.333-4.797-.891-.899-.28-1.678-.627-2.203-1.046-.515-.41-.728-.833-.677-1.307l-1.098-.118Zm8.658 4.461c1.008.107 3.171.305 5.134.101.978-.102 1.955-.307 2.724-.707.784-.407 1.409-1.052 1.512-2.02l-1.098-.117c-.052.483-.348.858-.923 1.157-.589.306-1.406.493-2.329.589-1.839.191-3.902.005-4.903-.102l-.117 1.099Zm9.37-2.626c.041-.38.016-.716-.084-1.014a1.725 1.725 0 0 0-.467-.722 3.307 3.307 0 0 0-.592-.425c-.203-.12-.372-.213-.551-.333a2.108 2.108 0 0 1-.835-1.015c-.215-.533-.35-1.364-.238-2.715l-1.101-.091c-.119 1.447.012 2.468.315 3.219a3.203 3.203 0 0 0 1.241 1.517c.214.144.44.27.605.368.179.106.304.19.398.278a.638.638 0 0 1 .178.269c.037.111.062.28.033.547l1.098.117Zm-2.768-6.211.276-2.589-1.098-.117-.276 2.589 1.098.117Zm.276-2.589a.686.686 0 0 1 .035-.17c.008-.021.008-.009-.013.008-.021.018-.034.017-.015.014a.62.62 0 0 1 .176 0l.117-1.098c-.325-.035-.697-.009-.992.242-.289.245-.375.597-.406.887l1.098.117Zm.183-.148c.575.062 1.18.18 1.834.307.644.125 1.33.257 2.027.331l.117-1.098c-.643-.068-1.284-.191-1.934-.317-.641-.124-1.296-.253-1.927-.321l-.117 1.098Zm3.861.638c3.201.342 6.384-.249 8.875-1.818 2.505-1.579 4.282-4.134 4.655-7.632l-1.098-.118c-.337 3.154-1.919 5.411-4.146 6.815-2.242 1.413-5.165 1.976-8.169 1.655l-.117 1.098Zm13.53-9.45c.377-3.528-.882-6.406-3.035-8.474-2.141-2.055-5.149-3.296-8.284-3.631l-.117 1.098c2.937.314 5.702 1.473 7.636 3.33 1.921 1.844 3.041 4.391 2.702 7.559l1.098.118Zm-11.319-12.105c-.965-.103-2.48-.103-4.49-.162a99.827 99.827 0 0 1-7.854-.524l-.117 1.098c3.255.348 5.887.47 7.939.53 2.075.061 3.496.059 4.405.156l.117-1.098Zm-12.344-.686a40.07 40.07 0 0 1-1.625-.218c-.543-.08-1.098-.163-1.669-.224l-.117 1.098c.545.058 1.078.137 1.624.218.543.08 1.099.163 1.67.224l.117-1.098Zm-3.294-.442c-.729-.078-1.673-.075-2.485.22-.846.305-1.582.947-1.705 2.1l1.098.117c.068-.633.431-.98.982-1.18.586-.21 1.337-.23 1.993-.16l.117-1.097Zm-4.19 2.32c-.093.87.179 1.5.655 1.97.431.424 1.025.706 1.488.944.505.26.903.49 1.172.81.242.29.412.7.336 1.407l1.099.118c.103-.968-.131-1.685-.587-2.232-.43-.515-1.023-.832-1.514-1.084-.532-.275-.937-.472-1.218-.75-.236-.233-.39-.53-.333-1.066l-1.098-.117Zm3.651 5.131-1.864 17.457 1.098.117 1.865-17.456-1.099-.118Z"/><path fill="#fff" d="M243.159 105.584c-1.628-.859-4.754-3.016-6.032-.593-1.487 2.82 3.186 1.274.258 7.497-3.394 7.398-3.057 6.662-7.346 13.638-2.499 4.063-4.278.891-5.43 3.075-.272.517-.861 1.729 1.76 3.112l16.322 8.61c1.35.712 2.399 1.418 3.231 1.958.771.559 1.344 1.014 1.622 1.16 1.588.838 6.289-2.875 7.713-5.576.587-1.112.705-2.877-.565-3.547-3.257-1.718-3.907 5.097-12.048.802-4.17-2.2-4.714-2.131-1.655-7.929.67-1.271 1.426-2.801 3.094-1.921 4.011 2.116-.651 4.987 1.812 6.285 2.382 1.257 5.174-3.361 6.033-4.99.817-1.548 3.026-6.12.722-7.335-2.819-1.487-2.881 4.115-5.899 2.523-2.423-1.278-2.5-1.42-1.285-3.724 2.409-4.567 2.392-5.591 6.8-3.266 7.545 3.98 2.992 6.452 6.13 8.107 1.548.817 2.882-.459 3.573-1.77.922-1.747 2.022-6.142-.242-7.336-.635-.335-1.809.061-7.13-2.746l-11.438-6.034Z"/><path fill="#AF71FE" d="m237.385 112.488-.499-.235-.002.005.501.23Zm-7.346 13.638.47.289-.47-.289Zm15.883 16.755.324-.447-.011-.008-.012-.008-.301.463Zm-2.505-37.785c-.752-.397-2.033-1.203-3.246-1.568-.618-.185-1.291-.282-1.926-.123-.662.167-1.22.596-1.606 1.328l.976.516c.253-.479.565-.689.899-.773.361-.09.812-.048 1.339.11 1.076.323 2.173 1.025 3.049 1.487l.515-.977Zm-6.778-.363c-.207.392-.33.75-.358 1.088-.03.351.044.65.182.913.129.247.31.447.465.609.169.177.306.307.443.473.243.293.445.651.448 1.274.002.657-.217 1.641-.933 3.163l.999.47c.748-1.589 1.042-2.746 1.038-3.637-.004-.926-.328-1.524-.702-1.975-.171-.206-.365-.395-.495-.531a1.695 1.695 0 0 1-.286-.36.523.523 0 0 1-.059-.306c.012-.142.069-.353.234-.665l-.976-.516Zm.245 7.525c-3.384 7.373-3.035 6.617-7.316 13.579l.941.578c4.298-6.99 3.972-6.274 7.378-13.697l-1.003-.46Zm-7.316 13.579c-.594.967-1.114 1.45-1.545 1.698-.42.241-.803.286-1.197.281-.223-.003-.387-.019-.63-.028a3.085 3.085 0 0 0-.712.041c-.554.111-1.01.444-1.363 1.115l.976.515c.223-.422.422-.511.603-.547.119-.023.261-.028.454-.02.164.006.431.025.658.028.507.007 1.109-.053 1.761-.428.642-.368 1.281-1.012 1.936-2.077l-.941-.578Zm-5.447 3.107c-.142.269-.456.871-.25 1.632.205.757.873 1.503 2.24 2.225l.516-.977c-1.254-.661-1.602-1.212-1.69-1.536-.087-.32.03-.582.16-.829l-.976-.515Zm1.99 3.857 16.322 8.61.516-.977-16.322-8.61-.516.977Zm16.322 8.61c1.324.698 2.35 1.389 3.188 1.933l.602-.926c-.825-.536-1.897-1.257-3.274-1.984l-.516.977Zm3.165 1.917c.385.279.71.525.993.733.264.194.512.372.695.469l.515-.977a5.848 5.848 0 0 1-.556-.382c-.266-.196-.613-.457-.999-.737l-.648.894Zm1.688 1.202c.628.331 1.429.168 2.136-.114.748-.296 1.572-.796 2.371-1.394 1.588-1.189 3.188-2.851 3.952-4.299l-.976-.516c-.661 1.252-2.123 2.798-3.638 3.931-.753.564-1.491 1.004-2.116 1.252-.665.264-1.048.25-1.214.163l-.515.977Zm8.459-5.807c.336-.637.542-1.461.476-2.243-.067-.794-.424-1.603-1.272-2.05l-.515.976c.423.224.642.632.687 1.166.046.546-.102 1.16-.352 1.635l.976.516Zm-.796-4.293c-.481-.254-.943-.364-1.398-.346-.45.017-.854.159-1.222.347-.363.185-.715.429-1.052.667-.347.244-.686.489-1.062.714-.736.441-1.586.793-2.716.801-1.14.007-2.616-.336-4.598-1.381l-.515.976c2.089 1.102 3.746 1.518 5.12 1.509 1.384-.009 2.427-.448 3.277-.958.419-.251.797-.523 1.13-.759.343-.241.635-.441.918-.586.278-.142.523-.217.764-.227.235-.009.506.044.839.219l.515-.976Zm-12.048.802c-1.065-.562-1.84-.95-2.399-1.323-.551-.368-.781-.652-.865-.953-.089-.318-.052-.783.251-1.597.3-.805.823-1.858 1.589-3.311l-.977-.515c-.763 1.447-1.319 2.559-1.647 3.441-.325.872-.465 1.615-.279 2.279.19.682.687 1.156 1.315 1.575.621.414 1.477.842 2.497 1.38l.515-.976Zm-1.424-7.184c.353-.67.663-1.263 1.053-1.613.18-.161.352-.245.529-.267.178-.022.424.009.767.19l.515-.977c-.491-.259-.965-.366-1.419-.309-.455.057-.827.27-1.129.54-.572.513-.976 1.32-1.293 1.921l.977.515Zm2.349-1.69c.918.484 1.243.958 1.355 1.354.119.422.035.886-.139 1.443a14.06 14.06 0 0 1-.135.412c-.046.139-.094.282-.138.425a3.887 3.887 0 0 0-.183.899c-.019.317.026.656.207.978.18.322.467.576.844.775l.515-.977c-.238-.126-.344-.245-.396-.338a.658.658 0 0 1-.068-.374c.01-.175.058-.383.137-.639.039-.127.082-.257.129-.398.047-.138.096-.285.143-.435.183-.587.359-1.319.147-2.071-.22-.778-.816-1.457-1.903-2.031l-.515.977Zm1.811 6.286c.786.415 1.594.326 2.316-.008.706-.325 1.363-.896 1.936-1.52 1.151-1.253 2.09-2.863 2.528-3.693l-.977-.515c-.421.798-1.308 2.311-2.364 3.461-.53.577-1.071 1.027-1.586 1.265-.498.23-.933.247-1.338.033l-.515.977Zm6.78-5.221c.412-.781 1.195-2.361 1.579-3.918.191-.777.295-1.594.173-2.325-.126-.751-.498-1.436-1.261-1.838l-.515.977c.389.205.604.547.686 1.043.087.517.02 1.166-.156 1.879-.349 1.419-1.078 2.899-1.483 3.667l.977.515Zm.491-8.081c-.416-.22-.819-.328-1.212-.317a1.983 1.983 0 0 0-1.033.332c-.553.359-.983.969-1.333 1.447-.388.529-.702.931-1.06 1.141a.966.966 0 0 1-.511.143c-.188-.001-.432-.056-.751-.224l-.515.977c.437.23.854.349 1.258.352a2.08 2.08 0 0 0 1.078-.295c.59-.347 1.034-.954 1.391-1.441.395-.537.698-.949 1.044-1.173a.868.868 0 0 1 .462-.155c.162-.005.378.037.667.19l.515-.977Zm-5.9 2.522c-.613-.323-1.039-.555-1.335-.761-.298-.208-.381-.334-.408-.411-.024-.068-.039-.197.069-.506.11-.312.313-.716.621-1.299l-.977-.515c-.3.569-.544 1.045-.685 1.448-.143.405-.216.824-.069 1.239.143.407.458.699.818.95.362.252.853.517 1.451.832l.515-.977Zm-1.053-2.977c.614-1.165 1.049-2.055 1.448-2.745.402-.695.707-1.073 1.009-1.264.26-.165.581-.227 1.14-.091.583.142 1.356.484 2.456 1.064l.515-.976c-1.104-.583-1.982-.984-2.71-1.161-.753-.184-1.405-.141-1.992.231-.546.345-.964.934-1.374 1.644-.413.713-.879 1.664-1.469 2.783l.977.515Zm6.053-3.036c1.85.976 2.913 1.837 3.534 2.579.609.729.81 1.364.895 1.94.045.302.059.585.079.893.019.295.044.619.124.936.082.328.223.653.473.96.248.304.583.567 1.025.799l.515-.976c-.343-.181-.551-.357-.684-.521a1.303 1.303 0 0 1-.258-.531 4.114 4.114 0 0 1-.093-.738c-.018-.284-.035-.625-.088-.985-.111-.746-.383-1.579-1.141-2.485-.746-.892-1.943-1.833-3.866-2.847l-.515.976Zm6.13 8.107c.974.514 1.904.362 2.657-.106.725-.45 1.29-1.187 1.662-1.894l-.976-.515c-.319.603-.767 1.159-1.268 1.471-.474.294-.985.371-1.56.068l-.515.976Zm4.319-2c.495-.938 1.023-2.547 1.136-4.093.11-1.499-.159-3.225-1.608-3.989l-.516.976c.814.43 1.128 1.499 1.023 2.932-.102 1.387-.584 2.849-1.011 3.659l.976.515Zm-.472-8.082c-.247-.131-.53-.181-.788-.23-.28-.054-.633-.119-1.127-.259-.991-.281-2.578-.866-5.216-2.258l-.515.977c2.684 1.416 4.345 2.036 5.43 2.343.543.154.936.227 1.221.282.307.058.409.084.479.121l.516-.976Zm-7.131-2.747-11.437-6.033-.515.977 11.437 6.033.515-.977Z"/><path fill="#fff" d="M271.947 139.664c.456-2.701-1.384-5.288-4.085-5.744-2.701-.455-5.288 1.385-5.744 4.085-.456 2.701 1.385 5.288 4.085 5.744 2.701.456 5.288-1.384 5.744-4.085Zm3.873-20.52c.553-3.276-.407-7.035-4.17-7.67-3.763-.636-5.903 2.601-6.456 5.877-.463 2.745-.005 6.237.823 8.881.257.909 1.321 4.048 2.428 4.235 1.107.187 3.142-2.43 3.682-3.203 1.651-2.226 3.229-5.375 3.693-8.12Z"/><path fill="#AF71FE" d="m266.017 126.232.532-.15-.002-.007-.003-.008-.527.165Zm6.11 1.032-.443-.329-.005.006-.005.006.453.317Zm.364 12.492c.507-3.001-1.536-5.874-4.537-6.38l-.184 1.089c2.4.405 4.037 2.707 3.632 5.107l1.089.184Zm-4.537-6.38c-3.002-.507-5.874 1.536-6.38 4.537l1.089.184c.405-2.4 2.707-4.037 5.107-3.632l.184-1.089Zm-6.38 4.537c-.507 3.002 1.536 5.874 4.537 6.381l.184-1.089c-2.4-.405-4.037-2.708-3.632-5.108l-1.089-.184Zm4.537 6.381c3.002.506 5.874-1.537 6.38-4.538l-1.089-.184c-.405 2.4-2.707 4.038-5.107 3.633l-.184 1.089Zm10.253-25.058c.289-1.712.191-3.588-.507-5.144-.709-1.58-2.034-2.812-4.115-3.163l-.184 1.089c1.683.284 2.719 1.25 3.292 2.526.584 1.303.689 2.944.425 4.508l1.089.184Zm-4.622-8.307c-2.081-.351-3.737.377-4.926 1.638-1.169 1.24-1.877 2.98-2.166 4.692l1.089.184c.263-1.564.902-3.08 1.881-4.119.96-1.018 2.255-1.59 3.938-1.306l.184-1.089Zm-7.092 6.33c-.482 2.855-.006 6.438.841 9.139l1.053-.331c-.811-2.588-1.25-5.989-.805-8.624l-1.089-.184Zm.836 9.123c.134.474.474 1.517.927 2.475.226.477.491.956.785 1.335.276.357.661.736 1.155.819l.184-1.089c-.06-.01-.223-.093-.466-.406-.224-.29-.449-.687-.66-1.132a16.506 16.506 0 0 1-.862-2.302l-1.063.3Zm2.867 4.629c.493.084.982-.148 1.359-.394.403-.262.81-.628 1.18-1.004a17.578 17.578 0 0 0 1.688-2.033l-.906-.633a16.374 16.374 0 0 1-1.57 1.892c-.344.35-.687.652-.994.852-.332.217-.513.242-.573.231l-.184 1.089Zm4.218-3.419c1.685-2.273 3.311-5.501 3.793-8.356l-1.089-.184c-.444 2.635-1.976 5.704-3.591 7.883l.887.657ZM353.7 147.764c.541-1.315 2.403-1.315 2.945 0l14.39 34.949c4.65 11.291-3.652 23.687-15.863 23.687"/><path fill="#333" fill-rule="evenodd" d="M355.72 148.145a.593.593 0 0 0-1.096 0l-14.39 34.949c-4.379 10.633 3.439 22.306 14.938 22.306s19.317-11.673 14.939-22.306l-14.391-34.949Zm-2.945-.762c.881-2.14 3.913-2.14 4.794 0l14.391 34.949c4.92 11.949-3.865 25.068-16.788 25.068s-21.708-13.119-16.788-25.068l14.391-34.949Z" clip-rule="evenodd"/><path fill="#fff" d="M355.99 176.903a.877.877 0 0 1-.384-.078.735.735 0 0 1-.27-.231c-.07-.1-.122-.223-.157-.368a2.337 2.337 0 0 1-.049-.499c0-.184.017-.349.049-.495.035-.147.087-.271.157-.371a.692.692 0 0 1 .27-.228.85.85 0 0 1 .384-.081c.295 0 .512.103.651.309.139.206.209.495.209.866 0 .372-.07.66-.209.867-.139.206-.356.309-.651.309Zm0-.349a.4.4 0 0 0 .192-.042.33.33 0 0 0 .124-.127.549.549 0 0 0 .068-.199 1.37 1.37 0 0 0 .023-.267v-.387c0-.195-.03-.35-.091-.462-.059-.113-.164-.17-.316-.17s-.258.057-.319.17c-.059.112-.088.267-.088.462v.391c0 .195.029.349.088.462.061.113.167.169.319.169ZM359.194 177.345l.777-2.135.811.295c.208.076.345.193.413.351.067.158.063.34-.011.544-.074.204-.188.345-.341.423-.154.078-.334.079-.542.004l-.41-.15-.297.814-.4-.146Zm.816-.995.327.119c.108.04.194.046.256.021.063-.028.113-.09.147-.186l.043-.116c.035-.096.036-.174.005-.234-.031-.062-.1-.112-.208-.152l-.327-.119-.243.667ZM362.857 179.213l1.461-1.741.661.555c.169.142.258.299.267.471.009.172-.056.341-.196.507-.139.166-.294.26-.465.281-.171.021-.341-.04-.511-.182l-.334-.28-.557.663-.326-.274Zm1.107-.656.267.224c.088.074.166.109.234.106.068-.004.136-.045.201-.124l.08-.094c.065-.078.094-.151.085-.218-.008-.069-.056-.14-.144-.214l-.267-.224-.456.544ZM365.984 182.861a.89.89 0 0 1-.124-.372.731.731 0 0 1 .065-.35c.052-.11.132-.216.241-.319.109-.101.245-.198.407-.291.159-.093.31-.161.453-.206.145-.043.278-.06.399-.05a.702.702 0 0 1 .333.12.843.843 0 0 1 .262.292c.148.256.167.496.058.719-.109.223-.324.428-.646.614-.321.185-.606.269-.854.252-.248-.017-.446-.154-.594-.409Zm.302-.174a.4.4 0 0 0 .133.145c.052.03.109.044.172.043a.54.54 0 0 0 .206-.04c.077-.027.158-.065.243-.113l.335-.194c.169-.098.288-.201.355-.31.068-.107.065-.227-.011-.358-.076-.132-.178-.196-.307-.192a1.011 1.011 0 0 0-.444.155l-.338.195c-.17.098-.288.2-.357.308-.067.109-.063.229.013.361ZM367.33 186.595a1.141 1.141 0 0 1 .012-.511.958.958 0 0 1 .205-.377l.307.207a.879.879 0 0 0-.167.307.777.777 0 0 0-.012.326c.023.129.069.222.139.28.07.058.159.078.268.059.09-.016.153-.054.188-.113a.512.512 0 0 0 .054-.277l-.003-.244c0-.214.048-.375.146-.482a.668.668 0 0 1 .384-.204c.214-.037.39.003.528.122.14.119.231.301.275.547.03.175.029.331-.004.467a.804.804 0 0 1-.173.348l-.307-.201a.667.667 0 0 0 .141-.55c-.043-.244-.165-.348-.366-.313-.085.015-.146.052-.182.112a.557.557 0 0 0-.053.28v.242c-.002.201-.049.357-.139.47a.61.61 0 0 1-.385.214.768.768 0 0 1-.299-.004.627.627 0 0 1-.252-.121.738.738 0 0 1-.191-.237 1.16 1.16 0 0 1-.114-.347ZM367.481 190.106l.314.055-.088.504 1.609.284.089-.504.314.055-.251 1.424-.314-.055.089-.504-1.61-.283-.089.503-.314-.055.251-1.424ZM367.562 195.081l.016-.028-1.413-.816.182-.316 1.969 1.137-.262.454-1.711-.3-.016.028 1.412.816-.182.316-1.968-1.137.262-.454 1.711.3ZM363.154 198.283l.02-.017a.81.81 0 0 1-.031-.148.505.505 0 0 1 .006-.155.535.535 0 0 1 .188-.298.579.579 0 0 1 .597-.105c.221.081.449.262.685.543.248.296.385.567.409.813.025.245-.073.461-.294.647a.885.885 0 0 1-.257.155.645.645 0 0 1-.494-.006 1.078 1.078 0 0 1-.229-.122l.228-.336c.042.027.085.052.13.074a.358.358 0 0 0 .13.044.32.32 0 0 0 .27-.078c.108-.091.149-.199.123-.325a.982.982 0 0 0-.227-.413l-.234-.279a1.668 1.668 0 0 0-.189-.194.68.68 0 0 0-.189-.114.362.362 0 0 0-.185-.023.373.373 0 0 0-.179.091c-.093.078-.141.164-.143.26a.412.412 0 0 0 .108.275l.119.142.317-.266.199.237-.609.511-.764-.91.292-.245.203.242ZM355.461 202.402v-1.921h.423v1.921h.684v.352h-1.791v-.352h.684ZM351.039 200.581l.624.227.334-.918.401.146-.777 2.135-.401-.145.323-.888-.625-.227-.322.887-.401-.146.777-2.135.401.146-.334.918ZM348.078 197.629a.871.871 0 0 1 .244.307.725.725 0 0 1 .059.351c-.011.121-.05.248-.117.382-.068.133-.163.27-.283.413a2.219 2.219 0 0 1-.355.348 1.076 1.076 0 0 1-.359.184.704.704 0 0 1-.353.001.848.848 0 0 1-.347-.185c-.226-.19-.326-.408-.3-.655.026-.248.159-.513.397-.798.239-.284.478-.461.717-.529.239-.069.471-.009.697.181Zm-.224.267a.397.397 0 0 0-.174-.091.333.333 0 0 0-.176.018.556.556 0 0 0-.18.108 1.419 1.419 0 0 0-.19.19l-.249.297a.981.981 0 0 0-.227.413c-.028.124.017.235.133.332.117.098.234.123.353.076.118-.049.239-.148.365-.298l.251-.299c.126-.15.202-.287.23-.411.026-.126-.019-.237-.136-.335ZM343.696 196.015l1.226-.708c.074-.042.139-.082.195-.119a.582.582 0 0 0 .128-.123.27.27 0 0 0 .041-.144.407.407 0 0 0-.064-.189.4.4 0 0 0-.13-.147.238.238 0 0 0-.145-.036.447.447 0 0 0-.171.049 2.245 2.245 0 0 0-.202.106l-1.227.708-.213-.369 1.17-.676c.139-.08.266-.142.379-.185a.72.72 0 0 1 .316-.051c.098.009.19.047.277.115.084.067.166.171.248.312.081.141.13.265.148.373a.526.526 0 0 1-.041.294.714.714 0 0 1-.203.249c-.093.076-.21.155-.349.235l-1.17.676-.213-.37ZM343.689 190.288l.005.026a.895.895 0 0 1 .144.047.471.471 0 0 1 .232.214c.029.05.049.11.062.181a.572.572 0 0 1-.207.568c-.181.151-.452.259-.813.322-.381.067-.683.05-.909-.051-.225-.102-.362-.294-.412-.579a.869.869 0 0 1-.007-.299.66.66 0 0 1 .253-.425c.065-.054.139-.1.22-.138l.177.365a1.62 1.62 0 0 0-.129.076.35.35 0 0 0-.103.091.333.333 0 0 0-.068.273c.025.139.098.229.22.269.121.04.278.043.471.009l.359-.063c.096-.017.184-.039.263-.066a.708.708 0 0 0 .193-.107.366.366 0 0 0 .112-.149.375.375 0 0 0 .011-.2c-.021-.12-.072-.204-.154-.254a.414.414 0 0 0-.292-.044l-.183.032.072.407-.304.054-.138-.783 1.17-.206.066.375-.311.055ZM343.182 186.116l-.116.654.962.17-.074.42-2.238-.395.074-.42.93.164.115-.654-.93-.164.074-.42 2.239.394-.074.421-.962-.17ZM343.933 181.61l1.664.961-.212.367-1.664-.961-.342.592-.304-.176.895-1.551.305.176-.342.592ZM348.135 179.656a1.145 1.145 0 0 1-.449.245.956.956 0 0 1-.428.011l.025-.37c.128.02.244.017.35-.009a.744.744 0 0 0 .288-.153c.1-.083.158-.17.173-.26.016-.089-.012-.176-.083-.261-.059-.07-.123-.106-.192-.107a.52.52 0 0 0-.267.092l-.209.125c-.185.107-.349.145-.491.114a.657.657 0 0 1-.368-.231c-.14-.166-.192-.338-.158-.517.032-.181.144-.351.336-.512.136-.114.271-.191.406-.23a.81.81 0 0 1 .388-.024l-.021.366a.661.661 0 0 0-.547.153c-.19.159-.219.317-.088.473.056.067.119.101.188.102a.55.55 0 0 0 .269-.094l.21-.121c.175-.098.334-.137.477-.115a.608.608 0 0 1 .377.227.752.752 0 0 1 .146.26.645.645 0 0 1-.088.563 1.149 1.149 0 0 1-.244.273ZM360.206 200.395a.4.4 0 1 1-.801-.001.4.4 0 0 1 .801.001ZM351.775 176.881a.4.4 0 1 1-.8 0 .4.4 0 0 1 .8 0Z"/>
</svg>