<svg width="225" height="207" viewBox="0 0 225 207" fill="none" xmlns="http://www.w3.org/2000/svg">
<path fill-rule="evenodd" clip-rule="evenodd" d="M217.976 72.3567C231.872 82.5823 222.757 102.883 208 102.393V188.18C208 198.121 199.941 206.18 190 206.18H18C8.05886 206.18 0 198.121 0 188.18V18.1796C0 8.23846 8.05885 0.179565 18 0.179565H190C199.941 0.179565 208 8.23844 208 18.1796V34.8002C213.232 38.9552 216.102 46.0548 212.836 53.973L209.533 61.9819C208.76 63.8577 209.364 66.0193 210.998 67.2219L217.976 72.3567Z" fill="#FFD600"/>
<path d="M16 46.1796H192V188.18C192 189.284 191.105 190.18 190 190.18H18C16.8954 190.18 16 189.284 16 188.18V46.1796Z" fill="#2678F4"/>
<path d="M16 18.1796C16 17.075 16.8954 16.1796 18 16.1796H190C191.105 16.1796 192 17.075 192 18.1796V46.1796H16V18.1796Z" fill="#12D778"/>
<rect x="20" y="25.1796" width="168" height="3" rx="1.5" fill="white"/>
<rect x="20" y="35.1796" width="168" height="3" rx="1.5" fill="white"/>
<path fill-rule="evenodd" clip-rule="evenodd" d="M15 45.1796H193V188.18C193 189.836 191.657 191.18 190 191.18H18C16.3431 191.18 15 189.836 15 188.18V45.1796ZM17 47.1796V188.18C17 188.732 17.4477 189.18 18 189.18H190C190.552 189.18 191 188.732 191 188.18V47.1796H17Z" fill="#333333"/>
<path fill-rule="evenodd" clip-rule="evenodd" d="M15 18.1796C15 16.5227 16.3431 15.1796 18 15.1796H190C191.657 15.1796 193 16.5227 193 18.1796V47.1796H15V18.1796ZM18 17.1796C17.4477 17.1796 17 17.6273 17 18.1796V45.1796H191V18.1796C191 17.6273 190.552 17.1796 190 17.1796H18Z" fill="#333333"/>
<path d="M30.5278 71.3057C30.4364 70.4776 30.836 69.8161 31.5217 69.3077C32.2177 68.7916 33.1613 68.4772 33.982 68.3866C34.4893 68.3306 36.0969 68.2246 38.176 68.0875C39.0029 68.033 39.9046 67.9735 40.8412 67.9103C44.1157 67.6895 47.7998 67.424 50.121 67.1677C50.6924 67.1046 53.7696 66.6231 56.7749 66.151L57.5443 66.0301C60.2881 65.599 62.7905 65.2057 63.133 65.1679C63.4988 65.1275 63.9537 65.2748 64.4741 65.665C64.9885 66.0508 65.5165 66.6381 66.0058 67.3677C66.9853 68.8284 67.7539 70.7759 67.953 72.5792C68.05 73.4572 67.9361 74.3346 67.588 74.9992C67.2515 75.6418 66.6924 76.1007 65.8149 76.1976C65.0161 76.2858 64.513 76.055 64.017 75.6434C63.7538 75.4249 63.4987 75.1599 63.1993 74.8479L63.1954 74.8439C62.9029 74.5391 62.5752 74.1976 62.1899 73.8608C61.406 73.1754 60.3895 72.5135 58.8708 72.1052C57.3606 71.6991 55.3778 71.5501 52.6651 71.8496C52.5566 71.8616 52.4487 71.8731 52.3418 71.8846C51.6383 71.9601 50.9728 72.0315 50.407 72.1891C49.7288 72.378 49.134 72.7047 48.7071 73.3466C48.2944 73.9671 48.0781 74.824 48.0097 75.9893C47.9413 77.1549 48.0185 78.684 48.24 80.6969C48.2408 82.0123 48.3033 83.4229 48.8331 84.4622C49.1098 85.0051 49.5195 85.4603 50.1136 85.7448C50.7007 86.026 51.4229 86.1188 52.2921 86.0229C53.4737 85.8924 54.2198 85.446 54.6746 84.773C55.1022 84.1403 55.2238 83.3667 55.321 82.7246L55.3275 82.6813C55.4292 82.0092 55.5097 81.4774 55.7507 81.0683C55.9637 80.7068 56.3344 80.3961 57.1789 80.3028C57.7852 80.2359 58.2902 80.463 58.7411 80.9287C59.2056 81.4085 59.5923 82.1254 59.9062 82.9654C60.5327 84.6413 60.8106 86.6417 60.9296 87.7195C61.0732 89.0198 61.2546 91.3087 60.9448 93.3092C60.7897 94.3107 60.5175 95.1966 60.0899 95.8449C59.6735 96.4761 59.1164 96.8767 58.3425 96.9621C57.9717 97.0031 57.7351 96.9472 57.5733 96.8611C57.4106 96.7746 57.273 96.6308 57.1476 96.4068C57.0191 96.1774 56.9162 95.887 56.8149 95.5353C56.7657 95.3642 56.7189 95.1861 56.6694 94.9982L56.6669 94.9883C56.617 94.7988 56.5647 94.6 56.5072 94.4008C56.2808 93.6159 55.9515 92.7288 55.2201 92.0984C54.4686 91.4508 53.3834 91.1467 51.8071 91.3207C51.2317 91.3843 50.8075 91.7186 50.5178 92.183C50.2381 92.6313 50.0698 93.2175 49.9696 93.8667C49.7685 95.1692 49.817 96.8999 49.9767 98.7557C50.1371 100.62 50.4135 102.65 50.6845 104.564C50.7218 104.828 50.7591 105.089 50.7959 105.348C51.0269 106.971 51.2412 108.476 51.3645 109.702C51.6418 112.459 52.1689 114.305 52.8374 115.582C53.5139 116.875 54.3248 117.566 55.118 118.024C55.4769 118.232 55.8305 118.39 56.1415 118.53L56.212 118.562C56.5498 118.713 56.825 118.842 57.0598 118.999C57.286 119.151 57.4649 119.323 57.6022 119.556C57.7413 119.792 57.8536 120.117 57.9061 120.592C57.9118 120.644 57.9177 120.693 57.9235 120.741C57.9586 121.036 57.9869 121.273 57.9124 121.54C57.8343 121.821 57.6173 122.195 56.9533 122.619C55.5823 123.494 52.5031 124.459 45.742 125.205C41.2873 125.697 38.7582 125.648 37.3234 125.224C36.6242 125.017 36.2255 124.732 35.9814 124.412C35.7333 124.087 35.6019 123.67 35.541 123.118C35.4643 122.424 35.5888 122.038 35.7652 121.781C35.9561 121.502 36.2527 121.301 36.6813 121.052C36.7344 121.021 36.7889 120.99 36.8445 120.958C37.6674 120.487 38.7377 119.874 39.1888 118.227L39.1911 118.219L39.193 118.21C39.2307 118.052 39.2451 117.821 39.2512 117.572C39.2577 117.308 39.2553 116.976 39.2456 116.589C39.2263 115.814 39.1774 114.798 39.1076 113.625C38.9678 111.278 38.7435 108.285 38.501 105.288C38.0163 99.2952 37.4577 93.2695 37.3555 92.3437L36.5024 84.617C36.307 82.34 35.9673 78.737 35.4393 76.5556L35.4379 76.5502C35.1223 75.3068 34.6489 74.4876 34.0766 73.9285C33.5058 73.3708 32.8754 73.1114 32.3328 72.9249C32.2136 72.884 32.1028 72.8474 31.9992 72.8133C31.5996 72.6814 31.3078 72.5852 31.0644 72.4118C30.816 72.2348 30.5995 71.9547 30.5278 71.3057Z" fill="white"/>
<path fill-rule="evenodd" clip-rule="evenodd" d="M74.6246 74.7778C74.6555 74.2642 74.8495 73.8934 75.1418 73.6096C75.4447 73.3156 75.8738 73.0961 76.3908 72.942C77.4307 72.6321 78.691 72.6256 79.5739 72.6787C80.1812 72.7152 80.7525 72.7883 81.3482 72.8645C81.6608 72.9045 81.9801 72.9454 82.3148 72.9822C83.2021 73.1283 84.16 73.2813 85.084 73.3368C86.5202 73.4231 92.8454 73.7064 94.3658 73.7033C95.075 73.7236 97.1486 73.8833 99.2398 74.0717C101.343 74.2612 103.409 74.475 104.092 74.5979C106.622 75.0533 109.131 75.6896 110.959 76.9347C111.865 77.5515 112.592 78.311 113.075 79.2651C113.557 80.2184 113.81 81.3945 113.721 82.8674C113.562 85.5187 112.177 87.9446 109.797 88.9595L109.784 88.9653L109.77 88.9719C109.748 88.9828 109.725 88.9944 109.7 89.0065C109.531 89.0889 109.3 89.2009 109.123 89.3639C108.878 89.5891 108.742 89.8868 108.719 90.2775C108.687 90.8024 108.901 91.1773 109.207 91.441C109.432 91.6349 109.723 91.7778 109.942 91.8856C109.98 91.9044 110.016 91.9221 110.05 91.9389L110.058 91.9434L110.068 91.9476C111.528 92.6126 112.52 93.4523 113.199 94.7021C113.889 95.9723 114.28 97.7097 114.442 100.216C114.516 101.363 114.777 102.137 115.183 102.673C115.593 103.215 116.106 103.451 116.529 103.609C116.625 103.645 116.707 103.674 116.781 103.7C116.886 103.737 116.978 103.769 117.079 103.81C117.232 103.874 117.335 103.933 117.41 103.999C117.523 104.099 117.667 104.303 117.63 104.926C117.59 105.593 117.158 106.333 116.081 106.891C114.996 107.452 113.28 107.808 110.793 107.659C107.311 107.45 105.525 106.312 104.445 104.569C103.333 102.775 102.924 100.285 102.413 97.1798L102.397 97.077L102.396 97.075C102.302 96.5168 102.162 95.8591 101.787 95.2045C101.408 94.5426 100.807 93.9155 99.839 93.3751C97.932 92.3104 94.5736 91.5688 88.5362 91.5151C88.2971 91.5009 88.016 91.4908 87.7543 91.5628C87.4516 91.6462 87.204 91.8286 87.021 92.1279C86.8534 92.402 86.7467 92.7629 86.6682 93.2066C86.5885 93.6573 86.5311 94.2369 86.4867 94.9771C86.4452 95.6676 86.4038 97.6793 86.3908 99.6722C86.378 101.651 86.3923 103.677 86.4695 104.373C86.5383 105.016 86.769 105.483 87.0825 105.85C87.3554 106.168 87.6868 106.402 87.9561 106.591L88.029 106.643C88.33 106.856 88.5446 107.023 88.6911 107.238C88.8243 107.435 88.924 107.709 88.8962 108.173C88.8743 108.538 88.7957 108.825 88.6274 109.063C88.46 109.3 88.1674 109.54 87.6236 109.741C86.5072 110.154 84.4793 110.351 80.842 110.133C79.7564 110.068 77.6757 109.941 75.8975 109.422C75.0067 109.162 74.2382 108.816 73.7125 108.367C73.204 107.932 72.9336 107.414 72.9735 106.75C72.9881 106.507 73.0399 106.345 73.1033 106.228C73.1667 106.111 73.2558 106.012 73.3823 105.914C73.5148 105.81 73.6749 105.717 73.8822 105.601L73.9437 105.567C74.1292 105.464 74.3442 105.344 74.5606 105.199C75.0582 104.867 75.5711 104.397 75.9772 103.593C76.3777 102.8 76.6602 101.71 76.7537 100.154L77.6136 82.104C77.7235 80.2695 77.5818 79.0175 77.2789 78.1314C76.9683 77.2226 76.4944 76.7181 76.0019 76.3774C75.7923 76.2324 75.5808 76.1185 75.4054 76.0241L75.3471 75.9927C75.1499 75.886 75.0116 75.8059 74.9031 75.7141C74.8048 75.6311 74.7361 75.5421 74.6898 75.4192C74.6407 75.2891 74.6058 75.0915 74.6246 74.7778ZM89.7562 77.4289C89.2916 77.401 88.889 77.4511 88.5509 77.6058C88.201 77.7658 87.9611 78.019 87.7989 78.3199C87.6435 78.6081 87.5614 78.9361 87.5054 79.2562C87.4629 79.4999 87.4312 79.7686 87.3996 80.0358C87.39 80.1172 87.3803 80.1985 87.3705 80.2788L86.9247 84.6938C86.9128 84.7818 86.8994 84.8738 86.8858 84.9671C86.8567 85.1668 86.8268 85.3728 86.8082 85.5589C86.7802 85.8393 86.7687 86.1463 86.8335 86.4337C86.9023 86.7382 87.0588 87.0279 87.3578 87.2383C87.6416 87.438 88.0052 87.5315 88.4259 87.5568C91.912 87.7662 94.5848 87.8198 96.636 87.7352C98.6814 87.6508 100.139 87.4281 101.178 87.0683C102.231 86.7038 102.888 86.1863 103.273 85.5038C103.645 84.8453 103.725 84.0955 103.769 83.3719L103.776 83.2573C103.808 82.7366 103.847 82.1134 103.662 81.506C103.451 80.8164 102.974 80.1967 102.061 79.6635C101.165 79.1404 99.8332 78.6906 97.8723 78.3174C95.9055 77.9431 93.2739 77.6402 89.7562 77.4289Z" fill="white"/>
<path d="M144.655 69.5612C148.341 69.3789 150.455 68.9988 151.769 68.6506C152.408 68.4811 152.853 68.3207 153.182 68.2019L153.21 68.1917C153.561 68.065 153.71 68.0176 153.839 68.0113C155.071 67.9504 156.11 68.9686 156.896 70.5466C157.662 72.0865 158.07 73.943 158.126 75.0799C158.168 75.9292 158.042 76.8244 157.691 77.4992C157.353 78.1476 156.814 78.5895 155.953 78.632C155.463 78.6562 155.111 78.5992 154.843 78.5007C154.579 78.4034 154.371 78.2566 154.18 78.0639C153.982 77.8646 153.807 77.6211 153.603 77.3228L153.522 77.2029C153.344 76.9417 153.145 76.6477 152.908 76.3566C152.345 75.664 151.568 74.9807 150.244 74.5131C148.937 74.0511 147.121 73.8081 144.487 73.9383C142.968 74.0133 141.817 74.1374 140.966 74.3972C140.092 74.6636 139.482 75.0897 139.124 75.7904C138.787 76.4517 138.713 77.2912 138.723 78.2875C138.73 78.9362 138.775 79.7009 138.826 80.5804C138.854 81.0572 138.884 81.5679 138.911 82.112C138.95 82.8976 138.991 83.5359 139.089 84.031C139.188 84.5294 139.361 84.9672 139.728 85.2748C140.089 85.577 140.556 85.6844 141.078 85.7228C141.601 85.7613 142.27 85.7344 143.096 85.6936C143.675 85.665 144.159 85.5348 144.555 85.3039C144.954 85.0711 145.237 84.7521 145.437 84.3907C145.821 83.6976 145.908 82.8232 145.981 82.0828L145.982 82.0678C146.06 81.277 146.125 80.6252 146.364 80.1441C146.476 79.9187 146.62 79.7474 146.815 79.6242C147.013 79.4995 147.296 79.4036 147.715 79.3828C148.317 79.3531 148.804 79.612 149.225 80.1118C149.658 80.6262 150 81.3748 150.261 82.2405C150.783 83.9674 150.939 85.9907 150.991 87.0494C151.046 88.1541 151.057 90.3091 150.659 92.192C150.46 93.1359 150.166 93.9698 149.755 94.5661C149.353 95.149 148.863 95.4762 148.238 95.5071C147.886 95.5245 147.665 95.4612 147.518 95.3759C147.371 95.2909 147.252 95.1577 147.147 94.9551C147.039 94.7463 146.957 94.4829 146.879 94.1609C146.84 94.0017 146.805 93.8356 146.767 93.6596L146.763 93.6425C146.727 93.4737 146.689 93.2962 146.647 93.1182C146.475 92.3935 146.213 91.5602 145.563 90.9404C144.894 90.3033 143.901 89.9679 142.434 90.0404C141.784 90.0725 141.257 90.2467 140.851 90.5617C140.444 90.8769 140.203 91.2983 140.062 91.7447C139.808 92.5514 139.858 93.5397 139.9 94.3532L139.907 94.5016C140.006 96.4939 140.113 97.9954 140.315 99.1111C140.514 100.218 140.82 101.039 141.387 101.581C141.966 102.135 142.73 102.318 143.635 102.367C144.369 102.407 145.274 102.359 146.354 102.302L146.356 102.302C146.593 102.289 146.839 102.276 147.093 102.264C149.949 102.123 151.916 101.533 153.319 100.689C154.731 99.8411 155.533 98.7599 156.098 97.7145C156.349 97.2503 156.556 96.7884 156.744 96.3681L156.806 96.2287C157.015 95.7629 157.202 95.3616 157.416 95.0218C157.628 94.6868 157.854 94.4339 158.128 94.2567C158.398 94.082 158.745 93.9616 159.23 93.9376C159.888 93.9051 160.421 94.2406 160.824 94.8062C161.233 95.3803 161.469 96.1491 161.502 96.8316C161.589 98.5896 161.006 101.145 160.116 103.289C159.673 104.356 159.166 105.291 158.652 105.956C158.115 106.651 157.662 106.932 157.352 106.948C157.206 106.955 156.93 106.934 156.506 106.892C156.366 106.878 156.212 106.862 156.046 106.845C155.734 106.812 155.38 106.775 155.002 106.74L154.989 106.739L154.976 106.738C154.844 106.733 154.707 106.727 154.566 106.721C153.427 106.671 152.004 106.609 150.326 106.692L127.859 107.802C126.114 107.889 125.347 107.527 125.003 107.192C124.663 106.861 124.622 106.452 124.605 106.108C124.574 105.483 124.742 105.213 124.954 105.023C125.08 104.91 125.24 104.81 125.45 104.696C125.517 104.659 125.596 104.619 125.68 104.575C125.831 104.496 126 104.408 126.154 104.319C126.675 104.02 127.241 103.603 127.671 102.841C128.096 102.089 128.364 101.048 128.389 99.5424C128.404 98.6431 128.418 97.8325 128.431 97.0946C128.562 89.6316 128.563 89.6167 127.618 80.6175C127.416 78.4992 127.01 77.1336 126.471 76.2327C125.916 75.3053 125.24 74.9018 124.598 74.6719C124.371 74.5903 124.138 74.5279 123.938 74.4745C123.875 74.4576 123.816 74.4416 123.76 74.4262C123.513 74.3569 123.334 74.294 123.193 74.2071C123.065 74.1281 122.96 74.024 122.876 73.8507C122.787 73.6671 122.713 73.3853 122.691 72.9407C122.656 72.2371 122.869 71.7738 123.205 71.4411C123.559 71.0905 124.092 70.8441 124.757 70.6791C125.788 70.4235 126.974 70.3941 128.005 70.3687C128.325 70.3607 128.631 70.3532 128.912 70.3393L144.655 69.5612Z" fill="white"/>
<path d="M58.022 136.044C58.6928 130.74 65.1392 124.585 76.3519 126.003C78.1754 126.234 80.0832 126.851 81.6652 127.435C82.2139 127.638 82.7157 127.834 83.1619 128.008C83.3596 128.085 83.5465 128.158 83.7216 128.225C84.0036 128.334 84.2569 128.428 84.4701 128.5C84.6741 128.568 84.8747 128.627 85.0385 128.648C85.5151 128.708 86.008 128.571 86.4194 128.457C86.4696 128.443 86.5185 128.43 86.566 128.417C87.0436 128.288 87.5017 128.186 88.0159 128.251C88.3693 128.296 88.8985 128.563 89.5149 129.094C90.1161 129.611 90.7476 130.334 91.3065 131.194C92.4296 132.923 93.2133 135.133 92.9443 137.259C92.7361 138.905 91.4004 140.314 89.5666 140.082C88.7192 139.974 87.9762 139.544 87.2234 138.887C86.6301 138.37 86.0646 137.744 85.4492 137.063C85.2727 136.868 85.0921 136.668 84.9056 136.465C83.259 134.671 81.2478 132.736 78.0017 132.326C77.0329 132.203 75.9682 132.272 75.0901 132.666C74.1877 133.071 73.4848 133.823 73.3361 135C73.175 136.273 73.6823 137.228 74.5743 137.985C75.4332 138.714 76.6746 139.284 78.0537 139.851C78.4549 140.015 78.8709 140.181 79.2985 140.351C81.8606 141.372 84.8332 142.556 87.4682 144.669C89.1098 145.981 90.2613 147.333 90.9452 148.824C91.6267 150.309 91.8605 151.969 91.6127 153.928C91.2297 156.956 89.4761 160.03 86.1485 162.144C82.8191 164.259 77.8804 165.433 71.1148 164.577C69.207 164.336 66.6329 163.779 64.1461 163.02C61.652 162.259 59.2937 161.309 57.7865 160.297C57.2223 159.906 56.7376 159.274 56.3364 158.464C55.9361 157.656 55.6333 156.699 55.4182 155.698C54.987 153.69 54.923 151.571 55.0905 150.247C55.1744 149.583 55.4142 148.982 55.7884 148.581C56.145 148.199 56.6492 147.967 57.3724 148.059C58.2063 148.164 58.7671 148.657 59.3186 149.499C59.597 149.924 59.8593 150.418 60.1495 150.971L60.2074 151.082C60.4782 151.599 60.7721 152.16 61.1127 152.728C61.8464 153.951 62.8095 155.226 64.3034 156.282C65.7982 157.339 67.795 158.155 70.5684 158.505C71.268 158.594 72.4873 158.588 73.5848 158.282C74.6586 157.982 75.8214 157.328 75.9916 155.982C76.1434 154.782 75.6055 153.89 74.7267 153.175C73.8764 152.483 72.6519 151.91 71.302 151.311C71.1008 151.222 70.8959 151.132 70.6877 151.04L70.6853 151.039C68.0557 149.882 64.9114 148.499 62.2414 145.944C59.3756 143.207 57.5542 139.742 58.022 136.044Z" fill="white"/>
<path d="M148.484 121.43L148.479 121.384C148.457 121.16 148.433 120.926 148.497 120.653C148.563 120.377 148.73 120.028 149.177 119.651C150.103 118.87 152.202 117.991 156.874 117.524C157.986 117.413 160.055 117.22 161.878 117.452C162.791 117.568 163.595 117.786 164.178 118.14C164.741 118.482 165.081 118.938 165.145 119.576C165.188 120.007 165.116 120.353 164.958 120.646C164.799 120.939 164.536 121.21 164.147 121.457C164.101 121.483 164.053 121.509 164.004 121.536C163.741 121.677 163.445 121.838 163.207 122.062C162.887 122.363 162.677 122.758 162.557 123.338C162.44 123.901 162.403 124.663 162.438 125.732C162.473 126.806 162.581 128.218 162.768 130.095L163.992 142.35C164.064 143.063 164.17 143.686 164.481 144.21C164.804 144.753 165.308 145.127 166.035 145.441L166.037 145.442C166.098 145.468 166.156 145.493 166.212 145.516L166.214 145.517C166.649 145.701 166.932 145.822 167.146 145.996C167.339 146.155 167.489 146.374 167.536 146.852C167.564 147.129 167.583 147.404 167.496 147.699C167.413 147.982 167.219 148.326 166.739 148.693C165.746 149.452 163.581 150.267 158.953 150.729C157.913 150.833 155.937 151.017 154.193 150.795C153.319 150.684 152.549 150.476 151.993 150.139C151.455 149.814 151.133 149.383 151.073 148.782L151.072 148.769L151.07 148.756C150.944 147.928 151.09 147.653 151.228 147.493C151.319 147.388 151.44 147.296 151.628 147.163L151.672 147.132C151.842 147.012 152.052 146.864 152.26 146.67C153.227 145.765 153.935 144.069 153.455 139.261C153.359 138.309 152.669 137.725 151.846 137.381C151.027 137.04 149.974 136.886 148.905 136.83C146.91 136.724 144.695 136.949 143.455 137.074L143.19 137.101L143.088 137.111C131.464 138.272 124.833 138.935 121.183 139.938C119.353 140.441 118.159 141.057 117.481 141.963C116.792 142.885 116.715 144.002 116.843 145.286C117.008 146.931 117.305 148.029 117.688 148.791C118.081 149.572 118.556 149.979 119.019 150.256C119.18 150.353 119.348 150.437 119.49 150.508C119.535 150.531 119.579 150.553 119.618 150.573C119.792 150.663 119.92 150.739 120.025 150.83C120.205 150.985 120.39 151.245 120.458 151.922C120.52 152.542 120.258 153.067 119.71 153.543C119.149 154.03 118.323 154.431 117.37 154.752C115.47 155.392 113.236 155.664 112.11 155.776C111.032 155.884 108.896 156.049 107.003 155.8C106.053 155.675 105.21 155.451 104.598 155.096C104.001 154.749 103.659 154.302 103.599 153.701C103.529 153.003 103.965 152.471 104.669 152.05C104.726 152.015 104.785 151.981 104.845 151.946C105.165 151.759 105.512 151.555 105.79 151.264C106.148 150.89 106.379 150.4 106.509 149.667C106.76 148.253 106.659 145.736 106.169 140.831C105.586 134.762 105.29 131.777 104.879 130.255C104.67 129.481 104.405 128.979 103.97 128.657C103.759 128.502 103.534 128.409 103.314 128.338C103.169 128.291 103.004 128.247 102.84 128.204C102.769 128.185 102.697 128.166 102.629 128.147C101.867 127.938 101.324 127.588 101.264 126.991C101.195 126.297 101.503 125.691 102.148 125.136C102.804 124.572 103.763 124.103 104.86 123.723C107.047 122.965 109.62 122.613 110.927 122.482C111.907 122.384 113.724 122.263 115.315 122.504C116.113 122.625 116.811 122.832 117.313 123.145C117.8 123.449 118.081 123.836 118.133 124.354C118.195 124.979 118.067 125.373 117.845 125.694C117.603 126.043 117.232 126.337 116.714 126.728C116.425 126.931 116.153 127.149 115.935 127.442C115.71 127.745 115.565 128.098 115.483 128.543C115.324 129.395 115.383 130.665 115.591 132.748C115.657 133.41 115.743 133.976 115.92 134.424C116.108 134.899 116.406 135.26 116.882 135.474C117.325 135.672 117.874 135.721 118.521 135.701C119.176 135.682 119.996 135.589 121.016 135.458L121.019 135.457L143.815 132.822C147.194 132.56 149.366 132.294 150.665 131.798C151.329 131.545 151.83 131.209 152.135 130.722C152.44 130.234 152.497 129.673 152.438 129.08C152.18 126.503 151.838 125.082 151.444 124.26C151.242 123.838 151.019 123.556 150.771 123.358C150.549 123.181 150.327 123.09 150.178 123.028L150.146 123.015L150.022 122.959C149.583 122.761 149.241 122.607 148.974 122.389C148.715 122.177 148.532 121.905 148.484 121.43Z" fill="white"/>
<path d="M139.346 150.227C139.168 150.227 139.014 150.195 138.882 150.132C138.751 150.067 138.643 149.974 138.556 149.853C138.472 149.733 138.409 149.585 138.367 149.409C138.328 149.233 138.308 149.033 138.308 148.807C138.308 148.585 138.328 148.385 138.367 148.21C138.409 148.031 138.472 147.882 138.556 147.761C138.643 147.641 138.751 147.549 138.882 147.486C139.014 147.421 139.168 147.388 139.346 147.388C139.703 147.388 139.965 147.512 140.133 147.761C140.301 148.01 140.384 148.359 140.384 148.807C140.384 149.256 140.301 149.604 140.133 149.853C139.965 150.102 139.703 150.227 139.346 150.227ZM139.346 149.806C139.438 149.806 139.516 149.789 139.578 149.755C139.641 149.718 139.691 149.667 139.728 149.602C139.767 149.536 139.795 149.456 139.81 149.362C139.829 149.265 139.838 149.157 139.838 149.039V148.571C139.838 148.336 139.801 148.149 139.728 148.013C139.657 147.877 139.53 147.809 139.346 147.809C139.163 147.809 139.035 147.877 138.961 148.013C138.89 148.149 138.855 148.336 138.855 148.571V149.043C138.855 149.279 138.89 149.465 138.961 149.602C139.035 149.738 139.163 149.806 139.346 149.806Z" fill="white"/>
<path d="M143.097 150.741L144.036 148.162L145.015 148.518C145.266 148.61 145.433 148.751 145.514 148.942C145.595 149.133 145.59 149.352 145.501 149.599C145.411 149.845 145.274 150.015 145.089 150.11C144.904 150.204 144.685 150.206 144.434 150.114L143.939 149.934L143.581 150.917L143.097 150.741ZM144.083 149.539L144.478 149.683C144.609 149.73 144.712 149.738 144.787 149.707C144.864 149.674 144.923 149.599 144.965 149.483L145.016 149.343C145.058 149.227 145.061 149.133 145.023 149.061C144.986 148.986 144.902 148.925 144.772 148.877L144.376 148.733L144.083 149.539Z" fill="white"/>
<path d="M147.417 152.937L149.181 150.834L149.979 151.504C150.184 151.676 150.292 151.866 150.302 152.073C150.313 152.281 150.234 152.485 150.066 152.686C149.897 152.886 149.71 152.999 149.504 153.025C149.298 153.05 149.092 152.977 148.887 152.805L148.484 152.467L147.812 153.268L147.417 152.937ZM148.754 152.144L149.076 152.415C149.183 152.504 149.277 152.547 149.358 152.544C149.442 152.538 149.523 152.488 149.602 152.394L149.698 152.28C149.777 152.185 149.812 152.097 149.801 152.017C149.792 151.934 149.734 151.848 149.627 151.758L149.305 151.488L148.754 152.144Z" fill="white"/>
<path d="M151.118 157.251C151.029 157.096 150.979 156.947 150.968 156.802C150.959 156.656 150.985 156.515 151.046 156.38C151.109 156.247 151.205 156.118 151.337 155.994C151.469 155.872 151.633 155.755 151.828 155.642C152.021 155.531 152.203 155.448 152.375 155.394C152.55 155.342 152.711 155.321 152.858 155.334C153.005 155.348 153.139 155.397 153.259 155.479C153.381 155.56 153.487 155.677 153.576 155.831C153.755 156.14 153.778 156.429 153.646 156.699C153.514 156.969 153.254 157.216 152.866 157.44C152.478 157.664 152.134 157.766 151.834 157.745C151.535 157.724 151.296 157.56 151.118 157.251ZM151.482 157.041C151.528 157.12 151.581 157.178 151.642 157.216C151.706 157.252 151.775 157.27 151.85 157.269C151.926 157.27 152.009 157.254 152.099 157.22C152.192 157.188 152.29 157.142 152.392 157.083L152.797 156.849C153.001 156.731 153.144 156.606 153.226 156.474C153.308 156.345 153.304 156.201 153.212 156.042C153.12 155.883 152.997 155.806 152.842 155.81C152.689 155.817 152.51 155.88 152.306 155.998L151.897 156.233C151.693 156.351 151.549 156.475 151.467 156.605C151.385 156.736 151.39 156.882 151.482 157.041Z" fill="white"/>
<path d="M152.705 161.649C152.664 161.417 152.669 161.211 152.72 161.032C152.771 160.855 152.853 160.703 152.967 160.577L153.338 160.827C153.24 160.948 153.172 161.072 153.136 161.198C153.103 161.326 153.098 161.457 153.122 161.592C153.149 161.747 153.205 161.859 153.289 161.929C153.373 162 153.481 162.023 153.613 162C153.721 161.981 153.797 161.936 153.841 161.864C153.886 161.792 153.908 161.681 153.905 161.529L153.901 161.235C153.901 160.976 153.96 160.782 154.078 160.652C154.199 160.522 154.353 160.44 154.542 160.407C154.8 160.361 155.012 160.411 155.179 160.554C155.348 160.697 155.458 160.917 155.511 161.214C155.548 161.426 155.546 161.614 155.506 161.778C155.466 161.945 155.397 162.085 155.297 162.198L154.927 161.956C154.999 161.869 155.051 161.77 155.082 161.661C155.116 161.551 155.121 161.428 155.097 161.291C155.045 160.997 154.898 160.871 154.655 160.914C154.552 160.932 154.479 160.977 154.435 161.049C154.392 161.12 154.371 161.233 154.371 161.387L154.371 161.679C154.368 161.921 154.313 162.111 154.204 162.247C154.094 162.384 153.939 162.47 153.738 162.505C153.611 162.527 153.491 162.526 153.378 162.501C153.267 162.475 153.165 162.426 153.073 162.355C152.983 162.283 152.906 162.187 152.842 162.068C152.779 161.951 152.733 161.812 152.705 161.649Z" fill="white"/>
<path d="M152.886 165.77L153.266 165.837L153.159 166.445L155.102 166.788L155.21 166.18L155.589 166.247L155.286 167.966L154.906 167.899L155.014 167.291L153.07 166.948L152.963 167.556L152.583 167.489L152.886 165.77Z" fill="white"/>
<path d="M153.022 171.667L153.042 171.633L151.336 170.648L151.556 170.267L153.933 171.639L153.616 172.187L151.551 171.825L151.531 171.859L153.237 172.844L153.017 173.226L150.64 171.853L150.957 171.305L153.022 171.667Z" fill="white"/>
<path d="M147.776 175.442L147.8 175.422C147.783 175.365 147.771 175.305 147.763 175.243C147.756 175.181 147.758 175.119 147.771 175.057C147.784 174.995 147.809 174.933 147.846 174.871C147.881 174.811 147.932 174.753 147.998 174.697C148.211 174.519 148.451 174.476 148.718 174.57C148.985 174.668 149.26 174.887 149.545 175.226C149.845 175.583 150.01 175.91 150.04 176.207C150.07 176.504 149.951 176.764 149.684 176.988C149.58 177.076 149.476 177.138 149.375 177.176C149.271 177.215 149.17 177.233 149.071 177.23C148.971 177.229 148.873 177.208 148.778 177.168C148.683 177.132 148.59 177.083 148.501 177.021L148.776 176.616C148.827 176.648 148.88 176.678 148.933 176.705C148.984 176.733 149.037 176.751 149.09 176.758C149.143 176.768 149.196 176.766 149.25 176.752C149.305 176.74 149.36 176.71 149.417 176.663C149.547 176.554 149.597 176.423 149.565 176.272C149.534 176.12 149.442 175.954 149.291 175.773L149.008 175.436C148.932 175.345 148.856 175.267 148.78 175.201C148.703 175.138 148.627 175.093 148.552 175.064C148.476 175.035 148.402 175.026 148.328 175.036C148.256 175.048 148.184 175.085 148.112 175.145C148 175.24 147.942 175.344 147.94 175.46C147.939 175.577 147.982 175.687 148.07 175.792L148.214 175.964L148.596 175.643L148.836 175.929L148.101 176.545L147.179 175.446L147.531 175.15L147.776 175.442Z" fill="white"/>
<path d="M138.705 180.337V178.017H139.216V180.337H140.042V180.762H137.879V180.337H138.705Z" fill="white"/>
<path d="M133.483 178.158L134.236 178.432L134.64 177.324L135.124 177.5L134.185 180.079L133.701 179.903L134.091 178.831L133.337 178.557L132.947 179.629L132.463 179.452L133.402 176.874L133.886 177.05L133.483 178.158Z" fill="white"/>
<path d="M130.011 174.654C130.148 174.768 130.246 174.892 130.306 175.024C130.364 175.159 130.388 175.3 130.377 175.448C130.363 175.594 130.316 175.748 130.236 175.909C130.153 176.069 130.039 176.235 129.894 176.408C129.751 176.579 129.608 176.719 129.465 176.828C129.318 176.938 129.174 177.012 129.032 177.05C128.888 177.087 128.746 177.087 128.605 177.051C128.463 177.017 128.323 176.943 128.187 176.828C127.913 176.599 127.793 176.335 127.824 176.037C127.856 175.738 128.016 175.417 128.304 175.074C128.592 174.73 128.88 174.517 129.169 174.434C129.457 174.351 129.738 174.424 130.011 174.654ZM129.741 174.976C129.671 174.917 129.6 174.88 129.53 174.866C129.459 174.854 129.388 174.861 129.317 174.887C129.245 174.912 129.173 174.956 129.1 175.018C129.023 175.08 128.947 175.157 128.872 175.247L128.571 175.606C128.419 175.786 128.328 175.953 128.296 176.104C128.263 176.254 128.316 176.388 128.457 176.506C128.598 176.624 128.74 176.654 128.884 176.597C129.025 176.538 129.172 176.418 129.324 176.238L129.627 175.876C129.779 175.695 129.871 175.53 129.905 175.38C129.936 175.229 129.881 175.094 129.741 174.976Z" fill="white"/>
<path d="M124.795 172.795L126.276 171.94C126.364 171.889 126.443 171.841 126.51 171.796C126.577 171.748 126.628 171.699 126.665 171.647C126.698 171.595 126.715 171.537 126.715 171.473C126.713 171.408 126.687 171.332 126.638 171.245C126.588 171.159 126.535 171.1 126.481 171.068C126.425 171.034 126.366 171.019 126.305 171.024C126.241 171.028 126.172 171.048 126.099 171.084C126.025 171.118 125.944 171.16 125.855 171.211L124.374 172.067L124.116 171.621L125.529 170.805C125.697 170.708 125.85 170.633 125.986 170.582C126.123 170.53 126.25 170.509 126.369 170.52C126.487 170.531 126.598 170.577 126.703 170.659C126.804 170.739 126.904 170.865 127.002 171.035C127.1 171.205 127.16 171.356 127.18 171.486C127.198 171.615 127.181 171.734 127.131 171.841C127.081 171.949 127 172.049 126.887 172.141C126.774 172.234 126.633 172.329 126.465 172.425L125.052 173.241L124.795 172.795Z" fill="white"/>
<path d="M124.827 165.99L124.833 166.021C124.891 166.035 124.949 166.054 125.006 166.079C125.064 166.103 125.116 166.136 125.164 166.179C125.211 166.221 125.252 166.273 125.287 166.336C125.322 166.397 125.347 166.47 125.362 166.555C125.41 166.828 125.327 167.057 125.112 167.242C124.894 167.424 124.566 167.553 124.13 167.63C123.671 167.711 123.305 167.691 123.033 167.568C122.761 167.446 122.595 167.213 122.535 166.87C122.511 166.735 122.508 166.615 122.527 166.508C122.545 166.398 122.58 166.301 122.631 166.218C122.683 166.132 122.749 166.057 122.832 165.995C122.911 165.93 122.999 165.875 123.098 165.828L123.311 166.27C123.258 166.298 123.206 166.328 123.156 166.361C123.105 166.391 123.064 166.428 123.031 166.471C122.996 166.512 122.971 166.559 122.956 166.612C122.939 166.665 122.937 166.728 122.95 166.8C122.979 166.968 123.068 167.076 123.215 167.125C123.362 167.174 123.551 167.178 123.784 167.137L124.217 167.06C124.333 167.04 124.439 167.013 124.535 166.98C124.627 166.945 124.704 166.902 124.767 166.851C124.83 166.8 124.876 166.74 124.903 166.672C124.929 166.603 124.933 166.523 124.917 166.43C124.891 166.285 124.829 166.183 124.731 166.123C124.63 166.064 124.512 166.046 124.378 166.07L124.157 166.108L124.244 166.6L123.876 166.665L123.71 165.72L125.123 165.471L125.203 165.924L124.827 165.99Z" fill="white"/>
<path d="M124.213 161.071L124.074 161.861L125.236 162.065L125.146 162.573L122.444 162.096L122.533 161.589L123.656 161.787L123.795 160.997L122.672 160.799L122.762 160.292L125.465 160.768L125.375 161.276L124.213 161.071Z" fill="white"/>
<path d="M125.08 155.741L127.089 156.901L126.834 157.344L124.825 156.184L124.412 156.899L124.044 156.687L125.125 154.814L125.493 155.026L125.08 155.741Z" fill="white"/>
<path d="M130.079 153.471C129.899 153.623 129.718 153.721 129.537 153.767C129.359 153.811 129.186 153.815 129.02 153.78L129.05 153.334C129.205 153.358 129.345 153.355 129.473 153.323C129.601 153.288 129.717 153.226 129.821 153.139C129.942 153.038 130.011 152.933 130.03 152.825C130.049 152.717 130.015 152.612 129.929 152.509C129.858 152.425 129.781 152.382 129.698 152.38C129.612 152.376 129.505 152.413 129.375 152.491L129.122 152.642C128.899 152.772 128.701 152.818 128.53 152.78C128.356 152.741 128.208 152.648 128.085 152.501C127.917 152.301 127.853 152.092 127.894 151.876C127.934 151.658 128.069 151.452 128.3 151.259C128.465 151.12 128.628 151.028 128.79 150.981C128.955 150.932 129.111 150.922 129.259 150.952L129.234 151.393C129.122 151.374 129.011 151.379 128.901 151.406C128.789 151.432 128.68 151.489 128.573 151.578C128.344 151.77 128.309 151.961 128.468 152.15C128.535 152.23 128.61 152.271 128.694 152.273C128.778 152.274 128.886 152.236 129.019 152.159L129.272 152.013C129.483 151.894 129.675 151.848 129.848 151.874C130.021 151.9 130.173 151.992 130.304 152.148C130.387 152.247 130.445 152.352 130.48 152.462C130.514 152.571 130.522 152.684 130.507 152.8C130.489 152.914 130.445 153.028 130.373 153.142C130.304 153.255 130.206 153.365 130.079 153.471Z" fill="white"/>
<path d="M144.437 178.253C144.437 178.52 144.221 178.736 143.954 178.736C143.687 178.736 143.471 178.52 143.471 178.253C143.471 177.986 143.687 177.77 143.954 177.77C144.221 177.77 144.437 177.986 144.437 178.253Z" fill="white"/>
<path d="M134.256 149.86C134.256 150.127 134.04 150.343 133.773 150.343C133.506 150.343 133.29 150.127 133.29 149.86C133.29 149.593 133.506 149.377 133.773 149.377C134.04 149.377 134.256 149.593 134.256 149.86Z" fill="white"/>
<path d="M197.064 47.32C197.461 46.7808 198.3 47.2535 198.045 47.8723L194.742 55.8813C191.165 64.5542 193.959 74.5486 201.515 80.1089L208.493 85.2436C209.032 85.6403 208.56 86.4798 207.941 86.2246L199.932 82.9213C191.259 79.3442 181.264 82.1384 175.704 89.6946L170.569 96.6725C170.173 97.2116 169.333 96.739 169.588 96.1202L172.892 88.1112C176.469 79.4383 173.675 69.4439 166.118 63.8836L159.141 58.7489C158.601 58.3522 159.074 57.5126 159.693 57.7679L167.702 61.0712C176.375 64.6482 186.369 61.8541 191.929 54.2979L197.064 47.32Z" fill="white"/>
<path fill-rule="evenodd" clip-rule="evenodd" d="M196.259 46.7273C197.355 45.2375 199.675 46.5437 198.97 48.2536L195.666 56.2626C192.265 64.5107 194.922 74.0155 202.108 79.3034L209.086 84.4382C210.576 85.5344 209.269 87.8543 207.56 87.1491L199.55 83.8458C191.302 80.4439 181.798 83.1012 176.51 90.2873L171.375 97.2652C170.279 98.755 167.959 97.4488 168.664 95.7389L171.967 87.7299C175.369 79.4818 172.712 69.977 165.526 64.689L158.548 59.5543C157.058 58.458 158.364 56.1381 160.074 56.8434L168.083 60.1467C176.331 63.5486 185.836 60.8913 191.124 53.7052L196.259 46.7273ZM195.77 50.7659L192.735 54.8905C186.902 62.8169 176.418 65.7479 167.321 61.9956L162.587 60.043L166.711 63.0781C174.638 68.9108 177.569 79.3948 173.816 88.4924L171.864 93.2265L174.899 89.1019C180.731 81.1756 191.215 78.2446 200.313 81.9969L205.047 83.9494L200.923 80.9143C192.996 75.0817 190.065 64.5977 193.817 55.5L195.77 50.7659Z" fill="#333333"/>
</svg>
