<svg xmlns="http://www.w3.org/2000/svg" width="256" height="290" fill="none"><path fill="#AF71FE" d="M163.441 27.06c.358-1.458.549-2.983.549-4.552 0-10.493-8.507-19-19-19-1.673 0-3.295.216-4.84.622A18.912 18.912 0 0 0 128.99.508a18.92 18.92 0 0 0-11.941 4.22 15.714 15.714 0 0 0-6.059-1.22c-10.494 0-19 10.522-19 23.5 0 3.257.535 6.359 1.503 9.179a26.458 26.458 0 0 0-1.503 8.821c0 3.348.62 6.551 1.753 9.5a26.438 26.438 0 0 0-1.753 9.5c0 1.925.205 3.8.594 5.608-30.197 13.45-51.249 43.723-51.249 78.914v25.946C17.887 182.294.99 204.408.99 230.482c0 32.599 26.427 59.026 59.026 59.026h136.587c32.599 0 59.026-26.427 59.026-59.026a58.757 58.757 0 0 0-12.236-35.985 37.855 37.855 0 0 0 8.454-23.903v-12.608c0-19.834-16.079-35.912-35.912-35.912-2.005 0-3.972.164-5.888.48-7.34-23.299-24.294-42.334-46.209-52.455a18.862 18.862 0 0 0-1.1-4.386 26.398 26.398 0 0 0 2.252-10.705c0-3.348-.621-6.55-1.754-9.5a26.434 26.434 0 0 0 1.754-9.5c0-3.14-.547-6.153-1.549-8.948Z"/><path fill="#FFD600" d="M17.99 230.482c0-23.211 18.816-42.027 42.026-42.027h136.587c23.21 0 42.026 18.816 42.026 42.027 0 23.21-18.816 42.026-42.026 42.026H60.016c-23.21 0-42.026-18.816-42.026-42.026Z"/><path fill="#333" fill-rule="evenodd" d="M16.99 230.482c0-23.763 19.263-43.027 43.026-43.027h136.587c23.763 0 43.026 19.264 43.026 43.027s-19.263 43.026-43.026 43.026H60.016c-23.763 0-43.026-19.263-43.026-43.026Zm43.026-41.027c-22.658 0-41.026 18.368-41.026 41.027 0 22.658 18.368 41.026 41.026 41.026h136.587c22.658 0 41.026-18.368 41.026-41.026 0-22.659-18.368-41.027-41.026-41.027H60.016Z" clip-rule="evenodd"/><path fill="#FF5E71" d="M58.335 148.53h138.688v37.824c0 38.297-31.047 69.344-69.344 69.344"/><path fill="#333" fill-rule="evenodd" d="M57.335 147.53h140.688v38.824c0 38.85-31.494 70.344-70.344 70.344-38.85 0-70.344-31.494-70.344-70.344V147.53Zm2 2v36.824c0 37.745 30.599 68.344 68.344 68.344 37.745 0 68.344-30.599 68.344-68.344V149.53H59.335Z" clip-rule="evenodd"/><path fill="#FFD600" d="M197.023 148.53c0 38.297-31.047 69.344-69.344 69.344-38.298 0-69.344-31.047-69.344-69.344 0-38.298 31.046-69.344 69.344-69.344 38.297 0 69.344 31.046 69.344 69.344Z"/><path fill="#333" fill-rule="evenodd" d="M127.679 80.186c-37.745 0-68.344 30.599-68.344 68.344 0 37.745 30.599 68.344 68.344 68.344 37.745 0 68.344-30.599 68.344-68.344 0-37.745-30.599-68.344-68.344-68.344ZM57.335 148.53c0-38.85 31.494-70.344 70.344-70.344 38.85 0 70.344 31.494 70.344 70.344 0 38.85-31.494 70.344-70.344 70.344-38.85 0-70.344-31.494-70.344-70.344Z" clip-rule="evenodd"/><path fill="#333" d="M183.574 148.53c0 30.87-25.025 55.895-55.895 55.895-30.87 0-55.895-25.025-55.895-55.895 0-30.871 25.025-55.896 55.895-55.896 30.87 0 55.895 25.025 55.895 55.896Z"/><path fill="#333" fill-rule="evenodd" d="M127.679 93.634c-30.318 0-54.895 24.578-54.895 54.896 0 30.317 24.577 54.895 54.895 54.895s54.895-24.578 54.895-54.895c0-30.318-24.577-54.896-54.895-54.896ZM70.784 148.53c0-31.423 25.473-56.896 56.895-56.896 31.422 0 56.895 25.473 56.895 56.896 0 31.422-25.473 56.895-56.895 56.895-31.422 0-56.895-25.473-56.895-56.895Z" clip-rule="evenodd"/><path fill="#AF71FE" d="M183.574 153.993c0 27.853-25.025 50.432-55.895 50.432-30.87 0-55.895-22.579-55.895-50.432 0-27.852 25.025-50.431 55.895-50.431 30.87 0 55.895 22.579 55.895 50.431Z"/><path fill="#333" fill-rule="evenodd" d="M127.679 104.562c-30.417 0-54.895 22.225-54.895 49.431 0 27.207 24.478 49.432 54.895 49.432s54.895-22.225 54.895-49.432c0-27.206-24.478-49.431-54.895-49.431Zm-56.895 49.431c0-28.499 25.572-51.431 56.895-51.431 31.323 0 56.895 22.932 56.895 51.431 0 28.5-25.572 51.432-56.895 51.432-31.323 0-56.895-22.932-56.895-51.432Z" clip-rule="evenodd"/><path fill="#FF5E71" fill-rule="evenodd" d="M215.935 139.074c-10.445 0-18.912 8.467-18.912 18.912v33.621h16.81c11.606 0 21.014-9.408 21.014-21.013v-12.608c0-10.445-8.467-18.912-18.912-18.912Zm0 6.724c-7.195 0-13.028 5.833-13.028 13.029v15.549a6.724 6.724 0 0 0 6.724 6.725h2.521c9.285 0 16.811-7.527 16.811-16.811v-5.463c0-7.196-5.833-13.029-13.028-13.029Z" clip-rule="evenodd"/><path fill="#333" fill-rule="evenodd" d="M215.935 140.074c-9.893 0-17.912 8.019-17.912 17.912v32.621h15.81c11.053 0 20.014-8.96 20.014-20.013v-12.608c0-9.893-8.02-17.912-17.912-17.912Zm-19.912 17.912c0-10.997 8.915-19.912 19.912-19.912s19.912 8.915 19.912 19.912v12.608c0 12.157-9.856 22.013-22.014 22.013h-17.81v-34.621Zm19.912-11.188c-6.643 0-12.028 5.386-12.028 12.029v15.549a5.724 5.724 0 0 0 5.724 5.725h2.521c8.732 0 15.811-7.079 15.811-15.811v-5.463c0-6.643-5.385-12.029-12.028-12.029Zm-14.028 12.029c0-7.748 6.28-14.029 14.028-14.029 7.747 0 14.028 6.281 14.028 14.029v5.463c0 9.837-7.974 17.811-17.811 17.811h-2.521a7.725 7.725 0 0 1-7.724-7.725v-15.549Z" clip-rule="evenodd"/><path fill="#fff" fill-rule="evenodd" d="M110.154 151.447c0-7.53 5.99-12.894 13.819-12.894 4.939 0 8.333 2.166 10.505 4.903 2.187 2.756 3.129 6.087 3.129 8.361 0 7.608-6.729 12.709-14.078 12.709-7.547 0-13.375-5.49-13.375-13.079Zm12.117-8.381c-1.235 0-2.154.649-2.745 1.519-.582.858-.863 1.949-.863 2.94 0 1.648.572 4.709 1.646 7.361.538 1.329 1.216 2.589 2.037 3.526.82.936 1.834 1.601 3.033 1.601 1.297 0 2.251-.573 2.864-1.441.599-.848.855-1.948.855-3.018 0-1.75-.513-4.811-1.576-7.444-.533-1.317-1.216-2.561-2.069-3.483-.856-.927-1.917-1.561-3.182-1.561Z" clip-rule="evenodd"/><path fill="#fff" d="M139.545 145.305c0-1.449.622-3.168 1.514-4.531.444-.678.941-1.245 1.435-1.638.501-.399.955-.583 1.324-.583.072 0 .192.017.416.064l.344.075.027.006.479.104.013.002.012.002c.715.113 1.743.265 3.26.265h9.102c1.633 0 2.406-.153 2.984-.268l.02-.004.02-.006.164-.047c.415-.121.66-.193 1.215-.193.216 0 .574.116 1.021.421.435.296.907.739 1.344 1.308a7.63 7.63 0 0 1 1.575 4.616c0 .844-.219 1.479-.59 1.898-.364.409-.928.673-1.759.673-1.312 0-1.979-.855-2.6-1.932-.074-.127-.148-.261-.223-.396-.224-.404-.459-.827-.713-1.159-.351-.46-.832-.879-1.533-.879-.49 0-.881.176-1.167.466-.272.277-.42.627-.504.941-.147.548-.13 1.13-.125 1.33l.001.057v11.359c0 1.161.224 1.967.621 2.541.4.579.931.856 1.393 1.044.114.047.227.089.331.128l.016.006c.1.037.192.071.28.107.186.075.326.144.435.224.102.076.176.16.229.273.055.118.099.292.099.561 0 .235-.035.46-.155.675-.118.214-.343.462-.795.701-.927.491-2.729.899-6.172.899h-.135c-1.01.001-3.061.003-4.891-.312-.962-.165-1.816-.41-2.418-.76-.594-.344-.862-.737-.862-1.203 0-.381.106-.564.223-.679.139-.138.352-.24.678-.35.069-.024.144-.048.225-.074.26-.083.569-.182.841-.315.381-.186.76-.465 1.01-.939l.005-.009.004-.009c.12-.251.208-.585.276-.927.07-.35.127-.745.172-1.136.089-.784.136-1.583.155-2.054l.296-8.179c.074-1.94-.073-3.021-.377-3.624-.166-.328-.391-.541-.666-.651-.231-.092-.46-.091-.579-.091h-.025c-.647 0-1.139.425-1.513.854a7.47 7.47 0 0 0-.305.378c-.172.227-.343.472-.513.715l-.001.001c-.104.151-.209.3-.312.443-.79 1.097-1.609 1.975-2.832 1.975-1.062 0-1.794-.99-1.794-2.164ZM168.38 143.714c0-1.3.309-2.611.956-3.579.633-.948 1.594-1.582 2.984-1.582s2.35.634 2.983 1.582c.647.968.957 2.279.957 3.579 0 2.193-.821 4.89-1.833 6.878l-.003.006-.003.006a13.504 13.504 0 0 1-1.013 1.746c-.231.331-.466.62-.685.822-.238.22-.371.254-.403.254-.033 0-.165-.034-.404-.254a5.24 5.24 0 0 1-.685-.822c-.46-.66-.854-1.411-1.012-1.746l-.004-.006-.003-.006c-1.012-1.988-1.832-4.685-1.832-6.878ZM79.267 141.309c0-.498.259-.915.784-1.283.537-.376 1.303-.662 2.18-.871 1.747-.417 3.763-.491 4.787-.491.767 0 2.177.047 3.382.355.604.154 1.114.364 1.463.634.334.258.5.551.5.916 0 .468-.122.738-.301.948-.201.237-.496.428-.93.693a2.637 2.637 0 0 0-.688.515 2.124 2.124 0 0 0-.46.863c-.195.668-.247 1.676-.247 3.308 0 .547.061 1 .22 1.36.17.384.44.638.789.785.322.135.687.168 1.04.176.202.005.438.001.682-.002.168-.003.34-.006.507-.006h1.887c.617 0 1.102-.023 1.477-.081.369-.058.694-.159.94-.361.268-.22.374-.503.418-.775.034-.216.034-.467.033-.703v-.097c0-2.025-.156-3.172-.405-3.86-.128-.356-.288-.608-.48-.795a1.904 1.904 0 0 0-.46-.32l-.022-.012-.087-.051c-.33-.19-.571-.329-.75-.509-.166-.165-.275-.364-.275-.706v-.034c0-.177 0-.344.064-.533.064-.186.206-.426.565-.671.75-.516 2.422-1.037 6.086-1.037.873 0 2.485.011 3.87.33.694.16 1.285.387 1.693.694.39.293.597.644.597 1.103 0 .319-.079.561-.21.756-.133.196-.341.374-.649.53l-.109.046c-.215.09-.474.198-.689.363-.294.226-.499.538-.642.996-.139.441-.227 1.041-.283 1.876-.057.842-.082 1.951-.082 3.425v9.62c0 .561.033 1.075.245 1.53.223.476.606.82 1.159 1.127l.002.001.129.071c.328.18.524.287.665.428.114.114.205.267.205.617 0 .217-.008.414-.089.615-.077.189-.238.425-.622.662-.803.495-2.522.961-6.152.961-.818 0-2.356-.011-3.68-.315-.665-.153-1.23-.37-1.619-.662-.371-.278-.565-.608-.565-1.039v-.013l-.001-.013c-.033-.636.1-.801.187-.883.068-.065.158-.121.315-.21l.037-.021c.14-.08.322-.182.505-.322.866-.661 1.547-1.973 1.547-5.753 0-.508-.028-.93-.114-1.268-.091-.353-.258-.653-.56-.857-.28-.19-.616-.251-.941-.277-.282-.023-.618-.022-.992-.022h-.187c-1.29 0-2.256.009-2.968.078-.694.067-1.26.197-1.65.533-.419.36-.536.862-.574 1.382-.025.341-.02.762-.014 1.244.003.234.007.482.007.741 0 1.299.146 2.19.391 2.83.254.659.605 1.029.958 1.29.121.091.25.173.356.239l.09.058c.127.083.212.146.278.215.102.108.22.295.22.807 0 .441-.217.799-.66 1.113-.457.323-1.114.566-1.874.74-1.514.348-3.26.385-4.143.385-.846 0-2.508-.037-3.947-.375-.722-.169-1.344-.405-1.775-.716-.417-.301-.623-.646-.623-1.073 0-.484.331-.835.897-1.102l.14-.064c.263-.121.565-.259.817-.475.328-.281.555-.665.717-1.239.31-1.097.426-3.078.426-6.925 0-4.892-.035-7.211-.254-8.388-.113-.609-.291-1.013-.619-1.301a2.104 2.104 0 0 0-.462-.297 9.451 9.451 0 0 0-.166-.081c-.089-.043-.174-.084-.279-.141l-.002-.001-.024-.013c-.285-.152-.52-.277-.695-.435-.16-.145-.237-.287-.237-.48ZM168.713 160.919a3.621 3.621 0 0 1 3.607-3.607 3.621 3.621 0 0 1 3.607 3.607 3.621 3.621 0 0 1-3.607 3.607 3.621 3.621 0 0 1-3.607-3.607Z"/><path fill="#333" fill-rule="evenodd" d="M128.853 17.58a1 1 0 0 1 .557 1.3l-1.114 2.785a5.505 5.505 0 0 0 .812 5.482 7.504 7.504 0 0 1 .762 8.219l-.771 1.446a7.99 7.99 0 0 0 0 7.521l.265.497a11.046 11.046 0 0 1 0 10.397l-.286.535a10.185 10.185 0 0 0-.701 7.934l1.056 3.255a1 1 0 0 1-1.903.617l-1.055-3.255a12.181 12.181 0 0 1 .839-9.492l.285-.535a9.048 9.048 0 0 0 0-8.515l-.265-.497a9.993 9.993 0 0 1 0-9.404l.771-1.445a5.504 5.504 0 0 0-.559-6.028 7.503 7.503 0 0 1-1.107-7.475l1.114-2.785a1 1 0 0 1 1.3-.557ZM112.883 20.942a1 1 0 0 1 .557 1.3l-1.114 2.785a5.505 5.505 0 0 0 .812 5.482 7.504 7.504 0 0 1 .762 8.22l-.771 1.445a7.99 7.99 0 0 0 0 7.521l.265.497a11.052 11.052 0 0 1 0 10.397l-.286.535a10.185 10.185 0 0 0-.701 7.934l1.055 3.255a1 1 0 1 1-1.902.617l-1.056-3.255a12.186 12.186 0 0 1 .84-9.492l.285-.535a9.048 9.048 0 0 0 0-8.515l-.265-.497a9.993 9.993 0 0 1 0-9.403l.771-1.446a5.504 5.504 0 0 0-.559-6.028 7.503 7.503 0 0 1-1.107-7.475l1.114-2.785a1 1 0 0 1 1.3-.557ZM144.823 20.942a1 1 0 0 1 .557 1.3l-1.114 2.785a5.505 5.505 0 0 0 .812 5.482 7.504 7.504 0 0 1 .762 8.22l-.771 1.445a7.99 7.99 0 0 0 0 7.521l.265.497a11.046 11.046 0 0 1 0 10.397l-.286.535a10.185 10.185 0 0 0-.701 7.934l1.056 3.255a1 1 0 0 1-1.903.617l-1.055-3.255a12.181 12.181 0 0 1 .839-9.492l.285-.535a9.048 9.048 0 0 0 0-8.515l-.265-.497a9.993 9.993 0 0 1 0-9.403l.771-1.446a5.506 5.506 0 0 0-.558-6.028 7.501 7.501 0 0 1-1.108-7.475l1.114-2.785a1 1 0 0 1 1.3-.557Z" clip-rule="evenodd"/><path fill="#fff" d="M138.51 169.76a.955.955 0 0 1-.422-.086.794.794 0 0 1-.298-.254 1.21 1.21 0 0 1-.172-.405 2.572 2.572 0 0 1-.053-.548c0-.203.018-.384.053-.544.039-.163.096-.299.172-.409a.774.774 0 0 1 .298-.25c.119-.06.26-.09.422-.09.325 0 .564.114.717.34.153.227.229.545.229.953 0 .409-.076.726-.229.953-.153.227-.392.34-.717.34Zm0-.383a.443.443 0 0 0 .212-.046.373.373 0 0 0 .136-.14.614.614 0 0 0 .075-.219c.017-.088.025-.186.025-.293v-.427c0-.215-.033-.384-.1-.508-.065-.124-.181-.187-.348-.187-.167 0-.284.063-.351.187-.064.124-.096.293-.096.508v.43c0 .215.032.385.096.509.067.124.184.186.351.186ZM141.966 170.235l.855-2.349.892.324c.229.084.381.213.454.387.074.174.07.373-.011.598-.082.224-.207.379-.376.465-.168.087-.367.088-.596.005l-.451-.165-.326.896-.441-.161Zm.898-1.095.36.131c.119.044.213.051.282.023.069-.031.123-.099.162-.204l.046-.128c.039-.106.041-.191.006-.257-.033-.068-.11-.124-.229-.167l-.36-.132-.267.734ZM145.936 172.255l1.607-1.915.727.61c.187.156.285.329.294.518.01.189-.062.375-.215.558-.154.183-.324.286-.512.309-.188.023-.375-.043-.562-.2l-.367-.308-.613.729-.359-.301Zm1.218-.722.294.246c.096.082.182.121.256.118.076-.005.15-.051.222-.137l.088-.104c.072-.086.103-.166.093-.24-.008-.075-.061-.154-.158-.235l-.293-.246-.502.598ZM149.332 176.215a.971.971 0 0 1-.137-.409.8.8 0 0 1 .072-.385c.056-.121.145-.238.264-.351a2.55 2.55 0 0 1 .448-.321 2.55 2.55 0 0 1 .498-.226c.16-.048.307-.066.44-.055a.782.782 0 0 1 .366.132.95.95 0 0 1 .289.322c.162.281.183.544.063.79s-.357.471-.71.675c-.354.204-.667.297-.94.278-.273-.019-.491-.169-.653-.45Zm.332-.192a.44.44 0 0 0 .146.16.36.36 0 0 0 .189.048.64.64 0 0 0 .227-.044c.085-.03.173-.072.267-.125l.369-.214c.186-.107.316-.221.39-.341.075-.118.071-.249-.012-.394-.084-.145-.196-.215-.337-.211-.14.007-.303.063-.489.171l-.372.215c-.186.107-.317.22-.392.338-.075.12-.07.252.014.397ZM150.788 180.257a1.248 1.248 0 0 1 .014-.562c.047-.161.122-.299.225-.414l.338.227a.974.974 0 0 0-.184.338.85.85 0 0 0-.013.359.498.498 0 0 0 .153.308c.076.064.175.085.295.064.098-.017.167-.059.207-.124.042-.065.061-.167.059-.305l-.004-.268c0-.235.054-.412.161-.531a.734.734 0 0 1 .423-.223c.235-.042.428.003.58.134.154.13.255.331.302.601.034.193.033.364-.004.514a.875.875 0 0 1-.19.383l-.338-.221a.726.726 0 0 0 .156-.606c-.048-.268-.182-.382-.403-.343-.094.016-.161.057-.2.122-.04.065-.059.168-.059.309v.265c-.002.221-.053.394-.152.518a.666.666 0 0 1-.425.235.84.84 0 0 1-.328-.004.715.715 0 0 1-.487-.394 1.234 1.234 0 0 1-.126-.382ZM150.954 184.05l.346.061-.098.554 1.771.312.098-.554.346.061-.277 1.566-.345-.06.097-.554-1.77-.313-.098.554-.346-.061.276-1.566ZM151.067 189.458l.018-.031-1.554-.897.2-.348 2.165 1.25-.288.5-1.882-.33-.018.031 1.554.897-.2.348-2.165-1.25.288-.5 1.882.33ZM146.263 192.927l.022-.019a.942.942 0 0 1-.035-.163.534.534 0 0 1 .076-.339.605.605 0 0 1 .138-.158.633.633 0 0 1 .656-.116c.243.089.495.288.754.598.273.325.423.623.451.893.027.271-.081.508-.324.712a.976.976 0 0 1-.282.171.73.73 0 0 1-.544-.007 1.21 1.21 0 0 1-.253-.134l.251-.369c.047.029.095.056.143.081a.395.395 0 0 0 .144.048.36.36 0 0 0 .297-.086c.119-.1.164-.219.135-.357-.028-.138-.112-.289-.25-.454l-.258-.307a1.848 1.848 0 0 0-.207-.214.756.756 0 0 0-.208-.125.404.404 0 0 0-.204-.026.435.435 0 0 0-.197.1c-.102.086-.154.181-.157.286a.457.457 0 0 0 .119.303l.131.157.348-.293.219.261-.669.562-.841-1.002.321-.269.224.266ZM137.928 197.412v-2.114h.465v2.114h.753v.387h-1.97v-.387h.752ZM133.132 195.42l.687.25.367-1.01.441.161-.855 2.349-.441-.16.355-.976-.686-.25-.356.976-.441-.161.855-2.349.441.16-.367 1.01ZM129.935 192.208a.961.961 0 0 1 .269.338.804.804 0 0 1 .064.385 1.19 1.19 0 0 1-.128.421c-.076.146-.18.297-.312.454-.13.156-.26.283-.391.383-.133.1-.265.167-.394.202a.765.765 0 0 1-.389.001.922.922 0 0 1-.381-.203c-.249-.209-.359-.449-.33-.721.029-.272.174-.564.437-.877.262-.313.525-.507.788-.583.263-.075.518-.009.767.2Zm-.246.294a.448.448 0 0 0-.192-.101.37.37 0 0 0-.194.02.614.614 0 0 0-.198.119 1.58 1.58 0 0 0-.208.209l-.274.326c-.138.165-.222.316-.25.455-.031.136.018.258.146.366.128.107.258.135.389.083.129-.054.263-.163.401-.328l.276-.329c.138-.165.223-.315.253-.452.029-.138-.021-.261-.149-.368ZM125.159 190.486l1.349-.779c.081-.047.152-.09.214-.132a.61.61 0 0 0 .141-.135.29.29 0 0 0 .045-.158.464.464 0 0 0-.07-.208.436.436 0 0 0-.143-.161.258.258 0 0 0-.16-.041.508.508 0 0 0-.188.055c-.067.031-.141.07-.222.116l-1.349.779-.235-.406 1.287-.743c.153-.089.292-.157.417-.204a.793.793 0 0 1 .348-.056c.107.01.209.052.304.126.092.074.183.188.273.344.089.155.143.292.162.41a.576.576 0 0 1-.044.324.79.79 0 0 1-.223.273 2.892 2.892 0 0 1-.384.259l-1.288.743-.234-.406ZM125.175 184.251l.005.028c.053.012.106.03.158.052a.516.516 0 0 1 .256.235.583.583 0 0 1 .068.199.632.632 0 0 1-.228.626c-.198.166-.496.284-.894.354-.418.073-.752.055-.999-.057-.248-.111-.399-.324-.454-.636a.976.976 0 0 1-.008-.33.729.729 0 0 1 .278-.467c.072-.059.153-.11.243-.152l.194.402a1.816 1.816 0 0 0-.142.083.406.406 0 0 0-.113.1.349.349 0 0 0-.074.301c.027.152.107.251.241.295.134.045.307.048.518.011l.395-.07c.106-.019.203-.043.29-.073a.79.79 0 0 0 .212-.117.404.404 0 0 0 .123-.164.429.429 0 0 0 .013-.22c-.024-.132-.08-.225-.17-.279a.45.45 0 0 0-.321-.049l-.201.035.079.448-.335.059-.152-.86 1.287-.228.073.413-.342.061ZM124.617 179.73l-.127.72 1.058.187-.081.462-2.462-.434.081-.463 1.023.181.127-.72-1.023-.18.081-.462 2.463.434-.082.462-1.058-.187ZM125.419 174.839l1.831 1.057-.233.403-1.831-1.057-.376.652-.335-.194.985-1.706.335.194-.376.651ZM129.998 172.742a1.25 1.25 0 0 1-.494.269 1.06 1.06 0 0 1-.471.013l.027-.407a.965.965 0 0 0 .385-.01.835.835 0 0 0 .318-.168c.109-.092.173-.187.19-.286.017-.098-.014-.194-.092-.288-.064-.076-.135-.116-.211-.117-.078-.004-.175.03-.294.101l-.23.138c-.204.118-.384.159-.54.125a.723.723 0 0 1-.405-.254c-.153-.183-.211-.372-.174-.569.036-.199.159-.386.37-.563.15-.126.299-.21.446-.253a.872.872 0 0 1 .427-.026l-.022.402a.725.725 0 0 0-.602.169c-.209.175-.241.348-.097.52.062.073.131.11.207.112.076.002.175-.033.296-.104l.23-.132c.193-.109.368-.151.525-.127a.665.665 0 0 1 .415.25.82.82 0 0 1 .161.286.721.721 0 0 1-.097.619 1.287 1.287 0 0 1-.268.3ZM143.148 195.403a.44.44 0 1 1-.88 0 .44.44 0 0 1 .88 0ZM133.874 169.537a.44.44 0 1 1-.88 0 .44.44 0 0 1 .88 0Z"/></svg>