<svg width="256" height="290" viewBox="0 0 256 290" fill="none" xmlns="http://www.w3.org/2000/svg">
<path d="M163.441 27.0602C163.799 25.6019 163.99 24.0773 163.99 22.5083C163.99 12.0149 155.483 3.5083 144.99 3.5083C143.317 3.5083 141.695 3.72437 140.15 4.13007C137.017 1.85199 133.16 0.508301 128.99 0.508301C124.466 0.508301 120.312 2.08917 117.049 4.72858C115.146 3.93719 113.108 3.5083 110.99 3.5083C100.496 3.5083 91.9896 14.0296 91.9896 27.0083C91.9896 30.265 92.5252 33.3668 93.4934 36.1866C92.5195 38.9462 91.9896 41.9154 91.9896 45.0083C91.9896 48.3563 92.6105 51.5592 93.7433 54.5083C92.6105 57.4574 91.9896 60.6603 91.9896 64.0083C91.9896 65.9325 92.1947 67.8087 92.5842 69.6164C62.3871 83.066 41.3351 113.339 41.3351 148.53V174.476C17.8866 182.294 0.989624 204.408 0.989624 230.482C0.989624 263.081 27.4167 289.508 60.0162 289.508H196.603C229.202 289.508 255.629 263.081 255.629 230.482C255.629 216.927 251.061 204.451 243.393 194.497C248.68 187.967 251.847 179.65 251.847 170.594V157.986C251.847 138.152 235.768 122.074 215.935 122.074C213.93 122.074 211.963 122.238 210.047 122.554C202.707 99.2551 185.753 80.2198 163.838 70.0993C163.645 68.5735 163.271 67.1041 162.738 65.7133C164.186 62.4396 164.99 58.8178 164.99 55.0083C164.99 51.6603 164.369 48.4574 163.236 45.5083C164.369 42.5592 164.99 39.3563 164.99 36.0083C164.99 32.8681 164.443 29.8555 163.441 27.0602Z" fill="#AF71FE"/>
<path d="M17.9896 230.482C17.9896 207.271 36.8056 188.455 60.0162 188.455H196.603C219.813 188.455 238.629 207.271 238.629 230.482C238.629 253.692 219.813 272.508 196.603 272.508H60.0162C36.8056 272.508 17.9896 253.692 17.9896 230.482Z" fill="#FFD600"/>
<path fill-rule="evenodd" clip-rule="evenodd" d="M16.9896 230.482C16.9896 206.719 36.2533 187.455 60.0162 187.455H196.603C220.366 187.455 239.629 206.719 239.629 230.482C239.629 254.245 220.366 273.508 196.603 273.508H60.0162C36.2533 273.508 16.9896 254.245 16.9896 230.482ZM60.0162 189.455C37.3578 189.455 18.9896 207.823 18.9896 230.482C18.9896 253.14 37.3578 271.508 60.0162 271.508H196.603C219.261 271.508 237.629 253.14 237.629 230.482C237.629 207.823 219.261 189.455 196.603 189.455H60.0162Z" fill="#333333"/>
<path d="M58.3351 148.53H197.023V186.354C197.023 224.651 165.976 255.698 127.679 255.698Lnan nanL127.679 255.698C89.3814 255.698 58.3351 224.651 58.3351 186.354V148.53Z" fill="#FF5E71"/>
<path fill-rule="evenodd" clip-rule="evenodd" d="M57.3351 147.53H198.023V186.354C198.023 225.204 166.529 256.698 127.679 256.698C88.8291 256.698 57.3351 225.204 57.3351 186.354V147.53ZM59.3351 149.53V186.354C59.3351 224.099 89.9337 254.698 127.679 254.698C165.424 254.698 196.023 224.099 196.023 186.354V149.53H59.3351Z" fill="#333333"/>
<path d="M197.023 148.53C197.023 186.827 165.976 217.874 127.679 217.874C89.3814 217.874 58.3351 186.827 58.3351 148.53C58.3351 110.232 89.3814 79.186 127.679 79.186C165.976 79.186 197.023 110.232 197.023 148.53Z" fill="#FFD600"/>
<path fill-rule="evenodd" clip-rule="evenodd" d="M127.679 80.186C89.9337 80.186 59.3351 110.785 59.3351 148.53C59.3351 186.275 89.9337 216.874 127.679 216.874C165.424 216.874 196.023 186.275 196.023 148.53C196.023 110.785 165.424 80.186 127.679 80.186ZM57.3351 148.53C57.3351 109.68 88.8291 78.186 127.679 78.186C166.529 78.186 198.023 109.68 198.023 148.53C198.023 187.38 166.529 218.874 127.679 218.874C88.8291 218.874 57.3351 187.38 57.3351 148.53Z" fill="#333333"/>
<path d="M183.574 148.53C183.574 179.4 158.549 204.425 127.679 204.425C96.8089 204.425 71.7837 179.4 71.7837 148.53C71.7837 117.659 96.8089 92.6343 127.679 92.6343C158.549 92.6343 183.574 117.659 183.574 148.53Z" fill="#333333"/>
<path fill-rule="evenodd" clip-rule="evenodd" d="M127.679 93.6343C97.3612 93.6343 72.7837 118.212 72.7837 148.53C72.7837 178.847 97.3612 203.425 127.679 203.425C157.997 203.425 182.574 178.847 182.574 148.53C182.574 118.212 157.997 93.6343 127.679 93.6343ZM70.7837 148.53C70.7837 117.107 96.2566 91.6343 127.679 91.6343C159.101 91.6343 184.574 117.107 184.574 148.53C184.574 179.952 159.101 205.425 127.679 205.425C96.2566 205.425 70.7837 179.952 70.7837 148.53Z" fill="#333333"/>
<path d="M183.574 153.993C183.574 181.846 158.549 204.425 127.679 204.425C96.8089 204.425 71.7837 181.846 71.7837 153.993C71.7837 126.141 96.8089 103.562 127.679 103.562C158.549 103.562 183.574 126.141 183.574 153.993Z" fill="#AF71FE"/>
<path fill-rule="evenodd" clip-rule="evenodd" d="M127.679 104.562C97.2619 104.562 72.7837 126.787 72.7837 153.993C72.7837 181.2 97.2619 203.425 127.679 203.425C158.096 203.425 182.574 181.2 182.574 153.993C182.574 126.787 158.096 104.562 127.679 104.562ZM70.7837 153.993C70.7837 125.494 96.3559 102.562 127.679 102.562C159.002 102.562 184.574 125.494 184.574 153.993C184.574 182.493 159.002 205.425 127.679 205.425C96.3559 205.425 70.7837 182.493 70.7837 153.993Z" fill="#333333"/>
<path fill-rule="evenodd" clip-rule="evenodd" d="M215.935 139.074C205.49 139.074 197.023 147.541 197.023 157.986V191.607H213.833C225.439 191.607 234.847 182.199 234.847 170.594V157.986C234.847 147.541 226.38 139.074 215.935 139.074ZM215.935 145.798C208.74 145.798 202.907 151.631 202.907 158.827V174.376C202.907 178.09 205.917 181.101 209.631 181.101H212.152C221.437 181.101 228.963 173.574 228.963 164.29V158.827C228.963 151.631 223.13 145.798 215.935 145.798Z" fill="#FF5E71"/>
<path fill-rule="evenodd" clip-rule="evenodd" d="M215.935 140.074C206.042 140.074 198.023 148.093 198.023 157.986V190.607H213.833C224.886 190.607 233.847 181.647 233.847 170.594V157.986C233.847 148.093 225.827 140.074 215.935 140.074ZM196.023 157.986C196.023 146.989 204.938 138.074 215.935 138.074C226.932 138.074 235.847 146.989 235.847 157.986V170.594C235.847 182.751 225.991 192.607 213.833 192.607H196.023V157.986ZM215.935 146.798C209.292 146.798 203.907 152.184 203.907 158.827V174.376C203.907 177.538 206.469 180.101 209.631 180.101H212.152C220.884 180.101 227.963 173.022 227.963 164.29V158.827C227.963 152.184 222.578 146.798 215.935 146.798ZM201.907 158.827C201.907 151.079 208.187 144.798 215.935 144.798C223.682 144.798 229.963 151.079 229.963 158.827V164.29C229.963 174.127 221.989 182.101 212.152 182.101H209.631C205.365 182.101 201.907 178.642 201.907 174.376V158.827Z" fill="#333333"/>
<path fill-rule="evenodd" clip-rule="evenodd" d="M110.154 151.447C110.154 143.917 116.144 138.553 123.973 138.553C128.912 138.553 132.306 140.719 134.478 143.456C136.665 146.212 137.607 149.543 137.607 151.817C137.607 159.425 130.878 164.526 123.529 164.526C115.982 164.526 110.154 159.036 110.154 151.447ZM122.271 143.066C121.036 143.066 120.117 143.715 119.526 144.585C118.944 145.443 118.663 146.534 118.663 147.525C118.663 149.173 119.235 152.234 120.309 154.886C120.847 156.215 121.525 157.475 122.346 158.412C123.166 159.348 124.18 160.013 125.379 160.013C126.676 160.013 127.63 159.44 128.243 158.572C128.842 157.724 129.098 156.624 129.098 155.554C129.098 153.804 128.585 150.743 127.522 148.11C126.989 146.793 126.306 145.549 125.453 144.627C124.597 143.7 123.536 143.066 122.271 143.066Z" fill="white"/>
<path d="M139.545 145.305C139.545 143.856 140.167 142.137 141.059 140.774C141.503 140.096 142 139.529 142.494 139.136C142.995 138.737 143.449 138.553 143.818 138.553C143.89 138.553 144.01 138.57 144.234 138.617C144.335 138.638 144.447 138.663 144.578 138.692L144.605 138.698C144.747 138.729 144.906 138.764 145.084 138.802L145.097 138.804L145.109 138.806C145.824 138.919 146.852 139.071 148.369 139.071H157.471C159.104 139.071 159.877 138.918 160.455 138.803L160.475 138.799L160.495 138.793C160.553 138.777 160.607 138.761 160.659 138.746C161.074 138.625 161.319 138.553 161.874 138.553C162.09 138.553 162.448 138.669 162.895 138.974C163.33 139.27 163.802 139.713 164.239 140.282C165.112 141.42 165.814 143.027 165.814 144.898C165.814 145.742 165.595 146.377 165.224 146.796C164.86 147.205 164.296 147.469 163.465 147.469C162.153 147.469 161.486 146.614 160.865 145.537C160.791 145.41 160.717 145.276 160.642 145.141C160.418 144.737 160.183 144.314 159.929 143.982C159.578 143.522 159.097 143.103 158.396 143.103C157.906 143.103 157.515 143.279 157.229 143.569C156.957 143.846 156.809 144.196 156.725 144.51C156.578 145.058 156.595 145.64 156.6 145.84C156.601 145.866 156.601 145.885 156.601 145.897V157.256C156.601 158.417 156.825 159.223 157.222 159.797C157.622 160.376 158.153 160.653 158.615 160.841C158.729 160.888 158.842 160.93 158.946 160.969L158.962 160.975C159.062 161.012 159.154 161.046 159.242 161.082C159.428 161.157 159.568 161.226 159.677 161.306C159.779 161.382 159.853 161.466 159.906 161.579C159.961 161.697 160.005 161.871 160.005 162.14C160.005 162.375 159.97 162.6 159.85 162.815C159.732 163.029 159.507 163.277 159.055 163.516C158.128 164.007 156.326 164.415 152.883 164.415L152.748 164.415C151.738 164.416 149.687 164.418 147.857 164.103C146.895 163.938 146.041 163.693 145.439 163.343C144.845 162.999 144.577 162.606 144.577 162.14C144.577 161.759 144.683 161.576 144.8 161.461C144.939 161.323 145.152 161.221 145.478 161.111C145.547 161.087 145.622 161.063 145.703 161.037C145.963 160.954 146.272 160.855 146.544 160.722C146.925 160.536 147.304 160.257 147.554 159.783L147.559 159.774L147.563 159.765C147.683 159.514 147.771 159.18 147.839 158.838C147.909 158.488 147.966 158.093 148.011 157.702C148.1 156.918 148.147 156.119 148.166 155.648L148.462 147.469C148.536 145.529 148.389 144.448 148.085 143.845C147.919 143.517 147.694 143.304 147.419 143.194C147.188 143.102 146.959 143.103 146.84 143.103L146.815 143.103C146.168 143.103 145.676 143.528 145.302 143.957C145.201 144.073 145.099 144.201 144.997 144.335C144.825 144.562 144.654 144.807 144.484 145.05L144.483 145.051C144.379 145.202 144.274 145.351 144.171 145.494C143.381 146.591 142.562 147.469 141.339 147.469C140.277 147.469 139.545 146.479 139.545 145.305Z" fill="white"/>
<path d="M168.38 143.714C168.38 142.414 168.689 141.103 169.336 140.135C169.969 139.187 170.93 138.553 172.32 138.553C173.71 138.553 174.67 139.187 175.303 140.135C175.95 141.103 176.26 142.414 176.26 143.714C176.26 145.907 175.439 148.604 174.427 150.592L174.424 150.598L174.421 150.604C174.262 150.939 173.869 151.69 173.408 152.35C173.177 152.681 172.942 152.97 172.723 153.172C172.485 153.392 172.352 153.426 172.32 153.426C172.287 153.426 172.155 153.392 171.916 153.172C171.698 152.97 171.462 152.681 171.231 152.35C170.771 151.69 170.377 150.939 170.219 150.604L170.215 150.598L170.212 150.592C169.2 148.604 168.38 145.907 168.38 143.714Z" fill="white"/>
<path d="M79.2666 141.309C79.2666 140.811 79.5257 140.394 80.0513 140.026C80.5879 139.65 81.3545 139.364 82.2311 139.155C83.9778 138.738 85.9944 138.664 87.0176 138.664C87.7853 138.664 89.1953 138.711 90.3996 139.019C91.004 139.173 91.5139 139.383 91.8631 139.653C92.1974 139.911 92.3636 140.204 92.3636 140.569C92.3636 141.037 92.2408 141.307 92.0619 141.517C91.8605 141.754 91.5657 141.945 91.1312 142.21C90.8877 142.346 90.6475 142.502 90.4443 142.725C90.2329 142.958 90.0858 143.236 89.9832 143.588C89.7886 144.256 89.7366 145.264 89.7366 146.896C89.7366 147.443 89.7984 147.896 89.9573 148.256C90.1269 148.64 90.397 148.894 90.746 149.041C91.0678 149.176 91.4334 149.209 91.7857 149.217C91.9878 149.222 92.2242 149.218 92.4684 149.215C92.6363 149.212 92.808 149.209 92.9746 149.209H94.8616C95.4792 149.209 95.9635 149.186 96.3391 149.128C96.7079 149.07 97.0331 148.969 97.279 148.767C97.5467 148.547 97.6535 148.264 97.6968 147.992C97.7312 147.776 97.7305 147.525 97.7298 147.289L97.7296 147.192C97.7296 145.167 97.5741 144.02 97.3252 143.332C97.1966 142.976 97.0367 142.724 96.8454 142.537C96.6752 142.371 96.4968 142.276 96.3857 142.217L96.3632 142.205L96.2757 142.154C95.9458 141.964 95.7047 141.825 95.5251 141.645C95.3598 141.48 95.2506 141.281 95.2506 140.939L95.2506 140.905C95.2503 140.728 95.2501 140.561 95.3152 140.372C95.3795 140.186 95.5214 139.946 95.8798 139.701C96.6308 139.185 98.302 138.664 101.966 138.664C102.839 138.664 104.451 138.675 105.836 138.994C106.53 139.154 107.121 139.381 107.529 139.688C107.919 139.981 108.126 140.332 108.126 140.791C108.126 141.11 108.047 141.352 107.916 141.547C107.783 141.743 107.575 141.921 107.267 142.077C107.232 142.092 107.196 142.107 107.158 142.123C106.943 142.213 106.684 142.321 106.469 142.486C106.175 142.712 105.97 143.024 105.827 143.482C105.688 143.923 105.6 144.523 105.544 145.358C105.487 146.2 105.462 147.309 105.462 148.783V158.403C105.462 158.964 105.495 159.478 105.707 159.933C105.93 160.409 106.313 160.753 106.866 161.06L106.868 161.061L106.997 161.132C107.325 161.312 107.521 161.419 107.662 161.56C107.776 161.674 107.867 161.827 107.867 162.177C107.867 162.394 107.859 162.591 107.778 162.792C107.701 162.981 107.54 163.217 107.156 163.454C106.353 163.949 104.634 164.415 101.004 164.415C100.186 164.415 98.6483 164.404 97.3232 164.1C96.6586 163.947 96.0937 163.73 95.7051 163.438C95.3339 163.16 95.1396 162.83 95.1396 162.399V162.386L95.139 162.373C95.1059 161.737 95.2383 161.572 95.3255 161.49C95.3935 161.425 95.4838 161.369 95.6407 161.28L95.678 161.259C95.8187 161.179 96.0002 161.077 96.1826 160.937C97.0488 160.276 97.7296 158.964 97.7296 155.184C97.7296 154.676 97.7025 154.254 97.6156 153.916C97.5248 153.563 97.358 153.263 97.0563 153.059C96.7757 152.869 96.4403 152.808 96.1146 152.782C95.8334 152.759 95.4965 152.76 95.1232 152.76L94.9356 152.76C93.6469 152.76 92.6801 152.769 91.9681 152.838C91.2742 152.905 90.7085 153.035 90.3177 153.371C89.899 153.731 89.7824 154.233 89.7438 154.753C89.7185 155.094 89.724 155.515 89.7303 155.997C89.7334 156.231 89.7366 156.479 89.7366 156.738C89.7366 158.037 89.8826 158.928 90.1283 159.568C90.3817 160.227 90.733 160.597 91.0857 160.858C91.2075 160.949 91.3365 161.031 91.4415 161.097C91.4745 161.118 91.5051 161.138 91.5325 161.155C91.6592 161.238 91.744 161.301 91.8095 161.37C91.9125 161.478 92.0306 161.665 92.0306 162.177C92.0306 162.618 91.8127 162.976 91.37 163.29C90.9133 163.613 90.2558 163.856 89.4958 164.03C87.982 164.378 86.2355 164.415 85.3526 164.415C84.5071 164.415 82.8448 164.378 81.4061 164.04C80.6838 163.871 80.0617 163.635 79.6307 163.324C79.2142 163.023 79.0076 162.678 79.0076 162.251C79.0076 161.767 79.3392 161.416 79.9051 161.149C79.95 161.128 79.9968 161.107 80.0449 161.085C80.3076 160.964 80.61 160.826 80.8619 160.61C81.1899 160.329 81.4171 159.945 81.5789 159.371C81.8882 158.274 82.0046 156.293 82.0046 152.446C82.0046 147.554 81.97 145.235 81.7511 144.058C81.6379 143.449 81.4599 143.045 81.1324 142.757C80.9802 142.623 80.816 142.533 80.6701 142.46C80.6103 142.43 80.5567 142.404 80.5044 142.379C80.415 142.336 80.3297 142.295 80.2254 142.238L80.2229 142.237L80.1986 142.224C79.9139 142.072 79.6795 141.947 79.5039 141.789C79.3434 141.644 79.2666 141.502 79.2666 141.309Z" fill="white"/>
<path d="M168.713 160.919C168.713 158.938 170.339 157.312 172.32 157.312C174.301 157.312 175.927 158.938 175.927 160.919C175.927 162.9 174.301 164.526 172.32 164.526C170.339 164.526 168.713 162.9 168.713 160.919Z" fill="white"/>
<path fill-rule="evenodd" clip-rule="evenodd" d="M128.853 17.5798C129.366 17.785 129.615 18.3669 129.41 18.8797L128.296 21.6648C127.56 23.5052 127.87 25.5993 129.108 27.1471C130.981 29.4885 131.281 32.7203 129.87 35.366L129.099 36.8115C127.845 39.162 127.845 41.9826 129.099 44.333L129.364 44.8297C131.097 48.0788 131.097 51.9777 129.364 55.2268L129.078 55.7618C127.777 58.2017 127.524 61.0657 128.377 63.696L129.433 66.9507C129.603 67.476 129.315 68.04 128.79 68.2104C128.265 68.3808 127.701 68.093 127.53 67.5677L126.475 64.313C125.454 61.1662 125.757 57.7396 127.314 54.8207L127.599 54.2857C129.018 51.6248 129.018 48.4317 127.599 45.7709L127.334 45.2742C125.767 42.3355 125.767 38.8091 127.334 35.8703L128.105 34.4248C129.14 32.4843 128.92 30.1139 127.546 28.3965C125.858 26.2862 125.435 23.4312 126.439 20.922L127.553 18.1369C127.758 17.6241 128.34 17.3747 128.853 17.5798Z" fill="#333333"/>
<path fill-rule="evenodd" clip-rule="evenodd" d="M112.883 20.9422C113.395 21.1473 113.645 21.7292 113.44 22.242L112.326 25.0271C111.59 26.8675 111.9 28.9616 113.138 30.5094C115.011 32.8508 115.311 36.0826 113.9 38.7283L113.129 40.1738C111.875 42.5243 111.875 45.3449 113.129 47.6953L113.394 48.192C115.126 51.4411 115.126 55.34 113.394 58.5891L113.108 59.1241C111.807 61.564 111.554 64.428 112.407 67.0583L113.462 70.313C113.633 70.8383 113.345 71.4023 112.82 71.5727C112.294 71.7431 111.73 71.4553 111.56 70.93L110.504 67.6753C109.484 64.5285 109.787 61.102 111.344 58.183L111.629 57.648C113.048 54.9871 113.048 51.794 111.629 49.1332L111.364 48.6365C109.797 45.6978 109.797 42.1714 111.364 39.2326L112.135 37.7872C113.17 35.8466 112.95 33.4762 111.576 31.7588C109.888 29.6485 109.465 26.7935 110.469 24.2843L111.583 21.4992C111.788 20.9865 112.37 20.737 112.883 20.9422Z" fill="#333333"/>
<path fill-rule="evenodd" clip-rule="evenodd" d="M144.823 20.9422C145.336 21.1473 145.585 21.7292 145.38 22.242L144.266 25.0271C143.53 26.8675 143.84 28.9616 145.078 30.5094C146.951 32.8508 147.251 36.0826 145.84 38.7283L145.069 40.1738C143.815 42.5243 143.815 45.3449 145.069 47.6953L145.334 48.192C147.067 51.4411 147.067 55.34 145.334 58.5891L145.048 59.1241C143.747 61.564 143.494 64.428 144.347 67.0583L145.403 70.313C145.573 70.8383 145.285 71.4023 144.76 71.5727C144.235 71.7431 143.671 71.4553 143.5 70.93L142.445 67.6753C141.424 64.5285 141.727 61.102 143.284 58.183L143.569 57.648C144.988 54.9871 144.988 51.794 143.569 49.1332L143.304 48.6365C141.737 45.6978 141.737 42.1714 143.304 39.2326L144.075 37.7872C145.11 35.8466 144.89 33.4762 143.517 31.7588C141.828 29.6485 141.405 26.7935 142.409 24.2843L143.523 21.4992C143.728 20.9865 144.31 20.737 144.823 20.9422Z" fill="#333333"/>
<path d="M138.51 169.76C138.348 169.76 138.207 169.732 138.088 169.674C137.968 169.615 137.869 169.53 137.79 169.42C137.714 169.31 137.657 169.175 137.618 169.015C137.583 168.855 137.565 168.673 137.565 168.467C137.565 168.264 137.583 168.083 137.618 167.923C137.657 167.76 137.714 167.624 137.79 167.514C137.869 167.405 137.968 167.321 138.088 167.264C138.207 167.204 138.348 167.174 138.51 167.174C138.835 167.174 139.074 167.288 139.227 167.514C139.38 167.741 139.456 168.059 139.456 168.467C139.456 168.876 139.38 169.193 139.227 169.42C139.074 169.647 138.835 169.76 138.51 169.76ZM138.51 169.377C138.594 169.377 138.664 169.362 138.722 169.331C138.779 169.297 138.824 169.251 138.858 169.191C138.894 169.131 138.919 169.058 138.933 168.972C138.95 168.884 138.958 168.786 138.958 168.679V168.252C138.958 168.037 138.925 167.868 138.858 167.744C138.793 167.62 138.677 167.557 138.51 167.557C138.343 167.557 138.226 167.62 138.159 167.744C138.095 167.868 138.063 168.037 138.063 168.252V168.682C138.063 168.897 138.095 169.067 138.159 169.191C138.226 169.315 138.343 169.377 138.51 169.377Z" fill="white"/>
<path d="M141.966 170.235L142.821 167.886L143.713 168.21C143.942 168.294 144.094 168.423 144.167 168.597C144.241 168.771 144.237 168.97 144.156 169.195C144.074 169.419 143.949 169.574 143.78 169.66C143.612 169.747 143.413 169.748 143.184 169.665L142.733 169.5L142.407 170.396L141.966 170.235ZM142.864 169.14L143.224 169.271C143.343 169.315 143.437 169.322 143.506 169.294C143.575 169.263 143.629 169.195 143.668 169.09L143.714 168.962C143.753 168.856 143.755 168.771 143.72 168.705C143.687 168.637 143.61 168.581 143.491 168.538L143.131 168.406L142.864 169.14Z" fill="white"/>
<path d="M145.936 172.255L147.543 170.34L148.27 170.95C148.457 171.106 148.555 171.279 148.564 171.468C148.574 171.657 148.502 171.843 148.349 172.026C148.195 172.209 148.025 172.312 147.837 172.335C147.649 172.358 147.462 172.292 147.275 172.135L146.908 171.827L146.295 172.556L145.936 172.255ZM147.154 171.533L147.448 171.779C147.544 171.861 147.63 171.9 147.704 171.897C147.78 171.892 147.854 171.846 147.926 171.76L148.014 171.656C148.086 171.57 148.117 171.49 148.107 171.416C148.099 171.341 148.046 171.262 147.949 171.181L147.656 170.935L147.154 171.533Z" fill="white"/>
<path d="M149.332 176.215C149.251 176.074 149.205 175.938 149.195 175.806C149.187 175.672 149.211 175.544 149.267 175.421C149.323 175.3 149.412 175.183 149.531 175.07C149.652 174.959 149.801 174.852 149.979 174.749C150.155 174.648 150.321 174.572 150.477 174.523C150.637 174.475 150.784 174.457 150.917 174.468C151.051 174.481 151.173 174.526 151.283 174.6C151.394 174.674 151.49 174.781 151.572 174.922C151.734 175.203 151.755 175.466 151.635 175.712C151.515 175.958 151.278 176.183 150.925 176.387C150.571 176.591 150.258 176.684 149.985 176.665C149.712 176.646 149.494 176.496 149.332 176.215ZM149.664 176.023C149.706 176.095 149.754 176.149 149.81 176.183C149.867 176.216 149.93 176.232 149.999 176.231C150.068 176.232 150.144 176.217 150.226 176.187C150.311 176.157 150.399 176.115 150.493 176.062L150.862 175.848C151.048 175.741 151.178 175.627 151.252 175.507C151.327 175.389 151.323 175.258 151.24 175.113C151.156 174.968 151.044 174.898 150.903 174.902C150.763 174.909 150.6 174.965 150.414 175.073L150.042 175.288C149.856 175.395 149.725 175.508 149.65 175.626C149.575 175.746 149.58 175.878 149.664 176.023Z" fill="white"/>
<path d="M150.788 180.257C150.751 180.046 150.755 179.858 150.802 179.695C150.849 179.534 150.924 179.396 151.027 179.281L151.365 179.508C151.276 179.619 151.214 179.731 151.181 179.846C151.151 179.963 151.147 180.083 151.168 180.205C151.193 180.346 151.244 180.449 151.321 180.513C151.397 180.577 151.496 180.598 151.616 180.577C151.714 180.56 151.783 180.518 151.823 180.453C151.865 180.388 151.884 180.286 151.882 180.148L151.878 179.88C151.878 179.645 151.932 179.468 152.039 179.349C152.149 179.231 152.29 179.156 152.462 179.126C152.697 179.084 152.89 179.129 153.042 179.26C153.196 179.39 153.297 179.591 153.344 179.861C153.378 180.054 153.377 180.225 153.34 180.375C153.304 180.527 153.241 180.654 153.15 180.758L152.812 180.537C152.878 180.457 152.926 180.368 152.954 180.268C152.985 180.168 152.99 180.056 152.968 179.931C152.92 179.663 152.786 179.549 152.565 179.588C152.471 179.604 152.404 179.645 152.365 179.71C152.325 179.775 152.306 179.878 152.306 180.019L152.306 180.284C152.304 180.505 152.253 180.678 152.154 180.802C152.054 180.927 151.913 181.005 151.729 181.037C151.614 181.057 151.505 181.056 151.401 181.033C151.3 181.01 151.208 180.965 151.123 180.9C151.042 180.835 150.972 180.748 150.914 180.639C150.856 180.533 150.814 180.406 150.788 180.257Z" fill="white"/>
<path d="M150.954 184.05L151.3 184.111L151.202 184.665L152.973 184.977L153.071 184.423L153.417 184.484L153.14 186.05L152.795 185.99L152.892 185.436L151.122 185.123L151.024 185.677L150.678 185.616L150.954 184.05Z" fill="white"/>
<path d="M151.067 189.458L151.085 189.427L149.531 188.53L149.731 188.182L151.896 189.432L151.608 189.932L149.726 189.602L149.708 189.633L151.262 190.53L151.062 190.878L148.897 189.628L149.185 189.128L151.067 189.458Z" fill="white"/>
<path d="M146.263 192.927L146.285 192.908C146.269 192.856 146.257 192.802 146.25 192.745C146.244 192.689 146.246 192.632 146.258 192.576C146.269 192.519 146.292 192.462 146.326 192.406C146.358 192.351 146.404 192.298 146.464 192.248C146.658 192.085 146.877 192.047 147.12 192.132C147.363 192.221 147.615 192.42 147.874 192.73C148.147 193.055 148.297 193.353 148.325 193.623C148.352 193.894 148.244 194.131 148.001 194.335C147.905 194.415 147.811 194.472 147.719 194.506C147.624 194.542 147.532 194.558 147.442 194.556C147.351 194.554 147.262 194.536 147.175 194.499C147.088 194.466 147.004 194.421 146.922 194.365L147.173 193.996C147.22 194.025 147.268 194.052 147.316 194.077C147.363 194.103 147.411 194.119 147.46 194.125C147.508 194.134 147.556 194.132 147.605 194.12C147.655 194.109 147.706 194.082 147.757 194.039C147.876 193.939 147.921 193.82 147.892 193.682C147.864 193.544 147.78 193.393 147.642 193.228L147.384 192.921C147.315 192.838 147.246 192.767 147.177 192.707C147.107 192.65 147.038 192.608 146.969 192.582C146.9 192.555 146.832 192.547 146.765 192.556C146.7 192.568 146.634 192.601 146.568 192.656C146.466 192.742 146.414 192.837 146.411 192.942C146.41 193.049 146.45 193.15 146.53 193.245L146.661 193.402L147.009 193.109L147.228 193.37L146.559 193.932L145.718 192.93L146.039 192.661L146.263 192.927Z" fill="white"/>
<path d="M137.928 197.412V195.298H138.393V197.412H139.146V197.799H137.176V197.412H137.928Z" fill="white"/>
<path d="M133.132 195.42L133.819 195.67L134.186 194.66L134.627 194.821L133.772 197.17L133.331 197.01L133.686 196.034L133 195.784L132.644 196.76L132.203 196.599L133.058 194.25L133.499 194.41L133.132 195.42Z" fill="white"/>
<path d="M129.935 192.208C130.06 192.312 130.149 192.425 130.204 192.546C130.257 192.668 130.278 192.797 130.268 192.931C130.256 193.065 130.213 193.205 130.14 193.352C130.064 193.498 129.96 193.649 129.828 193.806C129.698 193.962 129.568 194.089 129.437 194.189C129.304 194.289 129.172 194.356 129.043 194.391C128.912 194.425 128.782 194.425 128.654 194.392C128.524 194.361 128.397 194.294 128.273 194.189C128.024 193.98 127.914 193.74 127.943 193.468C127.972 193.196 128.117 192.904 128.38 192.591C128.642 192.278 128.905 192.084 129.168 192.008C129.431 191.933 129.686 191.999 129.935 192.208ZM129.689 192.502C129.625 192.448 129.561 192.415 129.497 192.401C129.432 192.39 129.367 192.397 129.303 192.421C129.237 192.444 129.171 192.483 129.105 192.54C129.035 192.597 128.966 192.667 128.897 192.749L128.623 193.075C128.485 193.24 128.401 193.391 128.373 193.53C128.342 193.666 128.391 193.788 128.519 193.896C128.647 194.003 128.777 194.031 128.908 193.979C129.037 193.925 129.171 193.816 129.309 193.651L129.585 193.322C129.723 193.157 129.808 193.007 129.838 192.87C129.867 192.732 129.817 192.609 129.689 192.502Z" fill="white"/>
<path d="M125.159 190.486L126.508 189.707C126.589 189.66 126.66 189.617 126.722 189.575C126.782 189.532 126.829 189.487 126.863 189.44C126.893 189.392 126.908 189.34 126.908 189.282C126.906 189.222 126.883 189.153 126.838 189.074C126.792 188.996 126.745 188.942 126.695 188.913C126.644 188.881 126.591 188.868 126.535 188.872C126.477 188.876 126.414 188.894 126.347 188.927C126.28 188.958 126.206 188.997 126.125 189.043L124.776 189.822L124.541 189.416L125.828 188.673C125.981 188.584 126.12 188.516 126.245 188.469C126.369 188.422 126.485 188.404 126.593 188.413C126.7 188.423 126.802 188.465 126.897 188.539C126.989 188.613 127.08 188.727 127.17 188.883C127.259 189.038 127.313 189.175 127.332 189.293C127.348 189.411 127.333 189.519 127.288 189.617C127.242 189.715 127.168 189.806 127.065 189.89C126.962 189.974 126.834 190.061 126.681 190.149L125.393 190.892L125.159 190.486Z" fill="white"/>
<path d="M125.175 184.251L125.18 184.279C125.233 184.291 125.286 184.309 125.338 184.331C125.391 184.353 125.439 184.384 125.482 184.422C125.525 184.46 125.562 184.508 125.594 184.566C125.626 184.621 125.649 184.687 125.662 184.765C125.706 185.014 125.63 185.223 125.434 185.391C125.236 185.557 124.938 185.675 124.54 185.745C124.122 185.818 123.788 185.8 123.541 185.688C123.293 185.577 123.142 185.364 123.087 185.052C123.065 184.929 123.063 184.819 123.079 184.722C123.096 184.622 123.128 184.534 123.175 184.458C123.222 184.379 123.282 184.311 123.357 184.255C123.429 184.196 123.51 184.145 123.6 184.103L123.794 184.505C123.745 184.531 123.698 184.558 123.652 184.588C123.606 184.616 123.569 184.649 123.539 184.688C123.507 184.725 123.484 184.768 123.471 184.817C123.455 184.865 123.453 184.923 123.465 184.989C123.492 185.141 123.572 185.24 123.706 185.284C123.84 185.329 124.013 185.332 124.224 185.295L124.619 185.225C124.725 185.206 124.822 185.182 124.909 185.152C124.993 185.12 125.063 185.081 125.121 185.035C125.178 184.988 125.219 184.934 125.244 184.871C125.267 184.809 125.271 184.735 125.257 184.651C125.233 184.519 125.177 184.426 125.087 184.372C124.995 184.317 124.888 184.301 124.766 184.323L124.565 184.358L124.644 184.806L124.309 184.865L124.157 184.005L125.444 183.777L125.517 184.19L125.175 184.251Z" fill="white"/>
<path d="M124.617 179.73L124.49 180.45L125.548 180.637L125.467 181.099L123.005 180.665L123.086 180.202L124.109 180.383L124.236 179.663L123.213 179.483L123.294 179.021L125.757 179.455L125.675 179.917L124.617 179.73Z" fill="white"/>
<path d="M125.419 174.839L127.25 175.896L127.017 176.299L125.186 175.242L124.81 175.894L124.475 175.7L125.46 173.994L125.795 174.188L125.419 174.839Z" fill="white"/>
<path d="M129.998 172.742C129.833 172.88 129.669 172.97 129.504 173.011C129.341 173.051 129.184 173.055 129.033 173.024L129.06 172.617C129.201 172.639 129.329 172.636 129.445 172.607C129.562 172.575 129.667 172.519 129.763 172.439C129.872 172.347 129.936 172.252 129.953 172.153C129.97 172.055 129.939 171.959 129.861 171.865C129.797 171.789 129.726 171.749 129.65 171.748C129.572 171.744 129.475 171.778 129.356 171.849L129.126 171.987C128.922 172.105 128.742 172.146 128.586 172.112C128.428 172.077 128.293 171.992 128.181 171.858C128.028 171.675 127.97 171.486 128.007 171.289C128.043 171.09 128.166 170.903 128.377 170.726C128.527 170.6 128.676 170.516 128.823 170.473C128.973 170.428 129.115 170.42 129.25 170.447L129.228 170.849C129.126 170.832 129.025 170.835 128.924 170.861C128.822 170.884 128.723 170.936 128.626 171.018C128.417 171.193 128.385 171.366 128.529 171.538C128.591 171.611 128.66 171.648 128.736 171.65C128.812 171.652 128.911 171.617 129.032 171.546L129.262 171.414C129.455 171.305 129.63 171.263 129.787 171.287C129.944 171.311 130.083 171.394 130.202 171.537C130.278 171.626 130.331 171.722 130.363 171.823C130.393 171.922 130.401 172.025 130.387 172.13C130.371 172.234 130.331 172.338 130.266 172.442C130.202 172.545 130.113 172.645 129.998 172.742Z" fill="white"/>
<path d="M143.148 195.403C143.148 195.646 142.951 195.843 142.708 195.843C142.465 195.843 142.268 195.646 142.268 195.403C142.268 195.16 142.465 194.963 142.708 194.963C142.951 194.963 143.148 195.16 143.148 195.403Z" fill="white"/>
<path d="M133.874 169.537C133.874 169.78 133.677 169.977 133.434 169.977C133.191 169.977 132.993 169.78 132.993 169.537C132.993 169.294 133.191 169.096 133.434 169.096C133.677 169.096 133.874 169.294 133.874 169.537Z" fill="white"/>
</svg>
