<svg width="275" height="249" viewBox="0 0 275 249" fill="none" xmlns="http://www.w3.org/2000/svg">
<path fill-rule="evenodd" clip-rule="evenodd" d="M155.769 14.7553C153.788 6.57983 146.422 0.508301 137.638 0.508301C128.851 0.508301 121.483 6.5834 119.505 14.7625C114.532 11.4584 108.067 10.584 102.113 12.9895C92.7181 16.7854 88.0813 27.3402 91.5434 36.7843H61.8857C28.1202 36.7843 0.747803 64.1567 0.747803 97.9222V118.612C0.747803 152.377 28.1202 179.75 61.8857 179.75H88.2897C88.695 179.75 89.0237 180.078 89.0237 180.484C89.0237 185.489 90.5496 190.137 93.1616 193.989V215.164C93.1616 226.533 101.588 235.934 112.535 237.463C117.643 244.291 125.789 248.715 134.989 248.715H140.506C149.707 248.715 157.852 244.291 162.96 237.463C173.908 235.934 182.334 226.533 182.334 215.164V193.989C184.946 190.137 186.472 185.489 186.472 180.484C186.472 180.078 186.801 179.75 187.206 179.75H213.61C247.375 179.75 274.748 152.377 274.748 118.612V97.9222C274.748 64.1567 247.375 36.7843 213.61 36.7843H183.719C187.182 27.3402 182.545 16.7854 173.149 12.9895C167.2 10.5857 160.74 11.4571 155.769 14.7553ZM112.92 187.577H113.117L159.817 220.681H154.3C152.776 220.681 151.576 221.935 151.2 223.412C149.985 228.185 145.658 231.715 140.506 231.715H134.989C129.838 231.715 125.51 228.185 124.295 223.412C123.919 221.935 122.72 220.681 121.196 220.681H115.679C112.632 220.681 110.162 218.211 110.162 215.164V190.336C110.162 188.812 111.397 187.577 112.92 187.577Z" fill="#AF71FE"/>
<path d="M135.983 19.1634C135.983 18.2492 136.724 17.5082 137.638 17.5082C138.552 17.5082 139.293 18.2492 139.293 19.1634V43.4392C139.293 44.3533 138.552 45.0944 137.638 45.0944C136.724 45.0944 135.983 44.3533 135.983 43.4392V19.1634Z" fill="#333333"/>
<path d="M110.726 29.7043C110.369 28.8215 109.365 28.3949 108.482 28.7516C107.599 29.1083 107.172 30.1132 107.529 30.9961L112.747 43.9102C113.01 44.5619 113.642 44.9885 114.345 44.9885C115.568 44.9885 116.402 43.7518 115.944 42.6185L110.726 29.7043Z" fill="#333333"/>
<path d="M167.734 30.9961C168.091 30.1132 167.664 29.1083 166.781 28.7516C165.898 28.3949 164.893 28.8215 164.537 29.7043L159.319 42.6185C158.861 43.7518 159.695 44.9885 160.918 44.9885C161.62 44.9885 162.253 44.5619 162.516 43.9102L167.734 30.9961Z" fill="#333333"/>
<path d="M257.748 97.9222C257.748 73.5455 237.987 53.7843 213.61 53.7843H61.8857C37.509 53.7843 17.7478 73.5455 17.7478 97.9222V118.612C17.7478 142.989 37.509 162.75 61.8857 162.75H88.2897C98.0839 162.75 106.024 170.69 106.024 180.484C106.024 184.401 109.2 187.577 113.117 187.577H162.378C166.296 187.577 169.472 184.401 169.472 180.484C169.472 170.69 177.412 162.75 187.206 162.75H213.61C237.987 162.75 257.748 142.989 257.748 118.612V97.9222Z" fill="#FFD600"/>
<path fill-rule="evenodd" clip-rule="evenodd" d="M16.7478 97.9222C16.7478 72.9932 36.9567 52.7843 61.8857 52.7843H213.61C238.539 52.7843 258.748 72.9932 258.748 97.9222V118.612C258.748 143.541 238.539 163.75 213.61 163.75H187.206C177.964 163.75 170.472 171.242 170.472 180.484C170.472 184.954 166.848 188.577 162.378 188.577H113.117C108.647 188.577 105.024 184.954 105.024 180.484C105.024 171.242 97.5316 163.75 88.2897 163.75H61.8857C36.9567 163.75 16.7478 143.541 16.7478 118.612V97.9222ZM61.8857 54.7843C38.0613 54.7843 18.7478 74.0978 18.7478 97.9222V118.612C18.7478 142.436 38.0613 161.75 61.8857 161.75H88.2897C98.6362 161.75 107.024 170.137 107.024 180.484C107.024 183.849 109.752 186.577 113.117 186.577H162.378C165.744 186.577 168.472 183.849 168.472 180.484C168.472 170.137 176.859 161.75 187.206 161.75H213.61C237.434 161.75 256.748 142.436 256.748 118.612V97.9222C256.748 74.0978 237.434 54.7843 213.61 54.7843H61.8857Z" fill="#333333"/>
<path d="M110.162 190.336C110.162 188.812 111.397 187.577 112.92 187.577H162.575C164.099 187.577 165.334 188.812 165.334 190.336V215.164C165.334 218.211 162.864 220.681 159.817 220.681H115.679C112.632 220.681 110.162 218.211 110.162 215.164V190.336Z" fill="#2678F4"/>
<path fill-rule="evenodd" clip-rule="evenodd" d="M109.162 190.336C109.162 188.26 110.844 186.577 112.92 186.577H162.575C164.651 186.577 166.334 188.26 166.334 190.336V215.164C166.334 218.763 163.416 221.681 159.817 221.681H115.679C112.079 221.681 109.162 218.763 109.162 215.164V190.336ZM112.92 188.577C111.949 188.577 111.162 189.365 111.162 190.336V215.164C111.162 217.658 113.184 219.681 115.679 219.681H159.817C162.312 219.681 164.334 217.658 164.334 215.164V190.336C164.334 189.365 163.547 188.577 162.575 188.577H112.92Z" fill="#333333"/>
<path d="M123.955 220.681H151.541C151.541 226.775 146.601 231.715 140.506 231.715H134.989C128.895 231.715 123.955 226.775 123.955 220.681Z" fill="#333333"/>
<path fill-rule="evenodd" clip-rule="evenodd" d="M125.004 221.681C125.506 226.753 129.785 230.715 134.989 230.715H140.506C145.711 230.715 149.99 226.753 150.492 221.681H125.004ZM151.541 220.681V219.681H123.955V220.681H122.955C122.955 227.327 128.343 232.715 134.989 232.715H140.506C147.153 232.715 152.541 227.327 152.541 220.681H151.541Z" fill="#333333"/>
<rect x="106.024" y="195.853" width="63.4483" height="4.13793" rx="2.06897" fill="#333333"/>
<rect x="106.024" y="208.267" width="63.4483" height="4.13793" rx="2.06897" fill="#333333"/>
<path d="M160.354 86.2307C164.683 86.2307 167.194 85.9078 168.773 85.5718C169.542 85.4083 170.08 85.2437 170.472 85.1234L170.506 85.1129C170.935 84.9816 171.07 84.9507 171.17 84.9507C172.433 84.9507 173.521 86.0488 174.34 87.9221C175.13 89.7282 175.492 91.882 175.492 93.1766C175.492 94.1417 175.298 95.1261 174.882 95.837C174.492 96.5035 173.922 96.9225 173.026 96.9225C172.481 96.9225 172.112 96.8398 171.846 96.7271C171.587 96.6169 171.384 96.4601 171.195 96.2488C170.994 96.0254 170.815 95.7505 170.594 95.3902L170.507 95.2472C170.315 94.9324 170.092 94.5664 169.825 94.2023C169.181 93.3261 168.275 92.4477 166.702 91.803C165.156 91.1693 163.01 90.7785 159.906 90.7785C158.127 90.7785 156.744 90.8562 155.698 91.1197C154.615 91.3926 153.801 91.8894 153.294 92.7714C152.826 93.5874 152.691 94.6235 152.646 95.7921C152.616 96.5565 152.624 97.4637 152.633 98.4994C152.639 99.0566 152.644 99.6512 152.644 100.281C152.644 101.197 152.654 101.965 152.744 102.573C152.835 103.186 153.025 103.782 153.505 104.225C153.973 104.659 154.584 104.821 155.209 104.898C155.839 104.976 156.639 104.983 157.602 104.983C158.314 104.983 158.932 104.852 159.456 104.581C159.986 104.306 160.37 103.912 160.648 103.465C161.168 102.626 161.326 101.559 161.452 100.714L161.455 100.695C161.595 99.7499 161.703 99.0452 161.981 98.5479C162.105 98.3273 162.249 98.1762 162.433 98.0729C162.62 97.9671 162.907 97.8787 163.362 97.8787C163.96 97.8787 164.438 98.1514 164.862 98.7079C165.306 99.2905 165.65 100.143 165.902 101.153C166.403 103.165 166.468 105.509 166.468 106.745C166.468 108.029 166.357 110.519 165.792 112.661C165.509 113.736 165.13 114.653 164.647 115.284C164.182 115.892 163.665 116.187 163.042 116.187C162.669 116.187 162.47 116.109 162.359 116.036C162.248 115.965 162.146 115.85 162.052 115.641C161.952 115.422 161.875 115.136 161.804 114.761C161.769 114.577 161.738 114.385 161.704 114.176L161.7 114.155C161.668 113.956 161.633 113.744 161.594 113.531C161.433 112.667 161.165 111.609 160.382 110.785C159.569 109.93 158.344 109.467 156.578 109.467C155.775 109.467 155.09 109.65 154.54 110.034C153.99 110.419 153.654 110.95 153.45 111.501C153.088 112.478 153.09 113.683 153.092 114.624L153.092 114.809C153.092 117.139 153.131 118.917 153.304 120.252C153.475 121.572 153.795 122.621 154.488 123.353C155.201 124.106 156.164 124.375 157.24 124.486C158.112 124.576 159.191 124.573 160.456 124.569C160.733 124.568 161.019 124.567 161.314 124.567C164.689 124.567 167.068 123.987 168.808 123.054C170.562 122.115 171.593 120.856 172.331 119.64C172.657 119.102 172.93 118.565 173.173 118.086L173.254 117.927C173.526 117.394 173.759 116.953 174.016 116.587C174.268 116.228 174.519 115.979 174.803 115.814C175.081 115.654 175.444 115.543 175.97 115.543C176.62 115.543 177.146 115.893 177.548 116.521C177.96 117.165 178.18 118.024 178.18 118.777C178.18 120.779 177.368 123.688 176.215 126.119C175.642 127.327 175.008 128.366 174.391 129.088C173.73 129.861 173.258 130.075 173.026 130.075C172.879 130.075 172.58 130.039 172.082 129.964C171.922 129.94 171.744 129.913 171.553 129.883L171.551 129.883C171.187 129.826 170.772 129.762 170.332 129.699L170.31 129.696L170.288 129.694C170.134 129.68 169.975 129.665 169.811 129.65C168.483 129.526 166.812 129.371 164.834 129.371H138.53C136.519 129.371 135.739 128.909 135.433 128.581C135.132 128.259 135.104 127.877 135.104 127.481C135.104 126.82 135.288 126.598 135.472 126.449C135.6 126.345 135.769 126.249 136.016 126.13C136.088 126.096 136.177 126.055 136.276 126.009C136.461 125.924 136.678 125.825 136.866 125.728C137.517 125.396 138.249 124.912 138.832 123.99C139.404 123.085 139.784 121.835 139.902 120.049C139.971 119.003 140.035 118.059 140.092 117.2C140.678 108.474 140.68 108.449 140.095 97.8691C139.98 95.3655 139.581 93.7005 138.976 92.5652C138.346 91.383 137.524 90.8337 136.741 90.5084C136.468 90.3951 136.183 90.3035 135.951 90.2292C135.881 90.2066 135.816 90.1856 135.758 90.1661C135.476 90.0721 135.303 89.9983 135.177 89.912C135.073 89.8405 134.992 89.7536 134.926 89.5979C134.852 89.4238 134.784 89.1306 134.784 88.6326C134.784 87.8809 135.031 87.4295 135.379 87.1173C135.76 86.7755 136.341 86.5323 137.104 86.3826C138.289 86.15 139.632 86.1829 140.831 86.2123C141.212 86.2217 141.579 86.2307 141.922 86.2307H160.354Z" fill="#333333"/>
<path fill-rule="evenodd" clip-rule="evenodd" d="M200.55 92.0246C200.55 89.9338 201.036 88.236 202.069 87.0677C203.085 85.9191 204.754 85.1427 207.432 85.1427C209.892 85.1427 211.955 86.3943 213.756 88.2559C215.563 90.1246 217.021 92.5192 218.273 94.638C219.34 96.4603 228.984 116 231.282 121.235C231.859 122.563 232.556 123.419 233.316 123.988C234.069 124.551 234.826 124.788 235.407 124.956C236.054 125.145 236.32 125.223 236.498 125.38C236.596 125.465 236.777 125.676 236.777 126.457C236.777 127.288 236.395 127.911 235.671 128.424C234.913 128.961 233.814 129.345 232.526 129.603C230.135 130.083 227.393 130.078 225.712 130.075C225.585 130.075 225.465 130.075 225.352 130.075C220.739 130.075 217.178 130.054 214.763 129.564C213.56 129.319 212.755 128.978 212.259 128.554C211.806 128.166 211.558 127.665 211.558 126.905C211.558 126.346 211.723 126.071 211.909 125.889C212.136 125.667 212.471 125.504 212.957 125.317C213.019 125.293 213.086 125.268 213.156 125.242C213.558 125.092 214.076 124.898 214.482 124.615C214.743 124.434 214.997 124.193 215.182 123.865C215.37 123.532 215.462 123.156 215.462 122.745C215.462 121.969 215.36 121.186 214.886 120.534C214.406 119.871 213.657 119.496 212.722 119.261C211.788 119.026 210.55 118.902 208.94 118.832C207.32 118.762 205.271 118.747 202.696 118.747C201.866 118.747 201.081 118.754 200.381 118.819C199.686 118.884 199.013 119.011 198.428 119.283C197.821 119.565 197.318 120 196.982 120.639C196.657 121.258 196.521 122.006 196.521 122.873C196.521 123.306 196.612 123.703 196.807 124.053C197.003 124.402 197.274 124.651 197.557 124.833C198 125.117 198.562 125.283 198.988 125.408C199.056 125.428 199.12 125.447 199.18 125.465C199.695 125.622 200.032 125.76 200.258 125.966C200.435 126.127 200.617 126.401 200.617 127.033C200.617 127.688 200.341 128.177 199.824 128.587C199.276 129.022 198.47 129.352 197.501 129.587C195.566 130.055 193.295 130.075 192.008 130.075C187.434 130.075 185.126 129.634 183.975 129.048C183.434 128.773 183.195 128.489 183.07 128.235C182.936 127.96 182.886 127.625 182.886 127.161C182.886 126.594 183.039 126.309 183.22 126.117C183.436 125.888 183.773 125.702 184.305 125.489C184.446 125.432 184.602 125.374 184.769 125.312C185.737 124.952 187.06 124.46 188.006 123.287C188.769 122.349 189.49 121.083 190.128 119.832C190.62 118.866 191.081 117.871 191.483 117.004C191.604 116.744 191.719 116.495 191.828 116.263L191.831 116.257L195.863 107.489L195.866 107.482C195.949 107.297 196.034 107.109 196.119 106.919C198.05 102.633 200.55 97.0814 200.55 92.0246ZM205.64 101.467C204.881 101.467 204.308 101.935 203.926 102.375C203.53 102.832 203.202 103.415 202.94 103.968C202.523 104.849 202.202 105.821 202.039 106.313L202.038 106.316C201.999 106.434 201.969 106.524 201.949 106.578C201.897 106.722 201.803 106.956 201.681 107.262L201.641 107.361C201.503 107.707 201.34 108.116 201.185 108.529C201.03 108.94 200.878 109.367 200.764 109.748C200.659 110.097 200.553 110.508 200.553 110.841C200.553 111.357 200.758 111.795 201.123 112.1C201.449 112.374 201.84 112.489 202.151 112.545C202.625 112.631 203.197 112.613 203.527 112.603C203.607 112.601 203.673 112.599 203.72 112.599H208.52C208.562 112.599 208.617 112.6 208.684 112.601C209.02 112.607 209.632 112.617 210.173 112.532C210.497 112.481 210.898 112.383 211.238 112.163C211.618 111.917 211.942 111.497 211.942 110.905C211.942 110.479 211.76 109.947 211.583 109.499C211.389 109.006 211.129 108.447 210.86 107.905C210.322 106.821 209.721 105.75 209.461 105.295C209.406 105.197 209.341 105.076 209.267 104.939C209.001 104.444 208.622 103.74 208.186 103.136C207.902 102.742 207.559 102.34 207.159 102.032C206.756 101.721 206.243 101.467 205.64 101.467Z" fill="#333333"/>
<path d="M46.9541 89.2726C46.9541 88.6065 47.4077 87.9684 48.5503 87.3732C49.6743 86.7877 51.2409 86.3737 52.923 86.0907C56.2703 85.5277 59.7918 85.5267 60.428 85.5267C62.3569 85.5267 65.1894 85.5618 67.5266 86.1118C68.6972 86.3872 69.6625 86.7744 70.319 87.2877C70.9436 87.7761 71.278 88.3639 71.278 89.1446C71.278 89.5531 71.1755 89.7928 71.0449 89.9687C70.8978 90.1668 70.6671 90.3482 70.3043 90.5608C70.1328 90.6613 69.9498 90.7587 69.743 90.8689L69.7127 90.8851C69.4992 90.9989 69.2638 91.1249 69.0273 91.2652C68.5517 91.5472 68.0405 91.9045 67.5903 92.4134L67.5836 92.4212C67.1285 92.9481 66.8618 93.7586 66.6809 94.5841C66.4917 95.4478 66.3659 96.4843 66.2805 97.5903C66.1096 99.8039 66.094 102.395 66.094 104.633V110.969C66.094 116.645 66.2818 119.534 66.6621 121.107C66.8581 121.918 67.126 122.476 67.5227 122.888C67.8152 123.192 68.1802 123.397 68.4209 123.532C68.4742 123.562 68.5215 123.588 68.5605 123.612C68.899 123.815 69.24 123.994 69.5411 124.152L69.5429 124.153C69.6197 124.193 69.6938 124.232 69.7646 124.27C70.1311 124.465 70.4172 124.628 70.6473 124.805C70.869 124.975 71.0148 125.139 71.1107 125.323C71.2055 125.505 71.278 125.756 71.278 126.137C71.278 126.578 71.2415 126.952 71.0617 127.308C70.8886 127.65 70.5318 128.072 69.7106 128.488C68.0104 129.348 64.5426 130.075 57.548 130.075C56.1988 130.075 53.6 130.056 51.3529 129.551C50.2252 129.298 49.2656 128.939 48.606 128.458C47.9756 127.998 47.6581 127.464 47.6581 126.777C47.6581 126.152 47.9467 125.785 48.5186 125.37C48.7139 125.228 48.8955 125.113 49.0976 124.984C49.2334 124.897 49.3788 124.804 49.5436 124.694C49.9093 124.449 50.3178 124.148 50.6531 123.751C51.2035 123.107 51.581 122.082 51.8417 120.224C52.1062 118.34 52.2661 115.46 52.2661 110.969V104.633C52.2661 100.556 52.1063 98.0069 51.8478 96.3479C51.5879 94.6795 51.2166 93.8293 50.7379 93.22L50.7355 93.2169C50.2983 92.6658 49.7961 92.2522 49.3222 91.9116C49.0874 91.7429 48.8524 91.587 48.6369 91.4442L48.634 91.4423C48.413 91.2957 48.2144 91.1639 48.029 91.0299C47.6563 90.7605 47.3965 90.523 47.2243 90.2624C47.0641 90.02 46.9541 89.7185 46.9541 89.2726Z" fill="#333333"/>
<path fill-rule="evenodd" clip-rule="evenodd" d="M79.3746 88.3126C79.3746 87.775 79.5379 87.3924 79.7877 87.0951C80.0505 86.7822 80.4472 86.5203 80.9669 86.3138C82.0207 85.895 83.3767 85.7827 84.4645 85.7827H105.329C114.038 85.7827 119.681 88.4698 123.161 92.4333C126.659 96.4179 128.082 101.82 128.082 107.449C128.082 113.242 126.385 118.799 122.785 122.896C119.202 126.974 113.658 129.691 105.777 129.691C103.037 129.691 100.752 129.627 98.792 129.5L98.7782 129.499L98.104 129.477C96.3927 129.421 94.8379 129.371 93.2325 129.371C91.4229 129.371 89.552 129.435 87.7618 129.499L87.7464 129.5L87.7311 129.501C85.9599 129.627 84.1884 129.691 82.3525 129.691C81.3871 129.691 80.3204 129.445 79.525 128.955C78.7555 128.48 78.2866 127.817 78.2866 126.905C78.2866 126.4 78.3568 126.104 78.4329 125.929C78.501 125.772 78.5848 125.685 78.6915 125.615C78.8195 125.53 78.9968 125.46 79.2805 125.375C79.3482 125.355 79.4268 125.333 79.5126 125.309C79.7386 125.245 80.0146 125.167 80.2687 125.076C81.0536 124.793 81.8983 124.299 82.5259 123.164C83.125 122.08 83.4852 120.486 83.5344 118.09L84.0464 95.8845L84.0464 95.8814C84.0802 94.1409 83.7929 92.9181 83.2398 92.0321C82.6768 91.1303 81.9092 90.6932 81.2564 90.3933C81.1079 90.325 80.9599 90.2616 80.8252 90.2038L80.794 90.1904C80.647 90.1273 80.516 90.0708 80.3921 90.0123C80.143 89.8949 79.9627 89.7883 79.8249 89.669C79.6058 89.4792 79.3746 89.1604 79.3746 88.3126ZM101.425 91.0345C100.017 91.0345 98.8968 91.31 98.2592 92.2664C97.965 92.7078 97.8308 93.2175 97.7622 93.7252C97.6937 94.2322 97.6825 94.8076 97.6825 95.4166V119.289C97.6825 120.118 97.7142 120.874 97.8293 121.534C97.9448 122.196 98.1528 122.816 98.5438 123.335C99.3608 124.42 100.723 124.759 102.513 124.759C104.684 124.759 106.459 124.2 107.884 123.216C109.303 122.236 110.323 120.872 111.051 119.338C112.496 116.297 112.847 112.475 112.847 109.241C112.847 101.676 111.43 97.0975 109.219 94.4054C106.969 91.6669 104.03 91.0345 101.425 91.0345Z" fill="#333333"/>
<path d="M138.178 143.055C137.963 143.055 137.776 143.017 137.618 142.941C137.46 142.862 137.328 142.749 137.224 142.604C137.123 142.458 137.047 142.279 136.996 142.067C136.949 141.855 136.925 141.613 136.925 141.341C136.925 141.072 136.949 140.831 136.996 140.619C137.047 140.404 137.123 140.224 137.224 140.078C137.328 139.932 137.46 139.822 137.618 139.746C137.776 139.667 137.963 139.627 138.178 139.627C138.609 139.627 138.925 139.777 139.128 140.078C139.33 140.379 139.432 140.8 139.432 141.341C139.432 141.882 139.33 142.303 139.128 142.604C138.925 142.904 138.609 143.055 138.178 143.055ZM138.178 142.547C138.289 142.547 138.382 142.526 138.458 142.485C138.534 142.441 138.594 142.379 138.639 142.3C138.686 142.221 138.719 142.124 138.738 142.01C138.761 141.893 138.772 141.763 138.772 141.621V141.056C138.772 140.771 138.727 140.546 138.639 140.382C138.553 140.217 138.4 140.135 138.178 140.135C137.957 140.135 137.802 140.217 137.713 140.382C137.627 140.546 137.585 140.771 137.585 141.056V141.626C137.585 141.911 137.627 142.135 137.713 142.3C137.802 142.464 137.957 142.547 138.178 142.547Z" fill="#333333"/>
<path d="M142.734 143.68L143.868 140.566L145.05 140.996C145.354 141.107 145.554 141.277 145.652 141.508C145.75 141.739 145.745 142.003 145.636 142.301C145.528 142.598 145.362 142.804 145.139 142.918C144.915 143.032 144.652 143.034 144.349 142.923L143.751 142.706L143.319 143.893L142.734 143.68ZM143.925 142.228L144.402 142.402C144.56 142.46 144.684 142.469 144.775 142.432C144.867 142.391 144.939 142.301 144.99 142.161L145.051 141.992C145.102 141.852 145.105 141.739 145.059 141.651C145.015 141.561 144.914 141.487 144.756 141.43L144.279 141.256L143.925 142.228Z" fill="#333333"/>
<path d="M147.974 146.344L150.104 143.806L151.068 144.615C151.316 144.822 151.446 145.051 151.459 145.302C151.472 145.552 151.376 145.799 151.173 146.041C150.969 146.283 150.743 146.42 150.494 146.451C150.245 146.482 149.997 146.393 149.75 146.186L149.263 145.777L148.451 146.744L147.974 146.344ZM149.589 145.388L149.978 145.714C150.107 145.822 150.22 145.874 150.319 145.87C150.419 145.863 150.517 145.803 150.613 145.689L150.729 145.551C150.825 145.437 150.866 145.331 150.853 145.233C150.842 145.133 150.772 145.029 150.644 144.921L150.254 144.595L149.589 145.388Z" fill="#333333"/>
<path d="M152.459 151.574C152.352 151.387 152.291 151.207 152.278 151.032C152.267 150.855 152.299 150.685 152.373 150.522C152.448 150.361 152.565 150.206 152.724 150.056C152.884 149.909 153.081 149.767 153.317 149.631C153.55 149.497 153.77 149.397 153.978 149.332C154.189 149.268 154.384 149.244 154.56 149.259C154.739 149.277 154.9 149.335 155.045 149.434C155.193 149.531 155.32 149.673 155.428 149.86C155.643 150.233 155.671 150.582 155.512 150.908C155.353 151.233 155.039 151.532 154.57 151.802C154.102 152.073 153.687 152.196 153.325 152.171C152.963 152.145 152.675 151.947 152.459 151.574ZM152.899 151.32C152.955 151.416 153.019 151.486 153.093 151.531C153.169 151.575 153.253 151.596 153.343 151.595C153.436 151.597 153.536 151.577 153.644 151.537C153.757 151.497 153.875 151.442 153.998 151.371L154.487 151.088C154.734 150.946 154.906 150.795 155.005 150.636C155.104 150.48 155.099 150.306 154.988 150.114C154.877 149.922 154.729 149.829 154.542 149.834C154.356 149.843 154.14 149.918 153.894 150.06L153.4 150.345C153.154 150.488 152.98 150.637 152.881 150.793C152.782 150.952 152.789 151.128 152.899 151.32Z" fill="#333333"/>
<path d="M154.382 156.909C154.332 156.628 154.338 156.38 154.4 156.163C154.462 155.95 154.561 155.767 154.698 155.614L155.147 155.916C155.028 156.062 154.946 156.212 154.903 156.364C154.862 156.519 154.857 156.677 154.885 156.839C154.918 157.026 154.986 157.162 155.087 157.247C155.189 157.332 155.319 157.361 155.478 157.333C155.609 157.31 155.701 157.255 155.753 157.169C155.809 157.082 155.835 156.947 155.831 156.764L155.826 156.408C155.826 156.097 155.897 155.862 156.04 155.705C156.186 155.548 156.372 155.449 156.6 155.409C156.912 155.354 157.168 155.413 157.369 155.587C157.573 155.76 157.707 156.025 157.77 156.384C157.815 156.639 157.813 156.866 157.764 157.065C157.716 157.266 157.632 157.435 157.512 157.572L157.065 157.28C157.152 157.174 157.215 157.055 157.253 156.923C157.293 156.791 157.299 156.642 157.27 156.477C157.208 156.121 157.03 155.97 156.737 156.021C156.612 156.043 156.524 156.097 156.471 156.184C156.419 156.27 156.393 156.406 156.394 156.593L156.393 156.945C156.39 157.238 156.323 157.467 156.191 157.631C156.06 157.796 155.872 157.9 155.629 157.942C155.477 157.969 155.332 157.968 155.194 157.937C155.06 157.906 154.938 157.847 154.826 157.761C154.717 157.674 154.625 157.559 154.548 157.415C154.472 157.274 154.416 157.105 154.382 156.909Z" fill="#333333"/>
<path d="M154.602 161.911L155.06 161.992L154.93 162.726L157.277 163.14L157.407 162.406L157.865 162.487L157.499 164.563L157.041 164.482L157.17 163.748L154.823 163.334L154.694 164.068L154.236 163.987L154.602 161.911Z" fill="#333333"/>
<path d="M154.759 169.056L154.783 169.015L152.723 167.825L152.989 167.365L155.859 169.022L155.476 169.684L152.982 169.247L152.958 169.288L155.018 170.477L154.752 170.938L151.883 169.281L152.265 168.619L154.759 169.056Z" fill="#333333"/>
<path d="M148.407 173.634L148.437 173.61C148.416 173.541 148.401 173.469 148.391 173.394C148.382 173.319 148.385 173.244 148.401 173.169C148.417 173.094 148.447 173.019 148.491 172.944C148.534 172.871 148.595 172.802 148.675 172.734C148.932 172.519 149.222 172.468 149.544 172.581C149.866 172.699 150.199 172.963 150.543 173.373C150.905 173.805 151.105 174.199 151.141 174.558C151.177 174.916 151.033 175.23 150.711 175.501C150.585 175.606 150.46 175.682 150.337 175.727C150.212 175.775 150.09 175.797 149.971 175.793C149.85 175.792 149.732 175.767 149.617 175.718C149.502 175.675 149.39 175.615 149.282 175.541L149.615 175.051C149.676 175.09 149.74 175.126 149.804 175.158C149.866 175.193 149.93 175.214 149.994 175.222C150.058 175.235 150.122 175.232 150.187 175.216C150.253 175.201 150.32 175.165 150.388 175.108C150.546 174.976 150.606 174.819 150.568 174.636C150.53 174.452 150.419 174.252 150.236 174.034L149.894 173.626C149.803 173.517 149.711 173.423 149.619 173.343C149.527 173.267 149.435 173.212 149.344 173.177C149.253 173.142 149.163 173.131 149.074 173.143C148.987 173.158 148.9 173.202 148.813 173.276C148.677 173.39 148.608 173.516 148.605 173.655C148.603 173.796 148.656 173.93 148.761 174.056L148.935 174.264L149.397 173.876L149.687 174.222L148.8 174.966L147.686 173.639L148.111 173.282L148.407 173.634Z" fill="#333333"/>
<path d="M137.406 179.562V176.761H138.023V179.562H139.02V180.075H136.409V179.562H137.406Z" fill="#333333"/>
<path d="M131.074 176.927L131.984 177.258L132.471 175.919L133.056 176.132L131.922 179.246L131.338 179.033L131.809 177.74L130.899 177.408L130.428 178.702L129.843 178.489L130.977 175.375L131.561 175.588L131.074 176.927Z" fill="#333333"/>
<path d="M126.859 172.682C127.023 172.82 127.142 172.969 127.214 173.129C127.285 173.291 127.313 173.462 127.3 173.641C127.284 173.817 127.227 174.003 127.129 174.198C127.029 174.391 126.892 174.592 126.717 174.8C126.544 175.006 126.371 175.175 126.199 175.307C126.021 175.44 125.847 175.529 125.676 175.575C125.503 175.62 125.331 175.62 125.161 175.577C124.989 175.536 124.82 175.446 124.655 175.308C124.325 175.031 124.18 174.712 124.218 174.352C124.256 173.991 124.449 173.604 124.797 173.189C125.145 172.774 125.493 172.517 125.841 172.417C126.19 172.317 126.529 172.405 126.859 172.682ZM126.532 173.071C126.447 173 126.362 172.955 126.278 172.938C126.191 172.923 126.105 172.932 126.021 172.964C125.933 172.994 125.846 173.047 125.758 173.122C125.666 173.197 125.574 173.29 125.482 173.399L125.119 173.831C124.936 174.05 124.826 174.25 124.788 174.433C124.747 174.614 124.812 174.776 124.982 174.918C125.151 175.061 125.323 175.097 125.497 175.028C125.668 174.957 125.845 174.813 126.028 174.594L126.395 174.158C126.578 173.94 126.689 173.74 126.73 173.559C126.768 173.376 126.702 173.213 126.532 173.071Z" fill="#333333"/>
<path d="M120.544 170.418L122.332 169.386C122.439 169.324 122.533 169.266 122.615 169.211C122.695 169.154 122.758 169.094 122.802 169.032C122.842 168.969 122.862 168.899 122.862 168.822C122.86 168.743 122.829 168.651 122.769 168.547C122.709 168.443 122.646 168.371 122.579 168.333C122.512 168.291 122.441 168.274 122.368 168.28C122.29 168.284 122.207 168.308 122.119 168.352C122.029 168.393 121.931 168.444 121.824 168.506L120.036 169.538L119.725 169L121.431 168.015C121.634 167.897 121.818 167.808 121.983 167.745C122.148 167.683 122.301 167.658 122.444 167.671C122.587 167.684 122.721 167.739 122.848 167.838C122.97 167.936 123.09 168.087 123.209 168.293C123.328 168.498 123.399 168.68 123.424 168.837C123.445 168.993 123.425 169.136 123.365 169.266C123.305 169.396 123.206 169.517 123.07 169.628C122.933 169.74 122.764 169.855 122.561 169.972L120.855 170.957L120.544 170.418Z" fill="#333333"/>
<path d="M120.574 162.177L120.58 162.214C120.651 162.231 120.721 162.254 120.79 162.283C120.86 162.313 120.923 162.353 120.98 162.404C121.037 162.455 121.087 162.519 121.129 162.595C121.171 162.668 121.201 162.756 121.219 162.859C121.278 163.189 121.177 163.465 120.917 163.688C120.654 163.908 120.259 164.064 119.732 164.157C119.177 164.255 118.736 164.23 118.408 164.082C118.079 163.934 117.879 163.653 117.806 163.239C117.777 163.077 117.774 162.931 117.796 162.802C117.818 162.669 117.86 162.553 117.922 162.452C117.984 162.347 118.065 162.258 118.164 162.182C118.26 162.104 118.367 162.037 118.485 161.981L118.743 162.514C118.679 162.548 118.616 162.585 118.556 162.624C118.494 162.661 118.444 162.705 118.405 162.757C118.363 162.806 118.332 162.863 118.315 162.927C118.294 162.992 118.291 163.068 118.307 163.155C118.343 163.358 118.449 163.488 118.627 163.547C118.804 163.606 119.033 163.61 119.314 163.561L119.837 163.469C119.978 163.444 120.105 163.412 120.22 163.372C120.332 163.33 120.426 163.278 120.502 163.217C120.577 163.155 120.632 163.083 120.666 163C120.696 162.917 120.702 162.82 120.682 162.707C120.651 162.533 120.576 162.41 120.457 162.337C120.335 162.266 120.193 162.244 120.031 162.273L119.765 162.32L119.87 162.913L119.425 162.992L119.224 161.851L120.931 161.55L121.027 162.097L120.574 162.177Z" fill="#333333"/>
<path d="M119.834 156.21L119.665 157.164L121.068 157.412L120.96 158.024L117.697 157.449L117.805 156.836L119.16 157.075L119.329 156.121L117.973 155.882L118.081 155.27L121.344 155.845L121.236 156.458L119.834 156.21Z" fill="#333333"/>
<path d="M120.889 149.751L123.315 151.151L123.006 151.686L120.58 150.285L120.082 151.149L119.638 150.892L120.943 148.631L121.387 148.887L120.889 149.751Z" fill="#333333"/>
<path d="M126.941 146.99C126.723 147.173 126.504 147.292 126.286 147.347C126.07 147.4 125.862 147.405 125.661 147.363L125.698 146.824C125.885 146.854 126.054 146.849 126.208 146.811C126.363 146.769 126.503 146.694 126.629 146.589C126.774 146.466 126.858 146.34 126.881 146.21C126.904 146.079 126.863 145.952 126.759 145.828C126.674 145.726 126.581 145.674 126.48 145.672C126.377 145.668 126.247 145.713 126.091 145.807L125.785 145.989C125.515 146.145 125.277 146.201 125.069 146.156C124.86 146.108 124.681 145.996 124.533 145.819C124.329 145.576 124.252 145.325 124.302 145.064C124.35 144.801 124.513 144.552 124.792 144.318C124.991 144.151 125.188 144.04 125.384 143.983C125.583 143.924 125.771 143.912 125.95 143.948L125.92 144.481C125.785 144.458 125.651 144.463 125.518 144.496C125.383 144.527 125.251 144.597 125.122 144.704C124.846 144.936 124.803 145.166 124.994 145.394C125.076 145.491 125.167 145.541 125.268 145.543C125.369 145.545 125.5 145.499 125.661 145.405L125.966 145.23C126.221 145.086 126.453 145.03 126.661 145.061C126.87 145.093 127.053 145.204 127.212 145.393C127.312 145.511 127.383 145.638 127.425 145.772C127.465 145.903 127.476 146.039 127.457 146.179C127.436 146.317 127.382 146.454 127.296 146.593C127.212 146.729 127.094 146.862 126.941 146.99Z" fill="#333333"/>
<path d="M144.325 176.971C144.325 177.293 144.064 177.554 143.742 177.554C143.42 177.554 143.159 177.293 143.159 176.971C143.159 176.649 143.42 176.387 143.742 176.387C144.064 176.387 144.325 176.649 144.325 176.971Z" fill="#333333"/>
<path d="M132.033 142.687C132.033 143.009 131.772 143.27 131.449 143.27C131.127 143.27 130.866 143.009 130.866 142.687C130.866 142.365 131.127 142.103 131.449 142.103C131.772 142.103 132.033 142.365 132.033 142.687Z" fill="#333333"/>
</svg>
