<svg width="344" height="239" viewBox="0 0 344 239" fill="none" xmlns="http://www.w3.org/2000/svg">
<path d="M155.059 10.1022L204.179 94.3074L221.933 63.3375C229.617 49.9329 248.951 49.9328 256.635 63.3374L341.448 211.289C348.327 223.289 339.664 238.241 325.832 238.241H18.7659C4.87357 238.241 -3.78201 223.171 3.21785 211.171L120.508 10.1021C128.226 -3.12791 147.342 -3.12801 155.059 10.1022Z" fill="#12D778"/>
<path d="M141.239 18.1641C139.696 15.5181 135.873 15.5181 134.329 18.1641L17.0389 219.233C16.2611 220.567 17.2229 222.241 18.7664 222.241H325.833C327.369 222.241 328.332 220.58 327.568 219.246L242.755 71.2947C241.218 68.6138 237.351 68.6138 235.814 71.2947L204.3 126.269L141.239 18.1641Z" fill="#2678F4"/>
<path fill-rule="evenodd" clip-rule="evenodd" d="M140.376 18.668C139.218 16.6834 136.351 16.6834 135.193 18.668L17.9026 219.737C17.5138 220.404 17.9946 221.241 18.7664 221.241H325.833C326.601 221.241 327.082 220.41 326.7 219.744L241.887 71.792C240.734 69.7813 237.834 69.7813 236.682 71.792L205.168 126.766C204.99 127.076 204.661 127.267 204.304 127.269C203.947 127.27 203.617 127.081 203.437 126.772L140.376 18.668ZM133.465 17.6602C135.395 14.3527 140.174 14.3527 142.103 17.6602L204.293 124.271L234.947 70.7974C236.868 67.4462 241.701 67.4462 243.622 70.7974L328.435 218.749C329.582 220.749 328.138 223.241 325.833 223.241H18.7664C16.451 223.241 15.0084 220.729 16.1751 218.729L133.465 17.6602Z" fill="#333333"/>
<path d="M240.209 125.298C239.765 125.298 239.437 125.148 239.224 124.846C239.015 124.545 238.91 124.123 238.91 123.581C238.91 123.039 239.015 122.617 239.224 122.316C239.437 122.015 239.765 121.865 240.209 121.865C240.653 121.865 240.979 122.015 241.188 122.316C241.401 122.617 241.507 123.039 241.507 123.581C241.507 124.123 241.401 124.545 241.188 124.846C240.979 125.148 240.653 125.298 240.209 125.298ZM240.209 124.723C240.412 124.723 240.551 124.648 240.627 124.499C240.707 124.347 240.746 124.136 240.746 123.867V123.291C240.746 123.025 240.707 122.817 240.627 122.668C240.551 122.516 240.412 122.44 240.209 122.44C240.006 122.44 239.865 122.516 239.786 122.668C239.709 122.817 239.671 123.025 239.671 123.291V123.871C239.671 124.138 239.709 124.347 239.786 124.499C239.865 124.648 240.006 124.723 240.209 124.723Z" fill="white"/>
<path d="M244.762 125.919L245.897 122.8L247.103 123.239C247.255 123.294 247.382 123.367 247.484 123.458C247.587 123.546 247.663 123.648 247.712 123.764C247.764 123.881 247.789 124.008 247.786 124.145C247.783 124.282 247.754 124.427 247.699 124.579C247.643 124.731 247.573 124.86 247.487 124.967C247.4 125.074 247.3 125.156 247.185 125.212C247.073 125.269 246.949 125.3 246.812 125.304C246.677 125.305 246.533 125.278 246.381 125.223L245.849 125.029L245.436 126.165L244.762 125.919ZM246.046 124.489L246.408 124.62C246.566 124.678 246.686 124.688 246.767 124.65C246.851 124.613 246.918 124.526 246.968 124.389L247.017 124.255C247.067 124.118 247.071 124.008 247.031 123.926C246.993 123.845 246.895 123.775 246.737 123.718L246.375 123.586L246.046 124.489Z" fill="white"/>
<path d="M250.02 128.586L252.154 126.043L253.137 126.869C253.261 126.972 253.355 127.085 253.42 127.205C253.486 127.323 253.523 127.445 253.529 127.57C253.538 127.698 253.518 127.825 253.468 127.953C253.419 128.082 253.342 128.208 253.238 128.331C253.134 128.455 253.024 128.553 252.906 128.624C252.788 128.695 252.666 128.737 252.539 128.75C252.414 128.766 252.287 128.752 252.157 128.71C252.03 128.664 251.904 128.59 251.78 128.486L251.346 128.122L250.57 129.048L250.02 128.586ZM251.716 127.681L252.011 127.929C252.14 128.037 252.249 128.087 252.338 128.079C252.43 128.074 252.523 128.015 252.617 127.903L252.708 127.794C252.802 127.682 252.844 127.581 252.834 127.489C252.826 127.4 252.758 127.301 252.629 127.193L252.334 126.946L251.716 127.681Z" fill="white"/>
<path d="M254.531 133.842C254.31 133.457 254.276 133.098 254.43 132.763C254.587 132.431 254.9 132.13 255.369 131.859C255.839 131.588 256.256 131.468 256.622 131.498C256.989 131.532 257.283 131.74 257.505 132.125C257.727 132.509 257.76 132.867 257.604 133.199C257.449 133.534 257.137 133.837 256.667 134.108C256.198 134.379 255.78 134.498 255.413 134.464C255.047 134.434 254.753 134.226 254.531 133.842ZM255.03 133.554C255.131 133.73 255.266 133.813 255.433 133.805C255.604 133.797 255.806 133.726 256.04 133.591L256.538 133.304C256.769 133.17 256.929 133.032 257.018 132.889C257.112 132.747 257.108 132.588 257.007 132.413C256.905 132.237 256.769 132.153 256.597 132.16C256.43 132.169 256.231 132.24 256.001 132.373L255.498 132.663C255.268 132.796 255.105 132.934 255.012 133.076C254.922 133.219 254.928 133.378 255.03 133.554Z" fill="white"/>
<path d="M256.457 139.179C256.408 138.904 256.411 138.657 256.466 138.438C256.521 138.219 256.615 138.033 256.749 137.881L257.271 138.209C257.161 138.351 257.087 138.498 257.049 138.649C257.012 138.804 257.006 138.954 257.032 139.101C257.062 139.27 257.122 139.391 257.212 139.465C257.303 139.54 257.418 139.564 257.559 139.54C257.674 139.519 257.756 139.469 257.803 139.39C257.851 139.314 257.873 139.194 257.87 139.031L257.866 138.679C257.864 138.377 257.934 138.145 258.077 137.985C258.222 137.824 258.415 137.723 258.655 137.68C258.971 137.625 259.232 137.685 259.44 137.86C259.652 138.036 259.79 138.309 259.856 138.681C259.9 138.934 259.9 139.161 259.855 139.362C259.81 139.563 259.73 139.733 259.617 139.872L259.101 139.552C259.183 139.448 259.24 139.332 259.272 139.204C259.307 139.075 259.311 138.936 259.285 138.786C259.229 138.471 259.072 138.336 258.813 138.382C258.7 138.401 258.622 138.451 258.578 138.529C258.535 138.611 258.513 138.734 258.513 138.898L258.512 139.251C258.512 139.524 258.448 139.746 258.321 139.917C258.193 140.088 258 140.196 257.74 140.242C257.587 140.269 257.441 140.267 257.3 140.237C257.163 140.207 257.036 140.147 256.921 140.058C256.808 139.968 256.712 139.85 256.631 139.703C256.551 139.559 256.493 139.385 256.457 139.179Z" fill="white"/>
<path d="M256.682 144.196L257.202 144.288L257.078 144.99L259.308 145.383L259.431 144.681L259.951 144.773L259.58 146.88L259.06 146.788L259.184 146.086L256.954 145.693L256.831 146.395L256.311 146.304L256.682 144.196Z" fill="white"/>
<path d="M256.656 151.331L256.683 151.286L254.772 150.182L255.076 149.655L257.951 151.315L257.523 152.056L255.234 151.608L255.207 151.653L257.118 152.756L256.814 153.284L253.939 151.624L254.367 150.882L256.656 151.331Z" fill="white"/>
<path d="M250.511 155.942L250.543 155.915C250.52 155.843 250.504 155.769 250.495 155.694C250.486 155.619 250.488 155.543 250.502 155.465C250.517 155.39 250.548 155.315 250.592 155.24C250.635 155.168 250.695 155.099 250.772 155.033C250.896 154.929 251.031 154.866 251.177 154.843C251.321 154.821 251.472 154.839 251.632 154.896C251.791 154.953 251.955 155.047 252.124 155.179C252.29 155.312 252.457 155.48 252.626 155.682C252.989 156.114 253.187 156.511 253.221 156.871C253.257 157.234 253.109 157.555 252.779 157.832C252.648 157.942 252.517 158.02 252.387 158.068C252.259 158.117 252.132 158.139 252.007 158.132C251.881 158.13 251.757 158.104 251.636 158.052C251.514 158.001 251.394 157.932 251.276 157.845L251.682 157.294C251.741 157.335 251.801 157.372 251.861 157.404C251.921 157.441 251.982 157.466 252.044 157.481C252.105 157.495 252.167 157.495 252.229 157.48C252.293 157.468 252.357 157.435 252.42 157.382C252.559 157.266 252.609 157.126 252.572 156.963C252.532 156.802 252.425 156.618 252.252 156.412L251.903 155.996C251.73 155.79 251.561 155.65 251.397 155.577C251.23 155.507 251.067 155.537 250.909 155.67C250.785 155.774 250.724 155.888 250.724 156.011C250.724 156.135 250.773 156.254 250.868 156.368L251.024 156.554L251.458 156.19L251.782 156.577L250.86 157.35L249.72 155.991L250.208 155.581L250.511 155.942Z" fill="white"/>
<path d="M239.388 161.837V159.102H240.101V161.837H241.057V162.421H238.432V161.837H239.388Z" fill="white"/>
<path d="M233.161 159.254L233.947 159.54L234.422 158.235L235.097 158.481L233.962 161.6L233.287 161.354L233.747 160.09L232.961 159.803L232.5 161.068L231.826 160.822L232.961 157.703L233.636 157.949L233.161 159.254Z" fill="white"/>
<path d="M228.856 155.011C229.196 155.296 229.351 155.623 229.32 155.99C229.287 156.355 229.096 156.746 228.747 157.161C228.399 157.576 228.048 157.832 227.694 157.928C227.337 158.022 226.989 157.927 226.649 157.641C226.309 157.356 226.156 157.031 226.189 156.666C226.22 156.298 226.41 155.907 226.758 155.492C227.107 155.076 227.459 154.822 227.815 154.728C228.169 154.631 228.516 154.726 228.856 155.011ZM228.486 155.452C228.331 155.322 228.176 155.289 228.022 155.354C227.864 155.42 227.698 155.556 227.524 155.762L227.155 156.203C226.983 156.407 226.88 156.592 226.845 156.757C226.806 156.922 226.864 157.07 227.019 157.201C227.175 157.331 227.332 157.363 227.49 157.298C227.644 157.233 227.807 157.098 227.978 156.894L228.351 156.45C228.522 156.246 228.627 156.061 228.667 155.895C228.702 155.73 228.642 155.582 228.486 155.452Z" fill="white"/>
<path d="M222.498 152.689L224.318 151.638C224.409 151.585 224.491 151.534 224.565 151.485C224.634 151.433 224.688 151.381 224.726 151.326C224.762 151.268 224.78 151.205 224.78 151.135C224.778 151.067 224.75 150.988 224.698 150.897C224.646 150.806 224.591 150.743 224.533 150.707C224.473 150.672 224.409 150.657 224.343 150.663C224.275 150.665 224.202 150.685 224.125 150.723C224.043 150.759 223.957 150.803 223.867 150.855L222.046 151.906L221.69 151.289L223.428 150.285C223.625 150.171 223.806 150.085 223.97 150.027C224.133 149.966 224.285 149.944 224.427 149.961C224.568 149.978 224.702 150.038 224.827 150.141C224.953 150.245 225.076 150.401 225.196 150.609C225.317 150.818 225.39 151.002 225.417 151.163C225.444 151.323 225.429 151.469 225.373 151.6C225.317 151.731 225.223 151.853 225.09 151.966C224.956 152.077 224.79 152.189 224.593 152.303L222.855 153.307L222.498 152.689Z" fill="white"/>
<path d="M222.553 144.525L222.56 144.567C222.634 144.583 222.705 144.606 222.775 144.635C222.845 144.665 222.91 144.705 222.97 144.755C223.027 144.807 223.077 144.87 223.12 144.946C223.162 145.02 223.191 145.106 223.209 145.206C223.237 145.365 223.225 145.514 223.172 145.652C223.118 145.787 223.027 145.909 222.898 146.019C222.77 146.129 222.606 146.223 222.408 146.303C222.209 146.38 221.98 146.442 221.721 146.487C221.165 146.585 220.722 146.559 220.393 146.408C220.061 146.257 219.857 145.969 219.782 145.545C219.752 145.376 219.75 145.224 219.774 145.087C219.795 144.952 219.84 144.831 219.908 144.726C219.973 144.618 220.058 144.524 220.163 144.444C220.268 144.364 220.387 144.295 220.522 144.236L220.797 144.863C220.731 144.894 220.67 144.928 220.612 144.964C220.55 144.997 220.497 145.037 220.454 145.083C220.411 145.13 220.38 145.183 220.362 145.244C220.34 145.306 220.337 145.378 220.351 145.459C220.383 145.637 220.478 145.75 220.638 145.799C220.798 145.845 221.01 145.845 221.275 145.798L221.809 145.704C222.075 145.657 222.28 145.581 222.426 145.474C222.571 145.365 222.625 145.209 222.589 145.006C222.561 144.847 222.493 144.737 222.386 144.675C222.279 144.613 222.152 144.596 222.005 144.621L221.766 144.664L221.864 145.221L221.368 145.308L221.159 144.124L222.906 143.816L223.016 144.443L222.553 144.525Z" fill="white"/>
<path d="M221.839 138.565L221.694 139.389L223.061 139.63L222.936 140.338L219.667 139.761L219.792 139.054L221.118 139.288L221.263 138.463L219.937 138.23L220.062 137.523L223.331 138.099L223.207 138.806L221.839 138.565Z" fill="white"/>
<path d="M222.958 132.01L225.326 133.377L224.97 133.995L222.601 132.628L222.124 133.456L221.617 133.163L222.93 130.89L223.436 131.182L222.958 132.01Z" fill="white"/>
<path d="M228.929 129.254C228.715 129.433 228.5 129.554 228.283 129.616C228.066 129.678 227.858 129.689 227.659 129.649L227.682 129.033C227.86 129.058 228.024 129.049 228.174 129.006C228.327 128.96 228.46 128.89 228.574 128.794C228.705 128.684 228.78 128.571 228.799 128.456C228.819 128.341 228.782 128.228 228.691 128.119C228.615 128.029 228.531 127.984 228.439 127.982C228.349 127.979 228.235 128.019 228.094 128.104L227.792 128.283C227.531 128.436 227.295 128.491 227.085 128.448C226.873 128.402 226.689 128.286 226.532 128.099C226.326 127.854 226.247 127.597 226.295 127.329C226.342 127.058 226.509 126.802 226.798 126.559C226.995 126.394 227.192 126.281 227.388 126.219C227.585 126.158 227.772 126.142 227.95 126.171L227.93 126.777C227.799 126.758 227.67 126.767 227.543 126.803C227.414 126.837 227.291 126.903 227.175 127.001C226.93 127.207 226.891 127.41 227.061 127.612C227.134 127.699 227.216 127.742 227.306 127.741C227.398 127.738 227.516 127.696 227.658 127.613L227.964 127.438C228.201 127.301 228.425 127.245 228.637 127.27C228.848 127.296 229.038 127.409 229.208 127.611C229.307 127.73 229.38 127.857 229.424 127.994C229.466 128.128 229.478 128.268 229.458 128.412C229.437 128.554 229.383 128.697 229.296 128.84C229.211 128.981 229.089 129.119 228.929 129.254Z" fill="white"/>
<path d="M246.366 159.292C246.366 159.614 246.104 159.876 245.782 159.876C245.459 159.876 245.198 159.614 245.198 159.292C245.198 158.969 245.459 158.708 245.782 158.708C246.104 158.708 246.366 158.969 246.366 159.292Z" fill="white"/>
<path d="M234.052 124.95C234.052 125.272 233.791 125.534 233.468 125.534C233.145 125.534 232.884 125.272 232.884 124.95C232.884 124.627 233.145 124.366 233.468 124.366C233.791 124.366 234.052 124.627 234.052 124.95Z" fill="white"/>
<path d="M257.334 96.741L242.747 71.2947C241.21 68.6138 237.343 68.6138 235.806 71.2947L219.033 100.555L226.719 108.241L239.276 95.6837L248.834 105.241L257.334 96.741Z" fill="white"/>
<path fill-rule="evenodd" clip-rule="evenodd" d="M234.939 70.7974C236.86 67.4462 241.693 67.4462 243.614 70.7974L258.201 96.2437C258.426 96.6354 258.36 97.1289 258.041 97.4481L249.541 105.948C249.15 106.339 248.517 106.339 248.127 105.948L239.276 97.0979L227.426 108.948C227.036 109.339 226.403 109.339 226.012 108.948L218.326 101.262C218.007 100.943 217.941 100.449 218.165 100.057L234.939 70.7974ZM241.879 71.792C240.726 69.7813 237.826 69.7813 236.674 71.792L220.281 100.389L226.719 106.827L238.569 94.9766C238.96 94.5861 239.593 94.5861 239.984 94.9766L248.834 103.827L256.086 96.5748L241.879 71.792Z" fill="#333333"/>
<path d="M134.329 18.1641L111.243 57.741L120.743 67.241L134.743 53.241L151.743 70.241L164.295 57.6884L141.239 18.1641C139.696 15.5181 135.873 15.5181 134.329 18.1641Z" fill="white"/>
<path fill-rule="evenodd" clip-rule="evenodd" d="M140.376 18.668C139.218 16.6834 136.351 16.6834 135.193 18.668L112.495 57.579L120.743 65.8268L134.036 52.5339C134.426 52.1434 135.059 52.1434 135.45 52.5339L151.743 68.8268L163.043 57.5264L140.376 18.668ZM133.465 17.6602C135.395 14.3527 140.174 14.3527 142.103 17.6602L165.159 57.1845C165.388 57.5769 165.324 58.0743 165.002 58.3955L152.45 70.9481C152.059 71.3387 151.426 71.3387 151.036 70.9481L134.743 54.6552L121.45 67.9481C121.059 68.3387 120.426 68.3387 120.036 67.9481L110.536 58.4481C110.214 58.1269 110.15 57.6295 110.379 57.2372L133.465 17.6602Z" fill="#333333"/>
<path d="M65.0833 174.704C67.5815 174.704 69.026 174.518 69.9303 174.325C70.3705 174.232 70.6778 174.137 70.9044 174.068L70.9239 174.062C71.1677 173.987 71.2605 173.964 71.3363 173.964C72.1305 173.964 72.7831 174.652 73.2592 175.741C73.7217 176.798 73.9333 178.057 73.9333 178.818C73.9333 179.386 73.8198 179.975 73.5673 180.406C73.3268 180.816 72.9673 181.082 72.4093 181.082C72.0843 181.082 71.8572 181.033 71.6889 180.961C71.5232 180.891 71.3948 180.791 71.2773 180.66C71.1548 180.523 71.0472 180.357 70.9195 180.149L70.8687 180.066C70.7578 179.884 70.6312 179.676 70.4794 179.469C70.1164 178.975 69.606 178.48 68.716 178.115C67.8384 177.755 66.6115 177.53 64.8243 177.53C63.796 177.53 63.0076 177.575 62.4159 177.724C61.8065 177.878 61.3629 178.153 61.0873 178.633C60.8293 179.082 60.7515 179.66 60.7252 180.334C60.7081 180.774 60.7128 181.294 60.7183 181.891C60.7212 182.213 60.7243 182.558 60.7243 182.925C60.7243 183.456 60.7305 183.893 60.7812 184.236C60.8324 184.581 60.9374 184.899 61.1903 185.133C61.4382 185.363 61.7663 185.453 62.1212 185.497C62.478 185.541 62.9341 185.545 63.4923 185.545C63.8923 185.545 64.2332 185.472 64.5191 185.324C64.8078 185.174 65.0172 184.96 65.1695 184.714C65.4594 184.247 65.5486 183.646 65.6221 183.152L65.6224 183.15C65.7026 182.61 65.7664 182.182 65.9382 181.875C66.0168 181.735 66.1123 181.633 66.2368 181.563C66.3631 181.492 66.5462 181.438 66.8223 181.438C67.2057 181.438 67.5089 181.616 67.7679 181.956C68.0361 182.308 68.2391 182.816 68.3859 183.406C68.6788 184.581 68.7163 185.946 68.7163 186.662C68.7163 187.408 68.6518 188.857 68.3225 190.108C68.1574 190.735 67.9338 191.279 67.6435 191.659C67.3612 192.028 67.0361 192.219 66.6373 192.219C66.4075 192.219 66.273 192.171 66.1888 192.116C66.105 192.062 66.0356 191.979 65.9752 191.846C65.9124 191.708 65.8667 191.534 65.8251 191.315C65.8046 191.207 65.7861 191.095 65.7665 190.974L65.7646 190.963C65.7458 190.848 65.7259 190.726 65.7032 190.603C65.611 190.107 65.4599 189.52 65.0281 189.065C64.5825 188.597 63.904 188.334 62.9003 188.334C62.451 188.334 62.0763 188.436 61.7786 188.644C61.4806 188.853 61.2971 189.141 61.184 189.446C60.9813 189.993 60.9824 190.673 60.9832 191.221L60.9833 191.324C60.9833 192.672 61.006 193.693 61.1052 194.458C61.2035 195.216 61.3847 195.796 61.7635 196.196C62.1512 196.606 62.6792 196.757 63.2933 196.821C63.7917 196.873 64.4084 196.871 65.1396 196.868C65.3001 196.868 65.4669 196.867 65.6383 196.867C67.5786 196.867 68.9368 196.534 69.9244 196.004C70.9182 195.472 71.503 194.759 71.9235 194.066C72.1098 193.759 72.2658 193.452 72.4067 193.174L72.4535 193.082C72.6103 192.774 72.7479 192.513 72.9013 192.295C73.0521 192.081 73.2069 191.925 73.3876 191.82C73.5652 191.718 73.7926 191.65 74.1113 191.65C74.5296 191.65 74.8613 191.878 75.1064 192.261C75.3561 192.651 75.4873 193.166 75.4873 193.618C75.4873 194.795 75.0121 196.492 74.3419 197.905C74.0085 198.608 73.6377 199.217 73.2731 199.643C72.8886 200.093 72.59 200.248 72.4093 200.248C72.3158 200.248 72.135 200.226 71.8489 200.183C71.7555 200.169 71.6523 200.153 71.5411 200.136C71.331 200.103 71.0924 200.066 70.8379 200.03L70.8278 200.029L70.8175 200.028C70.7284 200.02 70.6363 200.011 70.5412 200.002C69.7737 199.931 68.8122 199.841 67.6733 199.841H52.4663C51.2922 199.841 50.8078 199.572 50.6038 199.353C50.4023 199.137 50.3873 198.881 50.3873 198.65C50.3873 198.243 50.5039 198.085 50.6367 197.977C50.7194 197.91 50.8259 197.85 50.9701 197.781C51.0148 197.759 51.0683 197.735 51.1262 197.708C51.2318 197.66 51.3521 197.604 51.4596 197.549C51.8271 197.362 52.2334 197.092 52.5576 196.58C52.8769 196.074 53.094 195.369 53.1615 194.347C53.2014 193.741 53.2381 193.195 53.2715 192.698C53.6097 187.659 53.6105 187.647 53.2728 181.536C53.2067 180.095 52.9771 179.149 52.6372 178.511C52.2857 177.851 51.8303 177.547 51.3941 177.366C51.2405 177.303 51.0816 177.251 50.9484 177.209C50.9069 177.195 50.8679 177.183 50.8324 177.171C50.6682 177.116 50.5569 177.07 50.4722 177.012C50.3975 176.96 50.3378 176.896 50.2919 176.787C50.2424 176.671 50.2023 176.487 50.2023 176.191C50.2023 175.731 50.3551 175.442 50.5788 175.242C50.8177 175.027 51.1733 174.882 51.623 174.794C52.32 174.657 53.1119 174.676 53.8072 174.694C54.0254 174.699 54.2341 174.704 54.4273 174.704H65.0833Z" fill="white"/>
<path fill-rule="evenodd" clip-rule="evenodd" d="M114.536 174.704C117.231 174.704 119.397 174.574 121.083 174.444C121.601 174.404 122.07 174.364 122.493 174.329C123.459 174.247 124.185 174.186 124.711 174.186C127.155 174.186 129.534 174.897 131.292 176.258C133.041 177.611 134.19 179.615 134.19 182.259C134.19 184.89 133.083 186.894 131.368 188.249C129.643 189.612 127.284 190.332 124.785 190.332C124.257 190.332 123.725 190.286 123.19 190.24C122.651 190.194 122.108 190.147 121.566 190.147C121.301 190.147 121.018 190.2 120.813 190.415C120.613 190.625 120.574 190.903 120.574 191.139V193.285L120.574 193.295C120.602 194.486 120.798 195.301 121.107 195.88C121.423 196.472 121.84 196.783 122.234 196.992C122.376 197.067 122.522 197.132 122.648 197.189C122.687 197.206 122.724 197.223 122.759 197.239C123.06 197.377 123.217 197.471 123.306 197.664C123.35 197.76 123.386 197.905 123.386 198.132C123.386 198.557 123.161 198.905 122.706 199.206C122.242 199.514 121.581 199.741 120.83 199.901C119.334 200.22 117.622 200.248 116.793 200.248C116.014 200.248 114.293 200.238 112.773 199.937C112.009 199.785 111.333 199.567 110.857 199.265C110.39 198.968 110.163 198.625 110.163 198.206C110.163 197.806 110.286 197.617 110.444 197.483C110.6 197.35 110.792 197.263 111.05 197.145C111.071 197.135 111.093 197.125 111.115 197.115C111.488 196.946 111.996 196.716 112.363 196.223C112.68 195.795 112.864 195.214 112.864 194.395V179.928C112.864 179.139 112.614 178.587 112.204 178.191C111.796 177.796 111.261 177.59 110.824 177.421L110.788 177.408C110.379 177.25 110.053 177.124 109.809 176.93C109.582 176.749 109.423 176.504 109.423 176.043C109.423 175.492 109.707 175.16 110.155 174.941C110.627 174.711 111.251 174.63 111.798 174.63C112.251 174.63 112.696 174.648 113.15 174.667L113.154 174.667C113.605 174.685 114.065 174.704 114.536 174.704ZM122.38 177.752C122.003 177.752 121.696 177.78 121.448 177.846C121.197 177.914 120.983 178.026 120.829 178.209C120.676 178.391 120.618 178.6 120.594 178.787C120.573 178.946 120.573 179.122 120.573 179.28L120.574 179.336C120.574 180.358 120.568 181.38 120.563 182.403C120.558 183.425 120.553 184.447 120.553 185.468C120.553 185.679 120.574 185.938 120.704 186.181C120.987 186.706 121.625 186.914 122.639 186.914C123.974 186.914 124.951 186.4 125.579 185.543C126.193 184.705 126.443 183.584 126.443 182.407C126.443 181.18 126.132 180.02 125.455 179.159C124.769 178.284 123.735 177.752 122.38 177.752Z" fill="white"/>
<path fill-rule="evenodd" clip-rule="evenodd" d="M162.103 187.18C162.103 179.587 168.145 174.186 176.022 174.186C180.994 174.186 184.416 176.368 186.605 179.127C188.806 181.9 189.756 185.254 189.756 187.55C189.756 195.227 182.966 200.359 175.578 200.359C167.979 200.359 162.103 194.827 162.103 187.18ZM174.32 178.899C173.124 178.899 172.234 179.525 171.658 180.374C171.088 181.213 170.812 182.284 170.812 183.258C170.812 184.891 171.38 187.939 172.451 190.582C172.986 191.905 173.659 193.154 174.47 194.079C175.28 195.003 176.269 195.646 177.428 195.646C178.691 195.646 179.615 195.089 180.21 194.247C180.794 193.42 181.047 192.342 181.047 191.287C181.047 189.55 180.536 186.502 179.478 183.881C178.948 182.569 178.27 181.337 177.428 180.427C176.584 179.514 175.548 178.899 174.32 178.899Z" fill="white"/>
<path d="M270.786 187.143C270.786 179.598 277.186 174.186 284.927 174.186C286.512 174.186 287.735 174.429 288.685 174.673C288.974 174.747 289.221 174.817 289.452 174.882C289.617 174.929 289.774 174.973 289.934 175.016C290.286 175.109 290.623 175.185 290.921 175.185C291.324 175.185 291.7 175.045 292.076 174.906C292.449 174.768 292.82 174.63 293.215 174.63C294.127 174.63 294.94 175.39 295.554 176.541C296.156 177.67 296.478 179.021 296.478 179.891C296.478 180.737 296.261 181.567 295.838 182.173C295.424 182.766 294.811 183.154 293.955 183.154C292.463 183.154 291.674 182.212 290.667 181.01L290.643 180.982C290.044 180.267 289.37 179.463 288.44 178.876C287.61 178.354 286.593 178.011 285.26 178.011C283.529 178.011 282.091 178.732 281.094 179.984C280.104 181.228 279.569 182.969 279.569 184.997C279.569 192.781 284.133 195.757 286.777 195.757C288.297 195.757 289.434 194.612 289.434 193.063C289.434 192.64 289.367 192.286 289.227 191.997C289.083 191.7 288.872 191.493 288.622 191.354C288.194 191.114 287.689 191.084 287.207 191.055C287.177 191.053 287.146 191.052 287.116 191.05C286.61 191.018 286.239 190.976 285.98 190.801C285.765 190.657 285.549 190.36 285.549 189.585C285.549 189.073 285.804 188.664 286.285 188.32C286.776 187.967 287.475 187.705 288.27 187.519C289.855 187.146 291.685 187.099 292.623 187.099C296.082 187.099 297.826 187.59 298.697 188.15C299.122 188.423 299.335 188.71 299.447 188.967C299.562 189.229 299.586 189.49 299.586 189.733C299.586 190.433 298.989 190.982 298.228 191.113C297.757 191.168 297.362 191.249 297.083 191.544C296.831 191.809 296.743 192.136 296.63 192.562C296.621 192.595 296.612 192.629 296.602 192.664C295.223 197.829 290.22 200.359 285.075 200.359C277.404 200.359 270.786 195.055 270.786 187.143Z" fill="white"/>
<path d="M261.05 174.527C262.046 174.292 263.209 174.295 264.007 174.297C264.174 174.297 264.341 174.296 264.508 174.296C265.53 174.292 266.557 174.288 267.558 174.514C268.135 174.644 268.619 174.841 268.952 175.123C269.27 175.392 269.466 175.749 269.466 176.265C269.466 176.727 269.36 176.981 269.234 177.145C269.073 177.352 268.822 177.486 268.46 177.658C267.939 177.905 267.242 178.237 266.901 179.16L266.9 179.163C266.639 179.885 266.517 180.838 266.456 181.761C266.395 182.69 266.395 183.625 266.395 184.326C266.395 185.403 266.393 186.479 266.39 187.556C266.385 189.807 266.38 192.058 266.397 194.309C266.404 195.215 266.415 196.602 266.202 197.837C266.078 198.555 265.886 199.177 265.602 199.611C265.329 200.028 264.992 200.248 264.538 200.248C263.958 200.248 263.428 199.899 262.878 199.423L262.876 199.421L251.453 189.181L251.181 189.474L251.448 189.176L251.451 189.179C251.194 188.94 250.806 188.581 250.379 188.282C249.967 187.992 249.444 187.705 248.924 187.705C248.47 187.705 248.143 187.953 247.927 188.265C247.718 188.565 247.592 188.949 247.511 189.319C247.349 190.064 247.34 190.898 247.34 191.287C247.34 192.32 247.376 193.732 247.609 194.744L247.61 194.745C247.763 195.398 248.02 195.852 248.335 196.187C248.645 196.516 248.994 196.709 249.276 196.861L249.304 196.876C249.59 197.03 249.774 197.128 249.906 197.272C250.019 197.394 250.115 197.576 250.115 197.947C250.115 198.45 249.927 198.827 249.615 199.126C249.293 199.437 248.827 199.672 248.273 199.845C247.164 200.192 245.828 200.248 244.965 200.248C244.122 200.248 242.793 200.192 241.687 199.854C241.135 199.685 240.669 199.455 240.347 199.154C240.037 198.863 239.852 198.501 239.852 198.021C239.852 197.614 239.96 197.391 240.096 197.233C240.25 197.054 240.463 196.927 240.767 196.747L240.776 196.741C241.066 196.569 241.421 196.354 241.721 196.01C242.028 195.657 242.26 195.191 242.363 194.533C242.628 192.908 242.701 190.55 242.701 188.882V188.867C242.701 186.213 242.701 183.487 242.29 180.793L242.289 180.79C242.133 179.814 241.834 179.141 241.449 178.656C241.064 178.171 240.617 177.903 240.227 177.704C240.152 177.665 240.075 177.629 239.998 177.592C239.763 177.481 239.523 177.368 239.332 177.195C239.169 177.047 239.038 176.835 239.038 176.376C239.038 175.872 239.268 175.5 239.678 175.205C240.105 174.898 240.717 174.685 241.422 174.544C242.7 174.288 244.151 174.293 245.042 174.296C245.134 174.297 245.219 174.297 245.298 174.297C246.453 174.297 247.058 174.338 247.578 174.531C248.095 174.723 248.562 175.08 249.398 175.824L249.4 175.826L258.169 183.522L258.177 183.528C258.219 183.564 258.27 183.607 258.329 183.657C258.56 183.853 258.904 184.146 259.262 184.405C259.679 184.706 260.191 185.064 260.727 185.064C261.085 185.064 261.367 184.911 261.568 184.681C261.758 184.465 261.871 184.19 261.941 183.932C262.081 183.417 262.089 182.832 262.089 182.518C262.089 182.051 262.08 181.411 262.033 180.777C261.986 180.153 261.9 179.5 261.735 179.022C261.451 178.172 260.788 177.824 260.291 177.563C260.23 177.53 260.171 177.499 260.115 177.469C259.846 177.321 259.649 177.187 259.51 177.005C259.38 176.833 259.277 176.583 259.277 176.154C259.277 175.686 259.457 175.358 259.751 175.107C260.06 174.843 260.51 174.654 261.05 174.527Z" fill="white"/>
<path d="M241.968 194.469L242.363 194.531L242.363 194.533L241.968 194.469Z" fill="white"/>
<path d="M100.366 174.297C101.151 174.297 102.452 174.299 103.552 174.576C104.102 174.715 104.564 174.914 104.883 175.185C105.188 175.444 105.368 175.773 105.368 176.228C105.368 176.6 105.293 176.845 105.192 177.012C105.092 177.176 104.948 177.296 104.752 177.387C104.36 177.571 103.837 177.615 103.22 177.667L103.072 177.679C102.245 177.743 101.471 178.142 100.811 178.637C100.146 179.135 99.5673 179.754 99.1276 180.308L99.1262 180.31L96.5866 183.549C96.4682 183.672 96.2309 183.947 96.0845 184.214C96.0438 184.288 95.97 184.433 95.97 184.59C95.97 184.744 96.0227 184.88 96.0724 184.979C96.1674 185.169 96.3022 185.328 96.4376 185.488C96.4841 185.543 96.5306 185.598 96.5757 185.654L103.494 194.348C104.428 195.52 105.42 195.931 106.153 196.235C106.216 196.262 106.279 196.288 106.338 196.313C106.719 196.474 106.957 196.599 107.115 196.775C107.255 196.931 107.366 197.172 107.366 197.651C107.366 197.925 107.356 198.174 107.243 198.421C107.135 198.659 106.91 198.939 106.391 199.212C105.324 199.773 103.118 200.248 98.59 200.248C98.4966 200.248 98.3905 200.249 98.2735 200.249C97.3973 200.254 95.9114 200.263 94.5765 200.041C93.8178 199.914 93.1488 199.719 92.6795 199.432C92.2229 199.154 91.997 198.82 91.997 198.391C91.997 198.118 92.0684 197.933 92.1652 197.79C92.2675 197.64 92.4112 197.516 92.5891 197.388C92.6291 197.36 92.6748 197.328 92.7233 197.295C92.8624 197.199 93.0254 197.087 93.1482 196.973C93.3348 196.801 93.514 196.557 93.514 196.208C93.514 195.88 93.3895 195.51 93.2329 195.163C93.0714 194.806 92.8539 194.426 92.6246 194.062C92.1888 193.37 91.7222 192.745 91.2231 192.103C91.219 192.098 91.2148 192.093 91.2105 192.087C91.1712 192.037 91.1201 191.971 91.0645 191.91C90.9418 191.775 90.7308 191.59 90.413 191.59C90.2137 191.59 90.0408 191.708 89.8958 191.833C89.7667 191.945 89.6245 192.095 89.4794 192.263C89.1872 192.602 88.8509 193.052 88.5342 193.511C88.0588 194.202 87.6174 194.922 87.4071 195.398C87.3411 195.547 87.275 195.709 87.275 195.875C87.275 196.234 87.4487 196.487 87.642 196.671C87.7612 196.785 87.8948 196.88 88.0284 196.976C88.0893 197.02 88.1501 197.064 88.2096 197.109C88.3875 197.245 88.5363 197.382 88.6441 197.56C88.7488 197.733 88.829 197.968 88.829 198.317C88.829 198.514 88.786 198.712 88.6643 198.905C88.5415 199.099 88.3223 199.313 87.9279 199.515C87.1257 199.924 85.6583 200.248 83.05 200.248C80.419 200.248 78.9575 199.932 78.1648 199.509C77.778 199.302 77.5632 199.077 77.441 198.86C77.3179 198.641 77.271 198.399 77.271 198.132C77.271 197.738 77.3982 197.397 77.6521 197.153C77.906 196.91 78.3329 196.719 79.017 196.719C79.8227 196.719 80.507 196.517 81.2515 195.971C81.9734 195.442 82.751 194.591 83.7698 193.312C84.1835 192.795 84.6023 192.281 85.0213 191.767C85.8535 190.745 86.6863 189.723 87.4805 188.675C87.5424 188.593 87.6087 188.5 87.6612 188.408C87.7027 188.335 87.779 188.192 87.779 188.031C87.779 187.88 87.7276 187.742 87.6793 187.642C87.5335 187.339 87.2927 187.085 87.1626 186.953L81.9235 180.164C80.9541 178.91 79.8872 178.527 79.1041 178.245L78.9822 178.201C78.5752 178.054 78.3223 177.944 78.1561 177.782C78.0158 177.644 77.9 177.429 77.9 176.968C77.9 176.764 77.9064 176.539 78.0175 176.294C78.1261 176.055 78.3541 175.756 78.8693 175.46C79.9247 174.854 82.1187 174.297 86.639 174.297C89.268 174.297 90.8058 174.485 91.6788 174.837C92.1036 175.008 92.3399 175.206 92.4759 175.413C92.6122 175.62 92.677 175.879 92.677 176.228C92.677 176.578 92.6061 176.806 92.5188 176.964C92.4306 177.123 92.3107 177.24 92.1682 177.349C92.1155 177.389 92.0596 177.427 92.0015 177.467C91.9014 177.535 91.7951 177.608 91.6882 177.703C91.5147 177.856 91.345 178.079 91.345 178.411C91.345 178.548 91.3829 178.687 91.4257 178.804C91.4706 178.928 91.5322 179.058 91.6024 179.188C91.7428 179.448 91.931 179.731 92.1305 179.991C92.3295 180.251 92.5487 180.5 92.7549 180.689C92.9532 180.87 93.2012 181.068 93.484 181.068C93.7821 181.068 94.0451 180.854 94.2552 180.665C94.4789 180.463 94.7188 180.199 94.9368 179.931C95.1556 179.661 95.3612 179.377 95.5144 179.131L95.5253 179.114C95.6545 178.907 95.808 178.661 95.808 178.411C95.808 178.065 95.6566 177.817 95.4724 177.631C95.3538 177.511 95.195 177.396 95.0646 177.301C95.0218 177.269 94.982 177.24 94.9477 177.214C94.7863 177.091 94.6567 176.972 94.5632 176.819C94.4732 176.671 94.402 176.467 94.402 176.154C94.402 175.889 94.4504 175.672 94.5693 175.485C94.6884 175.297 94.9035 175.099 95.3075 174.919C96.1357 174.549 97.6526 174.297 100.366 174.297Z" fill="white"/>
<path d="M136.386 176.746C136.386 176.242 136.648 175.835 137.149 175.491C137.66 175.14 138.385 174.882 139.205 174.699C140.838 174.335 142.706 174.297 143.608 174.297C147.309 174.297 149.171 174.615 150.1 175.046C150.549 175.254 150.748 175.474 150.849 175.671C151.017 176 151.055 176.544 150.892 176.886C150.844 176.986 150.776 177.063 150.683 177.133C150.488 177.278 150.251 177.363 150.018 177.446C149.933 177.477 149.848 177.508 149.767 177.541C149.379 177.698 148.931 177.922 148.591 178.381C148.25 178.842 148.055 179.485 148.055 180.409V192.175C148.055 193.499 148.158 194.606 148.673 195.376C149.221 196.194 150.155 196.534 151.526 196.534C153.152 196.534 154.282 196.202 155.087 195.663C155.895 195.122 156.331 194.403 156.621 193.719C156.73 193.462 156.817 193.197 156.905 192.931C157.012 192.604 157.119 192.277 157.267 191.967C157.369 191.753 157.471 191.614 157.583 191.527C157.685 191.447 157.822 191.391 158.038 191.391C158.699 191.391 159.155 191.731 159.465 192.258C159.785 192.8 159.932 193.52 159.932 194.173C159.932 195.533 159.44 197.112 158.736 198.351C158.385 198.968 157.991 199.484 157.598 199.839C157.198 200.201 156.841 200.359 156.558 200.359C156.114 200.359 155.758 200.29 155.33 200.208C155.162 200.175 154.983 200.14 154.782 200.107C154.054 199.954 153.214 199.841 151.933 199.841H139.575L139.444 199.841C138.86 199.842 138.224 199.843 137.715 199.684C137.451 199.601 137.255 199.483 137.124 199.328C136.998 199.179 136.904 198.96 136.904 198.613C136.904 198.367 136.943 198.206 136.993 198.095C137.042 197.987 137.11 197.908 137.201 197.838C137.298 197.763 137.421 197.699 137.583 197.628C137.635 197.605 137.697 197.58 137.765 197.552C137.882 197.503 138.013 197.448 138.13 197.394C138.536 197.205 138.983 196.929 139.326 196.379C139.663 195.839 139.872 195.076 139.901 193.962C139.975 191.256 139.975 188.883 139.975 186.701V186.699C139.975 185.28 139.9 183.908 139.826 182.57C139.784 181.811 139.743 181.062 139.716 180.323C139.696 179.473 139.453 178.885 139.048 178.478C138.657 178.084 138.157 177.907 137.738 177.783C137.648 177.756 137.566 177.733 137.487 177.71C137.368 177.677 137.258 177.645 137.144 177.608C136.964 177.55 136.821 177.491 136.709 177.421C136.466 177.268 136.386 177.024 136.386 176.746Z" fill="white"/>
<path d="M222.219 176.561C222.219 176.12 222.523 175.726 223.195 175.376C223.858 175.03 224.776 174.789 225.752 174.624C227.696 174.297 229.739 174.297 230.107 174.297C231.221 174.297 232.87 174.317 234.233 174.638C234.916 174.799 235.49 175.027 235.886 175.336C236.267 175.634 236.478 176.001 236.478 176.487C236.478 176.742 236.413 176.902 236.324 177.022C236.227 177.153 236.08 177.266 235.867 177.391C235.765 177.45 235.652 177.511 235.535 177.573C235.401 177.644 235.262 177.718 235.129 177.798C234.858 177.958 234.572 178.158 234.321 178.442L234.318 178.446C234.072 178.73 233.922 179.178 233.818 179.653C233.71 180.146 233.638 180.74 233.589 181.377C233.49 182.653 233.481 184.147 233.481 185.441V189.104C233.481 192.388 233.59 194.046 233.807 194.942C233.918 195.402 234.067 195.706 234.28 195.927C234.437 196.091 234.63 196.199 234.77 196.278C234.803 196.297 234.833 196.313 234.859 196.329C235.052 196.445 235.246 196.547 235.42 196.638C235.465 196.662 235.509 196.685 235.551 196.707C235.763 196.82 235.935 196.917 236.075 197.025C236.211 197.129 236.306 197.235 236.37 197.357C236.434 197.479 236.478 197.64 236.478 197.873C236.478 198.133 236.457 198.368 236.342 198.594C236.231 198.815 236.007 199.072 235.518 199.32C234.513 199.829 232.487 200.248 228.442 200.248C227.663 200.248 226.15 200.238 224.839 199.943C224.182 199.796 223.612 199.584 223.214 199.295C222.831 199.015 222.626 198.679 222.626 198.243C222.626 197.836 222.822 197.599 223.164 197.35C223.279 197.267 223.388 197.197 223.507 197.121C223.586 197.071 223.669 197.018 223.76 196.957C223.969 196.817 224.196 196.649 224.381 196.43C224.68 196.08 224.896 195.511 225.046 194.441C225.198 193.359 225.29 191.699 225.29 189.104V185.441C225.29 183.086 225.198 181.618 225.049 180.667C224.901 179.711 224.69 179.238 224.428 178.904L224.426 178.902C224.182 178.594 223.899 178.361 223.629 178.167C223.497 178.072 223.368 177.986 223.243 177.903C223.119 177.822 222.999 177.742 222.881 177.657C222.662 177.498 222.501 177.353 222.392 177.187C222.288 177.031 222.219 176.837 222.219 176.561Z" fill="white"/>
<path fill-rule="evenodd" clip-rule="evenodd" d="M192.012 176.339C192.012 175.936 192.151 175.636 192.377 175.397C192.611 175.149 192.954 174.954 193.373 174.806C194.214 174.51 195.25 174.445 195.978 174.445C196.479 174.445 196.952 174.476 197.445 174.508C197.703 174.525 197.967 174.542 198.243 174.555C198.978 174.629 199.77 174.704 200.529 174.704C201.691 174.704 202.85 174.634 204.03 174.562C205.251 174.486 206.484 174.445 207.707 174.445C209.748 174.445 211.925 174.898 213.578 175.925C215.213 176.941 216.335 178.514 216.335 180.816C216.335 182.915 215.323 184.901 213.416 185.821C213.23 185.911 213.034 186.024 212.886 186.171C212.696 186.361 212.598 186.606 212.598 186.921C212.598 187.345 212.796 187.633 213.057 187.826C213.242 187.963 213.456 188.05 213.668 188.137C213.704 188.152 213.741 188.166 213.776 188.181C214.871 188.588 215.849 189.224 216.492 190.218C217.119 191.19 217.525 192.545 217.781 194.52C217.898 195.427 218.152 196.03 218.511 196.435C218.874 196.844 219.303 197.005 219.656 197.11C219.716 197.127 219.779 197.143 219.843 197.159C220.039 197.208 220.246 197.26 220.402 197.378C220.501 197.454 220.627 197.605 220.627 198.095C220.627 198.617 220.315 199.223 219.454 199.719C218.588 200.217 217.194 200.581 215.144 200.581C212.271 200.581 210.746 199.762 209.774 198.432C208.775 197.066 208.317 195.116 207.745 192.681C207.537 191.796 207.281 190.878 206.734 190.134C206.2 189.408 205.417 188.926 204.266 188.926C204.067 188.926 203.835 188.93 203.624 189C203.385 189.078 203.192 189.232 203.055 189.48C202.931 189.707 202.86 189.999 202.818 190.356C202.775 190.717 202.756 191.18 202.756 191.768C202.756 192.85 202.83 194.356 203.021 195.426C203.195 196.428 203.85 196.818 204.342 197.111C204.633 197.284 204.843 197.415 204.986 197.594C205.104 197.742 205.198 197.952 205.198 198.317C205.198 198.604 205.148 198.832 205.023 199.027C204.898 199.222 204.669 199.427 204.23 199.614C203.331 199.996 201.673 200.248 198.679 200.248C197.786 200.248 196.071 200.247 194.584 199.92C193.839 199.756 193.189 199.518 192.734 199.185C192.292 198.863 192.049 198.468 192.049 197.947C192.049 197.756 192.083 197.628 192.128 197.534C192.174 197.439 192.242 197.357 192.342 197.273C192.505 197.134 192.689 197.022 192.873 196.91C193.009 196.827 193.145 196.745 193.273 196.651C193.663 196.365 194.061 195.969 194.356 195.311C194.646 194.662 194.824 193.783 194.824 192.545V182C194.824 180.54 194.646 179.552 194.353 178.862C194.052 178.155 193.638 177.779 193.22 177.534C193.092 177.459 192.955 177.399 192.817 177.339C192.632 177.258 192.447 177.177 192.285 177.06C192.199 176.998 192.139 176.931 192.096 176.838C192.05 176.739 192.012 176.586 192.012 176.339ZM206.075 178.088C205.39 177.686 204.325 177.534 203.592 177.91C203.317 178.052 203.132 178.263 203.013 178.511C202.899 178.748 202.847 179.013 202.817 179.27C202.7 180.271 202.674 181.287 202.649 182.299C202.638 182.736 202.627 183.171 202.609 183.604C202.603 183.673 202.597 183.746 202.59 183.82C202.576 183.98 202.562 184.146 202.556 184.295C202.547 184.519 202.552 184.765 202.62 184.992C202.693 185.233 202.837 185.455 203.089 185.605C203.328 185.748 203.627 185.804 203.97 185.804C205.246 185.804 206.179 185.448 206.775 184.701C207.356 183.974 207.552 182.955 207.552 181.778C207.552 180.853 207.442 179.854 207.012 179.074C206.794 178.677 206.49 178.331 206.075 178.088Z" fill="white"/>
<path d="M158.153 134.601C160.853 134.601 162.412 134.4 163.387 134.192C163.861 134.091 164.192 133.99 164.437 133.915L164.458 133.909C164.72 133.828 164.826 133.801 164.913 133.801C165.793 133.801 166.506 134.563 167.022 135.741C167.524 136.888 167.753 138.254 167.753 139.081C167.753 139.699 167.63 140.341 167.353 140.814C167.088 141.266 166.69 141.561 166.073 141.561C165.719 141.561 165.469 141.507 165.282 141.428C165.098 141.35 164.955 141.238 164.825 141.094C164.691 140.944 164.573 140.762 164.435 140.537L164.38 140.447C164.26 140.25 164.124 140.027 163.961 139.804C163.571 139.274 163.024 138.743 162.068 138.351C161.125 137.964 159.803 137.721 157.873 137.721C156.762 137.721 155.913 137.77 155.278 137.93C154.624 138.095 154.154 138.388 153.862 138.897C153.587 139.375 153.503 139.993 153.474 140.721C153.456 141.195 153.461 141.756 153.467 142.4V142.401C153.47 142.75 153.473 143.124 153.473 143.521C153.473 144.095 153.48 144.565 153.535 144.933C153.589 145.304 153.701 145.639 153.967 145.885C154.227 146.126 154.574 146.222 154.955 146.269C155.338 146.317 155.829 146.321 156.433 146.321C156.862 146.321 157.225 146.243 157.529 146.085C157.835 145.927 158.057 145.699 158.219 145.438C158.529 144.939 158.624 144.296 158.704 143.76L158.705 143.755C158.791 143.176 158.861 142.707 159.049 142.37C159.137 142.214 159.244 142.099 159.384 142.02C159.527 141.94 159.731 141.881 160.033 141.881C160.46 141.881 160.797 142.08 161.081 142.454C161.375 142.84 161.596 143.393 161.755 144.033C162.073 145.308 162.113 146.787 162.113 147.561C162.113 148.368 162.044 149.938 161.687 151.294C161.508 151.974 161.264 152.567 160.947 152.982C160.637 153.387 160.277 153.601 159.833 153.601C159.58 153.601 159.428 153.548 159.331 153.485C159.234 153.422 159.155 153.326 159.088 153.179C159.019 153.026 158.969 152.834 158.923 152.597C158.901 152.48 158.881 152.358 158.86 152.228L158.858 152.216L158.858 152.214C158.837 152.09 158.816 151.959 158.792 151.828C158.692 151.292 158.53 150.665 158.07 150.182C157.596 149.683 156.873 149.401 155.793 149.401C155.313 149.401 154.914 149.51 154.599 149.731C154.284 149.951 154.089 150.257 153.968 150.582C153.751 151.168 153.752 151.897 153.753 152.491L153.753 152.601C153.753 154.059 153.778 155.161 153.885 155.985C153.991 156.802 154.186 157.421 154.588 157.846C154.999 158.28 155.56 158.443 156.222 158.511C156.759 158.567 157.423 158.565 158.213 158.562C158.387 158.562 158.568 158.561 158.753 158.561C160.847 158.561 162.31 158.201 163.372 157.632C164.439 157.06 165.068 156.295 165.52 155.548C165.721 155.217 165.889 154.886 166.042 154.586L166.092 154.487C166.262 154.154 166.411 153.87 166.579 153.632C166.744 153.398 166.914 153.226 167.115 153.11C167.312 152.995 167.564 152.921 167.913 152.921C168.38 152.921 168.747 153.176 169.016 153.597C169.29 154.024 169.433 154.587 169.433 155.081C169.433 156.36 168.918 158.2 168.192 159.73C167.831 160.491 167.428 161.152 167.032 161.616C166.615 162.103 166.284 162.281 166.073 162.281C165.969 162.281 165.771 162.257 165.463 162.21C165.361 162.195 165.25 162.178 165.129 162.159C164.902 162.124 164.645 162.084 164.37 162.045L164.36 162.044L164.35 162.043C164.253 162.034 164.154 162.025 164.051 162.015C163.221 161.938 162.183 161.841 160.953 161.841H144.513C143.24 161.841 142.706 161.55 142.476 161.303C142.249 161.06 142.233 160.772 142.233 160.521C142.233 160.073 142.363 159.892 142.515 159.768C142.607 159.693 142.725 159.627 142.882 159.552C142.906 159.54 142.933 159.528 142.962 159.514L143.052 159.473C143.166 159.42 143.294 159.361 143.41 159.302C143.805 159.101 144.238 158.813 144.585 158.265C144.926 157.725 145.16 156.969 145.233 155.867C145.276 155.212 145.315 154.621 145.352 154.083C145.717 148.638 145.718 148.626 145.353 142.021C145.282 140.465 145.034 139.448 144.67 138.764C144.294 138.059 143.808 137.735 143.342 137.542C143.177 137.473 143.007 137.419 142.863 137.372L142.861 137.372C142.817 137.357 142.775 137.344 142.737 137.331C142.559 137.272 142.435 137.221 142.339 137.155C142.254 137.096 142.185 137.022 142.133 136.898C142.077 136.767 142.033 136.564 142.033 136.241C142.033 135.735 142.202 135.414 142.451 135.191C142.716 134.953 143.107 134.794 143.595 134.699C144.353 134.55 145.214 134.571 145.966 134.59C146.202 134.595 146.426 134.601 146.633 134.601H158.153Z" fill="white"/>
<path fill-rule="evenodd" clip-rule="evenodd" d="M185.693 134.32C183.871 134.46 181.53 134.601 178.617 134.601C178.109 134.601 177.612 134.581 177.124 134.561L177.121 134.561C176.629 134.541 176.147 134.521 175.657 134.521C175.064 134.521 174.384 134.609 173.867 134.861C173.374 135.101 173.057 135.47 173.057 136.081C173.057 136.589 173.234 136.864 173.487 137.066C173.755 137.278 174.112 137.416 174.553 137.586L174.661 137.628C175.121 137.806 175.659 138.025 176.074 138.426C176.51 138.848 176.777 139.436 176.777 140.281V155.921C176.777 156.801 176.58 157.423 176.242 157.878C175.907 158.328 175.467 158.568 175.088 158.748C174.999 158.79 174.916 158.828 174.838 158.863C174.558 158.991 174.345 159.088 174.172 159.235C173.994 159.387 173.857 159.599 173.857 160.041C173.857 160.508 174.112 160.888 174.623 161.213C175.142 161.543 175.878 161.78 176.705 161.944C178.352 162.27 180.216 162.281 181.057 162.281C181.954 162.281 183.808 162.25 185.428 161.905C186.242 161.731 186.961 161.486 187.468 161.15C187.965 160.82 188.217 160.434 188.217 159.961C188.217 159.712 188.178 159.551 188.127 159.441C188.079 159.336 188.011 159.257 187.917 159.185C187.816 159.109 187.69 159.043 187.52 158.966C187.482 158.948 187.442 158.93 187.399 158.911C187.263 158.85 187.107 158.78 186.954 158.699C186.532 158.476 186.087 158.144 185.75 157.511C185.419 156.892 185.208 156.015 185.177 154.731L185.177 154.721V152.401C185.177 152.149 185.219 151.858 185.427 151.64C185.639 151.418 185.935 151.361 186.217 151.361C186.76 151.361 187.329 151.41 187.892 151.458L187.946 151.462C188.533 151.513 189.116 151.561 189.697 151.561C192.405 151.561 194.962 150.781 196.834 149.302C198.696 147.831 199.897 145.655 199.897 142.801C199.897 139.932 198.65 137.756 196.752 136.287C194.844 134.811 192.265 134.041 189.617 134.041C189.047 134.041 188.26 134.107 187.215 134.195C186.758 134.234 186.252 134.277 185.693 134.32ZM187.097 137.961C186.691 137.961 186.362 137.992 186.098 138.062C185.83 138.133 185.607 138.252 185.446 138.444C185.286 138.634 185.224 138.853 185.198 139.052C185.176 139.222 185.176 139.41 185.177 139.581L185.177 139.641V145.641C185.177 145.734 185.172 145.829 185.166 145.937L185.166 145.943C185.16 146.045 185.154 146.158 185.154 146.27C185.154 146.497 185.177 146.77 185.314 147.025C185.61 147.576 186.283 147.801 187.377 147.801C188.812 147.801 189.857 147.25 190.529 146.332C191.188 145.434 191.457 144.229 191.457 142.961C191.457 141.639 191.122 140.394 190.397 139.469C189.661 138.532 188.552 137.961 187.097 137.961Z" fill="white"/>
<path d="M98.0082 134.16C98.9901 134.155 100.368 134.147 101.559 134.407C102.231 134.553 102.801 134.777 103.196 135.1C103.271 135.161 103.34 135.226 103.402 135.296C103.656 135.578 103.804 135.934 103.804 136.401C103.804 137.127 103.581 137.483 103.297 137.689C103.072 137.853 102.771 137.952 102.4 138.012C102.251 138.036 102.09 138.054 101.918 138.067C101.662 138.087 101.398 138.096 101.125 138.106L101.004 138.11C100.693 138.121 100.37 138.135 100.06 138.169C99.4543 138.235 98.813 138.387 98.3615 138.838C98.2053 138.994 97.9366 139.223 97.5912 139.516L97.5776 139.528C97.1149 139.921 96.5229 140.424 95.9661 140.964C95.483 141.432 95.012 141.94 94.6594 142.448C94.3137 142.946 94.0443 143.497 94.0443 144.041C94.0443 144.699 94.3355 145.289 94.6737 145.786C94.9305 146.163 95.2409 146.522 95.5081 146.83C96.3574 147.811 97.2095 148.79 98.063 149.767C99.1735 151.039 100.287 152.309 101.4 153.578C102.301 154.606 103.203 155.635 104.103 156.664L104.104 156.666C104.45 157.058 104.876 157.33 105.289 157.552C105.47 157.65 105.654 157.741 105.83 157.828L105.906 157.865C106.107 157.965 106.297 158.061 106.476 158.163C106.834 158.368 107.119 158.584 107.318 158.865C107.512 159.139 107.644 159.503 107.644 160.041C107.644 160.47 107.536 160.772 107.376 160.995C107.214 161.221 106.977 161.394 106.673 161.523C106.049 161.788 105.223 161.841 104.444 161.841H97.6443C96.856 161.841 96.5753 161.803 96.284 161.605C96.1239 161.496 95.9467 161.328 95.6999 161.048C95.4886 160.809 95.2412 160.505 94.9208 160.112L94.7537 159.908L92.0338 156.587L92.0291 156.582C91.9704 156.513 91.8981 156.427 91.8143 156.327C91.423 155.86 90.7833 155.098 90.1241 154.405C89.7242 153.985 89.3068 153.58 88.924 153.276C88.7328 153.125 88.5413 152.992 88.3578 152.894C88.1814 152.801 87.9752 152.721 87.7643 152.721C87.4345 152.721 87.1446 152.805 86.905 152.977C86.6684 153.146 86.5109 153.38 86.4055 153.631C86.2015 154.117 86.1643 154.74 86.1643 155.321V156.161C86.1643 157.305 86.9214 157.935 87.5241 158.437L87.5683 158.473C88.2143 159.012 88.6843 159.431 88.6843 160.201C88.6843 160.472 88.6362 160.7 88.4984 160.906C88.3589 161.114 88.0979 161.342 87.5912 161.552C86.56 161.979 84.6394 162.281 81.1243 162.281C77.9665 162.281 76.2625 162.008 75.3568 161.606C74.9163 161.41 74.6929 161.195 74.572 160.992C74.4494 160.785 74.4043 160.544 74.4043 160.241C74.4043 159.793 74.5091 159.564 74.6364 159.406C74.758 159.254 74.9097 159.147 75.1284 158.992C75.1811 158.954 75.2377 158.914 75.2987 158.87C75.596 158.655 75.937 158.379 76.2312 157.92C76.5235 157.463 76.7536 156.852 76.8798 155.981C77.2449 153.707 77.2843 151.119 77.2843 148.841C77.2843 148.651 77.2846 148.457 77.2848 148.262C77.2878 145.929 77.2912 143.266 76.879 140.976C76.7422 140.075 76.4955 139.46 76.1787 139.014C75.8596 138.564 75.4905 138.316 75.1785 138.125C75.1396 138.101 75.1024 138.079 75.0669 138.057C74.803 137.897 74.6299 137.791 74.4958 137.624C74.3625 137.458 74.2443 137.191 74.2443 136.641C74.2443 136.611 74.2439 136.582 74.2435 136.552C74.2413 136.393 74.2391 136.238 74.3032 136.051C74.3737 135.846 74.5392 135.575 74.9742 135.298C75.8757 134.724 77.874 134.161 82.2443 134.161L82.3088 134.161C83.2613 134.161 84.6791 134.161 85.8677 134.473C86.4736 134.632 86.9824 134.864 87.3347 135.187C87.6737 135.497 87.8843 135.906 87.8843 136.481C87.8843 136.928 87.7733 137.153 87.6311 137.327C87.5511 137.425 87.4529 137.516 87.3266 137.625C87.3026 137.646 87.2774 137.667 87.2513 137.689C87.146 137.78 87.0241 137.884 86.9054 137.999C86.5941 138.302 86.2815 138.701 86.0514 139.344C85.8248 139.978 85.6843 140.833 85.6843 142.041C85.6843 142.302 85.6929 142.771 85.8093 143.184C85.8676 143.391 85.9618 143.618 86.1243 143.799C86.298 143.992 86.5405 144.121 86.8443 144.121C87.0907 144.121 87.3355 144.01 87.5432 143.885C87.7621 143.753 87.9948 143.571 88.2291 143.361C88.6986 142.941 89.2098 142.38 89.6805 141.797C90.1518 141.214 90.5914 140.598 90.9156 140.064C91.0774 139.798 91.2145 139.545 91.3124 139.323C91.4041 139.115 91.4843 138.885 91.4843 138.681C91.4843 138.169 91.2899 137.787 91.1353 137.483L91.121 137.455C90.9607 137.139 90.8443 136.896 90.8443 136.561C90.8443 135.962 91.1021 135.529 91.5422 135.193C91.9989 134.844 92.6521 134.602 93.4071 134.442C94.7802 134.152 96.3531 134.157 97.3611 134.16C97.4613 134.161 97.556 134.161 97.6443 134.161C97.7579 134.161 97.8797 134.16 98.0082 134.16Z" fill="white"/>
<path d="M132.363 134.192C131.388 134.4 129.829 134.601 127.13 134.601H115.61C115.403 134.601 115.178 134.595 114.943 134.59C114.191 134.571 113.329 134.55 112.572 134.699C112.083 134.794 111.692 134.953 111.428 135.191C111.178 135.414 111.01 135.735 111.01 136.241C111.01 136.564 111.054 136.767 111.109 136.898C111.162 137.022 111.23 137.096 111.316 137.155C111.411 137.221 111.535 137.272 111.713 137.331C111.752 137.344 111.795 137.358 111.84 137.372C111.984 137.419 112.154 137.473 112.318 137.542C112.784 137.735 113.27 138.059 113.646 138.764C114.01 139.448 114.258 140.465 114.329 142.021C114.694 148.626 114.694 148.638 114.328 154.083L114.328 154.085C114.292 154.622 114.252 155.213 114.209 155.867C114.136 156.969 113.903 157.725 113.561 158.265C113.215 158.813 112.781 159.101 112.387 159.302C112.271 159.361 112.142 159.421 112.029 159.473C111.966 159.502 111.908 159.528 111.858 159.552C111.702 159.627 111.584 159.693 111.491 159.768C111.339 159.892 111.21 160.073 111.21 160.521C111.21 160.772 111.226 161.06 111.453 161.303C111.682 161.55 112.217 161.841 113.49 161.841H129.93C131.16 161.841 132.198 161.938 133.027 162.015C133.089 162.021 133.15 162.027 133.21 162.032C133.249 162.036 133.288 162.039 133.326 162.043L133.336 162.044L133.347 162.045C133.621 162.084 133.879 162.124 134.106 162.159C134.226 162.178 134.338 162.195 134.439 162.21C134.748 162.257 134.946 162.281 135.05 162.281C135.261 162.281 135.592 162.103 136.008 161.616C136.405 161.152 136.807 160.491 137.169 159.73C137.894 158.2 138.41 156.36 138.41 155.081C138.41 154.587 138.267 154.024 137.993 153.597C137.724 153.176 137.356 152.921 136.89 152.921C136.54 152.921 136.289 152.995 136.091 153.11C135.891 153.226 135.72 153.398 135.555 153.632C135.388 153.87 135.238 154.154 135.069 154.487L135.018 154.586C134.866 154.886 134.698 155.217 134.497 155.548C134.044 156.295 133.416 157.06 132.348 157.632C131.287 158.201 129.824 158.561 127.73 158.561C127.544 158.561 127.364 158.562 127.19 158.562C126.4 158.565 125.735 158.567 125.198 158.511C124.537 158.443 123.976 158.28 123.565 157.846C123.162 157.421 122.967 156.802 122.861 155.985C122.754 155.161 122.73 154.059 122.73 152.601L122.73 152.491C122.729 151.897 122.728 151.168 122.945 150.582C123.065 150.257 123.26 149.951 123.576 149.731C123.891 149.51 124.289 149.401 124.77 149.401C125.849 149.401 126.573 149.683 127.047 150.182C127.507 150.665 127.669 151.292 127.768 151.828C127.793 151.96 127.814 152.091 127.834 152.216L127.837 152.228C127.858 152.358 127.878 152.48 127.9 152.597C127.945 152.834 127.995 153.026 128.065 153.179C128.132 153.326 128.21 153.422 128.307 153.485C128.405 153.548 128.557 153.601 128.81 153.601C129.254 153.601 129.614 153.387 129.923 152.982C130.241 152.567 130.484 151.974 130.663 151.294C131.02 149.938 131.09 148.368 131.09 147.561C131.09 146.787 131.049 145.308 130.732 144.033C130.573 143.393 130.352 142.84 130.058 142.454C129.773 142.08 129.437 141.881 129.01 141.881C128.707 141.881 128.503 141.94 128.361 142.02C128.22 142.099 128.113 142.214 128.026 142.37C127.837 142.707 127.767 143.176 127.681 143.755L127.681 143.76C127.601 144.296 127.505 144.939 127.196 145.438C127.034 145.699 126.811 145.927 126.505 146.085C126.202 146.243 125.838 146.321 125.41 146.321C124.806 146.321 124.315 146.317 123.932 146.269C123.55 146.222 123.204 146.126 122.943 145.885C122.678 145.639 122.566 145.304 122.511 144.933C122.457 144.565 122.45 144.095 122.45 143.521C122.45 143.125 122.447 142.751 122.443 142.403L122.443 142.401C122.438 141.757 122.432 141.196 122.451 140.721C122.479 139.993 122.563 139.375 122.838 138.897C123.13 138.388 123.601 138.095 124.254 137.93C124.89 137.77 125.738 137.721 126.85 137.721C128.78 137.721 130.101 137.964 131.045 138.351C132.001 138.743 132.548 139.274 132.937 139.804C133.101 140.027 133.237 140.25 133.357 140.447L133.412 140.537C133.55 140.762 133.667 140.944 133.802 141.094C133.932 141.238 134.074 141.35 134.258 141.428C134.445 141.507 134.695 141.561 135.05 141.561C135.666 141.561 136.065 141.266 136.33 140.814C136.607 140.341 136.73 139.699 136.73 139.081C136.73 138.254 136.5 136.888 135.998 135.741C135.483 134.563 134.77 133.801 133.89 133.801C133.802 133.801 133.697 133.828 133.435 133.909L133.414 133.915C133.169 133.99 132.838 134.091 132.363 134.192Z" fill="white"/>
</svg>
