<svg width="267" height="252" viewBox="0 0 267 252" fill="none" xmlns="http://www.w3.org/2000/svg">
<path d="M128.099 16.8101L118.705 9.83724C94.8088 -7.90038 60.664 0.581434 47.8454 27.4394L46.3856 30.4981L38.2836 28.3244C14.9524 22.0648 -5.99407 44.2302 1.57386 67.1705L7.77954 85.9815C8.75992 88.9533 8.45798 92.1991 6.94628 94.9391C-4.75282 116.144 15.2571 140.826 38.4229 133.766L41.3574 132.872C40.6777 134.84 40.3085 136.953 40.3085 139.152V163.662C40.3085 186.765 54.0148 206.638 73.7313 215.636V232.736C73.7313 243.355 82.34 251.964 92.9595 251.964H173.174C183.794 251.964 192.402 243.355 192.402 232.736V215.636C212.119 206.638 225.825 186.765 225.825 163.662V140.495L229.694 141.184C254.293 145.562 273.945 120.916 264.201 97.9096L263.362 95.9298C259.362 86.4857 259.054 75.8841 262.497 66.2232L264.619 60.2707C273.503 35.3458 247.251 12.4346 223.757 24.6088L206.868 33.3604C205.377 34.1331 203.542 33.6017 202.694 32.1519C191.735 13.4068 168.259 6.15947 148.641 15.4655L142.771 18.2497C137.99 20.5176 132.348 19.964 128.099 16.8101Z" fill="#FFD600"/>
<path d="M248.606 54.563C252.308 44.1768 241.369 34.6297 231.579 39.7027L214.69 48.4543C205.161 53.3918 193.435 49.9965 188.018 40.7317C181.512 29.6028 167.574 25.3 155.927 30.825L150.058 33.6092C139.601 38.5695 127.261 37.3587 117.967 30.4605L108.573 23.4877C93.2678 12.1269 71.3982 17.5594 63.188 34.7618L60.4274 40.546C57.6516 46.3619 51.1219 49.3699 44.8976 47.7L33.8788 44.7437C23.6079 41.9881 14.3869 51.7458 17.7184 61.8446L23.9241 80.6555C26.3862 88.1188 25.6279 96.2703 21.8315 103.151C17.5067 110.99 24.9037 120.114 33.4674 117.505L37.8719 116.162C53.0838 111.526 68.4498 122.907 68.4498 138.81V169.232H197.685L196.215 152.15C194.708 134.632 210.229 120.453 227.54 123.533L232.673 124.447C243.989 126.461 253.03 115.123 248.547 104.539L247.709 102.56C242.048 89.1933 241.611 74.1887 246.484 60.5155L248.606 54.563Z" fill="#FF5E71"/>
<path fill-rule="evenodd" clip-rule="evenodd" d="M107.977 24.2907C93.1771 13.3049 72.0297 18.5581 64.0905 35.1926L61.3299 40.9767C58.3465 47.2277 51.3283 50.4607 44.6385 48.6658L33.6197 45.7096C24.1171 43.1601 15.5857 52.1879 18.6681 61.5313L24.8738 80.3423C27.423 88.0697 26.6379 96.5098 22.7071 103.634C18.8161 110.687 25.4712 118.896 33.1759 116.548L37.5803 115.206C53.4348 110.374 69.4498 122.235 69.4498 138.81V168.232H196.595L195.219 152.235C193.656 134.062 209.757 119.353 227.715 122.549L232.848 123.462C243.383 125.337 251.799 114.783 247.626 104.929L246.788 102.95C241.029 89.3525 240.585 74.089 245.542 60.1798L247.664 54.2273C251.061 44.6963 241.023 35.9353 232.039 40.5906L215.15 49.3422C205.149 54.5247 192.84 50.9609 187.155 41.2364C180.911 30.5555 167.534 26.426 156.356 31.7285L150.486 34.5127C139.695 39.6314 126.961 38.3819 117.371 31.2635L107.977 24.2907ZM62.2855 34.3311C70.7668 16.5607 93.3585 10.9488 109.169 22.6848L118.563 29.6576C127.56 36.3355 139.506 37.5076 149.629 32.7057L155.498 29.9215C167.615 24.1741 182.114 28.6501 188.882 40.227C194.029 49.0321 205.174 52.259 214.23 47.5664L231.119 38.8148C241.715 33.3241 253.555 43.6573 249.548 54.8988L247.426 60.8513C242.637 74.2884 243.066 89.034 248.629 102.17L249.468 104.149C254.26 115.464 244.595 127.584 232.498 125.431L227.365 124.518C210.702 121.552 195.761 135.201 197.212 152.064L198.774 170.232H67.4498V138.81C67.4498 123.579 52.7328 112.679 38.1634 117.119L33.7589 118.461C24.3363 121.333 16.1974 111.293 20.9559 102.668C24.618 96.0309 25.3494 88.1679 22.9745 80.9688L16.7688 62.1579C13.188 51.3037 23.0988 40.8162 34.138 43.7779L45.1568 46.7342C50.9155 48.2792 56.9568 45.4961 59.5249 40.1153L62.2855 34.3311Z" fill="#333333"/>
<path d="M152.46 110.061C159.21 105.561 168.906 107.181 174.021 113.783C179.136 120.385 179.46 130.061 167.96 132.561C163.219 133.208 161.476 134.785 160.733 136.387C159.314 139.445 157.533 142.745 154.868 144.81C149.502 148.968 142.281 148.633 138.74 144.063C135.199 139.492 136.678 132.417 142.044 128.259C145.607 125.498 148.643 123.305 148.86 118.803C149.032 115.227 149.812 111.826 152.46 110.061Z" fill="#FFD600"/>
<path fill-rule="evenodd" clip-rule="evenodd" d="M151.905 109.229C159.103 104.431 169.384 106.165 174.812 113.17C177.485 116.62 178.994 120.979 178.202 124.908C177.388 128.941 174.216 132.225 168.172 133.538C168.147 133.544 168.121 133.549 168.095 133.552C163.539 134.173 162.185 135.633 161.64 136.808C160.22 139.869 158.354 143.374 155.481 145.6C149.802 150 141.918 149.796 137.95 144.675C133.981 139.554 135.753 131.869 141.432 127.468C141.51 127.408 141.588 127.348 141.665 127.288C145.191 124.558 147.674 122.635 147.861 118.754C148.035 115.156 148.819 111.286 151.905 109.229ZM173.231 114.395C168.429 108.198 159.317 106.692 153.015 110.893C150.805 112.366 150.03 115.299 149.859 118.851C149.627 123.669 146.432 126.135 143.113 128.697C142.961 128.814 142.809 128.931 142.657 129.049C137.603 132.965 136.416 139.43 139.531 143.45C142.645 147.47 149.202 147.935 154.256 144.019C156.711 142.117 158.409 139.02 159.826 135.966C160.765 133.942 162.888 132.251 167.785 131.576C173.215 130.385 175.621 127.586 176.241 124.512C176.883 121.327 175.673 117.547 173.231 114.395Z" fill="#333333"/>
<path d="M208.826 139.152C208.826 137.921 207.828 136.924 206.597 136.924H59.537C58.3064 136.924 57.3088 137.921 57.3088 139.152V163.662C57.3088 182.883 70.83 198.947 88.8798 202.859C89.9434 203.09 90.7317 204.012 90.7317 205.1V232.736C90.7317 233.967 91.7293 234.964 92.9599 234.964H173.175C174.405 234.964 175.403 233.967 175.403 232.736V205.1C175.403 204.012 176.191 203.09 177.255 202.859C195.304 198.947 208.826 182.883 208.826 163.662V139.152Z" fill="white"/>
<path fill-rule="evenodd" clip-rule="evenodd" d="M56.3088 139.152C56.3088 137.369 57.7541 135.924 59.537 135.924H206.597C208.38 135.924 209.826 137.369 209.826 139.152V163.662C209.826 183.364 195.967 199.826 177.467 203.836C176.835 203.973 176.403 204.511 176.403 205.1V232.736C176.403 234.519 174.957 235.964 173.175 235.964H92.9599C91.177 235.964 89.7317 234.519 89.7317 232.736V205.1C89.7317 204.511 89.2999 203.973 88.6679 203.836C70.1679 199.826 56.3088 183.364 56.3088 163.662V139.152ZM59.537 137.924C58.8587 137.924 58.3088 138.474 58.3088 139.152V163.662C58.3088 182.403 71.4922 198.067 89.0916 201.882C90.5869 202.206 91.7317 203.513 91.7317 205.1V232.736C91.7317 233.414 92.2815 233.964 92.9599 233.964H173.175C173.853 233.964 174.403 233.414 174.403 232.736V205.1C174.403 203.513 175.548 202.206 177.043 201.882C194.642 198.067 207.826 182.403 207.826 163.662V139.152C207.826 138.474 207.276 137.924 206.597 137.924H59.537Z" fill="#333333"/>
<path d="M130.839 218.253C130.839 217.022 131.837 216.025 133.067 216.025C134.298 216.025 135.295 217.022 135.295 218.253V234.964H130.839V218.253Z" fill="#333333"/>
<path d="M154.235 218.253C154.235 217.022 155.233 216.025 156.463 216.025C157.694 216.025 158.691 217.022 158.691 218.253V234.964H154.235V218.253Z" fill="#333333"/>
<path d="M107.443 218.253C107.443 217.022 108.441 216.025 109.671 216.025C110.902 216.025 111.899 217.022 111.899 218.253V234.964H107.443V218.253Z" fill="#333333"/>
<path fill-rule="evenodd" clip-rule="evenodd" d="M138.91 181.162C136.553 176.267 129.581 176.267 127.224 181.162L120.737 194.636C118.175 199.956 123.687 205.558 129.048 203.084C131.598 201.907 134.536 201.907 137.087 203.084C142.448 205.558 147.959 199.956 145.397 194.636L138.91 181.162Z" fill="#333333"/>
<circle cx="102.43" cy="167.561" r="12.255" fill="#333333"/>
<circle cx="159.248" cy="167.561" r="12.255" fill="#333333"/>
<path d="M80.1786 105.606C80.2149 105.193 80.5312 104.832 81.2394 104.539C81.937 104.25 82.8857 104.087 83.8923 104.007C85.8962 103.848 87.973 104.03 88.3479 104.063C89.4836 104.163 91.1541 104.33 92.5069 104.776C93.1843 105 93.7386 105.28 94.1043 105.621C94.4537 105.948 94.6261 106.322 94.5846 106.794C94.5629 107.042 94.4873 107.186 94.3956 107.289C94.2938 107.404 94.1432 107.501 93.9171 107.608C93.8102 107.659 93.6968 107.707 93.5695 107.761L93.5505 107.769C93.4189 107.825 93.2744 107.887 93.1287 107.957C92.8358 108.098 92.52 108.28 92.2324 108.553L92.2283 108.556C91.9401 108.836 91.7433 109.292 91.5943 109.768C91.439 110.265 91.3116 110.867 91.2042 111.513C90.9894 112.807 90.8463 114.331 90.7307 115.649L90.4031 119.38C90.1096 122.724 90.0714 124.431 90.2133 125.372C90.2863 125.857 90.4137 126.192 90.6204 126.448C90.7731 126.638 90.9711 126.773 91.1063 126.865C91.1369 126.886 91.1643 126.905 91.1872 126.922C91.3752 127.058 91.5656 127.18 91.7347 127.289C91.7783 127.317 91.8205 127.344 91.8609 127.37C92.0667 127.504 92.229 127.616 92.3579 127.735C92.4825 127.849 92.5636 127.958 92.6131 128.077C92.6622 128.195 92.6923 128.353 92.6722 128.582C92.6493 128.844 92.6078 129.069 92.4789 129.277C92.3543 129.477 92.1155 129.712 91.6047 129.916C90.5501 130.339 88.4625 130.587 84.3422 130.225C83.5478 130.155 82.0143 130.01 80.7125 129.595C80.0594 129.387 79.5073 129.124 79.1382 128.802C78.784 128.492 78.6176 128.15 78.6544 127.731C78.6882 127.347 78.8888 127.137 79.2516 126.919C79.3747 126.845 79.4893 126.786 79.616 126.72C79.7004 126.676 79.7903 126.629 79.8915 126.573C80.1187 126.448 80.3713 126.294 80.5856 126.081C80.9353 125.738 81.2088 125.163 81.458 124.084C81.7106 122.99 81.9535 121.304 82.1857 118.659L82.5132 114.927C82.7239 112.527 82.7613 111.019 82.6951 110.032C82.6285 109.039 82.4546 108.526 82.209 108.15L82.2078 108.148C81.9814 107.805 81.7097 107.538 81.4496 107.314C81.3205 107.203 81.1906 107.099 81.0709 107.004L81.0696 107.003C80.9471 106.905 80.8363 106.817 80.7334 106.728C80.5266 106.549 80.3819 106.392 80.2909 106.224C80.2055 106.066 80.155 105.875 80.1786 105.606Z" fill="white"/>
<path d="M119.863 102.647C120.092 102.615 120.479 102.686 120.978 102.933C121.464 103.174 122.008 103.558 122.533 104.075C123.583 105.11 124.526 106.646 124.791 108.552C124.911 109.412 124.778 110.097 124.454 110.583C124.136 111.06 123.591 111.412 122.741 111.53C121.389 111.718 120.58 110.93 119.799 109.924C119.706 109.805 119.611 109.679 119.515 109.552C119.232 109.176 118.937 108.784 118.636 108.485C118.219 108.072 117.684 107.726 116.991 107.822C116.504 107.89 116.142 108.117 115.9 108.443C115.669 108.754 115.569 109.123 115.529 109.449C115.459 110.018 115.556 110.599 115.59 110.802C115.594 110.829 115.598 110.849 115.599 110.862L117.2 122.368C117.363 123.539 117.701 124.315 118.177 124.833C118.656 125.355 119.225 125.559 119.716 125.683C119.838 125.714 119.958 125.741 120.069 125.766L120.085 125.769C120.192 125.793 120.29 125.815 120.385 125.838C120.585 125.888 120.74 125.94 120.866 126.008C120.985 126.073 121.078 126.152 121.151 126.265C121.227 126.382 121.298 126.558 121.336 126.835C121.37 127.077 121.366 127.317 121.272 127.56C121.179 127.801 120.981 128.09 120.552 128.399C119.674 129.032 117.898 129.701 114.41 130.186L114.272 130.206C113.249 130.349 111.17 130.64 109.268 130.579C108.269 130.547 107.363 130.419 106.698 130.147C106.041 129.879 105.701 129.51 105.633 129.02C105.578 128.625 105.661 128.414 105.769 128.272C105.897 128.105 106.106 127.969 106.42 127.81C106.488 127.776 106.562 127.741 106.64 127.703C106.892 127.582 107.187 127.44 107.442 127.269C107.797 127.03 108.135 126.7 108.317 126.194L108.321 126.185L108.323 126.176C108.408 125.909 108.45 125.562 108.471 125.207C108.493 124.844 108.494 124.438 108.484 124.036C108.465 123.23 108.4 122.415 108.353 121.936L107.5 113.611C107.302 111.634 107.001 110.569 106.614 110.01C106.404 109.707 106.154 109.529 105.87 109.46C105.631 109.401 105.406 109.433 105.285 109.45L105.26 109.454C104.622 109.542 104.192 110.029 103.875 110.514C103.644 110.866 103.423 111.302 103.203 111.732C103.118 111.9 103.033 112.067 102.948 112.228C102.302 113.45 101.588 114.473 100.329 114.648C99.2241 114.801 98.3305 113.877 98.1634 112.676C97.9578 111.198 98.3476 109.362 99.0617 107.851C99.4168 107.099 99.842 106.451 100.291 105.979C100.746 105.502 101.187 105.245 101.573 105.191C101.65 105.18 101.778 105.181 102.011 105.197C102.116 105.204 102.233 105.213 102.37 105.224L102.399 105.226C102.546 105.238 102.712 105.251 102.898 105.264L102.91 105.265L102.922 105.265C103.661 105.279 104.722 105.288 106.256 105.075L115.476 103.792C117.126 103.563 117.885 103.299 118.453 103.101L118.471 103.095L118.489 103.087C118.545 103.062 118.597 103.039 118.648 103.016C119.052 102.835 119.295 102.726 119.863 102.647Z" fill="white"/>
<path d="M59.2576 60.0313C60.395 59.8571 61.9647 59.6167 63.3638 59.7115C64.1526 59.7649 64.8144 59.9221 65.2886 60.2058C65.7324 60.4712 66.0313 60.8557 66.1217 61.4672C66.2393 62.2618 66.0494 62.6432 65.8124 62.8755C65.528 63.1543 65.0538 63.3423 64.3752 63.4976C64.0871 63.5635 63.7878 63.6185 63.4725 63.6765L63.3336 63.7021C62.9747 63.7684 62.5971 63.8405 62.2369 63.9349C61.5384 64.1178 60.7653 64.4165 60.2783 65.0727C60.1295 65.2732 59.8644 65.5758 59.5143 65.9756L59.3107 66.2082C58.8733 66.7087 58.3571 67.308 57.8726 67.9393C57.3904 68.5676 56.9239 69.2478 56.5947 69.9128C56.2745 70.5596 56.0355 71.2877 56.1375 71.9769C56.2585 72.795 56.7271 73.4641 57.2142 73.9926C57.5845 74.3943 58.0179 74.767 58.3809 75.0792C58.4898 75.1728 58.5923 75.2611 58.6849 75.343L70.0029 84.9806L70.0051 84.9826C70.4988 85.3992 71.0633 85.6502 71.5877 85.8402C71.8163 85.9231 72.0486 85.9981 72.2666 86.0686L72.3607 86.099C72.6108 86.1801 72.8418 86.2567 73.0599 86.342C73.4975 86.5132 73.8344 86.7019 74.0843 86.9631C74.3238 87.2135 74.5239 87.5732 74.6108 88.1605C74.679 88.6215 74.6095 88.9479 74.4839 89.1913C74.3553 89.4405 74.1399 89.6567 73.8321 89.8451C73.1935 90.2359 72.2816 90.4347 71.3821 90.5677L63.5148 91.7316C62.5987 91.8672 62.3247 91.8586 62.0147 91.7089C61.8334 91.6215 61.6147 91.4698 61.2849 91.1914C61.0026 90.9532 60.6679 90.6476 60.2294 90.2474L60.0012 90.0391L56.2852 86.6627L56.2762 86.6548C56.1975 86.5858 56.0999 86.4992 55.9867 86.3988C55.4547 85.9266 54.5778 85.1483 53.691 84.4555C53.1537 84.0357 52.593 83.6315 52.0866 83.3393C51.8337 83.1935 51.5778 83.0658 51.3334 82.9795C51.1016 82.8976 50.8135 82.8283 50.523 82.8713C50.1075 82.9328 49.7465 83.0945 49.4647 83.3672C49.1873 83.6356 49.0305 83.969 48.9452 84.3025C48.7817 84.9414 48.8517 85.7027 48.9514 86.3762L49.0952 87.3481C49.3046 88.764 50.3616 89.4072 51.1371 89.8792L51.2072 89.9219C52.0555 90.4395 52.5854 90.8014 52.7022 91.5909C52.745 91.8803 52.7268 92.1102 52.6247 92.3248C52.5203 92.5443 52.2903 92.8267 51.762 93.1432C50.6779 93.7927 48.5416 94.4671 44.4771 95.0684C40.8247 95.6087 38.8432 95.5777 37.77 95.2791C37.2551 95.1358 36.9994 94.9441 36.8567 94.7686C36.7105 94.5889 36.6253 94.3562 36.5762 94.0239C36.5047 93.5408 36.5836 93.3051 36.6769 93.1456C36.7767 92.9749 36.9101 92.8471 37.1325 92.634C37.1888 92.5802 37.2507 92.5209 37.3192 92.4541C37.6338 92.1471 38.0009 91.7492 38.2773 91.1351C38.5513 90.526 38.716 89.7505 38.7132 88.7017C38.7464 85.9907 38.3467 82.9764 37.9569 80.3416C37.9243 80.1208 37.8914 79.8966 37.8581 79.6695C37.463 76.9747 37.0088 73.8762 36.1344 71.2796C35.8158 70.242 35.4125 69.544 34.9432 69.0541C34.4694 68.5596 33.9706 68.3235 33.5692 68.1522L33.431 68.0936C33.0913 67.9497 32.907 67.8717 32.7501 67.726C32.6096 67.5956 32.4413 67.3538 32.3515 66.747C32.3458 66.7083 32.3399 66.6716 32.3342 66.6363C32.3052 66.4554 32.2818 66.3104 32.3175 66.1191C32.3549 65.9184 32.4744 65.6151 32.9005 65.2459C33.7996 64.4669 35.9657 63.4788 41.0172 62.7314L41.0837 62.7216C42.1903 62.5577 43.8095 62.3179 45.2124 62.473C45.9248 62.5517 46.5175 62.7268 46.9433 63.015C47.3444 63.2865 47.6265 63.6757 47.7166 64.2847C47.7871 64.761 47.7035 64.9945 47.5942 65.1772C47.5275 65.2886 47.4389 65.3998 47.3125 65.5466C47.2893 65.5736 47.2644 65.6022 47.2382 65.6323C47.1317 65.7547 47.0039 65.9014 46.8821 66.0609C46.5587 66.4843 46.2506 67.0265 46.0878 67.8442C45.9283 68.6457 45.9141 69.682 46.123 71.0939C46.1678 71.3967 46.2609 71.962 46.4784 72.4471C46.5873 72.6902 46.7505 72.9667 47.0018 73.175C47.2747 73.4011 47.6324 73.5283 48.0441 73.4674C48.3832 73.4172 48.6816 73.2186 48.9083 73.0316C49.152 72.8307 49.3987 72.5701 49.6382 72.2826C50.1186 71.7057 50.62 70.9592 51.0681 70.199C51.517 69.4374 51.9245 68.6417 52.2122 67.959C52.3557 67.6185 52.4745 67.2943 52.5528 67.0095C52.6243 66.7497 52.688 66.4356 52.6467 66.1563C52.5521 65.5167 52.2377 65.0743 52.0075 64.7505L51.9824 64.7151C51.7429 64.3774 51.5932 64.1495 51.5434 63.8131C51.4511 63.1893 51.6481 62.703 52.0632 62.276C52.5024 61.8243 53.1854 61.4457 54.0199 61.1361C55.5378 60.5728 57.3375 60.3124 58.5066 60.1432C58.6223 60.1265 58.7319 60.1106 58.8344 60.0955C58.9671 60.0758 59.1087 60.0541 59.2576 60.0313Z" fill="white"/>
<path d="M74.5369 44.8089C74.5923 44.2189 75.0478 43.7079 76.0568 43.2971C77.0508 42.8925 78.3999 42.6688 79.8301 42.5642C82.6772 42.3558 85.6248 42.6317 86.1568 42.6817C87.7683 42.8329 90.1394 43.085 92.0571 43.7305C93.0175 44.0537 93.8032 44.4565 94.3206 44.9455C94.8153 45.4131 95.058 45.9479 94.9948 46.6215C94.9616 46.9744 94.8526 47.1791 94.7203 47.3262C94.5738 47.4892 94.3581 47.6268 94.0358 47.7771C93.8834 47.8481 93.7218 47.9157 93.5408 47.9914L93.5137 48.0027C93.3263 48.081 93.1208 48.1674 92.9135 48.2654C92.4969 48.4625 92.0476 48.7179 91.6377 49.102L91.632 49.1075C91.2218 49.5011 90.9388 50.1451 90.7233 50.8196C90.4986 51.5229 90.3127 52.3763 90.1548 53.2927C89.8387 55.1268 89.6225 57.2892 89.4469 59.1593L88.9498 64.4548C88.5043 69.2001 88.4356 71.6225 88.6288 72.959C88.7282 73.6461 88.9058 74.1219 89.196 74.4865C89.4104 74.7557 89.6891 74.9486 89.8803 75.0809C89.9237 75.1109 89.9627 75.1379 89.9953 75.1618C90.2608 75.357 90.5298 75.5322 90.769 75.6879C90.8307 75.7281 90.8904 75.767 90.9475 75.8046C91.2387 75.9961 91.4686 76.1575 91.6511 76.3268C91.8275 76.4904 91.9424 76.6465 92.0123 76.8178C92.0814 76.9874 92.123 77.2127 92.0924 77.5387C92.0575 77.9103 91.9966 78.2314 91.8109 78.5266C91.6312 78.8121 91.2887 79.1436 90.5606 79.4303C89.0579 80.022 86.0903 80.3552 80.2435 79.8063C79.1161 79.7005 76.9394 79.4807 75.0939 78.8805C74.168 78.5793 73.3853 78.2008 72.8629 77.7391C72.3614 77.2959 72.1267 76.8066 72.1828 76.2093C72.2343 75.6597 72.5233 75.3622 73.0412 75.0557C73.2167 74.9518 73.3803 74.8678 73.5609 74.7751C73.6811 74.7134 73.8091 74.6477 73.9529 74.5698C74.2764 74.3946 74.6356 74.1781 74.9409 73.8783C75.4388 73.3957 75.8317 72.5829 76.1948 71.0532C76.5627 69.5029 76.922 67.1118 77.2743 63.3588L77.7714 58.0633C78.0912 54.6571 78.1572 52.5176 78.0717 51.1155C77.9857 49.706 77.7434 48.9776 77.3988 48.4427L77.3972 48.4402C77.0793 47.9517 76.6964 47.5708 76.3292 47.2508C76.1471 47.0921 75.9635 46.9439 75.7944 46.8074L75.7926 46.8059C75.6195 46.6662 75.4629 46.5398 75.3174 46.4123C75.025 46.1562 74.8202 45.9316 74.6918 45.691C74.5713 45.4651 74.5009 45.1927 74.5369 44.8089Z" fill="white"/>
<path d="M108.973 54.0194C113.92 53.7575 116.396 54.0545 117.631 54.5494C118.219 54.7854 118.468 55.0441 118.592 55.2596C118.727 55.4922 118.775 55.77 118.796 56.1671C118.811 56.4459 118.772 56.6202 118.726 56.7325C118.681 56.8404 118.615 56.9273 118.513 57.0115C118.403 57.1022 118.256 57.1876 118.052 57.2848C117.95 57.3329 117.844 57.38 117.725 57.4322L117.709 57.4392C117.597 57.4883 117.475 57.5418 117.353 57.5992C116.838 57.8403 116.22 58.1877 115.772 58.8647C115.323 59.5436 115.106 60.457 115.172 61.7141L116.005 77.4379C116.099 79.2034 116.314 80.7257 117.091 81.7634C117.929 82.8836 119.271 83.2745 121.128 83.1761C123.323 83.0599 124.845 82.5293 125.917 81.7267C126.993 80.9206 127.541 79.896 127.887 78.9432C128.049 78.4953 128.171 78.0521 128.279 77.6622L128.295 77.6038C128.41 77.1859 128.506 76.8463 128.623 76.5631C128.74 76.2824 128.854 76.116 128.969 76.0159C129.069 75.9288 129.211 75.8559 129.467 75.8423C130.277 75.7994 130.859 76.1808 131.286 76.8251C131.731 77.4948 131.973 78.415 132.019 79.2675C132.113 81.0495 131.576 83.1655 130.733 84.8511C130.313 85.6906 129.833 86.3908 129.348 86.8775C128.852 87.3759 128.425 87.5799 128.106 87.5967C127.529 87.6273 127.07 87.5636 126.499 87.4843C126.271 87.4525 126.025 87.4183 125.746 87.3867C124.751 87.2323 123.609 87.1407 121.889 87.2318L105.205 88.1154C104.417 88.1581 103.593 88.2029 102.928 88.0325C102.588 87.9454 102.349 87.8148 102.193 87.6471C102.045 87.4896 101.916 87.2432 101.894 86.8128C101.877 86.502 101.916 86.308 101.964 86.1835C102.01 86.0656 102.078 85.9764 102.177 85.8917C102.285 85.799 102.43 85.712 102.639 85.6073C102.701 85.5762 102.779 85.5386 102.866 85.4973C103.021 85.4226 103.203 85.3357 103.357 85.2539C103.901 84.9646 104.51 84.5442 104.951 83.7461C105.382 82.9645 105.61 81.8975 105.57 80.3891C105.477 76.765 105.309 73.5927 105.155 70.6768L105.155 70.6739C105.054 68.7745 104.855 66.9357 104.661 65.1498C104.551 64.1389 104.444 63.1449 104.357 62.1666C104.266 61.0006 103.888 60.1879 103.279 59.6371C102.694 59.1081 101.978 58.9003 101.405 58.7623C101.278 58.7317 101.165 58.7061 101.059 58.682C100.9 58.646 100.756 58.6134 100.603 58.5726C100.363 58.5088 100.184 58.4445 100.047 58.3682C99.9182 58.2964 99.8377 58.2201 99.7823 58.1302C99.7257 58.0384 99.6678 57.8878 99.654 57.627C99.6221 57.0244 99.9025 56.5112 100.519 56.0377C101.153 55.551 102.079 55.1623 103.153 54.8624C105.291 54.2651 107.769 54.0832 108.973 54.0194Z" fill="white"/>
<path d="M143.072 48.6539C143.235 48.0699 143.667 47.6737 144.397 47.4238C145.147 47.1673 146.138 47.0963 147.236 47.1543C149.423 47.2698 151.795 47.8808 152.939 48.2003C157.638 49.5123 159.861 50.57 160.863 51.4249C161.341 51.8334 161.496 52.1582 161.546 52.4061C161.6 52.6724 161.556 52.9523 161.45 53.3303C161.375 53.5983 161.283 53.7529 161.201 53.847C161.122 53.9376 161.028 54 160.903 54.048C160.769 54.0994 160.602 54.1332 160.38 54.1596C160.27 54.1727 160.155 54.1831 160.028 54.1945L160.011 54.196C159.891 54.2066 159.761 54.2182 159.629 54.2332C159.074 54.2959 158.394 54.425 157.769 54.911C157.142 55.3983 156.655 56.1764 156.323 57.3669L152.152 72.3034C151.683 73.981 151.408 75.4617 151.803 76.6654C152.229 77.9617 153.347 78.7446 155.108 79.2362C157.189 79.8174 158.77 79.8002 160.016 79.3907C161.268 78.9795 162.097 78.1999 162.718 77.4221C163.01 77.0562 163.262 76.6818 163.485 76.3516L163.519 76.3023C163.757 75.9488 163.955 75.6607 164.155 75.4317C164.353 75.2047 164.515 75.0817 164.66 75.0222C164.787 74.9698 164.949 74.9464 165.198 75.0159C165.979 75.234 166.408 75.7825 166.606 76.5255C166.812 77.2964 166.748 78.237 166.521 79.0502C166.047 80.7486 164.877 82.5585 163.556 83.8689C162.899 84.5217 162.228 85.0261 161.619 85.3297C160.997 85.6402 160.526 85.6991 160.214 85.6119C159.662 85.4579 159.251 85.2525 158.743 84.9984C158.54 84.897 158.321 84.7879 158.072 84.6713C157.193 84.2148 156.159 83.7706 154.526 83.3147L138.676 78.8888C137.929 78.6813 137.141 78.4625 136.57 78.0917C136.278 77.9016 136.092 77.7011 135.996 77.4887C135.904 77.2884 135.862 77.011 135.978 76.5968C136.061 76.2987 136.16 76.126 136.247 76.0213C136.331 75.9217 136.425 75.857 136.548 75.8076C136.682 75.7539 136.847 75.7181 137.076 75.686C137.144 75.6764 137.23 75.6659 137.323 75.6545C137.491 75.6338 137.687 75.6099 137.856 75.582C138.452 75.4838 139.147 75.2846 139.804 74.6836C140.448 74.0946 140.994 73.1759 141.43 71.7585C142.484 68.3473 143.325 65.334 144.099 62.564L144.1 62.5611C144.603 60.7574 144.996 58.9801 145.377 57.2531C145.593 56.2749 145.805 55.3128 146.032 54.3712C146.313 53.2597 146.216 52.3899 145.825 51.692C145.449 51.0209 144.851 50.6047 144.361 50.296C144.253 50.2279 144.156 50.1685 144.064 50.1125C143.926 50.0287 143.802 49.9525 143.671 49.8661C143.467 49.7307 143.318 49.6127 143.212 49.4959C143.111 49.3855 143.058 49.2848 143.033 49.1778C143.008 49.0688 143.002 48.9052 143.072 48.6539Z" fill="white"/>
<path d="M194.048 61.7476C194.945 61.6716 195.796 62.3865 196.507 63.6988C197.192 64.9612 197.586 66.5031 197.666 67.4416C197.725 68.141 197.645 68.8632 197.389 69.3994C197.15 69.8998 196.77 70.2312 196.132 70.2852C195.738 70.3185 195.469 70.2812 195.274 70.2172C195.083 70.1547 194.931 70.056 194.782 69.9165C194.625 69.7685 194.479 69.5816 194.296 69.3327L194.224 69.2342C194.065 69.0168 193.879 68.7627 193.661 68.5128C193.135 67.9102 192.415 67.3224 191.223 66.9476C190.052 66.5795 188.46 66.4273 186.197 66.6189C184.901 66.7286 183.895 66.8706 183.145 67.1284C182.367 67.3961 181.795 67.813 181.476 68.4974C181.181 69.1288 181.148 69.8991 181.186 70.7536C181.212 71.313 181.274 71.9747 181.345 72.7291C181.383 73.1346 181.423 73.5668 181.462 74.0243C181.518 74.691 181.574 75.2527 181.677 75.6926C181.782 76.1369 181.96 76.5681 182.345 76.8685C182.721 77.162 183.185 77.2428 183.648 77.2606C184.114 77.2785 184.699 77.2339 185.4 77.1746C185.923 77.1303 186.371 76.9961 186.741 76.7623C187.116 76.5258 187.375 76.2105 187.552 75.8629C187.883 75.2136 187.933 74.4204 187.972 73.7994L187.973 73.7826C188.017 73.083 188.052 72.5703 188.221 72.1979C188.295 72.0342 188.388 71.9206 188.509 71.8381C188.633 71.7536 188.83 71.6729 189.157 71.6452C189.58 71.6094 189.935 71.7723 190.273 72.1456C190.628 72.5377 190.929 73.1323 191.174 73.8506C191.662 75.2813 191.853 76.9809 191.929 77.8804C192.008 78.8148 192.081 80.6318 191.802 82.2226C191.663 83.0213 191.444 83.7074 191.135 84.1911C190.838 84.6566 190.488 84.8946 190.047 84.9319C189.78 84.9545 189.638 84.9104 189.559 84.8684C189.481 84.8269 189.404 84.7549 189.325 84.6131C189.24 84.463 189.168 84.2624 189.093 83.9949C189.057 83.8635 189.022 83.7257 188.984 83.576L188.98 83.5607C188.945 83.4182 188.906 83.2654 188.864 83.1121C188.694 82.4917 188.431 81.7286 187.802 81.1698C187.148 80.5889 186.217 80.3264 184.925 80.4358C184.335 80.4857 183.84 80.663 183.456 80.9825C183.073 81.3022 182.858 81.7161 182.742 82.1354C182.537 82.8754 182.613 83.7591 182.672 84.4424L182.684 84.5784C182.827 86.276 182.966 87.57 183.175 88.5341C183.381 89.4872 183.68 90.2406 184.239 90.7386C184.813 91.2509 185.541 91.3878 186.335 91.4027C186.978 91.4147 187.766 91.3454 188.687 91.2643C188.888 91.2466 189.096 91.2283 189.311 91.2101C191.773 91.0018 193.476 90.4316 194.692 89.6414C195.918 88.8447 196.595 87.859 197.059 86.9235C197.264 86.5109 197.43 86.1018 197.578 85.7379L197.627 85.617C197.792 85.2116 197.934 84.878 198.097 84.5979C198.257 84.3241 198.421 84.1316 198.613 83.9978C198.8 83.8674 199.052 83.7659 199.43 83.7339C199.888 83.6951 200.282 83.9094 200.609 84.3362C200.945 84.7741 201.156 85.3792 201.202 85.9221C201.325 87.3737 200.914 89.5376 200.225 91.3765C199.883 92.29 199.487 93.0829 199.084 93.6437C198.651 94.2458 198.328 94.4191 198.175 94.4321C198.072 94.4408 197.854 94.4335 197.486 94.4098C197.368 94.4022 197.237 94.3931 197.096 94.3833C196.827 94.3647 196.52 94.3434 196.195 94.3247L196.178 94.3237L196.161 94.3236C196.048 94.3229 195.931 94.3219 195.81 94.3209C194.836 94.3126 193.608 94.3022 192.165 94.4243L173.006 96.0457C171.545 96.1693 170.96 95.8814 170.727 95.6703C170.499 95.4634 170.455 95.1992 170.431 94.9114C170.391 94.4387 170.509 94.2766 170.625 94.1645C170.709 94.0843 170.824 94.0049 170.995 93.904C171.044 93.875 171.107 93.8397 171.175 93.8008C171.305 93.727 171.459 93.6402 171.59 93.5583C172.047 93.2741 172.556 92.8726 172.927 92.1579C173.292 91.4565 173.492 90.5164 173.468 89.2052C173.454 88.4392 173.442 87.7482 173.431 87.119C173.319 80.725 173.319 80.7059 172.241 73.034C172.002 71.2153 171.608 70.0215 171.093 69.2259C170.557 68.3958 169.917 68.0422 169.32 67.8516C169.113 67.7854 168.898 67.7358 168.725 67.6959C168.673 67.6839 168.624 67.6727 168.581 67.6622C168.37 67.6112 168.244 67.569 168.151 67.5164C168.076 67.4738 168.017 67.4201 167.962 67.3168C167.9 67.1999 167.834 66.9955 167.803 66.6355C167.758 66.0968 167.907 65.7626 168.134 65.5213C168.384 65.2552 168.786 65.0445 169.33 64.8892C170.175 64.6479 171.149 64.5894 172.024 64.5369C172.303 64.5202 172.572 64.5041 172.823 64.4828L186.248 63.3466C189.404 63.0796 191.215 62.6893 192.347 62.3464C192.898 62.1794 193.281 62.0259 193.56 61.914L193.584 61.9043C193.89 61.7816 193.981 61.7532 194.048 61.7476Z" fill="white"/>
<path fill-rule="evenodd" clip-rule="evenodd" d="M205.4 77.0954C205.45 76.7134 205.601 76.459 205.805 76.2727C206.019 76.0758 206.326 75.9256 206.719 75.8261C207.516 75.6241 208.504 75.6705 209.291 75.7735L224.413 77.7512C230.719 78.5759 234.544 81.0545 236.684 84.2472C238.835 87.4577 239.355 91.4988 238.822 95.5734C238.274 99.7659 236.52 103.625 233.53 106.246C230.554 108.855 226.289 110.297 220.585 109.551C218.6 109.291 216.951 109.028 215.543 108.751L215.532 108.749L215.045 108.669C213.81 108.466 212.688 108.282 211.523 108.13C210.211 107.958 208.848 107.827 207.545 107.704L207.533 107.703L207.521 107.702C206.226 107.626 204.937 107.504 203.607 107.33C202.912 107.239 202.169 106.962 201.645 106.536C201.139 106.125 200.869 105.611 200.954 104.964C201.001 104.601 201.079 104.398 201.148 104.283C201.208 104.182 201.272 104.131 201.351 104.093C201.447 104.047 201.578 104.013 201.791 103.978C201.841 103.97 201.9 103.962 201.964 103.952C202.134 103.928 202.343 103.897 202.537 103.855C203.139 103.723 203.806 103.441 204.375 102.67C204.916 101.935 205.329 100.808 205.593 99.0741L208.069 83.0271L208.069 83.0247C208.259 81.7628 208.167 80.8419 207.847 80.1391C207.52 79.4232 206.998 79.0292 206.552 78.7485C206.45 78.6848 206.348 78.6245 206.256 78.5699L206.235 78.5572C206.134 78.4976 206.045 78.4444 205.961 78.3907C205.793 78.2827 205.676 78.1903 205.59 78.0941C205.457 77.9447 205.321 77.7023 205.4 77.0954ZM221.095 81.1202C220.072 80.9865 219.219 81.078 218.654 81.7244C218.394 82.0219 218.247 82.3842 218.148 82.7481C218.05 83.1115 217.987 83.5295 217.929 83.9709L215.666 101.273C215.587 101.875 215.539 102.428 215.56 102.92C215.581 103.414 215.673 103.889 215.911 104.309C216.409 105.188 217.378 105.564 218.678 105.734C220.257 105.941 221.604 105.703 222.737 105.122C223.865 104.543 224.738 103.646 225.414 102.6C226.753 100.525 227.37 97.7826 227.677 95.4368C228.395 89.951 227.803 86.4887 226.449 84.318C225.071 82.1079 222.989 81.3679 221.095 81.1202Z" fill="white"/>
<path d="M102.909 149.327C102.669 149.327 102.461 149.285 102.284 149.2C102.108 149.112 101.961 148.986 101.845 148.824C101.732 148.661 101.647 148.462 101.591 148.225C101.538 147.989 101.511 147.719 101.511 147.415C101.511 147.115 101.538 146.847 101.591 146.61C101.647 146.37 101.732 146.169 101.845 146.007C101.961 145.844 102.108 145.721 102.284 145.636C102.461 145.548 102.669 145.504 102.909 145.504C103.389 145.504 103.742 145.671 103.968 146.007C104.194 146.342 104.307 146.812 104.307 147.415C104.307 148.019 104.194 148.488 103.968 148.824C103.742 149.159 103.389 149.327 102.909 149.327ZM102.909 148.76C103.033 148.76 103.137 148.737 103.222 148.691C103.306 148.642 103.373 148.573 103.423 148.485C103.476 148.397 103.513 148.289 103.534 148.162C103.559 148.031 103.571 147.887 103.571 147.728V147.097C103.571 146.78 103.522 146.529 103.423 146.346C103.327 146.162 103.156 146.07 102.909 146.07C102.662 146.07 102.489 146.162 102.39 146.346C102.295 146.529 102.247 146.78 102.247 147.097V147.733C102.247 148.051 102.295 148.301 102.39 148.485C102.489 148.668 102.662 148.76 102.909 148.76Z" fill="#333333"/>
<path d="M108.123 149.048L109.388 145.574L110.706 146.054C111.045 146.177 111.268 146.368 111.378 146.625C111.487 146.883 111.481 147.178 111.36 147.509C111.239 147.841 111.054 148.071 110.805 148.198C110.556 148.325 110.262 148.327 109.924 148.204L109.257 147.961L108.775 149.285L108.123 149.048ZM109.451 147.429L109.983 147.623C110.159 147.687 110.298 147.698 110.4 147.656C110.502 147.611 110.582 147.51 110.639 147.354L110.708 147.165C110.765 147.009 110.767 146.882 110.717 146.785C110.667 146.684 110.554 146.602 110.378 146.538L109.846 146.344L109.451 147.429Z" fill="#333333"/>
<path d="M114.084 152.086L116.46 149.255L117.535 150.157C117.811 150.388 117.956 150.644 117.971 150.923C117.985 151.202 117.879 151.477 117.652 151.748C117.425 152.018 117.173 152.171 116.895 152.205C116.617 152.239 116.341 152.141 116.065 151.909L115.521 151.453L114.616 152.532L114.084 152.086ZM115.885 151.019L116.319 151.383C116.463 151.504 116.589 151.561 116.699 151.557C116.811 151.549 116.921 151.482 117.027 151.355L117.157 151.201C117.263 151.074 117.309 150.956 117.295 150.847C117.283 150.735 117.205 150.619 117.061 150.499L116.627 150.135L115.885 151.019Z" fill="#333333"/>
<path d="M119.172 158.021C119.052 157.813 118.985 157.612 118.97 157.417C118.958 157.22 118.993 157.03 119.076 156.848C119.16 156.669 119.29 156.496 119.467 156.329C119.645 156.164 119.866 156.007 120.129 155.855C120.389 155.705 120.634 155.593 120.865 155.521C121.102 155.45 121.318 155.423 121.515 155.439C121.714 155.459 121.895 155.524 122.056 155.635C122.221 155.743 122.363 155.902 122.483 156.11C122.723 156.525 122.755 156.915 122.577 157.278C122.4 157.642 122.049 157.974 121.527 158.276C121.004 158.578 120.541 158.715 120.137 158.687C119.734 158.659 119.412 158.437 119.172 158.021ZM119.663 157.738C119.725 157.845 119.797 157.924 119.879 157.974C119.964 158.023 120.057 158.046 120.158 158.045C120.261 158.047 120.373 158.025 120.493 157.98C120.619 157.936 120.75 157.874 120.888 157.795L121.434 157.48C121.709 157.321 121.901 157.153 122.011 156.975C122.122 156.801 122.116 156.607 121.993 156.393C121.869 156.179 121.703 156.075 121.495 156.081C121.288 156.09 121.047 156.174 120.772 156.333L120.222 156.651C119.946 156.81 119.753 156.976 119.642 157.151C119.532 157.328 119.539 157.524 119.663 157.738Z" fill="#333333"/>
<path d="M121.362 164.098C121.307 163.785 121.313 163.507 121.382 163.266C121.451 163.028 121.562 162.824 121.715 162.653L122.215 162.99C122.082 163.153 121.992 163.32 121.943 163.49C121.898 163.662 121.892 163.839 121.923 164.02C121.96 164.229 122.035 164.38 122.149 164.475C122.262 164.57 122.408 164.601 122.585 164.57C122.731 164.544 122.833 164.483 122.891 164.387C122.953 164.29 122.982 164.14 122.979 163.936L122.973 163.539C122.973 163.192 123.052 162.93 123.211 162.755C123.374 162.579 123.582 162.469 123.836 162.425C124.184 162.363 124.47 162.429 124.694 162.623C124.921 162.816 125.07 163.112 125.141 163.512C125.191 163.797 125.189 164.05 125.135 164.271C125.081 164.496 124.987 164.684 124.853 164.837L124.354 164.511C124.452 164.393 124.522 164.261 124.564 164.114C124.61 163.966 124.616 163.8 124.584 163.615C124.514 163.219 124.315 163.05 123.989 163.107C123.85 163.132 123.751 163.192 123.693 163.289C123.634 163.385 123.606 163.537 123.606 163.745L123.606 164.137C123.602 164.464 123.527 164.719 123.38 164.903C123.234 165.087 123.025 165.202 122.753 165.25C122.583 165.28 122.421 165.278 122.268 165.244C122.119 165.21 121.982 165.144 121.857 165.048C121.736 164.951 121.633 164.822 121.547 164.662C121.462 164.505 121.4 164.317 121.362 164.098Z" fill="#333333"/>
<path d="M121.608 169.81L122.119 169.901L121.974 170.719L124.592 171.181L124.737 170.362L125.248 170.452L124.84 172.768L124.329 172.678L124.473 171.859L121.855 171.397L121.711 172.216L121.2 172.126L121.608 169.81Z" fill="#333333"/>
<path d="M121.736 177.905L121.763 177.859L119.465 176.533L119.762 176.019L122.963 177.867L122.537 178.606L119.755 178.118L119.728 178.164L122.026 179.491L121.729 180.004L118.528 178.156L118.954 177.418L121.736 177.905Z" fill="#333333"/>
<path d="M114.567 183.115L114.599 183.087C114.576 183.01 114.559 182.93 114.549 182.846C114.539 182.762 114.542 182.679 114.56 182.595C114.577 182.511 114.611 182.428 114.66 182.345C114.708 182.264 114.776 182.186 114.865 182.111C115.152 181.87 115.475 181.813 115.835 181.94C116.194 182.072 116.566 182.366 116.949 182.823C117.353 183.304 117.575 183.745 117.615 184.144C117.655 184.544 117.496 184.894 117.136 185.196C116.995 185.314 116.856 185.398 116.719 185.449C116.579 185.502 116.443 185.526 116.311 185.522C116.175 185.521 116.044 185.493 115.916 185.439C115.787 185.39 115.663 185.324 115.542 185.241L115.913 184.694C115.982 184.738 116.053 184.778 116.125 184.814C116.194 184.853 116.264 184.877 116.336 184.886C116.408 184.899 116.479 184.897 116.551 184.878C116.625 184.862 116.7 184.822 116.776 184.759C116.952 184.611 117.018 184.435 116.976 184.231C116.934 184.027 116.811 183.803 116.606 183.56L116.225 183.105C116.123 182.984 116.021 182.878 115.918 182.789C115.815 182.705 115.713 182.643 115.611 182.604C115.509 182.565 115.409 182.553 115.31 182.567C115.213 182.583 115.116 182.633 115.019 182.714C114.868 182.841 114.79 182.982 114.787 183.137C114.785 183.295 114.844 183.444 114.962 183.585L115.156 183.816L115.671 183.384L115.994 183.769L115.004 184.6L113.762 183.119L114.237 182.721L114.567 183.115Z" fill="#333333"/>
<path d="M102.049 188.816V185.692H102.737V188.816H103.85V189.388H100.937V188.816H102.049Z" fill="#333333"/>
<path d="M94.854 186.853L95.8692 187.223L96.4125 185.73L97.0644 185.967L95.8002 189.441L95.1483 189.203L95.6736 187.76L94.6584 187.391L94.1332 188.834L93.4813 188.597L94.7455 185.123L95.3974 185.361L94.854 186.853Z" fill="#333333"/>
<path d="M90.0367 182.052C90.2206 182.206 90.3529 182.372 90.4337 182.551C90.5122 182.732 90.5438 182.922 90.5287 183.121C90.5109 183.318 90.4475 183.526 90.3388 183.743C90.2273 183.958 90.074 184.182 89.8788 184.415C89.686 184.645 89.4932 184.833 89.3006 184.98C89.103 185.128 88.9088 185.228 88.7178 185.279C88.5242 185.329 88.3326 185.329 88.1429 185.281C87.9509 185.235 87.763 185.135 87.5791 184.981C87.2113 184.672 87.0487 184.317 87.0912 183.914C87.1337 183.512 87.3489 183.08 87.737 182.618C88.125 182.155 88.5134 181.868 88.902 181.756C89.2907 181.645 89.6689 181.743 90.0367 182.052ZM89.6725 182.486C89.5778 182.406 89.4833 182.357 89.3889 182.338C89.2922 182.321 89.1966 182.331 89.102 182.367C89.0047 182.4 88.9071 182.459 88.8092 182.543C88.7063 182.627 88.6038 182.73 88.5017 182.851L88.0966 183.334C87.8924 183.578 87.7691 183.801 87.7268 184.005C87.6819 184.207 87.754 184.388 87.9433 184.547C88.1326 184.705 88.3241 184.746 88.5179 184.669C88.7089 184.59 88.9065 184.428 89.1107 184.185L89.5192 183.698C89.7234 183.455 89.848 183.232 89.893 183.03C89.9353 182.826 89.8618 182.645 89.6725 182.486Z" fill="#333333"/>
<path d="M82.9078 179.425L84.9027 178.273C85.0219 178.204 85.1271 178.139 85.2184 178.078C85.3079 178.014 85.3774 177.948 85.427 177.878C85.4718 177.808 85.494 177.73 85.4936 177.644C85.4915 177.556 85.4569 177.453 85.3898 177.337C85.3227 177.221 85.2523 177.142 85.1786 177.098C85.103 177.052 85.0244 177.033 84.9425 177.039C84.8558 177.044 84.7633 177.071 84.665 177.12C84.5649 177.165 84.4553 177.223 84.3361 177.291L82.3411 178.443L81.9943 177.842L83.8975 176.744C84.1237 176.613 84.3289 176.513 84.5129 176.443C84.6969 176.374 84.8685 176.346 85.0275 176.36C85.1865 176.374 85.3365 176.437 85.4776 176.547C85.6138 176.656 85.7481 176.825 85.8805 177.054C86.0129 177.283 86.0931 177.486 86.121 177.661C86.1441 177.835 86.122 177.995 86.0548 178.14C85.9876 178.284 85.8778 178.419 85.7256 178.544C85.5733 178.668 85.384 178.796 85.1578 178.927L83.2546 180.025L82.9078 179.425Z" fill="#333333"/>
<path d="M82.8951 170.107L82.9025 170.149C82.981 170.167 83.059 170.193 83.1365 170.226C83.214 170.259 83.2847 170.304 83.3485 170.36C83.4123 170.417 83.4678 170.488 83.515 170.573C83.5616 170.654 83.5951 170.753 83.6153 170.867C83.6803 171.236 83.568 171.544 83.2783 171.792C82.9846 172.038 82.544 172.212 81.9564 172.316C81.3376 172.425 80.8451 172.397 80.4791 172.232C80.1131 172.067 79.8893 171.754 79.8077 171.291C79.7759 171.111 79.7723 170.948 79.7971 170.804C79.8212 170.656 79.8682 170.526 79.9379 170.413C80.0071 170.297 80.097 170.197 80.2076 170.113C80.3142 170.026 80.4336 169.951 80.5659 169.889L80.8536 170.483C80.7814 170.521 80.7115 170.562 80.6441 170.606C80.576 170.647 80.5201 170.696 80.4765 170.754C80.4289 170.809 80.3952 170.872 80.3756 170.944C80.3525 171.016 80.3495 171.101 80.3667 171.198C80.4065 171.424 80.5254 171.57 80.7234 171.635C80.9213 171.701 81.1767 171.706 81.4896 171.651L82.0737 171.548C82.2302 171.52 82.3726 171.484 82.5011 171.44C82.6254 171.393 82.7299 171.335 82.8146 171.267C82.8993 171.198 82.9603 171.117 82.9978 171.025C83.0317 170.933 83.0377 170.824 83.0156 170.699C82.9813 170.504 82.8978 170.366 82.7653 170.286C82.6294 170.206 82.471 170.182 82.2902 170.214L81.9929 170.266L82.1097 170.928L81.6143 171.016L81.3899 169.743L83.2934 169.408L83.401 170.018L82.8951 170.107Z" fill="#333333"/>
<path d="M82.0696 163.318L81.882 164.382L83.4465 164.658L83.3261 165.341L79.686 164.699L79.8064 164.016L81.3188 164.283L81.5064 163.219L79.994 162.952L80.1145 162.269L83.7546 162.911L83.6341 163.594L82.0696 163.318Z" fill="#333333"/>
<path d="M83.2926 155.988L85.9984 157.55L85.6542 158.146L82.9484 156.584L82.3924 157.547L81.8971 157.261L83.3534 154.739L83.8487 155.025L83.2926 155.988Z" fill="#333333"/>
<path d="M90.1289 152.806C89.8855 153.01 89.6421 153.143 89.3987 153.205C89.158 153.264 88.9257 153.27 88.7017 153.222L88.7431 152.621C88.9507 152.654 89.1403 152.649 89.3119 152.607C89.484 152.559 89.6403 152.476 89.7809 152.358C89.9432 152.222 90.037 152.081 90.0622 151.936C90.0875 151.79 90.0423 151.648 89.9265 151.51C89.8312 151.397 89.7273 151.339 89.6147 151.337C89.4999 151.331 89.3552 151.381 89.1806 151.486L88.8396 151.69C88.5387 151.864 88.2727 151.926 88.0415 151.875C87.8081 151.822 87.6086 151.697 87.4429 151.5C87.216 151.229 87.1303 150.949 87.1858 150.658C87.2391 150.364 87.4212 150.087 87.7322 149.826C87.9539 149.64 88.1741 149.515 88.3927 149.452C88.6139 149.386 88.8243 149.373 89.0238 149.413L88.9905 150.008C88.8399 149.982 88.6903 149.988 88.5417 150.025C88.3909 150.059 88.2438 150.137 88.1004 150.257C87.7922 150.516 87.7447 150.772 87.958 151.026C88.0487 151.134 88.1504 151.19 88.263 151.192C88.3755 151.194 88.5216 151.143 88.7011 151.039L89.0415 150.843C89.3262 150.682 89.5847 150.62 89.8172 150.655C90.0496 150.69 90.2544 150.814 90.4314 151.025C90.5426 151.157 90.6217 151.298 90.6688 151.448C90.7136 151.594 90.7254 151.746 90.7042 151.902C90.6808 152.055 90.6209 152.209 90.5247 152.363C90.4312 152.516 90.2993 152.663 90.1289 152.806Z" fill="#333333"/>
<path d="M109.766 186.541C109.766 186.9 109.474 187.192 109.115 187.192C108.756 187.192 108.464 186.9 108.464 186.541C108.464 186.182 108.756 185.89 109.115 185.89C109.474 185.89 109.766 186.182 109.766 186.541Z" fill="#333333"/>
<path d="M96.0557 148.302C96.0557 148.661 95.7644 148.952 95.405 148.952C95.0456 148.952 94.7543 148.661 94.7543 148.302C94.7543 147.942 95.0456 147.651 95.405 147.651C95.7644 147.651 96.0557 147.942 96.0557 148.302Z" fill="#333333"/>
</svg>
