<svg width="276" height="261" viewBox="0 0 276 261" fill="none" xmlns="http://www.w3.org/2000/svg">
<path d="M120 36V88.2197C118.687 88.0745 117.352 88 116 88C108.599 88 101.72 90.2331 96 94.0622C90.2796 90.2331 83.4006 88 76 88C74.648 88 73.3134 88.0745 72 88.2197V61C72 41.1178 55.8823 25 36 25C16.1178 25 1.52588e-05 41.1178 1.52588e-05 61L0 195C0 231.451 29.5492 261 66 261H170C197.614 261 220 238.614 220 211H235C257.644 211 276 192.644 276 170C276 147.356 257.644 129 235 129H213C205.637 129 198.568 130.266 192 132.588V36C192 16.1178 175.882 0 156 0C136.118 0 120 16.1177 120 36Z" fill="#FF5E71"/>
<path d="M156 16C167.046 16 176 24.9543 176 36V163.014C184.604 152.046 197.979 145 213 145H235C248.807 145 260 156.193 260 170C260 183.807 248.807 195 235 195H220C211.163 195 204 202.163 204 211C204 229.778 188.778 245 170 245H66C38.3858 245 16 222.614 16 195L16 61C16 49.9543 24.9543 41 36 41C47.0457 41 56 49.9543 56 61V150H136V36C136 24.9543 144.954 16 156 16Z" fill="#FFD600"/>
<path fill-rule="evenodd" clip-rule="evenodd" d="M135 36C135 24.402 144.402 15 156 15C167.598 15 177 24.402 177 36V160.25C185.794 150.287 198.663 144 213 144H235C249.359 144 261 155.641 261 170C261 184.359 249.359 196 235 196H220C211.716 196 205 202.716 205 211C205 230.33 189.33 246 170 246H66C37.8335 246 15 223.167 15 195L15 61C15 49.402 24.402 40 36 40C47.598 40 57 49.402 57 61V149H135V36ZM156 17C145.507 17 137 25.5066 137 36V150C137 150.552 136.552 151 136 151H56C55.4477 151 55 150.552 55 150V61C55 50.5066 46.4934 42 36 42C25.5066 42 17 50.5066 17 61L17 195C17 222.062 38.9381 244 66 244H170C188.225 244 203 229.225 203 211C203 201.611 210.611 194 220 194H235C248.255 194 259 183.255 259 170C259 156.745 248.255 146 235 146H213C198.299 146 185.21 152.895 176.787 163.631C176.524 163.967 176.077 164.098 175.674 163.959C175.27 163.82 175 163.44 175 163.014V36C175 25.5066 166.493 17 156 17Z" fill="#333333"/>
<path d="M136 124C136 112.954 127.046 104 116 104C104.954 104 96 112.954 96 124V164C96 175.046 104.954 184 116 184C127.046 184 136 175.046 136 164V124Z" fill="#FFD600"/>
<path fill-rule="evenodd" clip-rule="evenodd" d="M137 124C137 112.402 127.598 103 116 103C104.402 103 95 112.402 95 124V164C95 175.598 104.402 185 116 185C127.598 185 137 175.598 137 164V124ZM116 105C126.493 105 135 113.507 135 124V164C135 174.493 126.493 183 116 183C105.507 183 97 174.493 97 164V124C97 113.507 105.507 105 116 105Z" fill="#333333"/>
<path d="M96 124C96 112.954 87.0457 104 76 104C64.9543 104 56 112.954 56 124V164C56 175.046 64.9543 184 76 184C87.0457 184 96 175.046 96 164V124Z" fill="#FFD600"/>
<path fill-rule="evenodd" clip-rule="evenodd" d="M97 124C97 112.402 87.598 103 76 103C64.402 103 55 112.402 55 124V164C55 175.598 64.402 185 76 185C87.598 185 97 175.598 97 164V124ZM76 105C86.4934 105 95 113.507 95 124V164C95 174.493 86.4934 183 76 183C65.5066 183 57 174.493 57 164V124C57 113.507 65.5066 105 76 105Z" fill="#333333"/>
<path d="M129.038 198.626C129.237 197.029 129.819 195.461 130.771 194.361C131.707 193.28 133.007 192.638 134.737 192.855C136.467 193.071 137.568 194.013 138.209 195.292C138.861 196.592 139.038 198.256 138.838 199.852C138.502 202.54 137.085 205.709 135.546 207.981L135.542 207.987L135.539 207.993C135.293 208.379 134.696 209.237 134.031 209.975C133.697 210.345 133.361 210.668 133.055 210.886C132.728 211.12 132.53 211.165 132.447 211.154C132.363 211.144 132.183 211.052 131.923 210.744C131.681 210.457 131.434 210.062 131.202 209.621C130.739 208.742 130.373 207.763 130.23 207.328L130.227 207.321L130.225 207.315C129.293 204.734 128.701 201.313 129.038 198.626Z" fill="#333333"/>
<path d="M126.826 219.587C127.135 217.118 129.415 215.345 131.884 215.654C134.353 215.963 136.126 218.243 135.817 220.712C135.508 223.181 133.228 224.954 130.759 224.645C128.29 224.336 126.517 222.056 126.826 219.587Z" fill="#333333"/>
<path d="M90.9037 203.667C90.8226 202.075 91.4085 200.158 92.3087 198.617C92.7565 197.851 93.2693 197.2 93.791 196.74C94.3194 196.274 94.8137 196.042 95.2305 196.02C95.314 196.016 95.4501 196.029 95.697 196.067C95.8076 196.084 95.9318 196.105 96.0754 196.129L96.1063 196.135C96.262 196.161 96.4376 196.19 96.634 196.221L96.6465 196.223L96.6592 196.225C97.4438 196.308 98.5701 196.416 100.221 196.332L110.144 195.827C111.919 195.736 112.751 195.527 113.373 195.37L113.393 195.365L113.412 195.358C113.473 195.337 113.532 195.317 113.587 195.298C114.034 195.142 114.303 195.049 114.915 195.018C115.163 195.005 115.569 195.117 116.078 195.426C116.572 195.728 117.115 196.187 117.626 196.787C118.646 197.985 119.506 199.707 119.611 201.76C119.658 202.687 119.453 203.404 119.062 203.892C118.679 204.37 118.065 204.694 117.149 204.741C115.691 204.815 114.903 203.899 114.166 202.757C114.078 202.621 113.989 202.479 113.899 202.335C113.632 201.908 113.355 201.465 113.063 201.12C112.659 200.642 112.124 200.225 111.381 200.263C110.858 200.289 110.453 200.497 110.166 200.82C109.891 201.129 109.752 201.51 109.679 201.853C109.551 202.45 109.6 203.076 109.618 203.296C109.62 203.325 109.622 203.346 109.622 203.36L110.253 215.744C110.317 217.003 110.604 217.859 111.061 218.453C111.522 219.052 112.106 219.321 112.616 219.499C112.743 219.543 112.868 219.583 112.984 219.619L113.001 219.625C113.112 219.66 113.215 219.692 113.313 219.726C113.521 219.798 113.682 219.867 113.81 219.952C113.931 220.032 114.023 220.126 114.091 220.254C114.161 220.386 114.22 220.58 114.235 220.879C114.249 221.14 114.222 221.395 114.099 221.646C113.977 221.895 113.739 222.184 113.254 222.473C112.259 223.066 110.308 223.612 106.554 223.803L106.406 223.81C105.305 223.867 103.066 223.983 101.05 223.742C99.9896 223.615 99.0377 223.394 98.3553 223.043C97.681 222.696 97.3514 222.271 97.3244 221.74C97.3027 221.315 97.4109 221.097 97.5408 220.954C97.6925 220.788 97.9281 220.662 98.2778 220.523C98.3528 220.493 98.4351 220.462 98.522 220.429C98.8005 220.324 99.127 220.201 99.4134 220.042C99.8129 219.822 100.202 219.503 100.443 218.984L100.447 218.975L100.451 218.966C100.565 218.69 100.642 218.326 100.697 217.95C100.754 217.566 100.794 217.134 100.821 216.706C100.875 215.848 100.882 214.975 100.876 214.462L100.876 214.46L100.745 205.53C100.717 203.41 100.497 202.25 100.138 201.621C99.9439 201.28 99.6946 201.069 99.4014 200.969C99.1531 200.884 98.9119 200.897 98.7813 200.904L98.7551 200.906C98.0706 200.941 97.5693 201.416 97.1864 201.903C96.9089 202.255 96.6328 202.697 96.3597 203.134C96.2531 203.305 96.147 203.475 96.0414 203.638C95.241 204.878 94.3858 205.9 93.0277 205.97C91.8352 206.03 90.9696 204.961 90.9037 203.667Z" fill="#333333"/>
<path d="M70.128 198.98C70.1495 198.561 70.4561 198.181 71.1726 197.853C71.8781 197.53 72.8468 197.327 73.8796 197.208C75.9351 196.969 78.0787 197.079 78.4658 197.099C79.6386 197.159 81.3629 197.268 82.7704 197.677C83.4753 197.881 84.0543 198.148 84.4414 198.484C84.8108 198.805 85.0001 199.18 84.9753 199.664C84.9623 199.917 84.8908 200.065 84.8022 200.172C84.7033 200.292 84.5538 200.397 84.3255 200.515C84.2176 200.571 84.1028 200.625 83.9738 200.686L83.9547 200.695C83.8212 200.757 83.6746 200.826 83.5269 200.904C83.2301 201.06 82.9106 201.26 82.6234 201.553L82.6193 201.557C82.3307 201.859 82.1445 202.338 82.0089 202.834C81.8673 203.352 81.7586 203.977 81.6722 204.646C81.4993 205.986 81.409 207.561 81.3392 208.921L81.1415 212.775C80.9643 216.227 80.9887 217.988 81.1702 218.953C81.2637 219.45 81.408 219.792 81.6324 220.051C81.798 220.242 82.0092 220.375 82.1517 220.465C82.1837 220.485 82.2123 220.503 82.2361 220.519C82.4349 220.653 82.636 220.772 82.8141 220.878C82.86 220.905 82.9043 220.931 82.9468 220.956C83.1636 221.086 83.3341 221.195 83.4703 221.311C83.6017 221.423 83.6879 221.531 83.7424 221.65C83.7963 221.768 83.833 221.927 83.821 222.162C83.8072 222.431 83.7731 222.662 83.6497 222.878C83.5305 223.087 83.2958 223.335 82.7796 223.564C81.7129 224.037 79.5759 224.37 75.3216 224.152C74.5011 224.11 72.9186 224.017 71.5647 223.639C70.8854 223.45 70.3092 223.2 69.9192 222.884C69.5455 222.581 69.364 222.239 69.3859 221.811C69.406 221.42 69.6007 221.2 69.9645 220.963C70.0882 220.883 70.2033 220.817 70.3309 220.745C70.4162 220.696 70.5071 220.645 70.6098 220.583C70.8393 220.446 71.0947 220.277 71.3086 220.049C71.6583 219.68 71.9189 219.074 72.1352 217.953C72.3545 216.817 72.5416 215.072 72.6817 212.341L72.8794 208.487C73.0066 206.009 72.9888 204.455 72.8836 203.44C72.7779 202.419 72.5793 201.895 72.3106 201.514L72.3093 201.513C72.0625 201.166 71.7719 200.901 71.4953 200.68C71.3581 200.57 71.2203 200.468 71.0936 200.374L71.0921 200.373C70.9623 200.277 70.8453 200.191 70.7362 200.103C70.5171 199.927 70.3637 199.772 70.2649 199.604C70.1725 199.448 70.1139 199.256 70.128 198.98Z" fill="#333333"/>
<path d="M160.149 132.46C162.754 132.692 164.28 132.632 165.247 132.514C165.717 132.457 166.049 132.387 166.291 132.335L166.312 132.331C166.577 132.275 166.662 132.263 166.727 132.268C167.5 132.337 168.1 133.068 168.493 134.24C168.873 135.372 168.976 136.69 168.907 137.472C168.855 138.055 168.685 138.641 168.394 139.051C168.12 139.436 167.747 139.662 167.2 139.614C166.87 139.584 166.649 139.514 166.492 139.431C166.339 139.349 166.223 139.241 166.119 139.102C166.009 138.955 165.915 138.779 165.801 138.55L165.757 138.459C165.658 138.259 165.544 138.028 165.403 137.796C165.064 137.237 164.568 136.662 163.66 136.192C162.767 135.73 161.499 135.381 159.633 135.215C158.562 135.12 157.728 135.093 157.087 135.195C156.424 135.301 155.914 135.554 155.566 136.052C155.244 136.513 155.108 137.125 155.018 137.826C154.959 138.284 154.916 138.829 154.866 139.453C154.839 139.788 154.811 140.147 154.777 140.526C154.728 141.077 154.693 141.539 154.715 141.908C154.737 142.28 154.819 142.643 155.079 142.93C155.333 143.211 155.687 143.34 156.058 143.42C156.431 143.5 156.911 143.547 157.49 143.598C157.917 143.636 158.292 143.591 158.618 143.457C158.948 143.321 159.197 143.108 159.386 142.856C159.741 142.382 159.893 141.752 160.014 141.249L160.016 141.24C160.151 140.68 160.254 140.257 160.451 139.969C160.539 139.84 160.637 139.754 160.757 139.7C160.879 139.644 161.06 139.606 161.337 139.631C161.704 139.664 161.983 139.858 162.211 140.22C162.449 140.598 162.611 141.132 162.709 141.755C162.903 142.995 162.817 144.411 162.751 145.155C162.682 145.929 162.482 147.423 162.027 148.685C161.798 149.318 161.52 149.852 161.193 150.209C160.877 150.554 160.545 150.707 160.162 150.673C159.934 150.653 159.815 150.594 159.747 150.542C159.681 150.489 159.624 150.411 159.577 150.278C159.528 150.138 159.497 149.96 159.474 149.73C159.463 149.617 159.454 149.5 159.445 149.373L159.444 149.36C159.435 149.238 159.425 149.109 159.413 148.979C159.363 148.451 159.258 147.805 158.835 147.272C158.396 146.72 157.69 146.377 156.631 146.283C156.151 146.241 155.733 146.314 155.386 146.513C155.039 146.713 154.811 147.01 154.66 147.329C154.392 147.894 154.329 148.615 154.28 149.182L154.27 149.293C154.145 150.696 154.074 151.766 154.107 152.577C154.139 153.38 154.275 154.023 154.649 154.495C155.033 154.98 155.592 155.192 156.232 155.316C156.751 155.417 157.399 155.472 158.16 155.537L158.162 155.538C158.328 155.552 158.5 155.566 158.677 155.582C160.706 155.762 162.165 155.541 163.258 155.074C164.359 154.605 165.045 153.905 165.552 153.214C165.777 152.909 165.969 152.601 166.141 152.326L166.198 152.235C166.39 151.928 166.555 151.674 166.73 151.466C166.902 151.263 167.069 151.124 167.253 151.038C167.432 150.954 167.66 150.907 167.98 150.935C168.38 150.971 168.683 151.215 168.894 151.619C169.109 152.033 169.196 152.565 169.156 153.022C169.048 154.231 168.403 155.942 167.578 157.344C167.168 158.042 166.73 158.635 166.318 159.038C165.879 159.468 165.577 159.578 165.428 159.564C165.337 159.556 165.158 159.519 164.862 159.447C164.767 159.424 164.661 159.398 164.547 159.37C164.331 159.316 164.085 159.255 163.823 159.194L163.811 159.191L163.798 159.189C163.706 159.172 163.611 159.155 163.513 159.137C162.721 158.991 161.725 158.808 160.535 158.703L144.706 157.297C143.493 157.189 143.041 156.869 142.869 156.648C142.7 156.431 142.705 156.192 142.726 155.954C142.762 155.551 142.887 155.421 143.012 155.337C143.096 155.28 143.205 155.23 143.36 155.172C143.406 155.155 143.463 155.135 143.524 155.113C143.64 155.071 143.775 155.023 143.893 154.976C144.301 154.811 144.763 154.561 145.16 154.042C145.55 153.531 145.845 152.803 146.011 151.737C146.108 151.111 146.197 150.546 146.278 150.032C147.096 144.813 147.099 144.798 147.312 138.401C147.377 136.89 147.226 135.87 146.924 135.159C146.61 134.419 146.149 134.047 145.698 133.812C145.541 133.729 145.376 133.659 145.241 133.602C145.199 133.585 145.161 133.569 145.126 133.554C144.962 133.482 144.859 133.427 144.786 133.367C144.724 133.316 144.677 133.256 144.645 133.155C144.608 133.042 144.583 132.859 144.61 132.558C144.651 132.1 144.826 131.836 145.057 131.663C145.309 131.474 145.676 131.358 146.145 131.309C146.874 131.232 147.683 131.324 148.403 131.406C148.632 131.432 148.852 131.457 149.057 131.475L160.149 132.46Z" fill="#333333"/>
<path d="M120.017 132.355C119.998 132.001 120.15 131.715 120.486 131.455C120.839 131.181 121.363 130.966 121.986 130.803C123.194 130.487 124.592 130.413 125.337 130.374L125.395 130.371C127.657 130.251 128.887 130.397 129.547 130.673C129.859 130.804 130.017 130.953 130.106 131.095C130.199 131.243 130.25 131.435 130.265 131.702C130.283 132.049 130.173 132.276 130.006 132.439C129.825 132.615 129.542 132.748 129.178 132.813C129.106 132.825 129.035 132.837 128.966 132.848C128.352 132.948 127.813 133.036 127.348 133.477C127.1 133.713 126.889 134.03 126.67 134.443C126.45 134.857 126.205 135.4 125.9 136.111L118.683 152.93C118.644 153.018 118.605 153.106 118.567 153.192L118.566 153.193C118.263 153.877 117.984 154.507 117.596 155.007C117.182 155.542 116.664 155.898 115.866 155.94C114.935 155.99 114.402 155.76 113.996 155.384C113.55 154.973 113.22 154.359 112.767 153.512L104.774 138.077L104.773 138.074C104.182 136.954 103.759 136.203 103.279 135.731C102.749 135.211 102.177 135.051 101.418 134.975L101.416 134.975C101.171 134.951 101.02 134.859 100.92 134.738C100.813 134.609 100.73 134.403 100.714 134.101C100.688 133.613 100.907 133.209 101.362 132.847C101.83 132.474 102.515 132.178 103.308 131.95C104.887 131.497 106.724 131.362 107.636 131.314C111.401 131.114 113.121 131.477 113.891 131.881C114.256 132.072 114.381 132.257 114.432 132.376C114.483 132.493 114.487 132.587 114.493 132.718C114.494 132.742 114.495 132.766 114.496 132.792C114.518 133.207 114.299 133.447 113.892 133.774C113.863 133.797 113.832 133.822 113.8 133.847C113.629 133.982 113.421 134.146 113.261 134.327C113.053 134.562 112.877 134.878 112.899 135.292C112.914 135.582 113.056 135.972 113.218 136.353C113.391 136.76 113.625 137.241 113.883 137.747C114.209 138.384 114.584 139.082 114.936 139.736C115.139 140.114 115.335 140.478 115.509 140.807L115.515 140.819L115.522 140.831C115.588 140.941 115.66 141.085 115.75 141.267L115.795 141.357C115.902 141.57 116.028 141.817 116.172 142.048C116.315 142.276 116.49 142.516 116.707 142.701C116.927 142.889 117.216 143.044 117.57 143.043C118.024 143.045 118.394 142.848 118.681 142.585C118.961 142.327 119.18 141.992 119.353 141.666C119.529 141.336 119.674 140.987 119.796 140.684L119.861 140.522C119.956 140.282 120.032 140.093 120.102 139.953L120.108 139.941L120.114 139.928L120.197 139.737C120.421 139.225 120.828 138.295 121.193 137.367C121.402 136.837 121.6 136.3 121.743 135.837C121.815 135.605 121.876 135.385 121.917 135.189C121.956 135.001 121.985 134.804 121.976 134.63C121.952 134.166 121.76 133.829 121.486 133.584C121.259 133.382 120.977 133.247 120.766 133.146L120.717 133.122C120.473 133.005 120.312 132.918 120.197 132.806C120.105 132.715 120.029 132.591 120.017 132.355Z" fill="#333333"/>
<path fill-rule="evenodd" clip-rule="evenodd" d="M64.0461 142.66C66.7249 135.851 74.0501 133.129 81.1333 135.915C85.6006 137.673 87.9 140.839 88.8905 144.087C89.888 147.359 89.5549 150.707 88.7462 152.763C86.0399 159.643 78.139 161.864 71.4904 159.249C64.6636 156.564 61.346 149.524 64.0461 142.66ZM77.9947 139.37C76.8713 138.928 75.8035 139.19 74.956 139.769C74.1206 140.34 73.476 141.231 73.1222 142.13C72.5345 143.624 71.962 146.601 71.9899 149.386C72.0039 150.782 72.1684 152.166 72.5793 153.309C72.9896 154.45 73.6722 155.418 74.7629 155.847C75.9411 156.31 77.0145 156.13 77.8823 155.56C78.7292 155.004 79.3543 154.097 79.7359 153.126C80.3601 151.54 80.986 148.584 80.9607 145.82C80.9481 144.436 80.7723 143.065 80.3278 141.924C79.8813 140.778 79.1449 139.823 77.9947 139.37Z" fill="#333333"/>
<path d="M21.894 133.254C21.8328 132.729 22.0531 132.271 22.5463 131.84C23.0512 131.399 23.8013 131.028 24.6693 130.725C26.3987 130.122 28.4273 129.844 29.4116 129.729C33.4509 129.258 35.511 129.37 36.5662 129.718C37.073 129.885 37.3061 130.093 37.4312 130.281C37.5641 130.48 37.6195 130.721 37.6576 131.048C37.6852 131.284 37.6628 131.441 37.626 131.548C37.5904 131.653 37.5323 131.738 37.4456 131.819C37.3536 131.906 37.2311 131.987 37.0664 132.078C36.9848 132.124 36.8988 132.168 36.8043 132.217L36.7918 132.224C36.7027 132.27 36.6063 132.32 36.5097 132.373C36.104 132.595 35.6309 132.903 35.3097 133.462C34.9875 134.023 34.8574 134.765 34.9759 135.781L36.4733 148.623C36.6416 150.066 36.8958 151.28 37.5691 152.07C38.2898 152.916 39.3776 153.167 40.8834 152.991C42.6656 152.784 43.8692 152.274 44.6909 151.573C45.5157 150.87 45.9051 150.018 46.1369 149.227C46.2461 148.855 46.3226 148.488 46.3904 148.163L46.4004 148.115C46.4729 147.767 46.5351 147.479 46.6183 147.236C46.7008 146.994 46.7906 146.839 46.8918 146.739C46.9829 146.649 47.1116 146.576 47.3362 146.549C48.0309 146.468 48.5525 146.768 48.9486 147.291C49.3579 147.83 49.6081 148.586 49.6904 149.292C49.8619 150.763 49.5283 152.538 48.9205 153.973C48.6177 154.688 48.2566 155.294 47.8781 155.726C47.4918 156.167 47.1358 156.372 46.8482 156.406C46.3689 156.461 45.9799 156.432 45.5049 156.397C45.3168 156.383 45.1151 156.367 44.8891 156.356C44.0704 156.282 43.1352 156.265 41.7344 156.429L28.2466 158.002L28.1055 158.018C27.466 158.094 26.7811 158.175 26.215 158.067C25.9229 158.012 25.7056 157.912 25.5542 157.77C25.4101 157.634 25.285 157.421 25.2422 157.054C25.2117 156.792 25.2334 156.62 25.2707 156.503C25.3066 156.39 25.3647 156.303 25.4491 156.22C25.5399 156.132 25.6612 156.05 25.8285 155.952C25.8801 155.922 25.9437 155.886 26.0129 155.848C26.1354 155.779 26.2753 155.701 26.3964 155.626C26.8206 155.365 27.2843 154.999 27.5952 154.341C27.9005 153.695 28.0322 152.824 27.9213 151.598C27.6577 148.634 27.3557 146.044 27.078 143.662L27.0778 143.66C26.8971 142.111 26.6391 140.618 26.3882 139.167C26.2458 138.343 26.1057 137.533 25.9833 136.732C25.8508 135.796 25.506 135.169 24.9974 134.765C24.5071 134.375 23.9261 134.244 23.4512 134.161C23.348 134.143 23.2548 134.128 23.1665 134.113C23.033 134.092 22.9106 134.072 22.7822 134.046C22.5802 134.006 22.4227 133.961 22.2981 133.902C22.1793 133.845 22.0981 133.779 22.0389 133.695C21.9788 133.61 21.92 133.477 21.894 133.254Z" fill="#333333"/>
<path d="M172.416 180.055C172.208 180.055 172.027 180.018 171.875 179.945C171.722 179.868 171.595 179.76 171.494 179.619C171.396 179.478 171.322 179.305 171.273 179.1C171.227 178.895 171.204 178.661 171.204 178.398C171.204 178.138 171.227 177.906 171.273 177.701C171.322 177.493 171.396 177.318 171.494 177.178C171.595 177.037 171.722 176.93 171.875 176.856C172.027 176.78 172.208 176.742 172.416 176.742C172.832 176.742 173.138 176.887 173.334 177.178C173.53 177.468 173.628 177.875 173.628 178.398C173.628 178.921 173.53 179.328 173.334 179.619C173.138 179.91 172.832 180.055 172.416 180.055ZM172.416 179.564C172.523 179.564 172.613 179.544 172.687 179.504C172.76 179.462 172.818 179.402 172.861 179.325C172.907 179.249 172.939 179.156 172.958 179.045C172.979 178.932 172.99 178.807 172.99 178.669V178.123C172.99 177.848 172.947 177.63 172.861 177.471C172.779 177.312 172.63 177.233 172.416 177.233C172.202 177.233 172.052 177.312 171.966 177.471C171.884 177.63 171.842 177.848 171.842 178.123V178.674C171.842 178.949 171.884 179.166 171.966 179.325C172.052 179.484 172.202 179.564 172.416 179.564Z" fill="#333333"/>
<path d="M177.026 179.695L178.121 176.685L179.264 177.101C179.557 177.208 179.751 177.373 179.846 177.596C179.94 177.819 179.935 178.075 179.831 178.362C179.726 178.65 179.566 178.849 179.35 178.959C179.134 179.069 178.879 179.071 178.586 178.964L178.008 178.754L177.59 179.901L177.026 179.695ZM178.176 178.293L178.637 178.46C178.79 178.516 178.91 178.525 178.998 178.489C179.087 178.45 179.156 178.363 179.206 178.228L179.265 178.064C179.314 177.929 179.317 177.819 179.273 177.734C179.23 177.647 179.132 177.576 178.98 177.52L178.518 177.352L178.176 178.293Z" fill="#333333"/>
<path d="M182.271 182.376L184.33 179.922L185.262 180.703C185.501 180.904 185.627 181.125 185.639 181.367C185.652 181.61 185.56 181.848 185.363 182.082C185.166 182.317 184.948 182.449 184.707 182.478C184.466 182.508 184.227 182.423 183.988 182.222L183.516 181.827L182.732 182.762L182.271 182.376ZM183.832 181.451L184.208 181.766C184.333 181.871 184.442 181.921 184.537 181.917C184.635 181.91 184.729 181.852 184.822 181.742L184.934 181.608C185.026 181.498 185.066 181.396 185.054 181.301C185.043 181.205 184.976 181.104 184.851 181L184.475 180.684L183.832 181.451Z" fill="#333333"/>
<path d="M186.741 187.59C186.637 187.41 186.579 187.235 186.566 187.066C186.555 186.895 186.586 186.731 186.657 186.573C186.73 186.418 186.843 186.268 186.996 186.123C187.151 185.981 187.342 185.844 187.57 185.712C187.795 185.582 188.008 185.486 188.209 185.423C188.413 185.362 188.601 185.338 188.772 185.352C188.944 185.37 189.101 185.426 189.241 185.522C189.383 185.616 189.507 185.753 189.611 185.933C189.819 186.294 189.846 186.631 189.692 186.946C189.538 187.261 189.235 187.549 188.782 187.811C188.329 188.073 187.927 188.191 187.578 188.167C187.228 188.143 186.949 187.95 186.741 187.59ZM187.166 187.345C187.22 187.437 187.282 187.506 187.353 187.549C187.427 187.591 187.508 187.612 187.596 187.611C187.685 187.612 187.782 187.593 187.886 187.554C187.995 187.516 188.109 187.463 188.228 187.394L188.701 187.121C188.94 186.983 189.106 186.837 189.201 186.684C189.298 186.533 189.293 186.364 189.185 186.179C189.078 185.993 188.935 185.903 188.754 185.909C188.575 185.917 188.366 185.99 188.128 186.127L187.651 186.403C187.412 186.54 187.245 186.685 187.148 186.836C187.053 186.989 187.059 187.159 187.166 187.345Z" fill="#333333"/>
<path d="M188.67 192.943C188.622 192.672 188.628 192.432 188.687 192.223C188.747 192.016 188.844 191.839 188.976 191.692L189.41 191.983C189.295 192.125 189.216 192.269 189.174 192.416C189.135 192.566 189.129 192.719 189.157 192.876C189.189 193.057 189.254 193.188 189.352 193.27C189.451 193.352 189.577 193.38 189.73 193.353C189.857 193.331 189.945 193.278 189.996 193.194C190.049 193.11 190.075 192.98 190.071 192.803L190.067 192.459C190.066 192.158 190.135 191.932 190.273 191.78C190.414 191.628 190.594 191.532 190.814 191.493C191.116 191.44 191.364 191.497 191.558 191.665C191.755 191.832 191.884 192.089 191.945 192.436C191.989 192.683 191.987 192.902 191.94 193.094C191.894 193.288 191.812 193.452 191.696 193.584L191.264 193.301C191.348 193.2 191.409 193.085 191.445 192.957C191.485 192.829 191.491 192.685 191.462 192.525C191.402 192.182 191.23 192.035 190.947 192.085C190.826 192.106 190.741 192.159 190.69 192.242C190.64 192.326 190.615 192.457 190.615 192.638L190.615 192.978C190.612 193.261 190.547 193.482 190.42 193.641C190.292 193.801 190.111 193.901 189.876 193.942C189.729 193.968 189.588 193.967 189.456 193.937C189.326 193.907 189.208 193.85 189.1 193.767C188.995 193.683 188.905 193.571 188.831 193.432C188.757 193.296 188.704 193.133 188.67 192.943Z" fill="#333333"/>
<path d="M188.883 197.987L189.326 198.065L189.201 198.775L191.47 199.175L191.595 198.465L192.038 198.543L191.684 200.55L191.241 200.472L191.366 199.762L189.097 199.362L188.972 200.072L188.529 199.994L188.883 197.987Z" fill="#333333"/>
<path d="M188.964 205.089L188.987 205.05L186.996 203.9L187.253 203.455L190.027 205.057L189.658 205.696L187.246 205.274L187.223 205.314L189.215 206.464L188.958 206.909L186.183 205.307L186.553 204.667L188.964 205.089Z" fill="#333333"/>
<path d="M182.69 209.675L182.718 209.651C182.698 209.585 182.683 209.515 182.675 209.442C182.666 209.37 182.669 209.298 182.684 209.225C182.699 209.152 182.728 209.08 182.771 209.008C182.812 208.938 182.871 208.87 182.949 208.805C183.197 208.597 183.477 208.547 183.789 208.657C184.1 208.771 184.422 209.026 184.755 209.422C185.105 209.84 185.297 210.221 185.332 210.568C185.367 210.914 185.228 211.218 184.917 211.479C184.795 211.581 184.674 211.655 184.556 211.698C184.434 211.744 184.316 211.765 184.201 211.762C184.084 211.76 183.97 211.736 183.859 211.69C183.748 211.647 183.64 211.59 183.535 211.518L183.857 211.044C183.917 211.082 183.978 211.117 184.04 211.148C184.1 211.182 184.161 211.202 184.224 211.21C184.286 211.222 184.348 211.22 184.41 211.204C184.474 211.19 184.539 211.155 184.605 211.1C184.757 210.972 184.815 210.82 184.778 210.643C184.742 210.466 184.635 210.272 184.458 210.061L184.127 209.667C184.039 209.562 183.95 209.47 183.861 209.393C183.772 209.32 183.683 209.267 183.595 209.233C183.507 209.199 183.42 209.188 183.334 209.2C183.25 209.215 183.166 209.257 183.082 209.328C182.951 209.438 182.884 209.561 182.88 209.695C182.879 209.832 182.93 209.961 183.032 210.083L183.2 210.283L183.647 209.909L183.927 210.243L183.069 210.962L181.993 209.679L182.404 209.334L182.69 209.675Z" fill="#333333"/>
<path d="M171.67 214.546V211.838H172.266V214.546H173.23V215.041H170.706V214.546H171.67Z" fill="#333333"/>
<path d="M165.343 212.962L166.223 213.282L166.694 211.988L167.259 212.194L166.163 215.204L165.598 214.998L166.054 213.748L165.174 213.427L164.719 214.678L164.154 214.472L165.249 211.462L165.814 211.668L165.343 212.962Z" fill="#333333"/>
<path d="M161.088 208.754C161.247 208.888 161.362 209.032 161.432 209.187C161.5 209.344 161.527 209.508 161.514 209.681C161.499 209.852 161.444 210.032 161.35 210.22C161.253 210.407 161.12 210.601 160.951 210.802C160.784 211.001 160.617 211.165 160.45 211.292C160.279 211.42 160.11 211.507 159.945 211.551C159.777 211.594 159.611 211.595 159.447 211.553C159.28 211.513 159.117 211.426 158.958 211.293C158.639 211.025 158.498 210.717 158.535 210.369C158.572 210.02 158.759 209.645 159.095 209.245C159.431 208.844 159.768 208.595 160.105 208.498C160.441 208.401 160.769 208.487 161.088 208.754ZM160.772 209.13C160.69 209.062 160.608 209.019 160.526 209.002C160.443 208.988 160.36 208.996 160.278 209.027C160.194 209.056 160.109 209.107 160.024 209.18C159.935 209.252 159.846 209.342 159.758 209.447L159.407 209.866C159.23 210.076 159.123 210.27 159.086 210.447C159.047 210.622 159.11 210.779 159.274 210.916C159.438 211.054 159.604 211.089 159.772 211.023C159.937 210.954 160.108 210.814 160.285 210.603L160.639 210.181C160.816 209.97 160.924 209.777 160.963 209.602C161 209.425 160.936 209.268 160.772 209.13Z" fill="#333333"/>
<path d="M154.85 206.406L156.578 205.408C156.682 205.348 156.773 205.292 156.852 205.24C156.93 205.184 156.99 205.126 157.033 205.066C157.072 205.005 157.091 204.937 157.091 204.863C157.089 204.787 157.059 204.698 157.001 204.597C156.943 204.497 156.882 204.428 156.818 204.39C156.752 204.35 156.684 204.333 156.613 204.339C156.538 204.343 156.458 204.367 156.373 204.409C156.286 204.448 156.191 204.498 156.087 204.558L154.359 205.556L154.058 205.035L155.707 204.083C155.903 203.97 156.081 203.883 156.241 203.823C156.4 203.762 156.549 203.738 156.687 203.751C156.824 203.763 156.955 203.817 157.077 203.912C157.195 204.007 157.311 204.153 157.426 204.352C157.541 204.551 157.61 204.726 157.634 204.878C157.654 205.029 157.635 205.167 157.577 205.293C157.519 205.418 157.424 205.535 157.292 205.643C157.16 205.751 156.996 205.861 156.8 205.975L155.15 206.927L154.85 206.406Z" fill="#333333"/>
<path d="M154.807 198.244L154.814 198.28C154.882 198.296 154.949 198.318 155.017 198.347C155.084 198.375 155.145 198.414 155.2 198.464C155.256 198.513 155.304 198.574 155.345 198.648C155.385 198.718 155.414 198.803 155.432 198.903C155.488 199.222 155.391 199.489 155.14 199.705C154.885 199.917 154.503 200.068 153.994 200.158C153.458 200.253 153.031 200.229 152.714 200.086C152.396 199.943 152.202 199.671 152.132 199.27C152.104 199.114 152.101 198.973 152.122 198.848C152.143 198.72 152.184 198.607 152.245 198.509C152.304 198.409 152.382 198.322 152.478 198.249C152.571 198.174 152.674 198.109 152.789 198.055L153.038 198.57C152.976 198.603 152.915 198.638 152.856 198.676C152.797 198.712 152.749 198.754 152.711 198.805C152.67 198.852 152.641 198.907 152.624 198.969C152.604 199.032 152.601 199.105 152.616 199.19C152.651 199.385 152.754 199.512 152.925 199.568C153.097 199.625 153.318 199.63 153.589 199.582L154.096 199.493C154.231 199.469 154.355 199.438 154.466 199.399C154.574 199.359 154.664 199.308 154.738 199.249C154.811 199.189 154.864 199.119 154.896 199.039C154.926 198.959 154.931 198.865 154.912 198.757C154.882 198.588 154.81 198.469 154.695 198.399C154.577 198.33 154.44 198.309 154.283 198.336L154.025 198.382L154.127 198.956L153.697 199.032L153.503 197.929L155.153 197.638L155.246 198.167L154.807 198.244Z" fill="#333333"/>
<path d="M154.092 192.268L153.93 193.19L155.286 193.429L155.181 194.021L152.026 193.465L152.131 192.873L153.441 193.104L153.604 192.182L152.293 191.951L152.398 191.359L155.552 191.915L155.448 192.507L154.092 192.268Z" fill="#333333"/>
<path d="M155.183 185.828L157.528 187.182L157.23 187.698L154.885 186.345L154.403 187.179L153.974 186.931L155.236 184.745L155.665 184.993L155.183 185.828Z" fill="#333333"/>
<path d="M161.168 182.999C160.957 183.176 160.746 183.292 160.535 183.345C160.327 183.396 160.125 183.401 159.931 183.36L159.967 182.839C160.147 182.868 160.311 182.864 160.46 182.827C160.609 182.785 160.745 182.714 160.867 182.611C161.007 182.493 161.089 182.371 161.11 182.245C161.132 182.119 161.093 181.996 160.993 181.876C160.91 181.778 160.82 181.728 160.723 181.726C160.623 181.721 160.498 181.765 160.346 181.856L160.051 182.032C159.79 182.183 159.56 182.236 159.359 182.193C159.157 182.147 158.984 182.038 158.84 181.867C158.644 181.633 158.569 181.39 158.618 181.138C158.664 180.883 158.822 180.643 159.091 180.417C159.283 180.256 159.474 180.147 159.664 180.092C159.855 180.035 160.038 180.024 160.21 180.059L160.182 180.574C160.051 180.552 159.921 180.557 159.793 180.589C159.662 180.619 159.534 180.686 159.41 180.79C159.143 181.014 159.102 181.237 159.287 181.457C159.365 181.551 159.454 181.598 159.551 181.601C159.649 181.603 159.775 181.558 159.931 181.468L160.226 181.298C160.473 181.159 160.697 181.105 160.898 181.135C161.1 181.166 161.277 181.273 161.43 181.455C161.527 181.57 161.595 181.692 161.636 181.822C161.675 181.949 161.685 182.08 161.667 182.216C161.647 182.348 161.595 182.482 161.511 182.616C161.43 182.748 161.316 182.876 161.168 182.999Z" fill="#333333"/>
<path d="M178.359 212.441C178.359 212.752 178.106 213.005 177.795 213.005C177.483 213.005 177.231 212.752 177.231 212.441C177.231 212.129 177.483 211.877 177.795 211.877C178.106 211.877 178.359 212.129 178.359 212.441Z" fill="#333333"/>
<path d="M166.476 179.3C166.476 179.611 166.223 179.863 165.912 179.863C165.6 179.863 165.348 179.611 165.348 179.3C165.348 178.988 165.6 178.736 165.912 178.736C166.223 178.736 166.476 178.988 166.476 179.3Z" fill="#333333"/>
</svg>
