<svg width="387" height="290" viewBox="0 0 387 290" fill="none" xmlns="http://www.w3.org/2000/svg">
<path d="M140.314 35.6422V63.2536C140.314 76.4831 129.599 86.4334 116.89 86.4334H25.078C11.7217 86.4334 0.894287 97.2608 0.894287 110.617V179.121C0.894287 192.477 11.7217 203.304 25.078 203.304H129.677C136.348 213.925 148.159 220.982 161.633 220.982H176.841V254.192C176.841 273.696 192.653 289.508 212.158 289.508C231.659 289.508 247.475 273.703 247.475 254.195V226.583C247.475 213.354 258.19 203.403 270.898 203.403H362.711C376.067 203.403 386.894 192.576 386.894 179.22V110.716C386.894 97.3598 376.067 86.5325 362.711 86.5325H258.111C251.44 75.9116 239.63 68.8547 226.156 68.8547H210.947V35.6452C210.947 16.1403 195.136 0.328369 175.631 0.328369C156.129 0.328369 140.314 16.1336 140.314 35.6422Z" fill="#AF71FE"/>
<path d="M230.475 254.195V226.583C230.475 203.354 249.423 186.403 270.898 186.403H362.711C366.678 186.403 369.894 183.187 369.894 179.22V110.716C369.894 106.749 366.678 103.532 362.711 103.532H193.841V162.547H161.633C150.19 162.547 140.915 171.822 140.915 183.264C140.915 194.706 150.19 203.982 161.633 203.982H186.657C190.625 203.982 193.841 207.198 193.841 211.166V254.192C193.841 264.308 202.042 272.508 212.158 272.508C222.274 272.508 230.475 264.311 230.475 254.195Z" fill="#FFD600"/>
<path fill-rule="evenodd" clip-rule="evenodd" d="M192.841 103.532C192.841 102.98 193.289 102.532 193.841 102.532H362.711C367.23 102.532 370.894 106.196 370.894 110.716V179.22C370.894 183.739 367.23 187.403 362.711 187.403H270.898C249.939 187.403 231.475 203.942 231.475 226.583V254.195C231.475 264.863 222.826 273.508 212.158 273.508C201.49 273.508 192.841 264.86 192.841 254.192V211.166C192.841 207.751 190.073 204.982 186.657 204.982H161.633C149.638 204.982 139.915 195.259 139.915 183.264C139.915 171.27 149.638 161.547 161.633 161.547H192.841V103.532ZM194.841 104.532V162.547C194.841 163.099 194.393 163.547 193.841 163.547H161.633C150.743 163.547 141.915 172.375 141.915 183.264C141.915 194.154 150.743 202.982 161.633 202.982H186.657C191.177 202.982 194.841 206.646 194.841 211.166V254.192C194.841 263.755 202.594 271.508 212.158 271.508C221.722 271.508 229.475 263.758 229.475 254.195V226.583C229.475 202.766 248.908 185.403 270.898 185.403H362.711C366.126 185.403 368.894 182.635 368.894 179.22V110.716C368.894 107.301 366.126 104.532 362.711 104.532H194.841Z" fill="#333333"/>
<path d="M157.314 35.6422V63.2536C157.314 86.4826 138.365 103.433 116.89 103.433H25.078C21.1105 103.433 17.8943 106.65 17.8943 110.617V179.121C17.8943 183.088 21.1105 186.304 25.078 186.304H193.947V127.29H226.156C237.598 127.29 246.874 118.014 246.874 106.572C246.874 95.1303 237.598 85.8547 226.156 85.8547H201.131C197.164 85.8547 193.947 82.6384 193.947 78.671V35.6452C193.947 25.5291 185.747 17.3284 175.631 17.3284C165.514 17.3284 157.314 25.5261 157.314 35.6422Z" fill="#FFD600"/>
<path fill-rule="evenodd" clip-rule="evenodd" d="M175.631 18.3284C166.067 18.3284 158.314 26.0786 158.314 35.6422V63.2536C158.314 87.0708 138.881 104.433 116.89 104.433H25.078C21.6628 104.433 18.8943 107.202 18.8943 110.617V179.121C18.8943 182.536 21.6628 185.304 25.078 185.304H192.947V127.29C192.947 126.738 193.395 126.29 193.947 126.29H226.156C237.046 126.29 245.874 117.462 245.874 106.572C245.874 95.6826 237.046 86.8547 226.156 86.8547H201.131C196.611 86.8547 192.947 83.1907 192.947 78.671V35.6452C192.947 26.0814 185.194 18.3284 175.631 18.3284ZM156.314 35.6422C156.314 24.9736 164.962 16.3284 175.631 16.3284C186.299 16.3284 194.947 24.9768 194.947 35.6452V78.671C194.947 82.0862 197.716 84.8547 201.131 84.8547H226.156C238.15 84.8547 247.874 94.578 247.874 106.572C247.874 118.567 238.15 128.29 226.156 128.29H194.947V186.304C194.947 186.857 194.5 187.304 193.947 187.304H25.078C20.5582 187.304 16.8943 183.64 16.8943 179.121V110.617C16.8943 106.097 20.5582 102.433 25.078 102.433H116.89C137.85 102.433 156.314 85.8943 156.314 63.2536V35.6422Z" fill="#333333"/>
<path fill-rule="evenodd" clip-rule="evenodd" d="M207.137 85.8547C207.137 85.3025 207.585 84.8547 208.137 84.8547H226.156C238.15 84.8547 247.873 94.5781 247.873 106.572C247.873 118.567 238.15 128.29 226.156 128.29H175.982C166.628 128.29 159.045 120.707 159.045 111.353C159.045 102 166.628 94.4168 175.982 94.4168H220.711C221.264 94.4168 221.711 94.8645 221.711 95.4168C221.711 95.969 221.264 96.4168 220.711 96.4168H175.982C167.733 96.4168 161.045 103.104 161.045 111.353C161.045 119.603 167.733 126.29 175.982 126.29H226.156C237.045 126.29 245.873 117.462 245.873 106.572C245.873 95.6827 237.045 86.8547 226.156 86.8547H208.137C207.585 86.8547 207.137 86.407 207.137 85.8547Z" fill="#333333"/>
<path d="M161.633 203.982H179.652L167.077 194.42H211.806C220.608 194.42 227.743 187.285 227.743 178.483C227.743 169.682 220.608 162.547 211.806 162.547H201.272H161.633C150.191 162.547 140.915 171.822 140.915 183.264C140.915 194.706 150.191 203.982 161.633 203.982Z" fill="#FFD600"/>
<path fill-rule="evenodd" clip-rule="evenodd" d="M180.652 203.982C180.652 204.534 180.204 204.982 179.652 204.982H161.633C149.639 204.982 139.915 195.259 139.915 183.264C139.915 171.27 149.639 161.547 161.633 161.547H211.806C221.16 161.547 228.743 169.129 228.743 178.483C228.743 187.837 221.16 195.42 211.806 195.42H167.077C166.525 195.42 166.077 194.972 166.077 194.42C166.077 193.868 166.525 193.42 167.077 193.42H211.806C220.056 193.42 226.743 186.733 226.743 178.483C226.743 170.234 220.056 163.547 211.806 163.547H161.633C150.743 163.547 141.915 172.374 141.915 183.264C141.915 194.154 150.743 202.982 161.633 202.982H179.652C180.204 202.982 180.652 203.43 180.652 203.982Z" fill="#333333"/>
<path d="M150.792 144.839C150.792 134.92 158.833 126.879 168.751 126.879H219.037C228.956 126.879 236.996 134.92 236.996 144.839C236.996 154.757 228.956 162.798 219.037 162.798H168.751C158.833 162.798 150.792 154.757 150.792 144.839Z" fill="#FFD600"/>
<path fill-rule="evenodd" clip-rule="evenodd" d="M149.792 144.839C149.792 134.368 158.281 125.879 168.751 125.879H219.037C229.508 125.879 237.996 134.368 237.996 144.839C237.996 155.309 229.508 163.798 219.037 163.798H168.751C158.281 163.798 149.792 155.309 149.792 144.839ZM168.751 127.879C159.385 127.879 151.792 135.472 151.792 144.839C151.792 154.205 159.385 161.798 168.751 161.798H219.037C228.403 161.798 235.996 154.205 235.996 144.839C235.996 135.472 228.403 127.879 219.037 127.879H168.751Z" fill="#333333"/>
<path d="M26.0386 127.04C26.1033 126.45 26.4187 126.045 26.9392 125.751C27.4815 125.444 28.2315 125.271 29.0858 125.196C30.6331 125.059 32.3513 125.253 33.4091 125.373C33.5176 125.385 33.6193 125.397 33.713 125.407C35.0834 125.557 35.7924 125.684 36.3799 125.979C36.9646 126.272 37.4698 126.754 38.366 127.745L47.7734 138.021L47.7823 138.03C47.8277 138.077 47.8826 138.135 47.9454 138.202C48.1936 138.465 48.5646 138.858 48.9573 139.213C49.2048 139.437 49.4743 139.658 49.7429 139.832C50.0012 140 50.3079 140.156 50.6225 140.191C51.0541 140.238 51.4147 140.09 51.688 139.84C51.9453 139.604 52.1159 139.289 52.2334 138.991C52.4683 138.395 52.5538 137.699 52.5946 137.326C52.6553 136.772 52.7276 136.011 52.754 135.251C52.7799 134.505 52.7635 133.716 52.6283 133.124C52.3993 132.069 51.6508 131.565 51.0956 131.191C51.0268 131.144 50.9608 131.1 50.8993 131.057C50.6 130.847 50.3861 130.665 50.2483 130.435C50.1192 130.219 50.0299 129.913 50.0852 129.409C50.1453 128.86 50.3971 128.499 50.7737 128.243C51.1709 127.973 51.7259 127.809 52.3813 127.728C53.5913 127.579 54.9678 127.733 55.915 127.839C55.9966 127.849 56.0751 127.857 56.15 127.866C56.2677 127.879 56.3942 127.892 56.5278 127.906C57.523 128.009 58.918 128.154 60.0961 128.558C60.7618 128.786 61.3064 129.082 61.6619 129.457C61.9995 129.812 62.1837 130.255 62.1174 130.86C62.0577 131.405 61.9005 131.688 61.7331 131.861C61.5546 132.046 61.3135 132.163 60.9684 132.289C60.9016 132.314 60.8309 132.338 60.7574 132.364C60.1074 132.589 59.2285 132.895 58.699 133.955L58.6973 133.958C58.2929 134.784 58.0229 135.902 57.8309 136.99C57.6376 138.085 57.5159 139.196 57.4247 140.028L56.178 151.405C56.1626 151.545 56.1466 151.702 56.1291 151.875C56.0196 152.951 55.852 154.597 55.4394 156.032C55.1996 156.866 54.8908 157.577 54.5007 158.051C54.1261 158.506 53.7041 158.718 53.1754 158.66C52.4959 158.586 51.9178 158.109 51.3276 157.473L39.0984 143.83C38.8241 143.513 38.4101 143.035 37.9416 142.624C37.4889 142.226 36.9018 141.814 36.2773 141.745C35.7294 141.685 35.3019 141.941 35.0012 142.288C34.7121 142.62 34.5113 143.063 34.3669 143.492C34.0761 144.357 33.9575 145.348 33.9069 145.81C33.7727 147.035 33.631 148.718 33.7769 149.952L33.7771 149.954C33.8742 150.752 34.1215 151.328 34.455 151.77C34.7825 152.204 35.1734 152.48 35.489 152.697L35.5172 152.717C35.8392 152.938 36.0416 153.077 36.1779 153.261C36.292 153.416 36.3817 153.638 36.334 154.074C36.2693 154.665 36.0006 155.082 35.5961 155.393C35.1767 155.716 34.5969 155.935 33.9191 156.068C32.5614 156.334 30.971 156.227 29.948 156.115C28.9476 156.005 27.3811 155.766 26.1159 155.223C25.4838 154.951 24.9648 154.62 24.625 154.224C24.2978 153.843 24.1282 153.396 24.1899 152.832C24.2423 152.354 24.3967 152.109 24.5749 151.943C24.7784 151.753 25.0447 151.632 25.4306 151.456L25.4396 151.452C25.8065 151.284 26.2581 151.075 26.6616 150.703C27.0754 150.321 27.4138 149.793 27.6228 149.022C28.1483 147.126 28.5424 144.336 28.7593 142.357L28.7613 142.339C29.1064 139.19 29.4611 135.953 29.3229 132.701L29.3227 132.697C29.2642 131.516 28.9961 130.675 28.5998 130.045C28.2035 129.415 27.7044 129.038 27.2664 128.749C27.1594 128.678 27.0685 128.621 26.9836 128.567C26.8783 128.5 26.7823 128.44 26.6769 128.368C26.5049 128.25 26.3745 128.145 26.2756 128.033C26.1054 127.841 25.9796 127.579 26.0386 127.04Z" fill="#333333"/>
<path fill-rule="evenodd" clip-rule="evenodd" d="M60.3849 151.299C60.3849 140.82 68.7251 133.37 79.5867 133.37C86.4446 133.37 91.1674 136.381 94.1876 140.187C97.2228 144.012 98.5338 148.637 98.5338 151.808C98.5338 162.406 89.1617 169.482 78.9758 169.482C68.494 169.482 60.3849 161.85 60.3849 151.299ZM77.2449 139.955C75.6203 139.955 74.4092 140.806 73.6239 141.962C72.8468 143.107 72.4685 144.57 72.4685 145.902C72.4685 148.141 73.2492 152.329 74.7196 155.96C75.4558 157.778 76.3784 159.491 77.4894 160.758C78.5992 162.023 79.9465 162.897 81.5212 162.897C83.242 162.897 84.4992 162.139 85.3087 160.992C86.1038 159.867 86.4503 158.395 86.4503 156.949C86.4503 154.566 85.7495 150.379 84.2948 146.778C83.5668 144.976 82.6371 143.287 81.485 142.041C80.3293 140.792 78.9169 139.955 77.2449 139.955Z" fill="#333333"/>
<path d="M125.728 123.848C126.071 123.814 126.609 123.941 127.269 124.3C127.916 124.652 128.629 125.199 129.308 125.922C130.666 127.367 131.854 129.481 132.112 132.058C132.229 133.228 132.016 134.165 131.537 134.827C131.065 135.479 130.286 135.933 129.122 136.049C127.241 136.238 126.168 135.092 125.179 133.714C125.059 133.546 124.938 133.372 124.816 133.196C124.46 132.683 124.096 132.16 123.719 131.756C123.197 131.198 122.542 130.744 121.675 130.83C121.058 130.892 120.598 131.16 120.282 131.553C119.977 131.93 119.833 132.39 119.764 132.81C119.645 133.54 119.741 134.294 119.776 134.571C119.781 134.608 119.785 134.637 119.787 134.656L121.324 150.019C121.479 151.567 121.883 152.587 122.465 153.273C123.052 153.963 123.769 154.253 124.405 154.441C124.562 154.487 124.719 154.529 124.865 154.567L124.887 154.573C125.028 154.61 125.158 154.644 125.284 154.681C125.551 154.758 125.767 154.838 125.945 154.944C126.115 155.045 126.251 155.17 126.355 155.345C126.461 155.523 126.551 155.78 126.589 156.164C126.623 156.5 126.605 156.842 126.457 157.187C126.309 157.53 126.013 157.921 125.411 158.321C124.184 159.135 121.766 159.935 117.104 160.401L116.919 160.42C115.553 160.558 112.767 160.839 110.233 160.66C108.902 160.567 107.688 160.348 106.798 159.944C105.916 159.544 105.437 159.006 105.365 158.288C105.31 157.734 105.437 157.422 105.614 157.207C105.812 156.967 106.12 156.787 106.548 156.592C106.643 156.548 106.746 156.504 106.854 156.457C107.193 156.309 107.579 156.141 107.918 155.932C108.387 155.643 108.829 155.241 109.084 154.612L109.088 154.602L109.091 154.593C109.211 154.258 109.284 153.812 109.33 153.345C109.377 152.868 109.399 152.332 109.407 151.799C109.422 150.733 109.378 149.65 109.339 149.014L108.633 137.913C108.47 135.278 108.126 133.879 107.66 133.147C107.411 132.756 107.111 132.53 106.773 132.433C106.483 132.349 106.206 132.378 106.043 132.395L106.012 132.398C105.219 132.477 104.652 133.059 104.209 133.682C103.89 134.132 103.578 134.689 103.267 135.247C103.144 135.467 103.021 135.687 102.897 135.901C101.978 137.49 100.949 138.869 99.1965 139.044C97.624 139.202 96.4451 137.844 96.2806 136.199C96.08 134.195 96.7005 131.751 97.7342 129.765C98.2489 128.776 98.8544 127.924 99.487 127.309C100.126 126.688 100.751 126.348 101.307 126.292C101.424 126.281 101.606 126.289 101.915 126.322C102.054 126.337 102.211 126.355 102.391 126.377L102.43 126.381C102.625 126.404 102.844 126.43 103.09 126.457L103.103 126.458L103.115 126.459C104.093 126.515 105.494 126.581 107.532 126.377L119.843 125.145C122.036 124.925 123.05 124.617 123.808 124.385L123.827 124.379L123.846 124.371C123.921 124.341 123.992 124.313 124.06 124.285C124.609 124.064 124.951 123.926 125.728 123.848Z" fill="#333333"/>
<path d="M264.32 132.155C264.538 132.139 264.936 132.247 265.467 132.569C265.978 132.879 266.547 133.348 267.086 133.939C268.17 135.127 269.081 136.748 269.212 138.468C269.315 139.815 268.551 141.054 267.284 141.15C266.691 141.196 266.109 140.988 265.462 140.59C264.953 140.276 264.447 139.873 263.89 139.429C263.729 139.3 263.564 139.169 263.393 139.034C261.904 137.867 260.088 136.611 257.576 136.803C256.824 136.86 256.021 137.091 255.41 137.565C254.777 138.055 254.369 138.796 254.444 139.776C254.525 140.836 255.059 141.543 255.865 142.024C256.631 142.481 257.654 142.742 258.755 142.975C259.078 143.043 259.411 143.11 259.753 143.178C261.796 143.585 264.142 144.053 266.387 145.308C267.785 146.086 268.828 146.97 269.553 148.035C270.275 149.097 270.703 150.37 270.825 151.963C271.013 154.423 270.205 157.127 268.11 159.315C266.016 161.502 262.603 163.208 257.526 163.596C256.096 163.705 254.127 163.67 252.188 163.46C250.242 163.25 248.378 162.868 247.133 162.31C246.685 162.101 246.244 161.691 245.827 161.115C245.412 160.541 245.043 159.833 244.731 159.072C244.104 157.547 243.73 155.875 243.647 154.8C243.606 154.264 243.689 153.762 243.892 153.402C244.08 153.066 244.379 152.835 244.868 152.797C245.428 152.754 245.88 153.018 246.413 153.597C246.68 153.888 246.947 154.236 247.246 154.632L247.307 154.711C247.586 155.08 247.891 155.482 248.231 155.883C248.965 156.746 249.883 157.623 251.168 158.238C252.456 158.855 254.077 159.192 256.194 159.03C256.741 158.989 257.657 158.785 258.438 158.356C259.209 157.932 259.994 157.194 259.907 156.057C259.83 155.054 259.279 154.402 258.491 153.955C257.74 153.527 256.731 153.26 255.648 152.998C255.486 152.959 255.321 152.919 255.154 152.879C253.04 152.374 250.536 151.776 248.196 150.177C245.686 148.465 243.824 146.015 243.595 143.017C243.266 138.714 247.017 132.853 255.394 132.213C256.751 132.109 258.235 132.295 259.486 132.51C259.92 132.584 260.316 132.66 260.671 132.728C260.829 132.758 260.978 132.787 261.119 132.813C261.343 132.855 261.547 132.89 261.719 132.914C261.88 132.936 262.051 132.954 262.192 132.943C262.429 132.925 262.642 132.849 262.824 132.767C262.966 132.702 263.114 132.622 263.247 132.549C263.278 132.532 263.309 132.515 263.338 132.5C263.668 132.322 263.965 132.182 264.32 132.155Z" fill="#333333"/>
<path d="M270.724 128.328C270.725 128.182 270.727 128.054 270.783 127.89C270.847 127.705 270.995 127.452 271.401 127.196C272.254 126.657 274.188 126.136 278.5 126.295C281.912 126.422 283.869 126.812 284.953 127.329C285.485 127.583 285.776 127.853 285.936 128.108C286.094 128.36 286.154 128.643 286.141 128.979C286.116 129.648 285.943 129.864 285.802 129.972C285.713 130.04 285.597 130.096 285.431 130.155C285.348 130.185 285.261 130.212 285.162 130.244L285.16 130.244C285.063 130.275 284.955 130.309 284.845 130.348C284.389 130.51 283.868 130.767 283.45 131.38C283.046 131.974 282.773 132.849 282.67 134.17L282.669 134.18L282.382 141.917C282.288 144.465 282.687 146.651 283.746 148.236C284.825 149.85 286.541 150.77 288.901 150.858C290.629 150.922 291.958 150.612 292.975 150.073C293.993 149.534 294.67 148.782 295.115 148.009C295.94 146.575 295.971 145.063 295.979 144.704C295.979 144.68 295.98 144.662 295.98 144.649L296.367 134.193C296.411 133.005 296.203 132.155 295.817 131.526C295.43 130.895 294.899 130.544 294.421 130.291C294.282 130.218 294.127 130.142 293.987 130.074C293.904 130.034 293.826 129.997 293.76 129.963C293.56 129.863 293.404 129.773 293.281 129.674C293.163 129.58 293.083 129.483 293.031 129.369C292.978 129.255 292.94 129.094 292.949 128.853C292.966 128.388 293.184 128.052 293.575 127.784C293.986 127.503 294.576 127.31 295.268 127.189C296.575 126.962 298.067 127.019 298.966 127.053L299.116 127.059C299.921 127.089 301.42 127.146 302.702 127.484C303.344 127.654 303.885 127.883 304.251 128.178C304.599 128.459 304.775 128.785 304.759 129.206C304.743 129.656 304.596 129.863 304.409 130.013C304.3 130.101 304.163 130.18 303.987 130.265C303.9 130.308 303.809 130.349 303.71 130.394L303.698 130.399C303.604 130.442 303.503 130.488 303.401 130.537C302.973 130.742 302.481 131.025 302.096 131.555C301.711 132.086 301.472 132.811 301.435 133.834L301.014 145.18C300.979 146.125 300.874 148.975 299.064 151.526C297.274 154.048 293.738 156.385 286.603 156.121C282.531 155.97 279.662 155.077 277.643 153.848C275.629 152.621 274.433 151.042 273.728 149.469C272.453 146.625 272.771 143.811 272.86 143.019C272.871 142.925 272.878 142.86 272.88 142.826L273.238 133.142C273.311 132.391 273.163 131.792 272.885 131.292C272.612 130.803 272.228 130.436 271.886 130.131C271.832 130.083 271.78 130.037 271.729 129.993C271.08 129.419 270.698 129.08 270.721 128.45C270.723 128.407 270.723 128.367 270.724 128.328Z" fill="#333333"/>
<path fill-rule="evenodd" clip-rule="evenodd" d="M304.302 137.416C304.35 137.009 304.525 136.726 304.78 136.514C305.047 136.291 305.422 136.131 305.877 136.03C306.791 135.825 307.886 135.886 308.653 135.977C309.433 136.07 310.206 136.229 311.002 136.394L311.013 136.396C311.799 136.558 312.61 136.726 313.434 136.824C314.665 136.971 315.903 137.042 317.159 137.115L317.272 137.122C317.694 137.158 318.114 137.191 318.534 137.224C319.384 137.29 320.229 137.355 321.06 137.454C323.209 137.71 325.441 138.46 327.046 139.743C328.63 141.01 329.605 142.791 329.319 145.197C329.057 147.395 327.752 149.341 325.651 150.062L325.637 150.067L325.624 150.072C325.605 150.08 325.584 150.088 325.562 150.097C325.412 150.157 325.195 150.243 325.024 150.378C324.782 150.568 324.639 150.833 324.597 151.184C324.541 151.66 324.725 152.012 324.991 152.262C325.185 152.443 325.44 152.583 325.626 152.685C325.658 152.703 325.688 152.719 325.715 152.735L325.723 152.739L325.732 152.744C326.969 153.379 327.783 154.131 328.308 155.203C328.842 156.295 329.1 157.767 329.123 159.885C329.132 160.867 329.326 161.553 329.667 162.043C330.01 162.539 330.46 162.77 330.824 162.926C330.908 162.963 330.978 162.991 331.042 163.017C331.131 163.053 331.207 163.085 331.293 163.125C331.422 163.185 331.503 163.237 331.557 163.29C331.63 163.36 331.743 163.51 331.683 164.015C331.621 164.534 331.238 165.117 330.282 165.525C329.319 165.936 327.814 166.146 325.652 165.889C322.63 165.529 321.144 164.48 320.298 162.977C319.421 161.419 319.184 159.312 318.884 156.653L318.876 156.58L318.876 156.578C318.767 155.647 318.592 154.635 318.128 153.817C317.644 152.962 316.856 152.339 315.614 152.191C315.372 152.162 315.055 152.128 314.759 152.228C314.415 152.343 314.187 152.6 314.029 152.945L314.012 152.983L314.001 153.022C313.395 155.258 313.292 157.205 313.396 158.988C313.456 160.103 314.124 160.617 314.608 160.989L314.678 161.043C314.932 161.239 315.102 161.385 315.212 161.562C315.309 161.719 315.379 161.935 315.335 162.306C315.3 162.602 315.222 162.821 315.077 162.997C314.932 163.173 314.679 163.355 314.2 163.494C313.217 163.78 311.445 163.84 308.278 163.463C307.333 163.351 305.526 163.134 304.004 162.604C303.24 162.338 302.594 162.009 302.165 161.61C301.752 161.226 301.558 160.799 301.62 160.277C301.643 160.084 301.692 159.964 301.745 159.881C301.798 159.797 301.872 159.726 301.982 159.653C302.098 159.576 302.238 159.508 302.425 159.421L302.48 159.395C302.647 159.318 302.843 159.227 303.041 159.115C303.498 158.857 303.98 158.48 304.382 157.808C304.777 157.147 305.079 156.229 305.236 154.912L306.563 143.758C306.748 142.209 306.685 141.13 306.458 140.35C306.224 139.548 305.823 139.085 305.4 138.765C305.222 138.629 305.04 138.52 304.891 138.432L304.842 138.402C304.674 138.301 304.562 138.229 304.477 138.151C304.401 138.081 304.354 138.013 304.325 137.922C304.293 137.825 304.272 137.671 304.302 137.416ZM317.339 140.37C316.93 140.321 316.568 140.342 316.254 140.458C315.928 140.58 315.694 140.791 315.529 141.05C315.372 141.297 315.282 141.581 315.217 141.851C315.167 142.058 315.126 142.286 315.086 142.511C315.073 142.578 315.061 142.646 315.049 142.712L314.449 146.414C314.435 146.485 314.42 146.56 314.404 146.637C314.368 146.805 314.332 146.981 314.306 147.139C314.268 147.377 314.241 147.647 314.287 147.908C314.336 148.188 314.468 148.458 314.734 148.662C314.983 148.855 315.306 148.954 315.676 148.998C317.039 149.161 318.097 148.9 318.843 148.164C319.567 147.45 319.906 146.376 320.054 145.126C320.171 144.145 320.182 143.058 319.819 142.161C319.634 141.704 319.348 141.288 318.928 140.969C318.508 140.65 317.979 140.446 317.339 140.37Z" fill="#333333"/>
<path d="M356.158 127.685C357.109 127.616 357.955 128.384 358.627 129.659C359.278 130.896 359.644 132.398 359.711 133.318C359.761 134.004 359.675 134.723 359.409 135.264C359.156 135.778 358.748 136.128 358.079 136.176C357.687 136.205 357.41 136.165 357.202 136.094C356.998 136.024 356.836 135.916 356.683 135.769C356.524 135.615 356.38 135.425 356.207 135.184L356.138 135.088C355.988 134.877 355.816 134.636 355.614 134.399C355.13 133.831 354.466 133.275 353.354 132.91C352.258 132.551 350.752 132.386 348.588 132.543C347.343 132.634 346.391 132.757 345.686 132.99C344.96 133.23 344.443 133.604 344.15 134.214C343.875 134.784 343.832 135.493 343.859 136.312C343.877 136.845 343.929 137.475 343.988 138.198C344.019 138.588 344.054 139.005 344.086 139.448C344.132 140.09 344.178 140.62 344.27 141.031C344.362 141.447 344.518 141.826 344.849 142.09C345.173 142.349 345.581 142.43 346.016 142.452C346.453 142.474 347.006 142.438 347.681 142.389C348.167 142.354 348.576 142.235 348.911 142.029C349.25 141.821 349.486 141.541 349.65 141.229C349.961 140.635 350.017 139.898 350.062 139.294L350.062 139.291C350.112 138.629 350.152 138.108 350.331 137.725C350.413 137.55 350.518 137.421 350.66 137.327C350.804 137.231 351.019 137.151 351.351 137.127C351.809 137.093 352.188 137.28 352.529 137.666C352.882 138.066 353.172 138.661 353.401 139.361C353.858 140.756 354.023 142.403 354.086 143.269C354.151 144.171 354.2 145.929 353.912 147.47C353.767 148.242 353.545 148.919 353.229 149.401C352.921 149.87 352.548 150.127 352.071 150.161C351.795 150.181 351.631 150.135 351.527 150.078C351.424 150.021 351.335 149.929 351.251 149.776C351.164 149.616 351.094 149.41 351.024 149.149C350.99 149.021 350.958 148.886 350.923 148.743L350.92 148.728C350.887 148.591 350.852 148.445 350.814 148.299C350.659 147.705 350.424 147.004 349.858 146.49C349.273 145.958 348.425 145.699 347.208 145.788C346.662 145.827 346.214 145.985 345.869 146.265C345.524 146.545 345.326 146.913 345.215 147.295C345.017 147.977 345.078 148.802 345.127 149.465L345.136 149.59C345.255 151.221 345.372 152.456 345.559 153.374C345.745 154.283 346.016 154.974 346.513 155.428C347.022 155.893 347.679 156.03 348.429 156.053C349.037 156.072 349.785 156.015 350.669 155.948C350.864 155.934 351.065 155.918 351.272 155.903C353.622 155.733 355.239 155.21 356.391 154.481C357.549 153.747 358.196 152.831 358.645 151.954C358.844 151.565 359.006 151.179 359.152 150.831L359.2 150.716C359.363 150.329 359.506 150.002 359.672 149.726C359.835 149.454 360.008 149.254 360.215 149.113C360.418 148.975 360.685 148.873 361.069 148.846C361.569 148.809 361.986 149.053 362.314 149.492C362.648 149.94 362.852 150.549 362.891 151.093C362.994 152.515 362.569 154.608 361.882 156.376C361.541 157.255 361.146 158.023 360.743 158.57C360.318 159.147 359.973 159.356 359.762 159.371C359.65 159.38 359.43 159.369 359.08 159.342C358.966 159.333 358.84 159.323 358.705 159.312L358.703 159.312C358.446 159.291 358.154 159.267 357.843 159.246L357.83 159.245L357.817 159.244C357.709 159.243 357.596 159.24 357.48 159.238C356.545 159.219 355.373 159.195 353.994 159.295L335.59 160.63C334.171 160.733 333.566 160.45 333.304 160.207C333.046 159.967 333.005 159.664 332.985 159.384C332.95 158.895 333.076 158.698 333.223 158.56C333.316 158.472 333.439 158.391 333.607 158.295C333.658 158.265 333.721 158.231 333.788 158.194C333.912 158.126 334.054 158.048 334.179 157.972C334.609 157.712 335.079 157.348 335.428 156.696C335.772 156.054 335.973 155.179 335.965 153.934C335.96 153.198 335.956 152.533 335.953 151.929C335.92 145.8 335.92 145.785 334.975 138.418C334.768 136.679 334.407 135.552 333.938 134.807C333.452 134.036 332.872 133.707 332.325 133.525C332.133 133.461 331.935 133.413 331.77 133.373C331.719 133.36 331.671 133.349 331.627 133.337C331.424 133.285 331.287 133.24 331.181 133.178C331.088 133.124 331.013 133.053 330.949 132.928C330.88 132.794 330.816 132.577 330.79 132.22C330.75 131.667 330.908 131.308 331.158 131.049C331.426 130.771 331.84 130.565 332.376 130.419C333.205 130.193 334.163 130.147 335.006 130.107C335.271 130.094 335.524 130.082 335.759 130.065L348.655 129.13C351.679 128.91 353.412 128.558 354.491 128.245C355.016 128.093 355.38 127.952 355.648 127.848L355.671 127.839C355.961 127.727 356.069 127.692 356.158 127.685Z" fill="#333333"/>
<path d="M120.507 123.588C120.505 123.768 120.471 123.924 120.407 124.056C120.339 124.188 120.244 124.296 120.121 124.383C119.998 124.466 119.848 124.528 119.67 124.569C119.492 124.607 119.289 124.624 119.061 124.622C118.836 124.62 118.635 124.598 118.458 124.556C118.278 124.512 118.128 124.447 118.007 124.36C117.886 124.272 117.794 124.161 117.732 124.028C117.667 123.895 117.636 123.738 117.638 123.558C117.642 123.198 117.77 122.934 118.024 122.767C118.277 122.6 118.63 122.519 119.083 122.524C119.536 122.529 119.888 122.617 120.138 122.789C120.388 122.961 120.511 123.228 120.507 123.588ZM120.082 123.583C120.083 123.491 120.066 123.412 120.032 123.348C119.996 123.284 119.945 123.234 119.879 123.196C119.813 123.155 119.733 123.127 119.638 123.11C119.54 123.09 119.431 123.08 119.312 123.079L118.839 123.074C118.601 123.071 118.412 123.106 118.274 123.179C118.135 123.249 118.065 123.377 118.063 123.562C118.061 123.748 118.129 123.878 118.266 123.954C118.403 124.027 118.59 124.065 118.829 124.067L119.306 124.072C119.544 124.075 119.732 124.041 119.871 123.971C120.009 123.898 120.08 123.769 120.082 123.583Z" fill="#333333"/>
<path d="M121.073 119.766L118.476 118.79L118.847 117.805C118.942 117.552 119.087 117.385 119.281 117.305C119.475 117.225 119.696 117.232 119.944 117.325C120.192 117.419 120.363 117.559 120.456 117.747C120.55 117.935 120.549 118.156 120.454 118.409L120.267 118.907L121.256 119.279L121.073 119.766ZM119.868 118.757L120.018 118.359C120.068 118.228 120.077 118.124 120.046 118.047C120.013 117.97 119.938 117.909 119.822 117.865L119.68 117.812C119.564 117.768 119.469 117.765 119.395 117.803C119.319 117.839 119.257 117.923 119.207 118.055L119.058 118.453L119.868 118.757Z" fill="#333333"/>
<path d="M123.357 115.39L121.251 113.585L121.936 112.786C122.112 112.581 122.305 112.474 122.514 112.465C122.724 112.457 122.93 112.538 123.131 112.711C123.332 112.883 123.444 113.074 123.468 113.282C123.491 113.491 123.415 113.698 123.239 113.903L122.893 114.307L123.695 114.995L123.357 115.39ZM122.57 114.031L122.847 113.708C122.938 113.601 122.982 113.507 122.98 113.424C122.975 113.34 122.926 113.257 122.831 113.176L122.717 113.078C122.622 112.997 122.534 112.962 122.452 112.972C122.368 112.98 122.28 113.037 122.189 113.144L121.912 113.467L122.57 114.031Z" fill="#333333"/>
<path d="M127.784 111.672C127.628 111.761 127.476 111.81 127.329 111.819C127.181 111.827 127.039 111.799 126.903 111.735C126.77 111.671 126.641 111.572 126.517 111.438C126.395 111.303 126.278 111.136 126.166 110.937C126.056 110.741 125.974 110.556 125.922 110.382C125.87 110.204 125.851 110.041 125.865 109.894C125.882 109.744 125.932 109.61 126.016 109.489C126.099 109.367 126.219 109.261 126.376 109.173C126.69 108.996 126.982 108.975 127.254 109.111C127.525 109.247 127.772 109.513 127.994 109.907C128.217 110.302 128.316 110.651 128.292 110.953C128.267 111.256 128.098 111.495 127.784 111.672ZM127.576 111.302C127.657 111.256 127.716 111.203 127.755 111.142C127.792 111.078 127.81 111.008 127.81 110.932C127.812 110.855 127.797 110.771 127.764 110.68C127.732 110.586 127.687 110.487 127.628 110.383L127.396 109.971C127.279 109.763 127.154 109.617 127.022 109.534C126.892 109.449 126.746 109.452 126.585 109.543C126.423 109.634 126.344 109.758 126.347 109.914C126.352 110.069 126.413 110.251 126.53 110.458L126.765 110.874C126.882 111.082 127.005 111.228 127.135 111.313C127.267 111.396 127.414 111.393 127.576 111.302Z" fill="#333333"/>
<path d="M132.281 110.106C132.046 110.145 131.838 110.138 131.657 110.084C131.479 110.031 131.327 109.946 131.2 109.83L131.457 109.457C131.578 109.558 131.703 109.627 131.83 109.665C131.959 109.7 132.092 109.706 132.227 109.684C132.384 109.658 132.499 109.603 132.571 109.518C132.643 109.434 132.668 109.325 132.645 109.192C132.627 109.082 132.582 109.005 132.511 108.96C132.438 108.913 132.326 108.89 132.173 108.891L131.875 108.892C131.614 108.89 131.419 108.828 131.288 108.707C131.158 108.584 131.077 108.427 131.045 108.236C131.002 107.975 131.054 107.761 131.201 107.594C131.347 107.425 131.571 107.315 131.871 107.266C132.086 107.23 132.276 107.234 132.441 107.276C132.609 107.318 132.75 107.39 132.864 107.492L132.615 107.863C132.527 107.789 132.429 107.736 132.318 107.703C132.208 107.668 132.083 107.661 131.945 107.684C131.647 107.734 131.518 107.881 131.559 108.127C131.576 108.231 131.621 108.306 131.693 108.35C131.764 108.395 131.878 108.418 132.034 108.419L132.329 108.422C132.574 108.427 132.765 108.486 132.902 108.597C133.038 108.709 133.123 108.867 133.157 109.071C133.178 109.199 133.176 109.32 133.149 109.435C133.122 109.546 133.072 109.649 132.998 109.741C132.925 109.832 132.827 109.908 132.706 109.971C132.588 110.034 132.446 110.079 132.281 110.106Z" fill="#333333"/>
<path d="M136.485 109.964L136.557 109.581L137.17 109.696L137.537 107.735L136.924 107.621L136.995 107.238L138.73 107.562L138.658 107.945L138.045 107.83L137.678 109.791L138.291 109.906L138.219 110.289L136.485 109.964Z" fill="#333333"/>
<path d="M142.481 109.901L142.446 109.881L141.433 111.595L141.05 111.368L142.462 108.98L143.012 109.306L142.625 111.39L142.659 111.41L143.673 109.697L144.056 109.923L142.644 112.311L142.093 111.985L142.481 109.901Z" fill="#333333"/>
<path d="M146.269 115.268L146.249 115.244C146.19 115.261 146.13 115.272 146.067 115.279C146.004 115.287 145.942 115.283 145.879 115.27C145.816 115.256 145.754 115.23 145.692 115.192C145.631 115.156 145.573 115.104 145.518 115.036C145.34 114.819 145.299 114.576 145.397 114.307C145.499 114.039 145.723 113.762 146.069 113.478C146.433 113.179 146.765 113.016 147.065 112.989C147.365 112.962 147.627 113.084 147.851 113.357C147.938 113.463 148.001 113.568 148.038 113.671C148.076 113.777 148.093 113.879 148.089 113.979C148.087 114.08 148.065 114.178 148.024 114.274C147.986 114.37 147.935 114.463 147.872 114.553L147.465 114.27C147.498 114.219 147.529 114.166 147.557 114.113C147.586 114.061 147.605 114.008 147.612 113.954C147.623 113.901 147.621 113.847 147.608 113.793C147.596 113.737 147.567 113.681 147.52 113.623C147.411 113.49 147.279 113.439 147.126 113.469C146.972 113.499 146.803 113.59 146.619 113.741L146.275 114.024C146.183 114.099 146.103 114.175 146.035 114.251C145.971 114.328 145.924 114.404 145.894 114.48C145.864 114.557 145.854 114.632 145.864 114.706C145.875 114.779 145.911 114.852 145.972 114.926C146.066 115.04 146.171 115.1 146.288 115.103C146.406 115.106 146.519 115.063 146.625 114.976L146.8 114.832L146.48 114.442L146.771 114.202L147.387 114.951L146.266 115.872L145.971 115.513L146.269 115.268Z" fill="#333333"/>
<path d="M151.144 124.556L148.799 124.531L148.805 124.015L151.149 124.039L151.158 123.205L151.587 123.209L151.564 125.395L151.135 125.39L151.144 124.556Z" fill="#333333"/>
<path d="M148.879 129.847L149.165 129.089L148.049 128.669L148.232 128.182L150.828 129.158L150.645 129.645L149.566 129.24L149.281 129.998L150.36 130.404L150.177 130.891L147.58 129.915L147.763 129.428L148.879 129.847Z" fill="#333333"/>
<path d="M145.282 133.353C145.399 133.216 145.525 133.118 145.659 133.059C145.796 133.001 145.939 132.979 146.088 132.992C146.236 133.007 146.391 133.056 146.553 133.139C146.714 133.224 146.881 133.341 147.054 133.49C147.225 133.636 147.365 133.782 147.474 133.928C147.583 134.077 147.656 134.224 147.693 134.368C147.729 134.513 147.728 134.657 147.69 134.799C147.654 134.943 147.577 135.083 147.46 135.22C147.226 135.493 146.958 135.612 146.656 135.577C146.355 135.542 146.032 135.377 145.688 135.083C145.344 134.788 145.132 134.494 145.051 134.202C144.97 133.909 145.047 133.626 145.282 133.353ZM145.605 133.629C145.544 133.7 145.507 133.77 145.491 133.841C145.478 133.913 145.485 133.985 145.511 134.056C145.535 134.13 145.578 134.203 145.64 134.277C145.703 134.355 145.779 134.433 145.87 134.511L146.229 134.818C146.41 134.974 146.577 135.068 146.73 135.101C146.881 135.136 147.017 135.084 147.137 134.943C147.258 134.802 147.29 134.659 147.234 134.513C147.176 134.369 147.056 134.219 146.875 134.064L146.513 133.754C146.332 133.599 146.166 133.503 146.015 133.468C145.862 133.435 145.725 133.488 145.605 133.629Z" fill="#333333"/>
<path d="M143.32 138.627L142.472 137.121C142.421 137.031 142.373 136.951 142.328 136.882C142.281 136.814 142.231 136.762 142.18 136.724C142.127 136.69 142.069 136.673 142.005 136.672C141.938 136.673 141.861 136.698 141.773 136.748C141.686 136.797 141.625 136.849 141.593 136.904C141.557 136.961 141.542 137.019 141.546 137.081C141.549 137.146 141.569 137.216 141.605 137.29C141.638 137.365 141.68 137.448 141.731 137.538L142.579 139.044L142.126 139.3L141.316 137.863C141.22 137.692 141.146 137.537 141.096 137.399C141.045 137.26 141.026 137.131 141.037 137.012C141.049 136.893 141.097 136.781 141.181 136.676C141.264 136.574 141.392 136.475 141.565 136.377C141.738 136.28 141.89 136.221 142.022 136.202C142.153 136.186 142.273 136.203 142.381 136.255C142.489 136.307 142.589 136.39 142.681 136.505C142.774 136.62 142.868 136.763 142.964 136.934L143.774 138.371L143.32 138.627Z" fill="#333333"/>
<path d="M136.408 138.535L136.44 138.53C136.454 138.471 136.474 138.413 136.499 138.355C136.525 138.297 136.559 138.245 136.602 138.197C136.645 138.15 136.699 138.109 136.763 138.074C136.824 138.04 136.898 138.015 136.984 138.001C137.262 137.955 137.492 138.042 137.676 138.261C137.858 138.483 137.985 138.815 138.058 139.257C138.135 139.722 138.111 140.092 137.984 140.365C137.857 140.638 137.62 140.804 137.273 140.861C137.137 140.884 137.015 140.885 136.907 140.866C136.796 140.846 136.699 140.81 136.615 140.757C136.528 140.704 136.454 140.636 136.392 140.552C136.327 140.471 136.272 140.381 136.226 140.281L136.675 140.07C136.702 140.125 136.733 140.177 136.765 140.228C136.795 140.28 136.832 140.322 136.875 140.355C136.916 140.392 136.963 140.417 137.016 140.433C137.07 140.451 137.134 140.453 137.207 140.441C137.377 140.413 137.487 140.325 137.538 140.177C137.589 140.029 137.595 139.837 137.556 139.602L137.483 139.163C137.464 139.045 137.438 138.938 137.406 138.842C137.371 138.748 137.329 138.669 137.278 138.605C137.227 138.541 137.167 138.494 137.098 138.466C137.029 138.439 136.947 138.434 136.853 138.45C136.707 138.474 136.603 138.535 136.542 138.634C136.48 138.736 136.461 138.854 136.484 138.99L136.521 139.214L137.019 139.131L137.08 139.504L136.124 139.662L135.887 138.231L136.345 138.155L136.408 138.535Z" fill="#333333"/>
<path d="M131.393 139.102L132.19 139.251L132.409 138.079L132.921 138.175L132.41 140.901L131.899 140.805L132.111 139.673L131.314 139.524L131.102 140.656L130.59 140.561L131.1 137.834L131.612 137.93L131.393 139.102Z" fill="#333333"/>
<path d="M125.981 138.157L127.175 136.139L127.619 136.402L126.426 138.42L127.144 138.845L126.926 139.214L125.044 138.102L125.263 137.732L125.981 138.157Z" fill="#333333"/>
<path d="M123.712 133.057C123.863 133.241 123.961 133.425 124.005 133.608C124.048 133.789 124.05 133.963 124.013 134.131L123.562 134.095C123.589 133.94 123.587 133.797 123.556 133.668C123.522 133.539 123.461 133.421 123.373 133.314C123.272 133.192 123.167 133.12 123.058 133.1C122.949 133.08 122.843 133.113 122.738 133.198C122.652 133.269 122.608 133.347 122.605 133.431C122.601 133.517 122.637 133.626 122.714 133.758L122.864 134.016C122.992 134.243 123.037 134.443 122.997 134.616C122.956 134.791 122.86 134.939 122.711 135.062C122.506 135.23 122.295 135.292 122.077 135.248C121.857 135.206 121.65 135.067 121.457 134.832C121.319 134.664 121.227 134.498 121.181 134.333C121.134 134.167 121.126 134.009 121.157 133.859L121.603 133.889C121.583 134.002 121.586 134.114 121.612 134.226C121.637 134.339 121.694 134.45 121.783 134.559C121.975 134.792 122.167 134.83 122.359 134.672C122.441 134.605 122.483 134.529 122.486 134.444C122.489 134.36 122.452 134.25 122.374 134.114L122.23 133.857C122.112 133.642 122.067 133.448 122.095 133.274C122.124 133.1 122.218 132.947 122.378 132.816C122.478 132.733 122.584 132.675 122.697 132.641C122.807 132.609 122.921 132.601 123.038 132.618C123.153 132.637 123.268 132.683 123.383 132.756C123.496 132.828 123.606 132.928 123.712 133.057Z" fill="#333333"/>
<path d="M148.991 118.741C149.261 118.744 149.477 118.965 149.474 119.235C149.472 119.504 149.251 119.721 148.981 119.718C148.711 119.715 148.495 119.494 148.498 119.225C148.501 118.955 148.722 118.739 148.991 118.741Z" fill="#333333"/>
<path d="M120.189 128.73C120.459 128.733 120.675 128.953 120.672 129.223C120.67 129.493 120.449 129.709 120.179 129.706C119.909 129.703 119.693 129.482 119.696 129.213C119.699 128.943 119.92 128.727 120.189 128.73Z" fill="#333333"/>
</svg>
