<svg width="243" height="286" viewBox="0 0 243 286" fill="none" xmlns="http://www.w3.org/2000/svg">
<path d="M8.09819 182.285C0.321825 191.257 -0.545065 202.862 0.494781 211.514C5.47386 252.94 40.7124 285.038 83.4744 285.038C100.692 285.038 116.736 279.813 130.05 270.866H216.894C231.254 270.866 242.894 259.225 242.894 244.866V169.866C242.894 155.506 231.254 143.866 216.894 143.866H176.894C169.162 143.866 162.894 137.598 162.894 129.866V53.3658C162.894 35.0135 148.968 19.9139 131.107 18.0577C123.916 5.77796 109.747 -1.52356 94.8187 0.737138C87.3923 1.86181 80.8459 5.19137 75.7439 9.95996C65.1717 0.363364 49.388 -2.33122 35.8098 4.40623C18.1229 13.1824 10.8994 34.6349 19.6755 52.3218L54.7242 122.956C36.8063 129.521 21.7763 142.039 12.0229 158.077C7.21182 165.987 6.29277 174.561 8.09819 182.285Z" fill="#FFD600"/>
<path d="M97.5139 18.5342C87.7828 20.0079 81.0888 29.0912 82.5625 38.8223L87.0649 68.5528L67.6627 28.6664C63.3506 19.8017 52.6411 16.1486 43.8105 20.5303C35.0288 24.8878 31.4422 35.5393 35.7997 44.321L81.2481 135.915C58.4192 136.676 38.5461 149.106 27.4021 167.43C21.4749 177.176 28.46 188.632 39.4975 191.512L39.9145 191.62C47.6639 193.642 55.3803 188.361 60.5281 182.226C66.02 175.68 74.2609 171.519 83.4736 171.519C100.008 171.519 113.412 184.923 113.412 201.458C113.412 217.992 100.008 231.396 83.4736 231.396C69.6763 231.396 58.0588 222.063 54.5904 209.366C52.8942 203.157 48.5219 193.866 38.1922 191.171L37.3942 190.963C22.5397 187.088 16.8632 196.861 18.3662 209.366C22.2712 241.856 49.932 267.038 83.4744 267.038C97.8604 267.038 111.165 262.406 121.977 254.551C123.437 253.49 125.179 252.866 126.984 252.866H216.894C221.312 252.866 224.894 249.284 224.894 244.866V169.866C224.894 165.448 221.312 161.866 216.894 161.866H176.894C159.221 161.866 144.894 147.539 144.894 129.866V53.3658C144.894 43.7008 137.059 35.8658 127.394 35.8658C124.158 35.8658 121.128 36.744 118.527 38.2751L117.802 33.4856C116.328 23.7545 107.245 17.0605 97.5139 18.5342Z" fill="#FF5E71"/>
<path fill-rule="evenodd" clip-rule="evenodd" d="M116.813 33.6353C115.422 24.4503 106.849 18.1319 97.6637 19.5229C88.4786 20.9139 82.1602 29.4875 83.5512 38.6726L88.0536 68.403L86.1657 68.9902L66.7635 29.1039C62.6943 20.7385 52.5881 17.2913 44.255 21.4261C35.968 25.5381 32.5835 35.5895 36.6955 43.8765L82.8347 136.862L81.2815 136.914C58.8027 137.664 39.2321 149.902 28.2565 167.949C25.4961 172.488 25.7336 177.409 27.9691 181.573C30.2161 185.758 34.4869 189.171 39.7499 190.544L40.1669 190.653C43.7389 191.585 47.3488 190.849 50.7369 189.094C54.131 187.336 57.2482 184.579 59.762 181.583C65.4358 174.821 73.9528 170.519 83.4736 170.519C100.561 170.519 114.412 184.371 114.412 201.458C114.412 218.545 100.561 232.396 83.4736 232.396C69.214 232.396 57.2099 222.75 53.6257 209.629C51.9584 203.525 47.736 194.694 37.9398 192.139L37.1418 191.931C29.9464 190.053 25.2566 191.535 22.498 194.681C19.6762 197.899 18.6238 203.13 19.359 209.246C23.2043 241.24 50.4442 266.038 83.4744 266.038C97.6423 266.038 110.742 261.477 121.389 253.742C123.002 252.571 124.946 251.866 126.984 251.866H216.894C220.76 251.866 223.894 248.732 223.894 244.866V169.866C223.894 166 220.76 162.866 216.894 162.866H176.894C158.669 162.866 143.894 148.091 143.894 129.866V53.3658C143.894 44.2531 136.507 36.8658 127.394 36.8658C124.342 36.8658 121.485 37.6938 119.035 39.1368L117.76 39.8874L116.813 33.6353ZM97.3642 17.5455C107.641 15.9891 117.234 23.0587 118.791 33.3359L119.304 36.7241C121.749 35.5336 124.494 34.8658 127.394 34.8658C137.611 34.8658 145.894 43.1486 145.894 53.3658V129.866C145.894 146.987 159.773 160.866 176.894 160.866H216.894C221.865 160.866 225.894 164.895 225.894 169.866V244.866C225.894 249.836 221.865 253.866 216.894 253.866H126.984C125.412 253.866 123.872 254.41 122.564 255.36C111.587 263.335 98.0785 268.038 83.4744 268.038C49.4198 268.038 21.338 242.472 17.3733 209.485C16.6055 203.097 17.6398 197.188 20.9942 193.363C23.5197 190.482 27.2239 188.929 32.0765 189.121C29.5941 187.336 27.5748 185.066 26.207 182.519C23.6724 177.798 23.381 172.117 26.5477 166.91C37.608 148.724 57.1412 136.254 79.6702 134.984L34.9039 44.7655C30.3009 35.489 34.0896 24.2375 43.366 19.6346C52.6941 15.006 64.0069 18.8648 68.562 28.229L85.0936 62.2141L81.5738 38.9721C80.0174 28.6949 87.087 19.1019 97.3642 17.5455ZM44.7688 192.992C51.1741 197.188 54.2122 204.186 55.555 209.102C58.9078 221.376 70.1385 230.396 83.4736 230.396C99.456 230.396 112.412 217.44 112.412 201.458C112.412 185.475 99.456 172.519 83.4736 172.519C74.5689 172.519 66.6042 176.54 61.2941 182.868C58.6602 186.007 55.3454 188.959 51.6569 190.87C49.4838 191.995 47.1624 192.768 44.7688 192.992Z" fill="#333333"/>
<path fill-rule="evenodd" clip-rule="evenodd" d="M117.635 32.3771C118.181 32.2944 118.691 32.67 118.773 33.2161L134.675 138.216C134.758 138.762 134.382 139.272 133.836 139.355C133.29 139.437 132.78 139.062 132.697 138.516L116.796 33.5155C116.713 32.9695 117.089 32.4598 117.635 32.3771Z" fill="#333333"/>
<path fill-rule="evenodd" clip-rule="evenodd" d="M78.023 49.9665C78.5196 49.7249 79.1181 49.9317 79.3597 50.4284L125.085 144.428C125.326 144.925 125.12 145.523 124.623 145.765C124.126 146.007 123.528 145.8 123.286 145.303L77.5612 51.3032C77.3196 50.8066 77.5263 50.2081 78.023 49.9665Z" fill="#333333"/>
<path fill-rule="evenodd" clip-rule="evenodd" d="M83.4743 136.83C78.4462 136.83 73.5535 137.405 68.8578 138.491C68.3197 138.616 67.7826 138.28 67.6581 137.742C67.5336 137.204 67.8689 136.667 68.407 136.543C73.2495 135.422 78.2934 134.83 83.4743 134.83C95.3358 134.83 106.476 137.933 116.123 143.372C116.605 143.643 116.775 144.253 116.503 144.734C116.232 145.215 115.622 145.385 115.141 145.114C105.785 139.84 94.9828 136.83 83.4743 136.83Z" fill="#333333"/>
<path fill-rule="evenodd" clip-rule="evenodd" d="M129.784 205.387C129.784 195.525 137.633 188.511 147.86 188.511C154.317 188.511 158.762 191.345 161.605 194.928C164.462 198.529 165.696 202.884 165.696 205.867C165.696 215.84 156.877 222.503 147.284 222.503C137.416 222.503 129.784 215.319 129.784 205.387ZM145.652 194.663C144.109 194.663 142.959 195.471 142.215 196.568C141.478 197.653 141.12 199.038 141.12 200.299C141.12 202.414 141.857 206.366 143.245 209.793C143.94 211.508 144.811 213.126 145.861 214.324C146.911 215.521 148.188 216.351 149.684 216.351C151.316 216.351 152.51 215.631 153.279 214.543C154.033 213.476 154.36 212.081 154.36 210.715C154.36 208.464 153.699 204.512 152.326 201.114C151.639 199.413 150.761 197.817 149.671 196.639C148.578 195.457 147.239 194.663 145.652 194.663Z" fill="white"/>
<path d="M197.606 188.655C197.742 188.655 197.888 188.654 198.043 188.653C199.221 188.647 200.872 188.638 202.299 188.949C203.104 189.125 203.785 189.392 204.255 189.777C204.705 190.145 204.978 190.631 204.978 191.323C204.978 192.19 204.711 192.61 204.377 192.853C204.003 193.125 203.449 193.246 202.733 193.302C202.426 193.326 202.11 193.337 201.782 193.349L201.637 193.354C201.263 193.367 200.875 193.384 200.502 193.425C199.775 193.504 198.999 193.686 198.452 194.233C198.265 194.42 197.944 194.693 197.529 195.046L197.289 195.25C196.77 195.692 196.16 196.22 195.578 196.784C194.998 197.345 194.432 197.956 194.007 198.568C193.592 199.167 193.266 199.832 193.266 200.491C193.266 201.286 193.618 201.999 194.024 202.596C194.333 203.05 194.707 203.482 195.028 203.852C195.126 203.965 195.218 204.072 195.303 204.173L205.341 215.652L205.343 215.654C205.76 216.127 206.274 216.454 206.77 216.722C206.987 216.839 207.208 216.948 207.419 217.053L207.51 217.098C207.752 217.218 207.98 217.332 208.193 217.455C208.622 217.7 208.961 217.958 209.198 218.292C209.428 218.616 209.586 219.049 209.586 219.691C209.586 220.202 209.457 220.561 209.268 220.824C209.076 221.091 208.795 221.296 208.432 221.451C207.688 221.767 206.699 221.831 205.766 221.831H197.606C196.659 221.831 196.328 221.785 195.985 221.551C195.794 221.422 195.583 221.222 195.287 220.886C195.034 220.599 194.737 220.235 194.353 219.764L194.152 219.518L190.889 215.534L190.883 215.527C190.812 215.444 190.726 215.341 190.625 215.222C190.156 214.662 189.387 213.746 188.596 212.914C188.116 212.41 187.614 211.922 187.154 211.557C186.924 211.375 186.693 211.215 186.471 211.097C186.258 210.985 186.007 210.887 185.75 210.887C185.35 210.887 184.998 210.988 184.707 211.197C184.419 211.404 184.228 211.688 184.101 211.991C183.854 212.579 183.81 213.329 183.81 214.027V215.035C183.81 216.417 184.725 217.179 185.447 217.78L185.502 217.825C186.278 218.472 186.834 218.969 186.834 219.883C186.834 220.205 186.776 220.475 186.614 220.717C186.449 220.963 186.14 221.234 185.534 221.485C184.301 221.996 182 222.359 177.782 222.359C173.992 222.359 171.951 222.031 170.869 221.55C170.343 221.316 170.079 221.061 169.936 220.822C169.791 220.578 169.738 220.292 169.738 219.931C169.738 219.397 169.862 219.127 170.012 218.941C170.156 218.761 170.335 218.634 170.597 218.449C170.66 218.404 170.729 218.355 170.803 218.302C171.16 218.043 171.572 217.71 171.927 217.156C172.279 216.606 172.556 215.869 172.708 214.822C173.146 212.091 173.194 208.984 173.194 206.251C173.194 206.022 173.194 205.79 173.194 205.556C173.198 202.757 173.202 199.559 172.707 196.809C172.543 195.727 172.246 194.986 171.863 194.447C171.478 193.904 171.032 193.605 170.657 193.375C170.61 193.346 170.566 193.319 170.523 193.293C170.206 193.1 170.002 192.976 169.843 192.778C169.687 192.583 169.546 192.268 169.546 191.611C169.546 191.575 169.545 191.539 169.545 191.504C169.542 191.313 169.539 191.13 169.615 190.909C169.698 190.668 169.894 190.347 170.412 190.017C171.489 189.331 173.882 188.655 179.126 188.655L179.202 188.655C180.346 188.655 182.045 188.654 183.469 189.028C184.194 189.219 184.801 189.496 185.221 189.88C185.623 190.249 185.874 190.735 185.874 191.419C185.874 191.951 185.742 192.217 185.574 192.421C185.479 192.537 185.363 192.645 185.211 192.776C185.183 192.801 185.152 192.827 185.121 192.854C184.994 192.962 184.848 193.087 184.705 193.226C184.33 193.592 183.953 194.073 183.675 194.848C183.402 195.612 183.234 196.639 183.234 198.091C183.234 198.404 183.244 198.97 183.384 199.468C183.455 199.718 183.569 199.994 183.767 200.214C183.979 200.45 184.275 200.607 184.646 200.607C184.947 200.607 185.245 200.471 185.495 200.32C185.759 200.161 186.039 199.942 186.321 199.69C186.885 199.185 187.499 198.511 188.065 197.811C188.631 197.11 189.159 196.371 189.548 195.729C189.743 195.409 189.908 195.105 190.026 194.837C190.136 194.588 190.234 194.308 190.234 194.059C190.234 193.44 189.998 192.977 189.813 192.613L189.795 192.578C189.603 192.2 189.466 191.911 189.466 191.515C189.466 190.804 189.771 190.289 190.295 189.889C190.84 189.472 191.62 189.183 192.525 188.992C194.171 188.644 196.056 188.65 197.266 188.654C197.386 188.654 197.5 188.655 197.606 188.655Z" fill="white"/>
<path d="M83.5784 184.388C83.1346 184.388 82.8064 184.237 82.594 183.936C82.3847 183.635 82.2801 183.213 82.2801 182.671C82.2801 182.129 82.3847 181.707 82.594 181.406C82.8064 181.105 83.1346 180.954 83.5784 180.954C84.0223 180.954 84.3488 181.105 84.5581 181.406C84.7705 181.707 84.8767 182.129 84.8767 182.671C84.8767 183.213 84.7705 183.635 84.5581 183.936C84.3488 184.237 84.0223 184.388 83.5784 184.388ZM83.5784 183.813C83.7813 183.813 83.9208 183.738 83.9969 183.589C84.0762 183.437 84.1158 183.226 84.1158 182.956V182.381C84.1158 182.115 84.0762 181.907 83.9969 181.758C83.9208 181.606 83.7813 181.53 83.5784 181.53C83.3755 181.53 83.2344 181.606 83.1552 181.758C83.0791 181.907 83.041 182.115 83.041 182.381V182.961C83.041 183.228 83.0791 183.437 83.1552 183.589C83.2344 183.738 83.3755 183.813 83.5784 183.813Z" fill="#333333"/>
<path d="M88.1312 185.009L89.2665 181.89L90.4731 182.329C90.625 182.384 90.7519 182.457 90.8538 182.548C90.9567 182.636 91.0326 182.738 91.0816 182.854C91.1336 182.971 91.1582 183.098 91.1554 183.235C91.1527 183.372 91.1237 183.517 91.0684 183.669C91.0131 183.821 90.9423 183.95 90.8562 184.057C90.77 184.164 90.6695 184.246 90.5546 184.302C90.4427 184.359 90.3185 184.39 90.182 184.394C90.0466 184.395 89.9029 184.368 89.7509 184.313L89.2191 184.119L88.806 185.254L88.1312 185.009ZM89.4159 183.579L89.7779 183.71C89.9358 183.768 90.0554 183.778 90.1367 183.74C90.2209 183.703 90.288 183.616 90.3379 183.479L90.3867 183.345C90.4366 183.208 90.4411 183.098 90.4002 183.016C90.3623 182.934 90.2644 182.865 90.1065 182.808L89.7445 182.676L89.4159 183.579Z" fill="#333333"/>
<path d="M93.3895 187.676L95.5232 185.133L96.5068 185.958C96.6307 186.062 96.7249 186.174 96.7894 186.295C96.856 186.413 96.8926 186.534 96.899 186.66C96.9079 186.787 96.8876 186.915 96.8381 187.043C96.7885 187.171 96.7118 187.297 96.6078 187.421C96.5039 187.545 96.3931 187.643 96.2756 187.714C96.158 187.785 96.0357 187.827 95.9086 187.84C95.7839 187.856 95.6567 187.842 95.5269 187.799C95.3992 187.754 95.2734 187.68 95.1496 187.576L94.716 187.212L93.9396 188.137L93.3895 187.676ZM95.0859 186.771L95.381 187.019C95.5097 187.127 95.6188 187.177 95.7081 187.169C95.7999 187.163 95.8926 187.105 95.9864 186.993L96.0781 186.884C96.1718 186.772 96.2136 186.67 96.2033 186.579C96.1955 186.49 96.1272 186.391 95.9985 186.283L95.7034 186.035L95.0859 186.771Z" fill="#333333"/>
<path d="M97.9011 192.932C97.6791 192.547 97.6455 192.188 97.8001 191.853C97.9563 191.521 98.2692 191.22 98.7387 190.949C99.2082 190.678 99.6257 190.557 99.9912 190.588C100.358 190.621 100.653 190.83 100.875 191.215C101.097 191.599 101.129 191.957 100.973 192.289C100.819 192.624 100.507 192.926 100.037 193.197C99.5675 193.469 99.1492 193.587 98.7822 193.554C98.4167 193.523 98.123 193.316 97.9011 192.932ZM98.3994 192.644C98.5009 192.82 98.6351 192.903 98.8022 192.894C98.9737 192.887 99.1761 192.816 99.4095 192.681L99.9078 192.393C100.138 192.26 100.298 192.122 100.388 191.979C100.482 191.837 100.478 191.678 100.376 191.502C100.275 191.327 100.138 191.243 99.967 191.25C99.7999 191.259 99.601 191.33 99.3704 191.463L98.8679 191.753C98.6373 191.886 98.4751 192.024 98.3814 192.166C98.2919 192.309 98.298 192.468 98.3994 192.644Z" fill="#333333"/>
<path d="M99.8264 198.268C99.7779 197.994 99.7811 197.747 99.8358 197.528C99.8906 197.309 99.985 197.123 100.119 196.971L100.641 197.299C100.53 197.441 100.456 197.587 100.419 197.739C100.382 197.894 100.376 198.044 100.402 198.191C100.432 198.36 100.492 198.481 100.582 198.555C100.672 198.629 100.788 198.654 100.928 198.629C101.044 198.609 101.125 198.559 101.172 198.48C101.22 198.404 101.242 198.284 101.239 198.121L101.235 197.769C101.233 197.467 101.304 197.235 101.446 197.075C101.592 196.914 101.785 196.812 102.025 196.77C102.34 196.714 102.602 196.774 102.81 196.95C103.021 197.126 103.16 197.399 103.225 197.77C103.27 198.023 103.27 198.25 103.225 198.451C103.179 198.653 103.1 198.823 102.986 198.962L102.471 198.642C102.552 198.538 102.609 198.422 102.641 198.294C102.677 198.165 102.681 198.026 102.655 197.876C102.599 197.561 102.442 197.426 102.182 197.471C102.07 197.491 101.992 197.54 101.948 197.619C101.904 197.701 101.882 197.824 101.882 197.988L101.882 198.341C101.882 198.614 101.818 198.836 101.69 199.007C101.563 199.178 101.369 199.286 101.11 199.331C100.957 199.358 100.81 199.357 100.67 199.327C100.532 199.296 100.406 199.237 100.29 199.148C100.178 199.058 100.082 198.94 100.001 198.793C99.9209 198.649 99.8627 198.474 99.8264 198.268Z" fill="#333333"/>
<path d="M100.052 203.286L100.572 203.378L100.448 204.08L102.677 204.473L102.801 203.771L103.321 203.862L102.949 205.97L102.429 205.878L102.553 205.176L100.324 204.783L100.2 205.485L99.6803 205.394L100.052 203.286Z" fill="#333333"/>
<path d="M100.026 210.421L100.052 210.375L98.1413 209.272L98.4456 208.745L101.32 210.405L100.892 211.146L98.6033 210.698L98.5771 210.743L100.488 211.846L100.184 212.373L97.309 210.714L97.737 209.972L100.026 210.421Z" fill="#333333"/>
<path d="M93.8803 215.032L93.9131 215.004C93.8901 214.933 93.874 214.859 93.8648 214.784C93.8557 214.709 93.8578 214.633 93.8714 214.555C93.887 214.48 93.9171 214.405 93.9619 214.33C94.0043 214.257 94.0644 214.188 94.1421 214.123C94.266 214.019 94.4009 213.956 94.547 213.932C94.6906 213.911 94.8421 213.929 95.0014 213.986C95.1607 214.042 95.3246 214.137 95.4931 214.268C95.6592 214.402 95.8268 214.57 95.996 214.772C96.3587 215.204 96.557 215.6 96.5907 215.961C96.6264 216.324 96.4791 216.644 96.1488 216.922C96.0177 217.032 95.887 217.11 95.7569 217.157C95.6287 217.207 95.502 217.229 95.3765 217.222C95.2507 217.22 95.127 217.193 95.0054 217.142C94.8839 217.091 94.7639 217.022 94.6455 216.935L95.0516 216.383C95.111 216.425 95.1708 216.461 95.2309 216.494C95.2907 216.53 95.3515 216.556 95.4133 216.57C95.475 216.585 95.5369 216.585 95.599 216.57C95.6631 216.557 95.7267 216.525 95.7898 216.472C95.9283 216.356 95.9788 216.216 95.9413 216.053C95.9013 215.892 95.7948 215.708 95.6215 215.502L95.2731 215.086C95.0998 214.88 94.9309 214.74 94.7662 214.667C94.5992 214.596 94.4367 214.627 94.2788 214.76C94.155 214.864 94.0932 214.977 94.0937 215.101C94.0941 215.225 94.1422 215.344 94.238 215.458L94.3939 215.644L94.8274 215.28L95.1514 215.666L94.2297 216.44L93.0895 215.081L93.5777 214.671L93.8803 215.032Z" fill="#333333"/>
<path d="M82.7572 220.926V218.192H83.4705V220.926H84.4264V221.511H81.8013V220.926H82.7572Z" fill="#333333"/>
<path d="M76.5303 218.343L77.3169 218.63L77.7918 217.325L78.4666 217.57L77.3313 220.69L76.6565 220.444L77.1168 219.179L76.3303 218.893L75.87 220.158L75.1952 219.912L76.3305 216.793L77.0053 217.039L76.5303 218.343Z" fill="#333333"/>
<path d="M72.2259 214.101C72.5659 214.386 72.7205 214.713 72.6896 215.08C72.6563 215.445 72.4654 215.835 72.1169 216.251C71.7684 216.666 71.4172 216.922 71.0633 217.018C70.707 217.112 70.3588 217.017 70.0188 216.731C69.6788 216.446 69.5254 216.121 69.5588 215.756C69.5896 215.388 69.7793 214.997 70.1278 214.582C70.4763 214.166 70.8287 213.912 71.185 213.817C71.5389 213.721 71.8859 213.816 72.2259 214.101ZM71.856 214.542C71.7006 214.411 71.5458 214.379 71.3918 214.444C71.2332 214.51 71.0673 214.646 70.8941 214.852L70.5242 215.293C70.353 215.497 70.2499 215.682 70.2149 215.847C70.1753 216.012 70.2333 216.16 70.3887 216.291C70.5441 216.421 70.7011 216.453 70.8597 216.388C71.0137 216.322 71.1764 216.188 71.3476 215.984L71.7205 215.539C71.8917 215.335 71.997 215.151 72.0366 214.985C72.0716 214.82 72.0115 214.672 71.856 214.542Z" fill="#333333"/>
<path d="M65.8676 211.779L67.688 210.728C67.7786 210.675 67.8608 210.624 67.9345 210.574C68.0039 210.523 68.0575 210.47 68.0954 210.416C68.1317 210.358 68.1499 210.294 68.15 210.225C68.1474 210.157 68.1199 210.077 68.0676 209.987C68.0153 209.896 67.9603 209.833 67.9027 209.796C67.8424 209.762 67.779 209.747 67.7126 209.752C67.6446 209.755 67.5719 209.775 67.4946 209.812C67.413 209.849 67.3268 209.893 67.2362 209.945L65.4158 210.996L65.0592 210.378L66.7972 209.375C66.9949 209.261 67.1758 209.175 67.3399 209.116C67.5024 209.056 67.6545 209.034 67.7962 209.051C67.9378 209.068 68.0714 209.128 68.1969 209.231C68.3224 209.334 68.4454 209.49 68.5659 209.699C68.6864 209.908 68.76 210.092 68.7866 210.253C68.8133 210.413 68.7986 210.559 68.7426 210.69C68.6865 210.821 68.5923 210.943 68.4599 211.056C68.3259 211.167 68.16 211.279 67.9623 211.393L66.2243 212.396L65.8676 211.779Z" fill="#333333"/>
<path d="M65.9224 203.615L65.9298 203.657C66.0035 203.673 66.0751 203.696 66.1447 203.725C66.2143 203.755 66.2793 203.795 66.3397 203.845C66.397 203.896 66.4469 203.96 66.4893 204.036C66.5311 204.109 66.5609 204.196 66.5785 204.296C66.6066 204.455 66.5942 204.604 66.5413 204.742C66.4878 204.877 66.3967 204.999 66.2679 205.109C66.1392 205.218 65.9756 205.313 65.7772 205.393C65.5783 205.47 65.3493 205.531 65.0901 205.577C64.5344 205.675 64.0918 205.649 63.7626 205.497C63.4302 205.347 63.2265 205.059 63.1516 204.634C63.1219 204.466 63.1192 204.313 63.1434 204.177C63.1646 204.041 63.2093 203.921 63.2777 203.815C63.3423 203.707 63.4272 203.614 63.5322 203.534C63.6373 203.454 63.7571 203.385 63.8915 203.326L64.1664 203.953C64.101 203.984 64.0393 204.018 63.9812 204.054C63.9195 204.087 63.867 204.127 63.8236 204.173C63.7803 204.219 63.7495 204.273 63.7313 204.334C63.71 204.396 63.7065 204.467 63.7208 204.549C63.7522 204.727 63.8479 204.84 64.0078 204.889C64.1672 204.935 64.3796 204.935 64.645 204.888L65.1789 204.794C65.4443 204.747 65.6498 204.67 65.7952 204.564C65.9402 204.455 65.9947 204.299 65.959 204.096C65.9309 203.937 65.8631 203.826 65.7557 203.765C65.6483 203.703 65.5212 203.685 65.3744 203.711L65.1356 203.753L65.2338 204.311L64.7374 204.398L64.5285 203.213L66.2754 202.905L66.386 203.533L65.9224 203.615Z" fill="#333333"/>
<path d="M65.2086 197.655L65.0632 198.479L66.4308 198.72L66.3061 199.427L63.037 198.851L63.1617 198.144L64.4872 198.378L64.6325 197.553L63.3071 197.32L63.4318 196.612L66.7008 197.189L66.5761 197.896L65.2086 197.655Z" fill="#333333"/>
<path d="M66.3278 191.1L68.6959 192.467L68.3393 193.085L65.9711 191.718L65.4932 192.545L64.9866 192.253L66.2991 189.98L66.8057 190.272L66.3278 191.1Z" fill="#333333"/>
<path d="M72.2984 188.344C72.0847 188.523 71.8694 188.644 71.6524 188.706C71.4354 188.768 71.2274 188.779 71.0284 188.739L71.0519 188.123C71.2297 188.148 71.3937 188.138 71.5438 188.095C71.6962 188.05 71.8296 187.98 71.9437 187.884C72.0749 187.774 72.15 187.661 72.1691 187.546C72.1882 187.43 72.1519 187.318 72.0602 187.209C71.9848 187.119 71.901 187.073 71.8088 187.072C71.7191 187.069 71.6042 187.109 71.464 187.194L71.1614 187.373C70.9005 187.526 70.665 187.581 70.455 187.538C70.2429 187.492 70.0584 187.376 69.9015 187.189C69.6957 186.943 69.6169 186.687 69.6651 186.419C69.7112 186.148 69.8788 185.892 70.1679 185.649C70.3646 185.484 70.5613 185.371 70.758 185.309C70.9546 185.248 71.1417 185.231 71.3192 185.26L71.2999 185.866C71.1688 185.848 71.0397 185.857 70.9128 185.893C70.7838 185.927 70.661 185.993 70.5444 186.091C70.2991 186.296 70.2611 186.5 70.4302 186.702C70.5036 186.789 70.5853 186.832 70.6754 186.831C70.768 186.828 70.8854 186.785 71.0276 186.703L71.3332 186.528C71.5703 186.391 71.7945 186.335 72.0061 186.36C72.2177 186.385 72.4081 186.499 72.5772 186.701C72.6771 186.82 72.7492 186.947 72.7935 187.084C72.8357 187.218 72.8472 187.358 72.8278 187.502C72.8063 187.644 72.7522 187.787 72.6654 187.93C72.5811 188.071 72.4587 188.209 72.2984 188.344Z" fill="#333333"/>
<path d="M89.7354 218.382C89.7354 218.704 89.4739 218.966 89.1513 218.966C88.8288 218.966 88.5673 218.704 88.5673 218.382C88.5673 218.059 88.8288 217.798 89.1513 217.798C89.4739 217.798 89.7354 218.059 89.7354 218.382Z" fill="#333333"/>
<path d="M77.4217 184.04C77.4217 184.362 77.1602 184.624 76.8376 184.624C76.5151 184.624 76.2536 184.362 76.2536 184.04C76.2536 183.717 76.5151 183.455 76.8376 183.455C77.1602 183.455 77.4217 183.717 77.4217 184.04Z" fill="#333333"/>
</svg>
