<svg width="368" height="163" viewBox="0 0 368 163" fill="none" xmlns="http://www.w3.org/2000/svg">
<path d="M73.1684 45.998C81.526 21.8127 92.7751 0 119 0C136.504 0 148.028 8 155 20.6701C156.746 23.8425 158.058 27.0631 158.946 30.2519C159.068 30.6912 159.465 31 159.921 31H286C292.543 31 298.426 34.9832 300.856 41.0577L316.833 81H332C338.543 81 344.426 84.9832 346.856 91.0578L366.856 141.058C368.827 145.987 368.226 151.574 365.249 155.97C362.273 160.366 357.309 163 352 163H16.0001C10.6909 163 5.72748 160.366 2.751 155.97C-0.22548 151.574 -0.827332 145.987 1.14445 141.058L21.1444 91.0578C23.5743 84.9832 29.4576 81 36.0001 81H59.1676L73.1684 45.998Z" fill="#AF71FE"/>
<path d="M35.4972 98.2572C35.801 97.4979 36.5364 97 37.3542 97H230.646C231.464 97 232.199 97.4979 232.503 98.2572L250.903 144.257C251.429 145.571 250.461 147 249.046 147H18.9542C17.5393 147 16.5718 145.571 17.0972 144.257L35.4972 98.2572Z" fill="#333333"/>
<path fill-rule="evenodd" clip-rule="evenodd" d="M34.5688 97.8858C35.0244 96.7469 36.1275 96 37.3542 96H230.646C231.873 96 232.976 96.7469 233.431 97.8858L251.831 143.886C252.62 145.856 251.168 148 249.046 148H18.9542C16.8318 148 15.3805 145.856 16.1688 143.886L34.5688 97.8858ZM37.3542 98C36.9453 98 36.5776 98.249 36.4257 98.6286L18.0257 144.629C17.763 145.285 18.2467 146 18.9542 146H249.046C249.754 146 250.237 145.285 249.975 144.629L231.575 98.6286C231.423 98.2489 231.055 98 230.646 98H37.3542Z" fill="#333333"/>
<path d="M135.497 98.2572C135.801 97.4979 136.536 97 137.354 97H330.646C331.464 97 332.199 97.4979 332.503 98.2572L350.903 144.257C351.429 145.571 350.461 147 349.046 147H118.954C117.539 147 116.572 145.571 117.097 144.257L135.497 98.2572Z" fill="#333333"/>
<path fill-rule="evenodd" clip-rule="evenodd" d="M134.569 97.8858C135.024 96.7469 136.127 96 137.354 96H330.646C331.873 96 332.976 96.7469 333.431 97.8858L351.831 143.886C352.62 145.856 351.168 148 349.046 148H118.954C116.832 148 115.381 145.856 116.169 143.886L134.569 97.8858ZM137.354 98C136.945 98 136.578 98.249 136.426 98.6286L118.026 144.629C117.763 145.285 118.247 146 118.954 146H349.046C349.754 146 350.237 145.285 349.975 144.629L331.575 98.6286C331.423 98.2489 331.055 98 330.646 98H137.354Z" fill="#333333"/>
<path d="M89.4972 48.2572C89.801 47.4979 90.5364 47 91.3542 47H284.646C285.464 47 286.199 47.4979 286.503 48.2572L304.903 94.2572C305.429 95.5709 304.461 97 303.046 97H72.9542C71.5393 97 70.5718 95.5709 71.0972 94.2572L89.4972 48.2572Z" fill="#333333"/>
<path fill-rule="evenodd" clip-rule="evenodd" d="M88.5688 47.8858C89.0244 46.7469 90.1275 46 91.3542 46H284.646C285.873 46 286.976 46.7469 287.431 47.8858L305.831 93.8858C306.62 95.8564 305.168 98 303.046 98H72.9542C70.8318 98 69.3805 95.8564 70.1688 93.8858L88.5688 47.8858ZM91.3542 48C90.9453 48 90.5776 48.249 90.4257 48.6286L72.0257 94.6286C71.763 95.2855 72.2467 96 72.9542 96H303.046C303.754 96 304.237 95.2855 303.975 94.6286L285.575 48.6286C285.423 48.2489 285.055 48 284.646 48H91.3542Z" fill="#333333"/>
<path d="M35.4972 98.2572C35.801 97.4979 36.5364 97 37.3542 97H94.6461C95.4639 97 96.1993 97.4979 96.503 98.2572L114.903 144.257C115.429 145.571 114.461 147 113.046 147H18.9542C17.5393 147 16.5718 145.571 17.0972 144.257L35.4972 98.2572Z" fill="#FFD600"/>
<path fill-rule="evenodd" clip-rule="evenodd" d="M34.5688 97.8858C35.0244 96.7469 36.1275 96 37.3542 96H94.6461C95.8728 96 96.9759 96.7469 97.4315 97.8858L115.831 143.886C116.62 145.856 115.168 148 113.046 148H18.9542C16.8318 148 15.3805 145.856 16.1688 143.886L34.5688 97.8858ZM37.3542 98C36.9453 98 36.5776 98.249 36.4257 98.6286L18.0257 144.629C17.763 145.285 18.2467 146 18.9542 146H113.046C113.754 146 114.237 145.285 113.975 144.629L95.5745 98.6286C95.4227 98.249 95.055 98 94.6461 98H37.3542Z" fill="#333333"/>
<path d="M135.497 98.2572C135.801 97.4979 136.536 97 137.354 97H194.646C195.464 97 196.199 97.4979 196.503 98.2572L214.903 144.257C215.428 145.571 214.461 147 213.046 147H118.954C117.539 147 116.572 145.571 117.097 144.257L135.497 98.2572Z" fill="#FFD600"/>
<path fill-rule="evenodd" clip-rule="evenodd" d="M134.569 97.8858C135.024 96.7469 136.127 96 137.354 96H194.646C195.873 96 196.976 96.7469 197.431 97.8858L215.831 143.886C216.62 145.856 215.168 148 213.046 148H118.954C116.832 148 115.381 145.856 116.169 143.886L134.569 97.8858ZM137.354 98C136.945 98 136.578 98.249 136.426 98.6286L118.026 144.629C117.763 145.285 118.247 146 118.954 146H213.046C213.754 146 214.237 145.285 213.975 144.629L195.575 98.6286C195.423 98.249 195.055 98 194.646 98H137.354Z" fill="#333333"/>
<path d="M89.4972 48.2572C89.801 47.4979 90.5364 47 91.3542 47H148.646C149.464 47 150.199 47.4979 150.503 48.2572L168.903 94.2572C169.429 95.5709 168.461 97 167.046 97H72.9542C71.5393 97 70.5718 95.5709 71.0972 94.2572L89.4972 48.2572Z" fill="#FFD600"/>
<path fill-rule="evenodd" clip-rule="evenodd" d="M88.5688 47.8858C89.0244 46.7469 90.1275 46 91.3542 46H148.646C149.873 46 150.976 46.7469 151.431 47.8858L169.831 93.8858C170.62 95.8564 169.168 98 167.046 98H72.9542C70.8318 98 69.3805 95.8564 70.1688 93.8858L88.5688 47.8858ZM91.3542 48C90.9453 48 90.5776 48.249 90.4257 48.6286L72.0257 94.6286C71.763 95.2855 72.2467 96 72.9542 96H167.046C167.754 96 168.237 95.2855 167.975 94.6286L149.575 48.6286C149.423 48.249 149.055 48 148.646 48H91.3542Z" fill="#333333"/>
<path d="M168 98H328C328.552 98 329 98.4477 329 99C329 99.5523 328.552 100 328 100H168V98Z" fill="#FFD600"/>
<path d="M215.792 122.347C212.996 115.183 217.51 110.034 225.42 110.034C227.038 110.034 228.377 110.264 229.438 110.497C229.764 110.568 230.04 110.634 230.299 110.696C230.486 110.74 230.665 110.783 230.848 110.825C231.245 110.914 231.63 110.989 231.949 110.989C232.376 110.989 232.801 110.835 233.136 110.713L233.175 110.699C233.567 110.557 233.857 110.458 234.098 110.458C234.982 110.458 236.063 111.148 237.118 112.243C238.147 113.312 238.973 114.591 239.292 115.409C239.603 116.206 239.687 116.982 239.484 117.545C239.288 118.092 238.823 118.448 237.976 118.448C236.487 118.448 235.364 117.577 233.871 116.421C233.758 116.333 233.642 116.243 233.525 116.152C232.72 115.532 231.818 114.87 230.767 114.368C229.703 113.859 228.511 113.527 227.126 113.527C225.321 113.527 224.092 114.228 223.527 115.446C222.966 116.654 223.07 118.34 223.833 120.294C226.752 127.774 232.598 130.672 235.375 130.672C236.987 130.672 237.751 129.538 237.155 128.011C236.993 127.598 236.786 127.246 236.521 126.954C236.247 126.655 235.935 126.445 235.609 126.303C235.295 126.167 234.984 126.102 234.707 126.065C234.461 126.032 234.21 126.019 233.985 126.006L233.906 126.002C233.37 125.972 232.998 125.93 232.696 125.778C232.464 125.661 232.149 125.409 231.866 124.683C231.688 124.228 231.786 123.859 232.138 123.54C232.501 123.212 233.109 122.965 233.852 122.787C235.331 122.433 237.184 122.388 238.146 122.388C241.695 122.388 243.647 122.858 244.723 123.381C245.245 123.634 245.554 123.896 245.751 124.126C245.954 124.361 246.07 124.597 246.159 124.825C246.399 125.44 246.03 125.942 245.324 126.063C244.862 126.115 244.458 126.195 244.267 126.5C244.173 126.65 244.147 126.825 244.144 127.002C244.141 127.175 244.161 127.381 244.184 127.607C244.691 132.5 240.541 134.908 235.281 134.908C227.442 134.908 218.725 129.861 215.792 122.347Z" fill="#FFD600"/>
<path fill-rule="evenodd" clip-rule="evenodd" d="M247.497 122.383C244.683 115.17 248.836 110.034 256.884 110.034C261.96 110.034 266.26 112.108 269.516 114.729C272.793 117.368 275.007 120.558 275.858 122.737C278.702 130.024 273.689 134.908 266.136 134.908C258.378 134.908 250.334 129.651 247.497 122.383ZM256.831 114.377C255.568 114.377 254.869 114.995 254.588 115.824C254.311 116.643 254.43 117.684 254.799 118.63C255.414 120.205 257.143 123.132 259.235 125.668C260.283 126.938 261.448 128.143 262.64 129.038C263.83 129.931 265.115 130.565 266.341 130.565C267.668 130.565 268.431 130.018 268.735 129.191C269.033 128.383 268.886 127.333 268.487 126.312C267.834 124.639 266.165 121.712 264.091 119.195C263.053 117.935 261.888 116.746 260.67 115.865C259.447 114.981 258.125 114.377 256.831 114.377Z" fill="#FFD600"/>
<path d="M274.319 112.4C274.144 111.953 274.247 111.587 274.622 111.268C275.005 110.94 275.642 110.696 276.411 110.523C277.943 110.176 279.839 110.14 280.765 110.14C284.566 110.14 286.579 110.445 287.671 110.849C288.194 111.042 288.46 111.241 288.617 111.409C288.785 111.588 288.891 111.796 289.003 112.081C289.082 112.285 289.095 112.414 289.085 112.498C289.075 112.58 289.041 112.644 288.978 112.703C288.911 112.766 288.814 112.823 288.676 112.885C288.608 112.916 288.535 112.946 288.455 112.978L288.445 112.983C288.369 113.013 288.287 113.047 288.205 113.083C287.862 113.235 287.469 113.457 287.283 113.915C287.098 114.374 287.143 115.009 287.493 115.904L291.886 127.161C292.38 128.426 292.907 129.51 293.749 130.27C294.654 131.087 295.779 131.415 297.2 131.415C298.882 131.415 299.936 131.095 300.576 130.567C301.218 130.038 301.401 129.334 301.444 128.671C301.464 128.359 301.454 128.048 301.445 127.774L301.444 127.733C301.434 127.439 301.429 127.198 301.453 126.998C301.477 126.8 301.528 126.679 301.599 126.607C301.662 126.543 301.763 126.494 301.968 126.494C302.607 126.494 303.168 126.798 303.664 127.283C304.178 127.785 304.59 128.458 304.83 129.073C305.331 130.356 305.415 131.853 305.157 133.029C305.028 133.615 304.819 134.1 304.554 134.432C304.283 134.772 303.991 134.908 303.732 134.908C303.284 134.908 302.905 134.845 302.439 134.766C302.253 134.735 302.054 134.701 301.831 134.668C301.019 134.521 300.108 134.413 298.788 134.413L285.965 134.413C285.362 134.414 284.722 134.415 284.155 134.266C283.864 134.19 283.638 134.084 283.467 133.952C283.304 133.826 283.139 133.636 283.016 133.321C282.928 133.095 282.91 132.952 282.919 132.859C282.928 132.771 282.962 132.705 283.022 132.645C283.087 132.58 283.183 132.522 283.322 132.455C283.364 132.434 283.417 132.41 283.475 132.384C283.578 132.337 283.697 132.282 283.798 132.23C284.151 132.046 284.52 131.772 284.672 131.228C284.821 130.694 284.748 129.948 284.358 128.873C283.423 126.283 282.537 124.012 281.722 121.925L281.721 121.922C281.191 120.564 280.599 119.245 280.023 117.964C279.696 117.238 279.375 116.523 279.073 115.82C278.728 114.991 278.246 114.406 277.651 113.998C277.078 113.605 276.478 113.432 275.999 113.312C275.894 113.286 275.8 113.263 275.711 113.242C275.578 113.21 275.456 113.181 275.326 113.146C275.123 113.091 274.963 113.037 274.833 112.975C274.71 112.916 274.622 112.854 274.551 112.782C274.478 112.707 274.394 112.591 274.319 112.4Z" fill="#FFD600"/>
<path fill-rule="evenodd" clip-rule="evenodd" d="M299.96 111.692C299.843 111.392 299.857 111.178 299.943 111.011C300.032 110.836 300.213 110.691 300.477 110.576C301.015 110.344 301.797 110.281 302.444 110.281H314.832C320.006 110.281 323.94 111.769 326.866 113.964C329.806 116.17 331.819 119.161 333.035 122.276C334.286 125.483 334.479 128.559 333.224 130.828C331.975 133.086 329.267 134.59 324.585 134.59C322.958 134.59 321.588 134.554 320.396 134.484L320.388 134.484L319.983 134.472C318.955 134.441 318.021 134.413 317.068 134.413C315.993 134.413 314.897 134.448 313.848 134.484L313.839 134.484L313.83 134.485C312.806 134.555 311.767 134.59 310.677 134.59C310.102 134.59 309.413 134.454 308.832 134.181C308.27 133.917 307.844 133.547 307.645 133.038C307.536 132.758 307.513 132.592 307.521 132.494C307.527 132.405 307.559 132.355 307.609 132.315C307.668 132.268 307.759 132.228 307.909 132.181C307.946 132.17 307.988 132.158 308.034 132.144C308.154 132.109 308.3 132.066 308.431 132.016C308.834 131.86 309.227 131.588 309.354 130.963C309.475 130.366 309.346 129.487 308.858 128.162L304.368 115.88L304.368 115.878C304.013 114.917 303.579 114.243 303.062 113.755C302.536 113.259 301.989 113.018 301.537 112.853C301.435 112.815 301.333 112.78 301.241 112.748L301.219 112.741C301.118 112.706 301.028 112.674 300.942 112.642C300.768 112.577 300.637 112.517 300.528 112.45C300.352 112.343 300.144 112.163 299.96 111.692ZM313.656 113.208C312.821 113.208 312.221 113.361 312.05 113.885C311.972 114.127 312.002 114.407 312.07 114.687C312.139 114.967 312.256 115.284 312.388 115.621L317.541 128.825C317.72 129.284 317.902 129.701 318.112 130.065C318.323 130.43 318.579 130.771 318.921 131.057C319.635 131.653 320.512 131.84 321.574 131.84C322.86 131.84 323.792 131.531 324.424 130.988C325.054 130.448 325.364 129.695 325.465 128.848C325.666 127.168 325.05 125.056 324.352 123.267C322.719 119.084 320.891 116.555 319.001 115.069C317.078 113.558 315.201 113.208 313.656 113.208Z" fill="#FFD600"/>
<path d="M275.986 60.1516C275.123 60.3367 273.704 60.5147 271.134 60.5147H260.19C259.988 60.5147 259.768 60.5097 259.54 60.5046C258.821 60.4883 258.015 60.4701 257.361 60.5986C256.94 60.6813 256.646 60.816 256.494 61.0063C256.354 61.1807 256.307 61.4326 256.474 61.8499C256.584 62.1254 256.69 62.2886 256.774 62.3864C256.849 62.4743 256.919 62.5238 256.998 62.5644C257.094 62.6128 257.214 62.6539 257.403 62.7058C257.441 62.7165 257.484 62.728 257.531 62.7404L257.532 62.7407C257.686 62.7817 257.874 62.832 258.061 62.8943C258.595 63.0728 259.201 63.3741 259.833 64.0232C260.441 64.647 261.044 65.5631 261.663 66.9426C264.342 72.7753 264.347 72.7885 265.922 77.5989C266.077 78.0727 266.248 78.593 266.437 79.1701C266.76 80.1533 266.81 80.8405 266.67 81.3377C266.528 81.8436 266.202 82.1092 265.889 82.292C265.798 82.3449 265.692 82.3996 265.601 82.4465L265.535 82.4809L265.498 82.5001L265.473 82.5136C265.353 82.5788 265.272 82.6327 265.219 82.6905C265.14 82.7752 265.08 82.9008 265.226 83.2679C265.314 83.4866 265.416 83.7009 265.67 83.8821C265.929 84.0664 266.498 84.3208 267.693 84.3208H283.311C284.485 84.3208 285.511 84.4066 286.327 84.4748L286.62 84.4992L286.633 84.5002L286.647 84.5019C286.922 84.5367 287.183 84.572 287.411 84.6031L287.643 84.6345L287.744 84.648C288.056 84.6891 288.242 84.709 288.331 84.709C288.474 84.709 288.709 84.5876 288.931 84.1614C289.139 83.7623 289.287 83.1884 289.361 82.522C289.51 81.181 289.35 79.5753 288.908 78.4691C288.741 78.0521 288.42 77.5768 288.032 77.2198C287.652 76.8709 287.258 76.6752 286.867 76.6752C286.553 76.6752 286.36 76.7367 286.229 76.8265C286.095 76.9183 286 77.057 285.929 77.2553C285.857 77.4579 285.815 77.7018 285.772 77.9958L285.759 78.0835C285.72 78.3477 285.676 78.6434 285.601 78.9392C285.432 79.609 285.097 80.3012 284.265 80.8179C283.439 81.3308 282.156 81.6503 280.154 81.6503C279.979 81.6503 279.809 81.6509 279.644 81.6514C278.894 81.6537 278.255 81.6556 277.719 81.606C277.056 81.5446 276.428 81.3968 275.843 80.9848C275.274 80.5837 274.855 80.0082 274.462 79.2808C274.066 78.5457 273.651 77.5666 273.138 76.2814L273.097 76.1798C272.888 75.661 272.622 74.9984 272.622 74.4618C272.621 74.1592 272.703 73.8687 272.944 73.6581C273.184 73.4477 273.547 73.3472 274.023 73.3472C275.069 73.3472 275.894 73.6019 276.562 74.0705C277.205 74.5222 277.596 75.1031 277.881 75.5792C277.951 75.6965 278.019 75.8131 278.082 75.9225L278.089 75.9347C278.155 76.0495 278.216 76.1558 278.277 76.2574C278.402 76.4641 278.511 76.6229 278.62 76.7451C278.723 76.8613 278.811 76.9265 278.896 76.9675C278.981 77.0088 279.118 77.0521 279.342 77.0521C279.716 77.0521 279.96 76.8876 280.103 76.5502C280.252 76.2007 280.275 75.6937 280.206 75.1003C280.068 73.9179 279.585 72.5441 279.302 71.8355C279.03 71.1542 278.474 69.8609 277.732 68.7501C277.36 68.1925 276.966 67.7209 276.572 67.398C276.196 67.0892 275.847 66.9365 275.488 66.9365C275.216 66.9365 275.063 66.9856 274.973 67.045C274.886 67.1031 274.832 67.188 274.807 67.3111C274.751 67.5874 274.843 67.9783 274.968 68.4988L274.97 68.5083C275.082 68.9745 275.223 69.5611 275.099 70.0216C275.034 70.2667 274.893 70.4823 274.641 70.6327C274.391 70.7816 274.055 70.8531 273.633 70.8531C273.061 70.8531 272.586 70.8494 272.196 70.8066C271.808 70.7642 271.413 70.6752 271.043 70.4385C270.665 70.1966 270.422 69.8711 270.233 69.5339C270.047 69.1998 269.871 68.7769 269.67 68.2718C269.531 67.925 269.397 67.5977 269.271 67.2909L269.27 67.2889C269.037 66.7186 268.832 66.2185 268.681 65.7975C268.451 65.1534 268.303 64.5846 268.401 64.1372C268.507 63.6543 268.878 63.3818 269.459 63.2318C270.021 63.0869 270.823 63.044 271.88 63.044C273.722 63.044 275.081 63.2594 276.136 63.608C277.209 63.9626 277.939 64.4454 278.512 64.9272C278.75 65.127 278.963 65.3281 279.146 65.5014L279.146 65.5023L279.23 65.5813C279.44 65.7799 279.608 65.9323 279.778 66.0563C279.938 66.1738 280.095 66.2612 280.275 66.3228C280.46 66.3856 280.699 66.4314 281.024 66.4314C281.56 66.4314 281.809 66.1977 281.895 65.8274C281.986 65.4332 281.883 64.8884 281.67 64.3551C281.384 63.6399 280.694 62.451 279.825 61.4538C278.925 60.4204 278.032 59.809 277.274 59.809C277.213 59.809 277.138 59.8266 276.913 59.8989L276.895 59.9046C276.688 59.9709 276.406 60.0616 275.986 60.1516Z" fill="#FFD600"/>
<path fill-rule="evenodd" clip-rule="evenodd" d="M169.999 60.5147C172.771 60.5147 174.948 60.3904 176.631 60.2663C177.151 60.2279 177.62 60.1901 178.041 60.156C178.999 60.0786 179.715 60.0207 180.251 60.0207C182.745 60.0207 185.438 60.6942 187.739 61.9789C190.024 63.2545 191.945 65.1421 192.942 67.6366C193.935 70.1194 193.565 72.0067 192.335 73.2841C191.097 74.5702 188.968 75.2526 186.417 75.2526C185.871 75.2526 185.305 75.2104 184.729 75.1661L184.674 75.1619C184.124 75.1195 183.561 75.0762 183.04 75.0762C182.76 75.0762 182.459 75.128 182.315 75.357C182.175 75.5811 182.251 75.8736 182.343 76.105L183.161 78.1515L183.166 78.1627C183.653 79.3057 184.172 80.0979 184.725 80.6654C185.293 81.2482 185.859 81.5546 186.356 81.7594C186.534 81.8326 186.714 81.8966 186.865 81.9505C186.911 81.9669 186.955 81.9825 186.995 81.9971C187.182 82.065 187.314 82.1188 187.422 82.1782C187.519 82.2319 187.593 82.2878 187.659 82.3618C187.729 82.4404 187.814 82.5658 187.897 82.7739C188.045 83.1422 187.961 83.4515 187.621 83.7295C187.272 84.0146 186.691 84.2278 185.985 84.3796C184.58 84.6817 182.841 84.709 181.989 84.709C181.19 84.709 179.426 84.6991 177.76 84.4135C176.923 84.27 176.158 84.0644 175.571 83.7841C174.998 83.5102 174.668 83.2057 174.524 82.8444C174.38 82.4851 174.435 82.3292 174.531 82.2182C174.634 82.0994 174.785 82.022 175.003 81.9109C175.066 81.8788 175.134 81.8438 175.209 81.8043C175.509 81.6442 175.861 81.4223 176.029 81.0027C176.2 80.5769 176.162 80.0035 175.845 79.2101L170.329 65.4137C170.021 64.6419 169.537 64.0928 168.939 63.6973C168.377 63.3259 167.763 63.1258 167.266 62.9695L167.155 62.9347C166.668 62.7821 166.3 62.6668 165.99 62.49C165.715 62.3333 165.48 62.1231 165.314 61.7088C165.12 61.2226 165.267 60.9307 165.626 60.7324C166.009 60.521 166.603 60.4441 167.159 60.4441C167.622 60.4441 168.084 60.4613 168.558 60.479L168.563 60.4792C169.032 60.4967 169.514 60.5147 169.999 60.5147ZM178.208 63.3486C178.447 63.283 178.76 63.2557 179.151 63.2557C180.568 63.2557 181.864 63.7735 182.929 64.6287C183.975 65.4692 184.747 66.5946 185.221 67.7778C185.673 68.9097 185.85 69.9992 185.532 70.8177C185.204 71.6584 184.373 72.1587 182.976 72.1587C181.932 72.1587 181.147 71.9611 180.614 71.4158C180.37 71.1664 180.242 70.9027 180.16 70.6971C180.119 70.595 180.084 70.4926 180.054 70.4036L180.051 70.3966C180.019 70.3015 179.991 70.2201 179.96 70.1419L177.844 64.8491L177.823 64.7965C177.762 64.6465 177.692 64.4725 177.652 64.3147C177.603 64.1282 177.58 63.9116 177.676 63.7211C177.773 63.5296 177.965 63.4154 178.208 63.3486Z" fill="#FFD600"/>
<path d="M212.916 60.8987C212.673 61.1287 212.607 61.4053 212.757 61.7793C212.836 61.9766 212.925 62.1032 213.008 62.1901C213.089 62.2764 213.189 62.3502 213.323 62.4226C213.463 62.4986 213.631 62.5676 213.846 62.6456C213.915 62.6707 213.997 62.6994 214.084 62.7302L214.086 62.7307C214.236 62.7837 214.405 62.8431 214.557 62.9005C215.08 63.0994 215.693 63.3817 216.282 63.9087C216.869 64.4343 217.372 65.15 217.774 66.1547L221.286 74.9406C221.291 74.9513 221.297 74.966 221.305 74.9846L221.305 74.9862C221.431 75.2879 221.966 76.5685 221.758 77.808C221.645 78.4769 221.317 79.136 220.601 79.6248C219.886 80.1126 218.808 80.4154 217.237 80.4154C215.088 80.4154 213.202 79.6915 211.63 78.3575C210.088 77.0495 208.921 75.2159 208.063 73.0705L205.464 66.5686L205.46 66.5591C205.063 65.4433 204.981 64.692 205.126 64.1719C205.275 63.6334 205.652 63.3963 206.003 63.2444C206.088 63.2079 206.172 63.1756 206.248 63.1469C206.325 63.1173 206.392 63.0916 206.455 63.0647C206.579 63.0106 206.658 62.9621 206.708 62.9064C206.783 62.8225 206.861 62.6508 206.64 62.0969C206.53 61.8209 206.377 61.5943 206.154 61.397C205.927 61.1965 205.579 60.9837 205.018 60.7897C203.872 60.3933 201.992 60.1265 198.904 60.1265C195.004 60.1265 193.485 60.6245 192.933 61.095C192.672 61.3176 192.637 61.5261 192.648 61.6725C192.658 61.805 192.7 61.905 192.752 62.0255C192.766 62.0588 192.781 62.0945 192.796 62.1322C192.999 62.6399 193.441 62.8982 194.24 63.3651L194.423 63.4723C194.841 63.7176 195.326 64.018 195.757 64.4269C196.197 64.8451 196.556 65.3519 196.771 65.9925L200.024 74.1291C200.036 74.1586 200.054 74.2147 200.079 74.2945C200.294 74.9676 201.045 77.3239 203.218 79.6574C204.42 80.9485 206.059 82.2291 208.297 83.1913C210.539 84.1558 213.416 84.8148 217.096 84.8148C223.541 84.8148 225.815 82.7488 226.475 80.592C227.144 78.4057 226.191 76.0217 225.874 75.2294L222.063 65.696C221.716 64.8295 221.659 64.2046 221.81 63.7376C221.96 63.2722 222.301 63.0153 222.608 62.8285C222.682 62.784 222.755 62.7421 222.823 62.7035L222.832 62.6985C222.904 62.6575 222.97 62.6202 223.031 62.5823C223.155 62.506 223.245 62.4374 223.307 62.3634C223.411 62.2399 223.465 62.0745 223.319 61.7088C223.184 61.3717 222.921 61.1159 222.519 60.8974C222.094 60.6663 221.536 60.4928 220.904 60.371C219.644 60.1282 218.291 60.1265 217.562 60.1265L217.427 60.1264C216.612 60.1256 215.266 60.1242 214.19 60.3546C213.62 60.4767 213.172 60.6551 212.916 60.8987Z" fill="#FFD600"/>
<path fill-rule="evenodd" clip-rule="evenodd" d="M225.441 61.1495C225.309 61.3624 225.282 61.6287 225.427 61.991C225.518 62.2188 225.609 62.3515 225.681 62.4316C225.748 62.5058 225.82 62.5595 225.919 62.6119C226.032 62.6714 226.166 62.7232 226.367 62.795L226.426 62.8161C226.604 62.8793 226.822 62.9572 227.051 63.0591C227.592 63.3006 228.179 63.6724 228.773 64.3648C229.349 65.037 229.914 65.9914 230.473 67.3896L234.493 77.4458C234.969 78.6342 235.124 79.4848 235.073 80.1175C235.02 80.7605 234.755 81.1486 234.456 81.4281C234.327 81.5491 234.19 81.6507 234.074 81.7369L234.035 81.7656C233.905 81.8626 233.809 81.9377 233.74 82.0174C233.675 82.0927 233.642 82.1624 233.632 82.2393C233.623 82.316 233.634 82.4257 233.703 82.5974C233.889 83.0618 234.261 83.4165 234.815 83.7116C235.391 84.0187 236.134 84.2426 236.956 84.3978C238.596 84.7073 240.349 84.7089 241.267 84.7089C244.341 84.7089 245.931 84.4678 246.694 84.1107C247.064 83.9374 247.208 83.7508 247.257 83.5827C247.306 83.4147 247.276 83.2145 247.17 82.9503C247.037 82.6188 246.874 82.4375 246.716 82.3123C246.536 82.1687 246.315 82.0585 245.99 81.9105L245.901 81.87C245.283 81.5903 244.423 81.2009 243.839 80.2081C243.231 79.1811 242.579 77.7392 242.165 76.7048C241.94 76.1425 241.782 75.6977 241.687 75.348C241.594 75.0047 241.551 74.713 241.596 74.4829C241.645 74.2285 241.797 74.0679 242.031 73.9863C242.235 73.9154 242.485 73.9118 242.689 73.9118C243.901 73.9118 244.92 74.3852 245.77 75.0978C246.581 75.7791 247.219 76.6627 247.755 77.479L247.756 77.4808L247.796 77.5421C249.32 79.8768 250.524 81.7222 252.055 83.0115C253.528 84.2522 255.373 85.0265 258.304 85.0265C260.401 85.0265 261.676 84.6807 262.361 84.2151C263.041 83.7531 263.115 83.1991 262.931 82.7386C262.751 82.2869 262.581 82.1718 262.489 82.1211C262.417 82.0815 262.321 82.0445 262.175 82.0045C262.079 81.9781 261.995 81.9587 261.897 81.9361C261.827 81.9198 261.749 81.9018 261.654 81.8782C261.246 81.7773 260.722 81.6182 260.17 81.2106C259.624 80.8071 259.122 80.2148 258.651 79.3401C257.637 77.4607 256.711 76.1829 255.713 75.2719C254.734 74.3781 253.641 73.7971 252.214 73.3646L252.203 73.3614L252.193 73.3579C252.161 73.3473 252.126 73.3359 252.089 73.3236C251.871 73.2526 251.569 73.1541 251.304 73.012C250.939 72.8155 250.599 72.5175 250.425 72.0825C250.297 71.7624 250.304 71.5072 250.438 71.3088C250.533 71.169 250.692 71.0683 250.802 70.9992C250.818 70.9892 250.833 70.9797 250.846 70.971L250.856 70.9644L250.867 70.9586C252.445 70.0983 252.726 68.2366 251.936 66.2605C251.071 64.0975 249.349 62.6223 247.31 61.6665C245.244 60.6978 242.853 60.2676 240.768 60.2676C239.962 60.2676 239.159 60.2988 238.35 60.3302C237.951 60.3456 237.55 60.3612 237.147 60.3731L237.041 60.3792C235.857 60.4474 234.691 60.5146 233.495 60.5146C232.711 60.5146 231.865 60.4424 231.083 60.3724C230.793 60.3596 230.514 60.3432 230.243 60.3272C229.726 60.2967 229.234 60.2676 228.722 60.2676C227.978 60.2676 226.95 60.3298 226.212 60.6074C225.845 60.7454 225.579 60.926 225.441 61.1495ZM238.719 63.2204C238.32 63.2204 237.995 63.2772 237.76 63.4156C237.515 63.5598 237.399 63.775 237.369 64.0261C237.341 64.2646 237.392 64.5285 237.46 64.7767C237.512 64.9658 237.582 65.1741 237.65 65.3778C237.671 65.4392 237.691 65.5003 237.711 65.5602L238.9 68.9145C238.92 68.9782 238.94 69.0458 238.962 69.115L238.962 69.1163C239.009 69.2695 239.058 69.4314 239.109 69.5748C239.186 69.791 239.29 70.0365 239.456 70.2664C239.634 70.5132 239.886 70.7431 240.23 70.899C240.553 71.0455 240.9 71.1001 241.261 71.1001C242.587 71.1001 243.439 70.7557 243.779 70.0169C244.108 69.3016 243.912 68.3064 243.461 67.1779C243.107 66.2924 242.605 65.3218 241.848 64.5591C241.462 64.1695 241.003 63.8283 240.464 63.5871C239.926 63.346 239.343 63.2204 238.719 63.2204Z" fill="#FFD600"/>
<path d="M136.627 22.8175C135.859 22.5072 134.985 22.8783 134.674 23.6464L131.648 31.1366C131.25 32.1226 131.975 33.1985 133.039 33.1985C133.65 33.1985 134.2 32.8274 134.429 32.2605L137.456 24.7702C137.766 24.0021 137.395 23.1278 136.627 22.8175Z" fill="#333333"/>
<path d="M120 16.5C119.172 16.5 118.5 17.1716 118.5 18V32C118.5 32.8284 119.172 33.5 120 33.5C120.829 33.5 121.5 32.8284 121.5 32V18C121.5 17.1716 120.829 16.5 120 16.5Z" fill="#333333"/>
<path d="M104.391 23.6463C104.081 22.8781 103.207 22.5071 102.438 22.8174C101.67 23.1277 101.299 24.002 101.61 24.7701L104.636 32.2604C104.865 32.8273 105.415 33.1985 106.027 33.1985C107.09 33.1985 107.816 32.1226 107.417 31.1366L104.391 23.6463Z" fill="#333333"/>
<path d="M65.4013 106.053C64.9881 106.053 64.6827 105.913 64.4849 105.633C64.2902 105.352 64.1928 104.96 64.1928 104.455C64.1928 103.95 64.2902 103.558 64.4849 103.277C64.6827 102.997 64.9881 102.857 65.4013 102.857C65.8145 102.857 66.1185 102.997 66.3133 103.277C66.511 103.558 66.6099 103.95 66.6099 104.455C66.6099 104.96 66.511 105.352 66.3133 105.633C66.1185 105.913 65.8145 106.053 65.4013 106.053ZM65.4013 105.517C65.5902 105.517 65.7201 105.448 65.7909 105.309C65.8647 105.168 65.9016 104.971 65.9016 104.721V104.185C65.9016 103.937 65.8647 103.744 65.7909 103.605C65.7201 103.463 65.5902 103.393 65.4013 103.393C65.2124 103.393 65.0811 103.463 65.0073 103.605C64.9365 103.744 64.9011 103.937 64.9011 104.185V104.725C64.9011 104.973 64.9365 105.168 65.0073 105.309C65.0811 105.448 65.2124 105.517 65.4013 105.517Z" fill="#333333"/>
<path d="M69.6978 106.641L70.7546 103.738L71.8778 104.146C72.0192 104.198 72.1373 104.266 72.2321 104.351C72.3279 104.433 72.3986 104.528 72.4442 104.635C72.4926 104.744 72.5155 104.862 72.5129 104.99C72.5104 105.118 72.4834 105.253 72.4319 105.394C72.3804 105.535 72.3146 105.656 72.2343 105.756C72.1541 105.855 72.0606 105.931 71.9536 105.983C71.8495 106.036 71.7339 106.065 71.6068 106.069C71.4807 106.07 71.347 106.045 71.2055 105.994L70.7105 105.813L70.3259 106.87L69.6978 106.641ZM70.8937 105.31L71.2306 105.433C71.3776 105.486 71.489 105.495 71.5646 105.46C71.643 105.426 71.7055 105.345 71.7519 105.217L71.7973 105.092C71.8438 104.965 71.8479 104.863 71.8099 104.786C71.7746 104.71 71.6835 104.646 71.5365 104.592L71.1995 104.47L70.8937 105.31Z" fill="#333333"/>
<path d="M74.6437 109.154L76.6299 106.787L77.5455 107.555C77.6608 107.652 77.7485 107.756 77.8086 107.868C77.8706 107.978 77.9046 108.091 77.9106 108.208C77.9189 108.327 77.9 108.446 77.8538 108.565C77.8077 108.684 77.7363 108.801 77.6395 108.917C77.5428 109.032 77.4397 109.123 77.3303 109.189C77.2208 109.255 77.1069 109.294 76.9886 109.307C76.8726 109.321 76.7542 109.308 76.6334 109.269C76.5145 109.227 76.3974 109.157 76.2821 109.061L75.8785 108.722L75.1558 109.583L74.6437 109.154ZM76.2228 108.312L76.4975 108.542C76.6174 108.643 76.7188 108.689 76.802 108.682C76.8874 108.677 76.9738 108.622 77.061 108.518L77.1464 108.416C77.2337 108.312 77.2725 108.218 77.263 108.133C77.2557 108.049 77.1922 107.958 77.0723 107.857L76.7976 107.627L76.2228 108.312Z" fill="#333333"/>
<path d="M78.8821 114.091C78.6755 113.734 78.6442 113.399 78.7881 113.087C78.9335 112.779 79.2248 112.498 79.6618 112.246C80.0989 111.993 80.4875 111.881 80.8277 111.91C81.1694 111.941 81.4435 112.135 81.6501 112.493C81.8567 112.851 81.8873 113.184 81.7419 113.493C81.5979 113.805 81.3074 114.087 80.8704 114.339C80.4333 114.591 80.044 114.702 79.7023 114.671C79.3621 114.642 79.0887 114.449 78.8821 114.091ZM79.346 113.823C79.4404 113.987 79.5654 114.065 79.721 114.057C79.8805 114.05 80.0689 113.984 80.2862 113.858L80.7501 113.59C80.9648 113.467 81.1137 113.338 81.197 113.205C81.2843 113.072 81.2807 112.925 81.1862 112.761C81.0918 112.597 80.9648 112.519 80.8052 112.526C80.6497 112.534 80.4645 112.6 80.2498 112.724L79.7821 112.994C79.5674 113.118 79.4164 113.246 79.3292 113.378C79.2459 113.512 79.2515 113.66 79.346 113.823Z" fill="#333333"/>
<path d="M80.6941 119.115C80.649 118.859 80.652 118.629 80.7029 118.425C80.7539 118.222 80.8418 118.049 80.9666 117.907L81.452 118.212C81.3494 118.344 81.2806 118.481 81.2455 118.622C81.211 118.766 81.2058 118.906 81.2298 119.043C81.2575 119.2 81.3134 119.313 81.3975 119.382C81.4816 119.451 81.5891 119.474 81.7199 119.451C81.8274 119.432 81.9031 119.386 81.9471 119.312C81.9915 119.241 82.0123 119.13 82.0094 118.977L82.0056 118.65C82.004 118.368 82.0694 118.153 82.2019 118.004C82.3373 117.854 82.517 117.759 82.7407 117.72C83.0343 117.668 83.2779 117.724 83.4716 117.888C83.6682 118.051 83.797 118.305 83.8579 118.651C83.8995 118.887 83.8993 119.098 83.8573 119.285C83.8154 119.472 83.7415 119.631 83.6355 119.76L83.1559 119.463C83.2317 119.366 83.2845 119.257 83.3145 119.138C83.3473 119.019 83.3514 118.889 83.3268 118.749C83.2751 118.456 83.1286 118.33 82.8873 118.373C82.7827 118.391 82.7099 118.437 82.6688 118.51C82.6283 118.586 82.608 118.701 82.608 118.854L82.6074 119.182C82.6074 119.437 82.548 119.643 82.4291 119.802C82.3103 119.961 82.1303 120.062 81.889 120.104C81.7466 120.129 81.61 120.128 81.4792 120.1C81.3513 120.072 81.2336 120.016 81.1261 119.933C81.0215 119.85 80.9317 119.74 80.8566 119.603C80.7821 119.469 80.7279 119.307 80.6941 119.115Z" fill="#333333"/>
<path d="M80.9042 123.845L81.3881 123.93L81.2728 124.584L83.348 124.95L83.4633 124.296L83.9473 124.381L83.6013 126.343L83.1174 126.258L83.2327 125.604L81.1575 125.238L81.0422 125.892L80.5583 125.807L80.9042 123.845Z" fill="#333333"/>
<path d="M80.8599 130.542L80.8843 130.5L79.1054 129.473L79.3887 128.982L82.0647 130.527L81.6663 131.217L79.5355 130.799L79.5111 130.842L81.29 131.869L81.0067 132.359L78.3307 130.814L78.7291 130.124L80.8599 130.542Z" fill="#333333"/>
<path d="M75.1008 134.88L75.1313 134.854C75.11 134.787 75.095 134.719 75.0864 134.649C75.0779 134.579 75.0799 134.508 75.0925 134.436C75.107 134.366 75.1351 134.296 75.1768 134.226C75.2163 134.159 75.2722 134.094 75.3445 134.034C75.4598 133.937 75.5855 133.878 75.7214 133.856C75.8551 133.836 75.9961 133.853 76.1444 133.906C76.2927 133.959 76.4453 134.046 76.6022 134.169C76.7568 134.293 76.9128 134.45 77.0702 134.637C77.4079 135.04 77.5924 135.409 77.6238 135.745C77.6571 136.083 77.52 136.381 77.2125 136.639C77.0904 136.741 76.9688 136.814 76.8477 136.858C76.7284 136.904 76.6104 136.924 76.4936 136.918C76.3765 136.916 76.2613 136.892 76.1482 136.844C76.035 136.796 75.9233 136.732 75.8131 136.651L76.1911 136.138C76.2464 136.176 76.3021 136.21 76.3581 136.24C76.4138 136.274 76.4703 136.298 76.5278 136.312C76.5853 136.325 76.6429 136.325 76.7007 136.311C76.7604 136.3 76.8196 136.269 76.8784 136.22C77.0072 136.112 77.0542 135.982 77.0193 135.83C76.9821 135.68 76.8829 135.509 76.7217 135.317L76.3973 134.93C76.236 134.738 76.0788 134.608 75.9255 134.54C75.77 134.474 75.6187 134.503 75.4718 134.626C75.3565 134.723 75.299 134.829 75.2994 134.944C75.2998 135.059 75.3446 135.17 75.4338 135.276L75.5789 135.449L75.9824 135.111L76.2841 135.47L75.4261 136.19L74.3647 134.925L74.8191 134.544L75.1008 134.88Z" fill="#333333"/>
<path d="M64.6372 140.406V137.861H65.3013V140.406H66.1911V140.951H63.7474V140.406H64.6372Z" fill="#333333"/>
<path d="M58.7826 137.992L59.5148 138.258L59.9569 137.044L60.585 137.272L59.5282 140.176L58.9 139.947L59.3285 138.77L58.5964 138.503L58.1679 139.681L57.5397 139.452L58.5966 136.548L59.2247 136.777L58.7826 137.992Z" fill="#333333"/>
<path d="M54.7246 134.013C55.0411 134.279 55.185 134.582 55.1563 134.924C55.1253 135.264 54.9476 135.628 54.6232 136.014C54.2988 136.401 53.9719 136.639 53.6424 136.728C53.3107 136.816 52.9866 136.727 52.6701 136.461C52.3536 136.196 52.2108 135.893 52.2418 135.553C52.2706 135.211 52.4472 134.847 52.7716 134.46C53.096 134.074 53.424 133.837 53.7557 133.749C54.0851 133.659 54.4081 133.747 54.7246 134.013ZM54.3803 134.423C54.2356 134.302 54.0915 134.272 53.9481 134.332C53.8005 134.393 53.6461 134.52 53.4849 134.712L53.1406 135.123C52.9812 135.312 52.8852 135.484 52.8526 135.638C52.8158 135.792 52.8697 135.93 53.0144 136.051C53.1591 136.173 53.3052 136.203 53.4528 136.142C53.5962 136.081 53.7476 135.956 53.907 135.766L54.2541 135.352C54.4135 135.162 54.5116 134.99 54.5484 134.836C54.581 134.682 54.525 134.545 54.3803 134.423Z" fill="#333333"/>
<path d="M48.7676 131.806L50.4621 130.828C50.5465 130.779 50.6229 130.731 50.6916 130.685C50.7561 130.637 50.8061 130.588 50.8414 130.537C50.8752 130.483 50.8921 130.424 50.8922 130.359C50.8897 130.296 50.8641 130.222 50.8154 130.138C50.7667 130.054 50.7156 129.995 50.662 129.961C50.6058 129.928 50.5468 129.915 50.485 129.92C50.4217 129.922 50.354 129.941 50.2821 129.976C50.2061 130.009 50.1259 130.05 50.0416 130.099L48.347 131.078L48.015 130.502L49.6329 129.568C49.8169 129.462 49.9853 129.382 50.1381 129.328C50.2894 129.271 50.4309 129.251 50.5628 129.267C50.6947 129.282 50.819 129.339 50.9358 129.435C51.0527 129.531 51.1672 129.676 51.2793 129.87C51.3915 130.064 51.4599 130.236 51.4848 130.385C51.5096 130.535 51.4959 130.67 51.4438 130.792C51.3916 130.915 51.3039 131.028 51.1806 131.134C51.0559 131.236 50.9015 131.341 50.7175 131.447L49.0996 132.381L48.7676 131.806Z" fill="#333333"/>
<path d="M48.7986 124.151L48.8055 124.19C48.874 124.205 48.9407 124.226 49.0055 124.254C49.0703 124.281 49.1308 124.318 49.1871 124.365C49.2404 124.413 49.2868 124.472 49.3263 124.543C49.3652 124.611 49.3929 124.692 49.4093 124.785C49.4355 124.933 49.4239 125.071 49.3747 125.2C49.3249 125.326 49.2401 125.439 49.1202 125.541C49.0004 125.643 48.8481 125.732 48.6634 125.806C48.4783 125.878 48.2651 125.935 48.0239 125.977C47.5065 126.069 47.0946 126.044 46.7881 125.903C46.4786 125.763 46.2891 125.495 46.2194 125.1C46.1917 124.943 46.1892 124.801 46.2117 124.674C46.2314 124.548 46.2731 124.436 46.3367 124.338C46.3969 124.237 46.4759 124.15 46.5737 124.075C46.6715 124.001 46.7829 123.937 46.9081 123.882L47.1639 124.466C47.1031 124.495 47.0456 124.526 46.9916 124.559C46.9342 124.59 46.8853 124.627 46.8449 124.67C46.8045 124.714 46.7759 124.764 46.759 124.82C46.7391 124.878 46.7359 124.944 46.7492 125.02C46.7784 125.186 46.8675 125.291 47.0164 125.337C47.1648 125.38 47.3625 125.379 47.6095 125.336L48.1065 125.248C48.3536 125.205 48.5448 125.133 48.6802 125.035C48.8151 124.933 48.8659 124.788 48.8326 124.599C48.8065 124.45 48.7434 124.348 48.6434 124.29C48.5434 124.233 48.4251 124.217 48.2885 124.241L48.0661 124.28L48.1576 124.799L47.6955 124.88L47.501 123.777L49.1272 123.49L49.2302 124.075L48.7986 124.151Z" fill="#333333"/>
<path d="M48.1338 118.544L47.9985 119.311L49.2716 119.536L49.1555 120.194L46.1124 119.657L46.2285 118.999L47.4623 119.216L47.5976 118.449L46.3638 118.232L46.4799 117.573L49.5229 118.11L49.4069 118.768L48.1338 118.544Z" fill="#333333"/>
<path d="M49.1956 112.386L51.4001 113.659L51.0681 114.234L48.8636 112.961L48.4187 113.732L47.9471 113.46L49.169 111.343L49.6405 111.616L49.1956 112.386Z" fill="#333333"/>
<path d="M54.792 109.775C54.593 109.942 54.3926 110.055 54.1906 110.112C53.9886 110.17 53.795 110.18 53.6097 110.143L53.6316 109.57C53.7972 109.593 53.9498 109.584 54.0895 109.544C54.2314 109.502 54.3555 109.436 54.4618 109.347C54.5839 109.245 54.6538 109.14 54.6716 109.033C54.6893 108.925 54.6556 108.821 54.5702 108.719C54.5 108.635 54.422 108.593 54.3362 108.592C54.2527 108.588 54.1457 108.626 54.0152 108.705L53.7335 108.872C53.4906 109.014 53.2715 109.065 53.076 109.025C52.8786 108.983 52.7068 108.874 52.5608 108.7C52.3692 108.472 52.2958 108.233 52.3407 107.983C52.3837 107.732 52.5397 107.493 52.8087 107.267C52.9918 107.113 53.1749 107.008 53.358 106.951C53.5411 106.893 53.7152 106.878 53.8805 106.905L53.8625 107.469C53.7404 107.452 53.6203 107.461 53.5021 107.494C53.3821 107.526 53.2678 107.587 53.1593 107.678C52.9309 107.87 52.8955 108.059 53.0529 108.247C53.1212 108.328 53.1973 108.368 53.2812 108.367C53.3673 108.364 53.4766 108.325 53.609 108.248L53.8935 108.085C54.1141 107.957 54.3229 107.905 54.5199 107.929C54.7168 107.952 54.894 108.058 55.0515 108.246C55.1445 108.356 55.2116 108.475 55.2528 108.603C55.2921 108.728 55.3028 108.857 55.2847 108.992C55.2648 109.124 55.2144 109.257 55.1336 109.39C55.0551 109.522 54.9412 109.65 54.792 109.775Z" fill="#333333"/>
<path d="M71.1336 137.867C71.1336 138.168 70.8901 138.411 70.5897 138.411C70.2892 138.411 70.0457 138.168 70.0457 137.867C70.0457 137.567 70.2892 137.323 70.5897 137.323C70.8901 137.323 71.1336 137.567 71.1336 137.867Z" fill="#333333"/>
<path d="M59.6712 105.899C59.6712 106.2 59.4276 106.443 59.1272 106.443C58.8268 106.443 58.5833 106.2 58.5833 105.899C58.5833 105.599 58.8268 105.356 59.1272 105.356C59.4276 105.356 59.6712 105.599 59.6712 105.899Z" fill="#333333"/>
</svg>
