<svg width="274" height="200" viewBox="0 0 274 200" fill="none" xmlns="http://www.w3.org/2000/svg">
<path d="M25.793 0.179565C12.0204 0.179565 0.855469 11.3445 0.855469 25.1171V181.867C0.855469 191.705 8.83037 199.68 18.668 199.68H246.879C256.295 199.68 264.085 192.35 264.658 182.951L273.13 44.0137C273.588 36.4934 269.324 29.8316 262.964 26.8201C260.198 20.5709 253.942 16.2108 246.668 16.2108H89.1712C85.5858 6.83656 76.5059 0.179565 65.8711 0.179565H25.793Z" fill="#12D778"/>
<path d="M15.1055 25.1171C15.1055 19.2145 19.8904 14.4296 25.793 14.4296H65.8711C71.7736 14.4296 76.5586 19.2145 76.5586 25.1171V28.6796C76.5586 29.6633 77.3561 30.4608 78.3398 30.4608H246.668C248.635 30.4608 250.23 32.0558 250.23 34.0233V181.867C250.23 183.835 248.635 185.43 246.668 185.43H18.668C16.7005 185.43 15.1055 183.835 15.1055 181.867V25.1171Z" fill="#333333"/>
<path fill-rule="evenodd" clip-rule="evenodd" d="M25.793 15.4296C20.4427 15.4296 16.1055 19.7668 16.1055 25.1171V181.867C16.1055 183.282 17.2527 184.43 18.668 184.43H246.668C248.083 184.43 249.23 183.282 249.23 181.867V34.0233C249.23 32.6081 248.083 31.4608 246.668 31.4608H78.3398C76.8038 31.4608 75.5586 30.2156 75.5586 28.6796V25.1171C75.5586 19.7668 71.2214 15.4296 65.8711 15.4296H25.793ZM14.1055 25.1171C14.1055 18.6622 19.3381 13.4296 25.793 13.4296H65.8711C72.3259 13.4296 77.5586 18.6622 77.5586 25.1171V28.6796C77.5586 29.111 77.9084 29.4608 78.3398 29.4608H246.668C249.188 29.4608 251.23 31.5035 251.23 34.0233V181.867C251.23 184.387 249.188 186.43 246.668 186.43H18.668C16.1482 186.43 14.1055 184.387 14.1055 181.867V25.1171Z" fill="#333333"/>
<path d="M23.3425 62.6983C23.7191 57.0862 28.3812 52.7264 34.006 52.7264H77.4492C81.8761 52.7264 85.4648 49.1377 85.4648 44.7108Lnan nanL85.4648 44.7108C85.4648 41.7595 87.8573 39.3671 90.8086 39.3671H255.35C257.403 39.3671 259.031 41.0974 258.906 43.1464L250.434 182.084C250.32 183.964 248.762 185.43 246.879 185.43H18.9151C16.8537 185.43 15.2225 183.685 15.3606 181.629L23.3425 62.6983Z" fill="#FFD600"/>
<path fill-rule="evenodd" clip-rule="evenodd" d="M84.4649 44.7108C84.4649 41.2073 87.3051 38.3671 90.8086 38.3671H255.35C257.979 38.3671 260.064 40.5831 259.904 43.2073L251.433 182.145C251.286 184.552 249.291 186.43 246.879 186.43H18.9151C16.2751 186.43 14.1861 184.196 14.3629 181.562L22.3448 62.6313C22.7567 56.4941 27.855 51.7264 34.006 51.7264H77.4493C81.3239 51.7264 84.4649 48.5854 84.4649 44.7108ZM90.8086 40.3671C88.4097 40.3671 86.4649 42.3118 86.4649 44.7108C86.4649 49.69 82.4285 53.7264 77.4493 53.7264H34.006C28.9076 53.7264 24.6817 57.6782 24.3403 62.7652L16.3584 181.695C16.2591 183.175 17.4324 184.43 18.9151 184.43H246.879C248.233 184.43 249.354 183.375 249.436 182.023L257.908 43.0855C257.998 41.6117 256.827 40.3671 255.35 40.3671H90.8086Z" fill="#333333"/>
<path d="M49.32 123.447C49.1347 123.447 48.9739 123.415 48.8377 123.349C48.7014 123.281 48.5883 123.184 48.4984 123.059C48.4112 122.934 48.3458 122.78 48.3022 122.597C48.2613 122.415 48.2409 122.206 48.2409 121.972C48.2409 121.74 48.2613 121.533 48.3022 121.351C48.3458 121.165 48.4112 121.01 48.4984 120.885C48.5883 120.759 48.7014 120.664 48.8377 120.598C48.9739 120.53 49.1347 120.496 49.32 120.496C49.6906 120.496 49.9631 120.626 50.1375 120.885C50.3119 121.143 50.3991 121.506 50.3991 121.972C50.3991 122.438 50.3119 122.8 50.1375 123.059C49.9631 123.318 49.6906 123.447 49.32 123.447ZM49.32 123.01C49.4154 123.01 49.4957 122.992 49.5611 122.957C49.6265 122.919 49.6783 122.866 49.7165 122.797C49.7573 122.729 49.7859 122.646 49.8023 122.548C49.8214 122.447 49.8309 122.336 49.8309 122.213V121.727C49.8309 121.481 49.7928 121.288 49.7165 121.146C49.6429 121.004 49.5107 120.934 49.32 120.934C49.1292 120.934 48.9957 121.004 48.9194 121.146C48.8458 121.288 48.809 121.481 48.809 121.727V122.217C48.809 122.462 48.8458 122.656 48.9194 122.797C48.9957 122.939 49.1292 123.01 49.32 123.01Z" fill="#333333"/>
<path d="M53.3555 123.006L54.3313 120.325L55.3492 120.695C55.6104 120.79 55.7831 120.937 55.8673 121.136C55.9515 121.335 55.947 121.562 55.8538 121.818C55.7606 122.074 55.6178 122.251 55.4255 122.35C55.2332 122.448 55.0064 122.449 54.7453 122.354L54.2306 122.167L53.8587 123.189L53.3555 123.006ZM54.3801 121.756L54.7911 121.906C54.9268 121.955 55.0339 121.964 55.1124 121.931C55.1918 121.896 55.2534 121.819 55.2972 121.698L55.3503 121.552C55.3941 121.432 55.3964 121.334 55.357 121.259C55.3187 121.181 55.2316 121.118 55.0959 121.068L54.6849 120.919L54.3801 121.756Z" fill="#333333"/>
<path d="M57.9664 125.357L59.8003 123.172L60.63 123.868C60.8429 124.047 60.955 124.244 60.9661 124.459C60.9772 124.675 60.8952 124.887 60.7201 125.096C60.5449 125.305 60.3502 125.422 60.1359 125.449C59.9215 125.475 59.7079 125.399 59.495 125.221L59.0754 124.868L58.3766 125.701L57.9664 125.357ZM59.3566 124.533L59.6916 124.815C59.8022 124.907 59.8999 124.952 59.9847 124.948C60.0713 124.943 60.1557 124.891 60.238 124.793L60.3379 124.674C60.4202 124.576 60.4557 124.485 60.4445 124.401C60.435 124.314 60.375 124.225 60.2644 124.132L59.9293 123.851L59.3566 124.533Z" fill="#333333"/>
<path d="M61.9022 129.947C61.8095 129.787 61.7575 129.631 61.746 129.481C61.7368 129.329 61.7641 129.182 61.8277 129.042C61.8926 128.904 61.9933 128.77 62.1296 128.641C62.2672 128.514 62.4376 128.392 62.6405 128.275C62.8411 128.159 63.0307 128.073 63.2092 128.018C63.3915 127.963 63.5587 127.942 63.7108 127.954C63.8644 127.97 64.0035 128.02 64.1283 128.105C64.2554 128.189 64.3653 128.311 64.4579 128.472C64.6432 128.793 64.6674 129.093 64.5304 129.374C64.3934 129.654 64.1231 129.911 63.7196 130.144C63.316 130.377 62.9586 130.483 62.6472 130.461C62.3358 130.44 62.0875 130.268 61.9022 129.947ZM62.2809 129.729C62.3286 129.811 62.3841 129.872 62.4475 129.911C62.5133 129.949 62.5852 129.967 62.6632 129.966C62.7427 129.967 62.829 129.95 62.9221 129.915C63.0189 129.882 63.1205 129.834 63.2267 129.773L63.6479 129.529C63.8603 129.407 64.0088 129.277 64.0933 129.14C64.1793 129.006 64.1745 128.856 64.0792 128.69C63.9838 128.525 63.8557 128.445 63.6948 128.45C63.5353 128.457 63.3494 128.522 63.137 128.644L62.7122 128.89C62.4998 129.012 62.3506 129.141 62.2647 129.276C62.1802 129.412 62.1856 129.564 62.2809 129.729Z" fill="#333333"/>
<path d="M63.5963 134.649C63.5537 134.407 63.5589 134.193 63.6118 134.007C63.6652 133.823 63.7508 133.665 63.8688 133.534L64.2549 133.794C64.1526 133.92 64.0826 134.048 64.0449 134.179C64.0103 134.313 64.0053 134.449 64.0299 134.589C64.0583 134.75 64.1163 134.867 64.2039 134.94C64.2915 135.013 64.4037 135.038 64.5406 135.013C64.6533 134.994 64.7321 134.947 64.7771 134.872C64.8248 134.797 64.8472 134.681 64.8444 134.524L64.8402 134.218C64.8399 133.949 64.9012 133.748 65.024 133.613C65.1495 133.477 65.3102 133.392 65.5061 133.357C65.7745 133.31 65.9952 133.361 66.1681 133.51C66.3438 133.659 66.4589 133.888 66.5133 134.197C66.5521 134.417 66.5505 134.612 66.5087 134.783C66.4673 134.956 66.3948 135.102 66.291 135.219L65.9063 134.968C65.9816 134.877 66.0355 134.775 66.0681 134.661C66.1033 134.547 66.1083 134.419 66.0833 134.277C66.0293 133.971 65.8762 133.84 65.624 133.884C65.5166 133.903 65.4405 133.95 65.3955 134.024C65.3505 134.099 65.3283 134.216 65.3289 134.376L65.3284 134.68C65.3258 134.932 65.2678 135.129 65.1545 135.27C65.0411 135.412 64.8798 135.502 64.6705 135.538C64.539 135.562 64.4142 135.56 64.2961 135.534C64.1807 135.507 64.075 135.457 63.9789 135.382C63.8854 135.307 63.8056 135.208 63.7395 135.084C63.6739 134.963 63.6261 134.818 63.5963 134.649Z" fill="#333333"/>
<path d="M63.7861 139.07L64.1806 139.14L64.0692 139.772L66.0899 140.128L66.2013 139.496L66.5958 139.566L66.2807 141.353L65.8862 141.283L65.9976 140.651L63.9769 140.295L63.8655 140.927L63.471 140.858L63.7861 139.07Z" fill="#333333"/>
<path d="M63.8819 145.329L63.9023 145.294L62.1289 144.27L62.3578 143.874L64.8286 145.3L64.4995 145.87L62.3521 145.494L62.3317 145.529L64.1051 146.553L63.8762 146.95L61.4054 145.523L61.7345 144.953L63.8819 145.329Z" fill="#333333"/>
<path d="M58.3393 149.36L58.3643 149.339C58.3463 149.279 58.3334 149.217 58.3255 149.152C58.3176 149.088 58.3203 149.023 58.3337 148.959C58.3471 148.894 58.373 148.83 58.4116 148.765C58.448 148.703 58.5006 148.643 58.5695 148.585C58.7908 148.399 59.0403 148.355 59.318 148.453C59.5953 148.555 59.882 148.782 60.1781 149.135C60.4898 149.506 60.6613 149.846 60.6923 150.154C60.7234 150.463 60.6001 150.733 60.3224 150.966C60.2139 151.057 60.1066 151.123 60.0007 151.162C59.8927 151.202 59.7876 151.221 59.6853 151.218C59.581 151.217 59.4794 151.195 59.3805 151.154C59.2813 151.116 59.1852 151.065 59.0922 151.001L59.3786 150.579C59.4317 150.613 59.4861 150.644 59.5416 150.672C59.5951 150.702 59.6496 150.72 59.7051 150.727C59.7603 150.737 59.8156 150.735 59.871 150.721C59.9282 150.708 59.986 150.678 60.0444 150.629C60.1801 150.515 60.2316 150.379 60.199 150.222C60.1664 150.064 60.0712 149.891 59.9136 149.703L59.6193 149.353C59.5405 149.259 59.4616 149.177 59.3825 149.109C59.3031 149.044 59.224 148.996 59.1454 148.966C59.0668 148.936 58.9894 148.926 58.913 148.937C58.8384 148.95 58.7635 148.988 58.6883 149.051C58.5714 149.149 58.5116 149.258 58.5089 149.377C58.5079 149.499 58.5529 149.614 58.644 149.723L58.7938 149.901L59.1914 149.568L59.441 149.865L58.677 150.506L57.7181 149.363L58.0844 149.056L58.3393 149.36Z" fill="#333333"/>
<path d="M48.6549 153.54V151.129H49.1863V153.54H50.0446V153.982H47.7966V153.54H48.6549Z" fill="#333333"/>
<path d="M43.0904 152.251L43.874 152.537L44.2934 151.384L44.7965 151.567L43.8207 154.248L43.3176 154.065L43.723 152.951L42.9394 152.666L42.534 153.78L42.0309 153.597L43.0067 150.916L43.5098 151.099L43.0904 152.251Z" fill="#333333"/>
<path d="M39.3611 148.539C39.5031 148.659 39.6052 148.787 39.6675 148.925C39.7281 149.064 39.7526 149.211 39.7409 149.365C39.7271 149.517 39.6782 149.677 39.5943 149.845C39.5082 150.011 39.3899 150.184 39.2393 150.363C39.0904 150.541 38.9416 150.686 38.7929 150.8C38.6404 150.914 38.4905 150.991 38.3431 151.031C38.1937 151.069 38.0457 151.069 37.8993 151.032C37.7512 150.996 37.6061 150.919 37.4642 150.8C37.1803 150.562 37.0547 150.288 37.0875 149.977C37.1203 149.667 37.2865 149.333 37.586 148.976C37.8855 148.619 38.1853 148.398 38.4853 148.311C38.7853 148.225 39.0772 148.301 39.3611 148.539ZM39.08 148.874C39.0069 148.813 38.934 148.775 38.8611 148.76C38.7865 148.747 38.7127 148.755 38.6396 148.782C38.5645 148.808 38.4892 148.854 38.4136 148.918C38.3342 148.983 38.2551 149.063 38.1763 149.157L37.8636 149.529C37.706 149.717 37.6108 149.89 37.5782 150.047C37.5435 150.203 37.5992 150.342 37.7453 150.465C37.8914 150.588 38.0392 150.619 38.1888 150.56C38.3362 150.498 38.4888 150.374 38.6464 150.186L38.9617 149.81C39.1193 149.622 39.2155 149.451 39.2502 149.295C39.2829 149.137 39.2261 148.997 39.08 148.874Z" fill="#333333"/>
<path d="M33.8504 146.502L35.3902 145.613C35.4823 145.56 35.5635 145.51 35.6339 145.463C35.703 145.414 35.7567 145.363 35.795 145.309C35.8295 145.254 35.8467 145.194 35.8464 145.128C35.8447 145.06 35.818 144.981 35.7662 144.891C35.7145 144.802 35.6601 144.74 35.6032 144.707C35.5449 144.671 35.4841 144.656 35.421 144.661C35.3541 144.665 35.2827 144.686 35.2068 144.723C35.1295 144.759 35.0449 144.803 34.9529 144.856L33.413 145.745L33.1453 145.281L34.6143 144.433C34.789 144.332 34.9473 144.255 35.0894 144.201C35.2314 144.148 35.3638 144.126 35.4866 144.137C35.6093 144.148 35.7251 144.196 35.834 144.281C35.9391 144.365 36.0428 144.496 36.145 144.673C36.2472 144.85 36.3091 145.006 36.3306 145.141C36.3484 145.276 36.3314 145.399 36.2795 145.511C36.2276 145.622 36.1429 145.726 36.0254 145.823C35.9079 145.919 35.7618 146.017 35.5872 146.118L34.1181 146.966L33.8504 146.502Z" fill="#333333"/>
<path d="M33.837 139.299L33.8427 139.331C33.9033 139.345 33.9635 139.365 34.0233 139.391C34.0831 139.416 34.1377 139.451 34.1869 139.495C34.2361 139.539 34.279 139.593 34.3155 139.659C34.3514 139.722 34.3772 139.797 34.3928 139.886C34.443 140.17 34.3563 140.408 34.1328 140.6C33.9061 140.789 33.5659 140.924 33.1124 141.004C32.6348 141.088 32.2546 141.067 31.9721 140.939C31.6896 140.812 31.5168 140.57 31.4539 140.213C31.4293 140.074 31.4266 139.948 31.4457 139.837C31.4643 139.723 31.5006 139.622 31.5544 139.536C31.6078 139.446 31.6771 139.369 31.7626 139.304C31.8448 139.237 31.937 139.179 32.0391 139.13L32.2612 139.589C32.2054 139.619 32.1515 139.65 32.0994 139.684C32.0469 139.716 32.0038 139.754 31.9701 139.798C31.9334 139.841 31.9074 139.89 31.8922 139.945C31.8744 140.001 31.8721 140.066 31.8853 140.141C31.9161 140.316 32.0079 140.428 32.1606 140.479C32.3134 140.529 32.5106 140.533 32.7521 140.491L33.203 140.411C33.3237 140.39 33.4337 140.362 33.5328 140.328C33.6288 140.292 33.7095 140.247 33.7748 140.194C33.8402 140.141 33.8873 140.079 33.9162 140.007C33.9424 139.936 33.947 139.852 33.93 139.756C33.9035 139.606 33.8391 139.499 33.7368 139.437C33.6318 139.375 33.5096 139.357 33.37 139.381L33.1406 139.422L33.2307 139.933L32.8483 140L32.6751 139.018L34.1444 138.759L34.2274 139.23L33.837 139.299Z" fill="#333333"/>
<path d="M33.2002 134.047L33.0554 134.869L34.2631 135.081L34.1701 135.609L31.3604 135.113L31.4534 134.586L32.6207 134.792L32.7655 133.971L31.5982 133.765L31.6911 133.238L34.5008 133.733L34.4078 134.26L33.2002 134.047Z" fill="#333333"/>
<path d="M34.1476 128.378L36.2361 129.584L35.9704 130.044L33.8819 128.838L33.4527 129.581L33.0704 129.361L34.1945 127.414L34.5768 127.634L34.1476 128.378Z" fill="#333333"/>
<path d="M39.4327 125.913C39.2448 126.07 39.057 126.173 38.8691 126.22C38.6833 126.266 38.5039 126.271 38.3311 126.234L38.363 125.77C38.5233 125.796 38.6696 125.792 38.8021 125.759C38.9349 125.722 39.0556 125.658 39.1641 125.567C39.2894 125.462 39.3617 125.353 39.3812 125.241C39.4007 125.129 39.3658 125.019 39.2765 124.913C39.2029 124.825 39.1227 124.78 39.0358 124.778C38.9472 124.775 38.8355 124.813 38.7008 124.894L38.4375 125.051C38.2053 125.185 37.9999 125.233 37.8215 125.194C37.6413 125.154 37.4873 125.057 37.3595 124.905C37.1843 124.696 37.1181 124.479 37.161 124.255C37.2021 124.028 37.3427 123.814 37.5827 123.613C37.7539 123.469 37.9238 123.373 38.0925 123.324C38.2633 123.273 38.4257 123.263 38.5797 123.294L38.554 123.753C38.4378 123.733 38.3223 123.737 38.2076 123.766C38.0912 123.793 37.9776 123.852 37.867 123.945C37.629 124.145 37.5924 124.343 37.757 124.539C37.8271 124.622 37.9055 124.665 37.9924 124.667C38.0793 124.669 38.192 124.629 38.3306 124.549L38.5933 124.397C38.8131 124.274 39.0127 124.225 39.1921 124.253C39.3715 124.28 39.5295 124.375 39.6662 124.538C39.752 124.64 39.8131 124.749 39.8494 124.864C39.884 124.977 39.8931 125.094 39.8767 125.215C39.8587 125.333 39.8125 125.452 39.7382 125.571C39.6661 125.689 39.5642 125.802 39.4327 125.913Z" fill="#333333"/>
<path d="M54.6123 151.978C54.6123 152.256 54.3874 152.481 54.1101 152.481C53.8327 152.481 53.6078 152.256 53.6078 151.978C53.6078 151.701 53.8327 151.476 54.1101 151.476C54.3874 151.476 54.6123 151.701 54.6123 151.978Z" fill="#333333"/>
<path d="M44.0292 122.462C44.0292 122.739 43.8043 122.964 43.5269 122.964C43.2495 122.964 43.0247 122.739 43.0247 122.462C43.0247 122.185 43.2495 121.96 43.5269 121.96C43.8043 121.96 44.0292 122.185 44.0292 122.462Z" fill="#333333"/>
<path d="M169.199 80.2811C172.086 80.2811 173.779 80.0699 174.888 79.8538C175.338 79.7661 175.691 79.6777 175.975 79.6064L175.978 79.6057C176.041 79.5899 176.101 79.5749 176.158 79.561C176.477 79.4826 176.68 79.4429 176.876 79.4429C177.34 79.4429 177.691 79.6314 177.972 79.9584C178.265 80.2991 178.484 80.7956 178.629 81.3878C178.92 82.5737 178.879 83.9948 178.705 84.8612C178.576 85.5047 178.308 86.1873 177.9 86.6986C177.498 87.2009 176.979 87.5212 176.312 87.5212C175.932 87.5212 175.685 87.4644 175.518 87.3882C175.357 87.3151 175.245 87.2136 175.149 87.079C175.045 86.9347 174.963 86.7561 174.862 86.5197L174.823 86.4262C174.736 86.2202 174.635 85.9797 174.504 85.7408C174.187 85.1621 173.693 84.585 172.73 84.1637C171.788 83.7517 170.417 83.4978 168.357 83.4978C167.167 83.4978 166.252 83.5493 165.544 83.7159C164.819 83.8864 164.282 84.1843 163.885 84.6893C163.503 85.1748 163.284 85.8111 163.099 86.5794C162.979 87.0766 162.866 87.6646 162.737 88.3398C162.667 88.7054 162.591 89.0972 162.508 89.5133C162.387 90.1141 162.295 90.6085 162.275 90.9972C162.256 91.3806 162.3 91.771 162.567 92.0681C162.827 92.3564 163.211 92.4581 163.602 92.5066C164.005 92.5565 164.53 92.561 165.175 92.561C166.115 92.561 166.757 92.2145 167.208 91.674C167.631 91.166 167.866 90.5053 168.066 89.9378L168.073 89.9192C168.283 89.3237 168.458 88.8264 168.739 88.4627C168.994 88.1332 169.34 87.9089 169.958 87.9089C170.399 87.9089 170.677 88.1027 170.878 88.4513C171.096 88.8307 171.215 89.3907 171.251 90.0594C171.321 91.3878 171.054 92.9334 170.89 93.7463C170.721 94.5905 170.315 96.2376 169.646 97.663C169.311 98.3766 168.921 99.0091 168.481 99.4572C168.044 99.9028 167.589 100.136 167.106 100.136C166.833 100.136 166.701 100.079 166.636 100.033C166.577 99.9893 166.526 99.9194 166.489 99.7807C166.45 99.6335 166.437 99.4412 166.439 99.1925C166.44 99.0707 166.444 98.9435 166.449 98.8073L166.449 98.7937C166.454 98.6634 166.458 98.5254 166.46 98.3866C166.466 97.8328 166.43 97.1413 166.011 96.5973C165.574 96.0281 164.818 95.7358 163.673 95.7358C163.156 95.7358 162.72 95.8513 162.358 96.0694C161.997 96.2868 161.737 96.5895 161.544 96.922C161.193 97.5283 161.041 98.2889 160.916 98.9147L160.894 99.0271C160.587 100.554 160.38 101.71 160.321 102.576C160.263 103.425 160.334 104.108 160.704 104.593C161.087 105.093 161.694 105.263 162.377 105.334C162.941 105.392 163.653 105.39 164.498 105.387C164.684 105.386 164.877 105.386 165.075 105.386C167.316 105.386 168.947 105.008 170.186 104.419C171.428 103.829 172.247 103.041 172.88 102.268C173.163 101.924 173.41 101.58 173.636 101.265L173.711 101.161C173.962 100.813 174.185 100.511 174.419 100.256C174.871 99.7644 175.336 99.4764 176.053 99.4764C176.531 99.4764 176.827 99.7207 177.005 100.115C177.195 100.536 177.233 101.107 177.129 101.626C176.859 102.968 175.918 104.901 174.815 106.512C174.266 107.313 173.692 108.013 173.161 108.507C172.896 108.754 172.651 108.941 172.435 109.064C172.215 109.189 172.053 109.231 171.946 109.231C171.837 109.231 171.633 109.206 171.313 109.158C171.209 109.142 171.095 109.124 170.971 109.105L170.968 109.104C170.733 109.067 170.465 109.025 170.179 108.984L170.168 108.983L170.156 108.981C170.055 108.972 169.95 108.963 169.842 108.953C168.972 108.872 167.882 108.77 166.567 108.77H148.997C147.621 108.77 147.158 108.458 147.003 108.252C146.847 108.044 146.875 107.783 146.931 107.501C147.025 107.033 147.208 106.819 147.43 106.667C147.554 106.581 147.702 106.508 147.886 106.429C147.946 106.403 148.015 106.375 148.089 106.344C148.22 106.29 148.367 106.23 148.502 106.168C148.958 105.961 149.464 105.669 149.934 105.114C150.4 104.563 150.807 103.781 151.117 102.625C151.301 101.939 151.468 101.321 151.619 100.758L151.62 100.755C153.158 95.0504 153.162 95.0376 154.163 88.1162C154.414 86.4893 154.367 85.4091 154.114 84.6698C153.847 83.8907 153.365 83.5278 152.887 83.3159C152.721 83.2424 152.545 83.1831 152.401 83.1345C152.356 83.1196 152.315 83.1057 152.278 83.0927C152.1 83.0302 151.992 82.9811 151.921 82.9251C151.865 82.8817 151.823 82.8293 151.799 82.7253C151.771 82.6047 151.765 82.4011 151.833 82.0611C151.94 81.5315 152.193 81.1733 152.536 80.9174C152.889 80.6533 153.357 80.4843 153.9 80.3837C154.743 80.2276 155.661 80.2498 156.461 80.2693C156.711 80.2753 156.949 80.2811 157.17 80.2811H169.199Z" fill="#333333"/>
<path fill-rule="evenodd" clip-rule="evenodd" d="M88.8667 84.2823C89.1447 82.8995 89.7073 81.7288 90.6167 80.9044C91.5203 80.0854 92.8097 79.5686 94.6226 79.5686C96.3056 79.5686 97.5184 80.4025 98.4662 81.6092C99.4253 82.8302 100.083 84.3961 100.64 85.7846C100.873 86.3716 101.955 89.8538 103.094 93.6529C104.23 97.4422 105.407 101.495 105.828 103.202C106.038 104.069 106.391 104.635 106.829 105.011C107.259 105.382 107.733 105.535 108.094 105.644L108.18 105.67C108.328 105.715 108.445 105.75 108.55 105.792C108.669 105.84 108.733 105.883 108.77 105.922C108.815 105.969 108.92 106.109 108.81 106.655C108.688 107.264 108.295 107.737 107.681 108.112C107.06 108.49 106.239 108.748 105.336 108.919C103.657 109.237 101.811 109.233 100.691 109.231L100.449 109.231C97.3713 109.231 94.9815 109.218 93.4213 108.895C92.6391 108.732 92.1448 108.506 91.8728 108.231C91.6325 107.989 91.5185 107.66 91.6264 107.124C91.7069 106.724 91.88 106.485 92.0915 106.315C92.3187 106.132 92.6084 106.012 92.9562 105.89C93.0049 105.873 93.0556 105.855 93.1077 105.838C93.3989 105.738 93.7356 105.622 94.0141 105.455C94.3721 105.24 94.6779 104.917 94.782 104.4C94.8802 103.911 94.9175 103.411 94.6875 102.984C94.4488 102.541 93.992 102.297 93.4111 102.147C92.8268 101.995 92.0241 101.914 90.9608 101.869C89.8912 101.823 88.5272 101.813 86.8069 101.813C85.7196 101.813 84.7309 101.827 83.9675 102.146C83.5687 102.312 83.225 102.563 82.9535 102.931C82.6856 103.295 82.5042 103.751 82.3923 104.308C82.3395 104.57 82.3445 104.819 82.4289 105.047C82.5145 105.278 82.666 105.445 82.833 105.565C82.9941 105.682 83.176 105.76 83.3403 105.82C83.4575 105.862 83.5867 105.902 83.7044 105.939C83.7479 105.952 83.7899 105.965 83.8291 105.978C84.1575 106.082 84.3648 106.174 84.4852 106.305C84.5726 106.401 84.671 106.582 84.5804 107.032C84.4827 107.518 84.187 107.901 83.7267 108.211C83.2589 108.525 82.6391 108.751 81.9497 108.907C80.5706 109.219 79.0327 109.231 78.1759 109.231C76.6591 109.231 75.5153 109.161 74.6578 109.038C73.7953 108.914 73.2505 108.741 72.9124 108.554C72.5884 108.374 72.4707 108.192 72.4216 108.028C72.3657 107.841 72.377 107.609 72.4407 107.291C72.5212 106.891 72.6836 106.648 72.8901 106.47C73.1109 106.28 73.4055 106.144 73.7915 106.003C73.9021 105.963 74.0201 105.923 74.1436 105.88C74.841 105.642 75.715 105.344 76.4446 104.631C77.5129 103.596 78.6788 101.865 79.5525 100.568C79.6683 100.396 79.779 100.232 79.8836 100.078L79.8851 100.075L83.733 94.3335L83.9542 93.9983C84.8532 92.6367 85.8686 91.0986 86.751 89.5139C87.7047 87.8012 88.5204 86.0043 88.8667 84.2823ZM91.0489 90.4969C90.6196 90.4969 90.2435 90.7514 89.9575 91.0147C89.6578 91.2906 89.3773 91.6506 89.1344 92.0058C88.7499 92.5681 88.4199 93.1805 88.2435 93.5077C88.1986 93.5911 88.1636 93.656 88.1403 93.6968C88.0845 93.7943 87.9892 93.9507 87.8688 94.1484L87.8275 94.216C87.6899 94.4421 87.5282 94.7083 87.3713 94.9766C87.2149 95.2441 87.0601 95.5188 86.9369 95.7615C86.8215 95.9889 86.7088 96.2356 86.67 96.4286C86.6099 96.7275 86.6747 97.0144 86.8895 97.2259C87.0744 97.408 87.3187 97.4805 87.5067 97.515C87.7991 97.5686 88.161 97.5581 88.3855 97.5515C88.443 97.5499 88.4916 97.5485 88.5275 97.5485H91.7338C91.7648 97.5485 91.8045 97.5491 91.851 97.5499C92.0773 97.5536 92.4666 97.56 92.8223 97.5069C93.0386 97.4746 93.2831 97.4156 93.4942 97.2967C93.7143 97.1728 93.9256 96.9659 93.9899 96.6461C94.0411 96.3914 93.9946 96.0565 93.9342 95.7572C93.8693 95.4352 93.7694 95.07 93.6611 94.7152C93.4447 94.0058 93.1848 93.3048 93.0709 93.0064C93.047 92.9422 93.0195 92.863 92.9883 92.7732C92.8758 92.4493 92.7153 91.9873 92.5031 91.5912C92.2437 91.1068 91.7923 90.4969 91.0489 90.4969Z" fill="#333333"/>
<path d="M59.5109 79.6944C51.4024 79.6944 46.2449 84.9768 45.4153 89.1021C44.8453 91.9364 45.9587 94.344 47.8517 96.1067C49.6262 97.7634 51.8177 98.5011 53.6831 99.1287C53.8295 99.1779 53.9738 99.2265 54.1158 99.2748C55.0643 99.5974 55.9562 99.923 56.5646 100.387C56.8783 100.626 57.1387 100.917 57.2908 101.285C57.4443 101.655 57.4717 102.066 57.3816 102.514C57.1766 103.533 56.3068 104.13 55.4938 104.462C54.6661 104.801 53.762 104.925 53.2403 104.925C51.2098 104.925 49.7626 104.494 48.6955 103.814C47.6287 103.134 46.9829 102.23 46.5128 101.359C46.2952 100.956 46.1121 100.554 45.9456 100.188L45.9096 100.109C45.7301 99.7148 45.5715 99.3735 45.3987 99.0865C45.2266 98.8006 45.0569 98.5972 44.8709 98.4644C44.6939 98.3379 44.482 98.2609 44.1921 98.2609C43.2334 98.2609 42.5907 99.1093 42.3781 100.167C42.1731 101.186 42.0893 102.782 42.28 104.255C42.3752 104.99 42.5365 105.675 42.7739 106.235C43.0124 106.797 43.311 107.194 43.6577 107.41C44.6762 108.017 46.3268 108.508 48.1089 108.846C49.8818 109.182 51.7311 109.357 53.1105 109.357C62.8943 109.357 67.8995 103.942 68.8372 99.2785C69.1413 97.7663 69.0683 96.5462 68.6712 95.5132C68.2741 94.4804 67.5357 93.5898 66.4309 92.7661C64.6529 91.4349 62.5738 90.8299 60.753 90.3004C60.4481 90.2117 60.1504 90.1251 59.8626 90.0376C58.8887 89.7415 57.981 89.4201 57.3653 88.9253C57.0473 88.6697 56.7924 88.357 56.6489 87.9658C56.5054 87.5745 56.4866 87.1404 56.5825 86.6633C56.9502 84.8347 58.7791 84.2103 60.1765 84.2103C62.5968 84.2103 63.9978 85.5294 65.1069 86.7443C65.2347 86.8843 65.3572 87.0212 65.4761 87.1539C65.8841 87.6097 66.2493 88.0177 66.6422 88.3445C67.1329 88.7527 67.6165 88.9881 68.1932 88.9881C69.4952 88.9881 70.5923 87.7872 70.852 86.4957C71.1798 84.8656 70.7429 83.2904 70.0438 82.1175C69.6946 81.5317 69.2879 81.0599 68.8965 80.7397C68.4928 80.4095 68.1566 80.2811 67.9429 80.2811C67.5871 80.2811 67.2532 80.397 66.89 80.5426L66.7881 80.5837C66.6439 80.6421 66.4895 80.7046 66.3427 80.7534C66.1582 80.8148 65.949 80.8679 65.7302 80.8679C65.5976 80.8679 65.4422 80.8397 65.2945 80.8069C65.1386 80.7722 64.9553 80.7239 64.7544 80.6685C64.6287 80.6339 64.4954 80.5964 64.3548 80.5567C64.0383 80.4676 63.6835 80.3677 63.2944 80.2669C62.1728 79.9764 60.8218 79.6944 59.5109 79.6944Z" fill="#333333"/>
<path d="M135.713 80.8178C135.178 81.1383 134.85 81.5311 134.752 82.0191C134.689 82.3333 134.753 82.4907 134.83 82.5966C134.929 82.7331 135.092 82.8433 135.345 82.996L135.396 83.0266C135.612 83.1563 135.903 83.3307 136.11 83.581C136.365 83.8903 136.477 84.2855 136.376 84.7853C136.34 84.9658 136.256 85.1746 136.157 85.384C136.055 85.6004 135.922 85.8456 135.771 86.1069C135.469 86.6296 135.082 87.2358 134.681 87.8363C133.98 88.8883 133.23 89.9401 132.815 90.5213L132.654 90.7478L132.648 90.7559C132.516 90.9239 132.363 91.1515 132.18 91.4244L132.058 91.6046C131.826 91.9484 131.559 92.336 131.265 92.6959C130.973 93.0539 130.64 93.4024 130.273 93.6581C129.905 93.9138 129.472 94.0972 128.991 94.0692C128.612 94.0512 128.323 93.8662 128.114 93.626C127.913 93.3956 127.778 93.1059 127.679 92.8331C127.579 92.5566 127.505 92.2633 127.443 92.0088L127.417 91.9011C127.365 91.6845 127.323 91.5113 127.278 91.3785L127.273 91.3652L127.27 91.3516C127.164 90.9587 127.042 90.5242 126.916 90.0724L126.915 90.0687C126.696 89.2873 126.463 88.454 126.271 87.6934C126.118 87.0895 125.986 86.517 125.905 86.0354C125.826 85.5762 125.78 85.1304 125.842 84.8192C125.927 84.3981 126.182 84.0988 126.454 83.8723C126.673 83.6903 126.94 83.528 127.18 83.3816C127.228 83.3528 127.274 83.3246 127.319 83.297C127.906 82.9347 128.34 82.6029 128.459 82.0112C128.465 81.9827 128.47 81.9552 128.476 81.9285C128.509 81.7718 128.537 81.6413 128.509 81.4865C128.483 81.3377 128.391 81.1165 128.021 80.8731C127.635 80.6195 126.961 80.3521 125.801 80.1508C124.645 79.9504 123.037 79.8201 120.808 79.8201C119.723 79.8201 117.51 79.8625 115.498 80.2973C114.49 80.5149 113.562 80.825 112.857 81.2573C112.155 81.6876 111.714 82.2127 111.584 82.8574C111.508 83.2383 111.549 83.4965 111.637 83.6538C111.714 83.7931 111.862 83.9174 112.168 83.9638L112.17 83.9641C113.019 84.0962 113.639 84.3124 114.109 84.9529C114.533 85.5315 114.806 86.4297 115.166 87.7668L115.167 87.7706L119.965 106.205L119.966 106.208C120.246 107.223 120.452 107.957 120.852 108.462C121.213 108.918 121.776 109.231 122.922 109.231C123.935 109.231 124.719 108.815 125.417 108.171C126.048 107.588 126.583 106.843 127.138 106.072L127.261 105.9L127.356 105.769L140.815 86.6623C141.937 85.0699 142.586 84.2213 143.217 83.7697C143.822 83.3361 144.406 83.2742 145.172 83.193L145.173 83.1928C145.256 83.1841 145.34 83.1751 145.427 83.1654C146.376 83.0515 147.111 82.585 147.285 81.7178C147.352 81.3862 147.348 81.1455 147.28 80.9601C147.218 80.7896 147.079 80.6077 146.748 80.4348C146.044 80.0668 144.624 79.8201 141.926 79.8201L141.853 79.8201C140.969 79.8198 139.292 79.8194 137.76 80.1158C136.972 80.2685 136.255 80.4942 135.713 80.8178Z" fill="#333333"/>
<path d="M197.225 122.539C196.137 122.757 194.427 122.968 191.542 122.968H179.23C179.007 122.968 178.768 122.962 178.517 122.956C177.718 122.937 176.804 122.914 175.966 123.07C175.425 123.17 174.977 123.335 174.648 123.581C174.34 123.812 174.095 124.143 173.989 124.669C173.921 125.005 173.926 125.216 173.957 125.351C173.986 125.476 174.042 125.552 174.119 125.612C174.205 125.679 174.325 125.732 174.502 125.794C174.541 125.808 174.583 125.822 174.628 125.837C174.772 125.886 174.943 125.943 175.106 126.015C175.566 126.219 176.02 126.561 176.274 127.304C176.521 128.024 176.571 129.093 176.319 130.724C175.317 137.645 175.314 137.658 173.776 143.365L173.775 143.366C173.624 143.929 173.457 144.548 173.273 145.234C172.962 146.39 172.552 147.186 172.071 147.755C171.582 148.332 171.055 148.636 170.589 148.847C170.452 148.909 170.302 148.972 170.169 149.027C170.096 149.057 170.028 149.085 169.971 149.109C169.788 149.188 169.65 149.256 169.537 149.334C169.354 149.459 169.181 149.643 169.087 150.109C169.034 150.371 168.992 150.667 169.179 150.917C169.369 151.17 169.873 151.474 171.231 151.474H188.802C190.117 151.474 191.207 151.576 192.077 151.657C192.185 151.667 192.289 151.676 192.391 151.686L192.402 151.687L192.413 151.688C192.698 151.729 192.966 151.771 193.201 151.808L193.203 151.808C193.326 151.828 193.441 151.846 193.546 151.862C193.866 151.91 194.071 151.935 194.181 151.935C194.398 151.935 194.783 151.755 195.331 151.245C195.851 150.76 196.419 150.069 196.965 149.272C198.062 147.67 198.999 145.746 199.268 144.409C199.371 143.894 199.337 143.308 199.136 142.863C198.938 142.426 198.603 142.163 198.113 142.163C197.742 142.163 197.461 142.24 197.229 142.358C196.993 142.478 196.777 142.657 196.552 142.901C196.324 143.149 196.105 143.446 195.854 143.794L195.779 143.899C195.553 144.213 195.303 144.56 195.018 144.908C194.376 145.691 193.541 146.496 192.275 147.097C191.017 147.695 189.374 148.072 187.135 148.072C186.937 148.072 186.745 148.073 186.56 148.074L186.558 148.074C185.712 148.076 185 148.079 184.437 148.02C183.744 147.949 183.173 147.777 182.822 147.318C182.478 146.869 182.4 146.216 182.459 145.358C182.519 144.493 182.725 143.337 183.032 141.81L183.055 141.694C183.179 141.073 183.332 140.306 183.69 139.689C183.888 139.345 184.164 139.022 184.551 138.788C184.939 138.555 185.391 138.44 185.908 138.44C187.065 138.44 187.784 138.737 188.189 139.263C188.581 139.774 188.622 140.435 188.616 140.997C188.614 141.135 188.609 141.273 188.605 141.404L188.604 141.417C188.6 141.553 188.595 141.681 188.594 141.803C188.593 142.051 188.606 142.251 188.647 142.409C188.687 142.561 188.75 142.658 188.837 142.722C188.925 142.786 189.073 142.841 189.341 142.841C189.808 142.841 190.233 142.62 190.646 142.199C191.07 141.767 191.454 141.148 191.788 140.437C192.454 139.018 192.859 137.375 193.029 136.53C193.192 135.719 193.46 134.171 193.389 132.837C193.354 132.168 193.235 131.591 193.004 131.189C192.78 130.801 192.466 130.596 192.017 130.596C191.696 130.596 191.469 130.657 191.303 130.739C191.14 130.82 191.004 130.938 190.879 131.099C190.609 131.45 190.437 131.938 190.222 132.547L190.221 132.549C190.023 133.11 189.784 133.788 189.345 134.314C189.115 134.59 188.827 134.831 188.463 134.999C188.102 135.165 187.694 135.248 187.234 135.248C186.589 135.248 186.064 135.243 185.663 135.193C185.264 135.144 184.91 135.042 184.678 134.786C184.443 134.524 184.394 134.169 184.414 133.779C184.433 133.392 184.525 132.898 184.646 132.296C184.73 131.881 184.805 131.49 184.875 131.124C185.004 130.448 185.117 129.86 185.237 129.362C185.421 128.599 185.642 127.948 186.039 127.443C186.463 126.904 187.033 126.595 187.769 126.421C188.485 126.253 189.404 126.202 190.592 126.202C192.656 126.202 194.02 126.457 194.949 126.863C195.891 127.275 196.366 127.834 196.672 128.392C196.8 128.625 196.898 128.86 196.985 129.066L197.025 129.161C197.125 129.397 197.212 129.586 197.323 129.742C197.43 129.891 197.558 130.006 197.735 130.087C197.916 130.169 198.169 130.225 198.547 130.225C199.198 130.225 199.68 129.921 200.055 129.451C200.447 128.959 200.714 128.29 200.843 127.644C201.017 126.78 201.059 125.352 200.765 124.152C200.463 122.918 199.863 122.13 198.935 122.13C198.844 122.13 198.729 122.157 198.431 122.241L198.407 122.248C198.13 122.327 197.754 122.433 197.225 122.539Z" fill="#333333"/>
<path fill-rule="evenodd" clip-rule="evenodd" d="M116.005 127.032C116.283 125.65 116.846 124.479 117.755 123.654C118.659 122.835 119.948 122.319 121.761 122.319C123.444 122.319 124.657 123.153 125.605 124.359C126.564 125.58 127.221 127.146 127.779 128.535C128.012 129.122 129.093 132.604 130.232 136.403C131.368 140.192 132.545 144.245 132.966 145.952C133.176 146.819 133.53 147.385 133.968 147.761C134.398 148.132 134.871 148.285 135.232 148.394L135.319 148.421C135.467 148.465 135.583 148.5 135.688 148.542C135.808 148.59 135.872 148.633 135.909 148.672C135.954 148.719 136.058 148.859 135.949 149.405C135.826 150.014 135.434 150.487 134.82 150.862C134.198 151.24 133.377 151.499 132.474 151.669C130.796 151.987 128.949 151.984 127.829 151.981L127.587 151.981C124.51 151.981 122.12 151.968 120.56 151.645C119.778 151.482 119.283 151.256 119.011 150.981C118.771 150.739 118.657 150.41 118.765 149.874C118.845 149.474 119.019 149.235 119.23 149.065C119.457 148.882 119.747 148.762 120.095 148.64C120.143 148.623 120.193 148.606 120.244 148.588L120.246 148.588C120.537 148.488 120.874 148.372 121.153 148.205C121.511 147.99 121.816 147.667 121.921 147.15C122.019 146.661 122.056 146.161 121.826 145.734C121.587 145.291 121.131 145.047 120.55 144.897C119.965 144.745 119.163 144.664 118.099 144.619C117.03 144.573 115.666 144.563 113.945 144.563C112.858 144.563 111.87 144.577 111.106 144.896C110.707 145.062 110.364 145.313 110.092 145.681C109.824 146.045 109.643 146.501 109.531 147.058C109.478 147.32 109.483 147.569 109.567 147.797C109.653 148.028 109.805 148.195 109.972 148.315C110.133 148.432 110.315 148.51 110.479 148.57C110.596 148.612 110.725 148.652 110.843 148.689L110.9 148.707L110.968 148.728C111.296 148.832 111.503 148.924 111.624 149.055C111.711 149.151 111.81 149.332 111.719 149.782C111.621 150.268 111.326 150.651 110.865 150.961C110.397 151.275 109.778 151.501 109.088 151.657C107.709 151.969 106.171 151.981 105.314 151.981C103.798 151.981 102.654 151.911 101.796 151.788C100.934 151.664 100.389 151.491 100.051 151.304C99.727 151.124 99.6093 150.942 99.5602 150.778C99.5042 150.591 99.5155 150.359 99.5793 150.042C99.6597 149.642 99.8221 149.398 100.029 149.22C100.249 149.03 100.544 148.894 100.93 148.753C101.041 148.713 101.159 148.673 101.282 148.63C101.98 148.392 102.853 148.094 103.583 147.381C104.651 146.346 105.817 144.615 106.691 143.318L106.692 143.316C106.808 143.145 106.918 142.981 107.022 142.828L107.024 142.825L110.872 137.083L110.873 137.081L111.093 136.748C111.992 135.387 113.007 133.848 113.89 132.264C114.843 130.551 115.659 128.754 116.005 127.032ZM118.188 133.247C117.758 133.247 117.382 133.501 117.096 133.765C116.796 134.041 116.516 134.401 116.273 134.756C115.889 135.318 115.558 135.93 115.382 136.258L115.381 136.26C115.336 136.342 115.302 136.407 115.279 136.447C115.223 136.544 115.127 136.701 115.007 136.899L114.966 136.966C114.828 137.192 114.667 137.458 114.51 137.727C114.353 137.994 114.199 138.269 114.075 138.512C113.96 138.739 113.847 138.986 113.809 139.179C113.748 139.477 113.813 139.764 114.028 139.976C114.213 140.158 114.457 140.231 114.645 140.265C114.938 140.319 115.3 140.308 115.524 140.302C115.582 140.3 115.63 140.298 115.666 140.298H118.872C118.903 140.298 118.943 140.299 118.99 140.3C119.216 140.304 119.605 140.31 119.961 140.257C120.177 140.225 120.422 140.166 120.633 140.047C120.853 139.923 121.064 139.716 121.128 139.396C121.18 139.141 121.133 138.807 121.073 138.507C121.008 138.185 120.908 137.82 120.8 137.465C120.583 136.756 120.324 136.055 120.21 135.757C120.186 135.693 120.159 135.614 120.128 135.525L120.127 135.524C120.015 135.2 119.854 134.737 119.642 134.341C119.382 133.857 118.931 133.247 118.188 133.247Z" fill="#333333"/>
<path d="M139.033 130.301C139.371 128.621 140.504 126.636 141.871 125.063C142.551 124.28 143.275 123.616 143.965 123.151C144.665 122.679 145.283 122.444 145.763 122.444C145.861 122.444 146.005 122.466 146.252 122.518C146.349 122.539 146.46 122.565 146.579 122.593C146.78 122.64 147.002 122.692 147.216 122.732C148.014 122.86 149.16 123.031 150.903 123.031H161.42C163.294 123.031 164.211 122.859 164.896 122.73C164.954 122.717 165.011 122.701 165.069 122.685L165.126 122.67C165.639 122.531 165.961 122.444 166.625 122.444C166.907 122.444 167.302 122.587 167.742 122.927C168.175 123.261 168.618 123.76 168.992 124.402C169.738 125.684 170.192 127.512 169.759 129.665C169.563 130.64 169.149 131.416 168.561 131.947C167.978 132.474 167.195 132.786 166.205 132.786C165.389 132.786 164.871 132.521 164.499 132.145C164.108 131.751 163.847 131.207 163.612 130.598C163.556 130.454 163.501 130.303 163.445 130.15C163.278 129.693 163.102 129.213 162.885 128.836C162.575 128.299 162.11 127.84 161.342 127.84C160.256 127.84 159.65 128.595 159.331 129.269C159.051 129.859 158.941 130.49 158.9 130.724L158.892 130.769L158.887 130.796L156.3 143.663C156.04 144.954 156.111 145.856 156.439 146.507C156.773 147.17 157.329 147.485 157.814 147.696C157.935 147.748 158.056 147.796 158.167 147.84L158.184 147.846C158.291 147.889 158.39 147.927 158.484 147.968C158.684 148.054 158.83 148.132 158.936 148.222C159.034 148.305 159.099 148.398 159.135 148.526C159.173 148.664 159.185 148.873 159.12 149.195C159.064 149.473 158.963 149.764 158.743 150.051C158.521 150.341 158.16 150.652 157.548 150.939C156.31 151.52 154.095 151.981 150.118 151.981L149.961 151.981C148.793 151.982 146.415 151.984 144.362 151.626C143.282 151.438 142.344 151.158 141.727 150.761C141.423 150.566 141.219 150.356 141.104 150.137C140.994 149.927 140.95 149.68 141.012 149.371C141.105 148.91 141.293 148.642 141.52 148.457C141.763 148.259 142.081 148.131 142.483 148.006C142.578 147.976 142.678 147.947 142.783 147.916C143.504 147.705 144.422 147.438 145.03 146.614L145.034 146.608L145.038 146.601C145.383 146.099 145.72 145.188 145.995 144.326C146.275 143.443 146.51 142.542 146.639 142.012L146.639 142.01L148.844 132.748C149.11 131.636 149.257 130.791 149.313 130.146C149.37 129.508 149.342 129.033 149.231 128.681C149.114 128.307 148.898 128.062 148.607 127.938C148.372 127.839 148.125 127.84 147.99 127.84L147.962 127.84C147.298 127.84 146.706 128.26 146.192 128.73C146.021 128.887 145.846 129.062 145.668 129.248C145.458 129.467 145.244 129.701 145.029 129.937C144.871 130.11 144.712 130.284 144.553 130.454C143.386 131.701 142.158 132.786 140.64 132.786C139.961 132.786 139.52 132.489 139.261 132.059C138.99 131.608 138.898 130.973 139.033 130.301Z" fill="#333333"/>
<path d="M76.2176 123.94C75.5276 124.349 75.1045 124.843 74.9846 125.44C74.9352 125.685 74.9543 125.831 74.9854 125.919C75.0144 126 75.0669 126.068 75.1624 126.136C75.2655 126.208 75.4087 126.272 75.6028 126.338C75.7255 126.38 75.844 126.415 75.9732 126.453C76.0587 126.478 76.1489 126.504 76.2482 126.535C76.6993 126.675 77.261 126.88 77.6451 127.352C78.0472 127.846 78.1851 128.539 78.017 129.492C77.8791 130.33 77.7563 131.178 77.6316 132.039C77.4123 133.553 77.1872 135.107 76.8642 136.714L76.8639 136.715C76.3668 139.187 75.8264 141.875 75.1243 144.94C74.8373 146.202 74.4248 147.048 73.9317 147.637C73.4342 148.231 72.8817 148.531 72.3809 148.741C72.2351 148.801 72.0764 148.861 71.9322 148.916C71.8475 148.947 71.7677 148.977 71.6986 149.005C71.4926 149.086 71.3241 149.163 71.1813 149.256C70.9244 149.424 70.7106 149.67 70.6022 150.209C70.5214 150.611 70.5868 150.839 70.6784 150.978C70.7754 151.126 70.9519 151.251 71.2345 151.343C71.7816 151.522 72.516 151.521 73.1936 151.52L87.6215 151.52C89.0986 151.52 90.0437 151.648 90.8527 151.821C91.0764 151.859 91.2757 151.899 91.4623 151.935C91.9379 152.029 92.3325 152.107 92.8473 152.107C93.1946 152.107 93.6696 151.914 94.2325 151.49C94.7832 151.076 95.3656 150.481 95.9175 149.774C97.0255 148.355 97.9601 146.552 98.2714 145.004C98.4217 144.257 98.4106 143.451 98.1732 142.858C98.0569 142.568 97.8924 142.342 97.6791 142.188C97.4686 142.036 97.1819 141.933 96.7822 141.933C96.3062 141.933 95.993 142.164 95.6582 142.65C95.4861 142.9 95.3232 143.198 95.1365 143.543L95.1113 143.589C94.9348 143.916 94.7395 144.277 94.5099 144.639C94.0249 145.404 93.3746 146.194 92.35 146.788C91.3261 147.382 89.9642 147.759 88.0868 147.759C86.5257 147.759 85.4715 147.383 84.9965 146.396C84.7738 145.933 84.7073 145.386 84.7259 144.789C84.7445 144.189 84.8505 143.503 85.0037 142.741L87.6838 129.413C87.8942 128.367 88.2613 127.66 88.734 127.166C89.2047 126.674 89.7455 126.43 90.2242 126.254C90.3583 126.205 90.4822 126.162 90.5975 126.122C90.9204 126.011 91.1764 125.922 91.4044 125.778C91.6652 125.612 91.8731 125.375 91.9713 124.887C92.0414 124.538 92.0628 124.28 91.9936 124.064C91.9326 123.872 91.7767 123.642 91.3201 123.414C90.8511 123.179 90.0979 122.965 88.9071 122.811C87.7219 122.659 86.1306 122.57 84.0034 122.57C82.9619 122.57 80.7901 122.612 78.8122 123.027C77.8217 123.234 76.9093 123.53 76.2176 123.94Z" fill="#333333"/>
<path fill-rule="evenodd" clip-rule="evenodd" d="M206.66 124.979C206.844 124.064 207.613 123.494 208.677 123.151C209.731 122.811 210.952 122.738 211.791 122.738C212.37 122.738 212.911 122.773 213.473 122.809C213.768 122.828 214.068 122.847 214.383 122.862C215.216 122.946 216.114 123.031 216.99 123.031C218.331 123.031 219.686 122.951 221.066 122.87L221.184 122.863L221.19 122.863C221.65 122.849 222.11 122.831 222.57 122.812C223.503 122.775 224.433 122.738 225.343 122.738C227.709 122.738 230.109 123.253 231.765 124.403C232.587 124.973 233.218 125.694 233.583 126.582C233.948 127.468 234.06 128.553 233.795 129.874C233.315 132.261 231.673 134.562 229.199 135.63L229.189 135.635L229.179 135.64L229.132 135.662L229.104 135.676C228.929 135.76 228.717 135.863 228.545 136.004C228.317 136.19 228.157 136.439 228.086 136.79C228.042 137.01 228.049 137.223 228.12 137.421C228.191 137.618 228.313 137.766 228.445 137.878C228.646 138.048 228.92 138.166 229.115 138.25L229.117 138.25L229.174 138.275L229.208 138.29L229.217 138.294L229.227 138.298C230.538 138.813 231.36 139.5 231.841 140.552C232.336 141.632 232.499 143.154 232.344 145.396C232.273 146.42 232.426 147.123 232.768 147.61C233.114 148.103 233.6 148.292 233.982 148.409C234.071 148.437 234.145 148.458 234.214 148.478C234.309 148.505 234.392 148.528 234.483 148.56C234.623 148.609 234.704 148.653 234.754 148.697C234.807 148.744 234.933 148.874 234.818 149.447C234.693 150.066 234.162 150.789 233.017 151.369C231.878 151.947 230.168 152.358 227.8 152.358C226.127 152.358 224.91 152.122 224.016 151.71C223.133 151.304 222.546 150.717 222.14 149.971C221.727 149.214 221.493 148.276 221.352 147.16C221.216 146.086 221.169 144.881 221.118 143.552L221.112 143.398L221.112 143.397C221.071 142.433 220.964 141.384 220.518 140.571C220.289 140.154 219.968 139.793 219.521 139.539C219.076 139.287 218.534 139.156 217.886 139.156C217.653 139.156 217.393 139.162 217.148 139.236C216.881 139.317 216.652 139.472 216.459 139.725C216.277 139.963 216.133 140.282 216.003 140.685C215.871 141.092 215.745 141.614 215.611 142.28C215.365 143.505 215.107 145.211 215.084 146.424C215.07 147.006 215.238 147.436 215.511 147.77C215.743 148.053 216.044 148.252 216.276 148.406L216.341 148.449C216.606 148.625 216.773 148.753 216.873 148.917C216.959 149.057 217.025 149.277 216.941 149.698C216.875 150.023 216.763 150.3 216.553 150.546C216.34 150.794 216.003 151.04 215.438 151.256C214.292 151.697 212.307 151.981 208.852 151.981C207.818 151.981 205.837 151.979 204.196 151.61C203.371 151.424 202.688 151.156 202.255 150.794C202.044 150.618 201.902 150.426 201.823 150.219C201.745 150.013 201.719 149.765 201.781 149.455C201.865 149.04 202.051 148.817 202.327 148.62C202.477 148.513 202.652 148.416 202.864 148.302L202.927 148.267L202.928 148.267C203.119 148.164 203.334 148.048 203.553 147.91C204.053 147.597 204.584 147.164 205.06 146.441C205.532 145.722 205.936 144.738 206.218 143.336L208.62 131.391C208.952 129.742 208.973 128.619 208.789 127.825C208.597 127.001 208.188 126.552 207.74 126.262C207.553 126.141 207.36 126.048 207.205 125.973L207.153 125.948C206.975 125.862 206.86 125.801 206.777 125.732C206.706 125.674 206.665 125.615 206.641 125.529C206.615 125.431 206.603 125.264 206.66 124.979ZM220.782 126.457C220.343 126.457 219.969 126.524 219.653 126.669C219.331 126.816 219.093 127.033 218.913 127.294C218.737 127.548 218.62 127.837 218.527 128.128C218.456 128.348 218.393 128.589 218.33 128.831L218.329 128.834L218.329 128.836L218.309 128.911C218.297 128.958 218.284 129.005 218.272 129.051L218.27 129.06L217.3 133.035C217.277 133.115 217.253 133.198 217.228 133.283C217.176 133.463 217.122 133.649 217.081 133.816C217.021 134.066 216.97 134.345 216.998 134.608C217.028 134.894 217.153 135.177 217.443 135.369C217.706 135.543 218.049 135.604 218.438 135.604C219.912 135.604 221.031 135.201 221.847 134.397C222.651 133.606 223.107 132.478 223.377 131.14C223.585 130.101 223.69 128.959 223.365 128.056C223.197 127.591 222.911 127.179 222.466 126.889C222.025 126.602 221.463 126.457 220.782 126.457Z" fill="#333333"/>
<path d="M215.084 146.424L215.084 146.423L215.529 146.433L215.084 146.425L215.084 146.424Z" fill="#333333"/>
<rect width="45.81" height="27.1" rx="13.55" transform="matrix(1 0 -0.197144 0.980375 187.945 82.9976)" fill="white"/>
<path d="M195 99.5993H197.166L197.969 95.6038H195.661L195.984 93.9972H198.292L198.503 92.9494C198.627 92.3347 198.907 91.8365 199.345 91.4546C199.794 91.0634 200.404 90.8678 201.173 90.8678H203.667L203.344 92.4744H200.708L200.401 93.9972H203.038L202.715 95.6038H200.078L199.275 99.5993H201.583L201.26 101.206H194.677L195 99.5993Z" fill="#333333"/>
<path d="M207.163 101.374C206.593 101.374 206.097 101.29 205.675 101.122C205.254 100.945 204.916 100.694 204.658 100.368C204.41 100.042 204.247 99.6459 204.17 99.1802C204.093 98.7145 204.113 98.1883 204.231 97.6015C204.349 97.0148 204.54 96.4886 204.805 96.0229C205.07 95.5572 205.391 95.1614 205.771 94.8354C206.159 94.5094 206.598 94.2626 207.088 94.095C207.58 93.918 208.11 93.8296 208.68 93.8296C209.25 93.8296 209.746 93.918 210.166 94.095C210.588 94.2626 210.923 94.5094 211.171 94.8354C211.429 95.1614 211.596 95.5572 211.674 96.0229C211.751 96.4886 211.731 97.0148 211.613 97.6015C211.495 98.1883 211.303 98.7145 211.039 99.1802C210.774 99.6459 210.447 100.042 210.059 100.368C209.68 100.694 209.244 100.945 208.753 101.122C208.263 101.29 207.733 101.374 207.163 101.374ZM207.472 99.8368C207.947 99.8368 208.347 99.6924 208.671 99.4037C208.995 99.115 209.21 98.7052 209.317 98.1743L209.547 97.0288C209.654 96.4979 209.604 96.0881 209.396 95.7994C209.188 95.5107 208.846 95.3663 208.371 95.3663C207.896 95.3663 207.497 95.5107 207.173 95.7994C206.849 96.0881 206.633 96.4979 206.526 97.0288L206.296 98.1743C206.189 98.7052 206.24 99.115 206.448 99.4037C206.656 99.6924 206.997 99.8368 207.472 99.8368Z" fill="#333333"/>
<path d="M213.557 99.5993H215.252L216.056 95.6038H214.36L214.683 93.9972H218.488L218.078 96.0369H218.177C218.296 95.7761 218.437 95.5246 218.6 95.2825C218.774 95.031 218.97 94.8121 219.188 94.6259C219.417 94.4303 219.676 94.2766 219.965 94.1648C220.253 94.0531 220.578 93.9972 220.939 93.9972H221.637L221.255 95.8972H219.687C219.165 95.8972 218.74 96.0508 218.412 96.3582C218.086 96.6562 217.879 97.0241 217.791 97.4618L217.361 99.5993H219.784L219.461 101.206H213.233L213.557 99.5993Z" fill="#333333"/>
</svg>
