<svg xmlns="http://www.w3.org/2000/svg" width="274" height="200" fill="none"><path fill="#12D778" d="M25.793.18C12.02.18.855 11.345.855 25.117v156.75c0 9.838 7.975 17.813 17.813 17.813h228.211c9.416 0 17.206-7.33 17.779-16.729l8.472-138.937c.458-7.52-3.806-14.182-10.166-17.194-2.766-6.25-9.022-10.61-16.296-10.61H89.171C85.586 6.838 76.506.18 65.871.18H25.793Z"/><path fill="#333" d="M15.105 25.117c0-5.902 4.785-10.687 10.688-10.687h40.078c5.903 0 10.688 4.785 10.688 10.687v3.563c0 .983.797 1.78 1.78 1.78h168.329a3.562 3.562 0 0 1 3.562 3.563v147.844a3.563 3.563 0 0 1-3.562 3.563h-228a3.563 3.563 0 0 1-3.563-3.563V25.117Z"/><path fill="#333" fill-rule="evenodd" d="M25.793 15.43c-5.35 0-9.688 4.337-9.688 9.687v156.75a2.563 2.563 0 0 0 2.563 2.563h228a2.563 2.563 0 0 0 2.562-2.563V34.023a2.562 2.562 0 0 0-2.562-2.562H78.34a2.781 2.781 0 0 1-2.781-2.781v-3.563c0-5.35-4.338-9.687-9.688-9.687H25.793Zm-11.688 9.687c0-6.455 5.233-11.687 11.688-11.687h40.078c6.455 0 11.688 5.232 11.688 11.687v3.563c0 .431.35.78.78.78h168.329a4.562 4.562 0 0 1 4.562 4.563v147.844a4.562 4.562 0 0 1-4.562 4.563h-228a4.563 4.563 0 0 1-4.563-4.563V25.117Z" clip-rule="evenodd"/><path fill="#FFD600" d="M23.343 62.698a10.687 10.687 0 0 1 10.663-9.972h43.443a8.016 8.016 0 0 0 8.016-8.015"/><path fill="#333" fill-rule="evenodd" d="M84.465 44.71a6.344 6.344 0 0 1 6.344-6.343H255.35a4.562 4.562 0 0 1 4.554 4.84l-8.471 138.938a4.563 4.563 0 0 1-4.554 4.285H18.915a4.563 4.563 0 0 1-4.552-4.868l7.982-118.93a11.688 11.688 0 0 1 11.661-10.906h43.443a7.016 7.016 0 0 0 7.016-7.015Zm6.344-4.343a4.344 4.344 0 0 0-4.344 4.344 9.016 9.016 0 0 1-9.016 9.015H34.006a9.687 9.687 0 0 0-9.666 9.04l-7.982 118.929a2.563 2.563 0 0 0 2.557 2.735H246.88a2.562 2.562 0 0 0 2.557-2.407l8.472-138.938a2.562 2.562 0 0 0-2.558-2.718H90.809Z" clip-rule="evenodd"/><path fill="#333" d="M49.32 123.447c-.185 0-.346-.032-.482-.098a.918.918 0 0 1-.34-.29 1.345 1.345 0 0 1-.196-.462 2.87 2.87 0 0 1-.061-.625c0-.232.02-.439.061-.621.044-.186.11-.341.196-.466a.883.883 0 0 1 .34-.287c.136-.068.297-.102.482-.102.37 0 .643.13.818.389.174.258.261.621.261 1.087 0 .466-.087.828-.261 1.087-.175.259-.447.388-.818.388Zm0-.437a.506.506 0 0 0 .241-.053.411.411 0 0 0 .156-.16.708.708 0 0 0 .085-.249c.02-.101.029-.212.029-.335v-.486c0-.246-.038-.439-.114-.581-.074-.142-.206-.212-.397-.212-.19 0-.324.07-.4.212-.074.142-.111.335-.111.581v.49c0 .245.037.439.11.58.077.142.21.213.401.213ZM53.355 123.006l.976-2.681 1.018.37c.261.095.434.242.518.441.085.199.08.426-.013.682-.093.256-.236.433-.428.532-.193.098-.42.099-.68.004l-.515-.187-.372 1.022-.504-.183Zm1.025-1.25.411.15c.136.049.243.058.321.025.08-.035.141-.112.185-.233l.053-.146c.044-.12.046-.218.007-.293-.038-.078-.125-.141-.261-.191l-.411-.149-.305.837ZM57.966 125.357l1.834-2.185.83.696c.213.179.325.376.336.591.011.216-.07.428-.246.637-.175.209-.37.326-.584.353-.215.026-.428-.05-.641-.228l-.42-.353-.698.833-.41-.344Zm1.39-.824.336.282c.11.092.208.137.293.133.086-.005.17-.057.253-.155l.1-.119c.082-.098.118-.189.106-.273-.009-.087-.069-.176-.18-.269l-.335-.281-.572.682ZM61.902 129.947a1.102 1.102 0 0 1-.156-.466.915.915 0 0 1 .082-.439c.065-.138.165-.272.302-.401.137-.127.308-.249.51-.366.201-.116.39-.202.57-.257.181-.055.349-.076.5-.064a.894.894 0 0 1 .418.151c.127.084.237.206.33.367.185.321.21.621.072.902-.137.28-.407.537-.81.77-.404.233-.761.339-1.073.317-.311-.021-.56-.193-.745-.514Zm.379-.218a.505.505 0 0 0 .166.182.412.412 0 0 0 .216.055.714.714 0 0 0 .26-.051 1.76 1.76 0 0 0 .304-.142l.42-.244c.213-.122.362-.252.446-.389.086-.134.081-.284-.014-.45-.095-.165-.223-.245-.384-.24-.16.007-.346.072-.558.194l-.425.246c-.212.122-.361.251-.447.386-.085.136-.08.288.016.453ZM63.596 134.649a1.432 1.432 0 0 1 .016-.642c.053-.184.139-.342.257-.473l.386.26a1.094 1.094 0 0 0-.21.385.956.956 0 0 0-.015.41c.028.161.086.278.174.351.088.073.2.098.337.073.112-.019.191-.066.236-.141.048-.075.07-.191.067-.348l-.004-.306c0-.269.061-.47.184-.605a.835.835 0 0 1 .482-.256c.269-.047.49.004.662.153.176.149.29.378.345.687.04.22.037.415-.004.586a.993.993 0 0 1-.218.436l-.385-.251a.837.837 0 0 0 .177-.691c-.054-.306-.207-.437-.459-.393-.107.019-.183.066-.228.14-.046.075-.068.192-.067.352v.304c-.003.252-.061.449-.174.59a.758.758 0 0 1-.484.268.94.94 0 0 1-.375-.004.808.808 0 0 1-.317-.152.944.944 0 0 1-.24-.298 1.431 1.431 0 0 1-.143-.435ZM63.786 139.07l.395.07-.112.632 2.02.356.112-.632.395.07-.315 1.787-.395-.07.112-.632-2.021-.356-.111.632-.395-.069.315-1.788ZM63.882 145.329l.02-.035-1.773-1.024.229-.396 2.47 1.426-.329.57-2.147-.376-.02.035 1.773 1.024-.229.397-2.47-1.427.328-.57 2.148.376ZM58.34 149.36l.024-.021a1.117 1.117 0 0 1-.038-.187.588.588 0 0 1 .086-.387.709.709 0 0 1 .157-.18.72.72 0 0 1 .749-.132c.277.102.564.329.86.682.312.371.483.711.514 1.019.031.309-.092.579-.37.812a1.103 1.103 0 0 1-.321.196.834.834 0 0 1-.62-.008 1.377 1.377 0 0 1-.289-.153l.287-.422c.053.034.107.065.163.093.053.03.108.048.163.055a.415.415 0 0 0 .34-.098c.135-.114.187-.25.154-.407-.033-.158-.128-.331-.285-.519l-.295-.35a2.103 2.103 0 0 0-.236-.244.868.868 0 0 0-.238-.143.46.46 0 0 0-.232-.029.484.484 0 0 0-.225.114c-.117.098-.176.207-.18.326a.524.524 0 0 0 .136.346l.15.178.397-.333.25.297-.764.641-.959-1.143.366-.307.255.304ZM48.655 153.54v-2.411h.531v2.411h.859v.442h-2.248v-.442h.858ZM43.09 152.251l.784.286.42-1.153.503.183-.976 2.681-.503-.183.405-1.114-.784-.285-.405 1.114-.503-.183.976-2.681.503.183-.42 1.152ZM39.361 148.539c.142.12.244.248.306.386.061.139.086.286.074.44a1.354 1.354 0 0 1-.147.48 2.866 2.866 0 0 1-.355.518 2.853 2.853 0 0 1-.446.437 1.35 1.35 0 0 1-.45.231.89.89 0 0 1-.444.001 1.076 1.076 0 0 1-.435-.232c-.284-.238-.41-.512-.377-.823.033-.31.2-.644.499-1.001.3-.357.6-.578.9-.665.3-.086.591-.01.875.228Zm-.281.335a.504.504 0 0 0-.219-.114.42.42 0 0 0-.221.022.722.722 0 0 0-.226.136c-.08.065-.159.145-.238.239l-.312.372c-.158.188-.253.361-.286.518-.035.156.021.295.167.418.146.123.294.154.444.095.147-.062.3-.186.457-.374l.316-.376c.157-.188.253-.359.288-.515.033-.158-.024-.298-.17-.421ZM33.85 146.502l1.54-.889c.092-.053.173-.103.244-.15.069-.049.123-.1.161-.154a.33.33 0 0 0 .051-.181.518.518 0 0 0-.08-.237.492.492 0 0 0-.163-.184.295.295 0 0 0-.182-.046.571.571 0 0 0-.214.062c-.078.036-.162.08-.254.133l-1.54.889-.268-.464 1.47-.848c.174-.101.332-.178.474-.232a.906.906 0 0 1 .398-.064.653.653 0 0 1 .347.144c.105.084.209.215.311.392.102.177.164.333.186.468a.657.657 0 0 1-.052.37.912.912 0 0 1-.254.312 3.341 3.341 0 0 1-.438.295l-1.469.848-.268-.464ZM33.837 139.299l.006.032c.06.014.12.034.18.06a.58.58 0 0 1 .292.268.698.698 0 0 1 .078.227.72.72 0 0 1-.26.714c-.227.189-.567.324-1.02.404-.478.084-.858.063-1.14-.065-.283-.127-.456-.369-.52-.726a1.099 1.099 0 0 1-.007-.376.808.808 0 0 1 .108-.301.806.806 0 0 1 .209-.232c.082-.067.174-.125.276-.174l.222.459c-.056.03-.11.061-.162.095a.466.466 0 0 0-.207.261.41.41 0 0 0-.007.196c.031.175.123.287.276.338.152.05.35.054.591.012l.451-.08c.12-.021.23-.049.33-.083a.861.861 0 0 0 .242-.134.459.459 0 0 0 .141-.187.48.48 0 0 0 .014-.251c-.026-.15-.09-.257-.193-.319a.525.525 0 0 0-.367-.056l-.23.041.09.511-.382.067-.173-.982 1.47-.259.082.471-.39.069ZM33.2 134.047l-.145.822 1.208.212-.093.528-2.81-.496.093-.527 1.168.206.145-.821-1.168-.206.093-.527 2.81.495-.093.527-1.208-.213ZM34.148 128.378l2.088 1.206-.266.46-2.088-1.206-.43.743-.382-.22 1.124-1.947.383.22-.43.744ZM39.433 125.913c-.188.157-.376.26-.564.307a1.183 1.183 0 0 1-.538.014l.032-.464c.16.026.307.022.44-.011a.958.958 0 0 0 .361-.192c.125-.105.198-.214.217-.326.02-.112-.015-.222-.105-.328-.073-.088-.153-.133-.24-.135-.089-.003-.2.035-.335.116l-.264.157c-.232.134-.437.182-.615.143a.83.83 0 0 1-.463-.289c-.175-.209-.24-.426-.198-.65.041-.227.182-.441.422-.642.17-.144.34-.24.51-.289a.997.997 0 0 1 .487-.03l-.026.459a.826.826 0 0 0-.687.192c-.238.2-.275.398-.11.594.07.083.149.126.235.128.087.002.2-.038.339-.118l.262-.152c.22-.123.42-.172.6-.144a.76.76 0 0 1 .473.285.95.95 0 0 1 .183.326c.035.113.044.23.028.351a.942.942 0 0 1-.139.356 1.436 1.436 0 0 1-.305.342ZM54.612 151.978a.503.503 0 1 1-1.005.001.503.503 0 0 1 1.005-.001ZM44.03 122.462a.502.502 0 1 1-1.005 0 .502.502 0 0 1 1.004 0ZM169.199 80.281c2.887 0 4.58-.211 5.689-.427.45-.088.803-.176 1.087-.248h.003l.18-.045c.319-.078.522-.118.718-.118.464 0 .815.188 1.096.515.293.341.512.838.657 1.43.291 1.186.25 2.607.076 3.473-.129.644-.397 1.326-.805 1.838-.402.502-.921.822-1.588.822-.38 0-.627-.057-.794-.133a.886.886 0 0 1-.369-.309c-.104-.144-.186-.323-.287-.56l-.039-.093c-.087-.206-.188-.446-.319-.685-.317-.579-.811-1.156-1.774-1.577-.942-.412-2.313-.666-4.373-.666-1.19 0-2.105.051-2.813.218-.725.17-1.262.468-1.659.973-.382.486-.601 1.122-.786 1.89-.12.498-.233 1.086-.362 1.76-.07.366-.146.758-.229 1.174-.121.601-.213 1.096-.233 1.484-.019.384.025.774.292 1.071.26.288.644.39 1.035.439.403.05.928.054 1.573.054.94 0 1.582-.347 2.033-.887.423-.508.658-1.169.858-1.736l.007-.019c.21-.595.385-1.093.666-1.456.255-.33.601-.554 1.219-.554.441 0 .719.194.92.542.218.38.337.94.373 1.608.07 1.329-.197 2.874-.361 3.687-.169.845-.575 2.492-1.244 3.917-.335.714-.725 1.346-1.165 1.794-.437.446-.892.679-1.375.679-.273 0-.405-.057-.47-.103-.059-.044-.11-.114-.147-.252a2.322 2.322 0 0 1-.05-.589c.001-.121.005-.248.01-.385v-.013c.005-.13.009-.269.011-.407.006-.554-.03-1.246-.449-1.79-.437-.569-1.193-.861-2.338-.861-.517 0-.953.115-1.315.333-.361.218-.621.52-.814.853-.351.606-.503 1.367-.628 1.993l-.022.112c-.307 1.527-.514 2.683-.573 3.549-.058.849.013 1.532.383 2.017.383.5.99.67 1.673.741.564.058 1.276.056 2.121.053l.577-.001c2.241 0 3.872-.378 5.111-.967 1.242-.59 2.061-1.378 2.694-2.151.283-.344.53-.688.756-1.003l.075-.104a10 10 0 0 1 .708-.905c.452-.492.917-.78 1.634-.78.478 0 .774.245.952.639.19.421.228.992.124 1.511-.27 1.342-1.211 3.275-2.314 4.886-.549.801-1.123 1.501-1.654 1.995-.265.247-.51.434-.726.557-.22.125-.382.167-.489.167-.109 0-.313-.025-.633-.073l-.342-.053-.003-.001a57.034 57.034 0 0 0-.789-.12l-.011-.001-.012-.002-.314-.028c-.87-.081-1.96-.183-3.275-.183h-17.57c-1.376 0-1.839-.312-1.994-.518-.156-.208-.128-.469-.072-.751.094-.468.277-.682.499-.834a2.59 2.59 0 0 1 .456-.238l.203-.085c.131-.054.278-.114.413-.176.456-.207.962-.499 1.432-1.054.466-.551.873-1.333 1.183-2.489l.502-1.867.001-.003c1.538-5.705 1.542-5.717 2.543-12.639.251-1.627.204-2.707-.049-3.446-.267-.78-.749-1.142-1.227-1.354-.166-.074-.342-.133-.486-.181a7.241 7.241 0 0 1-.123-.042c-.178-.063-.286-.112-.357-.168a.318.318 0 0 1-.122-.2c-.028-.12-.034-.324.034-.664.107-.53.36-.888.703-1.144.353-.264.821-.433 1.364-.533.843-.156 1.761-.134 2.561-.115.25.006.488.012.709.012h12.029Z"/><path fill="#333" fill-rule="evenodd" d="M88.867 84.282c.278-1.382.84-2.553 1.75-3.378.903-.819 2.193-1.335 4.006-1.335 1.683 0 2.895.834 3.843 2.04.96 1.221 1.617 2.787 2.174 4.176.233.587 1.315 4.069 2.454 7.868 1.136 3.79 2.313 7.842 2.734 9.549.21.867.563 1.433 1.001 1.809.43.371.904.524 1.265.633l.086.026c.148.045.265.08.37.122a.617.617 0 0 1 .22.13c.045.047.15.187.04.733-.122.609-.515 1.082-1.129 1.457-.621.378-1.442.636-2.345.807-1.679.318-3.525.314-4.645.312h-.242c-3.078 0-5.468-.013-7.028-.336-.782-.163-1.276-.389-1.548-.664-.24-.242-.355-.571-.247-1.107.08-.4.254-.639.465-.809.228-.183.517-.303.865-.425l.152-.052c.29-.1.628-.216.906-.383.358-.215.664-.538.768-1.055.098-.489.136-.989-.094-1.416-.24-.443-.696-.687-1.277-.837-.584-.152-1.387-.233-2.45-.278-1.07-.046-2.434-.056-4.154-.056-1.087 0-2.076.014-2.84.333a2.35 2.35 0 0 0-1.013.785c-.268.364-.45.82-.562 1.377a1.34 1.34 0 0 0 .037.739c.085.231.237.398.404.518.161.117.343.195.507.255.117.042.247.082.364.119l.125.039c.329.104.536.196.656.327.088.096.186.277.095.727-.097.486-.393.869-.853 1.179-.468.314-1.088.54-1.777.696-1.38.312-2.917.324-3.774.324-1.517 0-2.66-.07-3.518-.193-.863-.124-1.407-.297-1.746-.484-.324-.18-.441-.362-.49-.526-.056-.187-.045-.419.019-.737.08-.4.243-.643.45-.821.22-.19.514-.326.9-.467.111-.04.23-.08.353-.123.697-.238 1.571-.536 2.3-1.249 1.069-1.035 2.235-2.766 3.108-4.063l.332-.49.001-.003 3.848-5.742.221-.335c.9-1.361 1.915-2.9 2.797-4.484.954-1.713 1.77-3.51 2.116-5.232Zm2.182 6.215c-.43 0-.806.254-1.092.518-.3.276-.58.636-.823.99-.384.563-.714 1.175-.89 1.503-.045.083-.08.148-.104.189-.055.097-.15.254-.271.451l-.041.068c-.138.226-.3.492-.457.76-.156.268-.31.543-.434.785-.115.228-.228.475-.267.668-.06.299.005.585.22.797.184.182.429.255.617.289.292.054.654.043.878.037l.142-.004h3.207l.117.002c.226.004.616.01.971-.043.217-.032.461-.091.672-.21a.962.962 0 0 0 .496-.65c.051-.256.005-.59-.056-.89a11.485 11.485 0 0 0-.273-1.042c-.216-.71-.476-1.41-.59-1.709-.024-.064-.052-.143-.083-.233-.112-.324-.273-.786-.485-1.182-.26-.484-.71-1.094-1.454-1.094Z" clip-rule="evenodd"/><path fill="#333" d="M59.51 79.694c-8.108 0-13.265 5.283-14.095 9.408-.57 2.834.544 5.242 2.437 7.005 1.774 1.656 3.966 2.394 5.831 3.022l.433.146c.948.322 1.84.648 2.449 1.112.313.239.574.53.726.898.153.37.18.781.09 1.229-.204 1.019-1.074 1.616-1.887 1.948a6.48 6.48 0 0 1-2.254.463c-2.03 0-3.477-.431-4.544-1.111-1.067-.68-1.713-1.584-2.183-2.455-.218-.403-.4-.805-.567-1.171l-.036-.079c-.18-.394-.338-.735-.511-1.022-.172-.286-.342-.49-.528-.623a1.113 1.113 0 0 0-.679-.203c-.959 0-1.601.848-1.814 1.906-.205 1.019-.289 2.615-.098 4.088.095.735.256 1.42.494 1.98.238.562.537.959.884 1.175 1.018.607 2.669 1.098 4.45 1.436 1.774.336 3.623.511 5.003.511 9.783 0 14.789-5.415 15.726-10.079.304-1.512.231-2.732-.166-3.765s-1.135-1.923-2.24-2.747c-1.778-1.331-3.857-1.936-5.678-2.466-.305-.088-.603-.175-.89-.262-.974-.296-1.882-.618-2.498-1.113a2.205 2.205 0 0 1-.716-.96c-.144-.39-.162-.825-.066-1.302.367-1.828 2.196-2.453 3.593-2.453 2.42 0 3.822 1.32 4.93 2.534.129.14.251.277.37.41.408.456.773.864 1.166 1.19.49.409.975.644 1.551.644 1.302 0 2.4-1.2 2.659-2.492.328-1.63-.11-3.206-.808-4.378-.35-.586-.756-1.058-1.147-1.378-.404-.33-.74-.459-.954-.459-.356 0-.69.116-1.053.262l-.102.04c-.144.06-.298.122-.445.17a1.953 1.953 0 0 1-.613.115c-.132 0-.288-.028-.436-.061-.155-.035-.339-.083-.54-.139a63.943 63.943 0 0 1-.4-.111c-.316-.09-.67-.19-1.06-.29-1.121-.29-2.472-.573-3.783-.573ZM135.713 80.818c-.535.32-.863.713-.961 1.201-.063.314.001.472.078.578.099.136.262.246.515.399l.051.03c.216.13.507.305.714.555.255.31.367.704.266 1.204-.036.18-.12.39-.219.599-.102.216-.235.462-.386.723a32.9 32.9 0 0 1-1.09 1.73 103.685 103.685 0 0 1-1.866 2.684l-.161.227-.006.008c-.132.168-.285.395-.468.668l-.122.18c-.232.344-.499.732-.793 1.092-.292.358-.625.706-.992.962-.368.256-.801.44-1.282.411a1.22 1.22 0 0 1-.877-.443c-.201-.23-.336-.52-.435-.793a8.04 8.04 0 0 1-.236-.824l-.026-.108a6.513 6.513 0 0 0-.139-.522l-.005-.014-.003-.013c-.106-.393-.228-.828-.354-1.28l-.001-.003a97.926 97.926 0 0 1-.644-2.376 21.798 21.798 0 0 1-.366-1.658c-.079-.459-.125-.905-.063-1.216.085-.42.34-.72.612-.947.219-.182.486-.344.726-.49l.139-.085c.587-.362 1.021-.694 1.14-1.286l.017-.082c.033-.157.061-.288.033-.442-.026-.15-.118-.37-.488-.614-.386-.254-1.06-.52-2.22-.722-1.156-.2-2.764-.33-4.993-.33-1.085 0-3.298.041-5.31.476-1.008.218-1.936.528-2.641.96-.702.43-1.143.956-1.273 1.6-.076.381-.035.64.053.797.077.14.225.263.531.31h.002c.849.132 1.469.348 1.939.989.424.578.697 1.477 1.057 2.814l.001.004 4.798 18.434.001.003c.28 1.015.486 1.749.886 2.254.361.456.924.769 2.07.769 1.013 0 1.797-.416 2.495-1.06.631-.583 1.166-1.328 1.721-2.099l.123-.172.095-.131 13.459-19.107c1.122-1.592 1.771-2.44 2.402-2.892.605-.434 1.189-.496 1.955-.577h.001l.254-.028c.949-.114 1.684-.58 1.858-1.447.067-.332.063-.573-.005-.758-.062-.17-.201-.352-.532-.525-.704-.368-2.124-.615-4.822-.615h-.073c-.884 0-2.561 0-4.093.296-.788.153-1.505.378-2.047.702ZM197.225 122.539c-1.088.218-2.798.429-5.683.429H179.23c-.223 0-.462-.006-.713-.012-.799-.019-1.713-.042-2.551.114-.541.1-.989.265-1.318.511-.308.231-.553.562-.659 1.088-.068.336-.063.547-.032.682a.431.431 0 0 0 .162.261c.086.067.206.12.383.182l.126.043c.144.049.315.106.478.178.46.204.914.546 1.168 1.289.247.72.297 1.789.045 3.42-1.002 6.921-1.005 6.934-2.543 12.641l-.001.001-.502 1.868c-.311 1.156-.721 1.952-1.202 2.521-.489.577-1.016.881-1.482 1.092a14.325 14.325 0 0 1-.618.262 2.525 2.525 0 0 0-.434.225c-.183.125-.356.309-.45.775-.053.262-.095.558.092.808.19.253.694.557 2.052.557h17.571c1.315 0 2.405.102 3.275.183l.314.029.011.001.011.001c.285.041.553.083.788.12h.002l.343.054c.32.048.525.073.635.073.217 0 .602-.18 1.15-.69.52-.485 1.088-1.176 1.634-1.973 1.097-1.602 2.034-3.526 2.303-4.863.103-.515.069-1.101-.132-1.546-.198-.437-.533-.7-1.023-.7-.371 0-.652.077-.884.195-.236.12-.452.299-.677.543a9.824 9.824 0 0 0-.698.893l-.075.105c-.226.314-.476.661-.761 1.009-.642.783-1.477 1.588-2.743 2.189-1.258.598-2.901.975-5.14.975l-.575.002h-.002c-.846.002-1.558.005-2.121-.054-.693-.071-1.264-.243-1.615-.702-.344-.449-.422-1.102-.363-1.96.06-.865.266-2.021.573-3.548l.023-.116c.124-.621.277-1.388.635-2.005.198-.344.474-.667.861-.901.388-.233.84-.348 1.357-.348 1.157 0 1.876.297 2.281.823.392.511.433 1.172.427 1.734-.002.138-.007.276-.011.407l-.001.013c-.004.136-.009.264-.01.386-.001.248.012.448.053.606.04.152.103.249.19.313.088.064.236.119.504.119.467 0 .892-.221 1.305-.642.424-.432.808-1.051 1.142-1.762.666-1.419 1.071-3.062 1.241-3.907.163-.811.431-2.359.36-3.693-.035-.669-.154-1.246-.385-1.648-.224-.388-.538-.593-.987-.593-.321 0-.548.061-.714.143a1.22 1.22 0 0 0-.424.36c-.27.351-.442.839-.657 1.448l-.001.002c-.198.561-.437 1.239-.876 1.765-.23.276-.518.517-.882.685a2.904 2.904 0 0 1-1.229.249c-.645 0-1.17-.005-1.571-.055-.399-.049-.753-.151-.985-.407-.235-.262-.284-.617-.264-1.007.019-.387.111-.881.232-1.483.084-.415.159-.806.229-1.172.129-.676.242-1.264.362-1.762.184-.763.405-1.414.802-1.919.424-.539.994-.848 1.73-1.022.716-.168 1.635-.219 2.823-.219 2.064 0 3.428.255 4.357.661.942.412 1.417.971 1.723 1.529.128.233.226.468.313.674l.04.095c.1.236.187.425.298.581.107.149.235.264.412.345.181.082.434.138.812.138.651 0 1.133-.304 1.508-.774.392-.492.659-1.161.788-1.807.174-.864.216-2.292-.078-3.492-.302-1.234-.902-2.022-1.83-2.022-.091 0-.206.027-.504.111l-.024.007c-.277.079-.653.185-1.182.291Z"/><path fill="#333" fill-rule="evenodd" d="M116.005 127.032c.278-1.382.841-2.553 1.75-3.378.904-.819 2.193-1.335 4.006-1.335 1.683 0 2.896.834 3.844 2.04.959 1.221 1.616 2.787 2.174 4.176.233.587 1.314 4.069 2.453 7.868 1.136 3.789 2.313 7.842 2.734 9.549.21.867.564 1.433 1.002 1.809.43.371.903.524 1.264.633l.087.027c.148.044.264.079.369.121.12.048.184.091.221.13.045.047.149.187.04.733-.123.609-.515 1.082-1.129 1.457-.622.378-1.443.637-2.346.807-1.678.318-3.525.315-4.645.312h-.242c-3.077 0-5.467-.013-7.027-.336-.782-.163-1.277-.389-1.549-.664-.24-.242-.354-.571-.246-1.107.08-.4.254-.639.465-.809.227-.183.517-.303.865-.425l.149-.052h.002c.291-.1.628-.216.907-.383.358-.215.663-.538.768-1.055.098-.489.135-.989-.095-1.416-.239-.443-.695-.687-1.276-.837-.585-.152-1.387-.233-2.451-.278-1.069-.046-2.433-.056-4.154-.056-1.087 0-2.075.014-2.839.333a2.352 2.352 0 0 0-1.014.785c-.268.364-.449.82-.561 1.377-.053.262-.048.511.036.739.086.231.238.398.405.518.161.117.343.195.507.255.117.042.246.082.364.119l.057.018.068.021c.328.104.535.196.656.327.087.096.186.277.095.727-.098.486-.393.869-.854 1.179-.468.314-1.087.54-1.777.696-1.379.312-2.917.324-3.774.324-1.516 0-2.66-.07-3.518-.193-.862-.124-1.407-.297-1.745-.484-.324-.18-.442-.362-.49-.526-.057-.187-.046-.419.018-.736.08-.4.243-.644.45-.822.22-.19.515-.326.901-.467.111-.04.229-.08.352-.123.698-.238 1.571-.536 2.301-1.249 1.068-1.035 2.234-2.766 3.108-4.063l.001-.002.33-.488.002-.003 3.848-5.742.001-.002.22-.333c.899-1.361 1.914-2.9 2.797-4.484.953-1.713 1.769-3.51 2.115-5.232Zm2.183 6.215c-.43 0-.806.254-1.092.518-.3.276-.58.636-.823.991a16.798 16.798 0 0 0-.891 1.502l-.001.002c-.045.082-.079.147-.102.187-.056.097-.152.254-.272.452l-.041.067c-.138.226-.299.492-.456.761-.157.267-.311.542-.435.785-.115.227-.228.474-.266.667-.061.298.004.585.219.797.185.182.429.255.617.289.293.054.655.043.879.037.058-.002.106-.004.142-.004h3.206l.118.002c.226.004.615.01.971-.043a1.97 1.97 0 0 0 .672-.21.961.961 0 0 0 .495-.651c.052-.255.005-.589-.055-.889a11.634 11.634 0 0 0-.273-1.042 28.648 28.648 0 0 0-.59-1.708c-.024-.064-.051-.143-.082-.232l-.001-.001c-.112-.324-.273-.787-.485-1.183-.26-.484-.711-1.094-1.454-1.094Z" clip-rule="evenodd"/><path fill="#333" d="M139.033 130.301c.338-1.68 1.471-3.665 2.838-5.238.68-.783 1.404-1.447 2.094-1.912.7-.472 1.318-.707 1.798-.707.098 0 .242.022.489.074.097.021.208.047.327.075.201.047.423.099.637.139.798.128 1.944.299 3.687.299h10.517c1.874 0 2.791-.172 3.476-.301.058-.013.115-.029.173-.045l.057-.015c.513-.139.835-.226 1.499-.226.282 0 .677.143 1.117.483.433.334.876.833 1.25 1.475.746 1.282 1.2 3.11.767 5.263-.196.975-.61 1.751-1.198 2.282-.583.527-1.366.839-2.356.839-.816 0-1.334-.265-1.706-.641-.391-.394-.652-.938-.887-1.547-.056-.144-.111-.295-.167-.448-.167-.457-.343-.937-.56-1.314-.31-.537-.775-.996-1.543-.996-1.086 0-1.692.755-2.011 1.429-.28.59-.39 1.221-.431 1.455l-.008.045-.005.027-2.587 12.867c-.26 1.291-.189 2.193.139 2.844.334.663.89.978 1.375 1.189.121.052.242.1.353.144l.017.006c.107.043.206.081.3.122.2.086.346.164.452.254a.59.59 0 0 1 .199.304c.038.138.05.347-.015.669a2.012 2.012 0 0 1-.377.856c-.222.29-.583.601-1.195.888-1.238.581-3.453 1.042-7.43 1.042h-.157c-1.168.001-3.546.003-5.599-.355-1.08-.188-2.018-.468-2.635-.865-.304-.195-.508-.405-.623-.624a1.115 1.115 0 0 1-.092-.766c.093-.461.281-.729.508-.914.243-.198.561-.326.963-.451.095-.03.195-.059.3-.09.721-.211 1.639-.478 2.247-1.302l.004-.006.004-.007c.345-.502.682-1.413.957-2.275.28-.883.515-1.784.644-2.314v-.002l2.205-9.262c.266-1.112.413-1.957.469-2.602.057-.638.029-1.113-.082-1.465-.117-.374-.333-.619-.624-.743-.235-.099-.482-.098-.617-.098h-.028c-.664 0-1.256.42-1.77.89a11.52 11.52 0 0 0-.524.518c-.21.219-.424.453-.639.689a59.48 59.48 0 0 1-.476.517c-1.167 1.247-2.395 2.332-3.913 2.332-.679 0-1.12-.297-1.379-.727-.271-.451-.363-1.086-.228-1.758ZM76.218 123.94c-.69.409-1.114.903-1.233 1.5-.05.245-.03.391 0 .479a.446.446 0 0 0 .177.217c.103.072.247.136.44.202.123.042.242.077.371.115.086.025.176.051.275.082.451.14 1.013.345 1.397.817.402.494.54 1.187.372 2.14-.138.838-.26 1.686-.385 2.547-.22 1.514-.445 3.068-.768 4.675v.001c-.497 2.472-1.038 5.16-1.74 8.225-.287 1.262-.7 2.108-1.192 2.697-.498.594-1.05.894-1.551 1.104-.146.06-.305.12-.449.175a7.557 7.557 0 0 0-.233.089 2.865 2.865 0 0 0-.518.251c-.257.168-.47.414-.579.953-.08.402-.015.63.076.769.097.148.274.273.556.365.548.179 1.282.178 1.96.177H87.62c1.478 0 2.423.128 3.232.301.223.038.423.078.61.114.475.094.87.172 1.384.172.348 0 .823-.193 1.386-.617.55-.414 1.133-1.009 1.684-1.716 1.108-1.419 2.043-3.222 2.354-4.77.15-.747.14-1.553-.098-2.146-.116-.29-.28-.516-.494-.67-.21-.152-.497-.255-.897-.255-.476 0-.789.231-1.124.717-.172.25-.335.548-.522.893l-.025.046a17 17 0 0 1-.601 1.05c-.485.765-1.135 1.555-2.16 2.149-1.024.594-2.386.971-4.263.971-1.561 0-2.615-.376-3.09-1.363-.223-.463-.29-1.01-.271-1.607.019-.6.124-1.286.278-2.048l2.68-13.328c.21-1.046.577-1.753 1.05-2.247.47-.492 1.012-.736 1.49-.912.134-.049.258-.092.373-.132.323-.111.58-.2.807-.344.261-.166.47-.403.567-.891.07-.349.092-.607.023-.823-.061-.192-.217-.422-.674-.65-.469-.235-1.222-.449-2.413-.603-1.185-.152-2.776-.241-4.904-.241-1.041 0-3.213.042-5.19.457-.991.207-1.904.503-2.595.913Z"/><path fill="#333" fill-rule="evenodd" d="M206.66 124.979c.184-.915.953-1.485 2.017-1.828 1.054-.34 2.275-.413 3.114-.413.579 0 1.12.035 1.682.071.295.019.595.038.91.053.833.084 1.731.169 2.607.169 1.341 0 2.696-.08 4.076-.161l.118-.007h.006c.46-.014.92-.032 1.38-.051.933-.037 1.863-.074 2.773-.074 2.366 0 4.766.515 6.422 1.665.822.57 1.453 1.291 1.818 2.179.365.886.477 1.971.212 3.292-.48 2.387-2.122 4.688-4.596 5.756l-.01.005-.01.005-.047.022-.028.014a2.77 2.77 0 0 0-.559.328 1.3 1.3 0 0 0-.459.786c-.044.22-.037.433.034.631.071.197.193.345.325.457.201.17.475.288.67.372h.002l.057.025.034.015.009.004.01.004c1.311.515 2.133 1.202 2.614 2.254.495 1.08.658 2.602.503 4.844-.071 1.024.082 1.727.424 2.214.346.493.832.682 1.214.799.089.028.163.049.232.069.095.027.178.05.269.082.14.049.221.093.271.137.053.047.179.177.064.75-.125.619-.656 1.342-1.801 1.922-1.139.578-2.849.989-5.217.989-1.673 0-2.89-.236-3.784-.648-.883-.406-1.47-.993-1.876-1.739-.413-.757-.647-1.695-.788-2.811-.136-1.074-.183-2.279-.234-3.608l-.006-.154v-.001c-.041-.964-.148-2.013-.594-2.826a2.592 2.592 0 0 0-.997-1.032c-.445-.252-.987-.383-1.635-.383-.233 0-.493.006-.738.08a1.332 1.332 0 0 0-.689.489c-.182.238-.326.557-.456.96-.132.407-.258.929-.392 1.595-.246 1.225-.504 2.931-.527 4.144-.014.582.154 1.012.427 1.346.232.283.533.482.765.636l.065.043c.265.176.432.304.532.468.086.14.152.36.068.781-.066.325-.178.602-.388.848-.213.248-.55.494-1.115.71-1.146.441-3.131.725-6.586.725-1.034 0-3.015-.002-4.656-.371-.825-.186-1.508-.454-1.941-.816a1.408 1.408 0 0 1-.432-.575 1.357 1.357 0 0 1-.042-.764c.084-.415.27-.638.546-.835.15-.107.325-.204.537-.318l.063-.035h.001c.191-.103.406-.219.625-.357a4.773 4.773 0 0 0 1.507-1.469c.472-.719.876-1.703 1.158-3.105l2.402-11.945c.332-1.649.353-2.772.169-3.566-.192-.824-.601-1.273-1.049-1.563-.187-.121-.38-.214-.535-.289l-.052-.025a1.883 1.883 0 0 1-.376-.216.375.375 0 0 1-.136-.203c-.026-.098-.038-.265.019-.55Zm14.122 1.478c-.439 0-.813.067-1.129.212-.322.147-.56.364-.74.625a3.115 3.115 0 0 0-.386.834c-.071.22-.134.461-.197.703l-.001.003v.002l-.02.075-.037.14-.002.009-.97 3.975a42.2 42.2 0 0 1-.072.248c-.052.18-.106.366-.147.533-.06.25-.111.529-.083.792.03.286.155.569.445.761.263.174.606.235.995.235 1.474 0 2.593-.403 3.409-1.207.804-.791 1.26-1.919 1.53-3.257.208-1.039.313-2.181-.012-3.084a2.278 2.278 0 0 0-.899-1.167c-.441-.287-1.003-.432-1.684-.432Z" clip-rule="evenodd"/><path fill="#333" d="M215.084 146.424v-.001l.445.01-.445-.008v-.001Z"/><rect width="45.81" height="27.1" fill="#fff" rx="13.55" transform="matrix(1 0 -.19714 .98037 187.945 82.998)"/><path fill="#333" d="M195 99.6h2.166l.803-3.996h-2.308l.323-1.607h2.308l.211-1.048c.124-.614.404-1.112.842-1.494.449-.392 1.059-.587 1.828-.587h2.494l-.323 1.606h-2.636l-.307 1.523h2.637l-.323 1.607h-2.637l-.803 3.995h2.308l-.323 1.607h-6.583l.323-1.607ZM207.163 101.374c-.57 0-1.066-.084-1.488-.252a2.504 2.504 0 0 1-1.017-.754 2.638 2.638 0 0 1-.488-1.188c-.077-.466-.057-.992.061-1.579a5.269 5.269 0 0 1 .574-1.578c.265-.466.586-.862.966-1.188a4.081 4.081 0 0 1 1.317-.74 4.666 4.666 0 0 1 1.592-.265c.57 0 1.066.088 1.486.265.422.168.757.414 1.005.74.258.326.425.722.503 1.188.077.466.057.992-.061 1.579a5.296 5.296 0 0 1-.574 1.578 4.334 4.334 0 0 1-.98 1.188 4.13 4.13 0 0 1-1.306.754c-.49.168-1.02.252-1.59.252Zm.309-1.537c.475 0 .875-.145 1.199-.433.324-.289.539-.699.646-1.23l.23-1.145c.107-.531.057-.94-.151-1.23-.208-.288-.55-.433-1.025-.433-.475 0-.874.145-1.198.433-.324.29-.54.699-.647 1.23l-.23 1.145c-.107.531-.056.941.152 1.23.208.288.549.433 1.024.433ZM213.557 99.6h1.695l.804-3.996h-1.696l.323-1.607h3.805l-.41 2.04h.099c.119-.26.26-.512.423-.755.174-.251.37-.47.588-.656a2.67 2.67 0 0 1 .777-.461c.288-.112.613-.168.974-.168h.698l-.382 1.9h-1.568c-.522 0-.947.154-1.275.461a1.989 1.989 0 0 0-.621 1.104l-.43 2.137h2.423l-.323 1.607h-6.228l.324-1.607Z"/></svg>