<svg width="223" height="292" viewBox="0 0 223 292" fill="none" xmlns="http://www.w3.org/2000/svg">
<path d="M147.951 10.348C147.646 10.3327 147.355 10.2119 147.129 10.0062L145.515 8.53885C137.468 1.22411 125.593 0.0100131 116.233 5.54515L115.413 6.03011L112.27 3.95919C103.362 -1.91011 91.6493 -1.1951 83.5214 5.71414L81.5546 7.38604L74.2957 8.49332C63.7496 10.102 56.715 17.9122 54.5999 26.5275C52.9486 31.824 53.3251 37.7091 56.0352 43.0651L66.3405 63.4318C72.1791 74.9708 67.6862 89.0599 56.2454 95.0885C23.6171 112.282 2.42528 145.358 0.441694 182.185L0.270158 185.37C-2.82648 242.863 42.9576 291.18 100.534 291.18H121.859C179.436 291.18 225.22 242.863 222.123 185.37L221.924 181.683C219.958 145.167 198.945 112.371 166.593 95.3232C155.16 89.2986 150.816 75.1189 156.913 63.7241L166.471 45.8584C167.359 44.4451 168.086 42.9535 168.645 41.408C170.672 36.107 170.524 30.5583 168.649 25.7049C165.732 17.5979 158.137 10.8573 147.951 10.348Z" fill="#12D778"/>
<path d="M86.127 48.4976L109.455 59.0182L131.955 64.5183L152.501 37.951C156.068 33.3386 152.976 26.6192 147.152 26.3281C143.146 26.1278 139.334 24.5433 136.366 21.8452L134.752 20.3779C131.901 17.7863 127.694 17.3562 124.378 19.3173L119.794 22.0278C116.833 23.7787 113.134 23.6888 110.261 21.7963L103.467 17.3198C100.498 15.3634 96.5935 15.6017 93.8842 17.9048L90.1872 21.0475C89.0561 22.009 87.6798 22.6368 86.2122 22.8606L76.7085 24.3104C69.8623 25.3547 67.487 34.0136 72.8421 38.4049L82.1133 46.0076C83.336 47.0103 84.6856 47.8475 86.127 48.4976Z" fill="#333333"/>
<path fill-rule="evenodd" clip-rule="evenodd" d="M102.917 18.1549C100.319 16.443 96.9025 16.6515 94.5319 18.6667L90.8349 21.8094C89.5624 22.8911 88.014 23.5974 86.363 23.8492L76.8593 25.2989C70.8689 26.2127 68.7905 33.7893 73.4762 37.6317L82.7474 45.2344C83.9022 46.1813 85.1768 46.972 86.5382 47.586L109.782 58.0687L131.562 63.3926L151.71 37.3392C154.782 33.3659 152.119 27.5777 147.102 27.3268C142.865 27.1149 138.833 25.4391 135.693 22.5852L134.079 21.1179C131.553 18.8215 127.825 18.4403 124.887 20.178L120.303 22.8885C117.013 24.834 112.903 24.7341 109.711 22.6314L102.917 18.1549ZM93.2365 17.1429C96.2845 14.5519 100.677 14.2838 104.017 16.4848L110.811 20.9613C113.365 22.6435 116.653 22.7234 119.285 21.167L123.869 18.4565C127.563 16.272 132.249 16.7512 135.425 19.638L137.039 21.1053C139.835 23.6476 143.427 25.1406 147.202 25.3293C153.832 25.6608 157.353 33.3112 153.292 38.5627L132.349 65.6439L109.128 59.9677L85.7159 49.4092C84.1944 48.723 82.7699 47.8393 81.4792 46.7809L72.208 39.1782C66.1836 34.238 68.8558 24.4967 76.5577 23.3218L86.0614 21.8721C87.3456 21.6762 88.5499 21.1269 89.5396 20.2855L93.2365 17.1429Z" fill="#333333"/>
<path d="M159.134 109.478C139.849 99.3158 132.521 75.3971 142.805 56.1761L153.327 36.5098C156.695 30.2153 148.419 24.213 143.482 29.3695L135.474 37.7333C132.118 41.2382 126.588 41.4519 122.972 38.2164L115.017 31.0992C112.254 28.6268 108.277 28.0533 104.928 29.6442L95.5202 34.1129C92.4099 35.5903 88.7351 35.2086 85.9949 33.1235L79.5052 28.1856C74.3197 24.2399 67.37 30.0273 70.3118 35.8414L80.6172 56.2081C90.3987 75.5396 82.8716 99.1435 63.7046 109.244C36.0567 123.813 18.0995 151.839 16.4187 183.046L16.2472 186.231C13.644 234.562 52.1324 275.18 100.534 275.18H121.859C170.261 275.18 208.749 234.562 206.146 186.231L205.948 182.543C204.284 151.649 186.506 123.902 159.134 109.478Z" fill="#FFD600"/>
<path fill-rule="evenodd" clip-rule="evenodd" d="M78.8997 28.9814C74.559 25.6786 68.7415 30.5231 71.2041 35.3899L81.5094 55.7566C91.5374 75.5752 83.8207 99.7738 64.1707 110.128C36.8341 124.533 19.0791 152.245 17.4173 183.1L17.2457 186.284C14.6734 234.043 52.7058 274.18 100.534 274.18H121.859C169.688 274.18 207.72 234.043 205.148 186.284L204.949 182.597C203.304 152.054 185.728 124.622 158.668 110.363C138.892 99.9419 131.378 75.4145 141.923 55.7043L152.445 36.0381C155.264 30.7691 148.337 25.7447 144.204 30.061L136.196 38.4249C132.467 42.3192 126.323 42.5566 122.305 38.9616L114.351 31.8444C111.887 29.6406 108.343 29.1293 105.357 30.5475L95.9492 35.0162C92.5011 36.654 88.4272 36.2309 85.3893 33.9194L78.8997 28.9814ZM69.4195 36.2928C65.9984 29.5316 74.0804 22.8013 80.1107 27.3898L86.6004 32.3277C89.043 34.1863 92.3186 34.5266 95.0911 33.2096L104.499 28.7409C108.212 26.9772 112.621 27.613 115.684 30.3539L123.639 37.4711C126.853 40.3471 131.769 40.1572 134.751 37.0418L142.759 28.6779C148.501 22.6814 158.125 29.6616 154.209 36.9816L143.687 56.6478C133.665 75.3797 140.806 98.6897 159.6 108.594C187.283 123.181 205.263 151.243 206.946 182.489L207.145 186.177C209.779 235.081 170.834 276.18 121.859 276.18H100.534C51.559 276.18 12.6146 235.081 15.2486 186.177L15.4201 182.992C17.1199 151.434 35.2792 123.092 63.2384 108.359C81.9225 98.5133 89.26 75.5041 79.7249 56.6596L69.4195 36.2928Z" fill="#333333"/>
<path fill-rule="evenodd" clip-rule="evenodd" d="M76.6716 69.3021C76.6716 67.6452 78.0148 66.3021 79.6716 66.3021H142.723C144.38 66.3021 145.723 67.6452 145.723 69.3021C145.723 70.9589 144.38 72.3021 142.723 72.3021H79.6716C78.0148 72.3021 76.6716 70.9589 76.6716 69.3021Z" fill="#333333"/>
<path d="M116.701 129.69C116.848 129.621 117.018 129.628 117.159 129.707L117.36 129.821C117.481 129.931 117.607 130.084 117.732 130.284C118.308 131.201 118.727 132.821 118.989 134.578C119.247 136.314 119.339 138.098 119.305 139.282L119.305 139.283C119.276 140.422 119.128 141.628 118.824 142.52C118.672 142.969 118.493 143.3 118.302 143.507C118.123 143.701 117.952 143.768 117.768 143.757C117.507 143.742 117.331 143.659 117.191 143.537C117.04 143.405 116.905 143.203 116.774 142.911C116.642 142.617 116.53 142.269 116.406 141.864L116.363 141.724C116.253 141.364 116.132 140.97 115.985 140.575C115.649 139.676 115.154 138.716 114.225 137.98C113.291 137.241 111.976 136.775 110.083 136.752L110.073 136.751L110.064 136.752C108.999 136.778 108.14 136.886 107.484 137.211C106.786 137.558 106.37 138.121 106.135 138.91L106.134 138.914C105.925 139.638 105.855 140.565 105.839 141.723C105.827 142.594 105.845 143.627 105.867 144.84C105.879 145.481 105.856 146.12 105.833 146.759C105.812 147.367 105.79 147.975 105.798 148.583C105.804 149.045 105.843 149.523 105.957 149.958C106.071 150.393 106.268 150.82 106.617 151.142C106.99 151.485 107.57 151.622 108.061 151.655C108.563 151.689 109.128 151.624 109.538 151.422C110.264 151.063 110.57 150.232 110.734 149.451C110.883 148.741 110.947 147.902 111.006 147.109L111.007 147.104C111.015 146.991 111.024 146.879 111.032 146.768C111.104 145.848 111.187 145.035 111.385 144.454C111.482 144.168 111.594 143.981 111.709 143.87C111.809 143.773 111.927 143.717 112.103 143.716C112.203 143.718 112.32 143.761 112.462 143.915C112.614 144.078 112.768 144.34 112.913 144.71C113.204 145.449 113.413 146.489 113.557 147.652C113.844 149.967 113.861 152.629 113.85 154.002C113.836 155.457 113.755 158.259 113.412 160.722C113.24 161.958 113.008 163.065 112.702 163.848C112.548 164.241 112.388 164.518 112.233 164.689C112.14 164.791 112.029 164.882 111.885 164.882C111.774 164.882 111.706 164.847 111.634 164.754C111.542 164.637 111.452 164.431 111.378 164.109C111.265 163.622 111.214 163.019 111.157 162.342L111.157 162.341C111.138 162.109 111.117 161.869 111.094 161.621C111.005 160.697 110.867 159.684 110.484 158.897C110.288 158.495 110.017 158.129 109.636 157.864C109.25 157.597 108.784 157.456 108.239 157.456H108.231L108.224 157.456C107.791 157.469 107.43 157.637 107.15 157.92C106.883 158.19 106.71 158.545 106.592 158.915C106.358 159.651 106.297 160.6 106.282 161.521L106.289 164.02L106.289 164.021C106.303 166.24 106.342 167.91 106.444 169.167C106.546 170.409 106.714 171.305 107.02 171.938C107.184 172.288 107.399 172.568 107.679 172.776C107.957 172.983 108.271 173.098 108.601 173.164C109.099 173.263 109.715 173.26 110.395 173.257C110.565 173.256 110.739 173.255 110.916 173.256C112.865 173.264 114.238 172.583 115.22 171.559L115.223 171.556C116.18 170.543 116.732 169.223 117.123 167.96C117.304 167.394 117.456 166.828 117.597 166.303L117.645 166.125C117.802 165.543 117.946 165.025 118.108 164.588C118.272 164.145 118.438 163.833 118.615 163.639C118.774 163.464 118.932 163.391 119.133 163.394C119.212 163.399 119.335 163.446 119.493 163.653C119.654 163.864 119.806 164.187 119.936 164.603C120.193 165.431 120.32 166.504 120.309 167.443C120.28 169.786 119.785 173.068 119.12 175.767C118.791 177.113 118.424 178.304 118.06 179.144C117.877 179.567 117.705 179.875 117.555 180.067C117.465 180.182 117.41 180.221 117.39 180.234L117.373 180.233L117.348 180.233C117.315 180.232 117.284 180.231 117.25 180.225C117.174 180.21 117.074 180.185 116.947 180.149C116.8 180.107 116.644 180.059 116.468 180.004L116.418 179.988C116.222 179.927 115.992 179.855 115.754 179.809C115.004 179.666 114.035 179.482 112.873 179.467C112.107 179.468 111.341 179.471 110.576 179.475C109.219 179.482 107.398 179.482 105.575 179.482C104.251 179.477 102.93 179.487 101.788 179.496H101.785C101.353 179.499 100.946 179.502 100.574 179.504C99.8132 179.508 99.0525 179.513 98.2918 179.519C97.7855 179.522 97.442 179.412 97.2038 179.263C96.9656 179.115 96.7985 178.907 96.6793 178.66C96.4301 178.145 96.4117 177.51 96.4117 177.066L96.4116 177.063C96.4046 176.161 96.5451 175.74 96.7044 175.481C96.787 175.346 96.8879 175.233 97.0189 175.105C97.0574 175.068 97.1056 175.023 97.1582 174.974C97.2611 174.877 97.3822 174.764 97.4878 174.655C98.2449 173.869 98.9125 172.615 99.0097 168.871L99.0098 168.868L99.0404 167.233L99.0404 167.231C99.0844 164.882 99.1185 163.061 99.1427 161.537L99.1427 161.535C99.1649 159.657 99.1649 158.227 99.1427 156.797L99.1426 156.794C99.113 155.38 99.0686 153.95 98.9723 152.092C98.8836 150.236 98.7506 147.96 98.5661 144.825L98.5661 144.824C98.4028 142.152 98.1097 140.475 97.7424 139.393C97.368 138.29 96.9039 137.768 96.3964 137.454L96.3843 137.447C96.2151 137.348 96.0329 137.27 95.8947 137.21C95.8512 137.192 95.8122 137.175 95.7792 137.16C95.6231 137.089 95.5271 137.031 95.4486 136.948C95.2917 136.783 95.0889 136.392 95.0308 135.197L95.0306 135.195C94.9786 134.208 95.1335 133.527 95.3806 133.051C95.6245 132.581 95.9773 132.274 96.3914 132.063C96.8139 131.848 97.3019 131.732 97.8037 131.66C98.2425 131.597 98.6846 131.556 99.1264 131.516C99.3138 131.499 99.5012 131.481 99.6883 131.462C99.9919 131.432 100.426 131.389 100.948 131.34C101.99 131.241 103.379 131.118 104.771 131.019C106.16 130.942 107.552 130.89 108.599 130.858C109.179 130.84 109.758 130.825 110.338 130.813C112.974 130.828 114.526 130.513 115.51 130.19C115.82 130.089 116.07 129.984 116.276 129.889L116.278 129.888L116.701 129.69Z" fill="#333333"/>
<path d="M112.103 143.716L112.1 143.716L112.108 143.716L112.103 143.716Z" fill="#333333"/>
<path d="M171.727 180.641C170.834 180.399 169.878 180.257 168.95 180.257C168.473 180.255 167.996 180.238 167.519 180.22L167.342 180.214L167.114 180.206L167.111 180.206C166.561 180.191 165.911 180.178 165.216 180.164L165.214 180.164C164.514 180.15 163.769 180.135 163.038 180.117C161.834 180.075 160.629 180.052 159.623 180.034C159.031 180.023 158.507 180.01 158.093 179.999L157.823 179.993L157.626 179.988C157.422 179.983 157.219 179.979 157.016 179.975C156.445 179.964 155.887 179.954 155.448 179.724C155.236 179.614 155.054 179.45 154.92 179.192C154.783 178.926 154.683 178.533 154.687 177.944C154.701 177.148 154.867 176.836 155.02 176.668C155.104 176.576 155.21 176.499 155.357 176.413L155.387 176.395L155.418 176.378C155.458 176.356 155.501 176.332 155.545 176.308L155.548 176.307C155.652 176.25 155.766 176.188 155.891 176.112C156.317 175.85 156.76 175.474 157.101 174.725C157.431 174 157.655 172.953 157.721 171.369C157.788 170.009 157.854 168.704 157.919 167.447C157.982 166.211 158.053 165.025 158.121 163.889L158.147 163.447C158.198 162.582 158.248 161.741 158.303 160.906C158.414 159.312 158.481 157.735 158.533 156.192C158.56 155.682 158.586 155.172 158.611 154.662L158.611 154.66L158.611 154.657L158.611 154.656L158.611 154.655C158.662 153.65 158.712 152.649 158.775 151.66C158.874 150.483 158.736 149.62 158.447 148.941C158.161 148.265 157.676 147.741 157.153 147.243C156.853 146.957 156.619 146.734 156.443 146.445C156.25 146.128 156.121 145.711 156.19 145.019C156.29 144.151 156.639 143.729 157.054 143.519C157.507 143.29 158.145 143.258 158.9 143.403C160.381 143.723 162.042 144.684 162.857 145.187C164.472 146.255 165.674 147.168 166.548 147.957C167.446 148.767 168.028 149.424 168.405 149.972L168.406 149.974C168.786 150.521 168.966 150.959 169.05 151.329C169.134 151.699 169.129 152.029 169.101 152.381L169.101 152.382C169.08 152.663 169.031 152.804 168.995 152.868C168.948 152.952 168.836 152.943 168.745 152.935C168.731 152.933 168.718 152.932 168.705 152.931C168.643 152.928 168.573 152.921 168.5 152.914C168.407 152.904 168.308 152.895 168.21 152.89C167.845 152.871 167.357 152.904 166.946 153.301C166.915 153.33 166.886 153.362 166.856 153.395C166.466 153.837 166.239 154.567 166.149 155.679L166.148 155.684C166.094 156.449 166.04 157.215 165.987 157.98C165.892 159.358 165.768 161.197 165.653 163.04L165.653 163.046C165.557 164.9 165.47 166.756 165.408 168.148C165.373 168.921 165.339 169.695 165.306 170.469L165.306 170.475C165.258 172.151 165.322 173.525 165.775 174.526C166.01 175.044 166.349 175.467 166.825 175.781C167.294 176.09 167.868 176.273 168.546 176.359C168.585 176.364 168.623 176.369 168.661 176.374C170.172 176.557 171.262 176.339 172.061 175.845C172.879 175.339 173.316 174.592 173.604 173.902C173.734 173.592 173.838 173.279 173.931 173.003L173.931 173.001L173.954 172.932C174.056 172.627 174.14 172.384 174.235 172.194C174.33 172 174.407 171.925 174.455 171.897C174.481 171.881 174.546 171.849 174.723 171.9C175.316 172.077 175.754 172.536 176.054 173.156C176.354 173.778 176.488 174.516 176.488 175.133C176.488 176.421 176.02 177.871 175.359 179.016L175.355 179.024C175.021 179.63 174.65 180.133 174.285 180.476C173.909 180.829 173.603 180.955 173.388 180.951C173.025 180.945 172.623 180.85 172.142 180.737C172.01 180.706 171.872 180.673 171.727 180.641Z" fill="#333333"/>
<path fill-rule="evenodd" clip-rule="evenodd" d="M134.625 134.593C133.877 135.768 133.456 137.618 133.31 139.903C133.145 142.604 132.591 145.367 131.924 148.036C131.414 150.171 130.813 152.26 130.262 154.176C130.124 154.656 129.99 155.125 129.86 155.581L129.86 155.583C129.583 156.586 129.302 157.589 129.022 158.591L129.02 158.599L129.02 158.6C128.354 160.982 127.688 163.364 127.064 165.757C126.524 167.83 125.831 170.486 125.129 172.105C124.622 173.29 123.91 173.792 123.361 174.179C123.265 174.247 123.174 174.311 123.09 174.375C122.816 174.583 122.611 174.782 122.462 175.086C122.309 175.399 122.193 175.867 122.187 176.64C122.187 177.759 122.302 178.598 122.89 179.193C123.951 180.241 125.845 180.264 127.222 180.272C127.924 180.29 129.133 180.277 130.156 179.814C130.658 179.588 131.101 179.259 131.421 178.782C131.74 178.308 131.961 177.652 131.964 176.733C131.968 176.217 131.951 175.639 131.695 175.175C131.536 174.888 131.271 174.71 130.997 174.546C130.76 174.403 130.437 174.209 130.194 173.895C129.894 173.508 129.742 172.992 129.75 172.256L129.75 172.255C129.772 170.58 130.056 169.51 130.767 168.94C131.126 168.653 131.544 168.533 131.967 168.489C132.382 168.446 132.839 168.473 133.298 168.507C134.726 168.611 135.872 168.712 136.78 168.852C137.683 168.992 138.399 169.178 138.941 169.475C139.506 169.785 139.875 170.205 140.08 170.772C140.275 171.31 140.312 171.95 140.294 172.684C140.285 173.329 140.118 173.787 139.821 174.136C139.595 174.402 139.298 174.586 139.074 174.724C139.033 174.75 138.994 174.774 138.958 174.797C138.708 174.957 138.514 175.109 138.366 175.364C138.214 175.623 138.082 176.039 138.072 176.77C138.062 177.713 138.236 178.373 138.531 178.844C138.822 179.308 139.261 179.639 139.879 179.868C140.652 180.154 141.467 180.264 142.286 180.325C143.328 180.394 144.37 180.412 145.413 180.43L145.698 180.435C146.601 180.45 148.2 180.477 149.582 180.051C150.268 179.838 150.861 179.519 151.285 179.049C151.701 178.588 151.988 177.946 152.004 177.014C152.017 176.236 151.904 175.906 151.794 175.737C151.688 175.576 151.554 175.5 151.25 175.327L151.19 175.293C150.856 175.102 150.443 174.843 150.049 174.303C149.664 173.774 149.32 173.007 149.043 171.829L149.042 171.825C148.877 171.095 148.632 170.061 148.338 168.816C148.134 167.951 147.905 166.984 147.663 165.946L147.662 165.943C147.078 163.387 146.414 160.396 145.793 157.485L145.792 157.482C145.179 154.536 144.596 151.663 144.138 149.405L144.138 149.403C144.036 148.889 143.94 148.407 143.852 147.963L143.851 147.961C143.545 146.42 143.331 145.343 143.241 144.962L143.17 144.66C142.623 142.34 142.071 140.002 141.189 137.783C140.74 136.657 140.234 135.666 139.658 134.907C139.08 134.147 138.459 133.653 137.787 133.458C137.032 133.239 136.426 133.268 135.931 133.46C135.435 133.652 135 134.028 134.625 134.593ZM134.929 151.001C135.096 150.854 135.354 150.71 135.671 150.77C136.102 150.85 136.382 151.208 136.557 151.501C136.749 151.823 136.907 152.228 137.038 152.634C137.246 153.275 137.41 153.997 137.533 154.536L137.534 154.538C137.566 154.68 137.595 154.809 137.622 154.921C137.745 155.402 138.028 156.532 138.275 157.668C138.31 157.828 138.348 157.99 138.385 158.154C138.566 158.935 138.756 159.761 138.721 160.546C138.708 160.885 138.6 161.181 138.379 161.399C138.166 161.61 137.903 161.694 137.682 161.726C137.339 161.776 136.944 161.711 136.769 161.682C136.746 161.678 136.727 161.675 136.712 161.673L133.919 161.517L133.913 161.516C133.717 161.502 133.294 161.471 132.931 161.216C132.518 160.927 132.284 160.434 132.311 159.724C132.328 159.259 132.529 158.368 132.728 157.563C132.81 157.229 132.898 156.895 132.985 156.562L132.986 156.561L132.986 156.559C133.099 156.128 133.212 155.697 133.315 155.264C133.434 154.76 133.65 153.841 133.919 153.002C134.088 152.474 134.289 151.94 134.515 151.541C134.627 151.343 134.763 151.147 134.929 151.001Z" fill="#333333"/>
<path d="M84.1136 134.544C85.1827 134.252 86.2683 133.855 87.1851 133.216C87.2614 133.157 87.3308 133.101 87.3956 133.049L87.3964 133.049L87.3978 133.048C87.784 132.739 88.0016 132.565 88.4986 132.44C88.5507 132.431 88.655 132.435 88.8245 132.512C88.9996 132.591 89.2136 132.735 89.456 132.957C89.9402 133.402 90.4877 134.118 91.012 135.095C92.0587 137.075 92.9573 140.057 93.1314 143.689C93.2071 145.357 93.0302 146.727 92.6396 147.691C92.3422 148.426 91.8249 149.116 90.9936 149.239C90.4548 149.322 89.9964 149.073 89.5395 148.479C89.0746 147.873 88.6903 147.003 88.3242 146.067L88.3222 146.062C88.2327 145.841 88.1438 145.614 88.055 145.387C87.7866 144.703 87.519 144.02 87.2393 143.493C87.0522 143.14 86.8343 142.804 86.5681 142.57C86.287 142.321 85.9175 142.16 85.4849 142.255L85.4807 142.256C84.9009 142.389 84.5576 142.835 84.3599 143.293C84.1624 143.75 84.0717 144.299 84.0312 144.812C83.9621 145.687 84.0329 146.587 84.0634 146.974C84.124 147.744 84.1646 148.516 84.2051 149.288L84.2053 149.291C84.2225 149.618 84.2397 149.945 84.2583 150.271C84.3662 152.156 84.5063 154.667 84.6354 157.175C84.7387 159.697 84.8327 162.22 84.9009 164.112C84.9387 165.158 84.9752 166.205 85.0111 167.252C85.0582 168.642 85.1109 170.104 85.6388 171.412C86.0056 172.322 86.4949 172.778 86.9733 173.108C87.0959 173.192 87.2119 173.265 87.3194 173.333C87.4132 173.392 87.5005 173.447 87.5802 173.502C87.7501 173.619 87.8849 173.734 87.9974 173.881C88.2166 174.169 88.4202 174.674 88.4363 175.795C88.4437 176.88 88.2259 177.956 87.4408 178.755C87.018 179.191 86.3958 179.575 85.4555 179.882C84.5211 180.172 83.2897 180.346 81.6655 180.383L81.5573 180.384C80.5909 180.392 78.6423 180.41 76.9191 179.908C76.0975 179.674 75.2689 179.342 74.6391 178.746C74.0824 178.219 73.7164 177.505 73.7066 176.486L73.7066 176.481C73.6929 175.755 73.8119 175.331 73.9647 175.056C74.1161 174.783 74.3287 174.604 74.6181 174.411C74.6771 174.371 74.7426 174.33 74.8125 174.285C75.0614 174.127 75.3662 173.933 75.6307 173.684C75.9948 173.341 76.3045 172.884 76.4934 172.203C76.739 171.274 76.7669 170.263 76.7936 169.295C76.7974 169.156 76.8012 169.018 76.8056 168.881C76.8475 167.586 76.8438 166.265 76.8289 165.49C76.8115 164.782 76.7938 164.074 76.7753 163.366C76.742 162.093 76.6959 160.396 76.6442 158.701L76.644 158.696C76.5738 156.993 76.4963 155.296 76.4363 154.025C76.403 153.32 76.3686 152.614 76.3338 151.909L76.3336 151.905C76.1496 148.677 75.8702 147.053 75.5378 146.252C75.3709 145.85 75.142 145.536 74.7899 145.417C74.4834 145.314 74.1961 145.411 74.0867 145.449C73.725 145.572 73.4601 145.832 73.2543 146.147C73.0596 146.446 72.8937 146.819 72.7445 147.22C72.5325 147.79 72.3316 148.48 72.1264 149.185C72.0451 149.464 71.963 149.746 71.8793 150.024C71.5782 151.011 71.244 151.966 70.8216 152.72C70.3946 153.483 69.9245 153.958 69.3926 154.119C69.1949 154.181 68.9921 154.181 68.8025 154.092C68.6198 154.006 68.4274 153.838 68.2433 153.57C67.8719 153.029 67.603 152.182 67.5191 151.232L67.5189 151.23C67.3044 148.934 67.6552 145.989 68.2954 143.479L68.2961 143.477C68.6121 142.205 68.9987 141.062 69.4224 140.188C69.6343 139.751 69.8499 139.393 70.0626 139.123C70.2732 138.856 70.4612 138.701 70.6156 138.626C70.6809 138.602 70.8345 138.579 71.1934 138.548C71.2363 138.545 71.2791 138.541 71.3219 138.538C71.5301 138.521 71.738 138.504 71.9528 138.468C72.651 138.35 73.6643 138.178 75.0922 137.615C75.5562 137.439 76.0209 137.265 76.4861 137.093C78.5381 136.332 80.6014 135.625 82.6919 134.978C83.12 134.845 83.4771 134.736 83.7271 134.66C83.8558 134.621 83.9847 134.582 84.1136 134.544Z" fill="#333333"/>
<path d="M60.6723 144.707C60.4237 144.859 60.2058 145.129 59.9595 145.468L59.8958 145.556C59.7997 145.69 59.6967 145.833 59.5955 145.956C59.3616 146.242 59.0964 146.435 58.7442 146.543C58.5567 146.6 58.3287 146.655 58.0772 146.715L58.0439 146.723C57.7548 146.792 57.4291 146.87 57.0719 146.97C56.1577 147.226 55.09 147.612 54.1404 148.284C52.6647 149.396 51.4076 150.71 50.3487 152.129L50.3473 152.131C49.283 153.543 48.4063 155.013 47.7107 156.441C47.0809 157.733 46.5013 159.041 46.0949 160.422L46.0942 160.425C45.7347 161.625 45.5546 162.704 45.5542 163.585C45.5684 164.787 45.8829 165.729 46.3832 166.467C46.9379 167.284 47.7172 167.905 48.5785 168.375C49.4955 168.876 50.4275 169.229 51.4476 169.464C52.091 169.611 52.7379 169.729 53.3891 169.837C53.6773 169.884 53.9654 169.932 54.2526 169.985C55.0988 170.152 55.9307 170.349 56.5518 170.768C57.2243 171.223 57.6112 171.907 57.6373 172.912C57.6688 174.025 57.0794 174.807 56.4194 175.301C55.7719 175.786 55.0144 176.031 54.5543 176.093L54.5529 176.093C52.8429 176.319 51.5337 176.044 50.5153 175.496C49.4968 174.988 48.8084 174.227 48.2678 173.519C48.0339 173.219 47.8245 172.916 47.6356 172.642L47.5573 172.529C47.3423 172.219 47.1583 171.961 46.9757 171.758C46.7931 171.556 46.6412 171.443 46.505 171.389C46.3841 171.341 46.2413 171.326 46.0356 171.393C45.3167 171.626 44.9563 172.423 44.9563 173.287C44.9563 174.133 45.1391 175.43 45.5356 176.612L45.5365 176.615C45.7348 177.217 45.9816 177.783 46.2696 178.242C46.5609 178.707 46.8721 179.029 47.1841 179.193C48.4064 179.836 49.7689 180.148 51.1168 180.4C52.6357 180.705 54.185 180.869 55.3048 180.848L55.3071 180.848C57.305 180.819 58.9917 180.407 60.3916 179.708C61.7866 178.96 62.9082 177.904 63.7973 176.642C64.6732 175.348 65.3002 173.849 65.6864 172.261C66.0731 170.671 66.217 169.021 66.1525 167.448C66.0585 165.426 65.7059 163.836 65.1083 162.571C64.5131 161.332 63.6911 160.418 62.6181 159.755C61.6133 159.14 60.5976 158.869 59.609 158.741C58.765 158.67 57.9692 158.694 57.2146 158.717C57.0752 158.721 56.9371 158.726 56.8005 158.729C55.9796 158.765 55.1411 158.773 54.4918 158.48C54.1465 158.325 53.8509 158.085 53.6372 157.733C53.4281 157.389 53.3154 156.967 53.2802 156.472C53.1445 154.618 54.3227 153.197 55.4547 152.541C56.2717 152.068 57.2444 151.905 58.1597 152.154C59.1425 152.42 59.9606 153.061 60.7238 153.708C61.1471 154.067 61.5218 154.386 61.9017 154.618C62.2779 154.848 62.7145 155.019 63.1495 154.852C63.5832 154.692 63.9846 154.208 64.258 153.438C64.5248 152.686 64.6312 151.76 64.5524 150.895C64.3406 148.724 63.503 146.959 62.6069 145.846C62.1568 145.326 61.7102 144.982 61.3394 144.806C60.9511 144.622 60.7465 144.664 60.6723 144.707Z" fill="#333333"/>
<path d="M54.505 204.796C54.4701 205.338 54.435 205.88 54.3997 206.422C54.3361 207.396 54.2506 208.691 54.1632 209.979L54.1629 209.984C54.0635 211.272 53.9601 212.558 53.8816 213.522C53.838 214.057 53.7939 214.592 53.7494 215.127C53.7009 215.713 53.5963 216.689 53.4522 217.618C53.3802 218.083 53.2973 218.542 53.2052 218.938C53.116 219.322 53.0087 219.69 52.8753 219.943C52.8693 219.955 52.8629 219.966 52.8561 219.977C52.7084 220.212 52.5187 220.385 52.2936 220.495C52.0731 220.603 51.8461 220.637 51.6397 220.638C51.3335 220.64 50.9963 220.564 50.741 220.507L50.74 220.506C50.6791 220.493 50.6227 220.48 50.5727 220.47C50.2377 220.4 50.1262 220.419 50.0885 220.441C50.0885 220.441 50.0622 220.452 50.0303 220.525C49.9945 220.608 49.9567 220.756 49.9445 221.006L49.9444 221.008C49.9086 221.688 50.1968 222.498 50.753 223.395C51.3028 224.282 52.0791 225.198 52.9321 226.074C54.6502 227.8 56.655 229.198 57.5351 229.8C59.1612 230.876 60.4229 231.526 61.3902 231.856C62.3912 232.197 63.0504 232.225 63.4868 232.121C63.907 232.017 64.1518 231.794 64.3147 231.511C64.4885 231.209 64.5761 230.825 64.6252 230.408C64.7156 229.486 64.5685 228.936 64.3424 228.521C64.158 228.183 63.9234 227.925 63.6326 227.605C63.5325 227.495 63.4256 227.377 63.312 227.247C62.8843 226.756 62.4421 226.156 62.1563 225.234C61.8736 224.321 61.7542 223.128 61.9066 221.457C61.9734 220.576 62.0394 219.694 62.1038 218.813C62.2199 217.224 62.3707 215.105 62.5096 212.982C62.6247 210.864 62.7258 208.739 62.7983 207.143C62.8345 206.345 62.8635 205.68 62.8835 205.214C62.8868 205.137 62.8904 205.061 62.8941 204.985L62.8941 204.984C62.9039 204.779 62.9136 204.574 62.9164 204.369C62.9208 204.044 62.9315 203.251 63.0881 202.525C63.1781 202.107 63.3277 201.649 63.5956 201.299C63.8837 200.922 64.3187 200.664 64.8939 200.732C65.2931 200.778 65.6071 200.991 65.8492 201.259C66.0864 201.523 66.2755 201.861 66.4365 202.219C66.6779 202.756 66.8924 203.423 67.1076 204.093C67.1757 204.305 67.244 204.518 67.3132 204.726L67.3159 204.734C67.601 205.645 67.9169 206.52 68.3458 207.198C68.7708 207.87 69.2691 208.291 69.9059 208.404L69.9075 208.404C70.3017 208.476 70.6237 208.43 70.892 208.305C71.1631 208.178 71.4151 207.952 71.6372 207.605C72.0898 206.899 72.3789 205.752 72.4334 204.217C72.5184 200.95 71.8115 198.088 70.9142 196.115C70.4534 195.14 69.9553 194.392 69.5013 193.896C69.2738 193.648 69.0667 193.473 68.8908 193.363C68.7103 193.251 68.5943 193.226 68.5391 193.226C67.9834 193.226 67.742 193.33 67.2905 193.525C67.2751 193.532 67.2594 193.539 67.2435 193.546C67.1979 193.567 67.1502 193.588 67.0997 193.603C66.5012 193.78 65.6875 194.014 63.9895 193.989L63.5871 193.987C63.3295 193.986 62.9616 193.984 62.5201 193.98C61.6377 193.973 60.4607 193.961 59.2833 193.941C58.1148 193.93 56.9446 193.914 56.0666 193.901C55.6273 193.894 55.2611 193.889 55.0047 193.884L54.6044 193.878C53.4756 193.872 52.2954 193.794 51.1965 193.513C51.0817 193.483 50.9764 193.456 50.8791 193.431C50.666 193.376 50.4917 193.331 50.3415 193.296C50.1176 193.243 49.9981 193.226 49.9298 193.226C49.5387 193.226 49.0675 193.427 48.5482 193.86C48.0359 194.286 47.5239 194.9 47.0619 195.625L47.0549 195.636C46.1414 196.991 45.5112 198.691 45.5112 200.196C45.5112 200.784 45.693 201.442 46.0351 201.994C46.3762 202.544 46.8559 202.958 47.4363 203.123L47.441 203.125C48.0459 203.303 48.5229 203.193 48.952 202.926C49.4049 202.643 49.8105 202.18 50.2165 201.634C50.3294 201.475 50.4446 201.306 50.5611 201.135C50.8374 200.731 51.1211 200.315 51.3983 199.993C51.7826 199.547 52.3236 199.071 53.0311 199.177L53.0394 199.178L53.0662 199.182C53.1892 199.202 53.427 199.24 53.6565 199.392C53.9159 199.564 54.1106 199.838 54.2504 200.229C54.518 200.977 54.6404 202.32 54.5053 204.792L54.505 204.796Z" fill="#333333"/>
<path d="M143.672 194.559C142.35 195.438 141.239 196.695 140.347 198.186C139.455 199.709 138.797 201.448 138.361 203.26C137.926 205.093 137.741 206.948 137.795 208.674L137.795 208.675C137.865 211.09 138.33 213.267 139.049 215.161C139.766 217.018 140.742 218.562 141.845 219.803C142.944 220.985 144.083 221.716 145.168 222.199C146.209 222.629 147.204 222.865 148.13 223.084C148.259 223.115 148.388 223.144 148.518 223.174C149.333 223.358 150.164 223.546 150.857 224.029C151.608 224.551 152.058 225.345 152.159 226.564C152.282 227.884 151.752 228.961 151.103 229.73C150.464 230.488 149.675 230.99 149.17 231.17C147.272 231.867 145.745 231.659 144.522 230.921L144.52 230.92C143.311 230.184 142.465 228.978 141.794 227.791L141.791 227.786C141.52 227.292 141.276 226.783 141.032 226.274C140.742 225.669 140.451 225.063 140.115 224.482C139.863 224.047 139.637 223.742 139.422 223.561C139.225 223.396 139.07 223.358 138.911 223.387C138.604 223.454 138.305 223.764 138.098 224.459C137.898 225.131 137.836 226.014 137.889 226.902C137.999 228.616 138.39 231.212 139.017 233.555C139.342 234.71 139.719 235.773 140.134 236.614C140.559 237.474 140.984 238.019 141.366 238.244C142.458 238.856 144.096 239.073 145.815 238.966C147.52 238.811 149.223 238.362 150.432 237.796L150.436 237.794C152.584 236.809 154.341 235.422 155.762 233.831C157.18 232.243 158.273 230.499 159.088 228.698L159.091 228.693C159.913 226.931 160.457 225.121 160.776 223.387L160.777 223.384C161.102 221.67 161.187 220.005 161.071 218.493L161.071 218.491C160.931 216.551 160.538 215.043 159.913 213.867L159.911 213.863C159.277 212.649 158.398 211.698 157.217 210.881L157.207 210.874C156.119 210.08 154.979 209.592 153.87 209.219C153.165 208.983 152.507 208.809 151.87 208.641C151.483 208.538 151.103 208.438 150.726 208.327L150.716 208.324C149.764 208.024 148.856 207.666 148.185 207.011C147.491 206.334 147.104 205.397 147.061 204.057L147.061 204.054C147.031 202.821 147.349 201.88 147.891 201.225C148.432 200.57 149.162 200.241 149.874 200.174L149.879 200.174C151.022 200.077 151.985 200.491 152.803 201.104C153.65 201.739 154.37 202.616 155.017 203.405C155.092 203.497 155.167 203.588 155.241 203.677C155.746 204.288 156.198 204.835 156.651 205.241C157.197 205.731 157.627 205.905 158.028 205.831C158.507 205.738 158.945 205.332 159.269 204.636C159.589 203.949 159.753 203.065 159.727 202.213L159.727 202.212C159.666 200.031 158.927 197.988 158.067 196.46L158.066 196.458C157.628 195.67 157.164 195.031 156.745 194.597L156.696 194.546C156.5 194.341 156.184 194.01 155.903 194.013L155.902 194.013C155.577 194.016 155.296 194.224 155.026 194.424C154.914 194.507 154.803 194.588 154.693 194.653C154.53 194.748 154.313 194.851 154.06 194.863C153.891 194.87 153.708 194.815 153.564 194.768C153.323 194.688 153.027 194.565 152.698 194.428L152.648 194.407C152.354 194.285 152.028 194.149 151.67 194.011C150.617 193.606 149.392 193.226 148.26 193.226C146.523 193.226 144.989 193.706 143.672 194.559Z" fill="#333333"/>
<path d="M168.133 200.004C168.11 198.288 168.411 196.543 169.077 195.215C169.752 193.978 170.739 193.226 172.146 193.226C173.574 193.226 174.564 193.907 175.233 194.917L175.236 194.922C175.903 195.904 176.215 197.234 176.215 198.582C176.215 199.728 176.009 201.045 175.68 202.406C175.344 203.797 174.89 205.215 174.404 206.485L174.4 206.495C174.243 206.935 173.866 207.953 173.421 208.906C173.198 209.384 172.964 209.833 172.738 210.18C172.625 210.354 172.52 210.493 172.427 210.595C172.263 210.772 172.188 210.785 171.987 210.65C171.788 210.516 171.557 210.281 171.317 209.978C170.843 209.377 170.424 208.628 170.252 208.273L170.245 208.26C169.7 207.216 169.181 205.885 168.783 204.438C168.41 202.974 168.163 201.425 168.133 200.004Z" fill="#333333"/>
<path d="M175.069 214.696C174.571 214.429 173.794 214.431 172.812 214.982L172.804 214.986C171.845 215.503 170.958 216.518 170.333 217.777C169.711 219.03 169.374 220.473 169.466 221.797C169.568 223.135 170.043 223.888 170.564 224.174C171.053 224.441 171.784 224.4 172.681 223.668C173.577 222.88 174.404 221.682 175.005 220.383C175.608 219.078 175.96 217.722 175.953 216.639C175.945 215.573 175.557 214.959 175.069 214.696Z" fill="#333333"/>
<path d="M119.064 194.059C120.035 193.746 121.134 193.584 122.002 193.501C123.021 193.404 124.027 193.415 125.043 193.519C125.944 193.611 126.96 193.778 127.613 194.065C128.278 194.364 128.852 194.781 129.264 195.377C129.675 195.971 129.95 196.779 129.962 197.904C129.967 198.496 129.887 198.904 129.768 199.214C129.65 199.521 129.483 199.759 129.272 200.001C129.184 200.101 129.084 200.205 128.977 200.317C128.582 200.73 128.087 201.248 127.717 202.072C127.502 202.551 127.366 203.331 127.272 204.241C127.192 205.008 127.139 205.913 127.105 206.898C127.097 207.109 127.091 207.323 127.085 207.54L127.085 207.544C127.037 210.003 127.093 212.913 127.149 215.423L127.149 215.428L127.371 222.563L127.372 222.566C127.61 228.964 127.872 232.1 128.182 233.755C128.333 234.571 128.505 235.066 128.731 235.416C128.93 235.724 129.172 235.915 129.337 236.045L129.375 236.075L129.407 236.101C129.629 236.283 129.853 236.44 130.05 236.578C130.367 236.801 130.607 236.974 130.802 237.186C131.101 237.51 131.35 237.984 131.409 238.993C131.47 240.026 131.46 241.197 130.458 242.346L130.454 242.351C129.943 242.954 129.146 243.55 127.907 244.101C126.675 244.648 125.001 245.115 122.761 245.436C121.885 245.539 120.226 245.674 118.771 245.248C118.063 245.014 117.438 244.652 116.985 244.108C116.536 243.568 116.224 242.81 116.206 241.721C116.192 240.661 116.486 240.062 116.855 239.546C116.978 239.374 117.096 239.228 117.222 239.071C117.31 238.963 117.402 238.849 117.503 238.717C117.732 238.418 117.963 238.08 118.143 237.661C118.42 237.032 118.629 236.007 118.748 233.899C118.876 231.758 118.916 228.46 118.828 223.286L118.725 215.978C118.677 211.278 118.55 208.387 118.389 206.541L118.389 206.539C118.221 204.678 118.009 203.832 117.773 203.263L117.773 203.261C117.407 202.384 116.93 201.777 116.53 201.267L116.53 201.267C116.407 201.11 116.29 200.961 116.188 200.818C115.843 200.34 115.562 199.825 115.46 198.982C115.434 198.768 115.42 198.532 115.419 198.271C115.416 197.079 115.846 196.202 116.501 195.538C117.168 194.861 118.085 194.387 119.064 194.059Z" fill="#333333"/>
<path d="M105.804 230.48C105.792 231.481 105.779 232.482 105.766 233.482L105.766 233.484C105.754 234.605 105.784 235.501 105.971 236.272C106.164 237.065 106.518 237.71 107.119 238.346L107.128 238.356L107.253 238.479C107.612 238.837 107.856 239.079 108.035 239.413C108.224 239.765 108.356 240.258 108.349 241.144C108.341 242.027 108.3 243.216 107.39 244.182C106.94 244.651 106.225 245.102 105.14 245.392C104.024 245.669 102.528 245.795 100.52 245.578L100.513 245.577C99.6069 245.492 97.9087 245.252 96.472 244.426L96.4688 244.424C95.0725 243.635 93.9692 242.347 94.0839 240.174L94.0845 240.159C94.1158 238.786 94.3035 238.277 94.4923 238.006C94.5969 237.856 94.7229 237.748 94.918 237.587C95.0792 237.454 95.2816 237.287 95.4867 237.052L95.4882 237.05C95.9474 236.52 96.3789 235.697 96.7308 234.104C97.0819 232.515 97.3616 230.122 97.4931 226.419L97.4932 226.416C97.5231 225.434 97.5163 224.678 97.4531 224.096C97.3907 223.522 97.2679 223.057 97.0187 222.706C96.7532 222.332 96.3918 222.152 96.0012 222.052C95.683 221.97 95.3015 221.932 94.9013 221.893L94.7287 221.876C93.3738 221.71 92.3336 221.6 91.554 221.642C90.7602 221.684 90.1193 221.888 89.6911 222.46C89.2982 222.986 89.1559 223.738 89.0743 224.655C89.019 225.275 88.9886 226.035 88.9524 226.937L88.9523 226.938L88.9523 226.94L88.9522 226.942C88.9341 227.392 88.9146 227.879 88.8899 228.401C88.6066 233.249 89.1366 234.936 89.7966 236C89.9115 236.185 90.0326 236.354 90.1379 236.501C90.3215 236.758 90.4523 236.945 90.5578 237.188C90.7239 237.569 90.8442 238.134 90.7812 239.244C90.7121 240.383 90.3253 241.131 89.7965 241.628C89.2593 242.133 88.529 242.423 87.7043 242.553C86.0428 242.774 84.1783 242.314 83.2171 242.045C82.2962 241.745 80.5286 241.107 79.0634 239.975C77.5866 238.833 76.4894 237.304 76.673 235.355C76.7294 234.752 76.9016 234.345 77.1112 234.06C77.3202 233.776 77.5882 233.584 77.8837 233.444C77.927 233.425 77.9722 233.406 78.0189 233.386C78.32 233.26 78.6838 233.108 78.9931 232.793C79.3594 232.42 79.6236 231.863 79.8537 230.967C80.0853 230.066 80.2949 228.749 80.51 226.814L80.5102 226.812C80.718 224.861 80.9172 222.262 81.1161 218.786L81.1163 218.782C81.3389 214.322 81.4583 211.075 81.5141 208.677L81.5142 208.673C81.5459 206.289 81.5226 204.742 81.433 203.69C81.3481 202.656 81.2006 202.055 80.9331 201.61C80.7617 201.325 80.5566 201.131 80.3799 200.964L80.3488 200.935C80.2485 200.84 80.1514 200.741 80.055 200.643L79.9787 200.566C79.4338 200.015 78.9446 199.52 78.9635 198.48L78.9635 198.476C78.9744 197.335 79.3389 196.475 79.8977 195.812C80.4637 195.14 81.2497 194.649 82.1303 194.295L82.137 194.292C83.9051 193.552 85.956 193.425 87.0054 193.425C87.779 193.425 89.1964 193.513 90.3959 194.091C90.9893 194.376 91.5173 194.775 91.8968 195.325C92.273 195.87 92.5237 196.594 92.5205 197.569C92.505 198.641 92.344 199.318 92.1066 199.826C91.8684 200.336 91.5372 200.714 91.0968 201.182C90.8364 201.44 90.6026 201.714 90.41 202.086C90.218 202.458 90.0799 202.902 89.9747 203.49C89.767 204.652 89.6718 206.474 89.6045 209.607C89.5764 210.61 89.618 211.372 89.7386 211.951C89.8599 212.532 90.071 212.976 90.419 213.282C90.7654 213.586 91.1809 213.694 91.5759 213.746C91.8014 213.775 92.0743 213.79 92.3465 213.805C92.5131 213.814 92.6798 213.824 92.835 213.836L92.8372 213.836L94.7876 214.011L94.7982 214.012C95.4541 214.056 95.9899 214.047 96.418 213.95C96.8627 213.85 97.2199 213.648 97.4645 213.299C97.6942 212.971 97.7824 212.57 97.8256 212.162C97.8644 211.796 97.8717 211.361 97.8798 210.882L97.8827 210.709L97.8827 210.706C97.9344 206.726 97.8005 204.564 97.5822 203.323C97.4724 202.699 97.3372 202.281 97.1774 201.973C97.0467 201.721 96.8634 201.519 96.6758 201.312L96.6317 201.263C96.2972 200.893 96.027 200.595 95.8218 200.197C95.6065 199.779 95.452 199.225 95.4593 198.349L95.4601 198.265C95.4671 197.548 95.478 196.419 96.2356 195.426C96.6349 194.924 97.2493 194.435 98.2234 194.043C99.2093 193.673 100.559 193.425 102.397 193.425C103.309 193.425 104.921 193.461 106.31 194.057C106.991 194.37 107.598 194.821 108.038 195.471C108.478 196.12 108.774 197.002 108.778 198.217C108.77 199.737 108.384 200.71 107.754 201.323C107.717 201.352 107.68 201.382 107.641 201.413C107.417 201.591 107.154 201.798 106.941 202.111C106.68 202.496 106.501 203.011 106.369 203.817C106.107 205.391 105.997 208.337 105.957 214.226C105.95 215.229 105.943 216.232 105.935 217.235C105.921 219.041 105.901 221.45 105.878 223.861C105.854 226.273 105.826 228.678 105.804 230.48Z" fill="#333333"/>
<path d="M111.845 83.9306C111.445 83.9306 111.149 83.7949 110.958 83.5235C110.769 83.2521 110.675 82.8721 110.675 82.3836C110.675 81.895 110.769 81.5151 110.958 81.2437C111.149 80.9723 111.445 80.8365 111.845 80.8365C112.245 80.8365 112.539 80.9723 112.727 81.2437C112.919 81.5151 113.015 81.895 113.015 82.3836C113.015 82.8721 112.919 83.2521 112.727 83.5235C112.539 83.7949 112.245 83.9306 111.845 83.9306ZM111.845 83.4121C112.028 83.4121 112.153 83.3449 112.222 83.2107C112.293 83.0735 112.329 82.8835 112.329 82.6407V82.1222C112.329 81.8822 112.293 81.6951 112.222 81.5608C112.153 81.4236 112.028 81.3551 111.845 81.3551C111.662 81.3551 111.535 81.4236 111.463 81.5608C111.395 81.6951 111.36 81.8822 111.36 82.1222V82.645C111.36 82.885 111.395 83.0735 111.463 83.2107C111.535 83.3449 111.662 83.4121 111.845 83.4121Z" fill="#333333"/>
<path d="M115.884 84.4788L116.907 81.668L117.994 82.0637C118.131 82.1136 118.245 82.1795 118.337 82.2615C118.43 82.3409 118.498 82.4327 118.542 82.5369C118.589 82.6421 118.611 82.7566 118.609 82.8804C118.606 83.0041 118.58 83.1345 118.53 83.2714C118.48 83.4083 118.417 83.5249 118.339 83.6213C118.261 83.7177 118.171 83.7912 118.067 83.8417C117.966 83.8931 117.855 83.9208 117.732 83.9247C117.61 83.9259 117.48 83.9015 117.343 83.8517L116.864 83.6773L116.492 84.7001L115.884 84.4788ZM117.041 83.19L117.367 83.3087C117.51 83.3605 117.617 83.3693 117.691 83.3352C117.767 83.302 117.827 83.2237 117.872 83.1002L117.916 82.9794C117.961 82.8559 117.965 82.757 117.928 82.6828C117.894 82.6096 117.806 82.5471 117.664 82.4953L117.337 82.3766L117.041 83.19Z" fill="#333333"/>
<path d="M120.566 86.8497L122.488 84.5583L123.375 85.302C123.486 85.3957 123.571 85.4967 123.629 85.6052C123.689 85.7115 123.722 85.8212 123.728 85.9342C123.736 86.0491 123.718 86.1643 123.673 86.2797C123.628 86.3951 123.559 86.5087 123.466 86.6203C123.372 86.7319 123.272 86.8197 123.166 86.8837C123.06 86.9478 122.95 86.9858 122.836 86.9978C122.723 87.0117 122.609 86.9994 122.492 86.961C122.377 86.9204 122.263 86.8532 122.152 86.7596L121.761 86.4318L121.061 87.2656L120.566 86.8497ZM122.094 86.0346L122.36 86.2577C122.476 86.355 122.574 86.4002 122.655 86.3931C122.738 86.3879 122.821 86.335 122.906 86.2343L122.988 86.1358C123.073 86.0351 123.11 85.9436 123.101 85.8613C123.094 85.7808 123.033 85.6919 122.917 85.5946L122.651 85.3714L122.094 86.0346Z" fill="#333333"/>
<path d="M124.59 91.536C124.39 91.1896 124.36 90.8657 124.499 90.5642C124.64 90.2652 124.922 89.9936 125.345 89.7493C125.768 89.5051 126.144 89.3967 126.473 89.4243C126.804 89.4544 127.069 89.6426 127.269 89.989C127.469 90.3354 127.499 90.6581 127.358 90.9571C127.219 91.2585 126.938 91.5314 126.515 91.7757C126.092 92.0199 125.715 92.1271 125.384 92.097C125.055 92.0694 124.79 91.8824 124.59 91.536ZM125.039 91.2768C125.13 91.4351 125.251 91.5104 125.402 91.5026C125.556 91.4959 125.739 91.4319 125.949 91.3104L126.398 91.0512C126.606 90.9312 126.75 90.8067 126.831 90.6777C126.915 90.5498 126.912 90.4066 126.82 90.2483C126.729 90.0899 126.606 90.0141 126.451 90.0208C126.301 90.0286 126.122 90.0924 125.914 90.2124L125.461 90.4738C125.253 90.5938 125.107 90.7178 125.023 90.8457C124.942 90.9747 124.948 91.1184 125.039 91.2768Z" fill="#333333"/>
<path d="M126.302 96.2841C126.259 96.0365 126.261 95.8141 126.311 95.6168C126.36 95.4195 126.445 95.2522 126.566 95.1149L127.036 95.4106C126.937 95.5383 126.87 95.6705 126.836 95.807C126.803 95.9464 126.798 96.0822 126.821 96.2144C126.848 96.3663 126.902 96.4757 126.983 96.5426C127.065 96.6095 127.169 96.6317 127.295 96.6094C127.399 96.5911 127.473 96.5462 127.515 96.4749C127.558 96.4064 127.578 96.2984 127.576 96.1509L127.572 95.8339C127.57 95.5615 127.634 95.3531 127.762 95.2086C127.893 95.0637 128.067 94.9721 128.283 94.9339C128.568 94.8838 128.803 94.9379 128.991 95.0963C129.181 95.2542 129.306 95.5006 129.365 95.8354C129.405 96.0633 129.405 96.2679 129.364 96.4491C129.324 96.6303 129.252 96.7836 129.15 96.9091L128.685 96.621C128.759 96.5269 128.81 96.4221 128.839 96.3068C128.871 96.1909 128.875 96.0655 128.851 95.9304C128.801 95.6463 128.659 95.5248 128.425 95.5659C128.324 95.5838 128.254 95.6281 128.214 95.699C128.175 95.7726 128.155 95.8834 128.155 96.0314L128.154 96.3491C128.154 96.5957 128.097 96.7959 127.982 96.9496C127.867 97.1033 127.692 97.2008 127.459 97.242C127.321 97.2663 127.189 97.2649 127.062 97.2379C126.938 97.2105 126.825 97.1566 126.72 97.0763C126.619 96.9955 126.532 96.889 126.46 96.7568C126.387 96.6273 126.335 96.4698 126.302 96.2841Z" fill="#333333"/>
<path d="M126.506 100.741L126.974 100.823L126.862 101.456L128.871 101.811L128.983 101.178L129.451 101.26L129.117 103.159L128.648 103.077L128.76 102.444L126.751 102.089L126.639 102.722L126.171 102.64L126.506 100.741Z" fill="#333333"/>
<path d="M126.505 107.109L126.528 107.068L124.806 106.074L125.08 105.599L127.671 107.094L127.285 107.762L125.222 107.358L125.199 107.399L126.921 108.393L126.647 108.868L124.056 107.373L124.442 106.705L126.505 107.109Z" fill="#333333"/>
<path d="M121.008 111.215L121.038 111.19C121.017 111.125 121.002 111.059 120.994 110.991C120.986 110.924 120.988 110.855 121 110.785C121.014 110.717 121.041 110.65 121.082 110.582C121.12 110.517 121.174 110.454 121.244 110.396C121.356 110.302 121.477 110.245 121.609 110.224C121.738 110.205 121.875 110.221 122.018 110.272C122.162 110.323 122.31 110.408 122.461 110.526C122.611 110.647 122.762 110.798 122.915 110.98C123.241 111.369 123.42 111.727 123.45 112.052C123.483 112.379 123.35 112.668 123.052 112.917C122.934 113.017 122.816 113.087 122.699 113.13C122.584 113.174 122.469 113.194 122.356 113.188C122.243 113.186 122.132 113.162 122.022 113.116C121.912 113.07 121.804 113.008 121.698 112.93L122.064 112.432C122.117 112.469 122.171 112.503 122.225 112.532C122.279 112.565 122.334 112.588 122.389 112.601C122.445 112.614 122.501 112.614 122.557 112.6C122.615 112.589 122.672 112.56 122.729 112.512C122.854 112.407 122.899 112.281 122.865 112.134C122.829 111.989 122.733 111.824 122.577 111.638L122.263 111.264C122.107 111.077 121.955 110.952 121.806 110.886C121.656 110.822 121.509 110.85 121.367 110.969C121.256 111.063 121.2 111.165 121.2 111.277C121.201 111.389 121.244 111.496 121.33 111.599L121.471 111.766L121.862 111.438L122.154 111.786L121.323 112.483L120.296 111.259L120.735 110.89L121.008 111.215Z" fill="#333333"/>
<path d="M111.105 116.482V114.018H111.748V116.482H112.609V117.009H110.244V116.482H111.105Z" fill="#333333"/>
<path d="M105.558 114.166L106.267 114.424L106.695 113.248L107.303 113.47L106.28 116.28L105.672 116.059L106.086 114.919L105.378 114.661L104.963 115.801L104.355 115.58L105.378 112.769L105.986 112.99L105.558 114.166Z" fill="#333333"/>
<path d="M101.735 110.376C102.042 110.633 102.181 110.927 102.153 111.258C102.123 111.587 101.951 111.939 101.637 112.313C101.323 112.687 101.007 112.917 100.688 113.004C100.367 113.089 100.053 113.003 99.7464 112.746C99.44 112.489 99.3018 112.196 99.3319 111.867C99.3597 111.536 99.5306 111.183 99.8446 110.809C100.159 110.435 100.476 110.205 100.797 110.12C101.116 110.033 101.429 110.119 101.735 110.376ZM101.402 110.773C101.262 110.655 101.122 110.626 100.984 110.685C100.841 110.744 100.691 110.867 100.535 111.053L100.202 111.45C100.048 111.634 99.9547 111.8 99.9231 111.949C99.8875 112.098 99.9397 112.231 100.08 112.349C100.22 112.466 100.361 112.495 100.504 112.436C100.643 112.377 100.79 112.256 100.944 112.072L101.28 111.672C101.434 111.488 101.529 111.321 101.565 111.172C101.596 111.024 101.542 110.89 101.402 110.773Z" fill="#333333"/>
<path d="M96.0472 108.333L97.6875 107.386C97.7692 107.338 97.8432 107.292 97.9096 107.247C97.9722 107.201 98.0205 107.154 98.0547 107.104C98.0874 107.052 98.1038 106.995 98.1039 106.932C98.1015 106.871 98.0767 106.8 98.0295 106.718C97.9824 106.636 97.9329 106.579 97.881 106.546C97.8267 106.515 97.7695 106.502 97.7097 106.507C97.6484 106.509 97.5829 106.527 97.5132 106.561C97.4397 106.593 97.3621 106.633 97.2804 106.68L95.6401 107.628L95.3186 107.071L96.8848 106.167C97.0629 106.064 97.226 105.986 97.3738 105.934C97.5203 105.879 97.6574 105.859 97.785 105.875C97.9126 105.89 98.033 105.944 98.1461 106.037C98.2592 106.13 98.37 106.271 98.4786 106.459C98.5872 106.647 98.6535 106.813 98.6775 106.958C98.7015 107.102 98.6883 107.233 98.6378 107.352C98.5873 107.47 98.5024 107.58 98.3831 107.682C98.2623 107.781 98.1129 107.882 97.9347 107.985L96.3686 108.889L96.0472 108.333Z" fill="#333333"/>
<path d="M96.1189 101.037L96.1256 101.075C96.192 101.089 96.2565 101.11 96.3193 101.136C96.382 101.163 96.4406 101.199 96.495 101.245C96.5466 101.291 96.5916 101.348 96.6298 101.417C96.6675 101.483 96.6943 101.561 96.7102 101.651C96.7355 101.794 96.7243 101.928 96.6766 102.053C96.6284 102.174 96.5463 102.284 96.4303 102.383C96.3143 102.482 96.1669 102.567 95.9881 102.64C95.8089 102.709 95.6025 102.764 95.369 102.805C94.8682 102.894 94.4694 102.87 94.1727 102.733C93.8732 102.598 93.6897 102.338 93.6222 101.956C93.5954 101.804 93.5929 101.667 93.6148 101.544C93.6339 101.421 93.6742 101.313 93.7357 101.218C93.794 101.12 93.8705 101.036 93.9652 100.964C94.0598 100.892 94.1678 100.83 94.2889 100.776L94.5366 101.342C94.4777 101.37 94.422 101.4 94.3697 101.432C94.3141 101.462 94.2668 101.498 94.2277 101.54C94.1887 101.582 94.1609 101.63 94.1445 101.685C94.1253 101.741 94.1222 101.805 94.1351 101.878C94.1634 102.039 94.2496 102.141 94.3937 102.185C94.5374 102.227 94.7288 102.226 94.9679 102.184L95.449 102.099C95.6882 102.057 95.8733 101.988 96.0044 101.893C96.135 101.794 96.1841 101.653 96.1519 101.471C96.1266 101.327 96.0655 101.228 95.9687 101.172C95.8719 101.117 95.7574 101.101 95.6252 101.124L95.4099 101.162L95.4985 101.664L95.0511 101.743L94.8629 100.675L96.437 100.398L96.5368 100.963L96.1189 101.037Z" fill="#333333"/>
<path d="M95.4755 95.7313L95.3445 96.4741L96.5769 96.6914L96.4645 97.3287L93.5187 96.8092L93.6311 96.172L94.8254 96.3826L94.9564 95.6398L93.7621 95.4292L93.8744 94.7919L96.8202 95.3114L96.7078 95.9486L95.4755 95.7313Z" fill="#333333"/>
<path d="M96.4616 89.8855L98.5956 91.1176L98.2742 91.6743L96.1402 90.4422L95.7095 91.1882L95.253 90.9246L96.4358 88.876L96.8923 89.1396L96.4616 89.8855Z" fill="#333333"/>
<path d="M101.8 87.4515C101.608 87.6131 101.414 87.7218 101.218 87.7777C101.023 87.8336 100.835 87.8436 100.656 87.8076L100.677 87.2528C100.837 87.2749 100.985 87.2666 101.12 87.2277C101.258 87.187 101.378 87.1235 101.481 87.0372C101.599 86.938 101.667 86.8365 101.684 86.7325C101.701 86.6286 101.668 86.5274 101.586 86.4289C101.518 86.3479 101.442 86.3068 101.359 86.3056C101.278 86.3026 101.175 86.3392 101.049 86.4153L100.776 86.577C100.541 86.7146 100.329 86.764 100.139 86.7251C99.9482 86.6841 99.782 86.5793 99.6406 86.4108C99.4551 86.1897 99.3841 85.9584 99.4275 85.7169C99.4691 85.4731 99.6202 85.242 99.8806 85.0234C100.058 84.8747 100.235 84.7726 100.412 84.7171C100.59 84.6616 100.758 84.647 100.918 84.6731L100.901 85.2191C100.783 85.2027 100.666 85.2108 100.552 85.2434C100.436 85.2738 100.325 85.333 100.22 85.4212C99.9989 85.6066 99.9646 85.7902 100.117 85.9719C100.183 86.0506 100.257 86.0895 100.338 86.0885C100.421 86.0857 100.527 86.0473 100.655 85.9733L100.931 85.8149C101.144 85.6916 101.346 85.6414 101.537 85.6642C101.728 85.6869 101.899 85.7891 102.052 85.9708C102.142 86.078 102.207 86.1932 102.247 86.3163C102.285 86.4373 102.295 86.5629 102.277 86.6932C102.258 86.8213 102.209 86.9498 102.131 87.0789C102.055 87.2061 101.945 87.3303 101.8 87.4515Z" fill="#333333"/>
<path d="M117.394 114.376C117.394 114.667 117.158 114.903 116.867 114.903C116.576 114.903 116.341 114.667 116.341 114.376C116.341 114.085 116.576 113.85 116.867 113.85C117.158 113.85 117.394 114.085 117.394 114.376Z" fill="#333333"/>
<path d="M106.298 83.4303C106.298 83.7211 106.062 83.9568 105.771 83.9568C105.48 83.9568 105.245 83.7211 105.245 83.4303C105.245 83.1394 105.48 82.9037 105.771 82.9037C106.062 82.9037 106.298 83.1394 106.298 83.4303Z" fill="#333333"/>
</svg>
