<svg width="278" height="286" viewBox="0 0 278 286" fill="none" xmlns="http://www.w3.org/2000/svg">
<path d="M248.288 28.3367C250.146 30.3825 251.953 32.5786 253.688 34.9361C273.197 61.4494 272.768 87.9627 272.322 115.461C272.255 119.596 272.188 123.753 272.188 127.936C272.188 128.301 272.182 128.653 272.173 128.992V133.97C275.572 137.244 277.688 141.843 277.688 146.936C277.688 152.029 275.572 156.628 272.173 159.902V204.695C272.173 249.227 236.072 285.328 191.539 285.328C171.673 285.328 153.486 278.135 139.443 266.24C125.299 278.14 107.024 285.328 87.0727 285.328C42.1249 285.328 5.6875 248.891 5.6875 203.943V181.386C2.5904 178.153 0.6875 173.767 0.6875 168.936C0.6875 164.106 2.5904 159.719 5.6875 156.486V127.285C5.6875 105.978 13.875 86.5841 27.2754 72.0768C22.5948 67.3012 21.8869 59.7109 25.9298 54.1017C48.6732 22.547 92.0484 14.6671 124.325 35.6113C128.175 30.3783 133.322 24.8005 140.188 18.9361C140.638 18.5517 141.091 18.1753 141.547 17.8068C163.058 -0.608463 192.851 -4.6668 218.026 5.97052C225.859 9.28033 233.234 14.0057 239.759 20.1338L240.343 20.6828C242.549 22.542 244.727 24.5731 246.848 26.7916L246.881 26.8224C247.391 27.3014 247.86 27.8076 248.288 28.3367Z" fill="#2678F4"/>
<path d="M126.905 126.533C126.905 90.8369 155.843 61.8993 191.539 61.8993C227.235 61.8993 256.173 90.8368 256.173 126.533V204.695C256.173 240.391 227.235 269.328 191.539 269.328C155.843 269.328 126.905 240.391 126.905 204.695V126.533Z" fill="white"/>
<path fill-rule="evenodd" clip-rule="evenodd" d="M125.905 126.533C125.905 90.2846 155.29 60.8993 191.539 60.8993C227.787 60.8993 257.173 90.2845 257.173 126.533V204.695C257.173 240.943 227.787 270.328 191.539 270.328C155.29 270.328 125.905 240.943 125.905 204.695V126.533ZM191.539 62.8993C156.395 62.8993 127.905 91.3892 127.905 126.533V204.695C127.905 239.839 156.395 268.328 191.539 268.328C226.683 268.328 255.173 239.838 255.173 204.695V126.533C255.173 91.3891 226.683 62.8993 191.539 62.8993Z" fill="#333333"/>
<path fill-rule="evenodd" clip-rule="evenodd" d="M125.937 206.78C127.102 241.73 155.801 269.705 191.034 269.705C226.268 269.705 254.967 241.73 256.132 206.78H125.937Z" fill="#FFD600"/>
<path fill-rule="evenodd" clip-rule="evenodd" d="M124.903 205.78H257.166L257.132 206.814C255.949 242.301 226.809 270.705 191.034 270.705C155.26 270.705 126.12 242.301 124.937 206.814L124.903 205.78ZM126.979 207.78C128.651 241.71 156.69 268.705 191.034 268.705C225.379 268.705 253.418 241.71 255.09 207.78H126.979Z" fill="#333333"/>
<path fill-rule="evenodd" clip-rule="evenodd" d="M191.035 61.2746C155.062 61.2746 125.9 90.4363 125.9 126.409V146.78H256.17V126.409C256.17 90.4363 227.008 61.2746 191.035 61.2746Z" fill="#FFD600"/>
<path fill-rule="evenodd" clip-rule="evenodd" d="M191.035 62.2746C155.614 62.2746 126.9 90.9886 126.9 126.409V145.78H255.17V126.409C255.17 90.9886 226.455 62.2746 191.035 62.2746ZM124.9 126.409C124.9 89.884 154.51 60.2746 191.035 60.2746C227.56 60.2746 257.17 89.884 257.17 126.409V147.78H124.9V126.409Z" fill="#333333"/>
<path fill-rule="evenodd" clip-rule="evenodd" d="M117.95 50.6307C92.5817 32.3462 57.1941 38.0888 38.9096 63.4571C38.2638 64.3531 37.0138 64.556 36.1177 63.9101C35.2216 63.2643 35.0188 62.0143 35.6647 61.1182C55.2409 33.9578 93.1284 27.8095 120.289 47.3857L128.215 53.0985C129.111 53.7443 129.314 54.9943 128.668 55.8904C128.022 56.7865 126.772 56.9893 125.876 56.3434L117.95 50.6307Z" fill="#333333"/>
<path fill-rule="evenodd" clip-rule="evenodd" d="M228.121 32.5255C205.326 11.1177 169.494 12.2416 148.086 35.0359C147.33 35.8411 146.064 35.8808 145.259 35.1246C144.454 34.3684 144.414 33.1027 145.17 32.2976C168.09 7.89298 206.455 6.68962 230.859 29.6098L237.981 36.2984C238.786 37.0546 238.826 38.3203 238.07 39.1254C237.313 39.9306 236.048 39.9703 235.243 39.2141L228.121 32.5255Z" fill="#333333"/>
<rect x="121.688" y="144.936" width="140" height="4" rx="2" fill="#333333"/>
<path d="M21.6875 127.285C21.6875 91.1734 50.9615 61.8993 87.0727 61.8993C123.184 61.8993 152.458 91.1733 152.458 127.285V203.943C152.458 240.054 123.184 269.328 87.0727 269.328C50.9615 269.328 21.6875 240.054 21.6875 203.943V127.285Z" fill="#FFD600"/>
<path fill-rule="evenodd" clip-rule="evenodd" d="M20.6875 127.285C20.6875 90.6211 50.4092 60.8993 87.0727 60.8993C123.736 60.8993 153.458 90.621 153.458 127.285V203.943C153.458 240.607 123.736 270.328 87.0727 270.328C50.4092 270.328 20.6875 240.607 20.6875 203.943V127.285ZM87.0727 62.8993C51.5137 62.8993 22.6875 91.7256 22.6875 127.285V203.943C22.6875 239.502 51.5137 268.328 87.0727 268.328C122.632 268.328 151.458 239.502 151.458 203.943V127.285C151.458 91.7256 122.632 62.8993 87.0727 62.8993Z" fill="#333333"/>
<rect x="16.6875" y="166.936" width="140" height="4" rx="2" fill="#333333"/>
<path d="M246.015 206.78C247.36 202.713 248.109 198.207 248.109 193.465C248.109 175.414 237.269 160.78 223.898 160.78C210.527 160.78 199.688 175.414 199.688 193.465C199.688 198.207 200.436 202.713 201.781 206.78H246.015Z" fill="#333333"/>
<circle cx="236.005" cy="182.57" r="7.26316" fill="white"/>
<path fill-rule="evenodd" clip-rule="evenodd" d="M83.0195 137.832C83.0195 136.796 83.2607 135.966 83.762 135.399C84.2533 134.844 85.0665 134.46 86.3915 134.46C87.5961 134.46 88.6108 135.072 89.5041 135.996C90.4013 136.923 91.1263 138.114 91.7526 139.174C92.2845 140.082 97.1042 149.847 98.2533 152.464C98.5458 153.137 98.9012 153.576 99.2923 153.869C99.6792 154.159 100.068 154.279 100.36 154.364C100.69 154.46 100.804 154.496 100.879 154.562C100.907 154.586 100.995 154.668 100.995 155.048C100.995 155.437 100.819 155.729 100.471 155.976C100.104 156.236 99.5654 156.425 98.9251 156.554C97.7369 156.792 96.3723 156.79 95.531 156.788L95.3515 156.788C93.042 156.788 91.27 156.778 90.071 156.534C89.474 156.413 89.0848 156.245 88.8501 156.044C88.6403 155.865 88.5235 155.634 88.5235 155.272C88.5235 155.01 88.6001 154.891 88.6786 154.814C88.7809 154.713 88.9364 154.636 89.1792 154.543C89.209 154.531 89.2414 154.519 89.2759 154.506C89.4763 154.431 89.7454 154.331 89.9563 154.184C90.0927 154.089 90.2278 153.961 90.3269 153.786C90.4274 153.608 90.4755 153.408 90.4755 153.192C90.4755 152.8 90.4244 152.39 90.1748 152.046C89.9209 151.696 89.5285 151.503 89.0533 151.383C88.5796 151.264 87.9543 151.202 87.1485 151.167C86.337 151.132 85.3111 151.124 84.0235 151.124C83.6089 151.124 83.2132 151.128 82.8601 151.161C82.5088 151.194 82.1637 151.258 81.8607 151.399C81.545 151.545 81.2815 151.773 81.1059 152.107C80.9363 152.43 80.8675 152.816 80.8675 153.256C80.8675 153.483 80.9146 153.693 81.0193 153.88C81.1237 154.066 81.2683 154.198 81.417 154.294C81.6476 154.442 81.9403 154.528 82.152 154.591C82.1854 154.6 82.2169 154.61 82.2458 154.618C82.5031 154.697 82.6581 154.762 82.7581 154.854C82.8299 154.919 82.9155 155.036 82.9155 155.336C82.9155 155.639 82.7894 155.865 82.5447 156.059C82.2821 156.268 81.8902 156.43 81.4098 156.546C80.4514 156.778 79.3237 156.788 78.6795 156.788C76.3932 156.788 75.2538 156.567 74.6943 156.282C74.4348 156.15 74.3274 156.018 74.2728 155.907C74.2123 155.784 74.1875 155.628 74.1875 155.4C74.1875 155.132 74.2594 155.007 74.3361 154.925C74.4328 154.822 74.5891 154.734 74.8538 154.628C74.9224 154.601 74.9987 154.572 75.0808 154.542C75.5635 154.363 76.2461 154.109 76.7319 153.507C77.1185 153.032 77.4817 152.394 77.801 151.767C78.0479 151.283 78.2793 150.783 78.4802 150.35C78.5404 150.22 78.5979 150.096 78.6522 149.98L78.6538 149.977L80.6698 145.593L80.6716 145.589L80.8003 145.303C81.7638 143.164 83.0195 140.376 83.0195 137.832ZM85.4955 142.484C85.0865 142.484 84.7822 142.737 84.5869 142.962C84.3824 143.197 84.2155 143.495 84.0835 143.774C83.8726 144.22 83.7092 144.714 83.6286 144.958C83.6094 145.016 83.5949 145.059 83.5856 145.085C83.5598 145.156 83.5133 145.272 83.4519 145.426L83.4322 145.475C83.3632 145.648 83.2815 145.853 83.2035 146.06C83.1259 146.266 83.0494 146.481 82.9916 146.674C82.9393 146.848 82.8835 147.062 82.8835 147.24C82.8835 147.518 82.9943 147.756 83.1927 147.923C83.369 148.07 83.5783 148.131 83.7388 148.16C83.9845 148.204 84.2833 148.195 84.4464 148.19C84.4841 148.189 84.5146 148.188 84.5355 148.188H86.9355C86.9553 148.188 86.9819 148.189 87.014 148.189C87.1807 148.192 87.4957 148.198 87.7731 148.154C87.9387 148.128 88.1501 148.077 88.3322 147.959C88.5374 147.826 88.7155 147.597 88.7155 147.272C88.7155 147.044 88.6196 146.767 88.5316 146.544C88.4331 146.295 88.3022 146.013 88.1674 145.742C87.8977 145.198 87.597 144.662 87.4665 144.434C87.4398 144.386 87.4079 144.327 87.3716 144.259C87.2387 144.012 87.0459 143.653 86.8248 143.347C86.6805 143.147 86.5049 142.941 86.2971 142.781C86.0883 142.62 85.8174 142.484 85.4955 142.484Z" fill="#333333"/>
<path fill-rule="evenodd" clip-rule="evenodd" d="M69.9589 93.7977C71.4173 93.628 72.6754 94.3226 73.8071 95.4723C74.9428 96.626 75.8794 98.1671 76.683 99.5338C77.3686 100.709 83.5072 113.183 84.9606 116.438C85.3151 117.245 85.7341 117.763 86.1889 118.105C86.6407 118.444 87.0919 118.581 87.4355 118.678C87.8184 118.786 87.9674 118.829 88.0691 118.92C88.1274 118.971 88.2396 119.105 88.2482 119.596L88.2483 119.598C88.2592 120.11 88.04 120.495 87.628 120.816C87.1961 121.152 86.565 121.402 85.8213 121.581C84.4834 121.903 82.951 121.959 81.9665 121.994C81.8575 121.998 81.7553 122.002 81.6607 122.006L81.6521 122.006C78.966 122.159 76.902 122.276 75.4888 122.07C74.7859 121.967 74.3161 121.792 74.0225 121.559C73.7548 121.346 73.592 121.053 73.5694 120.58L73.5693 120.578C73.5515 120.23 73.6426 120.047 73.7489 119.923C73.8752 119.777 74.0657 119.664 74.3424 119.529L74.3966 119.503L74.4579 119.474C74.6883 119.365 74.9854 119.224 75.2145 119.035C75.5296 118.775 75.7527 118.403 75.7313 117.877L75.7312 117.874C75.7089 117.395 75.6278 116.917 75.3323 116.532C75.0271 116.134 74.5672 115.928 74.0006 115.82C73.4387 115.714 72.7011 115.692 71.7503 115.721C70.793 115.75 69.5848 115.834 68.0681 115.952L68.0635 115.952C67.9338 115.963 67.806 115.975 67.6804 115.987C67.3305 116.021 66.9988 116.061 66.6957 116.119C66.2853 116.197 65.892 116.313 65.5567 116.515C65.2093 116.724 64.9361 117.018 64.7678 117.422C64.6045 117.814 64.5534 118.276 64.5857 118.807L64.5858 118.809C64.6029 119.071 64.6703 119.308 64.7987 119.512C64.9276 119.717 65.0988 119.859 65.2766 119.959C65.5533 120.114 65.8972 120.189 66.1515 120.243C66.1919 120.252 66.23 120.26 66.2653 120.268C66.5728 120.338 66.7681 120.404 66.9013 120.513C67.0049 120.599 67.1261 120.758 67.1495 121.158C67.173 121.563 67.0238 121.882 66.7338 122.161C66.4285 122.455 65.9703 122.698 65.4152 122.892C64.3059 123.28 62.9846 123.416 62.231 123.487L62.2273 123.487C59.5549 123.758 58.193 123.626 57.5004 123.342C57.1777 123.209 57.0264 123.054 56.9407 122.906C56.847 122.745 56.8 122.54 56.7759 122.254C56.7455 121.898 56.8237 121.705 56.924 121.571C57.0408 121.416 57.2308 121.282 57.5331 121.12C57.6144 121.077 57.7042 121.031 57.8 120.983C58.3547 120.704 59.1118 120.324 59.6107 119.55C60.0156 118.929 60.3844 118.107 60.7084 117.295C60.9401 116.714 61.1574 116.116 61.3514 115.582C61.4294 115.367 61.5038 115.162 61.5738 114.973L61.5758 114.967C62.2576 113.059 62.9462 111.14 63.6415 109.21L63.7774 108.823C64.6641 106.297 65.7806 103.117 65.9367 100.171C65.9677 99.7672 65.9721 99.3602 65.9765 98.9553C65.9908 97.6329 66.0048 96.3324 66.9416 95.2262C67.5552 94.5016 68.5112 93.9721 69.9589 93.7977ZM71.6901 107.104C71.6566 107.047 71.6174 106.976 71.5732 106.897C71.402 106.59 71.1556 106.149 70.8735 105.775C70.6926 105.535 70.4749 105.292 70.2215 105.111C69.9663 104.929 69.6396 104.786 69.2624 104.82C69.0942 104.835 68.9445 104.888 68.8123 104.964C68.5779 105.099 68.3984 105.304 68.2678 105.49C68.0501 105.8 67.8755 106.187 67.7376 106.555C67.5249 107.123 67.3647 107.75 67.2795 108.083C67.1919 108.426 67.0867 108.764 66.9815 109.103C66.8514 109.521 66.7213 109.939 66.6244 110.366C66.5727 110.594 66.5249 110.85 66.5327 111.049L66.5333 111.061C66.5528 111.369 66.6843 111.63 66.9149 111.808C67.1234 111.968 67.3667 112.024 67.5584 112.046C67.7303 112.065 67.9187 112.059 68.0851 112.046C68.2082 112.037 68.3193 112.023 68.4026 112.013C68.4439 112.009 68.4784 112.004 68.5041 112.002L68.5062 112.002L71.3497 111.764C71.3716 111.763 71.3985 111.761 71.4297 111.759C71.631 111.747 72.0097 111.725 72.3441 111.64C72.5385 111.591 72.7743 111.508 72.9681 111.353C73.1818 111.182 73.3464 110.917 73.33 110.571C73.3197 110.309 73.2005 109.985 73.0818 109.705C72.9517 109.398 72.78 109.052 72.603 108.716C72.2496 108.046 71.8585 107.386 71.6901 107.104Z" fill="#333333"/>
<path d="M88.7472 100.179C88.8656 100.749 89.0193 101.028 89.1567 101.193C89.2771 101.338 89.3957 101.419 89.578 101.543C89.6298 101.578 89.6867 101.617 89.7502 101.661C90.0311 101.859 90.3404 102.118 90.6093 102.602C90.8684 103.069 91.0742 103.716 91.2205 104.67C91.5911 106.779 91.6693 109.16 91.7039 111.315C91.7187 112.049 91.7461 113.753 91.7365 114.687C91.732 116.459 91.6714 118.306 91.449 119.962C91.3418 120.816 91.1313 121.427 90.853 121.891C90.5722 122.359 90.2423 122.642 89.9609 122.858C89.8992 122.906 89.8429 122.948 89.7923 122.987C89.5953 123.135 89.4756 123.225 89.378 123.354C89.2844 123.478 89.1959 123.667 89.2031 124.074C89.2079 124.347 89.2514 124.547 89.3513 124.713C89.4488 124.875 89.6338 125.06 90.0238 125.235C90.8359 125.599 92.3855 125.857 95.3005 125.863L95.3135 125.863C98.5768 125.951 100.332 125.712 101.258 125.347C101.708 125.169 101.921 124.977 102.03 124.816C102.137 124.657 102.18 124.471 102.182 124.227C102.189 123.523 101.776 123.135 101.143 122.568C100.585 122.068 99.8445 121.405 99.8501 120.247L99.8501 120.246L99.8563 119.426V119.424C99.8567 118.851 99.8905 118.217 100.092 117.72C100.197 117.46 100.359 117.207 100.613 117.025C100.873 116.838 101.184 116.757 101.525 116.769C101.763 116.777 101.982 116.877 102.153 116.978C102.335 117.085 102.521 117.228 102.703 117.385C103.069 117.702 103.464 118.119 103.84 118.547C104.491 119.29 105.12 120.108 105.477 120.573C105.533 120.645 105.582 120.708 105.623 120.762L105.629 120.768L108.128 124.103L108.248 124.265C108.554 124.677 108.786 124.99 108.984 125.236C109.208 125.513 109.363 125.674 109.499 125.777C109.734 125.955 109.959 126.006 110.697 126.051C112.806 126.181 114.921 126.313 117.043 126.45L117.045 126.45C117.773 126.499 118.522 126.497 119.083 126.292C119.353 126.193 119.555 126.056 119.696 125.875C119.834 125.697 119.941 125.438 119.958 125.043C119.977 124.542 119.871 124.204 119.711 123.948C119.546 123.682 119.301 123.466 118.977 123.248C118.815 123.139 118.642 123.035 118.455 122.925L118.388 122.886C118.224 122.789 118.049 122.686 117.879 122.577C117.49 122.329 117.084 122.027 116.758 121.606C114.175 118.281 111.589 114.959 109.001 111.639L108.997 111.633C108.926 111.537 108.847 111.432 108.762 111.322L108.759 111.317C108.514 110.995 108.228 110.619 107.993 110.234C107.671 109.707 107.388 109.076 107.395 108.386C107.399 107.8 107.674 107.226 108.017 106.721C108.367 106.206 108.831 105.7 109.303 105.241C109.777 104.78 110.273 104.352 110.694 103.996C110.774 103.928 110.851 103.863 110.924 103.802L110.936 103.792L110.937 103.791C111.249 103.528 111.489 103.326 111.633 103.185C112.116 102.702 112.791 102.587 113.383 102.56C113.689 102.546 114.007 102.555 114.308 102.565L114.431 102.57C114.693 102.579 114.942 102.588 115.184 102.586C115.758 102.58 116.164 102.507 116.428 102.324C116.649 102.17 116.867 101.868 116.876 101.129C116.882 100.55 116.671 100.127 116.32 99.7906C115.954 99.4393 115.419 99.1709 114.779 98.9701C113.646 98.6151 112.334 98.5136 111.382 98.44C111.252 98.4299 111.129 98.4204 111.013 98.4108L110.806 98.3945C109.828 98.3171 108.284 98.1948 106.947 98.4109C106.229 98.5269 105.631 98.7326 105.223 99.0473C104.841 99.3421 104.603 99.7477 104.606 100.367C104.608 100.71 104.717 100.968 104.872 101.313L104.886 101.345C105.036 101.676 105.226 102.1 105.23 102.649L105.23 102.654C105.229 102.882 105.146 103.131 105.056 103.347C104.959 103.58 104.825 103.841 104.668 104.114C104.353 104.661 103.928 105.288 103.473 105.88C103.018 106.47 102.523 107.039 102.065 107.465C101.837 107.677 101.606 107.865 101.384 108.001C101.179 108.128 100.91 108.257 100.624 108.248C100.276 108.238 100.01 108.069 99.8303 107.847C99.6632 107.641 99.5692 107.391 99.5121 107.171C99.3977 106.731 99.3886 106.239 99.3891 105.969V105.967C99.3891 105.967 99.3891 105.972 99.3891 105.969C99.3807 104.318 99.599 103.288 99.9413 102.577C100.241 101.955 100.629 101.606 100.911 101.352C100.949 101.318 100.985 101.286 101.018 101.255C101.25 100.992 101.367 100.656 101.409 100.311C101.451 99.9677 101.413 99.6552 101.371 99.4852C101.103 98.675 100.307 98.1746 99.2186 97.8752C98.1446 97.5796 96.9463 97.5253 96.1195 97.488L96.1281 97.4881L96.1108 97.4876L96.1195 97.488C91.9116 97.4389 90.0949 98.0892 89.3257 98.7105C88.9598 99.006 88.8256 99.2992 88.7717 99.5369C88.7242 99.7466 88.7334 99.917 88.7427 100.091C88.7443 100.12 88.7459 100.15 88.7472 100.179Z" fill="#333333"/>
<path d="M120.77 113.313C120.784 112.778 120.912 112.489 121.05 112.324C121.186 112.163 121.388 112.057 121.688 112.003C121.995 111.948 122.364 111.955 122.782 111.991C122.975 112.007 123.169 112.029 123.369 112.051L123.411 112.056C123.622 112.079 123.838 112.103 124.047 112.118C127.776 112.407 131.526 112.695 135.297 112.982C137.983 113.192 139.549 113.115 140.539 112.984C141.017 112.92 141.354 112.846 141.602 112.791L141.629 112.785C141.898 112.725 141.987 112.711 142.056 112.717L142.059 112.717C142.889 112.777 143.557 113.531 144.023 114.719C144.474 115.869 144.641 117.21 144.598 118.002C144.569 118.461 144.462 118.932 144.27 119.319C144.084 119.692 143.836 119.957 143.526 120.091C143.109 120.189 142.773 120.185 142.53 120.149C142.405 120.13 142.305 120.103 142.234 120.078C142.167 120.054 142.134 120.035 142.129 120.032C142.129 120.031 142.129 120.032 142.129 120.032L142.078 120C141.811 119.857 141.644 119.634 141.441 119.264C141.405 119.198 141.368 119.127 141.328 119.051L141.327 119.049L141.326 119.048C141.153 118.72 140.937 118.308 140.615 117.919C139.776 116.901 138.282 116.058 134.934 115.807C133.844 115.725 132.996 115.709 132.347 115.823C131.674 115.942 131.158 116.212 130.819 116.734C130.507 117.216 130.392 117.847 130.327 118.563C130.285 119.025 130.261 119.576 130.233 120.203L130.233 120.205L130.233 120.21L130.232 120.213C130.217 120.56 130.201 120.931 130.18 121.323C130.148 121.885 130.128 122.354 130.161 122.729C130.194 123.107 130.286 123.475 130.553 123.764C130.816 124.049 131.176 124.177 131.551 124.254C131.927 124.331 132.41 124.371 132.989 124.415C133.422 124.447 133.803 124.395 134.132 124.252C134.466 124.107 134.715 123.882 134.901 123.621C135.248 123.134 135.387 122.491 135.498 121.981L135.502 121.964C135.626 121.392 135.721 120.964 135.913 120.672C135.998 120.542 136.094 120.456 136.211 120.401C136.332 120.345 136.512 120.303 136.793 120.325L136.794 120.325C137.171 120.352 137.458 120.545 137.695 120.906C137.944 121.285 138.117 121.823 138.226 122.454C138.442 123.71 138.372 125.151 138.308 125.907C138.241 126.686 138.034 128.199 137.575 129.481C137.345 130.124 137.065 130.668 136.739 131.033C136.424 131.387 136.099 131.539 135.735 131.511C135.516 131.493 135.405 131.438 135.345 131.39C135.285 131.343 135.23 131.269 135.183 131.136C135.135 130.997 135.103 130.818 135.08 130.587C135.068 130.473 135.059 130.354 135.049 130.226L135.048 130.22C135.038 130.096 135.028 129.963 135.014 129.829C134.961 129.296 134.852 128.642 134.421 128.105C133.974 127.547 133.259 127.207 132.197 127.123L132.194 127.123C131.712 127.087 131.293 127.168 130.946 127.378C130.598 127.587 130.375 127.894 130.23 128.219C129.97 128.799 129.922 129.538 129.885 130.116C129.873 130.295 129.861 130.474 129.849 130.653L129.849 130.654C129.784 131.603 129.718 132.556 129.769 133.506C129.813 134.31 129.953 134.954 130.325 135.427C130.71 135.917 131.265 136.127 131.893 136.247C132.397 136.343 133.026 136.393 133.76 136.451L134.103 136.479L134.271 136.493C136.267 136.662 137.711 136.427 138.8 135.945C139.895 135.46 140.584 134.746 141.1 134.045C141.322 133.743 141.515 133.438 141.689 133.164L141.762 133.049C141.96 132.738 142.131 132.479 142.313 132.266C142.492 132.058 142.665 131.914 142.854 131.824C143.039 131.737 143.271 131.686 143.591 131.711L143.594 131.711C143.999 131.741 144.288 131.978 144.482 132.374C144.683 132.784 144.751 133.318 144.693 133.777C144.537 135.009 143.83 136.746 142.962 138.171C142.53 138.879 142.074 139.482 141.652 139.892C141.441 140.098 141.252 140.242 141.091 140.33C140.931 140.416 140.831 140.431 140.778 140.428C140.693 140.418 140.524 140.38 140.243 140.311L140.064 140.268C139.826 140.209 139.543 140.14 139.232 140.07L139.221 140.068C138.411 139.904 137.352 139.699 136.06 139.583C131 139.131 125.955 138.681 120.923 138.235C119.737 138.128 119.239 137.882 119.042 137.675C118.891 137.515 118.843 137.291 118.955 136.842C119.056 136.438 119.205 136.302 119.342 136.22C119.429 136.169 119.533 136.127 119.677 136.08C119.712 136.068 119.751 136.055 119.794 136.042C119.908 136.005 120.045 135.962 120.171 135.913C120.556 135.764 120.974 135.523 121.315 135.002C121.643 134.502 121.873 133.786 121.996 132.738L121.996 132.736C122.07 132.074 122.137 131.481 122.198 130.943C122.783 125.783 122.788 125.736 122.721 119.267C122.693 116.21 122.19 115.191 121.49 114.651C121.377 114.564 121.253 114.487 121.164 114.431L121.132 114.411L121.111 114.398L121.096 114.389C120.998 114.326 120.95 114.286 120.916 114.243C120.859 114.173 120.75 113.982 120.77 113.316L120.77 113.313Z" fill="#333333"/>
<path d="M145.118 118.033L144.598 118.004L144.598 118.002L144.598 118L145.118 118.033Z" fill="#333333"/>
<path d="M54.3524 108.766C53.8662 108.489 53.4896 108.407 53.2677 108.432L53.2625 108.433C52.7144 108.49 52.4681 108.592 52.0613 108.761C52.0381 108.771 52.0149 108.78 51.9918 108.79C51.926 108.819 51.86 108.847 51.7923 108.869C51.2012 109.063 50.4077 109.324 48.701 109.514C45.491 109.89 42.2705 110.266 39.0396 110.643C37.8835 110.778 36.6585 110.871 35.4959 110.768C35.2669 110.748 35.0684 110.728 34.8963 110.711C34.7692 110.698 34.6557 110.687 34.5558 110.678C34.3166 110.656 34.1808 110.651 34.0929 110.658C33.6718 110.71 33.1757 110.973 32.6519 111.461C32.1322 111.946 31.6258 112.616 31.1888 113.392C30.31 114.953 29.7636 116.852 29.8893 118.386C30.0211 119.596 30.9458 120.596 32.1841 120.462C33.5501 120.317 34.361 119.271 35.1014 118.019C35.2017 117.85 35.3023 117.674 35.4035 117.496C35.6536 117.058 35.9068 116.615 36.1642 116.257C36.524 115.758 37.003 115.26 37.6866 115.185L37.7141 115.182C37.8456 115.167 38.0894 115.139 38.3448 115.209C38.6491 115.291 38.9143 115.489 39.1279 115.82C39.3316 116.136 39.4928 116.577 39.6197 117.177C39.7475 117.782 39.8466 118.579 39.9075 119.63C40.139 122.519 40.3913 125.407 40.6644 128.296L40.6645 128.297C40.7101 128.791 40.778 129.636 40.8008 130.47C40.8121 130.887 40.8124 131.307 40.7919 131.683C40.7719 132.05 40.7307 132.41 40.6445 132.689L40.6422 132.696L40.6397 132.703C40.4575 133.236 40.1063 133.577 39.7385 133.819C39.4782 133.991 39.1737 134.132 38.9196 134.25C38.84 134.287 38.7653 134.321 38.6986 134.354C38.3814 134.508 38.186 134.637 38.0717 134.791C37.9778 134.918 37.8968 135.121 37.9637 135.53C38.0496 136.039 38.406 136.427 39.065 136.716C39.7331 137.009 40.6361 137.162 41.631 137.218C43.5451 137.326 45.6277 137.07 46.6232 136.947L46.726 136.934C50.1329 136.522 51.8681 135.883 52.7289 135.269C53.1478 134.97 53.3445 134.687 53.4398 134.45C53.5362 134.21 53.5471 133.972 53.5214 133.73L53.5212 133.728C53.4655 133.184 53.286 133.001 53.1053 132.891C52.9909 132.822 52.8461 132.767 52.6525 132.71C52.5609 132.684 52.4658 132.659 52.3607 132.631L52.3449 132.627C52.236 132.598 52.1175 132.567 51.997 132.532C51.5088 132.387 50.9405 132.157 50.47 131.597C50.0058 131.044 49.6872 130.23 49.5508 129.02L49.5503 129.016C49.1324 125.028 48.735 121.022 48.3581 116.999L48.3531 116.959C48.3269 116.751 48.2471 116.117 48.3543 115.492C48.4133 115.149 48.5351 114.763 48.7899 114.441C49.0567 114.105 49.4447 113.87 49.959 113.811L49.9627 113.811C50.7019 113.731 51.2463 114.129 51.654 114.583C51.9514 114.914 52.2359 115.345 52.507 115.756C52.5943 115.888 52.6803 116.019 52.7649 116.143C53.5072 117.233 54.2637 118.063 55.6008 117.922C56.4512 117.829 57.0153 117.487 57.3625 117.002C57.7182 116.505 57.8938 115.791 57.825 114.877L57.8247 114.874C57.6855 112.829 56.8337 111.16 55.843 110.027C55.3472 109.459 54.8245 109.035 54.3524 108.766Z" fill="#333333"/>
<path fill-rule="evenodd" clip-rule="evenodd" d="M34.7046 186.426C37.6149 186.234 39.9439 185.938 41.7539 185.677C42.313 185.597 42.8175 185.52 43.2718 185.452C44.3054 185.295 45.079 185.178 45.6435 185.141C48.2677 184.967 50.8694 185.561 52.8491 186.894C54.8156 188.217 56.1861 190.279 56.3736 193.109C56.5601 195.926 55.518 198.146 53.7796 199.718C52.0298 201.299 49.5522 202.24 46.868 202.418C46.2937 202.456 45.7123 202.446 45.1229 202.435L45.0673 202.434C44.5038 202.423 43.9287 202.412 43.3823 202.448C43.0903 202.467 42.7654 202.547 42.5427 202.814C42.3269 203.073 42.3035 203.394 42.3197 203.653L42.4732 207.974L42.4744 207.988C42.5909 209.276 42.862 210.154 43.2443 210.768C43.6364 211.399 44.1202 211.711 44.569 211.913C44.7297 211.985 44.8952 212.046 45.0353 212.098C45.0784 212.114 45.119 212.129 45.1564 212.143C45.3297 212.209 45.4517 212.263 45.5471 212.326C45.6342 212.383 45.6951 212.446 45.7414 212.532C45.7902 212.622 45.8374 212.765 45.8532 213.003C45.8815 213.432 45.6807 213.804 45.2232 214.153C44.7545 214.51 44.067 214.799 43.2718 215.024C41.6884 215.473 39.8499 215.626 38.9553 215.685C38.1158 215.741 36.264 215.852 34.6098 215.637C33.7789 215.528 33.0434 215.343 32.5191 215.056C32.0064 214.776 31.7573 214.44 31.7294 214.019C31.702 213.605 31.8159 213.413 31.961 213.272C32.1127 213.125 32.3027 213.022 32.5706 212.878C32.6474 212.836 32.7305 212.791 32.821 212.741C33.1913 212.535 33.6323 212.256 33.9502 211.764C34.2723 211.265 34.4297 210.609 34.3709 209.717L34.3707 209.715L33.3374 192.113L33.3371 192.109C33.2797 191.242 32.9637 190.647 32.4779 190.235C32.0205 189.848 31.4499 189.66 30.9809 189.513L30.875 189.48C30.4179 189.338 30.0672 189.228 29.7993 189.043C29.5582 188.875 29.3793 188.641 29.3477 188.164C29.3105 187.602 29.5736 187.245 30.0254 186.986C30.5051 186.712 31.1606 186.581 31.7457 186.542C32.2328 186.51 32.713 186.498 33.2048 186.485L33.2095 186.485C33.6967 186.473 34.1955 186.46 34.7046 186.426ZM43.3749 189.019C42.966 189.046 42.6297 189.099 42.3595 189.191C42.0844 189.284 41.8489 189.427 41.6852 189.65C41.5224 189.872 41.4729 190.116 41.4594 190.326C41.448 190.504 41.4613 190.699 41.4729 190.869L41.4769 190.929L41.8734 196.916C41.8793 197.005 41.8807 197.098 41.8821 197.206L41.8822 197.214C41.8835 197.315 41.885 197.43 41.8926 197.545C41.9079 197.776 41.9505 198.068 42.1173 198.334C42.4811 198.916 43.2223 199.091 44.3178 199.019C45.7782 198.922 46.8152 198.288 47.4442 197.299C48.0574 196.334 48.2467 195.09 48.1622 193.813C48.0738 192.479 47.6518 191.235 46.8481 190.339C46.0309 189.428 44.8561 188.921 43.3749 189.019Z" fill="#333333"/>
<path d="M72.7671 183.271C75.4651 183.271 77.0226 183.07 77.9952 182.863C78.4685 182.762 78.7989 182.661 79.0435 182.586L79.0644 182.579C79.3255 182.499 79.4348 182.471 79.5271 182.471C80.4231 182.471 81.1424 183.246 81.6586 184.426C82.1619 185.577 82.3921 186.945 82.3921 187.776C82.3921 188.396 82.2684 189.043 81.9885 189.521C81.7199 189.98 81.3138 190.281 80.6871 190.281C80.33 190.281 80.0765 190.227 79.8858 190.146C79.6977 190.066 79.5522 189.952 79.4206 189.805C79.2842 189.653 79.1655 189.47 79.0276 189.245L78.9724 189.155C78.8524 188.958 78.717 188.735 78.5544 188.514C78.1673 187.987 77.6235 187.459 76.6725 187.069C75.7332 186.684 74.4149 186.441 72.4871 186.441C71.3748 186.441 70.5214 186.5 69.8812 186.692C69.216 186.891 68.7606 187.242 68.4845 187.813C68.2247 188.35 68.1412 189.05 68.113 189.909C68.0946 190.467 68.0997 191.125 68.1055 191.885C68.1087 192.298 68.1121 192.742 68.1121 193.216C68.1121 194.36 68.1371 195.538 68.5056 196.429C68.6951 196.887 68.9816 197.287 69.4128 197.569C69.8427 197.849 70.3839 197.991 71.0471 197.991C71.4725 197.991 71.8316 197.913 72.1308 197.758C72.4325 197.602 72.6516 197.378 72.8115 197.12C73.1178 196.626 73.2132 195.988 73.2931 195.451L73.2944 195.442C73.38 194.866 73.4502 194.394 73.6412 194.053C73.7304 193.894 73.8406 193.775 73.9859 193.693C74.1329 193.61 74.3411 193.551 74.6471 193.551C75.0836 193.551 75.427 193.755 75.715 194.134C76.0118 194.523 76.2336 195.081 76.3932 195.721C76.7116 197 76.7521 198.481 76.7521 199.256C76.7521 200.064 76.6824 201.636 76.3245 202.995C76.1451 203.677 75.901 204.273 75.5805 204.692C75.2675 205.102 74.9007 205.321 74.4471 205.321C74.1905 205.321 74.0335 205.267 73.931 205.201C73.8289 205.135 73.7476 205.035 73.679 204.884C73.6083 204.729 73.5578 204.535 73.5126 204.297C73.4903 204.179 73.4702 204.057 73.449 203.927L73.447 203.914C73.4266 203.79 73.4053 203.659 73.3808 203.527C73.2814 202.992 73.1203 202.372 72.6658 201.894C72.1983 201.402 71.4823 201.121 70.4071 201.121C69.8822 201.121 69.4657 201.318 69.16 201.667C68.8678 202.001 68.697 202.45 68.591 202.93C68.3908 203.836 68.3915 205.006 68.3921 206.116L68.3921 206.296C68.3921 208.205 68.4169 209.654 68.522 210.749C68.6262 211.834 68.8132 212.628 69.1784 213.186C69.5627 213.774 70.1115 214.053 70.8065 214.185C71.4695 214.311 72.3113 214.311 73.3304 214.311H73.3671C75.4584 214.311 76.9167 213.952 77.9736 213.385C79.0364 212.816 79.6618 212.054 80.1128 211.31C80.313 210.98 80.4807 210.65 80.6332 210.35L80.6837 210.251C80.8531 209.918 81.0035 209.633 81.172 209.393C81.3381 209.157 81.5112 208.981 81.716 208.863C81.9179 208.746 82.1739 208.671 82.5271 208.671C83.0043 208.671 83.379 208.933 83.6513 209.358C83.9278 209.79 84.0721 210.358 84.0721 210.856C84.0721 212.14 83.5548 213.984 82.8283 215.515C82.4666 216.278 82.0632 216.941 81.6646 217.407C81.2474 217.895 80.9096 218.081 80.6871 218.081C80.5808 218.081 80.3808 218.056 80.0728 218.01C79.9715 217.995 79.8601 217.978 79.7402 217.959L79.7389 217.959C79.512 217.924 79.255 217.884 78.9802 217.845L78.9707 217.843L78.9611 217.842C78.8647 217.834 78.7651 217.824 78.6623 217.815C77.8325 217.738 76.7956 217.641 75.5671 217.641H59.1271C57.851 217.641 57.308 217.349 57.0715 217.095C56.8375 216.844 56.8221 216.547 56.8221 216.296C56.8221 215.841 56.954 215.653 57.1129 215.524C57.2077 215.447 57.3277 215.38 57.4847 215.304C57.5348 215.28 57.5936 215.253 57.6566 215.224C57.7699 215.172 57.8971 215.114 58.0126 215.055C58.4047 214.855 58.8342 214.569 59.1772 214.027C59.5157 213.492 59.7488 212.739 59.8213 211.641C60.3023 204.346 60.3424 197.972 59.9417 190.717C59.8704 189.163 59.623 188.15 59.2612 187.471C58.8886 186.771 58.4077 186.451 57.9459 186.26C57.7823 186.192 57.6139 186.137 57.4702 186.091C57.4249 186.077 57.382 186.063 57.3425 186.05C57.1642 185.99 57.0374 185.938 56.9388 185.87C56.8495 185.809 56.7777 185.731 56.7236 185.603C56.666 185.467 56.6221 185.26 56.6221 184.936C56.6221 184.423 56.7933 184.096 57.0482 183.867C57.3174 183.625 57.7134 183.465 58.2043 183.369C58.9647 183.22 59.8302 183.241 60.5829 183.26C60.8174 183.265 61.0411 183.271 61.2471 183.271H72.7671Z" fill="#333333"/>
<path d="M102.232 186.439C104.926 186.593 106.492 186.481 107.475 186.33C107.954 186.256 108.289 186.174 108.538 186.113L108.559 186.108C108.824 186.043 108.935 186.021 109.027 186.026C109.922 186.077 110.596 186.893 111.043 188.1C111.48 189.277 111.632 190.657 111.584 191.486C111.549 192.106 111.388 192.745 111.082 193.206C110.787 193.648 110.365 193.925 109.739 193.89C109.382 193.869 109.132 193.801 108.947 193.709C108.763 193.618 108.625 193.496 108.502 193.343C108.374 193.183 108.266 192.993 108.141 192.761L108.091 192.667C107.983 192.464 107.86 192.234 107.711 192.004C107.354 191.455 106.842 190.897 105.914 190.453C104.999 190.015 103.696 189.697 101.772 189.587C100.661 189.524 99.806 189.534 99.1558 189.689C98.4803 189.85 98.0056 190.174 97.6974 190.728C97.4073 191.25 97.2839 191.944 97.2066 192.799C97.1564 193.356 97.1238 194.013 97.0863 194.772C97.0658 195.185 97.0439 195.628 97.0168 196.101C96.9637 197.029 96.9245 197.843 96.9351 198.541C96.9457 199.236 97.0058 199.842 97.1639 200.344C97.3247 200.856 97.5914 201.274 98.0168 201.567C98.4352 201.856 98.969 201.997 99.617 202.035C100.042 202.059 100.405 202.002 100.712 201.864C101.022 201.725 101.254 201.514 101.428 201.266C101.762 200.79 101.894 200.159 102.004 199.627L102.006 199.618C102.125 199.048 102.222 198.581 102.432 198.251C102.53 198.097 102.647 197.985 102.797 197.912C102.948 197.838 103.159 197.79 103.465 197.808C103.901 197.832 104.232 198.056 104.498 198.45C104.772 198.856 104.961 199.425 105.084 200.074C105.329 201.369 105.285 202.85 105.24 203.623C105.194 204.43 105.035 205.996 104.6 207.332C104.382 208.002 104.104 208.584 103.76 208.984C103.424 209.375 103.045 209.573 102.593 209.547C102.336 209.532 102.183 209.469 102.084 209.397C101.986 209.325 101.911 209.221 101.851 209.067C101.789 208.908 101.75 208.711 101.718 208.471C101.703 208.353 101.69 208.229 101.676 208.098L101.674 208.086C101.661 207.96 101.647 207.828 101.631 207.695C101.562 207.155 101.437 206.527 101.01 206.024C100.571 205.506 99.8726 205.184 98.7992 205.123C98.3016 205.094 97.8808 205.218 97.5485 205.506C97.2276 205.785 97.0288 206.184 96.895 206.632C96.6454 207.468 96.5791 208.637 96.5045 209.95L96.4918 210.174C96.3827 212.081 96.3212 213.59 96.3579 214.78C96.3945 215.965 96.5288 216.876 96.8372 217.564C97.1563 218.276 97.6532 218.731 98.3535 219.015C99.03 219.288 99.8912 219.399 100.944 219.459C103.031 219.578 104.508 219.303 105.595 218.798C106.689 218.29 107.357 217.565 107.85 216.849C108.068 216.53 108.255 216.211 108.424 215.92L108.48 215.823C108.668 215.501 108.835 215.224 109.017 214.995C109.196 214.769 109.379 214.603 109.59 214.497C109.798 214.392 110.058 214.331 110.411 214.352C110.887 214.379 111.246 214.661 111.494 215.102C111.745 215.549 111.857 216.124 111.828 216.621C111.755 217.904 111.133 219.714 110.32 221.202C109.916 221.942 109.475 222.582 109.051 223.024C108.606 223.488 108.258 223.654 108.036 223.641C107.93 223.635 107.732 223.599 107.427 223.535C107.326 223.514 107.216 223.49 107.096 223.465C106.872 223.417 106.618 223.363 106.345 223.308L106.336 223.306L106.327 223.304C106.231 223.29 106.132 223.275 106.03 223.26C105.206 223.135 104.176 222.979 102.95 222.909L86.5365 221.97C85.2625 221.897 84.737 221.575 84.5154 221.308C84.2962 221.043 84.2978 220.746 84.3121 220.495C84.3381 220.041 84.4805 219.861 84.6465 219.741C84.7456 219.67 84.8692 219.609 85.0303 219.543C85.0817 219.522 85.1419 219.498 85.2065 219.473C85.3226 219.428 85.4529 219.377 85.5716 219.324C85.9744 219.147 86.4196 218.887 86.793 218.365C87.1616 217.849 87.4372 217.112 87.5724 216.019C88.4694 208.764 88.988 200.405 89.0025 193.14C89.0202 191.584 88.831 190.558 88.5086 189.86C88.1766 189.14 87.7148 188.793 87.2647 188.575C87.1052 188.498 86.9402 188.435 86.7994 188.38C86.755 188.363 86.7129 188.347 86.6743 188.331C86.4997 188.262 86.3761 188.203 86.2815 188.129C86.1959 188.063 86.1286 187.981 86.0819 187.85C86.0322 187.711 86.0002 187.502 86.0187 187.178C86.048 186.667 86.2376 186.349 86.5052 186.135C86.7878 185.91 87.1923 185.772 87.6879 185.704C88.4556 185.599 89.3184 185.669 90.0688 185.731C90.3027 185.75 90.5256 185.768 90.7313 185.78L102.232 186.439Z" fill="#333333"/>
<path d="M137.526 184.479C138.509 184.527 139.859 184.593 141.008 184.909C141.656 185.087 142.174 185.329 142.513 185.638C142.828 185.926 143.005 186.282 142.978 186.792C142.942 187.464 142.724 187.732 142.505 187.874C142.233 188.05 141.818 188.127 141.224 188.142C140.973 188.148 140.714 188.143 140.44 188.138L140.319 188.135C140.007 188.13 139.676 188.126 139.356 188.144C138.737 188.178 138.021 188.297 137.486 188.778C137.329 188.919 137.058 189.125 136.696 189.401L136.486 189.561C136.034 189.906 135.498 190.321 134.983 190.769C134.47 191.214 133.961 191.708 133.568 192.213C133.187 192.703 132.854 193.284 132.821 193.896C132.782 194.619 133.068 195.272 133.388 195.801C133.632 196.204 133.935 196.594 134.186 196.918C134.261 197.014 134.331 197.105 134.394 197.188L142.235 207.193L142.237 207.195C142.585 207.636 143.022 207.947 143.432 208.197C143.61 208.306 143.793 208.409 143.963 208.505L144.037 208.546C144.232 208.657 144.412 208.76 144.578 208.867C144.913 209.083 145.155 209.293 145.313 209.545C145.464 209.784 145.569 210.108 145.542 210.604C145.521 210.992 145.411 211.242 145.272 211.414C145.13 211.59 144.923 211.73 144.64 211.832C144.05 212.047 143.263 212.059 142.487 212.017L135.696 211.652C134.904 211.609 134.693 211.555 134.475 211.388C134.344 211.289 134.19 211.129 133.962 210.841C133.767 210.594 133.539 210.282 133.24 209.871L133.084 209.658L130.546 206.196L130.539 206.187C130.485 206.116 130.418 206.027 130.341 205.924C129.976 205.438 129.372 204.634 128.746 203.901C128.366 203.457 127.963 203.02 127.586 202.687C127.397 202.52 127.202 202.367 127.008 202.251C126.824 202.141 126.585 202.028 126.321 202.014C125.952 201.994 125.61 202.07 125.316 202.258C125.026 202.443 124.832 202.705 124.7 202.976C124.449 203.495 124.378 204.155 124.347 204.737L124.346 204.75L124.301 208.589C124.24 209.83 125.031 210.562 125.596 211.086L125.651 211.137C126.275 211.717 126.636 212.094 126.601 212.745C126.588 212.988 126.535 213.165 126.422 213.315C126.306 213.47 126.076 213.662 125.586 213.835C124.579 214.19 122.684 214.392 119.177 214.203C116.024 214.033 114.38 213.67 113.544 213.243C113.144 213.039 112.973 212.842 112.89 212.684C112.805 212.521 112.773 212.323 112.788 212.042C112.81 211.635 112.913 211.464 113.008 211.358C113.115 211.238 113.241 211.159 113.462 211.019C113.518 210.983 113.582 210.943 113.652 210.898C113.971 210.693 114.353 210.417 114.695 209.941C115.035 209.47 115.307 208.84 115.485 207.955C115.736 206.791 115.902 204.803 116.021 202.864C116.099 201.594 116.158 200.309 116.207 199.258C116.233 198.697 116.256 198.203 116.277 197.813C116.287 197.622 116.298 197.428 116.309 197.232C116.437 194.908 116.585 192.23 116.294 189.9C116.203 188.971 115.982 188.308 115.667 187.808C115.348 187.303 114.962 187.015 114.653 186.802L114.549 186.73C114.286 186.55 114.154 186.459 114.054 186.319C113.968 186.199 113.869 185.982 113.897 185.467C113.899 185.432 113.9 185.4 113.902 185.369C113.908 185.214 113.913 185.098 113.971 184.954C114.032 184.805 114.174 184.581 114.584 184.35C115.455 183.859 117.423 183.399 121.782 183.633L121.837 183.636C122.793 183.688 124.185 183.762 125.327 184.129C125.906 184.315 126.363 184.559 126.661 184.864C126.94 185.148 127.104 185.507 127.077 186.016C127.055 186.415 126.95 186.584 126.837 186.708C126.765 186.786 126.676 186.862 126.545 186.963C126.521 186.981 126.496 187 126.469 187.021C126.359 187.105 126.225 187.208 126.094 187.322C125.746 187.627 125.389 188.035 125.11 188.702C124.836 189.354 124.647 190.227 124.581 191.45C124.567 191.711 124.548 192.208 124.649 192.66C124.7 192.886 124.792 193.155 124.975 193.382C125.175 193.63 125.467 193.806 125.84 193.826C126.149 193.843 126.444 193.721 126.668 193.602C126.911 193.473 127.165 193.294 127.416 193.093C127.921 192.689 128.47 192.146 128.976 191.584C129.484 191.021 129.962 190.422 130.321 189.896C130.5 189.634 130.657 189.381 130.772 189.152C130.877 188.946 130.989 188.684 131.002 188.431C131.033 187.865 130.84 187.43 130.702 187.119L130.687 187.084C130.544 186.76 130.463 186.555 130.477 186.279C130.505 185.761 130.742 185.403 131.15 185.124C131.585 184.827 132.212 184.628 132.96 184.512C134.322 184.299 135.868 184.388 136.877 184.445C136.977 184.451 137.071 184.456 137.16 184.461C137.275 184.467 137.397 184.473 137.526 184.479Z" fill="#333333"/>
<path d="M212.34 83.9995C212.101 83.9995 211.894 83.9573 211.718 83.8729C211.542 83.785 211.396 83.6602 211.28 83.4985C211.168 83.3368 211.083 83.1381 211.027 82.9026C210.975 82.667 210.948 82.3981 210.948 82.0957C210.948 81.7969 210.975 81.5297 211.027 81.2941C211.083 81.0551 211.168 80.8547 211.28 80.6929C211.396 80.5312 211.542 80.4082 211.718 80.3238C211.894 80.2359 212.101 80.192 212.34 80.192C212.819 80.192 213.17 80.359 213.395 80.6929C213.62 81.0269 213.733 81.4945 213.733 82.0957C213.733 82.6969 213.62 83.1645 213.395 83.4985C213.17 83.8325 212.819 83.9995 212.34 83.9995ZM212.34 83.4352C212.463 83.4352 212.567 83.4124 212.652 83.3667C212.736 83.3174 212.803 83.2489 212.852 83.161C212.905 83.0731 212.942 82.9659 212.963 82.8393C212.987 82.7092 213 82.5651 213 82.4069V81.7793C213 81.4629 212.95 81.2133 212.852 81.0305C212.757 80.8476 212.586 80.7562 212.34 80.7562C212.094 80.7562 211.922 80.8476 211.824 81.0305C211.729 81.2133 211.681 81.4629 211.681 81.7793V82.4121C211.681 82.7286 211.729 82.9782 211.824 83.161C211.922 83.3438 212.094 83.4352 212.34 83.4352Z" fill="#333333"/>
<path d="M217.514 83.7137L218.772 80.2547L220.086 80.7327C220.423 80.8553 220.646 81.0449 220.754 81.3015C220.863 81.558 220.857 81.8515 220.737 82.1818C220.617 82.5122 220.432 82.7407 220.184 82.8674C219.936 82.9941 219.644 82.9961 219.307 82.8735L218.642 82.6318L218.163 83.95L217.514 83.7137ZM218.835 82.1015L219.366 82.2945C219.541 82.3582 219.679 82.3693 219.78 82.3275C219.883 82.2825 219.962 82.1824 220.019 82.0271L220.087 81.8388C220.144 81.6835 220.147 81.5573 220.096 81.4603C220.046 81.36 219.934 81.2779 219.759 81.2142L219.229 81.0212L218.835 82.1015Z" fill="#333333"/>
<path d="M223.433 86.7308L225.799 83.911L226.87 84.8093C227.144 85.0398 227.289 85.2942 227.303 85.5724C227.318 85.8507 227.212 86.1245 226.986 86.3938C226.76 86.6631 226.509 86.8148 226.232 86.849C225.955 86.8832 225.68 86.785 225.405 86.5545L224.864 86.1003L223.962 87.1749L223.433 86.7308ZM225.227 85.668L225.659 86.0307C225.802 86.1505 225.928 86.2081 226.037 86.2035C226.149 86.1962 226.258 86.1293 226.364 86.0027L226.493 85.8492C226.599 85.7226 226.645 85.6051 226.63 85.4966C226.618 85.3853 226.541 85.2698 226.398 85.1501L225.966 84.7873L225.227 85.668Z" fill="#333333"/>
<path d="M228.489 92.6269C228.369 92.4199 228.302 92.2192 228.287 92.0247C228.276 91.8286 228.311 91.6398 228.393 91.4585C228.477 91.2802 228.607 91.1078 228.782 90.9413C228.96 90.7778 229.18 90.6205 229.442 90.4693C229.7 90.3199 229.945 90.2092 230.175 90.1371C230.411 90.0662 230.626 90.0391 230.823 90.0557C231.021 90.0753 231.2 90.1401 231.361 90.2502C231.525 90.3585 231.667 90.5161 231.786 90.7232C232.026 91.1372 232.057 91.5252 231.88 91.8871C231.703 92.2489 231.355 92.5802 230.834 92.8808C230.313 93.1814 229.852 93.3177 229.45 93.2899C229.049 93.262 228.728 93.041 228.489 92.6269ZM228.978 92.3448C229.039 92.4514 229.111 92.5298 229.193 92.58C229.277 92.6284 229.37 92.652 229.471 92.6507C229.573 92.6524 229.685 92.6308 229.805 92.5858C229.93 92.542 230.061 92.4806 230.198 92.4015L230.741 92.0877C231.015 91.9295 231.207 91.7621 231.316 91.5854C231.427 91.4118 231.421 91.2184 231.298 91.0053C231.175 90.7922 231.009 90.6887 230.802 90.6948C230.596 90.704 230.356 90.7878 230.082 90.946L229.534 91.2624C229.26 91.4206 229.068 91.5865 228.957 91.7601C228.848 91.9368 228.855 92.1317 228.978 92.3448Z" fill="#333333"/>
<path d="M230.663 98.6607C230.608 98.3491 230.615 98.073 230.683 97.8325C230.752 97.5954 230.863 97.3921 231.015 97.2225L231.513 97.5577C231.381 97.7202 231.291 97.886 231.242 98.0553C231.197 98.2274 231.191 98.4034 231.223 98.5835C231.259 98.7912 231.334 98.9422 231.447 99.0366C231.56 99.1309 231.705 99.1624 231.881 99.1313C232.027 99.1057 232.129 99.0449 232.187 98.949C232.248 98.8524 232.277 98.7028 232.273 98.4999L232.268 98.1046C232.268 97.7584 232.347 97.4981 232.505 97.3238C232.667 97.1489 232.874 97.0391 233.127 96.9946C233.473 96.9335 233.758 96.9993 233.981 97.192C234.208 97.3841 234.356 97.6792 234.427 98.0774C234.477 98.3613 234.475 98.6134 234.421 98.8335C234.367 99.0571 234.274 99.245 234.14 99.3971L233.644 99.0723C233.741 98.9552 233.81 98.8233 233.852 98.6767C233.898 98.5295 233.904 98.3641 233.872 98.1806C233.802 97.7859 233.605 97.6172 233.279 97.6746C233.141 97.699 233.042 97.7592 232.984 97.8551C232.926 97.951 232.898 98.1025 232.899 98.3094L232.898 98.7004C232.895 99.0259 232.82 99.28 232.674 99.4629C232.527 99.6458 232.319 99.761 232.049 99.8086C231.879 99.8385 231.718 99.8366 231.566 99.8027C231.417 99.7683 231.281 99.7031 231.157 99.6072C231.036 99.5106 230.933 99.3824 230.848 99.2225C230.763 99.0661 230.702 98.8788 230.663 98.6607Z" fill="#333333"/>
<path d="M230.908 104.331L231.417 104.421L231.273 105.236L233.88 105.696L234.024 104.881L234.533 104.971L234.127 107.276L233.618 107.187L233.761 106.371L231.154 105.912L231.01 106.727L230.501 106.637L230.908 104.331Z" fill="#333333"/>
<path d="M231.043 112.375L231.07 112.329L228.782 111.008L229.077 110.497L232.265 112.337L231.84 113.073L229.07 112.587L229.043 112.633L231.331 113.954L231.036 114.466L227.848 112.625L228.273 111.89L231.043 112.375Z" fill="#333333"/>
<path d="M223.914 117.549L223.946 117.521C223.923 117.445 223.906 117.364 223.896 117.281C223.886 117.198 223.89 117.115 223.907 117.031C223.924 116.948 223.958 116.865 224.007 116.782C224.054 116.701 224.122 116.623 224.211 116.549C224.497 116.309 224.818 116.253 225.177 116.379C225.535 116.51 225.905 116.803 226.286 117.258C226.689 117.738 226.91 118.176 226.95 118.574C226.99 118.972 226.831 119.321 226.473 119.622C226.333 119.739 226.194 119.823 226.058 119.873C225.918 119.926 225.783 119.95 225.651 119.946C225.516 119.945 225.385 119.917 225.257 119.863C225.129 119.815 225.005 119.749 224.885 119.666L225.255 119.122C225.324 119.165 225.394 119.205 225.465 119.241C225.534 119.28 225.605 119.304 225.676 119.312C225.747 119.326 225.819 119.324 225.89 119.305C225.964 119.289 226.039 119.249 226.114 119.186C226.289 119.039 226.356 118.864 226.313 118.661C226.271 118.457 226.149 118.234 225.945 117.992L225.566 117.54C225.464 117.418 225.362 117.313 225.26 117.225C225.158 117.141 225.056 117.079 224.954 117.041C224.853 117.002 224.753 116.989 224.654 117.003C224.558 117.02 224.461 117.069 224.364 117.15C224.214 117.277 224.136 117.417 224.133 117.571C224.132 117.729 224.19 117.877 224.307 118.017L224.5 118.247L225.014 117.817L225.336 118.201L224.35 119.028L223.113 117.553L223.585 117.157L223.914 117.549Z" fill="#333333"/>
<path d="M211.482 123.21V120.098H212.168V123.21H213.275V123.779H210.375V123.21H211.482Z" fill="#333333"/>
<path d="M204.337 121.262L205.347 121.63L205.889 120.144L206.538 120.38L205.279 123.839L204.63 123.603L205.153 122.166L204.142 121.798L203.619 123.235L202.969 122.999L204.228 119.54L204.878 119.776L204.337 121.262Z" fill="#333333"/>
<path d="M199.554 116.49C199.738 116.644 199.869 116.81 199.95 116.987C200.028 117.168 200.06 117.357 200.044 117.556C200.027 117.752 199.964 117.958 199.855 118.175C199.744 118.389 199.592 118.612 199.397 118.844C199.205 119.073 199.013 119.26 198.821 119.407C198.625 119.554 198.431 119.653 198.241 119.705C198.048 119.754 197.857 119.754 197.668 119.706C197.477 119.66 197.29 119.561 197.107 119.407C196.741 119.1 196.579 118.746 196.621 118.345C196.663 117.945 196.878 117.514 197.264 117.054C197.651 116.593 198.037 116.307 198.424 116.196C198.812 116.085 199.188 116.183 199.554 116.49ZM199.192 116.923C199.097 116.844 199.003 116.794 198.909 116.775C198.813 116.759 198.718 116.768 198.624 116.804C198.527 116.837 198.43 116.896 198.332 116.979C198.23 117.063 198.127 117.165 198.026 117.287L197.622 117.767C197.419 118.01 197.296 118.233 197.254 118.436C197.209 118.637 197.281 118.817 197.47 118.975C197.658 119.133 197.849 119.174 198.042 119.097C198.232 119.018 198.429 118.857 198.632 118.615L199.039 118.13C199.242 117.888 199.367 117.666 199.411 117.465C199.453 117.262 199.38 117.081 199.192 116.923Z" fill="#333333"/>
<path d="M192.466 113.888L194.453 112.741C194.572 112.673 194.677 112.608 194.768 112.548C194.857 112.484 194.926 112.418 194.975 112.348C195.02 112.278 195.042 112.2 195.042 112.115C195.039 112.027 195.005 111.925 194.938 111.81C194.871 111.694 194.801 111.615 194.728 111.572C194.653 111.526 194.574 111.506 194.493 111.513C194.406 111.518 194.314 111.545 194.216 111.593C194.117 111.638 194.008 111.695 193.889 111.764L191.902 112.911L191.557 112.313L193.452 111.218C193.677 111.088 193.882 110.989 194.065 110.919C194.248 110.85 194.419 110.822 194.577 110.837C194.736 110.851 194.885 110.913 195.026 111.022C195.161 111.131 195.295 111.299 195.427 111.527C195.559 111.756 195.639 111.957 195.666 112.132C195.689 112.306 195.667 112.464 195.6 112.609C195.534 112.753 195.424 112.887 195.273 113.011C195.121 113.135 194.932 113.262 194.707 113.392L192.812 114.487L192.466 113.888Z" fill="#333333"/>
<path d="M192.461 104.626L192.468 104.668C192.546 104.686 192.624 104.712 192.701 104.745C192.778 104.778 192.849 104.822 192.912 104.879C192.976 104.936 193.031 105.006 193.078 105.091C193.124 105.172 193.158 105.269 193.178 105.384C193.243 105.751 193.131 106.058 192.842 106.305C192.55 106.549 192.111 106.723 191.526 106.826C190.91 106.935 190.419 106.907 190.055 106.743C189.69 106.579 189.467 106.266 189.386 105.806C189.354 105.626 189.351 105.464 189.375 105.32C189.4 105.173 189.446 105.044 189.516 104.932C189.585 104.816 189.674 104.716 189.784 104.633C189.89 104.546 190.009 104.471 190.141 104.409L190.428 105.001C190.356 105.039 190.286 105.08 190.219 105.124C190.151 105.164 190.096 105.213 190.052 105.271C190.005 105.326 189.971 105.389 189.952 105.46C189.929 105.532 189.926 105.616 189.943 105.713C189.982 105.938 190.101 106.083 190.298 106.148C190.495 106.214 190.749 106.219 191.061 106.164L191.643 106.061C191.799 106.034 191.94 105.998 192.068 105.954C192.192 105.907 192.296 105.85 192.381 105.781C192.465 105.713 192.526 105.632 192.563 105.54C192.597 105.449 192.603 105.34 192.581 105.216C192.547 105.022 192.463 104.885 192.331 104.805C192.196 104.725 192.038 104.701 191.858 104.733L191.562 104.785L191.679 105.444L191.185 105.531L190.962 104.264L192.857 103.93L192.965 104.538L192.461 104.626Z" fill="#333333"/>
<path d="M191.639 97.8847L191.452 98.9442L193.01 99.2189L192.89 99.8993L189.265 99.2601L189.385 98.5797L190.892 98.8453L191.078 97.7858L189.572 97.5203L189.692 96.8399L193.317 97.4791L193.197 98.1595L191.639 97.8847Z" fill="#333333"/>
<path d="M192.85 90.6019L195.544 92.1576L195.202 92.7513L192.507 91.1956L191.953 92.1547L191.46 91.8699L192.91 89.358L193.404 89.6428L192.85 90.6019Z" fill="#333333"/>
<path d="M199.647 87.4476C199.404 87.651 199.162 87.7833 198.92 87.8444C198.68 87.9033 198.449 87.9093 198.226 87.8623L198.267 87.2633C198.473 87.2963 198.662 87.2916 198.833 87.2492C199.005 87.2018 199.16 87.1193 199.3 87.0018C199.462 86.8662 199.555 86.7259 199.58 86.5809C199.606 86.4358 199.561 86.2946 199.445 86.1573C199.35 86.0442 199.247 85.9865 199.135 85.9841C199.02 85.9791 198.876 86.0289 198.702 86.1335L198.363 86.3358C198.063 86.5093 197.798 86.5709 197.568 86.5209C197.336 86.4681 197.137 86.3434 196.972 86.1468C196.746 85.8775 196.661 85.598 196.716 85.3084C196.769 85.016 196.95 84.7399 197.26 84.48C197.481 84.2947 197.7 84.1704 197.918 84.1071C198.138 84.0415 198.348 84.0287 198.546 84.0685L198.513 84.6608C198.363 84.6352 198.214 84.6409 198.066 84.6778C197.916 84.7121 197.769 84.7891 197.627 84.9089C197.32 85.1665 197.272 85.4219 197.485 85.6751C197.575 85.7828 197.676 85.8378 197.789 85.8402C197.901 85.8425 198.046 85.7916 198.225 85.6874L198.564 85.4925C198.847 85.3326 199.105 85.2703 199.336 85.3055C199.568 85.3408 199.772 85.4634 199.948 85.6735C200.059 85.8054 200.138 85.9459 200.184 86.0947C200.229 86.2408 200.241 86.3916 200.22 86.547C200.196 86.6996 200.137 86.8529 200.041 87.0067C199.948 87.1583 199.816 87.3053 199.647 87.4476Z" fill="#333333"/>
<path d="M219.169 121.002C219.169 121.36 218.878 121.65 218.521 121.65C218.163 121.65 217.873 121.36 217.873 121.002C217.873 120.644 218.163 120.354 218.521 120.354C218.878 120.354 219.169 120.644 219.169 121.002Z" fill="#333333"/>
<path d="M205.514 82.9203C205.514 83.2782 205.224 83.5683 204.866 83.5683C204.508 83.5683 204.218 83.2782 204.218 82.9203C204.218 82.5625 204.508 82.2723 204.866 82.2723C205.224 82.2723 205.514 82.5625 205.514 82.9203Z" fill="#333333"/>
</svg>
