<svg width="344" height="221" viewBox="0 0 344 221" fill="none" xmlns="http://www.w3.org/2000/svg">
<path fill-rule="evenodd" clip-rule="evenodd" d="M6.65266 86.9384L59.6722 134.272L50.7992 180.391C49.7348 185.924 50.9405 192.102 55.0015 197.019C59.0625 201.936 64.901 204.287 70.5355 204.287H225.535C226.67 210.043 230.293 215.149 235.762 218.048C243.032 221.901 251.113 220.699 256.881 216.866L333.685 165.83C338.29 162.771 341.67 157.941 342.762 152.268C343.873 146.492 342.585 138.929 336.469 133.469L283.45 86.1359L292.563 38.7687C293.627 33.2357 292.421 27.0582 288.36 22.1414C284.299 17.2246 278.461 14.8735 272.826 14.8735H117.299C115.914 9.63181 112.43 5.04745 107.36 2.35981C100.09 -1.49361 92.0089 -0.291508 86.2411 3.54115L9.43652 54.577C4.8317 57.6368 1.4518 62.4661 0.360349 68.1393C-0.750994 73.9158 0.537012 81.4787 6.65266 86.9384ZM97.0652 35.3508C97.0652 35.351 97.0652 35.3507 97.0652 35.3508L97.0618 35.3681L97.0652 35.3508Z" fill="#FFD600"/>
<path d="M99.9214 20.504C100.32 18.4295 98.1167 17.2614 96.203 18.5331L19.3984 69.5689C17.8954 70.5676 17.5213 72.5121 18.64 73.5108L75.8071 124.547C77.2316 125.818 79.8848 124.65 80.2839 122.576L82.1837 112.701C82.4488 111.323 83.801 110.206 85.204 110.206H257.948C259.351 110.206 260.703 109.089 260.969 107.712L274.887 35.3681C275.152 33.9903 274.229 32.8735 272.826 32.8735H100.082C98.679 32.8735 97.7565 31.7566 98.0216 30.3788L99.9214 20.504Z" fill="#AF71FE"/>
<path fill-rule="evenodd" clip-rule="evenodd" d="M98.4612 19.1473C98.0836 18.9472 97.446 18.9078 96.7564 19.366L19.9519 70.4018C19.4144 70.7589 19.1069 71.2673 19.0181 71.7288C18.9304 72.1846 19.0553 72.5411 19.306 72.7649L76.4731 123.801C76.8083 124.1 77.3776 124.187 78.0271 123.901C78.6689 123.618 79.1743 123.05 79.3019 122.387L81.2017 112.512C81.5574 110.663 83.3216 109.206 85.204 109.206H257.948C258.872 109.206 259.812 108.43 259.987 107.523L273.905 35.1792C273.985 34.7594 273.879 34.4443 273.711 34.2409C273.543 34.0376 273.254 33.8735 272.826 33.8735H100.082C99.1064 33.8735 98.233 33.4791 97.6552 32.7796C97.0775 32.0801 96.8553 31.1479 97.0396 30.1899L98.9394 20.3151C99.0574 19.7015 98.8061 19.3301 98.4612 19.1473ZM99.3978 17.3802C100.533 17.9822 101.184 19.2322 100.903 20.693L99.0036 30.5678C98.9228 30.9875 99.0293 31.3026 99.1973 31.506C99.3652 31.7094 99.6545 31.8735 100.082 31.8735H272.826C273.802 31.8735 274.675 32.2678 275.253 32.9673C275.831 33.6668 276.053 34.599 275.869 35.557L261.951 107.901C261.595 109.749 259.831 111.206 257.948 111.206H85.204C84.2804 111.206 83.3402 111.983 83.1657 112.89L81.2659 122.765C80.9945 124.176 79.9736 125.229 78.833 125.731C77.7 126.23 76.2304 126.265 75.1412 125.293L17.9741 74.2568C17.106 73.4819 16.8587 72.3668 17.0541 71.351C17.2484 70.3409 17.8794 69.3777 18.845 68.7361L95.6495 17.7002C96.8737 16.8868 98.2948 16.7956 99.3978 17.3802Z" fill="#333333"/>
<path d="M63.7714 59.6733C63.3737 59.6733 63.0796 59.5384 62.8893 59.2685C62.7018 58.9986 62.608 58.6207 62.608 58.1349C62.608 57.649 62.7018 57.2712 62.8893 57.0013C63.0796 56.7314 63.3737 56.5964 63.7714 56.5964C64.1692 56.5964 64.4618 56.7314 64.6493 57.0013C64.8397 57.2712 64.9349 57.649 64.9349 58.1349C64.9349 58.6207 64.8397 58.9986 64.6493 59.2685C64.4618 59.5384 64.1692 59.6733 63.7714 59.6733ZM63.7714 59.1577C63.9533 59.1577 64.0783 59.0909 64.1465 58.9574C64.2175 58.821 64.253 58.6321 64.253 58.3906V57.8749C64.253 57.6363 64.2175 57.4502 64.1465 57.3166C64.0783 57.1803 63.9533 57.1121 63.7714 57.1121C63.5896 57.1121 63.4632 57.1803 63.3922 57.3166C63.324 57.4502 63.2899 57.6363 63.2899 57.8749V58.3948C63.2899 58.6335 63.324 58.821 63.3922 58.9574C63.4632 59.0909 63.5896 59.1577 63.7714 59.1577Z" fill="#333333"/>
<path d="M67.7669 60.2148L68.7843 57.4196L69.8655 57.8131C70.0017 57.8627 70.1154 57.9282 70.2066 58.0098C70.2988 58.0887 70.3669 58.18 70.4108 58.2837C70.4574 58.3883 70.4794 58.5022 70.477 58.6252C70.4745 58.7483 70.4485 58.8779 70.3989 59.014C70.3494 59.1502 70.286 59.2662 70.2088 59.3621C70.1316 59.4579 70.0415 59.531 69.9385 59.5812C69.8383 59.6324 69.727 59.6599 69.6047 59.6637C69.4833 59.6649 69.3545 59.6407 69.2184 59.5911L68.7418 59.4177L68.3716 60.4349L67.7669 60.2148ZM68.9182 58.9331L69.2426 59.0512C69.3841 59.1027 69.4912 59.1115 69.564 59.0775C69.6395 59.0445 69.6996 58.9666 69.7443 58.8438L69.7881 58.7237C69.8328 58.6009 69.8368 58.5026 69.8002 58.4288C69.7662 58.3559 69.6785 58.2938 69.537 58.2423L69.2126 58.1242L68.9182 58.9331Z" fill="#333333"/>
<path d="M72.4046 62.5618L74.3166 60.2832L75.198 61.0228C75.309 61.1159 75.3934 61.2164 75.4513 61.3243C75.5109 61.43 75.5437 61.539 75.5495 61.6515C75.5574 61.7657 75.5392 61.8802 75.4948 61.995C75.4504 62.1098 75.3816 62.2227 75.2885 62.3337C75.1954 62.4447 75.0961 62.5321 74.9908 62.5957C74.8855 62.6594 74.7758 62.6972 74.6619 62.7092C74.5502 62.723 74.4362 62.7108 74.3199 62.6726C74.2055 62.6322 74.0928 62.5654 73.9818 62.4723L73.5933 62.1463L72.8975 62.9755L72.4046 62.5618ZM73.9247 61.7513L74.1892 61.9731C74.3045 62.0699 74.4022 62.1148 74.4823 62.1078C74.5645 62.1026 74.6476 62.05 74.7316 61.9499L74.8138 61.852C74.8978 61.7518 74.9352 61.6608 74.926 61.579C74.919 61.4989 74.8579 61.4105 74.7425 61.3137L74.4781 61.0918L73.9247 61.7513Z" fill="#333333"/>
<path d="M76.393 67.2059C76.1941 66.8614 76.1639 66.5393 76.3025 66.2395C76.4425 65.9422 76.7228 65.672 77.1436 65.4291C77.5643 65.1862 77.9384 65.0785 78.2659 65.1059C78.5948 65.1358 78.8587 65.323 79.0576 65.6675C79.2565 66.0119 79.2859 66.3328 79.1459 66.6302C79.0074 66.93 78.7277 67.2013 78.307 67.4442C77.8863 67.6871 77.5114 67.7936 77.1825 67.7637C76.855 67.7363 76.5918 67.5504 76.393 67.2059ZM76.8395 66.9481C76.9304 67.1055 77.0508 67.1804 77.2005 67.1727C77.3541 67.166 77.5355 67.1023 77.7446 66.9816L78.1912 66.7237C78.3979 66.6044 78.5413 66.4806 78.6214 66.3523C78.7054 66.2251 78.702 66.0828 78.611 65.9253C78.5201 65.7678 78.3979 65.6924 78.2442 65.6991C78.0945 65.7068 77.9163 65.7703 77.7096 65.8897L77.2594 66.1496C77.0527 66.2689 76.9074 66.3922 76.8233 66.5195C76.7432 66.6477 76.7486 66.7906 76.8395 66.9481Z" fill="#333333"/>
<path d="M78.0885 71.9076C78.0451 71.6614 78.0479 71.4402 78.097 71.244C78.1461 71.0479 78.2307 70.8815 78.3509 70.7449L78.8181 71.039C78.7194 71.166 78.6531 71.2974 78.6194 71.4332C78.5861 71.5718 78.5811 71.7068 78.6042 71.8383C78.6309 71.9894 78.6847 72.0982 78.7656 72.1647C78.8466 72.2312 78.95 72.2533 79.0759 72.2311C79.1795 72.2129 79.2524 72.1683 79.2947 72.0974C79.3375 72.0292 79.3575 71.9219 79.3547 71.7752L79.3511 71.46C79.3495 71.1891 79.4124 70.9818 79.54 70.8381C79.6704 70.694 79.8433 70.6029 80.0587 70.5649C80.3413 70.5151 80.5758 70.569 80.7623 70.7265C80.9515 70.8835 81.0755 71.1285 81.1342 71.4615C81.1741 71.6881 81.174 71.8915 81.1336 72.0717C81.0933 72.2519 81.0221 72.4044 80.92 72.5291L80.4584 72.2427C80.5313 72.1491 80.5822 72.0449 80.611 71.9302C80.6426 71.815 80.6466 71.6902 80.6229 71.5559C80.5731 71.2733 80.4321 71.1525 80.1998 71.1935C80.0991 71.2112 80.029 71.2553 79.9895 71.3258C79.9505 71.399 79.9309 71.5092 79.9309 71.6563L79.9304 71.9723C79.9304 72.2175 79.8731 72.4166 79.7587 72.5695C79.6443 72.7223 79.471 72.8192 79.2388 72.8602C79.1017 72.8844 78.9702 72.883 78.8443 72.8562C78.7212 72.8288 78.6079 72.7753 78.5044 72.6954C78.4037 72.6151 78.3172 72.5092 78.245 72.3777C78.1732 72.249 78.1211 72.0923 78.0885 71.9076Z" fill="#333333"/>
<path d="M78.2908 76.3183L78.7566 76.4004L78.6456 77.0299L80.6433 77.3822L80.7543 76.7526L81.2202 76.8348L80.8872 78.7234L80.4213 78.6412L80.5323 78.0117L78.5346 77.6594L78.4236 78.289L77.9578 78.2068L78.2908 76.3183Z" fill="#333333"/>
<path d="M78.297 82.6311L78.3204 82.5905L76.6079 81.6019L76.8807 81.1294L79.4567 82.6167L79.0732 83.2811L77.0219 82.8792L76.9985 82.9198L78.711 83.9085L78.4382 84.3809L75.8622 82.8936L76.2457 82.2293L78.297 82.6311Z" fill="#333333"/>
<path d="M72.8446 86.6977L72.874 86.673C72.8534 86.6087 72.839 86.5429 72.8308 86.4757C72.8226 86.4084 72.8245 86.34 72.8366 86.2705C72.8506 86.2031 72.8776 86.1359 72.9178 86.0689C72.9558 86.0036 73.0096 85.9418 73.0792 85.8833C73.1902 85.7902 73.3112 85.7332 73.442 85.7124C73.5707 85.6934 73.7065 85.7093 73.8493 85.7601C73.992 85.8109 74.1389 85.8954 74.2899 86.0135C74.4387 86.1334 74.5889 86.2836 74.7405 86.4643C75.0656 86.8517 75.2432 87.207 75.2734 87.5303C75.3054 87.8557 75.1734 88.1427 74.8774 88.391C74.7599 88.4896 74.6428 88.5601 74.5262 88.6023C74.4114 88.6467 74.2978 88.666 74.1854 88.6602C74.0726 88.6584 73.9618 88.6346 73.8528 88.5887C73.7439 88.5429 73.6364 88.4811 73.5303 88.4032L73.8942 87.9087C73.9474 87.9457 74.001 87.9786 74.0549 88.0075C74.1085 88.0404 74.163 88.0633 74.2183 88.0762C74.2737 88.0891 74.3291 88.089 74.3847 88.0757C74.4422 88.0646 74.4992 88.0353 74.5558 87.9878C74.6798 87.8837 74.7251 87.7586 74.6915 87.6125C74.6557 87.4682 74.5602 87.3035 74.405 87.1185L74.0927 86.7464C73.9375 86.5614 73.7861 86.4362 73.6385 86.3709C73.4888 86.3074 73.3432 86.335 73.2017 86.4537C73.0907 86.5468 73.0354 86.6488 73.0358 86.7598C73.0362 86.8707 73.0793 86.9774 73.1651 87.0796L73.3048 87.2461L73.6933 86.9202L73.9837 87.2662L73.1577 87.9593L72.136 86.7416L72.5734 86.3745L72.8446 86.6977Z" fill="#333333"/>
<path d="M63.0359 91.922V89.4715H63.6751V91.922H64.5317V92.4461H62.1793V91.922H63.0359Z" fill="#333333"/>
<path d="M57.5404 89.6222L58.2452 89.8787L58.6709 88.7094L59.2755 88.9295L58.2582 91.7247L57.6535 91.5046L58.066 90.3713L57.3612 90.1148L56.9487 91.2481L56.344 91.028L57.3614 88.2328L57.966 88.4529L57.5404 89.6222Z" fill="#333333"/>
<path d="M53.7576 85.8635C54.0623 86.1191 54.2008 86.4115 54.1731 86.7406C54.1433 87.0679 53.9722 87.4177 53.6599 87.7898C53.3476 88.162 53.0329 88.3912 52.7158 88.4774C52.3965 88.5618 52.0845 88.4762 51.7798 88.2205C51.4751 87.9648 51.3377 87.6734 51.3675 87.3461C51.3952 87.017 51.5652 86.6663 51.8775 86.2942C52.1897 85.922 52.5055 85.6937 52.8248 85.6093C53.142 85.5231 53.4529 85.6078 53.7576 85.8635ZM53.4261 86.2585C53.2868 86.1416 53.1482 86.1124 53.0101 86.1709C52.868 86.2297 52.7194 86.3516 52.5641 86.5366L52.2327 86.9316C52.0793 87.1144 51.9869 87.2798 51.9555 87.4277C51.92 87.576 51.972 87.7086 52.1113 87.8255C52.2505 87.9424 52.3912 87.9714 52.5333 87.9126C52.6714 87.8541 52.8171 87.7335 52.9705 87.5507L53.3047 87.1524C53.4581 86.9696 53.5525 86.804 53.5879 86.6557C53.6193 86.5078 53.5654 86.3754 53.4261 86.2585Z" fill="#333333"/>
<path d="M48.1147 83.8481L49.746 82.9063C49.8272 82.8594 49.9008 82.8136 49.9669 82.7689C50.029 82.7232 50.0771 82.6757 50.1111 82.6266C50.1436 82.575 50.1599 82.518 50.16 82.4557C50.1576 82.3947 50.133 82.3236 50.0861 82.2424C50.0392 82.1612 49.99 82.1044 49.9384 82.0718C49.8843 82.0407 49.8275 82.0276 49.768 82.0324C49.707 82.0348 49.6419 82.0527 49.5727 82.0861C49.4995 82.1185 49.4223 82.1582 49.3411 82.2051L47.7099 83.1469L47.3903 82.5933L48.9477 81.6941C49.1249 81.5918 49.287 81.5146 49.434 81.4625C49.5797 81.4079 49.716 81.3883 49.8429 81.4036C49.9698 81.4189 50.0895 81.4728 50.202 81.5653C50.3145 81.6579 50.4247 81.7976 50.5327 81.9846C50.6406 82.1716 50.7065 82.3369 50.7304 82.4806C50.7543 82.6243 50.7412 82.7549 50.691 82.8725C50.6407 82.99 50.5563 83.0995 50.4376 83.2008C50.3176 83.2996 50.169 83.4002 49.9918 83.5025L48.4343 84.4017L48.1147 83.8481Z" fill="#333333"/>
<path d="M48.1934 76.6128L48.2 76.6506C48.266 76.6649 48.3302 76.6853 48.3926 76.7118C48.4549 76.7383 48.5132 76.7742 48.5673 76.8195C48.6187 76.8652 48.6634 76.9223 48.7014 76.9906C48.7389 77.0561 48.7655 77.1336 48.7813 77.2231C48.8065 77.3658 48.7954 77.4991 48.7479 77.6228C48.7 77.7438 48.6184 77.8534 48.503 77.9516C48.3876 78.0498 48.241 78.1348 48.0633 78.2066C47.885 78.2755 47.6798 78.3304 47.4476 78.3714C46.9496 78.4592 46.553 78.4354 46.2579 78.2999C45.9601 78.1649 45.7776 77.9071 45.7105 77.5266C45.6839 77.3755 45.6814 77.2389 45.7031 77.1168C45.7221 76.9952 45.7622 76.8871 45.8234 76.7927C45.8814 76.6959 45.9574 76.6118 46.0516 76.5404C46.1457 76.469 46.253 76.4068 46.3735 76.3538L46.6198 76.9162C46.5612 76.9439 46.5059 76.9738 46.4539 77.0061C46.3986 77.036 46.3515 77.0717 46.3127 77.1132C46.2738 77.1546 46.2462 77.2028 46.2299 77.2576C46.2108 77.3129 46.2077 77.3769 46.2205 77.4496C46.2487 77.6091 46.3344 77.7108 46.4777 77.7548C46.6206 77.796 46.8109 77.7956 47.0487 77.7537L47.5272 77.6693C47.765 77.6274 47.9491 77.5588 48.0794 77.4637C48.2093 77.3658 48.2582 77.2259 48.2261 77.0441C48.201 76.9014 48.1403 76.8025 48.044 76.7473C47.9477 76.6922 47.8338 76.6762 47.7023 76.6994L47.4883 76.7371L47.5764 77.2365L47.1315 77.315L46.9443 76.2532L48.5097 75.9772L48.6089 76.5395L48.1934 76.6128Z" fill="#333333"/>
<path d="M47.5534 71.3579L47.4232 72.0966L48.6487 72.3127L48.5369 72.9464L45.6075 72.4299L45.7193 71.7961L46.907 72.0056L47.0372 71.2669L45.8495 71.0575L45.9613 70.4238L48.8907 70.9403L48.7789 71.574L47.5534 71.3579Z" fill="#333333"/>
<path d="M48.5268 65.5646L50.6489 66.7898L50.3293 67.3434L48.2072 66.1182L47.7789 66.86L47.3249 66.5979L48.5011 64.5607L48.9551 64.8228L48.5268 65.5646Z" fill="#333333"/>
<path d="M53.8224 63.1603C53.6309 63.321 53.4379 63.4291 53.2435 63.4847C53.0491 63.5403 52.8627 63.5502 52.6843 63.5145L52.7054 62.9627C52.8648 62.9847 53.0117 62.9764 53.1462 62.9378C53.2828 62.8973 53.4023 62.8341 53.5046 62.7483C53.6221 62.6497 53.6894 62.5487 53.7065 62.4453C53.7236 62.342 53.6911 62.2413 53.6089 62.1434C53.5413 62.0629 53.4663 62.022 53.3837 62.0208C53.3033 62.0178 53.2003 62.0542 53.0747 62.1299L52.8035 62.2907C52.5697 62.4276 52.3587 62.4767 52.1705 62.438C51.9805 62.3972 51.8152 62.293 51.6745 62.1254C51.4901 61.9056 51.4195 61.6756 51.4627 61.4353C51.504 61.1929 51.6542 60.9631 51.9132 60.7457C52.0895 60.5978 52.2658 60.4963 52.442 60.4411C52.6182 60.386 52.7859 60.3714 52.9449 60.3974L52.9277 60.9404C52.8101 60.924 52.6945 60.9321 52.5807 60.9645C52.4652 60.9947 52.3551 61.0536 52.2507 61.1413C52.0309 61.3257 51.9967 61.5083 52.1483 61.6889C52.2141 61.7673 52.2873 61.8059 52.3681 61.8049C52.451 61.8021 52.5562 61.7639 52.6836 61.6904L52.9575 61.5328C53.1699 61.4103 53.3709 61.3603 53.5605 61.3829C53.7501 61.4056 53.9207 61.5072 54.0723 61.6878C54.1617 61.7945 54.2263 61.909 54.266 62.0315C54.3039 62.1518 54.3142 62.2767 54.2968 62.4062C54.2776 62.5336 54.2291 62.6615 54.1513 62.7898C54.0757 62.9163 53.9661 63.0398 53.8224 63.1603Z" fill="#333333"/>
<path d="M69.2897 89.8886C69.2897 90.1778 69.0552 90.4122 68.766 90.4122C68.4768 90.4122 68.2424 90.1778 68.2424 89.8886C68.2424 89.5994 68.4768 89.3649 68.766 89.3649C69.0552 89.3649 69.2897 89.5994 69.2897 89.8886Z" fill="#333333"/>
<path d="M58.2553 59.1146C58.2553 59.4038 58.0209 59.6383 57.7317 59.6383C57.4425 59.6383 57.208 59.4038 57.208 59.1146C57.208 58.8254 57.4425 58.591 57.7317 58.591C58.0209 58.591 58.2553 58.8254 58.2553 59.1146Z" fill="#333333"/>
<path d="M262.838 97.8317C263.237 95.7572 265.89 94.5891 267.315 95.8608L324.482 146.897C325.6 147.895 325.226 149.84 323.723 150.839L246.919 201.874C245.005 203.146 242.801 201.978 243.2 199.903L245.34 188.781C245.605 187.404 244.683 186.287 243.28 186.287H70.5355C69.1325 186.287 68.21 185.17 68.4751 183.792L82.1532 112.696C82.4183 111.318 83.7705 110.201 85.1735 110.201H257.918C259.321 110.201 260.673 109.084 260.938 107.707L262.838 97.8317Z" fill="#2678F4"/>
<path fill-rule="evenodd" clip-rule="evenodd" d="M264.289 94.6762C265.422 94.1774 266.891 94.1424 267.981 95.1148L325.148 146.151C326.016 146.926 326.263 148.041 326.068 149.056C325.873 150.067 325.242 151.03 324.277 151.671L247.472 202.707C246.248 203.521 244.827 203.612 243.724 203.027C242.588 202.425 241.937 201.175 242.218 199.714L244.358 188.592C244.439 188.173 244.332 187.858 244.164 187.654C243.996 187.451 243.707 187.287 243.28 187.287H70.5355C69.5599 187.287 68.6865 186.892 68.1087 186.193C67.531 185.493 67.3087 184.561 67.4931 183.603L81.1712 112.507C81.5268 110.658 83.291 109.201 85.1735 109.201H257.918C258.841 109.201 259.782 108.425 259.956 107.518L261.856 97.6428C262.127 96.2318 263.148 95.1784 264.289 94.6762ZM265.095 96.5067C264.453 96.7892 263.947 97.3572 263.82 98.0206L261.92 107.895C261.564 109.744 259.8 111.201 257.918 111.201H85.1735C84.2499 111.201 83.3097 111.978 83.1352 112.885L69.457 183.981C69.3763 184.401 69.4828 184.716 69.6507 184.919C69.8187 185.123 70.108 185.287 70.5355 185.287H243.28C244.255 185.287 245.129 185.681 245.706 186.381C246.284 187.08 246.506 188.012 246.322 188.97L244.182 200.092C244.064 200.706 244.316 201.077 244.661 201.26C245.038 201.46 245.676 201.5 246.365 201.041L323.17 150.006C323.707 149.649 324.015 149.14 324.104 148.679C324.191 148.223 324.066 147.866 323.816 147.643L266.649 96.6067C266.313 96.3075 265.744 96.2207 265.095 96.5067Z" fill="#333333"/>
<path d="M101.587 51.7557C99.5551 51.7557 98.2233 51.5482 97.2879 51.3926C96.3624 51.1851 95.8335 51.0295 95.4779 51.0295C92.5818 51.0295 87.8159 56.7878 86.9676 61.1972C86.6083 63.0648 87.4175 64.9323 89.399 64.9323C93.5144 64.9323 95.8099 58.8109 98.0962 58.8109C98.8075 58.8109 99.8844 58.7591 98.6332 64.2061L96.0211 75.6707C95.7208 76.9676 94.9187 80.0802 94.2011 81.1696C92.8057 83.1409 89.8652 82.0515 89.3363 84.801C88.5678 88.7954 98.0887 88.6917 100.68 88.6917C110.181 88.6917 111.585 86.4091 111.895 84.801C112.593 81.1696 107.35 84.1266 108.538 77.9533L111.602 62.0273C111.682 61.6122 112.017 58.8109 113.999 58.8109C116.59 58.8109 115.361 64.9323 119.782 64.9323C122.373 64.9323 124.023 63.2204 124.522 60.6266C125.6 55.024 122.253 51.0295 120.272 51.0295C119.306 51.0295 118.87 51.1851 118.119 51.3926C117.327 51.5482 116.271 51.7557 114.086 51.7557H101.587Z" fill="white"/>
<path d="M171.045 66.0736C172.632 57.8253 173.161 57.9809 174.815 57.3065C175.931 56.7878 176.64 56.0096 176.859 54.8683C177.558 51.237 170.81 51.1851 168.422 51.1851C158.312 51.1851 157.956 54.0902 157.767 55.0758C157.507 56.4246 158.332 56.8915 159.187 57.4621C159.778 57.8253 160.572 58.1884 159.484 63.8429C159.175 65.4511 159.176 65.9699 155.823 65.9699H153.232C150.793 65.9699 149.402 66.333 149.961 63.4279C150.849 58.8109 151.274 58.1884 152.684 57.4621C153.992 56.7359 154.966 56.1652 155.275 54.5571C155.874 51.4445 150.03 51.1851 147.896 51.1851C145.051 51.1851 136.487 51.6001 135.718 55.5946C135.518 56.6321 136.343 57.099 137.025 57.514C138.706 58.5515 139.128 57.4103 136.474 71.2094C134.388 82.0515 133.757 81.8959 131.758 82.7778C130.815 83.1928 129.923 83.8672 129.713 84.9566C129.035 88.4842 136.057 88.6917 138.394 88.6917C140.833 88.6917 148.291 88.4842 148.989 84.8528C149.638 81.4809 145.939 84.3341 147.306 77.227C148.205 72.5582 147.584 72.3506 154.697 72.3506C157.237 72.3506 157.867 72.2469 157.328 75.0482C156.789 77.8495 153.69 76.5673 153.125 80.5618C152.456 84.0375 158.949 84.0894 161.185 84.0894C171.194 84.0894 171.794 81.4955 172.034 80.2505C172.283 78.9536 171.632 78.6423 170.726 78.0717C169.503 77.2936 169.45 76.5154 169.749 74.9591L171.045 66.0736Z" fill="white"/>
<path d="M188.24 72.5063C187.243 77.227 186.631 78.1608 185.882 78.8871C184.879 79.8727 183.102 80.1321 182.782 81.7921C182.384 83.8635 186.849 86.5049 190.655 87.1652C200.281 88.8356 202.389 87.6248 202.731 85.8445C202.985 84.5238 202.535 82.985 200.52 81.5853C199.623 80.9628 199.307 78.2506 200.586 72.5063L201.574 67.3705C202.273 63.7392 203.222 59.0703 204.407 57.929C205.835 56.5802 207.746 56.684 208.105 54.8165C208.784 51.2889 202.554 51.1851 199.506 51.1851C198.49 51.1851 188.125 51.1851 187.407 54.9202C187.027 56.8915 188.979 57.0471 189.858 58.5515C190.277 59.2778 190.496 60.7822 189.228 67.3705L188.24 72.5063Z" fill="white"/>
<path d="M221.435 72.2988C226.187 76.9158 233.327 75.982 232.608 79.7171C232.229 81.6884 229.325 82.259 228.207 82.259C218.859 82.259 221.055 74.0107 217.448 74.0107C215.924 74.0107 215.045 75.4113 214.775 76.812C214.266 79.4577 214.377 84.9566 216.546 86.3573C219.133 87.9654 224.704 88.8473 228.057 88.8473C239.896 88.8473 246.09 81.9996 247.258 75.9301C248.007 72.0394 246.931 69.4456 244.19 67.3186C239.065 63.3242 231.895 64.4136 232.683 60.3153C233.042 58.4478 234.859 57.7215 236.434 57.7215C241.718 57.7215 242.561 63.6354 245.965 63.6354C247.845 63.6354 249.302 61.8716 249.642 60.1078C250.48 55.7502 247.387 51.7557 245.66 51.7557C244.593 51.7557 243.742 52.482 243.03 52.482C242.268 52.482 238.89 51.0295 235.638 51.0295C225.781 51.0295 219.413 57.7215 218.375 63.1167C217.657 66.8518 219.08 70.0162 221.435 72.2988Z" fill="white"/>
<path d="M101.587 51.7557C99.5551 51.7557 98.2233 51.5482 97.2879 51.3926C96.3624 51.1851 95.8335 51.0295 95.4779 51.0295C92.5818 51.0295 87.8159 56.7878 86.9676 61.1972C86.6083 63.0648 87.4175 64.9323 89.399 64.9323C93.5144 64.9323 95.8099 58.8109 98.0962 58.8109C98.8075 58.8109 99.8844 58.7591 98.6332 64.2061L96.0211 75.6707C95.7208 76.9676 94.9187 80.0802 94.2011 81.1696C92.8057 83.1409 89.8652 82.0515 89.3363 84.801C88.5678 88.7954 98.0887 88.6917 100.68 88.6917C110.181 88.6917 111.585 86.4091 111.895 84.801C112.593 81.1696 107.35 84.1266 108.538 77.9533L111.602 62.0273C111.682 61.6122 112.017 58.8109 113.999 58.8109C116.59 58.8109 115.361 64.9323 119.782 64.9323C122.373 64.9323 124.023 63.2204 124.522 60.6266C125.6 55.024 122.253 51.0295 120.272 51.0295C119.306 51.0295 118.87 51.1851 118.119 51.3926C117.327 51.5482 116.271 51.7557 114.086 51.7557H101.587Z" stroke="#AF71FE" stroke-width="1.27018"/>
<path d="M171.045 66.0736C172.632 57.8253 173.161 57.9809 174.815 57.3065C175.931 56.7878 176.64 56.0096 176.859 54.8683C177.558 51.237 170.81 51.1851 168.422 51.1851C158.312 51.1851 157.956 54.0902 157.767 55.0758C157.507 56.4246 158.332 56.8915 159.187 57.4621C159.778 57.8253 160.572 58.1884 159.484 63.8429C159.175 65.4511 159.176 65.9699 155.823 65.9699H153.232C150.793 65.9699 149.402 66.333 149.961 63.4279C150.849 58.8109 151.274 58.1884 152.684 57.4621C153.992 56.7359 154.966 56.1652 155.275 54.5571C155.874 51.4445 150.03 51.1851 147.896 51.1851C145.051 51.1851 136.487 51.6001 135.718 55.5946C135.518 56.6321 136.343 57.099 137.025 57.514C138.706 58.5515 139.128 57.4103 136.474 71.2094C134.388 82.0515 133.757 81.8959 131.758 82.7778C130.815 83.1928 129.923 83.8672 129.713 84.9566C129.035 88.4842 136.057 88.6917 138.394 88.6917C140.833 88.6917 148.291 88.4842 148.989 84.8528C149.638 81.4809 145.939 84.3341 147.306 77.227C148.205 72.5582 147.584 72.3506 154.697 72.3506C157.237 72.3506 157.867 72.2469 157.328 75.0482C156.789 77.8495 153.69 76.5673 153.125 80.5618C152.456 84.0375 158.949 84.0894 161.185 84.0894C171.194 84.0894 171.794 81.4955 172.034 80.2505C172.283 78.9536 171.632 78.6423 170.726 78.0717C169.503 77.2936 169.45 76.5154 169.749 74.9591L171.045 66.0736Z" stroke="#AF71FE" stroke-width="1.27018"/>
<path d="M188.24 72.5063C187.243 77.227 186.631 78.1608 185.882 78.8871C184.879 79.8727 183.102 80.1321 182.782 81.7921C182.384 83.8635 186.849 86.5049 190.655 87.1652C200.281 88.8356 202.389 87.6248 202.731 85.8445C202.985 84.5238 202.535 82.985 200.52 81.5853C199.623 80.9628 199.307 78.2506 200.586 72.5063L201.574 67.3705C202.273 63.7392 203.222 59.0703 204.407 57.929C205.835 56.5802 207.746 56.684 208.105 54.8165C208.784 51.2889 202.554 51.1851 199.506 51.1851C198.49 51.1851 188.125 51.1851 187.407 54.9202C187.027 56.8915 188.979 57.0471 189.858 58.5515C190.277 59.2778 190.496 60.7822 189.228 67.3705L188.24 72.5063Z" stroke="#AF71FE" stroke-width="1.27018"/>
<path d="M221.435 72.2988C226.187 76.9158 233.327 75.982 232.608 79.7171C232.229 81.6884 229.325 82.259 228.207 82.259C218.859 82.259 221.055 74.0107 217.448 74.0107C215.924 74.0107 215.045 75.4113 214.775 76.812C214.266 79.4577 214.377 84.9566 216.546 86.3573C219.133 87.9654 224.704 88.8473 228.057 88.8473C239.896 88.8473 246.09 81.9996 247.258 75.9301C248.007 72.0394 246.931 69.4456 244.19 67.3186C239.065 63.3242 231.895 64.4136 232.683 60.3153C233.042 58.4478 234.859 57.7215 236.434 57.7215C241.718 57.7215 242.561 63.6354 245.965 63.6354C247.845 63.6354 249.302 61.8716 249.642 60.1078C250.48 55.7502 247.387 51.7557 245.66 51.7557C244.593 51.7557 243.742 52.482 243.03 52.482C242.268 52.482 238.89 51.0295 235.638 51.0295C225.781 51.0295 219.413 57.7215 218.375 63.1167C217.657 66.8518 219.08 70.0162 221.435 72.2988Z" stroke="#AF71FE" stroke-width="1.27018"/>
<path d="M195.723 109.839C195.723 121.331 186.179 130.648 174.406 130.648C162.633 130.648 153.089 121.331 153.089 109.839C153.089 98.3461 162.633 89.0294 174.406 89.0294C186.179 89.0294 195.723 98.3461 195.723 109.839Z" fill="#FFD600"/>
<path fill-rule="evenodd" clip-rule="evenodd" d="M174.406 90.0294C163.163 90.0294 154.089 98.9209 154.089 109.839C154.089 120.756 163.163 129.648 174.406 129.648C185.65 129.648 194.723 120.756 194.723 109.839C194.723 98.9209 185.65 90.0294 174.406 90.0294ZM152.089 109.839C152.089 97.7712 162.104 88.0294 174.406 88.0294C186.709 88.0294 196.723 97.7712 196.723 109.839C196.723 121.906 186.709 131.648 174.406 131.648C162.104 131.648 152.089 121.906 152.089 109.839Z" fill="#333333"/>
<path d="M167.395 116.348C166.451 116.348 165.603 116.196 164.851 115.892C164.115 115.588 163.483 115.156 162.955 114.596C162.443 114.036 162.043 113.356 161.755 112.556C161.483 111.756 161.347 110.86 161.347 109.868C161.347 108.876 161.483 107.98 161.755 107.18C162.043 106.38 162.443 105.7 162.955 105.14C163.483 104.58 164.115 104.148 164.851 103.844C165.603 103.54 166.451 103.388 167.395 103.388C168.323 103.388 169.163 103.54 169.915 103.844C170.667 104.148 171.299 104.58 171.811 105.14C172.339 105.7 172.739 106.38 173.011 107.18C173.299 107.98 173.443 108.876 173.443 109.868C173.443 110.86 173.299 111.756 173.011 112.556C172.739 113.356 172.339 114.036 171.811 114.596C171.299 115.156 170.667 115.588 169.915 115.892C169.163 116.196 168.323 116.348 167.395 116.348ZM167.395 113.996C168.275 113.996 168.971 113.732 169.483 113.204C169.995 112.66 170.251 111.868 170.251 110.828V108.908C170.251 107.868 169.995 107.084 169.483 106.556C168.971 106.012 168.275 105.74 167.395 105.74C166.515 105.74 165.819 106.012 165.307 106.556C164.795 107.084 164.539 107.868 164.539 108.908V110.828C164.539 111.868 164.795 112.66 165.307 113.204C165.819 113.732 166.515 113.996 167.395 113.996Z" fill="#333333"/>
<path d="M174.946 113.636H178.018V106.1H174.946V103.676H181.09V107.06H181.282C181.394 106.628 181.546 106.212 181.738 105.812C181.946 105.396 182.202 105.036 182.506 104.732C182.826 104.412 183.21 104.156 183.658 103.964C184.106 103.772 184.642 103.676 185.266 103.676H186.61V106.556H184.066C183.138 106.556 182.41 106.828 181.882 107.372C181.354 107.916 181.09 108.612 181.09 109.46V113.636H185.386V116.06H174.946V113.636Z" fill="#333333"/>
<path d="M120.367 132.58C118.335 132.58 117.001 132.38 116.065 132.231C115.138 132.031 114.608 131.881 114.252 131.881C111.356 131.881 106.633 137.419 105.817 141.66C105.471 143.456 106.294 145.252 108.276 145.252C112.391 145.252 114.642 139.365 116.928 139.365C117.639 139.365 118.716 139.315 117.505 144.554L114.977 155.58C114.686 156.827 113.907 159.821 113.197 160.869C111.816 162.765 108.868 161.717 108.359 164.361C107.62 168.203 117.14 168.103 119.731 168.103C129.232 168.103 130.62 165.908 130.918 164.361C131.589 160.869 126.368 163.713 127.51 157.775L130.457 142.458C130.534 142.059 130.849 139.365 132.83 139.365C135.422 139.365 134.238 145.252 138.658 145.252C141.25 145.252 142.887 143.606 143.367 141.111C144.404 135.723 141.028 131.881 139.046 131.881C138.081 131.881 137.646 132.031 136.896 132.231C136.105 132.38 135.05 132.58 132.866 132.58H120.367Z" fill="white"/>
<path d="M209.191 153.135C208.633 153.135 207.334 153.285 207.497 152.437C207.612 151.838 208.85 149.892 209.159 149.344C209.468 148.795 210.907 145.801 212.127 145.801C213.244 145.801 213.753 147.647 214.057 148.446C214.329 149.144 215.303 151.738 215.159 152.487C215.015 153.235 213.51 153.135 213.002 153.135H209.191ZM198.508 156.378C197.439 157.975 195.911 160.37 194.534 161.717C192.715 163.513 190.106 162.815 189.655 165.159C189.347 166.756 189.749 168.103 197.014 168.103C199.046 168.103 204.543 168.053 205.119 165.06C205.618 162.465 202.117 163.762 202.491 161.817C202.962 159.372 204.556 159.272 207.198 159.272C215.378 159.272 216.61 159.472 216.178 161.717C215.842 163.463 212.915 162.565 212.455 164.96C211.859 168.053 216.219 168.103 223.485 168.103C226.025 168.103 233.211 168.253 233.912 164.611C234.459 161.767 231.274 164.062 230.326 160.27C229.284 156.179 224.55 140.912 223.964 139.465C222.616 136.172 220.676 131.732 216.256 131.732C211.734 131.732 209.609 134.326 208.947 137.769C208.189 141.71 205.261 146.101 203.024 149.543L198.508 156.378Z" fill="white"/>
<path d="M252.93 132.58C250.898 132.58 249.564 132.38 248.628 132.231C247.701 132.031 247.171 131.881 246.815 131.881C243.919 131.881 239.196 137.419 238.38 141.66C238.034 143.456 238.857 145.252 240.839 145.252C244.954 145.252 247.204 139.365 249.491 139.365C250.202 139.365 251.279 139.315 250.068 144.554L247.54 155.58C247.249 156.827 246.47 159.821 245.76 160.869C244.379 162.765 241.431 161.717 240.922 164.361C240.183 168.203 249.703 168.103 252.294 168.103C261.795 168.103 263.183 165.908 263.48 164.361C264.152 160.869 258.931 163.713 260.073 157.775L263.02 142.458C263.097 142.059 263.412 139.365 265.393 139.365C267.985 139.365 266.801 145.252 271.221 145.252C273.813 145.252 275.45 143.606 275.93 141.111C276.967 135.723 273.591 131.881 271.609 131.881C270.644 131.881 270.209 132.031 269.459 132.231C268.668 132.38 267.613 132.58 265.429 132.58H252.93Z" fill="white"/>
<path d="M120.367 132.58C118.335 132.58 117.001 132.38 116.065 132.231C115.138 132.031 114.608 131.881 114.252 131.881C111.356 131.881 106.633 137.419 105.817 141.66C105.471 143.456 106.294 145.252 108.276 145.252C112.391 145.252 114.642 139.365 116.928 139.365C117.639 139.365 118.716 139.315 117.505 144.554L114.977 155.58C114.686 156.827 113.907 159.821 113.197 160.869C111.816 162.765 108.868 161.717 108.359 164.361C107.62 168.203 117.14 168.103 119.731 168.103C129.232 168.103 130.62 165.908 130.918 164.361C131.589 160.869 126.368 163.713 127.51 157.775L130.457 142.458C130.534 142.059 130.849 139.365 132.83 139.365C135.422 139.365 134.238 145.252 138.658 145.252C141.25 145.252 142.887 143.606 143.367 141.111C144.404 135.723 141.028 131.881 139.046 131.881C138.081 131.881 137.646 132.031 136.896 132.231C136.105 132.38 135.05 132.58 132.866 132.58H120.367Z" stroke="#2678F4" stroke-width="1.27018"/>
<path d="M209.191 153.135C208.633 153.135 207.334 153.285 207.497 152.437C207.612 151.838 208.85 149.892 209.159 149.344C209.468 148.795 210.907 145.801 212.127 145.801C213.244 145.801 213.753 147.647 214.057 148.446C214.329 149.144 215.303 151.738 215.159 152.487C215.015 153.235 213.51 153.135 213.002 153.135H209.191ZM198.508 156.378C197.439 157.975 195.911 160.37 194.534 161.717C192.715 163.513 190.106 162.815 189.655 165.159C189.347 166.756 189.749 168.103 197.014 168.103C199.046 168.103 204.543 168.053 205.119 165.06C205.618 162.465 202.117 163.762 202.491 161.817C202.962 159.372 204.556 159.272 207.198 159.272C215.378 159.272 216.61 159.472 216.178 161.717C215.842 163.463 212.915 162.565 212.455 164.96C211.859 168.053 216.219 168.103 223.485 168.103C226.025 168.103 233.211 168.253 233.912 164.611C234.459 161.767 231.274 164.062 230.326 160.27C229.284 156.179 224.55 140.912 223.964 139.465C222.616 136.172 220.676 131.732 216.256 131.732C211.734 131.732 209.609 134.326 208.947 137.769C208.189 141.71 205.261 146.101 203.024 149.543L198.508 156.378Z" stroke="#2678F4" stroke-width="1.27018"/>
<path d="M252.93 132.58C250.898 132.58 249.564 132.38 248.628 132.231C247.701 132.031 247.171 131.881 246.815 131.881C243.919 131.881 239.196 137.419 238.38 141.66C238.034 143.456 238.857 145.252 240.839 145.252C244.954 145.252 247.204 139.365 249.491 139.365C250.202 139.365 251.279 139.315 250.068 144.554L247.54 155.58C247.249 156.827 246.47 159.821 245.76 160.869C244.379 162.765 241.431 161.717 240.922 164.361C240.183 168.203 249.703 168.103 252.294 168.103C261.795 168.103 263.183 165.908 263.48 164.361C264.152 160.869 258.931 163.713 260.073 157.775L263.02 142.458C263.097 142.059 263.412 139.365 265.393 139.365C267.985 139.365 266.801 145.252 271.221 145.252C273.813 145.252 275.45 143.606 275.93 141.111C276.967 135.723 273.591 131.881 271.609 131.881C270.644 131.881 270.209 132.031 269.459 132.231C268.668 132.38 267.613 132.58 265.429 132.58H252.93Z" stroke="#2678F4" stroke-width="1.27018"/>
<path d="M184.259 146.64C185.561 141.847 185.735 142.101 187.384 141.452C188.496 140.953 189.199 140.205 189.41 139.107C190.082 135.615 183.335 135.565 180.947 135.565C170.836 135.565 170.502 138.359 170.319 139.307C170.07 140.604 170.898 141.053 171.758 141.602C172.351 141.951 173.102 142.308 172.682 144.495C172.384 146.041 172.39 146.54 169.036 146.54H166.445C164.007 146.54 162.618 146.889 163.156 144.095C163.917 140.138 164.25 139.955 165.655 139.257C166.958 138.558 167.927 138.01 168.225 136.463C168.8 133.469 162.955 133.22 160.821 133.22C157.976 133.22 149.414 133.619 148.675 137.461C148.483 138.459 149.311 138.908 149.997 139.307C151.684 140.305 151.964 139.942 149.726 151.579C147.719 162.007 147.088 161.857 145.096 162.705C144.155 163.104 143.268 163.753 143.067 164.801C142.414 168.193 149.438 168.393 151.775 168.393C154.213 168.393 161.67 168.193 162.342 164.701C162.966 161.458 159.288 164.202 160.603 157.367C161.466 152.876 160.844 152.677 167.957 152.677C170.498 152.677 171.127 152.577 170.608 155.271C168.66 165.399 165.716 161.159 165.18 165C164.537 168.343 171.031 168.393 173.266 168.393C183.275 168.393 183.857 165.898 184.087 164.701C184.327 163.454 183.673 163.154 182.763 162.605C181.535 161.857 181.476 161.109 181.764 159.612L184.259 146.64Z" fill="white" stroke="#2678F4" stroke-width="1.27018"/>
</svg>
