<svg width="369" height="159" viewBox="0 0 369 159" fill="none" xmlns="http://www.w3.org/2000/svg">
<path d="M100.451 155.992C109.057 155.992 117.233 154.103 124.632 150.732C132.196 155.422 141.063 158.18 150.607 158.18C161.74 158.18 171.908 154.441 180.184 148.278C187.434 152.462 195.803 154.898 204.776 154.898C216.602 154.898 227.349 150.676 235.89 143.807C241.159 145.33 246.704 146.145 252.424 146.145C267.339 146.145 280.885 140.63 291.518 131.666C298.13 134.634 305.428 136.299 313.112 136.299C345.032 136.299 368.739 108.495 368.739 76.9915C368.739 45.4881 345.032 17.6838 313.112 17.6838C310.265 17.6838 307.462 17.913 304.722 18.3554C296.362 13.1053 286.544 10.0257 275.997 10.0257C272.198 10.0257 268.479 10.4265 264.881 11.1906C256.76 6.96233 247.593 4.55563 237.878 4.55563C227.871 4.55563 218.462 7.10686 210.18 11.5596C199.902 4.42241 187.551 0.179565 174.18 0.179565C160.72 0.179565 148.298 4.47804 137.982 11.6986C130.162 7.1797 121.142 4.55563 111.485 4.55563C97.7174 4.55563 85.3152 9.86661 75.7848 18.3706C70.2848 16.5085 64.4147 15.4958 58.3201 15.4958C25.2922 15.4958 0.6875 44.2797 0.6875 76.9915C0.6875 109.703 25.2922 138.487 58.3201 138.487C58.4097 138.487 58.4992 138.487 58.5887 138.487C69.432 149.2 84.0887 155.992 100.451 155.992Z" fill="#AF71FE"/>
<path d="M100.451 140.992C109.529 140.992 118.001 138.163 125.167 133.271C125.608 132.97 126.2 133.019 126.587 133.386C133.016 139.486 141.416 143.18 150.607 143.18C161.644 143.18 171.541 137.853 178.254 129.429C178.68 128.894 179.485 128.85 179.967 129.335C186.491 135.892 195.204 139.898 204.776 139.898C215.427 139.898 225.016 134.937 231.707 127.019C232.04 126.625 232.597 126.504 233.062 126.727C238.987 129.568 245.536 131.145 252.424 131.145C266.474 131.145 279.118 124.582 287.92 114.114C288.052 113.957 288.224 113.84 288.418 113.774C288.686 113.682 288.953 113.588 289.219 113.491C289.576 113.361 289.975 113.419 290.28 113.645C296.787 118.476 304.648 121.299 313.112 121.299C335.55 121.299 353.739 101.462 353.739 76.9915C353.739 52.5211 335.55 32.6838 313.112 32.6838C309.283 32.6838 305.577 33.2618 302.064 34.342C301.702 34.4534 301.308 34.3761 301.015 34.1356C294.05 28.4161 285.387 25.0257 275.997 25.0257C271.433 25.0257 267.041 25.8266 262.932 27.3066C262.859 27.3329 262.78 27.3373 262.705 27.3194C262.657 27.3082 262.612 27.2883 262.572 27.2608C255.411 22.3778 246.947 19.5556 237.878 19.5556C227.421 19.5556 217.767 23.3091 209.987 29.6481C209.541 30.0115 208.891 29.9815 208.481 29.5775C199.407 20.6292 187.377 15.1796 174.18 15.1796C160.74 15.1796 148.511 20.8319 139.381 30.0759C138.952 30.5107 138.251 30.5237 137.803 30.108C130.714 23.5271 121.525 19.5556 111.485 19.5556C98.8234 19.5556 87.5143 25.8732 80.0636 35.7758C79.7166 36.2369 79.0758 36.3639 78.5789 36.0707C72.5529 32.5147 65.6527 30.4958 58.3201 30.4958C34.7748 30.4958 15.6875 51.3127 15.6875 76.9915C15.6875 102.67 34.7748 123.487 58.3201 123.487C60.3059 123.487 62.26 123.339 64.1736 123.053C64.5715 122.993 64.972 123.15 65.2227 123.464C73.7748 134.202 86.386 140.992 100.451 140.992Z" fill="white"/>
<path fill-rule="evenodd" clip-rule="evenodd" d="M174.18 16.1796C161.03 16.1796 149.051 21.708 140.092 30.7786C139.281 31.6004 137.964 31.6217 137.123 30.8409C130.203 24.4176 121.252 20.5556 111.485 20.5556C99.1703 20.5556 88.145 26.6981 80.8626 36.377C80.2093 37.2454 79.0055 37.4836 78.0706 36.9319C72.1913 33.4625 65.4656 31.4958 58.3201 31.4958C35.4069 31.4958 16.6875 51.7815 16.6875 76.9915C16.6875 102.202 35.4069 122.487 58.3201 122.487C60.2561 122.487 62.1607 122.343 64.0255 122.064C64.7751 121.951 65.5308 122.246 66.0049 122.841C74.3872 133.366 86.7211 139.992 100.451 139.992C109.316 139.992 117.594 137.231 124.603 132.445C125.435 131.877 126.549 131.971 127.275 132.661C133.534 138.599 141.693 142.18 150.607 142.18C161.309 142.18 170.929 137.017 177.472 128.805C178.271 127.803 179.773 127.721 180.676 128.629C187.029 135.015 195.493 138.898 204.776 138.898C215.104 138.898 224.423 134.089 230.943 126.373C231.568 125.633 232.617 125.405 233.494 125.825C239.289 128.604 245.691 130.145 252.424 130.145C266.15 130.145 278.524 123.736 287.155 113.47C287.404 113.174 287.73 112.952 288.096 112.827C288.357 112.738 288.617 112.646 288.876 112.552C289.549 112.306 290.301 112.415 290.876 112.842C297.222 117.553 304.876 120.299 313.112 120.299C334.918 120.299 352.739 100.993 352.739 76.9915C352.739 52.9899 334.918 33.6838 313.112 33.6838C309.384 33.6838 305.777 34.2464 302.358 35.2978C301.676 35.5076 300.933 35.3623 300.38 34.9084C293.582 29.3252 285.139 26.0257 275.997 26.0257C271.551 26.0257 267.274 26.8057 263.271 28.2474C263.016 28.3395 262.739 28.3552 262.474 28.2924C262.308 28.253 262.15 28.1834 262.009 28.0871C255.004 23.3107 246.734 20.5556 237.878 20.5556C227.667 20.5556 218.233 24.2193 210.619 30.4233C209.778 31.1083 208.553 31.0528 207.779 30.2895C198.876 21.5097 187.092 16.1796 174.18 16.1796ZM138.669 29.3732C147.97 19.9559 160.45 14.1796 174.18 14.1796C187.662 14.1796 199.938 19.7486 209.183 28.8655C209.228 28.9102 209.304 28.9148 209.355 28.8729C217.301 22.3988 227.175 18.5556 237.878 18.5556C247.052 18.5556 255.618 21.3788 262.882 26.2631C267.014 24.8105 271.422 24.0257 275.997 24.0257C285.634 24.0257 294.519 27.507 301.649 33.3628C301.682 33.3898 301.728 33.3992 301.77 33.3862C305.376 32.2772 309.181 31.6838 313.112 31.6838C336.182 31.6838 354.739 52.0522 354.739 76.9915C354.739 101.931 336.182 122.299 313.112 122.299C304.419 122.299 296.353 119.398 289.684 114.448C289.649 114.422 289.603 114.415 289.562 114.431C289.29 114.53 289.016 114.627 288.74 114.72C288.719 114.728 288.7 114.741 288.686 114.758C279.713 125.429 266.798 132.145 252.424 132.145C245.381 132.145 238.684 130.532 232.629 127.629C232.577 127.604 232.511 127.617 232.471 127.664C225.609 135.785 215.75 140.898 204.776 140.898C194.916 140.898 185.953 136.769 179.258 130.04C179.23 130.011 179.191 129.995 179.144 129.998C179.098 130 179.061 130.02 179.036 130.052C172.153 138.689 161.98 144.18 150.607 144.18C141.139 144.18 132.498 140.373 125.899 134.112C125.852 134.067 125.78 134.063 125.731 134.097C118.408 139.096 109.741 141.992 100.451 141.992C86.0508 141.992 73.1624 135.038 64.4404 124.087C64.4133 124.053 64.368 124.035 64.3217 124.042C62.3593 124.335 60.3557 124.487 58.3201 124.487C34.1426 124.487 14.6875 103.139 14.6875 76.9915C14.6875 50.8438 34.1426 29.4958 58.3201 29.4958C65.8397 29.4958 72.9144 31.567 79.0871 35.2094C79.1461 35.2443 79.224 35.2284 79.2645 35.1745C86.8835 25.0482 98.4765 18.5556 111.485 18.5556C121.797 18.5556 131.224 22.6365 138.483 29.375C138.538 29.4257 138.622 29.4211 138.669 29.3732Z" fill="#333333"/>
<path d="M174.555 30.5175C174.12 30.5175 173.799 30.37 173.591 30.0749C173.386 29.7798 173.283 29.3666 173.283 28.8354C173.283 28.3042 173.386 27.8911 173.591 27.596C173.799 27.3009 174.12 27.1533 174.555 27.1533C174.99 27.1533 175.31 27.3009 175.515 27.596C175.723 27.8911 175.827 28.3042 175.827 28.8354C175.827 29.3666 175.723 29.7798 175.515 30.0749C175.31 30.37 174.99 30.5175 174.555 30.5175ZM174.555 29.9537C174.754 29.9537 174.891 29.8807 174.965 29.7347C175.043 29.5856 175.082 29.3791 175.082 29.115V28.5512C175.082 28.2903 175.043 28.0868 174.965 27.9408C174.891 27.7917 174.754 27.7171 174.555 27.7171C174.356 27.7171 174.218 27.7917 174.14 27.9408C174.066 28.0868 174.029 28.2903 174.029 28.5512V29.1197C174.029 29.3806 174.066 29.5856 174.14 29.7347C174.218 29.8807 174.356 29.9537 174.555 29.9537Z" fill="#333333"/>
<path d="M178.463 31.1896L179.493 28.1045L180.662 28.5687C180.809 28.6271 180.933 28.7029 181.032 28.7958C181.133 28.8859 181.208 28.9891 181.258 29.1055C181.31 29.223 181.336 29.3502 181.336 29.4871C181.336 29.624 181.311 29.7675 181.261 29.9178C181.211 30.0681 181.146 30.1956 181.065 30.3004C180.984 30.4051 180.889 30.4842 180.78 30.5376C180.673 30.5921 180.555 30.62 180.423 30.6213C180.293 30.6196 180.154 30.5896 180.007 30.5311L179.492 30.3266L179.117 31.4492L178.463 31.1896ZM179.67 29.7917L180.021 29.931C180.174 29.9917 180.289 30.0041 180.367 29.9681C180.447 29.9332 180.51 29.848 180.555 29.7125L180.599 29.5799C180.644 29.4443 180.647 29.3351 180.606 29.2521C180.568 29.1702 180.472 29.0989 180.319 29.0382L179.968 28.8989L179.67 29.7917Z" fill="#333333"/>
<path d="M183.556 33.1742L185.539 30.5965L186.467 31.4459C186.584 31.5528 186.673 31.6679 186.734 31.7912C186.798 31.912 186.833 32.0364 186.84 32.1645C186.849 32.2946 186.831 32.4248 186.785 32.5551C186.74 32.6854 186.669 32.8133 186.572 32.9389C186.475 33.0645 186.372 33.163 186.262 33.2346C186.153 33.3062 186.038 33.3483 185.919 33.361C185.802 33.3758 185.683 33.3609 185.561 33.3164C185.441 33.2695 185.322 33.1925 185.206 33.0856L184.796 32.7112L184.075 33.6493L183.556 33.1742ZM185.14 32.2644L185.419 32.5192C185.54 32.6303 185.643 32.6822 185.726 32.6749C185.812 32.6697 185.899 32.6105 185.986 32.4973L186.071 32.3865C186.159 32.2732 186.197 32.17 186.187 32.0767C186.179 31.9855 186.114 31.8843 185.993 31.7732L185.714 31.5184L185.14 32.2644Z" fill="#333333"/>
<path d="M187.447 38.6304C187.244 38.246 187.218 37.8833 187.37 37.5421C187.524 37.2036 187.826 36.8929 188.275 36.6098C188.725 36.3268 189.122 36.1973 189.468 36.2212C189.815 36.2479 190.09 36.4535 190.294 36.8378C190.497 37.2222 190.522 37.5836 190.368 37.922C190.216 38.2632 189.915 38.5753 189.466 38.8584C189.016 39.1414 188.618 39.2696 188.271 39.2429C187.925 39.2189 187.651 39.0148 187.447 38.6304ZM187.924 38.33C188.017 38.5057 188.143 38.5876 188.301 38.5757C188.464 38.5649 188.657 38.4891 188.88 38.3484L189.357 38.048C189.578 37.909 189.732 37.7662 189.819 37.6198C189.911 37.4745 189.91 37.3139 189.817 37.1382C189.724 36.9625 189.596 36.8801 189.434 36.8909C189.275 36.9028 189.085 36.9783 188.865 37.1173L188.384 37.4202C188.163 37.5592 188.007 37.7014 187.915 37.8468C187.828 37.9932 187.831 38.1543 187.924 38.33Z" fill="#333333"/>
<path d="M188.963 43.9114C188.92 43.6416 188.926 43.3985 188.982 43.1821C189.038 42.9658 189.133 42.7816 189.266 42.6296L189.77 42.9453C189.66 43.0865 189.586 43.232 189.548 43.3817C189.509 43.5345 189.502 43.683 189.525 43.8271C189.552 43.9927 189.609 44.1114 189.696 44.1832C189.783 44.2549 189.895 44.2776 190.033 44.2512C190.146 44.2295 190.225 44.1794 190.273 44.1008C190.32 44.0252 190.343 43.9069 190.343 43.7458L190.343 43.3995C190.345 43.1018 190.417 42.873 190.558 42.7132C190.702 42.5527 190.891 42.4499 191.126 42.4047C191.434 42.3454 191.688 42.4009 191.889 42.571C192.092 42.7406 192.224 43.0078 192.283 43.3727C192.323 43.6211 192.32 43.8446 192.273 44.0433C192.227 44.242 192.147 44.4106 192.034 44.5493L191.536 44.2419C191.617 44.1379 191.674 44.0226 191.707 43.8961C191.743 43.769 191.749 43.6319 191.725 43.4847C191.675 43.1749 191.523 43.0444 191.27 43.0931C191.16 43.1142 191.084 43.1638 191.04 43.2418C190.996 43.3229 190.973 43.4443 190.971 43.606L190.966 43.9532C190.962 44.2227 190.897 44.4423 190.77 44.6121C190.644 44.7819 190.454 44.8912 190.201 44.9399C190.051 44.9686 189.908 44.9692 189.772 44.9417C189.638 44.9136 189.516 44.8566 189.404 44.7705C189.296 44.6838 189.203 44.5688 189.127 44.4255C189.051 44.2852 188.996 44.1138 188.963 43.9114Z" fill="#333333"/>
<path d="M189.169 48.7532L189.677 48.8509L189.566 49.5409L191.744 49.9597L191.855 49.2697L192.363 49.3674L192.029 51.4373L191.521 51.3397L191.632 50.6497L189.454 50.2308L189.343 50.9208L188.835 50.8232L189.169 48.7532Z" fill="#333333"/>
<path d="M189.476 55.8622L189.5 55.8169L187.67 54.6649L187.95 54.1378L190.702 55.8708L190.309 56.6121L188.133 56.1148L188.109 56.1601L189.939 57.3121L189.66 57.8393L186.907 56.1063L187.3 55.365L189.476 55.8622Z" fill="#333333"/>
<path d="M184.022 60.6175L184.053 60.5892C184.032 60.5161 184.018 60.4414 184.01 60.3649C184.002 60.2883 184.004 60.2105 184.017 60.1312C184.032 60.0545 184.061 59.9777 184.104 59.9011C184.144 59.8265 184.201 59.7556 184.274 59.6885C184.391 59.5816 184.518 59.5157 184.655 59.4909C184.79 59.4682 184.932 59.4851 185.081 59.5418C185.23 59.5984 185.383 59.6933 185.54 59.8264C185.695 59.9616 185.851 60.1314 186.008 60.3358C186.345 60.774 186.529 61.177 186.558 61.5448C186.589 61.915 186.448 62.2427 186.137 62.5279C186.013 62.6411 185.89 62.7223 185.767 62.7713C185.647 62.8229 185.528 62.8458 185.41 62.8401C185.292 62.839 185.176 62.8129 185.063 62.7616C184.949 62.7104 184.837 62.6409 184.727 62.5532L185.111 61.9872C185.167 62.0288 185.223 62.0658 185.279 62.0983C185.335 62.1353 185.391 62.1609 185.449 62.1751C185.507 62.1894 185.565 62.1887 185.623 62.1731C185.684 62.16 185.744 62.1261 185.803 62.0716C185.934 61.9521 185.982 61.8093 185.948 61.6432C185.912 61.4793 185.813 61.2927 185.652 61.0834L185.328 60.6624C185.167 60.4531 185.01 60.3119 184.856 60.2388C184.7 60.1677 184.547 60.2004 184.398 60.3367C184.281 60.4436 184.222 60.5603 184.222 60.6866C184.222 60.8128 184.266 60.9338 184.355 61.0496L184.5 61.2379L184.909 60.8636L185.21 61.255L184.34 62.0509L183.28 60.6734L183.741 60.2519L184.022 60.6175Z" fill="#333333"/>
<path d="M173.789 65.8327V63.1534H174.488V65.8327H175.425V66.4058H172.852V65.8327H173.789Z" fill="#333333"/>
<path d="M168.303 63.2111L169.066 63.5136L169.496 62.223L170.15 62.4826L169.121 65.5677L168.467 65.3082L168.884 64.0573L168.122 63.7547L167.704 65.0056L167.05 64.746L168.08 61.6609L168.734 61.9205L168.303 63.2111Z" fill="#333333"/>
<path d="M164.134 59.6748C164.455 59.9684 164.602 60.3024 164.576 60.6768C164.547 61.0491 164.371 61.4458 164.047 61.8668C163.723 62.2878 163.395 62.5461 163.064 62.6415C162.731 62.7349 162.404 62.6348 162.083 62.3412C161.762 62.0476 161.616 61.7146 161.645 61.3423C161.671 60.9679 161.846 60.5702 162.17 60.1492C162.494 59.7282 162.823 59.471 163.156 59.3776C163.487 59.2822 163.813 59.3812 164.134 59.6748ZM163.79 60.1217C163.644 59.9875 163.498 59.9531 163.354 60.0184C163.206 60.0842 163.051 60.2217 162.89 60.431L162.547 60.8778C162.388 61.0846 162.292 61.2721 162.26 61.4403C162.224 61.6088 162.28 61.7601 162.427 61.8943C162.573 62.0286 162.721 62.0628 162.869 61.9971C163.013 61.9317 163.164 61.7956 163.324 61.5888L163.67 61.1382C163.829 60.9314 163.927 60.7437 163.963 60.5752C163.994 60.4071 163.937 60.2559 163.79 60.1217Z" fill="#333333"/>
<path d="M158.451 57.2445L160.194 56.1471C160.28 56.0925 160.359 56.0393 160.43 55.9874C160.496 55.9345 160.548 55.88 160.585 55.8238C160.62 55.7649 160.639 55.7003 160.64 55.6299C160.639 55.5612 160.614 55.4815 160.566 55.3909C160.518 55.3003 160.467 55.2372 160.413 55.2016C160.357 55.1677 160.297 55.1541 160.234 55.1608C160.169 55.1648 160.1 55.1864 160.026 55.2256C159.948 55.2637 159.866 55.3101 159.779 55.3647L158.037 56.4621L157.71 55.8444L159.373 54.7966C159.563 54.6774 159.736 54.5869 159.892 54.525C160.047 54.4603 160.192 54.4352 160.325 54.4498C160.459 54.4643 160.585 54.5226 160.702 54.6246C160.819 54.7265 160.933 54.8819 161.043 55.0905C161.154 55.2992 161.22 55.4843 161.243 55.6459C161.265 55.8074 161.249 55.9551 161.193 56.0888C161.138 56.2225 161.046 56.3478 160.919 56.4646C160.79 56.5787 160.631 56.6953 160.442 56.8145L158.778 57.8623L158.451 57.2445Z" fill="#333333"/>
<path d="M158.84 49.0835L158.847 49.1249C158.919 49.1396 158.988 49.161 159.056 49.1891C159.123 49.2173 159.186 49.2558 159.244 49.3046C159.299 49.3541 159.347 49.4161 159.388 49.4905C159.427 49.5619 159.455 49.6467 159.471 49.7448C159.496 49.9012 159.482 50.0478 159.429 50.1845C159.375 50.3182 159.285 50.4399 159.158 50.5497C159.031 50.6595 158.87 50.7552 158.676 50.8368C158.481 50.9154 158.257 50.9791 158.004 51.0277C157.461 51.1322 157.03 51.1123 156.711 50.9681C156.389 50.8245 156.194 50.5442 156.127 50.1271C156.1 49.9615 156.099 49.8115 156.124 49.6769C156.147 49.543 156.192 49.4236 156.26 49.3189C156.324 49.2116 156.408 49.118 156.512 49.038C156.615 48.9581 156.733 48.888 156.865 48.8279L157.124 49.4419C157.06 49.4732 157 49.507 156.943 49.5433C156.882 49.5771 156.83 49.6171 156.788 49.6633C156.745 49.7094 156.714 49.7628 156.695 49.8232C156.674 49.8843 156.67 49.9547 156.682 50.0344C156.711 50.2092 156.802 50.3196 156.958 50.3657C157.112 50.4086 157.32 50.4052 157.579 50.3553L158.1 50.255C158.36 50.2051 158.561 50.1269 158.704 50.0203C158.847 49.9107 158.902 49.7562 158.87 49.5569C158.845 49.4005 158.78 49.2927 158.676 49.2337C158.572 49.1746 158.449 49.1589 158.305 49.1864L158.072 49.2313L158.16 49.7787L157.675 49.872L157.487 48.7082L159.194 48.38L159.293 48.9964L158.84 49.0835Z" fill="#333333"/>
<path d="M158.129 43.2879L157.998 44.0975L159.334 44.3544L159.221 45.049L156.028 44.4348L156.14 43.7402L157.435 43.9892L157.566 43.1796L156.271 42.9306L156.383 42.236L159.577 42.8502L159.465 43.5448L158.129 43.2879Z" fill="#333333"/>
<path d="M158.893 36.7396L161.161 38.1672L160.834 38.7849L158.566 37.3573L158.128 38.185L157.643 37.8797L158.846 35.6064L159.331 35.9118L158.893 36.7396Z" fill="#333333"/>
<path d="M164.198 33.8654C163.996 34.0499 163.793 34.1747 163.589 34.2396C163.386 34.3045 163.19 34.3174 163.004 34.2781L163.03 33.6499C163.197 33.6737 163.351 33.6629 163.492 33.6178C163.635 33.5706 163.761 33.4977 163.868 33.3991C163.992 33.2859 164.063 33.1703 164.082 33.0525C164.101 32.9347 164.067 32.8204 163.982 32.7096C163.912 32.6185 163.834 32.5727 163.747 32.572C163.663 32.5693 163.555 32.6116 163.423 32.6988L163.138 32.8841C162.892 33.0419 162.671 33.0995 162.475 33.0571C162.276 33.0123 162.104 32.895 161.958 32.7055C161.767 32.4568 161.695 32.1956 161.742 31.9217C161.787 31.6454 161.946 31.3825 162.218 31.133C162.404 30.9631 162.589 30.846 162.774 30.7817C162.959 30.7175 163.135 30.6995 163.301 30.7277L163.279 31.346C163.156 31.3284 163.035 31.3385 162.915 31.3763C162.794 31.4117 162.679 31.4797 162.569 31.5804C162.337 31.7922 162.3 32.0003 162.457 32.2046C162.525 32.2932 162.602 32.3366 162.686 32.3348C162.773 32.3309 162.883 32.2865 163.017 32.2018L163.305 32.0201C163.528 31.8788 163.739 31.8202 163.937 31.8444C164.136 31.8686 164.313 31.9828 164.471 32.1872C164.563 32.3078 164.63 32.4377 164.671 32.5767C164.709 32.7133 164.719 32.8554 164.7 33.003C164.679 33.1482 164.627 33.2941 164.545 33.4409C164.465 33.5855 164.349 33.727 164.198 33.8654Z" fill="#333333"/>
<path d="M180.088 63.5823C180.088 63.8986 179.853 64.155 179.563 64.155C179.273 64.155 179.038 63.8986 179.038 63.5823C179.038 63.266 179.273 63.0096 179.563 63.0096C179.853 63.0096 180.088 63.266 180.088 63.5823Z" fill="#333333"/>
<path d="M169.025 29.9342C169.025 30.2505 168.79 30.5069 168.499 30.5069C168.209 30.5069 167.974 30.2505 167.974 29.9342C167.974 29.6179 168.209 29.3615 168.499 29.3615C168.79 29.3615 169.025 29.6179 169.025 29.9342Z" fill="#333333"/>
<path d="M29.7652 72.0022C29.5718 70.0924 30.1599 67.7272 31.1526 65.7878C31.646 64.8238 32.2234 63.997 32.8207 63.4014C33.4265 62.7973 33.9964 62.4857 34.4766 62.4279C34.5688 62.4168 34.7274 62.4197 35.0294 62.4458C35.1641 62.4575 35.3155 62.4725 35.4913 62.4899L35.5287 62.4936C35.7191 62.5125 35.934 62.5337 36.1743 62.555L36.1916 62.5565L36.209 62.5571C37.1669 62.5928 38.5432 62.6307 40.5444 62.3898L52.5415 60.9451C54.6943 60.6859 55.6951 60.3605 56.4426 60.1157L56.469 60.1071L56.4946 60.0963C56.5686 60.0653 56.638 60.0358 56.7041 60.0078C57.2346 59.7825 57.5471 59.6498 58.2756 59.5621C58.5543 59.5285 59.0371 59.623 59.6663 59.9538C60.2766 60.2746 60.9564 60.7827 61.6067 61.4638C62.9073 62.8259 64.0457 64.8326 64.2955 67.3C64.408 68.4112 64.2041 69.2796 63.7742 69.8859C63.3539 70.4785 62.6509 70.9152 61.5609 71.0464C59.8426 71.2533 58.8549 70.2387 57.8927 68.9144C57.7796 68.7587 57.6643 68.5947 57.5471 68.4279C57.1972 67.9301 56.8297 67.4072 56.4505 67.0078C55.9246 66.4538 55.2289 65.9718 54.2958 66.0842C53.6442 66.1626 53.1475 66.4593 52.806 66.8925C52.481 67.3047 52.3319 67.7946 52.2629 68.2248C52.1427 68.9746 52.2425 69.7452 52.2765 70.0074C52.2808 70.0408 52.2841 70.0659 52.2857 70.0818L53.8046 85.0852C53.96 86.6203 54.3636 87.6536 54.9669 88.3533C55.5756 89.0593 56.3173 89.3421 56.9518 89.5176C57.109 89.5611 57.2639 89.599 57.4066 89.6338L57.4278 89.639C57.5652 89.6724 57.6902 89.7029 57.8104 89.7356C58.0654 89.8049 58.2575 89.8738 58.4094 89.9612C58.5518 90.0432 58.6586 90.1413 58.7415 90.279C58.8276 90.4218 58.9086 90.6419 58.9444 90.9959C58.9756 91.3039 58.9584 91.6028 58.8316 91.9022C58.7058 92.199 58.4455 92.5595 57.8848 92.9448C56.7319 93.7372 54.4156 94.5626 49.8792 95.1089L49.7007 95.1305C48.3694 95.2919 45.6686 95.6192 43.2162 95.4945C41.9268 95.429 40.7702 95.2406 39.9338 94.8762C39.1087 94.5167 38.7102 94.0455 38.6489 93.4398C38.5984 92.9409 38.7127 92.6879 38.8465 92.522C39.0085 92.3213 39.2724 92.1551 39.6867 91.9571C39.7731 91.9158 39.869 91.872 39.971 91.8254C40.3028 91.6739 40.6995 91.4928 41.0423 91.2733C41.5219 90.9661 41.9879 90.5347 42.2555 89.8635L42.2606 89.8507L42.2652 89.8377C42.3904 89.4838 42.4621 89.0268 42.5067 88.5642C42.5524 88.0895 42.5738 87.5593 42.5806 87.0344C42.594 85.9844 42.549 84.9207 42.5109 84.2961L42.5107 84.2935L41.8075 73.4473C41.6454 70.8723 41.3077 69.4623 40.8227 68.7094C40.5581 68.2986 40.2289 68.0492 39.8469 67.9466C39.5259 67.8603 39.2208 67.8986 39.0633 67.9183L39.0313 67.9223C38.1689 68.0262 37.5732 68.6715 37.1365 69.2983C36.819 69.754 36.5081 70.32 36.2028 70.8757C36.0845 71.091 35.9671 71.3048 35.8505 71.51C34.9553 73.0849 33.9978 74.3655 32.3973 74.5582C31.0128 74.725 29.9215 73.5466 29.7652 72.0022Z" fill="#333333"/>
<path d="M68.0066 76.5393C68.0995 76.0009 68.4504 75.6038 69.1074 75.3112C69.7845 75.0097 70.7133 74.8593 71.766 74.8241C73.8612 74.754 76.2035 75.1451 77.3871 75.3878C78.2745 75.5697 79.8903 75.9575 81.2143 76.5977C81.8788 76.919 82.4182 77.2797 82.7602 77.6676C83.0875 78.0387 83.2087 78.3994 83.1406 78.7938C83.05 79.3196 82.8643 79.5797 82.6403 79.7616C82.3776 79.9748 82.0175 80.1214 81.4586 80.3275C81.1457 80.4302 80.8221 80.559 80.5265 80.7827C80.2171 81.0169 79.9803 81.3222 79.7849 81.72C79.4175 82.468 79.153 83.6452 78.8256 85.544C78.7147 86.187 78.6937 86.7424 78.809 87.2138C78.9322 87.7179 79.2034 88.0923 79.5924 88.3556C79.9501 88.5977 80.3792 88.7257 80.7888 88.8199C81.0229 88.8737 81.3016 88.9264 81.5874 88.9804C81.7823 89.0173 81.9806 89.0547 82.17 89.0936L84.3563 89.5419C85.073 89.6889 85.6447 89.7784 86.0994 89.7995C86.5437 89.8202 86.9656 89.7815 87.3195 89.5887C87.7093 89.3764 87.904 89.0419 88.0134 88.7217C88.0995 88.4699 88.1506 88.1683 88.1969 87.8947L88.2159 87.7828C88.6232 85.4204 88.6758 84.034 88.5233 83.1586C88.4443 82.705 88.3065 82.3637 88.1161 82.0914C87.9469 81.8492 87.7527 81.691 87.6357 81.5957L87.6128 81.577L87.5243 81.4997C87.178 81.1973 86.9332 80.9835 86.766 80.7386C86.6158 80.5185 86.5357 80.28 86.6002 79.9058L86.6065 79.8692C86.6424 79.6598 86.6731 79.4805 86.7776 79.292C86.8769 79.1129 87.0693 78.8849 87.5107 78.6936C88.4498 78.2867 90.4622 78.069 94.7061 78.9393C95.7184 79.1469 97.5743 79.5409 99.1054 80.237C99.873 80.5859 100.502 80.9863 100.904 81.431C101.288 81.8559 101.445 82.2934 101.358 82.7975C101.297 83.1537 101.166 83.3959 100.993 83.5719C100.818 83.7498 100.563 83.8992 100.191 84.0035C100.151 84.0119 100.109 84.0204 100.064 84.0293C99.7987 84.0824 99.4577 84.1507 99.1593 84.3001C98.7453 84.5074 98.4297 84.8435 98.1638 85.3579C97.909 85.8509 97.6836 86.5388 97.4502 87.501C97.2148 88.4711 96.962 89.7604 96.6656 91.4794L94.7325 102.692C94.6194 103.348 94.5521 103.97 94.7111 104.567C94.8776 105.193 95.263 105.696 95.8477 106.19L95.8499 106.192L95.9836 106.304C96.3304 106.593 96.5285 106.759 96.6576 106.948C96.7573 107.094 96.8275 107.274 96.7606 107.662C96.7171 107.914 96.6713 108.124 96.5485 108.32C96.4362 108.5 96.2243 108.72 95.7536 108.896C94.7553 109.271 92.6963 109.412 88.4907 108.55C87.5433 108.356 85.7728 107.979 84.3083 107.314C83.5739 106.98 82.9728 106.598 82.5898 106.175C82.2245 105.772 82.0783 105.362 82.1594 104.892L82.1624 104.874L82.1645 104.857C82.2528 104.118 82.4323 103.996 82.5071 103.949C82.5846 103.899 82.687 103.859 82.8878 103.792L82.9355 103.776C83.1141 103.717 83.3524 103.638 83.5998 103.515C84.792 102.922 85.8505 101.503 86.61 97.0977C86.7124 96.5038 86.7674 95.9964 86.7337 95.5713C86.6984 95.1258 86.5611 94.7192 86.2389 94.3963C85.9394 94.0962 85.5484 93.9402 85.171 93.8308C84.8459 93.7365 84.4511 93.6562 84.019 93.5684L83.8023 93.5242C82.3103 93.2182 81.1837 92.9977 80.3395 92.908C79.5224 92.8212 78.8086 92.8338 78.2532 93.1527C77.652 93.4978 77.4069 94.0949 77.2566 94.6959C77.1578 95.0911 77.0783 95.5909 76.9884 96.1567C76.9451 96.4289 76.8994 96.7165 76.8479 97.0151C76.5859 98.5348 76.5747 99.6195 76.7333 100.436C76.8972 101.279 77.2364 101.803 77.5992 102.2C77.7239 102.336 77.8595 102.464 77.968 102.567C78.0015 102.599 78.0327 102.628 78.0599 102.655C78.1893 102.78 78.2705 102.869 78.3284 102.959C78.4152 103.093 78.5129 103.319 78.4128 103.899C78.3313 104.372 78.0381 104.71 77.4897 104.957C76.9164 105.216 76.1233 105.343 75.2129 105.365C73.4015 105.41 71.3797 105.041 70.3573 104.832C69.3791 104.631 67.4689 104.194 65.8788 103.462C65.0805 103.095 64.4164 102.678 63.9881 102.222C63.5743 101.781 63.4185 101.351 63.4984 100.887C63.5611 100.526 63.6984 100.35 63.8559 100.228C64.0481 100.08 64.3105 99.9787 64.7055 99.849C64.7463 99.8357 64.7884 99.8221 64.8318 99.8081C65.5503 99.5764 66.6072 99.2356 67.1164 98.0183C67.674 96.7692 68.1973 94.4842 68.941 90.1703C69.9233 84.4726 70.3514 81.751 70.3342 80.317C70.3252 79.5715 70.1984 79.0415 69.8646 78.6123C69.7102 78.4136 69.5328 78.2653 69.3771 78.1443C69.3121 78.0937 69.2545 78.0504 69.1989 78.0086C69.1049 77.9379 69.0165 77.8715 68.9079 77.7817L68.8834 77.7617C68.5807 77.5144 68.3397 77.3175 68.1728 77.0975C68.0224 76.8991 67.973 76.7344 68.0066 76.5393Z" fill="#333333"/>
<path fill-rule="evenodd" clip-rule="evenodd" d="M102.856 79.9085C102.856 70.1658 110.605 63.2226 120.742 63.2226C127.134 63.2226 131.526 66.0256 134.337 69.5675C137.168 73.135 138.387 77.4475 138.387 80.3883C138.387 90.23 129.681 96.8343 120.166 96.8343C110.397 96.8343 102.856 89.7294 102.856 79.9085ZM118.534 69.0045C116.918 69.0045 115.717 69.8538 114.946 70.9896C114.186 72.1089 113.82 73.5311 113.82 74.8224C113.82 76.9649 114.563 80.9389 115.957 84.3816C116.656 86.1063 117.536 87.7449 118.605 88.9639C119.672 90.1812 120.996 91.0524 122.565 91.0524C124.258 91.0524 125.507 90.3023 126.308 89.1677C127.09 88.0608 127.423 86.6265 127.423 85.2345C127.423 82.9595 126.757 78.9862 125.376 75.5679C124.685 73.8568 123.797 72.2394 122.687 71.0391C121.572 69.8335 120.188 69.0045 118.534 69.0045Z" fill="#333333"/>
<path fill-rule="evenodd" clip-rule="evenodd" d="M163.27 83.5535C163.347 83.1346 163.582 82.864 163.987 82.6759C164.421 82.4739 165.029 82.3832 165.749 82.3856C167.107 82.3902 168.616 82.7199 169.535 82.9208L169.687 82.9539C170.511 83.133 172.025 83.4647 173.271 84.0415C173.897 84.331 174.394 84.6555 174.704 85.0035C174.992 85.3281 175.1 85.647 175.032 86.0203C174.956 86.4389 174.8 86.5852 174.627 86.6832C174.517 86.7456 174.378 86.798 174.19 86.8527C174.096 86.8799 173.999 86.9055 173.889 86.9339L173.876 86.9373C173.774 86.9641 173.661 86.9935 173.547 87.0259C173.068 87.1625 172.49 87.374 171.988 87.8794C171.484 88.3868 171.12 89.1255 170.923 90.2002L168.792 101.865C168.615 102.831 168.087 105.722 165.878 107.997C163.708 110.232 159.785 111.996 152.537 110.421C148.397 109.521 145.612 108.079 143.749 106.458C141.891 104.842 140.916 103.018 140.436 101.289C139.567 98.1635 140.298 95.362 140.512 94.5397C140.538 94.4399 140.557 94.3693 140.564 94.3307L142.383 84.3769C142.576 83.584 142.512 82.9043 142.29 82.3052C142.073 81.7213 141.718 81.2522 141.411 80.8721L141.29 80.7228C140.688 79.9812 140.397 79.6235 140.501 79.0532C140.511 79.0019 140.518 78.9558 140.525 78.9131C140.548 78.7693 140.564 78.6644 140.634 78.5287C140.709 78.3841 140.871 78.1738 141.296 77.9959C142.205 77.6148 144.227 77.4198 148.627 78.3761C152.11 79.1332 154.033 79.8913 155.04 80.605C155.531 80.9528 155.764 81.263 155.875 81.5205C155.983 81.7728 156.003 82.0425 155.944 82.365C155.823 83.0245 155.631 83.1644 155.526 83.2206C155.446 83.2634 155.338 83.2966 155.165 83.326C155.078 83.3407 154.987 83.3528 154.879 83.3672C154.775 83.381 154.656 83.3968 154.534 83.4176C154.024 83.5045 153.413 83.6851 152.86 84.277C152.329 84.8458 151.909 85.7319 151.602 87.0941L151.599 87.1077L150.144 95.0664C149.663 97.7021 149.74 100.078 150.611 101.958C151.502 103.882 153.174 105.179 155.628 105.712C157.415 106.1 158.856 106.025 160.012 105.645C161.171 105.263 162.003 104.589 162.592 103.85C163.681 102.484 163.945 100.888 164.006 100.517C164.01 100.493 164.013 100.474 164.016 100.461L165.981 89.7095C166.208 88.4663 166.124 87.5145 165.805 86.7535C165.486 85.9901 164.967 85.5075 164.503 85.1502C164.371 85.0476 164.216 84.9365 164.08 84.8386C164.002 84.7825 163.93 84.7308 163.872 84.6875C163.684 84.5483 163.548 84.4349 163.448 84.3234C163.354 84.2185 163.302 84.1255 163.273 84.0277C163.245 83.9288 163.229 83.7816 163.27 83.5535Z" fill="#333333"/>
<path d="M176.273 89.8797C176.273 79.1707 185.357 71.4747 196.37 71.4747C198.622 71.4747 200.361 71.8196 201.712 72.167C202.127 72.2738 202.475 72.3719 202.802 72.4644C203.038 72.531 203.264 72.5946 203.496 72.6564C204 72.7901 204.494 72.9024 204.936 72.9024C205.527 72.9024 206.201 72.6725 206.734 72.4903L206.796 72.4693C207.417 72.2577 207.877 72.1093 208.214 72.1093C209.451 72.1093 210.585 73.1442 211.458 74.7811C212.31 76.3797 212.765 78.2926 212.765 79.5158C212.765 80.7077 212.459 81.87 211.871 82.7135C211.298 83.5333 210.455 84.0669 209.272 84.0669C207.194 84.0669 206.1 82.7626 204.652 81.0356C204.542 80.9041 204.43 80.7702 204.315 80.6342C203.532 79.708 202.637 78.7194 201.45 77.9707C200.247 77.2123 198.772 76.7169 196.846 76.7169C194.338 76.7169 192.251 77.7628 190.805 79.579C189.371 81.3809 188.6 83.8964 188.6 86.8129C188.6 97.9819 195.158 102.302 199.014 102.302C201.249 102.302 202.923 100.614 202.923 98.3401C202.923 97.724 202.826 97.2004 202.616 96.7672C202.399 96.3221 202.081 96.0096 201.706 95.7996C201.344 95.5969 200.949 95.5001 200.584 95.4453C200.26 95.3967 199.919 95.376 199.613 95.3575L199.505 95.3509C198.776 95.3057 198.277 95.2443 197.937 95.0146C197.673 94.8364 197.371 94.4551 197.371 93.3697C197.371 92.6842 197.709 92.1304 198.376 91.6522C199.061 91.1604 200.043 90.7913 201.173 90.5255C203.425 89.996 206.029 89.929 207.368 89.929C212.307 89.929 214.771 90.6313 215.988 91.4133C216.578 91.7928 216.867 92.1861 217.019 92.5314C217.174 92.8857 217.207 93.2404 217.207 93.5812C217.207 94.5075 216.415 95.2605 215.362 95.4422C214.691 95.5204 214.089 95.6396 213.66 96.0915C213.45 96.313 213.32 96.5739 213.22 96.8366C213.123 97.0945 213.038 97.4025 212.948 97.7394L212.947 97.7407C210.993 105.056 203.904 108.655 196.581 108.655C185.668 108.655 176.273 101.112 176.273 89.8797Z" fill="#333333"/>
<path d="M243.727 59.3126C244.758 59.2294 246.648 59.0902 248.294 59.3326C249.12 59.4542 249.819 59.6635 250.306 59.9753C250.767 60.2701 251.017 60.6371 251.052 61.1437C251.076 61.5038 251.007 61.7795 250.876 62.0061C250.744 62.235 250.524 62.4559 250.184 62.6632C250.147 62.6828 250.107 62.7033 250.065 62.7246C249.82 62.8505 249.511 63.0091 249.261 63.2325C248.918 63.5402 248.695 63.9436 248.559 64.5102C248.308 65.5607 248.317 67.3864 248.551 70.8277L249.321 82.1794C249.366 82.8415 249.447 83.464 249.745 84.0014C250.06 84.5678 250.561 84.9502 251.248 85.2653L251.251 85.2665L251.405 85.3361C251.812 85.5196 252.037 85.621 252.202 85.763C252.322 85.8664 252.432 86.011 252.458 86.404C252.476 86.658 252.481 86.8761 252.407 87.1045C252.338 87.3169 252.178 87.5964 251.756 87.9037C250.869 88.5505 248.901 89.2624 244.625 89.6074C243.66 89.6853 241.856 89.8176 240.282 89.5858C239.492 89.4695 238.825 89.2698 238.361 88.9741C237.923 88.6952 237.69 88.3516 237.658 87.8792L237.657 87.8615L237.655 87.8439C237.567 87.1113 237.709 86.9326 237.783 86.8511C237.851 86.7768 237.945 86.7067 238.123 86.5864L238.165 86.5579C238.325 86.4509 238.535 86.3098 238.743 86.124C239.741 85.2341 240.437 83.5859 240.134 79.1191C240.093 78.5184 240.027 78.0126 239.893 77.61C239.753 77.1873 239.519 76.8233 239.119 76.595C238.749 76.3845 238.327 76.3443 237.937 76.3443C237.6 76.3444 237.198 76.3775 236.758 76.4137L236.538 76.4317C235.02 76.5542 233.876 76.6569 233.037 76.8065C232.222 76.952 231.542 77.1636 231.089 77.6164C230.601 78.1041 230.503 78.7352 230.499 79.3604C230.496 79.7689 230.537 80.2729 230.583 80.8435C230.606 81.1182 230.629 81.4083 230.65 81.7106C230.754 83.2485 230.999 84.2997 231.347 85.0463C231.708 85.8201 232.166 86.237 232.617 86.5216C232.772 86.6189 232.935 86.7059 233.065 86.7748C233.093 86.7895 233.119 86.8034 233.143 86.8163C233.153 86.822 233.164 86.8275 233.173 86.8328C233.328 86.917 233.424 86.9787 233.497 87.0453C233.602 87.1405 233.75 87.3213 233.79 87.9105C233.822 88.394 233.613 88.8138 233.129 89.2149C232.629 89.6299 231.885 89.9751 231.008 90.2516C229.261 90.8023 227.214 91.0124 226.174 91.0963C225.178 91.1767 223.225 91.2893 221.513 91.0297C220.653 90.8993 219.916 90.6833 219.4 90.3672C218.906 90.0646 218.66 89.7044 218.628 89.2392C218.602 88.851 218.696 88.6643 218.808 88.5295C218.958 88.3487 219.179 88.2082 219.558 87.9681C219.904 87.7489 220.351 87.4616 220.726 87.0136C221.114 86.5506 221.4 85.9507 221.51 85.133C221.697 83.7448 221.651 81.4375 221.376 77.3841C220.985 71.6162 220.758 68.8715 220.403 67.4924C220.219 66.7762 219.969 66.2905 219.532 65.9613C219.331 65.8096 219.121 65.7147 218.941 65.6413C218.865 65.6103 218.798 65.5845 218.734 65.5597C218.627 65.5181 218.527 65.4793 218.401 65.4235L218.376 65.4126C218.022 65.2574 217.745 65.1367 217.536 64.9745C217.353 64.8326 217.27 64.6968 217.257 64.5029C217.22 63.9523 217.471 63.459 218.049 62.9846C218.64 62.4996 219.51 62.0933 220.522 61.7647C222.538 61.1102 224.901 60.8318 226.105 60.7346C227.009 60.6617 228.665 60.5837 230.097 60.83C230.816 60.9538 231.418 61.1498 231.834 61.4236C232.228 61.6825 232.425 61.9858 232.452 62.3812C232.488 62.9131 232.37 63.2235 232.188 63.4719C231.979 63.7581 231.658 64.0043 231.166 64.3587C230.888 64.5447 230.609 64.7564 230.38 65.0491C230.14 65.3548 229.984 65.7095 229.889 66.145C229.71 66.966 229.731 68.1735 229.862 70.097C229.906 70.7468 230.016 71.2912 230.242 71.7187C230.485 72.179 230.845 72.4716 231.293 72.6196C231.702 72.7546 232.151 72.7575 232.569 72.7338C232.808 72.7202 233.091 72.693 233.381 72.6651C233.578 72.646 233.779 72.6267 233.972 72.6111L236.196 72.4316C236.926 72.3727 237.501 72.2991 237.946 72.1924C238.382 72.0878 238.774 71.9337 239.063 71.6567C239.38 71.3537 239.489 70.9879 239.519 70.6493C239.543 70.3833 239.521 70.0787 239.502 69.8017L239.494 69.6884C239.332 67.2979 239.056 65.9442 238.7 65.1389C238.515 64.7206 238.298 64.4246 238.043 64.2099C237.817 64.0197 237.586 63.9192 237.451 63.8602L237.424 63.8488L237.323 63.8002C236.914 63.6044 236.631 63.4692 236.416 63.2837C236.228 63.1221 236.096 62.9233 236.071 62.5457L236.068 62.5074C236.054 62.2971 236.041 62.1138 236.099 61.8995C236.155 61.6919 236.293 61.4099 236.683 61.0958C237.506 60.4331 239.412 59.6608 243.727 59.3126Z" fill="#333333"/>
<path d="M253.624 77.1054C254.217 75.4242 255.627 73.7201 257.203 72.5583C257.986 71.9812 258.782 71.5586 259.502 71.3383C260.233 71.1146 260.813 71.1206 261.216 71.2897C261.292 71.3213 261.417 71.3948 261.655 71.5572C261.76 71.6294 261.878 71.7122 262.016 71.8085L262.045 71.8291C262.194 71.9334 262.362 72.0511 262.551 72.1808L262.565 72.1908L262.58 72.2C263.353 72.6756 264.469 73.3484 266.21 74.0776L276.623 78.4413C278.495 79.2258 279.447 79.4187 280.159 79.5612L280.186 79.5665L280.213 79.5697C280.287 79.5781 280.355 79.5856 280.421 79.5928C280.944 79.6503 281.247 79.6836 281.874 79.9461C282.103 80.0425 282.456 80.3374 282.839 80.9038C283.21 81.452 283.565 82.1895 283.828 83.0588C284.354 84.7975 284.495 86.9991 283.728 89.174C283.384 90.1514 282.879 90.7745 282.299 91.0769C281.733 91.3718 280.998 91.4129 280.061 91.0204C278.594 90.4057 278.188 89.1202 277.922 87.5637C277.891 87.3824 277.862 87.1925 277.832 86.9989C277.741 86.4179 277.645 85.8034 277.491 85.2886C277.277 84.5739 276.89 83.8295 276.061 83.4822C275.485 83.2407 274.948 83.2585 274.486 83.4681C274.047 83.667 273.726 84.0153 273.497 84.3475C273.097 84.9268 272.873 85.6273 272.798 85.8611C272.788 85.8904 272.781 85.9124 272.776 85.9259L268.094 99.2155C267.613 100.58 267.534 101.644 267.755 102.524C267.979 103.412 268.483 104.001 268.937 104.446C269.049 104.556 269.162 104.66 269.265 104.755L269.28 104.769C269.38 104.862 269.47 104.945 269.555 105.028C269.736 105.203 269.863 105.347 269.95 105.486C270.031 105.616 270.077 105.74 270.09 105.886C270.103 106.037 270.084 106.253 269.976 106.562C269.881 106.83 269.752 107.065 269.537 107.251C269.324 107.435 268.977 107.614 268.371 107.676C267.124 107.803 264.906 107.423 260.97 105.773L260.815 105.709C259.659 105.225 257.317 104.246 255.358 103.004C254.327 102.351 253.458 101.659 252.921 100.971C252.392 100.293 252.261 99.7298 252.442 99.2142C252.595 98.7815 252.781 98.6326 252.944 98.5611C253.146 98.4723 253.42 98.4548 253.837 98.4812C253.923 98.4866 254.018 98.4944 254.12 98.5027C254.452 98.5299 254.854 98.5627 255.225 98.5376C255.746 98.5025 256.309 98.3551 256.802 97.9085L256.812 97.8995L256.822 97.8901C257.068 97.6475 257.31 97.2937 257.53 96.9257C257.756 96.5473 257.983 96.1113 258.197 95.6737C258.623 94.7979 259.007 93.8838 259.223 93.3416L259.224 93.3391L262.932 83.9155C263.817 81.6808 264.101 80.3312 263.999 79.4614C263.944 78.9847 263.768 78.6115 263.486 78.3389C263.25 78.1109 262.977 77.9982 262.84 77.9417L262.812 77.93C262.044 77.6084 261.285 77.8812 260.678 78.205C260.235 78.4408 259.753 78.7733 259.282 79.098C259.1 79.2233 258.92 79.3474 258.745 79.4644C257.388 80.3697 256.114 80.9854 254.747 80.4128C253.577 79.9224 253.147 78.4601 253.624 77.1054Z" fill="#333333"/>
<path d="M287.375 64.5889C287.375 60.1437 291.702 54.3481 300.476 54.3481C301.889 54.3481 303.417 54.6591 304.711 54.9839C305.159 55.0963 305.566 55.2073 305.933 55.3069C306.096 55.3513 306.252 55.3937 306.399 55.4328C306.632 55.4947 306.846 55.5495 307.028 55.589C307.196 55.6254 307.388 55.6609 307.556 55.6609C307.832 55.6609 308.081 55.5921 308.287 55.5172C308.448 55.4585 308.616 55.3827 308.762 55.3172C308.796 55.3021 308.828 55.2874 308.859 55.2738C309.217 55.1148 309.514 55.0045 309.853 55.0045C310.034 55.0045 310.41 55.1271 310.933 55.5022C311.431 55.8588 311.98 56.3853 312.491 57.0392C313.519 58.3553 314.327 60.0982 314.327 61.8695C314.327 63.2414 313.463 64.374 312.244 64.374C311.664 64.374 311.102 64.1302 310.468 63.6695C309.967 63.3048 309.477 62.8497 308.93 62.3399C308.77 62.1913 308.605 62.0379 308.434 61.8809C306.962 60.533 305.116 59.0289 302.398 59.0289C301.584 59.0289 300.69 59.2104 299.976 59.6811C299.231 60.1725 298.714 60.9653 298.714 62.057C298.714 63.2349 299.249 64.0647 300.092 64.6596C300.884 65.2184 301.961 65.5811 303.097 65.9133C303.433 66.0115 303.779 66.1085 304.134 66.2078C306.246 66.8 308.646 67.4726 310.882 68.9563L310.883 68.957C312.273 69.8768 313.277 70.8713 313.937 72.0209C314.595 73.1666 314.936 74.5103 314.936 76.1698C314.936 78.7251 313.889 81.4564 311.548 83.5552C309.208 85.6524 305.527 87.1608 300.195 87.1608C298.696 87.1608 296.64 86.9667 294.629 86.5921C292.608 86.2157 290.701 85.6695 289.46 84.9957C289.039 84.7575 288.626 84.3167 288.243 83.6909C287.862 83.0691 287.536 82.3077 287.271 81.4916C286.74 79.8533 286.484 78.0841 286.484 76.9669C286.484 76.4204 286.608 75.9334 286.826 75.6055C287.024 75.3093 287.309 75.1188 287.77 75.1188C288.29 75.1188 288.703 75.3862 289.204 76.0228C289.456 76.3427 289.704 76.7232 289.988 77.1639L290.045 77.2525C290.308 77.6617 290.598 78.1125 290.926 78.5644C291.635 79.5397 292.544 80.5533 293.87 81.3175C295.2 82.084 296.903 82.5737 299.163 82.5737C299.758 82.5737 300.76 82.4308 301.638 82.0319C302.503 81.6386 303.457 80.8861 303.457 79.5925C303.457 78.4685 302.894 77.6959 302.071 77.1406C301.294 76.6171 300.234 76.2498 299.122 75.8887C298.956 75.8346 298.786 75.7803 298.615 75.7252C296.433 75.0238 293.878 74.2025 291.573 72.3543C289.099 70.3751 287.375 67.6932 287.375 64.5889Z" fill="#333333"/>
<path d="M319.598 69.4467C320.971 65.4188 326.734 61.8858 334.355 64.9743C336.868 65.9927 339.583 68.0681 341.405 70.6179C343.225 73.1643 344.091 76.0822 343.141 78.8703C342.183 81.6818 339.719 83.2878 335.667 83.2204C334.089 83.1946 332.967 83.5234 332.1 84.0316C331.303 84.4992 330.755 85.1033 330.311 85.5931L330.222 85.6915C329.74 86.221 329.4 86.5528 328.949 86.7C328.518 86.8405 327.868 86.8435 326.717 86.3768C325.807 86.0082 325.226 85.453 324.931 84.8255C324.638 84.2004 324.585 83.4111 324.899 82.4899C325.572 80.5136 327.061 79.3818 328.749 78.1174L328.791 78.086C330.424 76.8629 332.238 75.5046 333.064 73.0785C333.275 72.4609 333.412 71.6357 333.289 70.8523C333.162 70.0447 332.735 69.205 331.777 68.8168C331.316 68.63 330.874 68.582 330.461 68.681C330.053 68.779 329.732 69.0067 329.482 69.2685C329.035 69.7351 328.736 70.4015 328.519 70.8845L328.481 70.9698C327.78 72.4729 326.823 73.4844 325.707 73.9804C324.599 74.4728 323.256 74.4916 321.698 73.8601C319.891 73.128 318.972 71.2858 319.598 69.4467Z" fill="#333333"/>
<path d="M317.98 93.9965C318.934 91.1974 321.966 89.8116 324.706 90.9223C327.447 92.0329 328.914 95.2422 327.96 98.0412C327.006 100.84 323.974 102.226 321.233 101.115C318.493 100.005 317.026 96.7956 317.98 93.9965Z" fill="#333333"/>
</svg>
