<svg width="345" height="188" viewBox="0 0 345 188" fill="none" xmlns="http://www.w3.org/2000/svg">
<path d="M98.6776 179.682C105.029 177.939 111.122 175.259 116.71 171.697C117.91 171.742 118.879 171.746 119.565 171.746C124.104 171.743 128.548 171.261 131.684 170.82C135.42 170.743 138.826 171.337 144.09 172.284C146.373 172.772 148.587 173.305 150.758 173.909C158.177 176.243 166.253 178.198 174.834 178.714C179.196 180.58 183.437 181.857 187.301 182.701L187.504 182.745L191.174 183.415L191.379 183.446C202.201 185.038 213.108 185.999 224.036 186.332C225.573 186.585 227.155 186.797 228.777 186.948C231.042 187.158 233.246 187.225 235.358 187.208L235.405 187.208L235.452 187.207C240.171 187.133 244.544 186.531 248.546 185.586C253.681 186.452 259.283 186.984 264.917 186.91C288.719 186.658 312.244 176.55 327.553 155.378C339.866 138.349 342.669 119.93 342.594 106.803C342.712 102.843 342.596 98.6032 342.115 94.1834C343.291 89.4747 343.952 84.7221 344.19 79.9991L344.193 79.9299L344.196 79.8606C344.821 63.7343 340.479 49.2817 334.217 38.0909C331.162 32.6316 326.458 25.8051 319.442 19.5744C315.947 16.471 310.422 12.2154 302.826 8.84997C291.286 3.73706 278.302 2.24915 265.872 4.71018C262.086 4.79802 257.46 5.18783 252.337 6.27744C246.903 7.43355 241.555 9.11819 236.413 11.3282C231.416 11.0769 226.208 11.4269 220.86 12.5045C218.654 12.9485 216.154 13.6345 214.377 14.1224L214.376 14.1225C213.728 14.3004 213.176 14.4521 212.768 14.5562C211.353 14.9175 210.292 15.1229 209.35 15.206L209.307 15.1944C208.749 15.0419 207.924 14.8167 207.064 14.6081C205.498 14.2281 203.45 13.8062 201.08 13.6149C196.687 11.9331 192.113 10.9909 188.922 10.3335C187.977 10.1388 187.154 9.96915 186.492 9.81264C183.074 9.00149 179.684 8.40622 176.434 7.92721C176.099 7.82156 175.624 7.65755 174.881 7.39156L174.668 7.3152C173.74 6.98227 172.288 6.46087 170.822 6.06986C168.388 5.42063 165.666 4.90752 163.551 4.5088C162.748 4.35739 162.032 4.22248 161.453 4.10287L161.427 4.09764L161.402 4.09253C157.747 3.35416 153.859 2.90992 149.824 2.83785C142.281 0.856373 134.622 0.0811166 127.117 0.189455L127.014 0.190931L126.912 0.194152C122.938 0.319322 116.165 0.969134 108.626 2.8085C101.716 2.59161 96.332 3.37044 93.9789 3.71084L93.9474 3.71539C88.5611 4.49445 83.0522 5.68491 77.5882 7.5421C71.5418 7.56049 65.9513 8.24394 61.181 9.06602L61.1428 9.0726L61.1046 9.07944C52.169 10.6789 43.2018 13.6062 34.9124 18.2633C24.3777 24.1819 -5.51703 46.18 1.11307 86.8317C1.93281 91.9856 4.07721 101.878 10.7798 112.144C11.4493 113.17 12.1778 114.212 12.9648 115.261C15.3418 122.61 17.7939 129.911 20.3213 137.165C21.4662 140.451 22.8424 143.627 24.3631 146.639C26.0636 150.007 29.9674 157.187 37.1988 164.215C45.4033 172.19 56.4641 178.584 69.7722 181.016C81.9424 183.241 92.1902 181.453 98.6611 179.687L98.6776 179.682Z" fill="#FF5E71"/>
<path fill-rule="evenodd" clip-rule="evenodd" d="M23.7353 109.561C22.6347 108.205 21.6654 106.867 20.828 105.584C15.3946 97.2617 13.6382 89.1958 12.9604 84.9236C7.57243 51.9637 31.6028 33.8869 40.7901 28.7253C47.7359 24.8231 55.3933 22.2925 63.219 20.8917C68.107 20.0493 73.6956 19.4121 79.5998 19.5643C84.7918 17.6197 90.1885 16.3839 95.6652 15.5918C98.018 15.2515 103.247 14.4952 109.871 14.8744C117.129 12.9425 123.771 12.299 127.29 12.1882C134.342 12.0864 141.385 12.8789 148.178 14.8296C151.988 14.7951 155.642 15.1714 159.026 15.8549C162.029 16.4751 164.999 17.2462 167.961 18.0364C168.957 18.3021 169.951 18.5746 170.942 18.8565C172.618 19.3329 173.37 19.5468 173.951 19.6926C175.563 19.9228 177.163 20.1932 178.767 20.4764C179.835 20.6651 181.644 20.9954 183.724 21.489C188.584 22.6393 193.56 24.2701 198.436 26.5107C202.756 26.4904 206.349 26.976 208.13 27.2485C210.079 27.2693 212.03 27.2167 213.984 27.0901C216.014 26.2472 219.218 25.0755 223.227 24.2686C228.584 23.1891 233.723 23.0133 238.561 23.5285C243.738 21.0525 249.222 19.2088 254.834 18.0148C259.571 17.0072 263.823 16.7146 267.201 16.6912C267.689 16.5836 268.187 16.4818 268.692 16.3865C281.555 13.9586 292.037 17.1951 297.965 19.8213C304.11 22.544 308.604 25.9983 311.474 28.5471C317.237 33.6648 321.158 39.3282 323.745 43.9508C329.042 53.4165 332.736 65.6987 332.205 79.3953C331.967 84.115 331.236 88.7858 329.919 93.329C330.565 97.9799 330.728 102.472 330.592 106.659C330.69 118.153 328.261 133.919 317.829 148.346C305.024 166.055 285.275 174.698 264.774 174.911C259.073 174.987 253.283 174.333 248.09 173.303C244.286 174.402 240.003 175.134 235.264 175.209C233.468 175.223 231.674 175.165 229.885 174.999C228.84 174.902 227.969 174.789 227.381 174.706C226.483 174.579 225.697 174.445 225.224 174.362C214.48 174.066 203.759 173.138 193.125 171.573L189.863 170.978C186.103 170.156 181.913 168.839 177.654 166.826C169.616 166.616 161.812 164.817 154.177 162.405C152.658 161.979 151.647 161.702 150.7 161.466C149.516 161.178 148.162 160.881 146.402 160.507C143.871 160.052 141.377 159.552 138.873 159.006C138.116 158.844 137.353 158.663 136.584 158.462C134.472 158.66 132.475 158.775 130.644 158.846C127.776 159.269 123.633 159.743 119.559 159.746C118.32 159.746 116.154 159.73 113.368 159.437C108.013 163.418 101.933 166.345 95.5011 168.11C90.1368 169.574 81.7893 171.015 71.9303 169.212C61.1638 167.244 52.2144 162.075 45.5624 155.61C39.6881 149.901 36.4954 144.043 35.0751 141.23C33.7688 138.643 32.6071 135.955 31.6532 133.217C28.9255 125.388 26.2863 117.503 23.7353 109.561Z" fill="#FFD600"/>
<path fill-rule="evenodd" clip-rule="evenodd" d="M127.668 24.1823C124.606 24.2787 118.002 24.9307 111.092 26.9973C106.26 26.5379 101.475 26.8922 96.6874 27.569L96.6858 27.5693C91.5459 28.2958 86.4124 29.5969 81.6469 31.6729C81.287 31.6476 80.9369 31.6268 80.5974 31.6097C75.3092 31.3446 70.0023 31.868 64.7991 32.7993C62.3303 33.2577 54.509 34.782 46.6678 39.1873C39.1527 43.4093 20.632 57.4989 24.8073 83.0121C25.3455 86.4148 26.7136 92.6483 30.8762 99.0244C31.8375 100.497 33.024 102.061 34.4345 103.622C37.1802 112.239 40.0303 120.788 42.9851 129.269C43.765 131.507 44.7193 133.707 45.7872 135.822C46.9331 138.091 49.4146 142.62 53.9261 147.005C59.0209 151.957 65.8575 155.903 74.0884 157.408C80.1678 158.519 86.4949 158.149 92.444 156.505C99.9704 154.427 105.672 150.67 109.88 146.743C114.284 147.7 117.849 147.747 119.553 147.746C122.878 147.744 126.194 147.411 129.474 146.879C132.008 146.793 134.765 146.626 137.627 146.283C138.904 146.682 140.17 147.012 141.412 147.278C143.848 147.809 146.264 148.292 148.707 148.729C150.594 149.129 152.155 149.47 153.565 149.813C154.744 150.106 155.961 150.442 157.609 150.904C160.088 151.692 162.602 152.404 165.244 153.071L165.268 153.077C170.067 154.284 175.254 154.959 180.556 154.847C184.622 157.069 188.74 158.449 192.425 159.254L194.871 159.701C205.012 161.193 215.179 162.081 225.363 162.361C225.942 162.372 226.495 162.398 227.064 162.5C228.366 162.735 229.676 162.928 230.994 163.05C232.351 163.176 233.712 163.221 235.075 163.21C239.815 163.136 243.955 162.189 247.454 160.88C253.062 162.232 258.858 162.991 264.632 162.912C281.802 162.738 297.788 155.582 308.105 141.315C316.669 129.471 318.712 116.333 318.59 106.518C318.752 102.046 318.519 97.2739 317.621 92.4046C319.142 88.0609 319.983 83.522 320.214 78.9301C320.651 67.6588 317.602 57.5472 313.273 49.8108C311.154 46.0252 308.016 41.5248 303.506 37.5198C301.259 35.5249 297.798 32.8724 293.104 30.7927C288.573 28.7854 280.632 26.3443 270.916 28.1786C270.106 28.3313 269.324 28.5058 268.571 28.6974C264.799 28.6384 261.023 28.9668 257.331 29.7522L257.292 29.7605L257.253 29.7689C251.142 31.0829 245.596 33.2166 240.63 35.9735C235.996 35.056 230.938 34.9558 225.596 36.0324C222.61 36.6332 219.706 37.6047 216.949 38.8965C213.659 39.1899 210.375 39.3018 207.093 39.2335C203.979 38.7253 200.826 38.4466 197.669 38.5222C197.177 38.534 196.569 38.5552 195.86 38.6011C191.057 36.1198 186.002 34.3598 180.962 33.167C179.216 32.752 177.668 32.4682 176.679 32.2934C175.014 31.9993 173.345 31.7489 171.675 31.4864C170.675 31.2573 169.686 30.9759 167.648 30.3958L167.614 30.3861C166.639 30.1086 165.662 29.8427 164.682 29.582C162.018 28.8734 159.349 28.1748 156.65 27.6173C153.529 26.9868 150.113 26.6964 146.554 26.8797C139.07 24.4461 132.238 24.1733 128.895 24.1645L127.668 24.1823Z" fill="#2678F4"/>
<path fill-rule="evenodd" clip-rule="evenodd" d="M89.2496 144.938C97.8242 142.57 103.122 137.134 106.126 132.876C111.852 135.619 117.316 135.747 119.546 135.746C122.874 135.744 126.331 135.251 128.353 134.907C131.812 134.807 135.381 134.567 138.855 133.99C140.572 134.681 142.287 135.194 143.947 135.549C146.316 136.066 148.65 136.531 151.004 136.949C153.003 137.372 154.781 137.758 156.43 138.16C157.857 138.514 159.293 138.913 161.053 139.407C163.348 140.141 165.69 140.807 168.18 141.435L168.188 141.437L168.196 141.439C173.162 142.688 178.425 143.197 183.619 142.651C187.323 145.237 191.347 146.736 194.987 147.531L196.618 147.829C206.294 149.252 215.987 150.099 225.693 150.365C226.572 150.377 227.435 150.434 228.311 150.528L228.346 150.535C229.592 150.769 230.84 150.984 232.102 151.101C232.629 151.15 233.478 151.214 234.511 151.214C238.699 151.182 242.803 150.16 246.489 148.164C248.29 148.736 249.937 149.15 251.302 149.455C255.524 150.398 260.22 150.973 264.49 150.913C278.329 150.779 290.553 145.108 298.38 134.283C305.066 125.037 306.734 114.534 306.587 106.378C306.787 101.498 306.432 96.4091 305.106 91.3777C306.976 87.3227 307.999 82.9181 308.223 78.4649C308.566 69.619 306.162 61.6779 302.801 55.6707C301.151 52.7222 298.795 49.3848 295.538 46.4926C293.915 45.0515 291.486 43.2008 288.243 41.7641C285.109 40.3754 279.708 38.7293 273.136 39.9714C272.024 40.1812 270.988 40.4511 270.03 40.7558C269.463 40.7246 268.87 40.7027 268.256 40.6939C265.963 40.6612 263.047 40.8049 259.827 41.4896L259.801 41.4952L259.775 41.5008C253.184 42.9181 247.416 45.5318 242.5 48.9466C238.266 47.3513 233.329 46.7174 227.976 47.794C225.411 48.3087 223.47 49.119 222.503 49.551C221.903 49.8191 221.334 50.1032 221.027 50.2597C220.68 50.3594 219.929 50.5534 218.637 50.7916C214.401 51.1954 210.17 51.3338 205.938 51.2081C205.636 51.1557 205.277 51.0949 204.913 51.0371C203.673 50.8404 201.023 50.4453 197.956 50.5188C196.941 50.5431 195.333 50.622 193.374 50.9749C188.745 48.1025 183.575 46.1153 178.182 44.8406C176.203 44.371 173.476 43.9114 172.713 43.7828C172.153 43.6884 171.593 43.5978 171.031 43.5185C170.365 43.4245 169.698 43.3434 169.043 43.1941C167.696 42.8874 166.367 42.5085 164.322 41.926L164.31 41.9226C163.341 41.6465 162.369 41.3847 161.396 41.1261C159.035 40.4991 156.669 39.8636 154.273 39.3797C151.437 38.8068 148.263 38.6355 144.982 39.0601C139.638 36.9359 133.785 35.9955 128.045 36.1763C125.741 36.2489 119.977 36.8099 114.11 38.6219C113.558 38.7925 112.936 38.9944 112.259 39.234C106.639 38.3212 101.591 38.9873 98.8001 39.388L98.7231 39.3991L98.6461 39.4106C98.5948 39.4183 98.5292 39.4278 98.45 39.4393C97.1119 39.6326 91.9182 40.3829 86.7812 42.5284C86.0683 42.8262 85.0187 43.2996 83.7731 43.9753C77.5967 43.034 71.6654 43.7899 67.2949 44.5431L67.1421 44.5694L66.9897 44.5977C64.8321 44.9983 58.6088 46.2428 52.5455 49.6492C46.7023 52.932 33.6907 63.0351 36.6545 81.1029C37.0539 83.6404 38.0352 88.0388 40.9244 92.4644C41.9357 94.0135 43.3007 95.6993 45.0166 97.294C47.9912 106.72 51.0912 116.062 54.317 125.321C54.9675 127.05 55.6659 128.763 56.4993 130.413C57.3708 132.14 59.141 135.339 62.2898 138.4C65.8273 141.838 70.5512 144.562 76.2464 145.603C81.4879 146.562 86.0363 145.816 89.181 144.957L89.2153 144.948L89.2496 144.938Z" fill="#12D778"/>
<path fill-rule="evenodd" clip-rule="evenodd" d="M50.9726 85.9044C51.9132 87.3451 53.3777 88.9557 55.359 90.1702C58.6323 100.677 62.0623 111.078 65.6489 121.373C66.1188 122.604 66.6169 123.827 67.2114 125.005C67.8085 126.188 68.8675 128.059 70.6534 129.795C72.6338 131.719 75.2449 133.221 78.4045 133.799C81.3372 134.335 83.9861 133.936 86.0209 133.381L86.0381 133.376L86.0552 133.371C91.5538 131.853 94.8735 128.202 96.7694 125.297C98.2727 122.993 99.359 120.358 99.9235 118.988C100.001 118.8 100.08 118.613 100.157 118.424C101.205 115.847 102.249 113.265 103.288 110.68C103.498 112.857 104.213 115.107 105.61 117.176C107.289 119.662 109.459 121.159 111.27 122.034C114.541 123.614 117.835 123.747 119.54 123.746C122.447 123.744 125.554 123.222 127.122 122.934C132.335 122.816 136.792 122.404 140.427 121.382C142.391 122.606 144.494 123.398 146.475 123.818C148.778 124.321 151.03 124.769 153.292 125.168C155.39 125.611 157.394 126.043 159.296 126.508C160.989 126.927 162.659 127.393 164.51 127.914C166.616 128.592 168.78 129.211 171.115 129.8L171.123 129.802C176.731 131.213 182.258 131.291 187.19 129.716C189.922 133.148 193.757 134.979 197.549 135.808L198.364 135.957C207.576 137.312 216.796 138.117 226.022 138.37C227.305 138.388 228.571 138.485 229.846 138.624C230.341 138.678 230.83 138.792 231.319 138.881C231.595 138.93 231.989 138.999 232.402 139.058C233.164 139.165 233.93 139.219 234.699 139.213C238.966 139.146 241.925 137.06 243.333 135.847C243.845 135.405 244.304 134.949 244.714 134.498C247.849 136.159 251.241 137.146 253.918 137.743C257.409 138.523 261.17 138.961 264.345 138.914C274.857 138.819 283.318 134.634 288.656 127.252C293.444 120.631 294.755 112.778 294.581 106.244C294.855 100.561 294.208 95.0861 291.966 90.0628C292.521 89.3491 292.964 88.6709 293.303 88.0926C295.112 85.0018 296.019 81.4922 296.218 78.276L296.232 77.9997C296.481 71.5792 294.723 65.8087 292.329 61.5307C291.147 59.4193 289.574 57.2448 287.57 55.4653C286.571 54.5781 285.173 53.5291 283.382 52.7355C281.646 51.9662 278.789 51.1163 275.368 51.7621C273.941 52.0307 272.729 52.4841 271.757 52.9499C269.505 52.6761 266.032 52.4384 262.324 53.227L262.311 53.2298L262.298 53.2326C254.549 54.8989 248.325 58.7816 243.701 63.695C243.493 63.4858 243.276 63.2792 243.049 63.0761C240.089 60.42 235.581 58.5049 230.342 59.5585C228.994 59.8284 227.956 60.2578 227.399 60.5067C226.798 60.7752 226.23 61.1179 225.62 61.3652C225.141 61.5597 223.67 62.0936 220.283 62.688C215.077 63.2075 209.872 63.3685 204.666 63.1719C204.632 63.1654 204.598 63.1586 204.564 63.1519C204.356 63.111 204.043 63.0492 203.033 62.8889C201.978 62.7215 200.195 62.4686 198.243 62.5154C196.804 62.5498 194.029 62.7558 191.148 64.2475C187.067 60.5585 181.731 58.01 175.42 56.5182C173.977 56.1754 172.222 55.8749 171.119 55.6861C169.538 55.4154 167.943 55.2512 166.377 54.8943C164.692 54.5105 163.016 54.0325 160.983 53.4525C160.025 53.1791 159.062 52.923 158.098 52.6674C156.29 52.1877 154.089 51.6041 151.998 51.1629L151.948 51.1522L151.897 51.142C149.374 50.6323 146.413 50.6806 143.507 51.6522C142.401 51.0066 141.335 50.5138 140.403 50.1539C136.62 48.6932 132.467 48.112 128.423 48.1704C126.953 48.2167 122.286 48.6559 117.651 50.0876C116.398 50.4745 114.868 51.0166 113.268 51.79C109.071 50.3811 104.555 50.6688 100.243 51.305C98.9318 51.4985 95.0803 52.0668 91.406 53.6014C90.1422 54.1293 88.0334 55.1564 85.9593 56.851C80.6383 54.8707 74.6516 55.4167 69.1803 56.3961C67.334 56.7389 62.7085 57.7036 58.4232 60.1112C54.2509 62.4552 46.7479 68.5727 48.5023 79.1968C48.7644 80.8791 49.362 83.4373 50.9726 85.9044Z" fill="#AF71FE"/>
<path d="M103.511 77.3244C105.871 70.9244 106.121 71.1244 108.841 70.3644C110.361 69.9344 111.621 68.7444 111.601 66.5544C111.571 63.6944 110.221 61.9944 102.211 63.1444C99.6809 63.5244 91.7209 64.6744 91.8309 69.6544C91.8909 72.8444 95.0709 71.5444 95.1109 74.4044C95.1309 76.2844 92.3209 83.7844 91.5709 85.7644C90.8209 87.5144 89.7409 92.0044 87.6909 92.2244C86.3309 92.3944 85.6809 89.5144 85.1309 88.2944C83.6609 84.4944 81.2109 78.7744 81.1709 77.1144C81.1209 74.9744 84.0609 74.2944 83.9709 71.2644C83.9409 70.0644 84.3109 65.9644 71.3709 68.1944C68.3009 68.7644 59.2609 70.9344 60.3509 77.2944C60.6109 79.0244 61.2509 80.1044 62.2309 80.0744C64.2309 80.0344 64.7709 80.8844 66.5309 85.6844C69.8509 96.3777 73.3342 106.958 76.9809 117.424C78.2709 120.614 79.1609 122.814 82.8609 121.804C86.3009 120.854 87.6509 117.214 89.0409 113.904C93.9609 101.804 98.7842 89.6111 103.511 77.3244ZM119.911 92.5744C119.861 101.824 119.201 104.224 118.441 105.214C117.401 106.554 115.241 107.254 115.221 109.244C115.171 113.154 123.211 111.434 125.901 110.954C139.881 110.744 140.471 108.414 140.481 106.764C140.491 105.024 138.961 104.614 137.361 103.664C136.091 102.914 135.321 103.124 135.361 92.0144C135.368 89.7611 135.371 87.4711 135.371 85.1444C135.371 79.9844 135.421 73.0244 136.621 71.3244C138.091 69.3144 140.511 69.7044 140.501 66.7844C140.481 61.1044 132.631 60.1744 128.801 60.1644C127.531 60.2044 114.521 61.4344 114.581 67.3444C114.601 70.4144 117.081 70.4044 118.561 72.6144C119.261 73.6644 119.901 75.8944 119.921 85.5344C119.914 87.9144 119.911 90.2611 119.911 92.5744ZM187.341 82.5244C187.351 77.3844 184.341 70.9544 172.651 68.1944C171.181 67.8444 169.651 67.6244 168.181 67.3544C166.711 67.1444 165.231 66.9544 163.711 66.5944C161.341 66.0544 158.971 65.3544 156.611 64.6844C154.251 64.0744 151.891 63.4044 149.521 62.9044C147.541 62.5044 144.931 63.4844 144.941 66.5744C144.951 72.0544 150.431 67.5144 150.061 78.9644C149.834 85.8311 149.601 92.4511 149.361 98.8244C148.941 109.004 144.801 104.624 144.791 108.224C144.781 110.214 147.011 111.674 148.991 112.084C151.231 112.574 153.401 113.004 155.571 113.384C157.751 113.844 159.991 114.324 162.161 114.854C164.141 115.344 166.061 115.884 167.981 116.424C169.891 117.044 171.871 117.614 174.051 118.164C186.891 121.394 191.171 113.194 191.161 105.834C191.161 99.7944 186.631 95.3544 184.021 93.8044C183.381 93.3544 182.681 92.9644 182.681 92.0544C182.681 91.1544 183.251 90.8444 183.831 90.3844C186.121 88.7644 187.341 85.6144 187.341 82.5244ZM165.251 78.2844C165.251 76.1944 164.991 73.9844 167.361 74.4644C170.871 75.1844 171.831 79.3244 171.831 82.4844C171.831 86.3344 170.931 89.1144 167.101 88.4444C165.131 88.1144 165.251 86.8044 165.251 84.0544C165.251 82.1344 165.251 80.2111 165.251 78.2844ZM165.251 97.5344C165.321 96.1044 165.771 95.0844 167.741 95.4344C172.211 96.2144 173.351 100.154 173.351 104.384C173.351 107.974 172.071 110.384 168.431 109.594C166.451 109.164 165.231 108.704 165.241 100.934C165.241 99.8011 165.244 98.6677 165.251 97.5344ZM203.501 75.1344C200.891 74.7744 195.521 73.2044 195.511 77.0244C195.511 81.5444 200.371 77.2744 200.791 87.0244C201.431 99.5644 201.361 98.2644 200.601 111.634C200.171 119.794 195.821 115.574 195.821 119.804C195.821 120.814 195.901 123.164 200.111 124.084C208.858 125.371 217.604 126.134 226.351 126.374C228.511 126.374 230.301 126.604 231.701 126.754C233.051 126.984 234.071 127.214 234.511 127.214C237.061 127.174 240.401 117.134 240.371 111.604C240.361 109.334 239.341 106.474 237.311 106.544C232.111 106.714 235.851 117.964 222.811 118.004C216.111 117.784 215.471 118.314 215.451 106.774C215.441 104.334 215.381 101.484 218.061 101.554C224.481 101.574 220.551 109.654 224.491 109.704C228.311 109.704 228.751 100.344 228.751 97.2344C228.751 94.3044 228.541 86.0744 224.841 86.3744C220.321 86.6444 223.931 94.3544 219.081 94.4444C215.201 94.4244 215.011 94.2944 215.021 90.2444C215.041 82.6144 214.341 81.3744 221.431 80.9444C233.541 79.4844 229.421 86.8544 234.451 86.3644C236.921 86.0944 237.771 83.0744 237.791 80.6244C237.821 77.3744 236.341 70.5844 232.701 71.3244C231.681 71.5244 230.461 73.1344 221.911 74.5844C215.778 75.2177 209.641 75.4011 203.501 75.1344ZM251.801 100.764C258.731 107.804 267.131 105.954 267.191 112.104C267.251 115.314 263.911 116.304 262.551 116.334C251.051 116.664 251.731 103.494 247.271 103.744C245.381 103.854 244.621 106.084 244.631 108.274C244.651 112.434 246.181 121.084 249.241 123.244C252.891 125.714 260.051 126.984 264.201 126.914C278.581 126.804 282.981 116.104 282.571 106.124C282.971 99.3344 281.691 94.6144 278.331 90.8444C271.531 84.3344 262.931 87.0644 263.071 80.3144C263.131 77.2544 265.241 75.7444 267.211 75.4344C273.811 74.4544 275.871 84.5044 280.061 84.2044C282.381 84.0744 284.041 80.7644 284.241 77.5344C284.551 69.5444 279.791 63.1344 277.591 63.5544C276.251 63.8044 275.321 65.2344 274.431 65.4044C273.471 65.5844 268.911 64.0944 264.821 64.9644C252.451 67.6244 245.971 78.8444 245.901 86.9844C245.851 92.7044 248.351 97.4044 251.801 100.764Z" fill="white"/>
<path fill-rule="evenodd" clip-rule="evenodd" d="M128.801 59.1644C127.673 59.1644 123.999 59.4945 120.587 60.5856C118.881 61.1311 117.162 61.8907 115.855 62.9534C114.533 64.0285 113.564 65.4784 113.581 67.3492C113.583 69.08 114.452 70.0946 115.356 70.8888C115.6 71.104 115.836 71.2973 116.062 71.4826C116.697 72.0038 117.256 72.4622 117.73 73.1708C118.068 73.6755 118.391 74.6437 118.608 76.6425C118.821 78.6096 118.921 81.4345 118.921 85.5314C118.916 86.3215 118.916 87.6376 118.916 88.9784C118.916 90.3168 118.916 91.6797 118.911 92.569C118.886 97.1807 118.709 100.039 118.452 101.852C118.194 103.676 117.87 104.315 117.649 104.604C117.313 105.036 116.871 105.376 116.433 105.715C116.213 105.885 115.993 106.054 115.788 106.235C115.043 106.889 114.236 107.81 114.221 109.233C114.213 109.901 114.38 110.506 114.726 111.02C115.068 111.526 115.543 111.881 116.055 112.129C117.051 112.61 118.319 112.746 119.534 112.746C121.702 112.744 124.136 112.296 125.569 112.032C127.262 111.719 128.993 111.665 130.725 111.61C133.475 111.522 136.226 111.435 138.825 110.318C139.895 109.858 140.603 109.291 141.02 108.604C141.437 107.916 141.478 107.24 141.481 106.77C141.484 106.179 141.355 105.654 141.095 105.191C140.84 104.736 140.489 104.393 140.127 104.12C139.755 103.839 139.304 103.624 138.851 103.408C138.253 103.124 137.653 102.838 137.227 102.396C137.144 102.31 136.991 102.107 136.842 101.489C136.529 100.197 136.341 97.5962 136.361 92.0191C136.371 90.1656 136.371 86.6629 136.371 85.1444C136.371 82.5613 136.384 79.5612 136.544 76.9993C136.624 75.7174 136.74 74.5694 136.904 73.6509C137.075 72.6935 137.274 72.1383 137.434 71.9068C137.867 71.3182 138.345 71.0335 138.947 70.6749C139.712 70.2201 140.482 69.7432 140.958 68.9654C141.323 68.3697 141.504 67.655 141.501 66.7809C141.489 63.3387 139.053 61.4244 136.44 60.4153C133.83 59.4073 130.768 59.1695 128.804 59.1644H128.801ZM115.581 67.3342C115.57 66.2526 116.104 65.3293 117.117 64.5051C118.147 63.6674 119.599 63.0014 121.196 62.4906C124.389 61.4697 127.854 61.1646 128.8 61.1644C130.665 61.1693 133.443 61.4017 135.719 62.281C137.994 63.1593 139.493 64.5501 139.501 66.7879C139.503 67.3737 139.385 67.7052 139.253 67.9205C139.016 68.3078 138.603 68.549 138.217 68.7748C138.187 68.7919 138.158 68.809 138.129 68.826C137.465 69.2165 136.515 69.7755 135.814 70.734L135.809 70.7408L135.804 70.7477C135.365 71.3697 135.11 72.3207 134.935 73.2997C134.752 74.3256 134.63 75.5588 134.548 76.8744C134.383 79.5076 134.371 82.5675 134.371 85.1444C134.371 86.6656 134.371 90.1623 134.361 92.009L134.361 92.0108C134.341 97.5429 134.518 100.392 134.898 101.96C135.095 102.772 135.369 103.351 135.787 103.784C136.099 104.107 136.488 104.323 136.727 104.455C136.775 104.481 136.817 104.505 136.851 104.525C137.1 104.673 137.359 104.808 137.619 104.943C138.069 105.178 138.52 105.413 138.922 105.716C139.142 105.882 139.271 106.028 139.35 106.169C139.425 106.301 139.483 106.479 139.481 106.758C139.479 107.113 139.443 107.347 139.309 107.567C139.175 107.788 138.86 108.126 138.035 108.481C135.55 109.549 132.882 109.615 130.221 109.681C128.525 109.724 126.833 109.766 125.192 110.067C123.738 110.334 121.501 110.745 119.533 110.746C118.407 110.746 117.507 110.609 116.925 110.328C116.649 110.195 116.483 110.047 116.384 109.9C116.29 109.762 116.217 109.566 116.221 109.257L116.221 109.254C116.227 108.688 116.509 108.264 117.109 107.737C117.31 107.56 117.503 107.407 117.717 107.238C117.847 107.135 117.984 107.027 118.135 106.904C118.498 106.607 118.9 106.254 119.231 105.827L119.234 105.823C119.774 105.121 120.159 104.064 120.432 102.132C120.708 100.184 120.886 97.218 120.911 92.5798C120.916 91.6193 120.916 90.2777 120.916 88.9662C120.916 87.6585 120.916 86.3808 120.921 85.5405L120.921 85.5344C120.921 81.4228 120.822 78.5072 120.596 76.4266C120.374 74.3772 120.016 72.9904 119.392 72.0579C118.736 71.0782 117.861 70.3639 117.183 69.81C116.996 69.6575 116.825 69.5172 116.676 69.3868C115.96 68.7574 115.581 68.2432 115.581 67.3444L115.581 67.3342Z" fill="#333333"/>
<path fill-rule="evenodd" clip-rule="evenodd" d="M112.601 66.5452L112.601 66.5439C112.583 64.8166 111.968 63.2231 110.328 62.4426C107.916 61.2948 104.752 61.76 102.203 62.1349C102.156 62.1418 102.109 62.1486 102.062 62.1555C102.034 62.1598 102.004 62.1642 101.974 62.1687C100.687 62.3617 98.0139 62.7624 95.6455 63.7516C93.278 64.7405 90.7624 66.5224 90.8312 69.6749C90.8499 70.6537 91.1157 71.4009 91.5926 71.9775C91.9167 72.3694 92.3491 72.6037 92.778 72.8361C93.168 73.0475 93.555 73.2572 93.8551 73.5824C93.9704 73.7073 94.1037 73.9146 94.111 74.4164C94.1237 75.7773 93.5731 77.2747 93.0726 78.6358C92.9343 79.0122 92.7997 79.3781 92.682 79.7278C91.8995 82.0518 91.0212 84.3923 90.6431 85.3908C90.4103 85.9384 90.2147 86.5209 90.0173 87.1086C89.5857 88.394 89.1458 89.704 88.2899 90.7263L88.2824 90.7352C88.1397 90.9058 87.7377 91.3864 87.5075 91.1524C87.3649 91.0074 87.1962 90.7456 87.0117 90.3542C86.8124 89.9314 86.6546 89.4921 86.4969 89.0529C86.3586 88.668 86.2204 88.2832 86.0543 87.9094C85.7333 87.0803 85.3766 86.1863 85.0108 85.2693C84.519 84.0367 84.0106 82.7623 83.5497 81.5472C83.4383 81.2535 83.3118 80.9465 83.1817 80.6308C82.7136 79.4945 82.1987 78.2447 82.1707 77.0905C82.1576 76.5235 82.4833 76.1534 83.2385 75.2953C84.2681 74.1253 85.0178 72.8516 84.9706 71.2372C84.9699 71.2103 84.9696 71.178 84.9693 71.141C84.9667 70.8496 84.9615 70.2631 84.7585 69.6503C84.5134 68.9105 83.9998 68.1561 83.018 67.5804C81.1553 66.4884 77.6907 66.0904 71.2011 67.2088L71.1884 67.2112C69.6275 67.501 66.4668 68.2093 63.8111 69.7013C61.1659 71.1874 58.7173 73.6521 59.3636 77.4531C59.5041 78.382 59.759 79.2406 60.1836 79.891C60.626 80.5687 61.3197 81.1003 62.2555 81.0741C62.6909 81.0657 62.9403 81.1099 63.1159 81.1827C63.2742 81.2484 63.4499 81.3694 63.6707 81.664C64.1668 82.3262 64.6911 83.5726 65.5834 86.005C68.9045 96.7009 72.3889 107.284 76.0366 117.753L76.0447 117.777L76.0636 117.823C76.1158 117.952 76.1679 118.083 76.2202 118.214C76.7442 119.525 77.2991 120.914 78.3202 121.906C78.8731 122.444 79.5476 122.826 80.3828 122.978C81.1991 123.128 82.1068 123.047 83.1243 122.769L83.1271 122.768C85.162 122.206 86.5364 120.85 87.5572 119.286C88.4536 117.912 89.1276 116.295 89.7446 114.814C89.8181 114.638 89.8908 114.463 89.963 114.292L89.9673 114.281C94.8897 102.175 99.7154 89.976 104.444 77.6834L104.449 77.6703C105.039 76.0709 105.487 74.9108 105.87 74.0506C106.256 73.1842 106.55 72.6834 106.812 72.366C107.24 71.8478 107.6 71.7476 108.851 71.3996C109.906 71.1063 110.879 70.6154 111.578 69.746C112.241 68.9208 112.613 67.8442 112.601 66.5452ZM110.601 66.5649C110.591 65.6097 110.401 64.6919 109.469 64.2486C107.59 63.3545 105.001 63.7404 102.94 64.0477C102.739 64.0777 102.543 64.107 102.353 64.1342C100.337 64.438 98.3071 64.8074 96.4163 65.5971C94.1993 66.5231 92.7904 67.8057 92.8307 69.6323L92.8308 69.6356C92.8423 70.2509 92.9965 70.5369 93.1337 70.7028C93.4244 71.0543 93.8341 71.2713 94.2469 71.49C94.6356 71.696 95.0272 71.9034 95.3249 72.226C95.8189 72.7613 96.0979 73.4636 96.1108 74.3904L96.1109 74.3937C96.128 76.006 95.5122 77.7298 94.9477 79.3099C94.8189 79.6704 94.6927 80.0234 94.5774 80.366C93.7775 82.7418 92.8821 85.126 92.5061 86.1186L92.4985 86.1386L92.4901 86.1583C92.2377 86.7471 92.022 87.3614 91.8055 87.9779C91.3041 89.4057 90.7983 90.8458 89.8233 92.0103C89.3438 92.5829 88.6801 93.1209 87.8062 93.2177C87.058 93.3079 86.4741 92.9539 86.0816 92.5548C85.7027 92.1695 85.4194 91.6669 85.2027 91.207C85.0016 90.7805 84.8422 90.3378 84.6829 89.8952C84.5386 89.4944 84.3944 89.0937 84.2193 88.7054L84.2081 88.6805L84.1983 88.6552C83.8949 87.8709 83.5393 86.9791 83.1697 86.0523C82.6669 84.7912 82.1381 83.4652 81.6797 82.2565C81.5714 81.9711 81.4544 81.678 81.3351 81.3791C80.7939 80.0229 80.2052 78.5481 80.1712 77.1377C80.1386 75.7416 81.0216 74.7647 81.6423 74.0779C82.368 73.2749 83.0052 72.4332 82.9714 71.2941L82.9713 71.2894C82.97 71.2399 82.9692 71.1915 82.9683 71.1439C82.963 70.8429 82.9584 70.5763 82.86 70.2793C82.7617 69.9826 82.5533 69.6264 82.0064 69.3058C80.812 68.6055 77.9931 68.0686 71.5472 69.1787C70.0364 69.4596 67.1468 70.1213 64.7908 71.4449C62.4233 72.775 60.899 74.5722 61.3366 77.1254L61.3383 77.1356L61.3398 77.1457C61.4596 77.9429 61.6545 78.4855 61.8583 78.7977C62.0425 79.0799 62.1562 79.0762 62.1987 79.0749L62.211 79.0746C62.7728 79.0633 63.3397 79.1103 63.8822 79.3354C64.4427 79.5679 64.887 79.9519 65.2712 80.4648C65.9835 81.4154 66.6074 82.988 67.4698 85.3401C69.5865 91.1127 71.4394 96.9978 73.2924 102.883C74.7878 107.632 76.2832 112.382 77.9172 117.072C77.9895 117.251 78.0609 117.435 78.1336 117.623C78.5247 118.633 78.9493 119.729 79.7142 120.472C80.0075 120.757 80.3299 120.936 80.7425 121.011C81.1738 121.09 81.7644 121.067 82.5962 120.84C84.0006 120.452 85.0208 119.513 85.8822 118.193C86.6713 116.984 87.2719 115.545 87.9014 114.037C87.9727 113.866 88.0444 113.695 88.1168 113.522C93.0327 101.432 97.8522 89.2487 102.575 76.9719C103.164 75.3746 103.631 74.1617 104.043 73.2369C104.453 72.3171 104.834 71.6203 105.27 71.0928C106.116 70.0677 107.097 69.8018 108.203 69.5023C108.892 69.3157 109.555 69.0695 110.019 68.4928C110.361 68.0681 110.609 67.4552 110.601 66.5649Z" fill="#333333"/>
<path fill-rule="evenodd" clip-rule="evenodd" d="M165.544 73.6916C166.14 73.3589 166.84 73.3386 167.559 73.4843L167.562 73.4848C169.727 73.9289 171.06 75.4379 171.825 77.1516C172.581 78.845 172.831 80.8235 172.831 82.4844C172.831 84.428 172.616 86.3457 171.743 87.7009C171.285 88.4111 170.647 88.9681 169.798 89.277C168.965 89.5797 168.005 89.6173 166.932 89.43C166.34 89.3305 165.799 89.1408 165.357 88.7874C164.899 88.4221 164.633 87.9512 164.48 87.4473C164.334 86.9658 164.284 86.4308 164.264 85.892C164.248 85.4702 164.249 84.9929 164.25 84.4861C164.251 84.3443 164.251 84.2002 164.251 84.0544C164.251 83.4004 164.253 82.7463 164.255 82.0921C164.259 80.6473 164.263 79.2022 164.247 77.7577C164.246 77.6871 164.245 77.6163 164.244 77.5452L164.244 77.5421C164.233 76.7315 164.222 75.8959 164.461 75.1173C164.622 74.5928 164.934 74.0323 165.544 73.6916ZM166.262 85.8161C166.281 86.3067 166.324 86.6354 166.394 86.8664C166.457 87.075 166.531 87.1655 166.605 87.2244C166.693 87.2948 166.874 87.3925 167.266 87.4581L167.273 87.4593C168.114 87.6064 168.701 87.5474 169.114 87.3974C169.511 87.2532 169.815 87.0001 170.062 86.6178C170.596 85.7881 170.831 84.3907 170.831 82.4844C170.831 80.9853 170.6 79.3137 169.999 77.9671C169.407 76.6412 168.506 75.7204 167.161 75.4442C166.697 75.3503 166.54 75.4261 166.519 75.4381C166.509 75.4434 166.442 75.4798 166.373 75.7039C166.299 75.9467 166.259 76.2928 166.247 76.7639C166.17 79.7722 166.148 82.8102 166.262 85.8161Z" fill="#333333"/>
<path fill-rule="evenodd" clip-rule="evenodd" d="M167.914 94.4495C166.775 94.2474 165.755 94.3888 165.056 95.1311C164.424 95.8016 164.289 96.7402 164.252 97.4855L164.251 97.507L164.251 97.5285C164.244 98.6634 164.241 99.7982 164.241 100.933C164.236 104.804 164.526 107.08 165.189 108.452C165.545 109.188 166.017 109.687 166.599 110.02C167.142 110.331 167.731 110.466 168.219 110.572C170.289 111.021 171.951 110.591 173.032 109.263C174.028 108.038 174.351 106.248 174.351 104.384C174.351 102.204 174.061 99.9721 173.108 98.1517C172.125 96.2753 170.465 94.8951 167.914 94.4495ZM166.251 97.5626C166.244 98.6865 166.241 99.8104 166.241 100.934V100.936C166.236 104.834 166.551 106.673 166.99 107.582C167.185 107.985 167.389 108.168 167.593 108.285C167.835 108.424 168.14 108.508 168.643 108.617C170.213 108.958 171.011 108.578 171.48 108.001C172.033 107.321 172.351 106.111 172.351 104.384C172.351 102.335 172.071 100.482 171.336 99.0795C170.632 97.7338 169.487 96.7542 167.569 96.4195L167.566 96.419C166.736 96.2715 166.546 96.4653 166.511 96.5027C166.409 96.611 166.286 96.8927 166.251 97.5626Z" fill="#333333"/>
<path fill-rule="evenodd" clip-rule="evenodd" d="M145.942 62.5909C147.229 61.6644 148.514 61.6808 149.719 61.9242L149.727 61.9259C151.513 62.3025 153.301 62.7766 155.059 63.2426L155.364 63.3232C156.217 63.549 157.069 63.7746 157.917 64.0169C159.939 64.594 161.935 65.1642 163.933 65.6194L163.941 65.6213C165.238 65.9284 166.504 66.1073 167.811 66.292C168.283 66.3585 168.751 66.4404 169.22 66.5222C169.364 66.5473 169.508 66.5725 169.652 66.5972C170.712 66.7787 171.821 66.9689 172.882 67.2214C178.874 68.6363 182.759 71.0206 185.144 73.8181C187.534 76.6212 188.346 79.7554 188.341 82.5263C188.34 85.8158 187.052 89.3158 184.431 91.1848C184.361 91.24 184.295 91.2899 184.232 91.3379C184.163 91.3908 184.097 91.4415 184.031 91.4942C183.81 91.6707 183.742 91.761 183.713 91.8368C183.699 91.873 183.681 91.938 183.681 92.0544C183.681 92.2051 183.721 92.293 183.835 92.4119C183.966 92.5491 184.123 92.6578 184.372 92.8306C184.431 92.8712 184.495 92.9157 184.565 92.9646C187.342 94.6284 192.16 99.3287 192.161 105.833C192.166 109.672 191.057 113.871 188.117 116.692C185.126 119.563 180.456 120.807 173.807 119.134C171.614 118.581 169.618 118.007 167.691 117.382C165.775 116.843 163.877 116.309 161.921 115.825C159.774 115.301 157.555 114.825 155.381 114.366C153.204 113.985 151.027 113.553 148.783 113.062C147.654 112.828 146.45 112.297 145.507 111.517C144.566 110.739 143.784 109.618 143.791 108.221C143.793 107.683 143.87 107.2 144.068 106.779C144.407 106.057 145.056 105.699 145.766 105.421C146.022 105.321 146.224 105.24 146.423 105.125C147.043 104.768 148.155 103.791 148.362 98.7849C148.602 92.414 148.835 85.7964 149.061 78.9321C149.152 76.1333 148.88 74.4128 148.479 73.3103C148.093 72.2506 147.577 71.7257 147.048 71.3343C146.818 71.1635 146.576 71.0092 146.335 70.855C145.892 70.5724 145.451 70.2904 145.08 69.9091C144.347 69.1548 143.943 68.1319 143.94 66.5711C143.938 65.4143 144.654 63.5175 145.942 62.5909ZM147.028 64.2703C146.429 64.6572 145.937 65.3488 145.941 66.5711V66.5726C145.943 67.7518 146.229 68.2214 146.514 68.5149C146.82 68.83 147.203 69.0647 147.583 69.2982C147.808 69.4361 148.031 69.5736 148.239 69.727C149.035 70.3168 149.82 71.1463 150.358 72.6269C150.881 74.0647 151.155 76.0704 151.06 78.9967C150.834 85.8648 150.6 92.487 150.36 98.862L150.36 98.8656C150.147 104.038 148.978 105.961 147.422 106.858C147.126 107.029 146.812 107.159 146.495 107.283C146.475 107.291 146.452 107.3 146.428 107.308C146.411 107.314 146.393 107.32 146.375 107.326C146.191 107.388 145.954 107.468 145.878 107.63C145.846 107.698 145.792 107.865 145.791 108.227L145.791 108.229C145.788 108.821 146.116 109.425 146.782 109.976C147.446 110.525 148.344 110.929 149.194 111.105L149.205 111.107C151.432 111.595 153.588 112.022 155.743 112.399L155.76 112.402L155.777 112.406C157.958 112.866 160.211 113.349 162.398 113.883L162.401 113.884C164.396 114.377 166.328 114.921 168.244 115.459L168.245 115.46L168.271 115.467L168.29 115.473C170.177 116.086 172.135 116.65 174.295 117.195C180.486 118.752 184.376 117.511 186.732 115.249C189.14 112.938 190.166 109.357 190.161 105.836V105.834C190.161 101.359 187.285 96.9058 183.477 94.6445C183.419 94.6035 183.36 94.5629 183.302 94.5223C182.98 94.2996 182.658 94.0763 182.387 93.7919C181.99 93.3757 181.681 92.8136 181.681 92.0544C181.681 91.3509 181.919 90.8183 182.284 90.3986C182.501 90.1477 182.763 89.9461 183.024 89.7446C183.094 89.6913 183.163 89.638 183.231 89.5838L183.253 89.568C185.197 88.1933 186.341 85.405 186.341 82.5244V82.5224C186.346 80.1533 185.657 77.5025 183.622 75.1157C181.583 72.7233 178.118 70.5127 172.421 69.1676L172.419 69.1672C171.423 68.9301 170.417 68.7577 169.387 68.5812C169.23 68.5544 169.074 68.5269 168.916 68.4992C168.463 68.4196 168.003 68.3389 167.533 68.2726C166.236 68.0896 164.876 67.8977 163.485 67.5684C161.431 67.1004 159.377 66.5137 157.359 65.9376C156.527 65.6998 155.698 65.4804 154.875 65.2627L154.508 65.1656C152.765 64.7037 151.049 64.2489 149.319 63.8838C148.545 63.7284 147.673 63.8529 147.028 64.2703Z" fill="#333333"/>
<path fill-rule="evenodd" clip-rule="evenodd" d="M279.205 62.9296C278.558 62.5801 277.918 62.4941 277.303 62.63C276.73 62.7566 276.259 63.0598 275.898 63.3257C275.732 63.4483 275.569 63.5792 275.423 63.696L275.379 63.7316C275.215 63.8626 275.071 63.9767 274.929 64.0783C274.645 64.2807 274.435 64.3831 274.254 64.42L274.253 64.4197L274.246 64.4197C274.223 64.4198 274.151 64.4202 274.007 64.4062C273.815 64.3876 273.569 64.3519 273.258 64.3019C273.096 64.2758 272.917 64.2459 272.726 64.2139C272.207 64.1272 271.593 64.0244 270.935 63.9348C269.128 63.6887 266.829 63.5149 264.613 63.9863L264.611 63.9867C255.638 65.9161 249.648 72.1664 246.813 78.6281C245.18 82.3514 244.456 86.9469 245.287 91.0433C246.144 95.26 248.338 98.7854 251.096 101.473C254.413 104.84 258.067 106.271 260.905 107.383C261.043 107.437 261.179 107.49 261.313 107.543C261.444 107.595 261.574 107.646 261.702 107.697C263.204 108.296 264.316 108.807 265.072 109.476C265.761 110.087 266.179 110.854 266.191 112.114L266.191 112.123C266.213 113.307 265.636 114.065 264.856 114.575C264.033 115.113 263.045 115.323 262.529 115.335L262.522 115.335C260.319 115.398 258.65 114.929 257.335 114.184C256.013 113.435 254.994 112.374 254.143 111.171C253.295 109.972 252.639 108.669 252.009 107.418L251.972 107.345C251.366 106.143 250.745 104.909 249.993 104.052L249.974 104.03L249.954 104.01C248.778 102.813 247.117 102.203 245.655 103.108C244.3 103.946 243.631 105.814 243.631 108.274L243.631 108.279C243.641 110.449 244.041 113.735 244.828 116.761C245.222 118.277 245.721 119.758 246.333 121.017C246.936 122.255 247.696 123.378 248.664 124.061L248.672 124.067L248.68 124.073C250.659 125.411 253.504 126.38 256.315 127.008C259.141 127.639 262.046 127.95 264.213 127.914C270.173 127.868 274.582 126.059 277.683 123.151C280.77 120.255 282.47 116.356 283.184 112.277C283.882 108.293 283.628 101.249 282.465 95.95L282.455 95.9055L282.441 95.8621C281.692 93.5009 280.651 91.6064 279.181 90.0738C277.713 88.5429 275.868 87.4255 273.59 86.5443C272.614 86.167 271.565 85.8536 270.565 85.5547L270.366 85.4954C270.269 85.4662 270.171 85.4371 270.075 85.408C268.908 85.0566 267.829 84.7118 266.899 84.2762C265.97 83.8413 265.261 83.3476 264.789 82.7409C264.334 82.1564 264.049 81.403 264.071 80.3351L264.071 80.334C264.116 78.0142 265.918 76.3176 268.207 76.3682C270.572 76.4205 272.265 78.2696 274.047 80.5556C274.102 80.6275 274.159 80.6998 274.215 80.7725C274.286 80.8641 274.357 80.9562 274.428 81.0487L274.432 81.0535C275.15 81.9831 275.893 82.9469 276.664 83.6842C277.579 84.5591 278.716 85.3001 280.124 85.2024C281.407 85.1289 282.445 84.6403 283.234 83.8448C284.005 83.0672 284.489 82.0478 284.786 80.973C285.376 78.8382 285.299 76.2303 285.001 74.0302C284.708 71.8641 284.153 69.7329 283.161 67.7217C282.042 65.4555 280.586 63.6764 279.205 62.9296ZM274.247 64.4215L274.243 64.4221L274.431 65.4044L274.247 64.4215ZM274.619 66.3866C275.217 66.2723 275.708 65.9793 276.09 65.7067C276.283 65.5688 276.467 65.4226 276.629 65.2927L276.67 65.2599C276.822 65.1384 276.954 65.0326 277.086 64.935C277.38 64.7179 277.578 64.6176 277.735 64.5829C277.85 64.5575 278.001 64.5525 278.253 64.6889C279.102 65.1477 280.324 66.4935 281.367 68.607C282.242 70.3785 282.747 72.2898 283.019 74.2985C283.303 76.3923 283.342 78.6873 282.858 80.4403C282.618 81.3096 282.266 81.9804 281.814 82.4364C281.381 82.8728 280.81 83.1608 280.005 83.2059L279.997 83.2064L279.99 83.2069C279.419 83.2478 278.813 82.9725 278.047 82.239C277.395 81.6154 276.76 80.7947 276.038 79.8598C275.903 79.686 275.765 79.5076 275.624 79.3264C273.933 77.1556 271.694 74.4448 268.251 74.3687C264.868 74.2939 262.139 76.8565 262.071 80.2942C262.04 81.7846 262.453 82.9947 263.211 83.9691C263.952 84.9215 264.972 85.5823 266.05 86.0874C267.128 86.5919 268.335 86.9728 269.498 87.3231C269.666 87.3737 269.833 87.4236 269.999 87.4732L270.004 87.4746C271.009 87.775 271.973 88.0632 272.868 88.4096C274.952 89.2158 276.523 90.1921 277.737 91.4581C278.942 92.7138 279.844 94.3062 280.521 96.4235C281.632 101.519 281.856 108.267 281.214 111.932C280.553 115.707 279.006 119.168 276.315 121.692C273.637 124.203 269.737 125.872 264.193 125.914L264.184 125.915C262.202 125.948 259.454 125.66 256.751 125.056C254.037 124.45 251.482 123.551 249.81 122.422C249.25 122.024 248.675 121.257 248.132 120.141C247.596 119.041 247.137 117.695 246.764 116.258C246.016 113.38 245.641 110.262 245.631 108.272C245.631 106.022 246.261 105.085 246.708 104.808C247.045 104.599 247.682 104.563 248.508 105.391C249.055 106.025 249.561 107.004 250.203 108.28L250.246 108.366C250.861 109.587 251.575 111.004 252.511 112.326C253.474 113.689 254.697 114.988 256.349 115.924C258.008 116.865 260.042 117.406 262.577 117.334C263.421 117.315 264.78 117.014 265.951 116.249C267.165 115.455 268.227 114.113 268.191 112.09C268.172 110.278 267.518 108.971 266.399 107.98C265.346 107.047 263.914 106.426 262.443 105.839C262.184 105.736 261.921 105.633 261.655 105.528L261.651 105.527C258.804 104.408 255.521 103.118 252.514 100.063L252.506 100.055L252.499 100.048C249.981 97.5963 248.013 94.4155 247.247 90.6454C246.511 87.0186 247.148 82.8435 248.645 79.4317C251.266 73.4563 256.788 67.7151 265.03 65.9423C266.904 65.5439 268.929 65.6801 270.665 65.9165C271.29 66.0017 271.857 66.0964 272.367 66.1818L272.371 66.1824C272.569 66.2155 272.759 66.2473 272.941 66.2765C273.257 66.3274 273.556 66.3717 273.813 66.3968C274.046 66.4194 274.345 66.4379 274.615 66.3872L274.619 66.3866Z" fill="#333333"/>
<path fill-rule="evenodd" clip-rule="evenodd" d="M238.718 78.0146C238.453 76.2655 237.881 74.267 236.951 72.7483C236.033 71.2506 234.555 69.9287 232.505 70.3437C232.108 70.4223 231.724 70.6208 231.397 70.7899C230.859 71.0682 230.315 71.3312 229.754 71.5589C228.34 72.1323 225.979 72.8784 221.776 73.593C215.717 74.217 209.656 74.3984 203.592 74.1374C203.245 74.0884 202.88 74.0236 202.473 73.9514C202.122 73.889 201.739 73.8211 201.309 73.753C200.423 73.6124 199.435 73.4899 198.507 73.5121C197.599 73.5339 196.607 73.6957 195.821 74.2493C194.967 74.8509 194.514 75.7991 194.511 77.0217V77.0244C194.511 78.3619 194.886 79.261 195.634 79.8888C196 80.1958 196.424 80.3991 196.849 80.6029C197.069 80.7082 197.289 80.8137 197.501 80.9337C197.996 81.2129 198.483 81.5987 198.892 82.4273C199.321 83.2955 199.69 84.7023 199.792 87.0674L199.792 87.0753C200.368 98.3576 200.368 98.361 199.804 108.083C199.743 109.127 199.676 110.283 199.603 111.578L199.602 111.582C199.499 113.546 199.163 114.636 198.805 115.262C198.473 115.842 198.086 116.088 197.653 116.275C197.49 116.346 197.361 116.393 197.213 116.447C197.109 116.484 196.996 116.526 196.855 116.581C196.567 116.694 196.213 116.849 195.888 117.105C195.15 117.687 194.821 118.565 194.821 119.804C194.821 120.344 194.835 121.44 195.552 122.528C196.282 123.636 197.619 124.563 199.897 125.061L199.931 125.069L199.965 125.074C208.751 126.366 217.537 127.133 226.323 127.374L226.337 127.374H226.351C228.193 127.374 229.753 127.546 231.067 127.691C231.657 127.756 232.187 127.855 232.653 127.941L232.738 127.957C232.858 127.979 232.978 128.003 233.098 128.027C233.565 128.12 234.039 128.214 234.511 128.214H234.519L234.527 128.214C235.174 128.204 235.724 127.882 236.149 127.516C236.583 127.143 236.981 126.641 237.345 126.081C238.075 124.958 238.761 123.447 239.35 121.806C240.524 118.532 241.387 114.519 241.371 111.599C241.365 110.341 241.084 108.897 240.487 107.739C239.9 106.6 238.858 105.491 237.278 105.545C236.429 105.573 235.714 105.834 235.12 106.292C234.545 106.734 234.133 107.322 233.806 107.925C233.481 108.525 233.207 109.206 232.946 109.867L232.879 110.037C232.634 110.659 232.39 111.278 232.097 111.895C231.466 113.228 230.646 114.469 229.285 115.394C227.927 116.316 225.93 116.992 222.826 117.004C222.512 116.994 222.216 116.985 221.936 116.977C220.679 116.941 219.746 116.913 218.996 116.792C218.124 116.652 217.709 116.413 217.427 116.036C217.097 115.594 216.825 114.803 216.662 113.261C216.5 111.743 216.456 109.662 216.451 106.773L216.451 106.753C216.446 105.479 216.441 104.346 216.701 103.524C216.823 103.138 216.979 102.911 217.144 102.78C217.296 102.659 217.551 102.541 218.035 102.554L218.046 102.554L218.058 102.554C219.428 102.559 220.066 102.977 220.433 103.446C220.855 103.985 221.063 104.767 221.218 105.77C221.253 106.001 221.285 106.237 221.317 106.474C221.353 106.736 221.388 107.001 221.43 107.264C221.508 107.758 221.611 108.284 221.79 108.763C221.971 109.246 222.251 109.745 222.722 110.121C223.207 110.51 223.803 110.696 224.478 110.704H224.491C225.93 110.704 226.943 109.8 227.616 108.723C228.285 107.652 228.728 106.254 229.031 104.846C229.641 102.015 229.751 98.8152 229.751 97.2344C229.751 95.7633 229.7 92.8808 229.161 90.3821C228.893 89.142 228.486 87.8974 227.833 86.961C227.158 85.9914 226.147 85.2694 224.771 85.3768C223.283 85.4687 222.303 86.1889 221.674 87.1849C221.095 88.1024 220.819 89.2495 220.597 90.1998L220.565 90.335C220.339 91.3059 220.159 92.0774 219.849 92.6502C219.699 92.9281 219.542 93.109 219.376 93.2256C219.219 93.3366 219.004 93.4252 218.674 93.4436C217.928 93.485 217.461 93.2668 217.132 92.9695C216.775 92.6468 216.51 92.1624 216.326 91.5837C216.144 91.0116 216.064 90.4161 216.032 89.951C216.008 89.6081 216.011 89.2626 216.014 88.9273L216.014 88.9242C216.014 88.8629 216.015 88.802 216.015 88.7415C216.016 88.6837 216.016 88.6262 216.016 88.5691C216.014 87.5494 216.012 86.6632 216.068 85.8673C216.134 84.9239 216.277 84.2096 216.539 83.6564C216.998 82.6901 217.982 81.8989 220.813 81.6608C223.241 81.4567 224.97 81.7232 226.26 82.1895C227.544 82.6538 228.452 83.3378 229.214 84.0641C229.568 84.4005 229.885 84.7401 230.206 85.0849L230.233 85.1141C230.601 85.5081 230.986 85.9218 231.4 86.2767C232.212 86.973 233.194 87.4916 234.548 87.3597L234.56 87.3584C236.957 87.0964 238.086 85.217 238.554 83.3797C239.023 81.5403 238.934 79.4418 238.718 78.0146ZM214.073 85.7274C214.011 86.6018 214.013 87.5741 214.016 88.5915C214.016 88.7131 214.015 88.8347 214.014 88.9563C214.012 89.3341 214.01 89.7125 214.036 90.0895C214.075 90.6487 214.173 91.4144 214.42 92.1895C214.664 92.9579 215.076 93.8069 215.791 94.4529C216.533 95.1243 217.53 95.5102 218.785 95.4405C219.454 95.4033 220.037 95.2067 220.529 94.8599C221.013 94.5188 221.355 94.0695 221.608 93.602C222.052 92.7807 222.29 91.7529 222.493 90.8767L222.522 90.7511L222.544 90.6546C222.779 89.6499 222.995 88.839 223.365 88.2529C223.684 87.7476 224.108 87.4199 224.901 87.3726L224.911 87.3719L224.922 87.3711C225.39 87.3331 225.79 87.5261 226.192 88.1042C226.62 88.7182 226.959 89.658 227.206 90.8041C227.697 93.0779 227.751 95.7754 227.751 97.2344C227.751 98.7635 227.641 101.799 227.076 104.425C226.791 105.746 226.408 106.882 225.92 107.664C225.438 108.435 224.966 108.702 224.497 108.704C224.192 108.699 224.05 108.623 223.972 108.56C223.878 108.485 223.769 108.344 223.664 108.062C223.557 107.777 223.478 107.412 223.406 106.953C223.369 106.721 223.335 106.472 223.301 106.217L223.3 106.214C223.267 105.968 223.233 105.715 223.194 105.466C223.036 104.441 222.777 103.195 222.007 102.213C221.184 101.161 219.909 100.563 218.075 100.554C217.224 100.534 216.486 100.747 215.898 101.215C215.321 101.674 214.99 102.3 214.794 102.922C214.437 104.051 214.444 105.46 214.45 106.591L214.451 106.778C214.456 109.657 214.499 111.837 214.673 113.472C214.844 115.083 215.155 116.337 215.825 117.233C216.543 118.193 217.545 118.584 218.678 118.767C219.57 118.911 220.672 118.942 221.935 118.978L221.937 118.979C222.21 118.986 222.491 118.994 222.778 119.004C225.378 119.089 228.234 118.525 230.409 117.048C232.176 115.847 233.191 114.257 233.905 112.751C234.227 112.07 234.496 111.39 234.738 110.776L234.806 110.602C235.073 109.927 235.305 109.356 235.565 108.877C235.822 108.401 236.073 108.082 236.34 107.876C236.587 107.686 236.893 107.559 237.344 107.544L237.345 107.544C237.795 107.528 238.277 107.815 238.709 108.655C239.133 109.477 239.366 110.597 239.371 111.609V111.61C239.385 114.22 238.593 117.992 237.467 121.13C236.906 122.696 236.281 124.048 235.668 124.991C235.36 125.465 235.08 125.797 234.843 126.002C234.625 126.189 234.512 126.212 234.497 126.214C234.156 126.206 233.812 126.135 233.473 126.064C233.356 126.04 233.24 126.016 233.126 125.995C232.515 125.881 231.909 125.772 231.292 125.704C229.982 125.559 228.318 125.375 226.365 125.374C217.674 125.135 208.983 124.377 200.291 123.1C198.384 122.677 197.583 121.975 197.222 121.428C196.847 120.858 196.821 120.274 196.821 119.804C196.821 118.929 197.036 118.748 197.126 118.676C197.216 118.606 197.348 118.536 197.584 118.443C197.609 118.434 197.636 118.423 197.667 118.412C197.71 118.396 197.758 118.378 197.811 118.358C198.003 118.287 198.246 118.198 198.447 118.111C199.155 117.805 199.936 117.311 200.54 116.255C201.118 115.246 201.488 113.804 201.599 111.689C201.671 110.422 201.737 109.287 201.797 108.258L201.798 108.237C202.368 98.4131 202.371 98.3603 201.79 86.9773C201.681 84.4696 201.285 82.755 200.685 81.5411C200.065 80.2869 199.259 79.6296 198.485 79.1925C198.216 79.0404 197.934 78.907 197.705 78.7984C197.297 78.6056 197.079 78.4905 196.919 78.3565C196.744 78.2091 196.511 77.9471 196.511 77.0257C196.513 76.3393 196.735 76.0514 196.972 75.8844C197.278 75.6693 197.793 75.5298 198.555 75.5116C199.297 75.4938 200.141 75.5926 200.996 75.7283C201.335 75.782 201.699 75.846 202.055 75.9086C202.531 75.9925 202.994 76.0739 203.364 76.125L203.411 76.1314C209.615 76.4008 215.836 76.2169 222.014 75.5791C224.856 75.2856 227.863 74.4839 230.505 73.4123C231.299 73.0904 231.847 72.8082 232.245 72.6031C232.686 72.376 232.81 72.3221 232.893 72.3057L232.9 72.3043C233.711 72.1395 234.492 72.5632 235.245 73.7932C235.987 75.003 236.498 76.7154 236.74 78.3141C236.934 79.5938 236.995 81.3998 236.616 82.8859C236.238 84.3716 235.525 85.2384 234.348 85.3696C233.708 85.4305 233.248 85.2269 232.702 84.7587C232.383 84.4852 232.06 84.1412 231.666 83.7181C231.35 83.3784 230.992 82.9953 230.593 82.6155C229.696 81.7612 228.558 80.8939 226.94 80.3087C225.328 79.7256 223.3 79.4447 220.645 79.6679C217.512 79.9313 215.639 80.8901 214.733 82.7984C214.313 83.6826 214.146 84.6867 214.073 85.7274ZM224.497 108.704L224.504 108.704L224.491 108.704L224.497 108.704Z" fill="#333333"/>
<path d="M243.676 32.2195C243.468 32.2195 243.288 32.1828 243.135 32.1093C242.982 32.0329 242.855 31.9242 242.754 31.7835C242.656 31.6428 242.582 31.4699 242.533 31.2649C242.488 31.0599 242.465 30.8258 242.465 30.5627C242.465 30.3027 242.488 30.0701 242.533 29.8651C242.582 29.6571 242.656 29.4827 242.754 29.3419C242.855 29.2012 242.982 29.0941 243.135 29.0207C243.288 28.9442 243.468 28.9059 243.676 28.9059C244.092 28.9059 244.398 29.0513 244.594 29.3419C244.79 29.6326 244.888 30.0395 244.888 30.5627C244.888 31.0859 244.79 31.4928 244.594 31.7835C244.398 32.0742 244.092 32.2195 243.676 32.2195ZM243.676 31.7284C243.783 31.7284 243.874 31.7085 243.947 31.6688C244.02 31.6259 244.079 31.5663 244.121 31.4898C244.167 31.4133 244.199 31.32 244.218 31.2098C244.239 31.0966 244.25 30.9712 244.25 30.8335V30.2874C244.25 30.012 244.207 29.7948 244.121 29.6357C244.039 29.4766 243.89 29.397 243.676 29.397C243.462 29.397 243.312 29.4766 243.226 29.6357C243.144 29.7948 243.103 30.012 243.103 30.2874V30.8381C243.103 31.1134 243.144 31.3307 243.226 31.4898C243.312 31.6489 243.462 31.7284 243.676 31.7284Z" fill="#333333"/>
<path d="M248.286 31.8599L249.381 28.8497L250.524 29.2656C250.817 29.3724 251.011 29.5374 251.106 29.7606C251.2 29.9839 251.195 30.2393 251.091 30.5268C250.986 30.8143 250.826 31.0132 250.61 31.1234C250.394 31.2337 250.139 31.2354 249.846 31.1287L249.268 30.9184L248.851 32.0655L248.286 31.8599ZM249.436 30.4569L249.898 30.6249C250.05 30.6803 250.17 30.6899 250.258 30.6536C250.347 30.6144 250.417 30.5273 250.466 30.3921L250.525 30.2283C250.575 30.0931 250.577 29.9833 250.533 29.8989C250.49 29.8116 250.392 29.7402 250.24 29.6847L249.778 29.5168L249.436 30.4569Z" fill="#333333"/>
<path d="M253.531 34.54L255.59 32.086L256.522 32.8678C256.761 33.0684 256.887 33.2898 256.899 33.5319C256.912 33.774 256.82 34.0123 256.623 34.2467C256.427 34.4811 256.208 34.6131 255.967 34.6429C255.727 34.6726 255.487 34.5872 255.248 34.3866L254.777 33.9913L253.992 34.9264L253.531 34.54ZM255.092 33.6151L255.468 33.9307C255.593 34.035 255.702 34.0851 255.798 34.0811C255.895 34.0748 255.99 34.0165 256.082 33.9064L256.194 33.7728C256.287 33.6626 256.326 33.5603 256.314 33.4659C256.303 33.3691 256.236 33.2686 256.112 33.1643L255.735 32.8487L255.092 33.6151Z" fill="#333333"/>
<path d="M258.001 39.7545C257.897 39.5743 257.839 39.3997 257.826 39.2305C257.816 39.0597 257.846 38.8955 257.918 38.7376C257.991 38.5825 258.104 38.4325 258.257 38.2876C258.411 38.1453 258.602 38.0084 258.83 37.8769C259.055 37.7468 259.268 37.6504 259.469 37.5877C259.673 37.5261 259.861 37.5024 260.032 37.5169C260.204 37.5339 260.361 37.5904 260.501 37.6861C260.643 37.7804 260.767 37.9176 260.871 38.0978C261.079 38.4581 261.106 38.7957 260.952 39.1107C260.798 39.4256 260.495 39.7138 260.042 39.9754C259.589 40.237 259.187 40.3557 258.838 40.3314C258.488 40.3072 258.209 40.1149 258.001 39.7545ZM258.427 39.509C258.48 39.6017 258.542 39.67 258.614 39.7137C258.687 39.7558 258.768 39.7764 258.856 39.7752C258.945 39.7767 259.042 39.7579 259.146 39.7187C259.255 39.6806 259.369 39.6272 259.488 39.5583L259.961 39.2853C260.2 39.1476 260.367 39.0019 260.462 38.8481C260.558 38.6971 260.553 38.5288 260.446 38.3433C260.339 38.1578 260.195 38.0677 260.014 38.0731C259.835 38.0811 259.626 38.154 259.388 38.2916L258.911 38.567C258.672 38.7047 258.505 38.8491 258.408 39.0002C258.313 39.1539 258.319 39.3235 258.427 39.509Z" fill="#333333"/>
<path d="M259.93 45.1077C259.882 44.8365 259.888 44.5963 259.948 44.387C260.008 44.1807 260.104 44.0037 260.236 43.8561L260.67 44.1478C260.555 44.2892 260.476 44.4336 260.434 44.5808C260.395 44.7306 260.389 44.8838 260.417 45.0405C260.449 45.2213 260.514 45.3527 260.612 45.4348C260.711 45.5169 260.837 45.5444 260.99 45.5173C261.117 45.495 261.206 45.4421 261.256 45.3586C261.31 45.2746 261.335 45.1443 261.332 44.9678L261.327 44.6238C261.327 44.3225 261.395 44.096 261.533 43.9443C261.674 43.792 261.855 43.6965 262.075 43.6578C262.376 43.6046 262.624 43.6619 262.818 43.8296C263.015 43.9968 263.144 44.2536 263.205 44.6001C263.249 44.8472 263.247 45.0665 263.2 45.2581C263.154 45.4527 263.072 45.6162 262.956 45.7486L262.524 45.4659C262.608 45.364 262.669 45.2493 262.706 45.1217C262.745 44.9935 262.751 44.8496 262.723 44.6899C262.662 44.3464 262.49 44.1996 262.207 44.2496C262.086 44.2708 262.001 44.3232 261.95 44.4067C261.9 44.4901 261.875 44.6219 261.876 44.802L261.875 45.1423C261.872 45.4255 261.807 45.6467 261.68 45.8058C261.552 45.965 261.371 46.0653 261.136 46.1067C260.989 46.1327 260.849 46.131 260.716 46.1016C260.586 46.0716 260.468 46.0149 260.36 45.9314C260.255 45.8474 260.165 45.7358 260.091 45.5966C260.017 45.4605 259.964 45.2975 259.93 45.1077Z" fill="#333333"/>
<path d="M260.143 50.1515L260.586 50.2296L260.461 50.9392L262.73 51.3392L262.855 50.6296L263.298 50.7077L262.944 52.7145L262.501 52.6364L262.626 51.9268L260.357 51.5267L260.232 52.2363L259.789 52.1582L260.143 50.1515Z" fill="#333333"/>
<path d="M260.224 57.2538L260.247 57.214L258.256 56.0644L258.513 55.6193L261.287 57.221L260.918 57.8609L258.506 57.4386L258.484 57.4783L260.475 58.6279L260.218 59.0731L257.444 57.4714L257.813 56.8315L260.224 57.2538Z" fill="#333333"/>
<path d="M253.95 61.8395L253.978 61.8159C253.958 61.749 253.944 61.6793 253.935 61.6069C253.926 61.5344 253.929 61.4619 253.944 61.3894C253.959 61.3169 253.988 61.2445 254.031 61.1723C254.072 61.102 254.131 61.0344 254.209 60.9695C254.457 60.7611 254.737 60.7118 255.049 60.8216C255.361 60.9357 255.682 61.1908 256.015 61.5869C256.365 62.0041 256.557 62.3858 256.592 62.7319C256.627 63.0781 256.489 63.382 256.177 63.6436C256.055 63.7458 255.935 63.8189 255.816 63.8628C255.694 63.9087 255.576 63.9298 255.462 63.9263C255.344 63.9247 255.23 63.9006 255.119 63.854C255.008 63.8117 254.9 63.7545 254.796 63.6823L255.117 63.2088C255.177 63.2466 255.238 63.2813 255.3 63.3128C255.36 63.3463 255.421 63.3668 255.484 63.3745C255.546 63.3864 255.608 63.3842 255.67 63.3679C255.734 63.354 255.799 63.3195 255.865 63.2644C256.017 63.1366 256.075 62.9842 256.038 62.8073C256.002 62.6303 255.895 62.4364 255.718 62.2255L255.387 61.8317C255.299 61.7262 255.21 61.6349 255.122 61.5576C255.032 61.4846 254.944 61.4313 254.855 61.3975C254.767 61.3637 254.68 61.3528 254.594 61.3649C254.511 61.3793 254.426 61.4219 254.342 61.4927C254.211 61.6028 254.144 61.7251 254.141 61.8594C254.14 61.9962 254.19 62.1255 254.292 62.2473L254.461 62.4477L254.907 62.0731L255.187 62.4071L254.329 63.1269L253.253 61.8436L253.664 61.4985L253.95 61.8395Z" fill="#333333"/>
<path d="M242.93 66.7099V64.0022H243.527V66.7099H244.49V67.2056H241.966V66.7099H242.93Z" fill="#333333"/>
<path d="M236.604 65.126L237.483 65.4462L237.954 64.1524L238.519 64.3581L237.424 67.3683L236.859 67.1627L237.314 65.912L236.434 65.5918L235.979 66.8424L235.414 66.6368L236.509 63.6266L237.074 63.8322L236.604 65.126Z" fill="#333333"/>
<path d="M232.348 60.9186C232.507 61.0523 232.622 61.1965 232.692 61.3511C232.76 61.508 232.788 61.6728 232.774 61.8456C232.759 62.0163 232.704 62.1959 232.61 62.3844C232.513 62.571 232.38 62.765 232.211 62.9666C232.044 63.1658 231.877 63.3292 231.71 63.4567C231.539 63.5846 231.371 63.671 231.205 63.7159C231.037 63.7588 230.871 63.7592 230.707 63.7171C230.54 63.6774 230.378 63.5907 230.218 63.4569C229.899 63.1895 229.758 62.8815 229.795 62.5329C229.832 62.1844 230.019 61.8098 230.355 61.409C230.691 61.0082 231.028 60.7594 231.365 60.6626C231.702 60.5658 232.029 60.6511 232.348 60.9186ZM232.032 61.2948C231.95 61.226 231.868 61.1832 231.787 61.1664C231.703 61.1521 231.62 61.1604 231.538 61.1915C231.454 61.2205 231.369 61.2714 231.284 61.344C231.195 61.4169 231.106 61.5061 231.018 61.6116L230.667 62.03C230.49 62.2409 230.383 62.4348 230.346 62.6118C230.307 62.7868 230.37 62.9431 230.534 63.0808C230.698 63.2184 230.864 63.2539 231.032 63.187C231.197 63.1183 231.369 62.9784 231.546 62.7675L231.9 62.3456C232.077 62.1346 232.185 61.9417 232.224 61.7667C232.26 61.5898 232.196 61.4325 232.032 61.2948Z" fill="#333333"/>
<path d="M226.11 58.5708L227.839 57.5726C227.942 57.5129 228.033 57.4567 228.112 57.404C228.19 57.3486 228.25 57.2908 228.293 57.2307C228.332 57.1694 228.351 57.1018 228.351 57.0278C228.349 56.9511 228.319 56.8625 228.261 56.7618C228.203 56.6611 228.142 56.5921 228.078 56.5548C228.012 56.5149 227.944 56.4977 227.873 56.5034C227.798 56.5079 227.718 56.5312 227.633 56.5733C227.546 56.6128 227.451 56.6623 227.348 56.722L225.619 57.7202L225.318 57.1995L226.967 56.2472C227.164 56.134 227.341 56.0473 227.501 55.987C227.66 55.9267 227.809 55.9027 227.947 55.915C228.085 55.9273 228.215 55.9812 228.337 56.0766C228.455 56.171 228.571 56.3175 228.686 56.5162C228.801 56.715 228.87 56.8904 228.895 57.0424C228.915 57.1934 228.895 57.3316 228.837 57.4571C228.779 57.5826 228.684 57.6993 228.552 57.8073C228.42 57.9153 228.256 58.0259 228.06 58.1391L226.41 59.0914L226.11 58.5708Z" fill="#333333"/>
<path d="M226.068 50.4083L226.074 50.4445C226.142 50.4605 226.21 50.4827 226.277 50.5113C226.344 50.5398 226.405 50.5787 226.46 50.628C226.516 50.6773 226.564 50.7387 226.605 50.8122C226.645 50.8828 226.674 50.9678 226.692 51.0672C226.748 51.3866 226.651 51.6539 226.4 51.869C226.145 52.0817 225.763 52.2329 225.254 52.3227C224.718 52.4172 224.291 52.3931 223.974 52.2502C223.656 52.1073 223.462 51.8355 223.392 51.4347C223.364 51.278 223.361 51.1372 223.383 51.0123C223.403 50.8843 223.444 50.7715 223.505 50.6738C223.565 50.5732 223.642 50.4864 223.738 50.4136C223.831 50.3383 223.934 50.2734 224.049 50.219L224.298 50.7343C224.236 50.7671 224.175 50.8026 224.117 50.8409C224.058 50.8761 224.009 50.9188 223.971 50.969C223.93 51.0167 223.901 51.0715 223.884 51.1336C223.864 51.1961 223.861 51.2696 223.876 51.354C223.911 51.5498 224.014 51.6761 224.185 51.7328C224.357 51.7896 224.578 51.794 224.849 51.7462L225.356 51.657C225.491 51.6331 225.615 51.602 225.726 51.5637C225.834 51.523 225.924 51.4728 225.998 51.4133C226.071 51.3537 226.124 51.2838 226.156 51.2035C226.186 51.1238 226.191 51.0297 226.172 50.9212C226.142 50.7525 226.07 50.6332 225.955 50.5633C225.837 50.494 225.7 50.4732 225.543 50.5008L225.286 50.5462L225.387 51.1202L224.957 51.1959L224.763 50.0931L226.413 49.8022L226.506 50.331L226.068 50.4083Z" fill="#333333"/>
<path d="M225.352 44.4324L225.19 45.3545L226.546 45.5935L226.441 46.1856L223.286 45.6294L223.391 45.0373L224.702 45.2684L224.864 44.3464L223.553 44.1153L223.658 43.5232L226.813 44.0794L226.708 44.6715L225.352 44.4324Z" fill="#333333"/>
<path d="M226.443 37.9922L228.788 39.3461L228.49 39.8628L226.145 38.5089L225.663 39.3436L225.234 39.0958L226.496 36.9098L226.925 37.1576L226.443 37.9922Z" fill="#333333"/>
<path d="M232.428 35.1638C232.217 35.3408 232.007 35.4559 231.796 35.5091C231.587 35.5604 231.386 35.5656 231.192 35.5247L231.227 35.0034C231.407 35.0321 231.572 35.0281 231.72 34.9911C231.869 34.9499 232.005 34.8781 232.127 34.7759C232.267 34.6579 232.349 34.5357 232.371 34.4095C232.393 34.2833 232.353 34.1604 232.253 34.0409C232.17 33.9425 232.08 33.8922 231.983 33.8902C231.883 33.8859 231.758 33.9292 231.607 34.0202L231.311 34.1963C231.05 34.3472 230.82 34.4009 230.619 34.3573C230.417 34.3114 230.244 34.2029 230.101 34.0318C229.904 33.7974 229.83 33.5542 229.878 33.3021C229.924 33.0477 230.082 32.8074 230.351 32.5813C230.543 32.42 230.734 32.3118 230.924 32.2567C231.115 32.1996 231.298 32.1885 231.471 32.2231L231.442 32.7386C231.311 32.7163 231.182 32.7212 231.053 32.7534C230.922 32.7832 230.795 32.8503 230.67 32.9545C230.403 33.1787 230.362 33.4009 230.547 33.6213C230.626 33.715 230.714 33.7629 230.811 33.7649C230.909 33.7669 231.035 33.7226 231.191 33.632L231.486 33.4624C231.733 33.3232 231.957 33.269 232.158 33.2997C232.36 33.3303 232.537 33.437 232.691 33.6199C232.787 33.7347 232.855 33.8569 232.896 33.9864C232.935 34.1136 232.945 34.2448 232.927 34.38C232.907 34.5129 232.855 34.6463 232.771 34.7801C232.69 34.912 232.576 35.0399 232.428 35.1638Z" fill="#333333"/>
<path d="M249.619 64.6052C249.619 64.9166 249.366 65.1691 249.055 65.1691C248.743 65.1691 248.491 64.9166 248.491 64.6052C248.491 64.2937 248.743 64.0412 249.055 64.0412C249.366 64.0412 249.619 64.2937 249.619 64.6052Z" fill="#333333"/>
<path d="M237.736 31.464C237.736 31.7754 237.483 32.0279 237.172 32.0279C236.86 32.0279 236.608 31.7754 236.608 31.464C236.608 31.1525 236.86 30.9 237.172 30.9C237.483 30.9 237.736 31.1525 237.736 31.464Z" fill="#333333"/>
</svg>
