<svg width="256" height="263" viewBox="0 0 256 263" fill="none" xmlns="http://www.w3.org/2000/svg">
<path d="M230.521 23.3434L229.067 26.8669H236C247.046 26.8669 256 35.8212 256 46.8669V111.867C256 158.448 218.967 196.379 172.737 197.824C167.915 200.368 162.848 202.514 157.582 204.218C160.145 207.072 163.862 208.867 168 208.867H197C211.912 208.867 224 220.955 224 235.867C224 250.779 211.912 262.867 197 262.867H59C44.0883 262.867 32 250.779 32 235.867C32 220.955 44.0883 208.867 59 208.867H88C92.1376 208.867 95.856 207.072 98.4189 204.218C93.1527 202.514 88.0861 200.368 83.2637 197.824C37.0335 196.379 0 158.448 0 111.867V46.8669C0 35.8212 8.95428 26.8669 20 26.8669H33.8711C36.8165 20.94 42.9326 16.8669 50 16.8669H164.562C168.749 11.8375 175.721 9.14799 183.478 12.3473L191.486 15.6501C193.362 16.4237 195.524 15.8195 196.727 14.1852L201.861 7.20867C213.452 -8.54217 237.976 5.2673 230.521 23.3434Z" fill="#2678F4"/>
<path fill-rule="evenodd" clip-rule="evenodd" d="M206 32.8694C207.105 32.8694 208 33.7648 208 34.8694V40.8694C208 41.974 208.895 42.8694 210 42.8694H236C238.209 42.8694 240 44.6602 240 46.8694V111.869C240 150.529 208.66 181.869 170 181.869H168.51C160.073 186.833 150.646 190.294 140.596 191.883C139.119 192.117 138 193.373 138 194.869C138 211.438 151.431 224.869 168 224.869H197C203.075 224.869 208 229.794 208 235.869C208 241.945 203.075 246.869 197 246.869H59C52.9249 246.869 48 241.945 48 235.869C48 229.794 52.9249 224.869 59 224.869H88C104.569 224.869 118 211.438 118 194.869C118 193.373 116.881 192.117 115.404 191.883C105.354 190.294 95.9269 186.833 87.4902 181.869H86C47.3401 181.869 16 150.529 16 111.869V46.8694C16 44.6602 17.7909 42.8694 20 42.8694H46C47.1046 42.8694 48 41.974 48 40.8694V34.8694C48 33.7648 48.8954 32.8694 50 32.8694H206ZM48 52.8694C48 51.7648 47.1046 50.8694 46 50.8694H26C24.8954 50.8694 24 51.7648 24 52.8694V111.869C24 142.407 46.0781 167.789 75.1432 172.922C58.5002 158.262 48 136.792 48 112.869V52.8694ZM180.857 172.922C209.922 167.789 232 142.407 232 111.869V52.8694C232 51.7648 231.105 50.8694 230 50.8694H210C208.895 50.8694 208 51.7648 208 52.8694V112.869C208 136.792 197.5 158.262 180.857 172.922Z" fill="#FFD600"/>
<path fill-rule="evenodd" clip-rule="evenodd" d="M47 34.8694C47 33.2125 48.3431 31.8694 50 31.8694H206C207.657 31.8694 209 33.2125 209 34.8694V40.8694C209 41.4217 209.448 41.8694 210 41.8694H236C238.761 41.8694 241 44.108 241 46.8694V111.869C241 151.082 209.212 182.869 170 182.869H168.781C160.299 187.822 150.835 191.276 140.752 192.871C139.739 193.031 139 193.887 139 194.869C139 210.886 151.984 223.869 168 223.869H197C203.627 223.869 209 229.242 209 235.869C209 242.497 203.627 247.869 197 247.869H59C52.3726 247.869 47 242.497 47 235.869C47 229.242 52.3726 223.869 59 223.869H88C104.016 223.869 117 210.886 117 194.869C117 193.887 116.261 193.031 115.248 192.871C105.165 191.276 95.7009 187.822 87.2188 182.869H86C46.7878 182.869 15 151.082 15 111.869V46.8694C15 44.108 17.2386 41.8694 20 41.8694H46C46.5523 41.8694 47 41.4217 47 40.8694V34.8694ZM50 33.8694C49.4477 33.8694 49 34.3171 49 34.8694V40.8694C49 42.5262 47.6569 43.8694 46 43.8694H20C18.3431 43.8694 17 45.2125 17 46.8694V111.869C17 149.977 47.8924 180.869 86 180.869H87.7626L87.9973 181.008C96.3283 185.909 105.637 189.326 115.56 190.896C117.502 191.203 119 192.86 119 194.869C119 211.99 105.121 225.869 88 225.869H59C53.4772 225.869 49 230.347 49 235.869C49 241.392 53.4772 245.869 59 245.869H197C202.523 245.869 207 241.392 207 235.869C207 230.347 202.523 225.869 197 225.869H168C150.879 225.869 137 211.99 137 194.869C137 192.86 138.498 191.203 140.44 190.896C150.363 189.326 159.672 185.909 168.003 181.008L168.237 180.869H170C208.108 180.869 239 149.977 239 111.869V46.8694C239 45.2125 237.657 43.8694 236 43.8694H210C208.343 43.8694 207 42.5262 207 40.8694V34.8694C207 34.3171 206.552 33.8694 206 33.8694H50ZM23 52.8694C23 51.2125 24.3431 49.8694 26 49.8694H46C47.6569 49.8694 49 51.2125 49 52.8694V112.869C49 136.493 59.3676 157.693 75.8042 172.172L78.4775 174.526L74.9693 173.907C45.4347 168.69 23 142.901 23 111.869V52.8694ZM26 51.8694C25.4477 51.8694 25 52.3171 25 52.8694V111.869C25 140.673 44.9642 164.815 71.8099 171.21C56.5164 156.477 47 135.784 47 112.869V52.8694C47 52.3171 46.5523 51.8694 46 51.8694H26ZM207 52.8694C207 51.2125 208.343 49.8694 210 49.8694H230C231.657 49.8694 233 51.2125 233 52.8694V111.869C233 142.901 210.565 168.69 181.031 173.907L177.523 174.526L180.196 172.172C196.632 157.693 207 136.493 207 112.869V52.8694ZM210 51.8694C209.448 51.8694 209 52.3171 209 52.8694V112.869C209 135.784 199.484 156.477 184.19 171.21C211.036 164.815 231 140.673 231 111.869V52.8694C231 52.3171 230.552 51.8694 230 51.8694H210Z" fill="#333333"/>
<path d="M128.416 147.923C128.208 147.923 128.027 147.886 127.875 147.813C127.722 147.736 127.595 147.628 127.494 147.487C127.396 147.346 127.322 147.173 127.273 146.968C127.227 146.763 127.204 146.529 127.204 146.266C127.204 146.006 127.227 145.773 127.273 145.568C127.322 145.36 127.396 145.186 127.494 145.045C127.595 144.904 127.722 144.797 127.875 144.724C128.027 144.647 128.208 144.609 128.416 144.609C128.832 144.609 129.138 144.755 129.334 145.045C129.53 145.336 129.628 145.743 129.628 146.266C129.628 146.789 129.53 147.196 129.334 147.487C129.138 147.777 128.832 147.923 128.416 147.923ZM128.416 147.432C128.523 147.432 128.613 147.412 128.687 147.372C128.76 147.329 128.818 147.27 128.861 147.193C128.907 147.117 128.939 147.023 128.958 146.913C128.979 146.8 128.99 146.674 128.99 146.537V145.991C128.99 145.715 128.947 145.498 128.861 145.339C128.779 145.18 128.63 145.1 128.416 145.1C128.202 145.1 128.052 145.18 127.966 145.339C127.884 145.498 127.842 145.715 127.842 145.991V146.541C127.842 146.817 127.884 147.034 127.966 147.193C128.052 147.352 128.202 147.432 128.416 147.432Z" fill="#333333"/>
<path d="M133.026 147.563L134.121 144.553L135.264 144.969C135.557 145.076 135.751 145.241 135.846 145.464C135.94 145.687 135.935 145.943 135.831 146.23C135.726 146.518 135.566 146.716 135.35 146.827C135.134 146.937 134.879 146.939 134.586 146.832L134.008 146.622L133.59 147.769L133.026 147.563ZM134.176 146.16L134.637 146.328C134.79 146.384 134.91 146.393 134.998 146.357C135.087 146.318 135.156 146.231 135.206 146.095L135.265 145.932C135.314 145.796 135.317 145.687 135.273 145.602C135.23 145.515 135.132 145.443 134.98 145.388L134.518 145.22L134.176 146.16Z" fill="#333333"/>
<path d="M138.271 150.243L140.33 147.789L141.262 148.571C141.501 148.772 141.627 148.993 141.639 149.235C141.652 149.477 141.56 149.716 141.363 149.95C141.166 150.184 140.948 150.316 140.707 150.346C140.466 150.376 140.227 150.29 139.988 150.09L139.516 149.695L138.732 150.63L138.271 150.243ZM139.832 149.318L140.208 149.634C140.333 149.738 140.442 149.788 140.537 149.784C140.635 149.778 140.729 149.72 140.822 149.61L140.934 149.476C141.026 149.366 141.066 149.264 141.054 149.169C141.043 149.072 140.976 148.972 140.851 148.868L140.475 148.552L139.832 149.318Z" fill="#333333"/>
<path d="M142.741 155.458C142.637 155.278 142.579 155.103 142.566 154.934C142.555 154.763 142.586 154.599 142.657 154.441C142.73 154.286 142.843 154.136 142.996 153.991C143.151 153.849 143.342 153.712 143.57 153.58C143.795 153.45 144.008 153.354 144.209 153.291C144.413 153.229 144.601 153.206 144.772 153.22C144.944 153.237 145.101 153.294 145.241 153.389C145.383 153.484 145.507 153.621 145.611 153.801C145.819 154.161 145.846 154.499 145.692 154.814C145.538 155.129 145.235 155.417 144.782 155.679C144.329 155.94 143.927 156.059 143.578 156.035C143.228 156.01 142.949 155.818 142.741 155.458ZM143.166 155.212C143.22 155.305 143.282 155.373 143.353 155.417C143.427 155.459 143.508 155.48 143.596 155.478C143.685 155.48 143.782 155.461 143.886 155.422C143.995 155.384 144.109 155.33 144.228 155.262L144.701 154.989C144.94 154.851 145.106 154.705 145.201 154.551C145.298 154.4 145.293 154.232 145.185 154.047C145.078 153.861 144.935 153.771 144.754 153.776C144.575 153.784 144.366 153.857 144.128 153.995L143.651 154.27C143.412 154.408 143.245 154.552 143.148 154.703C143.053 154.857 143.059 155.027 143.166 155.212Z" fill="#333333"/>
<path d="M144.67 160.811C144.622 160.54 144.628 160.3 144.687 160.09C144.747 159.884 144.844 159.707 144.976 159.559L145.41 159.851C145.295 159.993 145.216 160.137 145.174 160.284C145.135 160.434 145.129 160.587 145.157 160.744C145.189 160.925 145.254 161.056 145.352 161.138C145.451 161.22 145.577 161.248 145.73 161.221C145.857 161.198 145.945 161.145 145.996 161.062C146.049 160.978 146.075 160.848 146.071 160.671L146.067 160.327C146.066 160.026 146.135 159.799 146.273 159.648C146.414 159.495 146.594 159.4 146.814 159.361C147.116 159.308 147.364 159.365 147.558 159.533C147.755 159.7 147.884 159.957 147.945 160.303C147.989 160.55 147.987 160.77 147.94 160.961C147.894 161.156 147.812 161.319 147.696 161.452L147.264 161.169C147.348 161.067 147.409 160.953 147.445 160.825C147.485 160.697 147.491 160.553 147.462 160.393C147.402 160.05 147.23 159.903 146.947 159.953C146.826 159.974 146.741 160.026 146.69 160.11C146.64 160.193 146.615 160.325 146.615 160.505L146.615 160.846C146.612 161.129 146.547 161.35 146.42 161.509C146.292 161.668 146.111 161.769 145.876 161.81C145.729 161.836 145.588 161.834 145.456 161.805C145.326 161.775 145.208 161.718 145.1 161.635C144.995 161.551 144.905 161.439 144.831 161.3C144.757 161.164 144.704 161.001 144.67 160.811Z" fill="#333333"/>
<path d="M144.883 165.855L145.326 165.933L145.201 166.642L147.47 167.043L147.595 166.333L148.038 166.411L147.684 168.418L147.241 168.34L147.366 167.63L145.097 167.23L144.972 167.94L144.529 167.861L144.883 165.855Z" fill="#333333"/>
<path d="M144.964 172.957L144.987 172.917L142.996 171.768L143.253 171.323L146.027 172.924L145.658 173.564L143.246 173.142L143.223 173.182L145.215 174.331L144.958 174.776L142.183 173.175L142.553 172.535L144.964 172.957Z" fill="#333333"/>
<path d="M138.69 177.543L138.718 177.519C138.698 177.452 138.683 177.383 138.675 177.31C138.666 177.238 138.669 177.165 138.684 177.093C138.699 177.02 138.728 176.948 138.771 176.876C138.812 176.805 138.871 176.738 138.949 176.673C139.197 176.464 139.477 176.415 139.789 176.525C140.1 176.639 140.422 176.894 140.755 177.29C141.105 177.707 141.297 178.089 141.332 178.435C141.367 178.781 141.228 179.085 140.917 179.347C140.795 179.449 140.674 179.522 140.556 179.566C140.434 179.612 140.316 179.633 140.201 179.63C140.084 179.628 139.97 179.604 139.859 179.557C139.748 179.515 139.64 179.458 139.535 179.386L139.857 178.912C139.917 178.95 139.978 178.985 140.04 179.016C140.1 179.05 140.161 179.07 140.224 179.078C140.286 179.09 140.348 179.088 140.41 179.071C140.474 179.057 140.539 179.023 140.605 178.968C140.757 178.84 140.815 178.688 140.778 178.511C140.742 178.334 140.635 178.14 140.458 177.929L140.127 177.535C140.039 177.43 139.95 177.338 139.861 177.261C139.772 177.188 139.683 177.135 139.595 177.101C139.507 177.067 139.42 177.056 139.334 177.068C139.25 177.083 139.166 177.125 139.082 177.196C138.951 177.306 138.884 177.428 138.88 177.563C138.879 177.699 138.93 177.829 139.032 177.951L139.2 178.151L139.647 177.776L139.927 178.11L139.069 178.83L137.993 177.547L138.404 177.202L138.69 177.543Z" fill="#333333"/>
<path d="M127.67 182.413V179.705H128.266V182.413H129.23V182.909H126.706V182.413H127.67Z" fill="#333333"/>
<path d="M121.343 180.829L122.223 181.15L122.694 179.856L123.259 180.061L122.163 183.072L121.598 182.866L122.054 181.615L121.174 181.295L120.719 182.546L120.154 182.34L121.249 179.33L121.814 179.536L121.343 180.829Z" fill="#333333"/>
<path d="M117.088 176.622C117.247 176.756 117.362 176.9 117.432 177.054C117.5 177.211 117.527 177.376 117.514 177.549C117.499 177.72 117.444 177.899 117.35 178.088C117.253 178.274 117.12 178.468 116.951 178.67C116.784 178.869 116.617 179.032 116.45 179.16C116.279 179.288 116.11 179.374 115.945 179.419C115.777 179.462 115.611 179.463 115.447 179.42C115.28 179.381 115.117 179.294 114.958 179.16C114.639 178.893 114.498 178.585 114.535 178.236C114.572 177.888 114.759 177.513 115.095 177.112C115.431 176.711 115.768 176.463 116.105 176.366C116.441 176.269 116.769 176.354 117.088 176.622ZM116.772 176.998C116.69 176.929 116.608 176.886 116.526 176.87C116.443 176.855 116.36 176.864 116.278 176.895C116.194 176.924 116.109 176.975 116.024 177.047C115.935 177.12 115.846 177.209 115.758 177.315L115.407 177.733C115.23 177.944 115.123 178.138 115.086 178.315C115.047 178.49 115.11 178.646 115.274 178.784C115.438 178.922 115.604 178.957 115.772 178.89C115.937 178.822 116.108 178.682 116.285 178.471L116.639 178.049C116.816 177.838 116.924 177.645 116.963 177.47C117 177.293 116.936 177.136 116.772 176.998Z" fill="#333333"/>
<path d="M110.85 174.274L112.578 173.276C112.682 173.216 112.773 173.16 112.852 173.107C112.93 173.052 112.99 172.994 113.033 172.934C113.072 172.873 113.091 172.805 113.091 172.731C113.089 172.654 113.059 172.566 113.001 172.465C112.943 172.364 112.882 172.295 112.818 172.258C112.752 172.218 112.684 172.201 112.613 172.207C112.538 172.211 112.458 172.234 112.373 172.277C112.286 172.316 112.191 172.366 112.087 172.425L110.359 173.423L110.058 172.903L111.707 171.951C111.903 171.837 112.081 171.751 112.241 171.69C112.4 171.63 112.549 171.606 112.687 171.618C112.824 171.631 112.955 171.684 113.077 171.78C113.195 171.874 113.311 172.021 113.426 172.22C113.541 172.418 113.61 172.594 113.634 172.746C113.654 172.897 113.635 173.035 113.577 173.16C113.519 173.286 113.424 173.403 113.292 173.511C113.16 173.619 112.996 173.729 112.8 173.842L111.15 174.795L110.85 174.274Z" fill="#333333"/>
<path d="M110.807 166.112L110.814 166.148C110.882 166.164 110.949 166.186 111.017 166.215C111.084 166.243 111.145 166.282 111.2 166.331C111.256 166.381 111.304 166.442 111.345 166.516C111.385 166.586 111.414 166.671 111.432 166.771C111.488 167.09 111.391 167.357 111.14 167.572C110.885 167.785 110.503 167.936 109.994 168.026C109.458 168.121 109.031 168.096 108.714 167.953C108.396 167.811 108.202 167.539 108.132 167.138C108.104 166.981 108.101 166.84 108.122 166.716C108.143 166.588 108.184 166.475 108.245 166.377C108.304 166.276 108.382 166.19 108.478 166.117C108.571 166.042 108.674 165.977 108.789 165.922L109.038 166.438C108.976 166.47 108.915 166.506 108.856 166.544C108.797 166.579 108.749 166.622 108.711 166.672C108.67 166.72 108.641 166.775 108.624 166.837C108.604 166.899 108.601 166.973 108.616 167.057C108.651 167.253 108.754 167.379 108.925 167.436C109.097 167.493 109.318 167.497 109.589 167.45L110.096 167.36C110.231 167.336 110.355 167.305 110.466 167.267C110.574 167.226 110.664 167.176 110.738 167.117C110.811 167.057 110.864 166.987 110.896 166.907C110.926 166.827 110.931 166.733 110.912 166.624C110.882 166.456 110.81 166.336 110.695 166.267C110.577 166.197 110.44 166.176 110.283 166.204L110.026 166.25L110.127 166.824L109.697 166.899L109.503 165.796L111.153 165.506L111.246 166.034L110.807 166.112Z" fill="#333333"/>
<path d="M110.092 160.136L109.93 161.058L111.286 161.297L111.181 161.889L108.026 161.333L108.131 160.741L109.441 160.972L109.604 160.05L108.293 159.819L108.398 159.226L111.552 159.783L111.448 160.375L110.092 160.136Z" fill="#333333"/>
<path d="M111.183 153.696L113.528 155.049L113.23 155.566L110.885 154.212L110.403 155.047L109.974 154.799L111.236 152.613L111.665 152.861L111.183 153.696Z" fill="#333333"/>
<path d="M117.168 150.867C116.957 151.044 116.746 151.159 116.535 151.212C116.327 151.264 116.125 151.269 115.931 151.228L115.967 150.707C116.147 150.735 116.311 150.731 116.46 150.694C116.609 150.653 116.745 150.581 116.867 150.479C117.007 150.361 117.089 150.239 117.11 150.113C117.132 149.987 117.093 149.864 116.993 149.744C116.91 149.646 116.82 149.596 116.723 149.594C116.623 149.589 116.498 149.632 116.346 149.723L116.051 149.9C115.79 150.051 115.56 150.104 115.359 150.061C115.157 150.015 114.984 149.906 114.84 149.735C114.644 149.501 114.569 149.257 114.618 149.005C114.664 148.751 114.822 148.511 115.091 148.285C115.283 148.123 115.474 148.015 115.664 147.96C115.855 147.903 116.038 147.892 116.21 147.926L116.182 148.442C116.051 148.42 115.921 148.425 115.793 148.457C115.662 148.487 115.534 148.554 115.41 148.658C115.143 148.882 115.102 149.104 115.287 149.325C115.365 149.418 115.454 149.466 115.551 149.468C115.649 149.47 115.775 149.426 115.931 149.335L116.226 149.166C116.473 149.027 116.697 148.972 116.898 149.003C117.1 149.034 117.277 149.14 117.43 149.323C117.527 149.438 117.595 149.56 117.636 149.69C117.675 149.817 117.685 149.948 117.667 150.083C117.647 150.216 117.595 150.35 117.511 150.483C117.43 150.615 117.316 150.743 117.168 150.867Z" fill="#333333"/>
<path d="M134.359 180.308C134.359 180.62 134.106 180.872 133.795 180.872C133.483 180.872 133.231 180.62 133.231 180.308C133.231 179.997 133.483 179.745 133.795 179.745C134.106 179.745 134.359 179.997 134.359 180.308Z" fill="#333333"/>
<path d="M122.476 147.167C122.476 147.479 122.223 147.731 121.912 147.731C121.6 147.731 121.348 147.479 121.348 147.167C121.348 146.856 121.6 146.603 121.912 146.603C122.223 146.603 122.476 146.856 122.476 147.167Z" fill="#333333"/>
<path d="M179.677 55.7752C179.803 55.7752 179.937 55.7744 180.079 55.7736C181.138 55.7675 182.625 55.7589 183.914 56.0492C184.643 56.2133 185.255 56.4626 185.677 56.82C186.079 57.1608 186.328 57.6134 186.328 58.2662C186.328 58.8508 186.194 59.1727 186.033 59.3806C185.862 59.6013 185.617 59.7542 185.268 59.9273C185.201 59.9608 185.129 59.9947 185.055 60.0299C184.397 60.3425 183.518 60.7606 183.088 61.9253L183.086 61.9288C182.757 62.8393 182.603 64.043 182.526 65.2088C182.449 66.3819 182.449 67.5637 182.449 68.4493V80.5592C182.449 80.7077 182.45 80.875 182.452 81.0579C182.461 82.202 182.474 83.9555 182.205 85.5159C182.049 86.4223 181.805 87.2094 181.446 87.7581C181.101 88.2864 180.673 88.5651 180.098 88.5651C179.363 88.5651 178.693 88.1232 177.998 87.5216L163.563 74.5815C163.238 74.2796 162.749 73.8265 162.211 73.4491C161.69 73.0836 161.031 72.7217 160.376 72.7217C159.805 72.7217 159.392 73.0336 159.12 73.4268C158.857 73.8054 158.698 74.2896 158.596 74.7565C158.391 75.6966 158.38 76.7496 158.38 77.241C158.38 78.5456 158.425 80.3285 158.72 81.6063L158.72 81.608C158.913 82.4315 159.238 83.004 159.636 83.4265C160.027 83.8417 160.466 84.0854 160.822 84.277L160.858 84.2961C161.219 84.4898 161.452 84.6149 161.62 84.797C161.763 84.9527 161.885 85.1835 161.885 85.6534C161.885 86.2904 161.647 86.7676 161.252 87.147C160.844 87.5394 160.255 87.8377 159.555 88.0562C158.153 88.4939 156.464 88.5651 155.375 88.5651C154.309 88.5651 152.631 88.4941 151.233 88.067C150.535 87.8536 149.946 87.5628 149.539 87.1817C149.145 86.8138 148.911 86.3553 148.911 85.7469C148.911 85.2317 149.047 84.949 149.221 84.7481C149.416 84.5216 149.686 84.3611 150.068 84.1334L150.081 84.126C150.447 83.9077 150.895 83.6374 151.273 83.2032C151.66 82.7584 151.953 82.1698 152.083 81.339C152.417 79.287 152.51 76.3094 152.51 74.2031V74.1849C152.51 70.8321 152.51 67.3884 151.99 63.986L151.99 63.9825C151.792 62.7502 151.415 61.902 150.929 61.2898C150.444 60.6777 149.88 60.3404 149.387 60.088C149.268 60.0267 149.165 59.9767 149.07 59.9299C148.951 59.8718 148.842 59.8182 148.723 59.7547C148.527 59.6504 148.376 59.5536 148.256 59.4453C148.048 59.2568 147.883 58.9872 147.883 58.4065C147.883 57.7672 148.174 57.297 148.694 56.9232C149.234 56.5348 150.007 56.265 150.899 56.0868C152.513 55.7638 154.346 55.7703 155.472 55.7744C155.588 55.7748 155.696 55.7752 155.795 55.7752C157.254 55.7752 158.019 55.8263 158.676 56.0709C159.331 56.3145 159.922 56.7661 160.978 57.7052L172.057 67.4285L172.067 67.4367C172.12 67.4813 172.185 67.5363 172.259 67.5991C172.55 67.8472 172.984 68.2167 173.437 68.5443C173.723 68.7508 174.03 68.9518 174.331 69.1029C174.621 69.2485 174.956 69.3753 175.284 69.3753C175.735 69.3753 176.089 69.1823 176.343 68.8934C176.582 68.6208 176.724 68.2745 176.812 67.9494C176.99 67.2996 176.999 66.5612 176.999 66.1646C176.999 65.5752 176.988 64.7666 176.928 63.9658C176.869 63.178 176.761 62.3531 176.552 61.7505C176.194 60.6788 175.359 60.2399 174.732 59.9099C174.654 59.869 174.579 59.8297 174.509 59.791C174.169 59.6043 173.919 59.4355 173.743 59.2042C173.578 58.9864 173.448 58.6686 173.448 58.126C173.448 57.5328 173.675 57.117 174.048 56.7991C174.439 56.4649 175.009 56.2264 175.691 56.0656C176.95 55.7687 178.419 55.7723 179.427 55.7747C179.514 55.775 179.598 55.7752 179.677 55.7752Z" fill="#333333"/>
<path d="M105.758 57.9858C105.758 57.4369 105.977 57.049 106.348 56.7475C106.739 56.4296 107.309 56.2023 107.991 56.0493C109.242 55.7683 110.697 55.7721 111.685 55.7747C111.774 55.7749 111.86 55.7752 111.941 55.7752C112.893 55.7752 114.176 55.8354 115.207 56.1917C115.719 56.3686 116.134 56.6069 116.417 56.9149C116.69 57.2116 116.863 57.5957 116.863 58.126C116.863 58.6196 116.759 58.9132 116.616 59.1353C116.46 59.3772 116.237 59.5717 115.902 59.8517L115.89 59.8618C115.219 60.424 114.343 61.1578 113.671 62.9001L113.671 62.9015L105.633 83.9299L105.633 83.9309C105.139 85.2005 104.648 86.3699 103.977 87.2258C103.325 88.0562 102.525 88.5651 101.379 88.5651C100.313 88.5651 99.675 88.2827 99.2015 87.8281C98.6994 87.3461 98.3356 86.6299 97.9134 85.645L97.9127 85.6434L93.6116 75.4049L93.6087 75.3983C93.5722 75.3182 93.5322 75.2119 93.4796 75.0726L93.4565 75.0114L93.4153 74.903C93.3344 74.6915 93.2349 74.4423 93.1146 74.2049C92.9963 73.9716 92.8439 73.721 92.6461 73.5232C92.4448 73.3219 92.1615 73.1423 91.7981 73.1423C91.4413 73.1423 91.1357 73.272 90.876 73.511C90.6352 73.7327 90.4407 74.0419 90.26 74.3971C90.007 74.8946 89.7313 75.5886 89.3806 76.4716C89.236 76.8359 89.0782 77.2332 88.9043 77.6612L86.0534 84.7184C85.985 84.8876 85.92 85.0509 85.8572 85.2084C85.4514 86.2274 85.1416 87.005 84.6622 87.5748C84.1584 88.1737 83.4367 88.5651 82.0304 88.5651C80.846 88.5651 80.1584 88.204 79.6569 87.6447C79.1206 87.0465 78.7643 86.1905 78.3365 85.0972L69.6438 62.8982C69.2962 62.0046 68.8991 61.4186 68.4811 61.0049C68.0838 60.6116 67.6864 60.395 67.3799 60.228L67.338 60.2051C67.0139 60.0281 66.8465 59.9221 66.7276 59.7452C66.6109 59.5714 66.5 59.2599 66.5 58.5934C66.5 57.9809 66.788 57.5075 67.3167 57.1165C67.862 56.7132 68.6413 56.4188 69.5359 56.2122C71.3205 55.7999 73.3837 55.7752 74.4592 55.7752C77.8726 55.7752 79.7729 56.0484 80.811 56.5091C81.3125 56.7317 81.579 56.984 81.73 57.2426C81.8844 57.5071 81.951 57.8343 81.951 58.2662C81.951 58.8071 81.7603 59.096 81.4975 59.4903C81.2184 59.9089 80.8761 60.4234 80.8761 61.3041C80.8761 61.712 80.9817 62.2323 81.1223 62.7585C81.2658 63.2955 81.4575 63.8802 81.6523 64.4324C81.8476 64.9855 82.0483 65.5122 82.2109 65.9335L82.3189 66.2127C82.427 66.4914 82.5032 66.6881 82.5361 66.7859C82.6542 67.1638 82.977 68.1917 83.4108 69.1315C83.6274 69.6009 83.8833 70.0743 84.1703 70.4381C84.4349 70.7734 84.8314 71.1512 85.3486 71.1512C85.887 71.1512 86.3048 70.7866 86.5954 70.4307C86.9013 70.0561 87.166 69.5692 87.3862 69.0897C87.7618 68.2715 88.0463 67.3857 88.1907 66.9361C88.211 66.8729 88.2285 66.8183 88.2432 66.7737C88.3309 66.5892 88.4794 66.2177 88.6066 65.8582C88.6758 65.6625 88.7426 65.4597 88.7927 65.2807C88.8374 65.1212 88.8864 64.9219 88.8864 64.7625C88.8864 64.6443 88.8572 64.5015 88.8272 64.3789C88.7937 64.2417 88.7458 64.0777 88.6857 63.8967C88.5655 63.5344 88.3911 63.0882 88.1712 62.63C87.9518 62.1728 87.682 61.6934 87.3684 61.2706C87.0583 60.8523 86.6848 60.4615 86.2494 60.2148L86.2381 60.2084L86.2265 60.2025C85.3393 59.759 84.7737 59.2329 84.7737 58.3597C84.7737 58.3189 84.7713 58.2824 84.769 58.2468C84.7625 58.1483 84.7565 58.0569 84.8027 57.904C84.8584 57.7194 85.008 57.4325 85.4532 57.1226C86.3774 56.4792 88.5216 55.7752 93.3872 55.7752C97.9109 55.7752 100.014 56.305 100.978 56.8594C101.44 57.1256 101.615 57.3829 101.691 57.5713C101.768 57.7629 101.767 57.9339 101.767 58.1339L101.767 58.1728C101.767 58.6872 101.432 59.041 100.893 59.4966C100.86 59.5245 100.826 59.5531 100.791 59.5823L100.79 59.5832C100.567 59.7696 100.313 59.9822 100.114 60.2116C99.8745 60.4888 99.6638 60.8464 99.6638 61.3041C99.6638 61.7042 99.7855 62.1855 99.9455 62.6616C100.109 63.1492 100.33 63.6787 100.561 64.191C100.792 64.7045 101.038 65.2088 101.253 65.6457L101.374 65.89C101.537 66.2208 101.672 66.4953 101.764 66.6955C101.797 66.7731 101.843 66.8834 101.897 67.0174C102.081 67.4676 102.374 68.1856 102.72 68.8309C102.947 69.2545 103.214 69.682 103.514 70.0102C103.801 70.3238 104.201 70.6371 104.697 70.6371C105.104 70.6371 105.434 70.389 105.671 70.1383C105.921 69.8748 106.154 69.5193 106.369 69.1249C106.801 68.3322 107.212 67.2869 107.566 66.2433C107.921 65.1951 108.226 64.128 108.442 63.2809C108.549 62.8573 108.636 62.4857 108.696 62.1967C108.751 61.931 108.796 61.6812 108.796 61.5377C108.796 60.878 108.533 60.4231 108.132 60.105C107.822 59.8582 107.425 59.6966 107.101 59.5646L107.1 59.5642C107.055 59.5457 107.011 59.5278 106.969 59.5103C106.588 59.3523 106.298 59.2098 106.093 58.9962C105.91 58.8051 105.758 58.5173 105.758 57.9858Z" fill="#333333"/>
<path d="M124.135 57.1382C123.285 57.5808 122.899 58.0807 122.899 58.6401C122.899 58.9901 122.987 59.2353 123.118 59.4343C123.257 59.6439 123.461 59.8282 123.738 60.0284C123.876 60.128 124.023 60.2257 124.184 60.3324L124.185 60.3332C124.343 60.4378 124.513 60.5506 124.683 60.6724C125.024 60.9176 125.38 61.2115 125.689 61.6009L125.69 61.6027C126.021 62.0234 126.287 62.6199 126.475 63.8268C126.662 65.0282 126.779 66.8817 126.779 69.8567V74.4835C126.779 77.7616 126.662 79.8575 126.47 81.2246C126.28 82.5759 126.008 83.293 125.631 83.7338C125.398 84.0099 125.112 84.2218 124.848 84.3988C124.733 84.4757 124.629 84.5422 124.53 84.6053C124.379 84.7016 124.24 84.7902 124.095 84.8954C123.663 85.2096 123.414 85.5111 123.414 86.0273C123.414 86.5796 123.673 87.0057 124.159 87.3598C124.661 87.7263 125.382 87.9935 126.213 88.18C127.869 88.5519 129.781 88.5651 130.765 88.5651C135.875 88.5651 138.434 88.0357 139.705 87.3922C140.324 87.0789 140.608 86.7533 140.749 86.4735C140.894 86.1861 140.921 85.8881 140.921 85.5599C140.921 85.2647 140.864 85.0602 140.784 84.9061C140.703 84.7508 140.582 84.6167 140.41 84.4845C140.232 84.3484 140.015 84.2247 139.747 84.0824L139.672 84.0427L139.582 83.9952C139.362 83.8799 139.117 83.7513 138.874 83.6051C138.841 83.5854 138.803 83.564 138.761 83.5406C138.584 83.441 138.341 83.3043 138.142 83.098C137.875 82.8194 137.687 82.4363 137.547 81.8568C137.273 80.7255 137.135 78.6314 137.135 74.4835V69.8567C137.135 68.2225 137.147 66.3349 137.271 64.724C137.333 63.9191 137.425 63.1689 137.561 62.5466C137.692 61.9464 137.882 61.3825 138.192 61.024L138.196 61.0195C138.512 60.6619 138.873 60.4089 139.214 60.2066C139.384 60.1058 139.553 60.0151 139.709 59.9319L139.732 59.9198C139.882 59.8397 140.018 59.7673 140.146 59.6926C140.416 59.5344 140.602 59.3914 140.725 59.2256C140.839 59.0729 140.921 58.8701 140.921 58.5467C140.921 57.9304 140.653 57.4656 140.171 57.0886C139.67 56.6971 138.945 56.4089 138.082 56.2058C136.358 55.8003 134.275 55.7752 132.868 55.7752C132.403 55.7752 129.822 55.7757 127.366 56.1888C126.133 56.3962 124.974 56.7012 124.135 57.1382Z" fill="#333333"/>
<path d="M137.554 100.793C136.412 101.036 134.588 101.272 131.432 101.272H117.972C117.729 101.272 117.465 101.265 117.19 101.258C116.311 101.237 115.31 101.212 114.429 101.385C113.861 101.497 113.41 101.681 113.108 101.952C112.824 102.207 112.63 102.573 112.63 103.155C112.63 103.529 112.681 103.762 112.744 103.911C112.802 104.048 112.878 104.131 112.974 104.196C113.081 104.27 113.222 104.329 113.43 104.398C113.475 104.413 113.524 104.429 113.576 104.446C113.745 104.5 113.945 104.564 114.139 104.645C114.689 104.873 115.263 105.256 115.707 106.088C116.136 106.893 116.426 108.088 116.509 109.909L116.51 109.923C116.555 112.446 116.59 116.356 116.551 119.887C116.531 121.652 116.492 123.327 116.426 124.687C116.361 126.028 116.267 127.117 116.125 127.675L116.123 127.68C115.9 128.513 115.553 129.082 115.135 129.491C114.724 129.893 114.272 130.112 113.907 130.28L113.853 130.305C113.492 130.471 113.272 130.573 113.114 130.73C112.984 130.858 112.864 131.061 112.864 131.524C112.864 131.816 112.883 132.141 113.139 132.416C113.398 132.694 114.012 133.033 115.495 133.033H134.704C136.142 133.033 137.356 133.147 138.326 133.237C138.446 133.248 138.562 133.259 138.675 133.269L138.688 133.27L138.7 133.272C139.022 133.318 139.323 133.365 139.589 133.406L139.59 133.406C139.73 133.428 139.86 133.448 139.977 133.465C140.339 133.52 140.567 133.548 140.686 133.548C140.917 133.548 141.295 133.35 141.781 132.782C142.242 132.243 142.711 131.473 143.132 130.585C143.978 128.8 144.579 126.656 144.579 125.168C144.579 124.596 144.413 123.945 144.097 123.451C143.787 122.966 143.366 122.677 142.836 122.677C142.432 122.677 142.144 122.762 141.919 122.893C141.69 123.025 141.494 123.223 141.303 123.494C141.109 123.77 140.935 124.1 140.737 124.489L140.678 124.605C140.5 124.955 140.303 125.343 140.068 125.731C139.537 126.606 138.799 127.505 137.545 128.177C136.298 128.845 134.583 129.266 132.133 129.266C131.916 129.266 131.706 129.267 131.503 129.268C130.58 129.271 129.801 129.273 129.172 129.208C128.396 129.128 127.731 128.937 127.243 128.421C126.765 127.917 126.537 127.185 126.413 126.228C126.287 125.263 126.259 123.973 126.259 122.27L126.259 122.14C126.257 121.448 126.256 120.59 126.512 119.9C126.654 119.515 126.886 119.152 127.261 118.89C127.636 118.628 128.108 118.499 128.675 118.499C129.942 118.499 130.797 118.83 131.359 119.421C131.903 119.993 132.094 120.734 132.21 121.361C132.239 121.515 132.264 121.669 132.288 121.815L132.29 121.829C132.315 121.981 132.338 122.123 132.364 122.26C132.417 122.536 132.474 122.757 132.554 122.932C132.631 123.1 132.719 123.206 132.826 123.275C132.933 123.345 133.104 123.406 133.395 123.406C133.901 123.406 134.313 123.163 134.67 122.696C135.038 122.216 135.32 121.527 135.529 120.735C135.945 119.155 136.026 117.324 136.026 116.381C136.026 115.477 135.979 113.753 135.609 112.267C135.423 111.522 135.167 110.88 134.827 110.434C134.5 110.004 134.115 109.778 133.629 109.778C133.279 109.778 133.047 109.846 132.887 109.936C132.728 110.025 132.607 110.155 132.507 110.332C132.29 110.721 132.209 111.263 132.108 111.945L132.108 111.947C132.015 112.571 131.902 113.329 131.537 113.918C131.345 114.228 131.081 114.498 130.717 114.686C130.357 114.873 129.927 114.965 129.423 114.965C128.717 114.965 128.142 114.96 127.691 114.905C127.243 114.849 126.83 114.735 126.518 114.447C126.2 114.152 126.068 113.752 126.003 113.316C125.939 112.883 125.932 112.332 125.932 111.661C125.932 111.198 125.928 110.762 125.924 110.354C125.917 109.601 125.911 108.944 125.933 108.388C125.966 107.537 126.064 106.808 126.389 106.242C126.737 105.637 127.295 105.291 128.064 105.097C128.811 104.909 129.806 104.852 131.105 104.852C133.362 104.852 134.911 105.136 136.019 105.59C137.142 106.051 137.786 106.676 138.244 107.299C138.436 107.56 138.595 107.822 138.735 108.052L138.8 108.158C138.961 108.421 139.097 108.631 139.252 108.803C139.401 108.969 139.564 109.096 139.774 109.185C139.987 109.276 140.275 109.338 140.686 109.338C141.393 109.338 141.849 109.002 142.153 108.482C142.473 107.936 142.616 107.192 142.616 106.473C142.616 105.511 142.349 103.92 141.764 102.584C141.163 101.209 140.337 100.337 139.331 100.337C139.234 100.337 139.116 100.367 138.808 100.461L138.783 100.469C138.497 100.556 138.109 100.675 137.554 100.793Z" fill="#333333"/>
<path d="M99.3504 100.756C99.2083 100.757 99.0739 100.758 98.9487 100.758C98.869 100.758 98.7853 100.757 98.6984 100.757C97.6903 100.755 96.2214 100.751 94.9624 101.048C94.2802 101.209 93.7104 101.447 93.3188 101.782C92.9462 102.099 92.7188 102.515 92.7188 103.108C92.7188 103.651 92.8494 103.969 93.0145 104.187C93.1898 104.418 93.4404 104.587 93.78 104.773C93.8502 104.812 93.9249 104.851 94.0028 104.892C94.6303 105.222 95.4649 105.661 95.8234 106.733C96.0324 107.336 96.1404 108.16 96.1992 108.948C96.2589 109.749 96.2707 110.558 96.2707 111.147C96.2707 111.544 96.2609 112.282 96.0836 112.932C95.995 113.257 95.8534 113.603 95.614 113.876C95.3603 114.165 95.0058 114.358 94.5555 114.358C94.2275 114.358 93.8918 114.231 93.6022 114.085C93.3015 113.934 92.994 113.733 92.7085 113.527C92.2556 113.199 91.8212 112.829 91.5297 112.581C91.4559 112.519 91.3913 112.464 91.3378 112.419L91.328 112.411L80.2494 102.688C79.1928 101.749 78.6023 101.297 77.9477 101.053C77.2903 100.809 76.5249 100.758 75.0667 100.758C74.967 100.758 74.8589 100.757 74.7433 100.757C73.6172 100.753 71.7846 100.746 70.1699 101.069C69.2784 101.247 68.505 101.517 67.965 101.906C67.4454 102.279 67.1543 102.75 67.1543 103.389C67.1543 103.97 67.3194 104.239 67.5275 104.428C67.6469 104.536 67.7986 104.633 67.9939 104.737C68.1132 104.801 68.222 104.854 68.3411 104.912C68.4367 104.959 68.5389 105.009 68.6583 105.07C69.1508 105.323 69.715 105.66 70.2007 106.272C70.6864 106.884 71.0636 107.733 71.2608 108.965L71.2613 108.968C71.7811 112.371 71.7811 115.814 71.7811 119.167V119.186C71.7811 121.292 71.6881 124.269 71.3543 126.321C71.2242 127.152 70.9311 127.741 70.5439 128.186C70.1657 128.62 69.7187 128.89 69.352 129.108L69.3395 129.116C68.9569 129.344 68.6873 129.504 68.4919 129.731C68.3186 129.931 68.1825 130.214 68.1825 130.729C68.1825 131.338 68.4164 131.796 68.8098 132.164C69.2172 132.545 69.8059 132.836 70.5042 133.049C71.9019 133.477 73.5807 133.548 74.6461 133.548C75.7355 133.548 77.4243 133.476 78.826 133.039C79.5258 132.82 80.1152 132.522 80.5236 132.129C80.9183 131.75 81.1565 131.273 81.1565 130.636C81.1565 130.166 81.0346 129.935 80.891 129.779C80.723 129.597 80.4901 129.472 80.1293 129.279L80.0937 129.259C79.737 129.068 79.2978 128.824 78.9068 128.409C78.5089 127.986 78.1846 127.414 77.9916 126.59L77.9912 126.589C77.6964 125.311 77.6513 123.528 77.6513 122.223C77.6513 121.732 77.6618 120.679 77.8673 119.739C77.9693 119.272 78.1285 118.788 78.3911 118.409C78.6637 118.016 79.0758 117.704 79.6468 117.704C80.3021 117.704 80.9608 118.066 81.482 118.432C82.0203 118.809 82.5096 119.262 82.8348 119.564L97.2697 132.504C97.9643 133.106 98.6345 133.548 99.3693 133.548C99.9442 133.548 100.372 133.269 100.717 132.741C101.076 132.192 101.32 131.405 101.476 130.498C101.745 128.938 101.732 127.184 101.723 126.04C101.722 125.857 101.72 125.69 101.72 125.542V113.432C101.72 112.546 101.72 111.364 101.797 110.191C101.874 109.025 102.029 107.822 102.357 106.911L102.359 106.908C102.789 105.743 103.668 105.325 104.325 105.013C104.4 104.977 104.471 104.943 104.539 104.91C104.888 104.737 105.134 104.584 105.304 104.363C105.465 104.155 105.599 103.833 105.599 103.249C105.599 102.596 105.35 102.143 104.948 101.802C104.526 101.445 103.914 101.196 103.185 101.032C101.896 100.741 100.409 100.75 99.3504 100.756Z" fill="#333333"/>
<path fill-rule="evenodd" clip-rule="evenodd" d="M151.677 102.149C151.391 102.451 151.215 102.832 151.215 103.342C151.215 103.655 151.263 103.849 151.321 103.974C151.376 104.093 151.453 104.179 151.562 104.258C151.766 104.405 152 104.507 152.234 104.609C152.408 104.685 152.582 104.761 152.743 104.856C153.271 105.165 153.793 105.639 154.172 106.531C154.542 107.402 154.767 108.648 154.767 110.493V123.812C154.767 125.376 154.542 126.485 154.175 127.304C153.804 128.134 153.302 128.633 152.81 128.994C152.648 129.113 152.476 129.217 152.304 129.322C152.071 129.464 151.839 129.605 151.633 129.78C151.507 129.887 151.42 129.992 151.362 130.112C151.305 130.231 151.261 130.394 151.261 130.636C151.261 131.295 151.57 131.797 152.128 132.204C152.704 132.625 153.526 132.926 154.467 133.133C156.346 133.546 158.513 133.548 159.641 133.548C163.423 133.548 165.518 133.229 166.655 132.746C167.21 132.51 167.5 132.25 167.659 132.003C167.818 131.756 167.881 131.466 167.881 131.103C167.881 130.641 167.762 130.375 167.612 130.187C167.431 129.96 167.164 129.794 166.797 129.575C166.176 129.205 165.351 128.713 165.131 127.451C164.89 126.1 164.796 124.198 164.796 122.831C164.796 122.088 164.82 121.504 164.874 121.047C164.928 120.598 165.017 120.229 165.174 119.943C165.345 119.632 165.589 119.438 165.889 119.339C166.155 119.252 166.447 119.246 166.698 119.246C168.151 119.246 169.138 119.854 169.812 120.77C170.461 121.653 170.805 122.803 171.064 123.883L171.064 123.885C171.14 124.207 171.213 124.534 171.288 124.864L171.288 124.866C171.786 127.076 172.315 129.424 173.651 131.252C174.88 132.933 176.809 133.968 180.439 133.968C183.029 133.968 184.79 133.508 185.885 132.878C186.973 132.252 187.37 131.485 187.37 130.823C187.37 130.203 187.21 130.01 187.083 129.913C186.884 129.761 186.629 129.698 186.381 129.637C186.299 129.616 186.217 129.596 186.139 129.573C185.694 129.441 185.153 129.238 184.696 128.723C184.243 128.211 183.923 127.452 183.775 126.307C183.452 123.811 182.938 122.099 182.145 120.871C181.364 119.661 180.282 118.878 178.722 118.299L178.713 118.296L178.704 118.292C178.668 118.277 178.629 118.261 178.588 118.245C178.354 118.15 178.048 118.026 177.805 117.847C177.477 117.605 177.228 117.243 177.228 116.709C177.228 116.311 177.352 116.004 177.591 115.765C177.777 115.578 178.021 115.438 178.259 115.323C180.669 114.161 181.948 111.649 181.948 108.997C181.948 106.087 180.529 104.098 178.463 102.815C176.375 101.517 173.624 100.945 171.045 100.945C170.051 100.945 169.044 100.986 168.032 101.028C167.84 101.035 167.647 101.042 167.454 101.048C167.102 101.06 166.751 101.071 166.4 101.092C164.91 101.183 163.445 101.272 161.978 101.272C161.019 101.272 160.019 101.176 159.09 101.084C158.742 101.067 158.409 101.045 158.083 101.024C157.46 100.983 156.862 100.945 156.23 100.945C155.31 100.945 154 101.027 152.937 101.401C152.408 101.587 151.974 101.834 151.677 102.149ZM167.072 105.085C166.593 105.085 166.185 105.159 165.85 105.331C165.503 105.51 165.27 105.775 165.12 106.087C164.977 106.386 164.912 106.721 164.873 107.045C164.844 107.293 164.828 107.565 164.812 107.835C164.807 107.916 164.802 107.997 164.797 108.077L164.61 112.519C164.603 112.608 164.595 112.7 164.587 112.794C164.569 112.996 164.551 113.204 164.543 113.392C164.532 113.675 164.539 113.984 164.625 114.27C164.716 114.574 164.897 114.853 165.215 115.042C165.516 115.222 165.891 115.292 166.324 115.292C167.935 115.292 169.112 114.843 169.864 113.901C170.596 112.984 170.844 111.698 170.844 110.212C170.844 109.045 170.704 107.783 170.163 106.799C169.887 106.298 169.504 105.863 168.98 105.555C168.457 105.248 167.823 105.085 167.072 105.085Z" fill="#333333"/>
<path d="M214.748 16.6921C215.145 16.153 215.985 16.6256 215.729 17.2444L212.426 25.2535C208.849 33.9263 211.643 43.9207 219.199 49.481L226.177 54.6157C226.716 55.0125 226.244 55.852 225.625 55.5968L217.616 52.2935C208.943 48.7164 198.949 51.5105 193.388 59.0668L188.254 66.0447C187.857 66.5838 187.017 66.1111 187.273 65.4923L190.576 57.4833C194.153 48.8104 191.359 38.816 183.803 33.2557L176.825 28.121C176.285 27.7243 176.758 26.8848 177.377 27.14L185.386 30.4433C194.059 34.0204 204.053 31.2262 209.614 23.67L214.748 16.6921Z" fill="white"/>
<path fill-rule="evenodd" clip-rule="evenodd" d="M213.943 16.0994C215.039 14.6096 217.359 15.9158 216.654 17.6257L213.35 25.6347C209.949 33.8828 212.606 43.3876 219.792 48.6756L226.77 53.8103C228.26 54.9066 226.954 57.2265 225.244 56.5212L217.235 53.2179C208.987 49.816 199.482 52.4733 194.194 59.6594L189.059 66.6373C187.963 68.1271 185.643 66.821 186.348 65.111L189.651 57.102C193.053 48.8539 190.396 39.3491 183.21 34.0612L176.232 28.9264C174.742 27.8302 176.048 25.5103 177.758 26.2155L185.767 29.5188C194.015 32.9207 203.52 30.2634 208.808 23.0773L213.943 16.0994ZM213.454 20.1381L210.419 24.2627C204.586 32.189 194.102 35.12 185.005 31.3677L180.271 29.4152L184.395 32.4503C192.322 38.2829 195.253 48.7669 191.5 57.8646L189.548 62.5987L192.583 58.4741C198.416 50.5477 208.899 47.6167 217.997 51.369L222.731 53.3216L218.607 50.2864C210.68 44.4538 207.749 33.9698 211.502 24.8722L213.454 20.1381Z" fill="#333333"/>
</svg>
