<svg width="284" height="266" viewBox="0 0 284 266" fill="none" xmlns="http://www.w3.org/2000/svg">
<path fill-rule="evenodd" clip-rule="evenodd" d="M158.248 63.446C164.001 50.6577 160.128 35.5903 148.921 27.162L121.063 6.21181C105.691 -5.34905 83.5635 0.339314 75.6725 17.8806L2.65875 180.186C-5.23223 197.728 5.19014 218.059 24.0387 221.892L58.1954 228.839C71.9367 231.634 85.7809 224.537 91.5338 211.749L92.0436 210.615L238.131 226.324C255.111 232.966 273.503 224.053 280.632 208.207C287.76 192.361 282.229 172.688 265.997 164.387L157.328 65.4912L158.248 63.446ZM257.001 177.834C257.003 177.836 257.005 177.838 257.006 177.841C257.007 177.845 257.007 177.85 257.005 177.854C257.008 177.847 257.007 177.839 257.001 177.834ZM242.265 210.653C242.257 210.651 242.25 210.655 242.246 210.662C242.243 210.669 242.237 210.673 242.229 210.672C242.234 210.673 242.238 210.671 242.241 210.669C242.244 210.667 242.245 210.665 242.246 210.662C242.247 210.66 242.25 210.657 242.25 210.657C242.252 210.655 242.254 210.654 242.257 210.653C242.26 210.652 242.262 210.652 242.265 210.653Z" fill="#AF71FE"/>
<path d="M139.304 39.9494C144.534 43.8826 146.342 50.9141 143.657 56.8819L76.9428 205.185C74.2581 211.152 67.7975 214.464 61.3849 213.16L27.2281 206.213C18.4322 204.424 13.5684 194.936 17.2508 186.75L90.2646 24.4447C93.9471 16.2587 104.273 13.6042 111.447 18.9992L139.304 39.9494Z" fill="#FF5E71"/>
<path fill-rule="evenodd" clip-rule="evenodd" d="M139.905 39.1502C145.509 43.3644 147.446 50.8981 144.569 57.2922L77.8547 205.595C74.9783 211.989 68.0562 215.537 61.1856 214.14L27.0288 207.193C17.6046 205.276 12.3934 195.111 16.3389 186.34L89.3526 24.0344C93.2981 15.2638 104.362 12.4196 112.048 18.2L139.905 39.1502ZM142.745 56.4717C145.238 50.9301 143.56 44.4009 138.703 40.7486L110.846 19.7984C104.184 14.7887 94.596 17.2537 91.1766 24.8549L18.1628 187.161C14.7434 194.762 19.2597 203.572 27.4274 205.233L61.5842 212.18C67.5387 213.391 73.5379 210.316 76.0308 204.774L142.745 56.4717Z" fill="#333333"/>
<path d="M257.011 177.842L242.242 210.673L56.4278 190.693C46.9626 189.676 41.2514 179.712 45.1569 171.03L96.6036 56.6667C100.509 47.985 111.754 45.6487 118.794 52.0561L257.011 177.842Z" fill="#FF5E71"/>
<path fill-rule="evenodd" clip-rule="evenodd" d="M258.221 177.591L242.856 211.745L56.3208 191.688C46.1796 190.597 40.0605 179.922 44.2449 170.62L95.6916 56.2564C99.876 46.9546 111.924 44.4514 119.467 51.3165L258.221 177.591ZM255.802 178.094L118.121 52.7957C111.583 46.8459 101.142 49.0154 97.5155 57.0769L46.0689 171.44C42.4423 179.502 47.7456 188.754 56.5346 189.699L241.628 209.602L255.802 178.094Z" fill="#333333"/>
<path d="M243.153 211.084C234.591 207.232 230.956 196.76 235.034 187.694C239.112 178.628 249.36 174.401 257.922 178.253C266.484 182.105 270.119 192.577 266.041 201.643C261.963 210.709 251.715 214.936 243.153 211.084Z" fill="#FF5E71"/>
<path fill-rule="evenodd" clip-rule="evenodd" d="M265.129 201.232C269.003 192.62 265.522 182.768 257.512 179.165C249.502 175.561 239.82 179.492 235.946 188.104C232.072 196.716 235.553 206.568 243.563 210.172C251.574 213.775 261.255 209.844 265.129 201.232ZM258.332 177.341C267.447 181.441 271.236 192.533 266.953 202.053C262.671 211.573 251.857 216.096 242.743 211.996C233.628 207.896 229.84 196.804 234.122 187.284C238.405 177.764 249.218 173.241 258.332 177.341Z" fill="#333333"/>
<ellipse cx="250.081" cy="194.463" rx="10" ry="9.5" transform="rotate(114.221 250.081 194.463)" fill="#333333"/>
<path fill-rule="evenodd" clip-rule="evenodd" d="M191.353 150.844C194.568 152.217 197.218 153.166 199.295 153.869C199.933 154.085 200.512 154.277 201.034 154.45L201.035 154.45C202.229 154.846 203.127 155.143 203.755 155.411C206.674 156.658 209.154 158.721 210.561 161.245C211.96 163.755 212.31 166.738 210.96 169.898C209.617 173.042 207.27 174.872 204.528 175.617C201.771 176.365 198.586 176.021 195.6 174.746C194.961 174.473 194.34 174.144 193.716 173.812L193.659 173.782C193.061 173.464 192.455 173.141 191.854 172.885C191.541 172.751 191.182 172.672 190.836 172.82C190.496 172.966 190.31 173.273 190.19 173.553L189.096 176.113L189.092 176.124C188.52 177.558 188.338 178.628 188.412 179.471C188.487 180.334 188.823 180.913 189.186 181.361C189.316 181.523 189.456 181.675 189.578 181.806L189.58 181.808C189.617 181.848 189.652 181.887 189.685 181.923C189.835 182.088 189.943 182.219 190.017 182.348C190.085 182.469 190.122 182.585 190.126 182.721C190.129 182.862 190.098 183.056 189.981 183.328C189.761 183.843 189.309 184.146 188.609 184.275C187.895 184.406 186.988 184.339 186.01 184.147C184.061 183.765 182.002 182.926 181.012 182.503C180.084 182.106 178.034 181.216 176.372 180.081C175.538 179.511 174.84 178.904 174.424 178.298C174.016 177.702 173.917 177.17 174.133 176.663C174.34 176.181 174.587 176.015 174.849 175.933C175.106 175.853 175.383 175.847 175.752 175.838C175.855 175.835 175.965 175.833 176.084 175.828C176.588 175.809 177.191 175.751 177.777 175.409C178.369 175.064 178.882 174.467 179.298 173.493L186.671 156.234C187.071 155.297 187.054 154.516 186.769 153.84C186.499 153.198 186.005 152.699 185.582 152.287L185.483 152.19C185.076 151.794 184.749 151.476 184.556 151.117C184.374 150.781 184.308 150.4 184.546 149.845C184.83 149.18 185.346 148.925 185.998 148.893C186.682 148.858 187.471 149.081 188.124 149.36C188.665 149.591 189.187 149.84 189.72 150.093L189.724 150.095C190.252 150.347 190.792 150.604 191.353 150.844ZM199.142 158.512C198.694 158.321 198.314 158.198 197.988 158.151C197.656 158.104 197.349 158.129 197.076 158.267C196.805 158.404 196.631 158.62 196.508 158.829C196.403 159.007 196.314 159.216 196.233 159.405L196.205 159.472L193.377 166.093C193.333 166.194 193.283 166.297 193.226 166.413L193.223 166.42C193.169 166.53 193.109 166.652 193.055 166.777C192.948 167.027 192.843 167.344 192.875 167.695C192.943 168.454 193.589 169.024 194.797 169.54C196.386 170.218 197.806 170.103 198.986 169.404C200.141 168.72 201.009 167.513 201.607 166.111C202.232 164.65 202.45 163.113 202.084 161.745C201.713 160.358 200.754 159.201 199.142 158.512Z" fill="white"/>
<path d="M126.885 125.214C127.109 124.691 127.476 124.411 127.951 124.275C128.452 124.132 129.084 124.147 129.79 124.278C131.087 124.518 132.461 125.109 133.393 125.51C133.477 125.546 133.558 125.581 133.635 125.614C134.534 125.998 135.723 126.573 136.555 127.327C136.968 127.702 137.266 128.096 137.41 128.504C137.549 128.897 137.557 129.333 137.342 129.837C137.142 130.306 136.924 130.543 136.697 130.697C136.45 130.864 136.158 130.958 135.73 131.087L135.715 131.092C134.855 131.352 133.734 131.691 132.399 133.063L132.398 133.064L116.322 149.683C115.343 150.683 114.406 151.591 113.425 152.129C112.471 152.652 111.506 152.811 110.419 152.347C109.41 151.915 108.918 151.389 108.653 150.765C108.372 150.104 108.317 149.278 108.316 148.178L108.316 148.176L108.384 136.771L108.384 136.764C108.382 136.673 108.387 136.556 108.394 136.403C108.396 136.346 108.399 136.284 108.401 136.217C108.41 135.985 108.417 135.71 108.399 135.438C108.382 135.17 108.339 134.874 108.233 134.609C108.124 134.34 107.931 134.059 107.593 133.914C107.259 133.772 106.921 133.771 106.583 133.891C106.268 134.002 105.961 134.215 105.648 134.477C105.208 134.844 104.669 135.388 103.982 136.08C103.698 136.366 103.388 136.678 103.051 137.012L97.5111 142.527C97.3785 142.659 97.2514 142.787 97.1288 142.91C96.3346 143.709 95.726 144.32 95.0412 144.666C94.3194 145.031 93.4756 145.109 92.1445 144.54C91.0228 144.061 90.516 143.44 90.2667 142.705C90.0006 141.921 90.0096 140.966 90.0467 139.762L90.7931 115.288C90.8253 114.305 90.6868 113.593 90.4598 113.036C90.244 112.506 89.957 112.142 89.735 111.861L89.7047 111.823C89.4703 111.525 89.3527 111.355 89.3112 111.136C89.2703 110.921 89.2923 110.579 89.5617 109.949C89.8109 109.365 90.278 109.032 90.9383 108.875C91.6186 108.714 92.4755 108.751 93.4047 108.916C95.2582 109.247 97.2181 110.057 98.2339 110.491C101.458 111.868 103.145 112.894 103.942 113.75C104.327 114.164 104.478 114.513 104.517 114.821C104.557 115.137 104.487 115.475 104.312 115.884C104.092 116.399 103.792 116.597 103.385 116.863C102.952 117.146 102.425 117.492 102.071 118.32C101.907 118.703 101.797 119.236 101.718 119.789C101.637 120.354 101.582 120.983 101.543 121.583C101.504 122.184 101.481 122.762 101.465 123.226L101.454 123.533C101.444 123.84 101.437 124.057 101.428 124.163C101.387 124.567 101.277 125.668 101.308 126.73C101.323 127.26 101.374 127.809 101.498 128.267C101.612 128.69 101.833 129.201 102.315 129.407C102.818 129.622 103.355 129.448 103.772 129.23C104.21 129 104.656 128.648 105.057 128.284C105.741 127.664 106.367 126.943 106.684 126.576C106.729 126.524 106.768 126.48 106.8 126.443C106.957 126.305 107.247 126.014 107.512 125.725C107.657 125.569 107.801 125.404 107.921 125.256C108.027 125.123 108.153 124.956 108.216 124.807C108.263 124.697 108.293 124.552 108.314 124.424C108.338 124.282 108.359 124.108 108.375 123.913C108.408 123.523 108.423 123.032 108.4 122.511C108.377 121.991 108.316 121.43 108.191 120.905C108.067 120.386 107.872 119.868 107.562 119.462L107.554 119.451L107.546 119.441C106.886 118.663 106.56 117.933 106.915 117.101C106.931 117.063 106.944 117.028 106.956 116.994C106.99 116.898 107.022 116.806 107.129 116.679C107.258 116.524 107.518 116.312 108.066 116.199C109.203 115.963 111.515 116.164 116.111 118.128C120.384 119.953 122.159 121.303 122.848 122.219C123.179 122.659 123.242 122.975 123.237 123.187C123.232 123.402 123.162 123.565 123.081 123.754L123.065 123.791C122.855 124.283 122.39 124.484 121.697 124.696C121.654 124.709 121.61 124.723 121.565 124.736C121.279 124.823 120.954 124.921 120.675 125.057C120.339 125.221 119.999 125.472 119.816 125.9C119.655 126.276 119.576 126.778 119.535 127.291C119.493 127.817 119.488 128.406 119.499 128.983C119.511 129.561 119.539 130.136 119.566 130.636L119.581 130.915C119.602 131.293 119.619 131.608 119.625 131.833C119.625 131.921 119.623 132.044 119.621 132.193C119.613 132.692 119.6 133.487 119.666 134.235C119.71 134.727 119.789 135.237 119.94 135.666C120.084 136.077 120.334 136.53 120.797 136.728C121.176 136.89 121.583 136.79 121.907 136.65C122.248 136.502 122.61 136.261 122.972 135.976C123.699 135.402 124.509 134.582 125.264 133.739C126.022 132.892 126.74 132.008 127.285 131.295C127.558 130.939 127.79 130.623 127.963 130.374C128.122 130.145 128.264 129.928 128.322 129.794C128.586 129.175 128.521 128.644 128.273 128.185C128.081 127.829 127.773 127.518 127.52 127.262C127.484 127.226 127.45 127.191 127.417 127.157C127.121 126.854 126.903 126.601 126.794 126.314C126.697 126.055 126.67 125.719 126.885 125.214Z" fill="white"/>
<path d="M150.293 135.944C150.522 135.409 151.094 135.091 152.077 135.016C153.048 134.941 154.268 135.121 155.516 135.423C158.004 136.024 160.443 137.065 160.882 137.253C162.211 137.821 164.169 138.685 165.635 139.765C166.369 140.305 166.939 140.872 167.256 141.446C167.561 141.999 167.627 142.551 167.376 143.137C167.245 143.445 167.084 143.606 166.912 143.706C166.727 143.814 166.491 143.874 166.171 143.915C166.02 143.934 165.863 143.948 165.689 143.963L165.662 143.965C165.481 143.981 165.285 143.998 165.084 144.024C164.681 144.078 164.239 144.171 163.798 144.38L163.793 144.383C163.359 144.595 162.954 145.048 162.588 145.562C162.208 146.094 161.82 146.765 161.437 147.5C160.669 148.971 159.897 150.749 159.238 152.292L157.371 156.662C155.697 160.58 154.983 162.612 154.786 163.789C154.684 164.391 154.707 164.826 154.847 165.195C154.95 165.467 155.123 165.692 155.25 165.858C155.266 165.878 155.281 165.898 155.295 165.917C155.308 165.934 155.32 165.95 155.331 165.965C155.502 166.201 155.681 166.421 155.842 166.619C155.884 166.67 155.924 166.72 155.963 166.768C156.159 167.011 156.315 167.216 156.428 167.417C156.538 167.613 156.599 167.79 156.613 167.972C156.627 168.152 156.597 168.37 156.478 168.651C156.345 168.961 156.199 169.235 155.943 169.449C155.694 169.659 155.292 169.853 154.579 169.899C153.115 169.994 150.482 169.461 145.655 167.399C144.726 167.002 142.925 166.218 141.508 165.197C140.798 164.685 140.224 164.141 139.896 163.59C139.578 163.056 139.504 162.545 139.729 162.018C139.939 161.525 140.301 161.339 140.839 161.216C141.018 161.175 141.185 161.148 141.367 161.118L141.368 161.117C141.487 161.098 141.612 161.077 141.75 161.051C142.071 160.99 142.425 160.906 142.755 160.74C143.285 160.478 143.83 159.913 144.554 158.713C145.286 157.5 146.242 155.569 147.564 152.473L149.431 148.103C150.631 145.293 151.269 143.496 151.576 142.287C151.885 141.073 151.874 140.404 151.733 139.877L151.732 139.875C151.598 139.384 151.381 138.964 151.158 138.595C151.047 138.412 150.932 138.237 150.825 138.075L150.825 138.073C150.716 137.908 150.616 137.756 150.526 137.606C150.345 137.304 150.225 137.046 150.178 136.79C150.134 136.546 150.151 136.277 150.293 135.944Z" fill="white"/>
<path d="M126.407 153.561C127.562 150.858 130.67 149.61 133.374 150.765C136.077 151.92 137.325 155.028 136.17 157.731C135.015 160.435 131.907 161.682 129.203 160.528C126.5 159.373 125.252 156.265 126.407 153.561Z" fill="white"/>
<path d="M161.279 168.457C162.434 165.754 165.542 164.507 168.245 165.661C170.949 166.816 172.196 169.924 171.041 172.628C169.887 175.331 166.778 176.579 164.075 175.424C161.371 174.269 160.124 171.161 161.279 168.457Z" fill="white"/>
<path d="M201.19 185.507C202.345 182.803 205.453 181.556 208.157 182.711C210.86 183.866 212.108 186.974 210.953 189.677C209.798 192.381 206.69 193.628 203.987 192.473C201.283 191.318 200.036 188.21 201.19 185.507Z" fill="white"/>
<path d="M76.443 150.508C76.2498 150.508 76.0821 150.474 75.94 150.406C75.7979 150.335 75.6799 150.234 75.5861 150.103C75.4952 149.973 75.427 149.812 75.3815 149.622C75.3389 149.431 75.3176 149.214 75.3176 148.969C75.3176 148.728 75.3389 148.512 75.3815 148.321C75.427 148.128 75.4952 147.966 75.5861 147.835C75.6799 147.705 75.7979 147.605 75.94 147.537C76.0821 147.466 76.2498 147.43 76.443 147.43C76.8296 147.43 77.1138 147.565 77.2957 147.835C77.4776 148.105 77.5685 148.483 77.5685 148.969C77.5685 149.455 77.4776 149.833 77.2957 150.103C77.1138 150.373 76.8296 150.508 76.443 150.508ZM76.443 150.052C76.5425 150.052 76.6264 150.034 76.6946 149.997C76.7628 149.957 76.8168 149.901 76.8566 149.83C76.8992 149.759 76.929 149.673 76.9461 149.57C76.966 149.465 76.9759 149.349 76.9759 149.221V148.713C76.9759 148.458 76.9362 148.256 76.8566 148.108C76.7798 147.96 76.642 147.886 76.443 147.886C76.2441 147.886 76.1048 147.96 76.0253 148.108C75.9485 148.256 75.9101 148.458 75.9101 148.713V149.225C75.9101 149.481 75.9485 149.683 76.0253 149.83C76.1048 149.978 76.2441 150.052 76.443 150.052Z" fill="white"/>
<path d="M80.4564 151.056L81.4742 148.26L82.5358 148.646C82.8082 148.745 82.9883 148.899 83.0762 149.106C83.164 149.313 83.1593 149.551 83.0621 149.818C82.9649 150.085 82.816 150.27 82.6154 150.372C82.4148 150.474 82.1783 150.476 81.9059 150.377L81.3691 150.181L80.9812 151.247L80.4564 151.056ZM81.5251 149.753L81.9537 149.909C82.0953 149.96 82.207 149.969 82.2888 149.935C82.3716 149.899 82.4359 149.818 82.4816 149.693L82.537 149.54C82.5827 149.415 82.585 149.313 82.544 149.234C82.5039 149.153 82.4131 149.087 82.2716 149.035L81.8429 148.879L81.5251 149.753Z" fill="white"/>
<path d="M85.0929 153.41L87.0056 151.13L87.871 151.856C88.0931 152.043 88.21 152.248 88.2216 152.473C88.2332 152.698 88.1476 152.92 87.965 153.137C87.7823 153.355 87.5792 153.478 87.3556 153.505C87.1321 153.533 86.9093 153.454 86.6872 153.267L86.2496 152.9L85.5207 153.769L85.0929 153.41ZM86.5428 152.551L86.8923 152.844C87.0077 152.941 87.1096 152.987 87.198 152.984C87.2883 152.978 87.3763 152.924 87.4622 152.821L87.5663 152.697C87.6522 152.595 87.6893 152.5 87.6776 152.412C87.6677 152.322 87.6051 152.229 87.4897 152.132L87.1402 151.839L86.5428 152.551Z" fill="white"/>
<path d="M89.0704 158.046C88.9737 157.878 88.9194 157.716 88.9074 157.559C88.8979 157.4 88.9263 157.248 88.9927 157.101C89.0604 156.957 89.1654 156.817 89.3075 156.683C89.4511 156.551 89.6288 156.424 89.8404 156.301C90.0497 156.181 90.2474 156.091 90.4336 156.033C90.6237 155.975 90.7981 155.954 90.9568 155.967C91.1169 155.983 91.262 156.035 91.3922 156.124C91.5248 156.212 91.6394 156.339 91.736 156.507C91.9293 156.841 91.9545 157.155 91.8116 157.447C91.6687 157.74 91.3868 158.008 90.9659 158.251C90.545 158.494 90.1722 158.604 89.8474 158.581C89.5226 158.559 89.2636 158.38 89.0704 158.046ZM89.4654 157.817C89.5151 157.904 89.5731 157.967 89.6392 158.008C89.7077 158.047 89.7827 158.066 89.8642 158.065C89.947 158.066 90.037 158.049 90.1341 158.012C90.2351 157.977 90.341 157.927 90.4518 157.863L90.8912 157.61C91.1127 157.482 91.2675 157.346 91.3557 157.204C91.4454 157.063 91.4404 156.907 91.341 156.735C91.2415 156.562 91.1079 156.479 90.9401 156.484C90.7737 156.491 90.5798 156.559 90.3583 156.687L89.9152 156.942C89.6937 157.07 89.5381 157.204 89.4485 157.345C89.3603 157.488 89.3659 157.645 89.4654 157.817Z" fill="white"/>
<path d="M90.7716 162.763C90.7272 162.511 90.7325 162.288 90.7877 162.094C90.8434 161.902 90.9327 161.738 91.0557 161.601L91.4585 161.872C91.3518 162.003 91.2788 162.137 91.2394 162.274C91.2033 162.413 91.1981 162.555 91.2238 162.701C91.2534 162.869 91.3139 162.991 91.4052 163.067C91.4966 163.143 91.6137 163.169 91.7564 163.144C91.874 163.123 91.9562 163.074 92.0031 162.996C92.0529 162.918 92.0763 162.797 92.0733 162.633L92.0689 162.314C92.0686 162.034 92.1325 161.823 92.2607 161.682C92.3916 161.541 92.5592 161.452 92.7635 161.416C93.0434 161.367 93.2735 161.42 93.454 161.576C93.6372 161.731 93.7572 161.97 93.8139 162.292C93.8544 162.521 93.8528 162.725 93.8092 162.903C93.766 163.084 93.6903 163.236 93.5821 163.359L93.1809 163.096C93.2594 163.001 93.3157 162.895 93.3496 162.776C93.3863 162.657 93.3916 162.523 93.3655 162.375C93.3092 162.056 93.1495 161.92 92.8864 161.966C92.7744 161.986 92.695 162.034 92.6481 162.112C92.6011 162.19 92.578 162.312 92.5786 162.479L92.5781 162.795C92.5754 163.058 92.515 163.264 92.3967 163.412C92.2785 163.56 92.1102 163.653 91.8919 163.691C91.7548 163.715 91.6246 163.714 91.5015 163.686C91.3811 163.659 91.2708 163.606 91.1706 163.528C91.0731 163.45 90.9899 163.347 90.9209 163.217C90.8525 163.091 90.8027 162.94 90.7716 162.763Z" fill="white"/>
<path d="M90.968 167.177L91.3795 167.249L91.2632 167.908L93.3708 168.28L93.4871 167.621L93.8985 167.694L93.5698 169.558L93.1584 169.485L93.2746 168.826L91.167 168.454L91.0508 169.113L90.6393 169.041L90.968 167.177Z" fill="white"/>
<path d="M91.1356 173.519L91.157 173.482L89.3072 172.414L89.546 172.001L92.123 173.489L91.7798 174.083L89.54 173.691L89.5187 173.728L91.3684 174.796L91.1297 175.209L88.5527 173.721L88.8958 173.127L91.1356 173.519Z" fill="white"/>
<path d="M85.4824 177.571L85.5085 177.549C85.4898 177.487 85.4763 177.422 85.468 177.355C85.4598 177.287 85.4627 177.22 85.4766 177.153C85.4906 177.085 85.5177 177.018 85.5578 176.951C85.5958 176.886 85.6507 176.823 85.7226 176.763C85.9534 176.569 86.2136 176.523 86.5032 176.625C86.7925 176.731 87.0915 176.968 87.4003 177.336C87.7255 177.724 87.9042 178.078 87.9366 178.4C87.969 178.721 87.8404 179.004 87.5509 179.247C87.4376 179.342 87.3258 179.41 87.2153 179.45C87.1026 179.493 86.993 179.513 86.8864 179.509C86.7776 179.508 86.6716 179.485 86.5685 179.442C86.465 179.403 86.3647 179.35 86.2677 179.283L86.5664 178.843C86.6219 178.878 86.6785 178.91 86.7365 178.939C86.7923 178.97 86.8491 178.99 86.907 178.997C86.9645 179.008 87.0222 179.006 87.08 178.991C87.1397 178.978 87.2 178.946 87.2609 178.894C87.4024 178.776 87.4562 178.634 87.4221 178.47C87.3881 178.305 87.2889 178.125 87.1245 177.929L86.8175 177.564C86.7353 177.466 86.653 177.381 86.5705 177.309C86.4877 177.241 86.4053 177.192 86.3233 177.16C86.2413 177.129 86.1605 177.119 86.0808 177.13C86.003 177.143 85.9249 177.183 85.8465 177.249C85.7246 177.351 85.6622 177.464 85.6593 177.589C85.6583 177.716 85.7053 177.836 85.8003 177.95L85.9565 178.136L86.3712 177.788L86.6316 178.098L85.8347 178.767L84.8345 177.575L85.2166 177.254L85.4824 177.571Z" fill="white"/>
<path d="M75.7459 182.841V180.326H76.3001V182.841H77.1954V183.302H74.8506V182.841H75.7459Z" fill="white"/>
<path d="M70.1394 180.488L70.9566 180.785L71.3941 179.584L71.9189 179.775L70.9011 182.571L70.3763 182.38L70.7992 181.218L69.9819 180.921L69.5591 182.082L69.0343 181.891L70.052 179.095L70.5768 179.286L70.1394 180.488Z" fill="white"/>
<path d="M66.4216 176.715C66.5697 176.84 66.6762 176.974 66.7412 177.117C66.8044 177.263 66.8299 177.416 66.8177 177.576C66.8033 177.735 66.7524 177.902 66.6648 178.077C66.5751 178.25 66.4516 178.431 66.2945 178.618C66.1392 178.803 65.9841 178.955 65.829 179.073C65.6699 179.192 65.5136 179.272 65.3598 179.314C65.204 179.354 65.0497 179.354 64.897 179.315C64.7424 179.278 64.5911 179.198 64.4431 179.073C64.147 178.825 64.0161 178.539 64.0503 178.215C64.0845 177.891 64.2578 177.543 64.5702 177.171C64.8826 176.799 65.1952 176.568 65.5081 176.478C65.821 176.388 66.1255 176.467 66.4216 176.715ZM66.1284 177.065C66.0522 177.001 65.9761 176.961 65.9001 176.946C65.8223 176.932 65.7453 176.94 65.6691 176.969C65.5908 176.996 65.5122 177.043 65.4334 177.111C65.3505 177.178 65.268 177.261 65.1858 177.359L64.8597 177.748C64.6953 177.944 64.5961 178.124 64.562 178.288C64.5258 178.451 64.5839 178.596 64.7363 178.724C64.8887 178.852 65.0429 178.885 65.1989 178.823C65.3526 178.759 65.5117 178.629 65.6762 178.433L66.005 178.041C66.1694 177.845 66.2697 177.666 66.3059 177.503C66.34 177.339 66.2808 177.193 66.1284 177.065Z" fill="white"/>
<path d="M60.8011 174.742L62.4071 173.815C62.5031 173.76 62.5878 173.708 62.6613 173.659C62.7333 173.607 62.7893 173.553 62.8293 173.498C62.8653 173.441 62.8832 173.378 62.8829 173.309C62.8812 173.238 62.8533 173.156 62.7993 173.062C62.7453 172.968 62.6886 172.904 62.6292 172.87C62.5684 172.833 62.5051 172.817 62.4392 172.822C62.3694 172.826 62.2949 172.848 62.2158 172.887C62.1352 172.924 62.0469 172.97 61.951 173.025L60.3449 173.952L60.0657 173.469L61.5979 172.584C61.78 172.479 61.9452 172.398 62.0933 172.342C62.2415 172.286 62.3796 172.264 62.5076 172.275C62.6356 172.287 62.7564 172.337 62.87 172.426C62.9796 172.513 63.0878 172.649 63.1943 172.834C63.3009 173.019 63.3655 173.181 63.3879 173.323C63.4065 173.463 63.3888 173.591 63.3347 173.708C63.2805 173.824 63.1922 173.933 63.0696 174.033C62.947 174.134 62.7947 174.236 62.6125 174.341L61.0803 175.226L60.8011 174.742Z" fill="white"/>
<path d="M60.8541 167.415L60.86 167.449C60.9232 167.464 60.986 167.485 61.0484 167.511C61.1108 167.538 61.1677 167.574 61.2191 167.619C61.2704 167.665 61.3151 167.722 61.3532 167.791C61.3907 167.856 61.4176 167.935 61.4339 168.028C61.4862 168.324 61.3958 168.572 61.1626 168.772C60.9262 168.97 60.5714 169.11 60.0984 169.194C59.6002 169.282 59.2037 169.259 58.9091 169.126C58.6144 168.994 58.4342 168.741 58.3686 168.369C58.3429 168.223 58.34 168.093 58.36 167.976C58.3794 167.858 58.4172 167.753 58.4734 167.662C58.529 167.569 58.6014 167.488 58.6905 167.42C58.7763 167.35 58.8724 167.29 58.979 167.24L59.2105 167.718C59.1524 167.749 59.0962 167.782 59.0419 167.817C58.987 167.85 58.9421 167.89 58.907 167.936C58.8686 167.981 58.8415 168.032 58.8257 168.089C58.8071 168.147 58.8047 168.215 58.8185 168.294C58.8506 168.476 58.9463 168.593 59.1057 168.646C59.2651 168.699 59.4707 168.703 59.7226 168.658L60.1928 168.575C60.3188 168.553 60.4335 168.524 60.5369 168.489C60.637 168.451 60.7211 168.404 60.7893 168.349C60.8574 168.294 60.9066 168.229 60.9367 168.154C60.9641 168.08 60.9689 167.993 60.9511 167.892C60.9235 167.735 60.8563 167.624 60.7496 167.559C60.6401 167.495 60.5126 167.476 60.3671 167.501L60.1278 167.544L60.2218 168.077L59.8229 168.147L59.6423 167.123L61.1747 166.852L61.2613 167.344L60.8541 167.415Z" fill="white"/>
<path d="M60.1895 162.136L60.0385 162.992L61.298 163.214L61.2011 163.764L58.2706 163.248L58.3675 162.698L59.5851 162.912L59.7361 162.056L58.5186 161.841L58.6155 161.291L61.546 161.808L61.4491 162.358L60.1895 162.136Z" fill="white"/>
<path d="M61.1096 156.409L63.2879 157.666L63.0108 158.146L60.8325 156.889L60.3848 157.664L59.9861 157.434L61.1585 155.403L61.5572 155.633L61.1096 156.409Z" fill="white"/>
<path d="M66.4957 153.989C66.2997 154.154 66.1037 154.261 65.9078 154.31C65.714 154.358 65.5269 154.362 65.3467 154.325L65.38 153.84C65.5471 153.867 65.6997 153.863 65.8379 153.829C65.9764 153.791 66.1023 153.724 66.2155 153.629C66.3461 153.519 66.4216 153.406 66.442 153.289C66.4623 153.171 66.4259 153.057 66.3327 152.946C66.256 152.855 66.1723 152.808 66.0817 152.806C65.9893 152.802 65.8728 152.842 65.7322 152.927L65.4577 153.091C65.2154 153.231 65.0013 153.281 64.8152 153.24C64.6273 153.197 64.4666 153.097 64.3333 152.938C64.1506 152.72 64.0816 152.494 64.1263 152.26C64.1691 152.024 64.3157 151.8 64.5661 151.59C64.7447 151.44 64.9219 151.34 65.0979 151.289C65.276 151.236 65.4453 151.225 65.6059 151.258L65.5792 151.736C65.4579 151.716 65.3375 151.72 65.2179 151.75C65.0964 151.778 64.978 151.84 64.8626 151.937C64.6144 152.145 64.5762 152.352 64.7479 152.556C64.821 152.643 64.9028 152.688 64.9934 152.69C65.0841 152.692 65.2016 152.651 65.3462 152.566L65.6202 152.409C65.8494 152.28 66.0575 152.229 66.2447 152.258C66.4318 152.286 66.5966 152.385 66.7391 152.555C66.8287 152.662 66.8924 152.775 66.9303 152.896C66.9663 153.014 66.9758 153.136 66.9588 153.261C66.9399 153.385 66.8918 153.509 66.8143 153.633C66.739 153.755 66.6328 153.874 66.4957 153.989Z" fill="white"/>
<path d="M81.9622 180.739C81.9622 181.028 81.7277 181.263 81.4383 181.263C81.149 181.263 80.9145 181.028 80.9145 180.739C80.9145 180.45 81.149 180.215 81.4383 180.215C81.7277 180.215 81.9622 180.45 81.9622 180.739Z" fill="white"/>
<path d="M70.9247 149.953C70.9247 150.243 70.6902 150.477 70.4009 150.477C70.1116 150.477 69.877 150.243 69.877 149.953C69.877 149.664 70.1116 149.43 70.4009 149.43C70.6902 149.43 70.9247 149.664 70.9247 149.953Z" fill="white"/>
</svg>
