<svg width="246" height="245" viewBox="0 0 246 245" fill="none" xmlns="http://www.w3.org/2000/svg">
<g filter="url(#filter0_d_1_2345)">
<rect x="13" y="11" width="220" height="220" rx="15" fill="#F7E948" stroke="#FDFDFD" stroke-width="10"/>
</g>
<path d="M45.4744 47.7264C48.2262 46.4828 52.1593 46.7035 53.9558 49.4294C55.2824 51.335 57.271 52.9965 55.1059 55.9743C52.9459 58.9521 41.035 61.1769 39.0126 56.4416C36.9928 51.7088 42.115 49.5021 45.4744 47.7264Z" fill="#9E9D06"/>
<path d="M195.509 51.9588C197.669 50.2454 201.138 50.2325 202.628 52.8026C204.331 54.9418 204.461 57.7767 202.171 59.7471C199.881 61.7175 193.822 61.5878 191.763 59.4071C189.704 57.2264 192.76 53.4178 195.509 51.9588Z" fill="#9E9D06"/>
<path d="M121.832 90.0649C122.593 90.1013 124.109 90.1844 124.875 90.2181C124.379 89.1719 123.886 88.1412 123.395 87.0924C122.842 88.0685 122.323 89.0654 121.832 90.0649ZM149.346 86.8717C139.382 88.3048 135.106 102.225 142.508 108.993C149.203 116.252 162.913 112.366 164.723 102.638C167.062 93.8241 158.157 84.7819 149.346 86.8717ZM88.1842 86.8458C78.6201 87.9024 73.241 100.769 79.7832 108.04C85.4349 115.432 98.4051 113.949 101.964 105.221C106.959 96.3865 97.9455 84.6962 88.1842 86.8458ZM210.601 65.9704C210.461 67.1905 210.331 68.4237 210.201 69.6595C213.504 70.0723 220.36 70.5733 220.326 68.1486C220.282 64.9995 213.82 65.7471 210.601 65.9704ZM23.0633 66.2066C22.8531 67.123 22.3598 68.377 23.663 68.6833C26.3759 69.013 29.1123 68.8235 31.8408 68.8365C31.8642 67.5306 31.8642 66.2274 31.8512 64.9242C28.902 65.0773 25.7088 64.6438 23.0633 66.2066ZM152.895 58.6857C153.012 56.7126 153.128 54.7292 153.245 52.7432C154.855 52.7873 156.478 52.8237 158.087 52.8834C157.918 54.8772 157.757 56.8762 157.581 58.8726C163.56 59.3555 169.577 59.9889 175.567 59.3685C180.842 60.2719 186.224 59.9785 191.546 60.3757C195.009 60.5679 198.475 60.6951 201.951 60.7159C209.275 60.5056 216.59 61.0716 223.898 60.7419C225.617 60.7289 227.401 60.625 229.034 61.3078C230.63 66.8842 229.524 73.7354 224.688 77.4141C221.292 78.4006 217.754 78.8912 214.431 80.1633C211.224 94.2135 209.835 108.734 205.02 122.361C204.726 116.065 200.791 110.626 194.845 108.487C198.854 97.9026 201.52 86.8587 203.317 75.698C196.081 73.9482 188.623 74.0054 181.229 73.5822C188.758 82.7465 191.219 95.2468 188.467 106.711C187.867 106.571 186.694 106.291 186.107 106.148C189.17 94.9041 186.574 81.6769 177.893 73.5692C163.443 72.0453 148.713 70.3163 134.237 72.6294C133.05 81.0538 134.436 89.4886 136.952 97.5366C138.372 86.6822 152.859 80.6203 161.163 88.0218C168.178 93.1907 169.082 104.525 162.35 110.32C156.545 116.405 146.75 115.515 140.675 110.309C141.638 112.563 142.321 114.949 143.601 117.052C148.006 118.544 152.716 118.614 157.321 118.908C157.651 119.141 158.321 119.614 158.65 119.848C158.848 123.687 158.954 127.742 161.47 130.902C150.46 133.558 139.032 129.513 130.524 122.457C128.961 126.109 127.165 129.715 124.571 132.758C128.917 122.973 132.92 112.446 131.664 101.519C131.513 95.3273 123.348 90.6984 118.211 94.5302C113.958 97.6559 112.938 103.482 113.678 108.414C114.182 115.463 117.074 122.233 116.497 129.362C116.321 128.856 115.944 127.846 115.768 127.343C114.934 124.653 114.197 121.937 113.442 119.235C112.198 120.645 110.962 122.08 109.729 123.49C107.063 127.073 102.328 127.553 98.4778 129.142C90.5675 131.995 82.0522 132.197 73.768 131.442C74.2509 131.117 74.7312 130.785 75.2141 130.445C80.1129 128.176 81.1098 122.62 81.4057 117.791C87.8804 117.791 94.4096 117.602 100.718 116.018C101.601 112.822 102.574 109.637 103.787 106.55C101.245 110.073 98.0053 113.469 93.5633 114.339C83.6254 117.272 72.7711 106.984 75.5671 96.8797C76.8833 87.3883 88.6307 81.7236 96.9253 86.3889C102.447 88.9278 104.911 94.8807 105.5 100.592C107.899 91.8614 109.989 83.0294 111.175 74.0417C109.332 72.3516 107.32 70.6097 104.633 70.8459C92.1302 70.3656 79.5729 69.4959 67.0856 70.2955C59.331 75.8278 54.3257 84.9791 53.6429 94.4705C53.2691 98.6061 54.2219 102.695 54.8216 106.771C54.4555 106.973 53.739 107.371 53.3859 107.571C48.2871 94.1305 54.1959 79.2339 64.2506 69.81C56.2183 70.3656 48.1833 70.7965 40.2055 71.9466C40.2522 74.8517 40.3327 77.7775 40.7351 80.667C40.9687 82.1831 41.3556 83.6863 41.7528 85.1661C44.0711 93.471 46.4543 101.768 49.7202 109.754C44.9278 112.21 41.6151 116.968 42.1084 122.501C37.6665 117.508 36.9162 110.73 34.9276 104.621C32.2744 95.74 31.441 86.0955 26.472 78.0579C24.743 75.0412 20.8073 75.1087 17.801 74.6881C15.4749 69.7295 15.7319 64.0908 16.7314 58.8414C24.8131 58.5922 32.8974 58.4987 40.9765 58.2262C46.3478 57.9821 51.7062 57.816 57.0749 57.7589C65.99 57.559 74.8973 57.6862 83.8019 57.6992C83.9915 56.8295 84.3419 55.0797 84.5185 54.2074C86.0346 54.1633 87.5508 54.1269 89.0669 54.1036C89.0669 54.9966 89.0773 56.7932 89.0877 57.6862C96.8552 57.6421 104.618 57.6732 112.396 57.8056C116.321 57.6421 118.774 61.2247 121.762 63.1951C124.743 61.2688 127.471 58.7091 130.971 57.7589C138.302 57.2189 145.55 59.0621 152.895 58.6857Z" fill="black"/>
<path d="M23.057 66.136C25.7024 64.5731 28.8956 65.0066 31.8448 64.856C31.8578 66.1593 31.8578 67.4626 31.8344 68.7684C29.1059 68.7555 26.3696 68.9424 23.6541 68.6127C22.3535 68.3089 22.8441 67.055 23.057 66.136Z" fill="#FDFDFD"/>
<path d="M121.819 90.0737C121.318 89.5155 121.941 86.9921 123.382 87.1012C124.821 87.2102 125.649 89.4117 124.862 90.2269C124.07 91.0421 122.315 90.6345 121.819 90.0737Z" fill="#FDFDFD"/>
<path d="M210.597 65.9305C213.814 65.7072 214.13 66.7898 217.35 66.956C217.326 68.306 216.973 67.1559 216.95 68.5059C213.624 68.7525 213.497 70.0324 210.197 69.6196C210.327 68.3839 210.454 67.1532 210.597 65.9305Z" fill="#FDFDFD"/>
<path d="M67.0692 70.2974C79.5539 69.4978 92.1086 70.3675 104.614 70.8478C107.301 70.6115 109.31 72.3535 111.154 74.0436C109.967 83.0313 107.88 91.8659 105.481 100.594C104.892 94.8851 102.428 88.9297 96.9063 86.3907C88.6117 81.7255 76.8617 87.3902 75.5481 96.8816C72.7495 106.986 83.6064 117.277 93.5443 114.34C97.9863 113.471 101.226 110.075 103.768 106.552C102.555 109.639 101.582 112.824 100.699 116.02C94.3906 117.606 87.8614 117.793 81.3867 117.793C80.2237 113.824 78.2376 109.675 74.3487 107.762C68.3023 104.589 61.2383 105.906 54.8 106.773C54.2029 102.697 53.2501 98.608 53.6239 94.475C54.3067 84.981 59.312 75.8297 67.0666 70.2974" fill="#FDFDFD"/>
<path d="M134.217 72.5617C148.691 70.246 163.423 71.975 177.871 73.5015C186.555 81.6066 189.151 94.8364 186.085 106.08C175.864 106.044 164.433 109.279 159.288 118.921C158.795 118.91 157.795 118.863 157.302 118.84C152.696 118.547 147.987 118.477 143.579 116.981C142.299 114.881 141.619 112.495 140.653 110.242C146.728 115.447 156.526 116.337 162.33 110.252C169.062 104.458 168.156 93.123 161.144 87.9541C152.839 80.5526 138.353 86.6145 136.933 97.4689C134.417 89.4209 133.031 80.9861 134.217 72.5617Z" fill="#FDFDFD"/>
<path d="M41.0714 78.8911C40.9364 77.0297 40.4925 73.1485 44.262 73.094C47.4942 72.3151 49.044 76.6039 48.3742 79.1533C47.7304 82.4789 44.6852 83.3305 42.9302 82.8839C41.1753 82.4348 41.1752 80.3034 41.0714 78.8911Z" fill="#9E9D06"/>
<path d="M86.9719 92.6991C83.8748 93.8491 81.6629 97.0216 82.2262 100.381C82.6261 107.266 93.7763 110.096 96.8657 103.6C100.672 97.5876 93.5064 89.0567 86.9719 92.6991ZM88.1843 86.8345C97.9457 84.6849 106.957 96.3752 101.962 105.21C98.4026 113.94 85.435 115.42 79.7807 108.029C73.2411 100.757 78.6202 87.8911 88.1843 86.8345Z" fill="#32BCF3"/>
<path d="M149.15 92.5654C144.342 94.1257 142.629 100.72 145.728 104.56C149.054 109.048 157.302 107.872 159.088 102.49C161.707 96.6648 155.093 89.9901 149.15 92.5654ZM149.347 86.88C158.161 84.7901 167.063 93.8324 164.727 102.646C162.917 112.374 149.205 116.26 142.509 109.002C135.11 102.233 139.383 88.3131 149.347 86.88Z" fill="#32BCF3"/>
<path d="M86.9582 92.6714C93.4926 89.0291 100.658 97.56 96.8519 103.573C93.7626 110.068 82.6123 107.238 82.2125 100.353C81.6492 96.994 83.8611 93.8215 86.9582 92.6714Z" fill="black"/>
<path d="M149.133 92.5742C155.075 89.9989 161.69 96.6736 159.071 102.499C157.285 107.881 149.037 109.057 145.711 104.568C142.611 100.729 144.325 94.1345 149.133 92.5742Z" fill="black"/>
<path d="M159.297 118.943C164.439 109.298 175.873 106.066 186.094 106.103C186.683 106.243 187.854 106.526 188.454 106.666C190.593 107.183 192.732 107.736 194.832 108.439C200.78 110.578 204.713 116.017 205.006 122.315C203.75 126.391 202.187 130.846 197.968 132.853C199.547 128.297 202.776 123.395 201.154 118.346C199.617 113.037 194.035 110.378 189.019 109.322C181.348 107.923 172.737 109.345 166.802 114.691C163.583 117.487 160.753 121.62 161.503 126.088C162.549 129.281 164.782 131.877 166.438 134.756C164.722 133.533 162.947 132.36 161.457 130.857C158.941 127.695 158.834 123.642 158.637 119.8C158.307 119.566 157.638 119.096 157.308 118.863C157.804 118.886 158.803 118.93 159.297 118.943Z" fill="#CA5821"/>
<path d="M54.8128 106.707C61.2486 105.84 68.31 104.524 74.3589 107.697C78.2479 109.61 80.2365 113.758 81.3969 117.728C81.1036 122.557 80.1041 128.112 75.2053 130.381C77.0745 126.518 79.9172 122.336 78.4374 117.847C77.534 114.122 74.5484 111.186 70.9658 109.986C62.9178 107.18 53.0838 108.696 46.918 114.792C44.039 117.567 43.4627 122.38 45.7187 125.706C47.4918 128.219 50.0049 130.088 52.0843 132.344C47.1959 131.321 43.1589 127.315 42.1023 122.44C41.6064 116.908 44.9191 112.149 49.7115 109.69C50.9109 108.94 52.1466 108.224 53.3772 107.51C53.7302 107.307 54.4468 106.91 54.8128 106.707Z" fill="#CA5821"/>
<path d="M172.779 113.389C174.446 112.872 174.996 113.435 174.456 115.066C172.8 115.587 172.237 115.022 172.779 113.389Z" fill="#CA5821"/>
<path d="M51.4938 114.874C53.4175 114.285 54.0535 114.941 53.4071 116.847C51.4705 117.421 50.8344 116.766 51.4938 114.874Z" fill="#CA5821"/>
<path d="M67.0565 114.501C68.6791 113.88 69.2762 114.397 68.8556 116.077C67.246 116.7 66.6463 116.18 67.0565 114.501Z" fill="#CA5821"/>
<path d="M192.467 114.784C194.03 113.527 195.883 116.217 194.18 117.25C192.62 118.509 190.774 115.827 192.467 114.784Z" fill="#CA5821"/>
<path d="M61.9454 118.007C63.8717 117.417 64.5181 118.074 63.8846 119.977C61.9583 120.566 61.312 119.899 61.9454 118.007Z" fill="#CA5821"/>
<path d="M184.18 119.139C185.823 118.612 186.389 119.165 185.867 120.821C184.216 121.351 183.65 120.798 184.18 119.139Z" fill="#CA5821"/>
<path d="M103.468 160.284C103.211 165.066 103.315 169.85 103.315 174.63C108.39 174.757 113.465 174.923 118.541 174.876C118.728 170.551 118.468 166.231 118.437 161.906C113.408 161.849 108.439 160.987 103.468 160.284ZM124.662 161.813C124.473 166.055 124.426 170.294 124.569 174.536C129.458 174.523 134.33 174.889 139.209 175.18C138.806 169.954 139.102 164.713 139.263 159.487C134.426 160.473 129.574 161.403 124.662 161.813ZM55.8889 128.637C56.6522 123.102 64.3808 121.905 67.9063 125.592C65.8865 125.711 63.8642 125.768 61.847 125.851C64.534 137.316 73.9553 145.777 84.1061 150.933C103.387 161.011 126.719 161.623 147.197 154.988C162.161 149.98 176.657 140.185 182.558 124.958C180.253 125.332 177.95 125.758 175.65 126.121C178.763 121.259 187.751 121.773 189.726 127.521C187.938 126.804 186.198 126.028 184.448 125.265C177.587 143.578 159.201 154.154 141.332 159.463C141.322 160.333 141.285 162.083 141.275 162.95C141.145 167.898 141.189 172.844 141.179 177.789C140.652 177.776 139.606 177.766 139.089 177.753C133.554 177.709 128.032 177.223 122.57 176.393C122.24 171.587 122.339 166.769 122.58 161.963C122.077 162.083 121.09 162.306 120.587 162.423C120.537 167.182 120.537 171.938 120.527 176.707V177.636C114.042 177.392 107.546 177.719 101.072 177.073C100.872 171.398 100.929 165.725 101.425 160.063C88.3819 156.138 74.934 150.403 66.5564 139.159C63.4903 135.26 61.4446 130.691 59.9207 126.005C58.5785 126.898 57.2519 127.788 55.8889 128.637Z" fill="black"/>
<path d="M182.191 158.788C186.737 156.696 192.718 159.598 192.845 164.863C192.975 173.321 182.741 182.766 174.556 177.901C168.824 171.384 174.943 161.184 182.191 158.788Z" fill="#9E9D06"/>
<path d="M124.671 161.788C129.582 161.378 134.435 160.448 139.271 159.462C139.11 164.688 138.814 169.929 139.217 175.155C134.339 174.865 129.466 174.499 124.577 174.511C124.434 170.272 124.481 166.03 124.671 161.788Z" fill="#FDFDFD"/>
<path d="M103.47 160.297C108.441 161.001 113.41 161.862 118.439 161.92C118.47 166.245 118.73 170.565 118.543 174.89C113.468 174.936 108.392 174.77 103.317 174.643C103.317 169.864 103.213 165.079 103.47 160.297Z" fill="#FDFDFD"/>
<path d="M53.8047 169.664C53.8618 166.23 54.6329 163.418 59.5941 162.824C64.5604 162.229 65.5652 174.854 59.5863 177.18C55.2274 178.387 53.0051 173.185 53.8047 169.662" fill="#9E9D06"/>
<path d="M69.2074 177.062C73.2132 174.865 78.0212 178.297 78.369 182.547C79.475 188.999 73.1068 197.82 66.022 194.801C60.0094 190.323 63.0157 179.988 69.2074 177.062Z" fill="#9E9D06"/>
<path d="M87.9986 177.84C93.6737 182.586 100.203 186.851 107.711 187.754C114.183 188.178 119.918 183.362 126.45 184.642C132.112 185.065 137.963 187.731 143.545 185.498C147.198 184.255 150.217 181.765 153.049 179.213C153.013 179.906 152.953 181.306 152.932 181.999C149.181 184.818 145.386 188.082 140.64 188.928C134.627 189.53 129.009 186.334 122.994 186.591C118.062 186.768 113.736 189.691 108.851 190.083C100.426 189.66 92.8144 184.598 87.9986 177.84Z" fill="#EE959C"/>
<path d="M170.207 182.761C172.183 182.722 175 182.649 175.708 184.534C176.417 186.416 174.532 189.492 172.32 190.793C170.807 191.969 167.941 192.429 166.884 190.489C164.945 187.553 167.743 184.251 170.207 182.761Z" fill="#9E9D06"/>
<defs>
<filter id="filter0_d_1_2345" x="0.499863" y="-0.000152588" width="245" height="245" filterUnits="userSpaceOnUse" color-interpolation-filters="sRGB">
<feFlood flood-opacity="0" result="BackgroundImageFix"/>
<feColorMatrix in="SourceAlpha" type="matrix" values="0 0 0 0 0 0 0 0 0 0 0 0 0 0 0 0 0 0 127 0" result="hardAlpha"/>
<feOffset dy="1.5"/>
<feGaussianBlur stdDeviation="3.75"/>
<feComposite in2="hardAlpha" operator="out"/>
<feColorMatrix type="matrix" values="0 0 0 0 0 0 0 0 0 0 0 0 0 0 0 0 0 0 0.25 0"/>
<feBlend mode="normal" in2="BackgroundImageFix" result="effect1_dropShadow_1_2345"/>
<feBlend mode="normal" in="SourceGraphic" in2="effect1_dropShadow_1_2345" result="shape"/>
</filter>
</defs>
</svg>
