<svg width="246" height="245" viewBox="0 0 246 245" fill="none" xmlns="http://www.w3.org/2000/svg">
<g filter="url(#filter0_d_1_2348)">
<rect x="13" y="11" width="220" height="220" rx="15" fill="#F7E948" stroke="#FDFDFD" stroke-width="10"/>
</g>
<path d="M42.9396 42.1283C46.4047 40.9311 51.7068 41.0271 53.2039 45.0968C55.1227 51.0758 49.7363 56.6543 44.3594 58.2427C41.1473 58.9011 36.7403 59.1776 34.8285 55.8905C32.5911 50.0051 37.7032 44.1432 42.9396 42.1283Z" fill="#9E9D06"/>
<path d="M203.199 44.4087C206.169 42.8484 211.204 43.5161 211.809 47.4311C213.535 54.2044 203.126 62.1983 198.183 55.7952C195.481 51.3742 199.265 46.433 203.199 44.4087Z" fill="#9E9D06"/>
<path d="M50.8921 108.284C48.6875 109.303 48.6007 111.944 48.7718 114.031C53.4575 115.018 58.2184 114.095 62.9464 114.139C61.2618 115.039 59.4812 115.749 57.7733 116.597C61.0814 120.064 64.4107 123.658 68.6818 125.971C82.54 134.091 102.281 131.355 112.735 118.982C112.278 115.971 111.547 113.003 110.837 110.046C110.709 108.486 108.919 108.242 107.752 107.881C98.242 105.559 88.4558 104.13 78.6391 104.447C69.3401 104.828 59.4999 104.086 50.8921 108.284ZM133.093 94.5337C133.983 96.2933 134.798 98.0949 135.499 99.9411C137.532 98.7111 139.388 97.132 141.616 96.23C146.642 94.8407 152.44 98.9548 152.368 104.287C152.728 109.207 147.839 112.855 143.322 113.078C141.054 112.579 139.006 111.456 136.886 110.554C137.078 112.982 134.711 117 137.863 118.209C143.49 120.924 150.882 119.64 155.123 115.006C161.008 109.355 160.2 99.5593 154.689 93.9738C148.877 87.9502 138.978 89.3606 133.093 94.5337ZM93.842 65.3975C88.0527 67.0727 84.0137 72.937 83.5568 78.8106C82.5189 87.5262 91.0845 95.7216 99.7556 94.5127C107.984 94.2151 114.919 86.0501 113.436 77.8359C113.105 68.4316 102.396 62.2721 93.842 65.3975ZM55.2289 71.3157C47.9144 81.2167 46.1103 94.8524 50.4142 106.356C50.9859 106.26 52.1199 106.047 52.6845 105.941C71.4698 100.407 91.9959 101.075 110.507 107.385C111.198 100.717 113.241 92.9429 120.221 90.3236C119.986 84.3328 117.58 78.7684 115.003 73.4664C115.439 77.8359 116.149 82.5639 113.986 86.6241C112.077 90.1666 109.223 93.4935 105.367 94.9273C97.996 97.9591 88.2988 95.1804 84.351 88.0674C79.4966 80.4319 82.6033 69.5233 90.384 65.1328C94.8402 62.2182 100.332 63.0546 105.282 63.8184C90.2716 52.1555 66.4256 56.2063 55.2289 71.3157ZM132.064 67.6139C126.315 73.593 123.953 81.758 122.447 89.698C125.809 90.176 129.063 91.3099 131.809 93.3459C134.85 90.9187 138.233 88.6507 142.199 88.1728C149.544 86.8795 157.063 91.5747 159.851 98.3503C164.209 107.52 157.36 119.418 147.523 121.051C143.514 122.386 139.484 120.828 135.815 119.279C147.15 130.007 166.404 131.027 179.126 122.056C186.272 116.864 191.892 109.28 193.769 100.569C196.079 91.3099 194.439 81.1863 189.444 73.0752C184.193 64.9219 175.649 58.889 166.097 57.024C153.977 54.7655 140.44 58.2634 132.064 67.6139ZM80.8531 45.1362C82.4861 45.1596 84.1214 45.2018 85.7614 45.2135C85.9207 48.4678 85.8153 51.7431 86.1222 54.9974C90.3746 55.3043 94.4676 56.4922 98.5607 57.5957C99.9172 55.2739 101.051 52.7178 103.15 50.9583C104.558 51.3284 105.938 51.8509 107.316 52.3359C105.927 54.7655 104.509 57.1599 103.096 59.5778C111.728 65.1445 118.609 73.4875 121.343 83.487C123.135 79.8719 124.058 75.8538 126.305 72.459C129.55 67 134.416 62.7922 139.634 59.2919C139.857 56.7054 137.542 54.4468 136.452 52.1766C137.788 51.3284 139.156 50.1945 140.852 50.4499C142.593 52.2 143.544 54.5312 144.648 56.6937C148.244 55.8994 151.815 55.0091 155.463 54.4984C155.43 51.4877 155.092 48.4889 154.774 45.497C156.47 45.5392 158.166 45.6375 159.851 45.839C160.01 48.6458 160.329 51.4456 160.774 54.2243C163.848 54.7116 166.905 55.2411 169.937 55.9299C171.153 53.8119 172.151 51.5534 173.582 49.5689C175.183 48.435 177.017 49.9415 178.638 50.2695C177.715 52.8021 176.434 55.1778 175.33 57.6379C181.216 61.3607 187.11 65.4936 190.861 71.5265C197.173 81.5026 198.464 94.4494 194.331 105.496C190.515 115.899 181.799 124.389 171.27 127.857C158.984 131.908 145.072 129.276 134.747 121.601C132.106 127.55 131.08 134.452 126.443 139.328C130.187 128.356 135.255 117.213 134.098 105.306C133.547 99.2195 127.971 93.0601 121.505 94.1753C114.79 96.9188 112.503 105.189 113.719 111.815C115.205 119.661 117.072 127.508 117.198 135.523C114.389 131.79 115.312 126.374 113.562 122.056C108.495 126.212 102.895 129.872 96.431 131.411C81.7223 135.481 65.001 129.733 55.4818 117.911C53.4037 115.706 49.4911 117.742 47.4762 115.271C44.8381 112.928 46.6492 109.207 48.7602 107.213C45.0818 97.9169 44.7632 87.0599 49.121 77.9296C52.1316 71.0181 57.4218 65.3975 63.3189 60.8195C62.3208 58.0104 61.5031 55.1356 60.8986 52.2187C62.2575 51.5182 63.6047 50.7872 64.9612 50.0891C66.0835 52.856 67.2315 55.6347 67.9812 58.5281C72.0133 56.9162 76.1884 55.6979 80.4946 55.1684C80.4079 51.8158 80.3447 48.4561 80.8531 45.1362Z" fill="black"/>
<path d="M75.305 112.257C76.364 111.749 77.4253 111.09 78.6553 111.123C85.2295 110.744 91.9607 110.699 98.3545 112.555C99.4369 112.85 100.252 113.658 101.091 114.356C92.6096 112.649 83.8917 112.937 75.305 112.257Z" fill="black"/>
<path d="M132.062 67.6053C140.438 58.2548 153.977 54.7568 166.095 57.0131C175.649 58.8803 184.194 64.9133 189.442 73.0666C194.437 81.1753 196.077 91.3013 193.769 100.558C191.89 109.271 186.272 116.855 179.126 122.047C166.402 131.018 147.148 129.999 135.815 119.271C139.484 120.819 143.514 122.377 147.523 121.042C157.361 119.409 164.209 107.512 159.849 98.3417C157.063 91.5661 149.545 86.8709 142.197 88.1642C138.233 88.6421 134.848 90.91 131.809 93.3373C129.063 91.3013 125.806 90.1674 122.447 89.6894C123.951 81.7493 126.315 73.5844 132.062 67.6053Z" fill="#FDFDFD"/>
<path d="M55.234 71.2579C66.4307 56.1486 90.2767 52.1001 105.288 63.763C100.337 62.9992 94.8454 62.1605 90.3916 65.075C82.6108 69.4656 79.5018 80.3765 84.3586 88.0096C88.304 95.125 98.0036 97.9013 105.372 94.8696C109.231 93.4358 112.084 90.1089 113.992 86.5688C116.154 82.5062 115.444 77.7782 115.011 73.4087C117.586 78.7107 119.994 84.2774 120.226 90.2682C113.249 92.8852 111.206 100.659 110.515 107.327C92.0011 101.02 71.4773 100.35 52.6897 105.886C52.1274 105.991 50.9911 106.202 50.4194 106.298C46.1155 94.7947 47.9195 81.1613 55.234 71.2579Z" fill="#FDFDFD"/>
<path d="M34.1535 69.2159C31.9137 68.1592 36.7986 62.4426 39.4742 62.876C42.1521 63.3094 40.4089 65.3993 40.1114 66.7137C38.5745 68.1428 36.3933 70.2725 34.1535 69.2159Z" fill="#9E9D06"/>
<path d="M94.931 71.7116C89.1136 74.0966 88.6545 82.5779 93.3965 86.3008C99.2467 91.9706 109.848 84.2109 107.18 76.8519C105.971 71.6483 99.4692 69.4952 94.931 71.7116ZM93.851 65.3694C102.405 62.2439 113.114 68.4034 113.445 77.8078C114.928 86.022 107.993 94.187 99.7645 94.4845C91.0935 95.6934 82.5279 87.498 83.5658 78.7848C84.0227 72.9088 88.0617 67.0445 93.851 65.3694Z" fill="#32BCF3"/>
<path d="M94.9332 71.7287C99.4714 69.5123 105.973 71.6655 107.182 76.8691C109.851 84.2281 99.2489 91.9878 93.3987 86.318C88.6567 82.5951 89.1158 74.1138 94.9332 71.7287Z" fill="black"/>
<path d="M133.096 94.5049C138.981 89.3318 148.879 87.919 154.692 93.9426C160.203 99.5304 161.011 109.326 155.126 114.977C150.885 119.611 143.493 120.893 137.866 118.178C134.714 116.971 137.081 112.953 136.889 110.526C139.009 111.425 141.057 112.55 143.325 113.049C147.842 112.824 152.731 109.178 152.37 104.258C152.443 98.9259 146.644 94.8118 141.619 96.2012C139.393 97.1008 137.538 98.6823 135.502 99.9123C134.803 98.0661 133.986 96.2644 133.096 94.5049Z" fill="#32BCF3"/>
<path d="M47.0003 126.567C48.7294 126.016 49.3104 126.609 48.7505 128.35C47.0238 128.891 46.4497 128.296 47.0003 126.567Z" fill="#CA5821"/>
<path d="M189.224 127.886C190.953 127.336 191.545 127.928 191.006 129.646C189.266 130.187 188.673 129.604 189.224 127.886Z" fill="#CA5821"/>
<path d="M176.483 132.134C178.224 131.574 178.808 132.155 178.245 133.884C176.516 134.435 175.924 133.851 176.483 132.134Z" fill="#CA5821"/>
<path d="M61.7697 135.363C63.3511 134.093 64.9724 136.881 63.4261 137.91C61.8447 139.191 60.2257 136.391 61.7697 135.363Z" fill="#CA5821"/>
<path d="M184.921 140.512C186.638 139.961 187.222 140.566 186.659 142.304C184.933 142.834 184.361 142.241 184.921 140.512Z" fill="#CA5821"/>
<path d="M51.2738 143.845C52.8951 142.552 54.3687 145.455 52.874 146.464C51.2503 147.755 49.8 144.852 51.2738 143.845Z" fill="#CA5821"/>
<path d="M151.699 175.82C154.658 176.436 157.786 176.689 160.436 178.268C156.352 177.877 152.144 176.508 148.117 177.961C144.087 179.374 138.987 181.897 139.233 186.911C141.988 186.487 144.851 184.017 147.576 185.849C153.128 189.073 156.704 195.687 163.521 196.655C168.938 196.779 174.102 193.164 176.447 188.382C179.076 180.316 172.481 171.314 164.285 170.433C159.524 169.468 154.286 171.717 151.699 175.82ZM141.552 159.567C132.562 163.13 129.074 176.656 136.06 183.591C138.162 182.935 139.284 180.613 140.98 179.278C143.853 176.073 149.164 176.649 151.519 172.832C152.983 170.583 155.6 169.651 157.383 167.762C156.98 164.262 154.232 161.558 151.446 159.693C148.297 158.623 144.743 158.688 141.552 159.567ZM135.055 146.346C137.014 147.14 138.096 149.007 139.188 150.692C146.121 148.806 154.625 148.954 159.894 154.49C163.901 158.208 165.44 163.66 166.511 168.842C173.181 171.504 179.179 177.314 179.572 184.851C180.294 192.951 171.97 198.932 164.529 198.953C159.883 199.218 156.12 196.081 152.842 193.209C148.189 196.231 142.466 195.573 137.293 194.598C136.295 196.207 135.214 197.81 133.694 198.986C134.088 197.109 134.748 195.308 135.477 193.537C131.311 190.334 127.654 186.36 125.651 181.438C128.905 184.205 131.098 188.171 135.097 190.027C139.464 192.541 145.994 193.611 149.961 190.092L149.834 188.998C145.898 189.347 141.573 190.294 138.066 187.855C131.834 184.493 129.826 176.743 131.079 170.168C132.679 160.872 143.558 153.447 152.559 157.648C156.914 159.44 158.613 163.988 160.647 167.837C161.23 168.006 162.397 168.346 162.98 168.505C162.186 162.749 159.046 157.076 153.756 154.331C147.14 150.851 138.689 152.951 133.453 157.976C130.55 160.478 128.957 164.009 127.059 167.254L126.518 168.079C125.946 163.416 129.221 159.747 131.862 156.334C129.955 154.977 128.045 153.609 126.403 151.934C128.989 152.304 131.089 153.949 133.516 154.733C134.905 153.904 136.177 152.899 137.492 151.955C136.58 150.13 135.702 148.286 135.055 146.346Z" fill="black"/>
<path d="M115.591 175.844C118.391 175.738 121.179 175.792 123.977 175.748C124.052 176.183 124.19 177.053 124.262 177.488C121.36 177.085 118.082 177.723 115.591 175.844Z" fill="black"/>
<path d="M117.876 186.932C118.722 184.242 121.245 182.778 123.612 181.59C123.094 184.505 120.219 185.735 117.876 186.932Z" fill="black"/>
<path d="M193.538 152.44C198.468 150.322 204.84 153.788 204.913 159.354C205.138 168.536 196.603 178.564 186.837 176.518C183.243 176.019 181.198 172.268 181.156 168.916C181.229 161.55 186.542 154.645 193.538 152.44Z" fill="#9E9D06"/>
<path d="M141.539 159.546C144.73 158.668 148.284 158.604 151.433 159.675C154.218 161.54 156.967 164.244 157.37 167.742C155.587 169.632 152.97 170.562 151.505 172.812C149.151 176.628 143.839 176.054 140.967 179.257C139.271 180.592 138.149 182.917 136.047 183.573C129.061 176.638 132.549 163.11 141.539 159.546Z" fill="#5F2227"/>
<path d="M54.5818 164.844C56.1633 164.014 58.6421 164.417 58.928 166.453C60.6898 170.218 55.9384 175.689 52.1757 173.196C50.0437 170.462 51.679 166.285 54.5818 164.844Z" fill="#9E9D06"/>
<path d="M151.696 175.796C154.283 171.694 159.521 169.445 164.282 170.41C172.478 171.291 179.073 180.292 176.444 188.359C174.099 193.141 168.935 196.756 163.518 196.632C156.701 195.664 153.125 189.05 147.573 185.826C144.848 183.994 141.985 186.463 139.23 186.888C138.984 181.874 144.084 179.35 148.114 177.938C152.141 176.485 156.349 177.853 160.433 178.245C157.783 176.665 154.655 176.412 151.696 175.796Z" fill="#EE959C"/>
<path d="M67.4114 176.777C71.4528 175.791 75.7357 178.963 76.2019 183.044C77.3687 190.921 70.9843 199.859 62.7373 200.051C59.2605 200.356 56.1421 197.535 55.5915 194.187C54.2444 186.509 60.1062 178.75 67.4114 176.777Z" fill="#9E9D06"/>
<path d="M188.321 188.456C190.116 187.195 193.223 187.757 193.244 190.344C194.579 194.807 187.909 199.451 184.992 195.048C184.568 192.399 186.234 189.918 188.321 188.453" fill="#9E9D06"/>
<defs>
<filter id="filter0_d_1_2348" x="0.499863" y="-0.000144958" width="245" height="245" filterUnits="userSpaceOnUse" color-interpolation-filters="sRGB">
<feFlood flood-opacity="0" result="BackgroundImageFix"/>
<feColorMatrix in="SourceAlpha" type="matrix" values="0 0 0 0 0 0 0 0 0 0 0 0 0 0 0 0 0 0 127 0" result="hardAlpha"/>
<feOffset dy="1.5"/>
<feGaussianBlur stdDeviation="3.75"/>
<feComposite in2="hardAlpha" operator="out"/>
<feColorMatrix type="matrix" values="0 0 0 0 0 0 0 0 0 0 0 0 0 0 0 0 0 0 0.25 0"/>
<feBlend mode="normal" in2="BackgroundImageFix" result="effect1_dropShadow_1_2348"/>
<feBlend mode="normal" in="SourceGraphic" in2="effect1_dropShadow_1_2348" result="shape"/>
</filter>
</defs>
</svg>
