<svg width="246" height="245" viewBox="0 0 246 245" fill="none" xmlns="http://www.w3.org/2000/svg">
<g filter="url(#filter0_d_1_2347)">
<rect x="13" y="11" width="220" height="220" rx="15" fill="#F7E948" stroke="#FDFDFD" stroke-width="10"/>
</g>
<path d="M138.289 38.0886C140.543 33.3544 145.298 29.7061 150.722 30.0364C155.242 29.6736 159.295 32.0757 162.626 34.8732C158.254 33.467 153.748 31.7704 149.071 32.5511C144.822 32.7989 141.699 35.9367 138.289 38.0886Z" fill="black"/>
<path d="M161.013 188.845C158.431 190.474 155.713 192.095 152.621 192.443C146.518 193.181 139.691 193.374 134.729 189.138C127.641 194.177 117.211 195.028 109.932 189.953C105.811 192.298 101.214 193.952 96.4223 193.872C93.1394 194.177 89.3234 192.353 86.661 195.071C94.0327 197.02 101.652 197.903 109.261 198.279C131.049 198.899 153.073 198.626 174.44 193.827C177.045 193.226 179.56 192.276 181.917 191.007C179.717 190.114 177.395 189.298 175.006 189.921C170.331 190.804 165.485 190.509 161.013 188.845ZM57.232 170.659C60.8753 178.641 66.9157 185.457 74.1723 190.329C78.2384 192.784 83.308 195.626 87.8846 192.638C81.4989 185.402 76.2892 177.169 72.4057 168.339C67.2185 167.601 62.0113 168.632 57.232 170.659ZM189.431 167.26C186.896 174.577 183.488 181.551 179.56 188.222C180.964 188.855 182.355 189.491 183.761 190.124C191.666 183.17 195.389 172.978 197.846 163.039C195.717 163.017 193.59 162.982 191.471 163.242C190.269 164.25 190.024 165.892 189.431 167.26ZM75.486 169.788C77.8056 175.428 81.1361 180.6 84.4891 185.685C86.4333 188.287 88.3051 191.653 91.8583 192.196C97.7811 192.693 103.604 190.724 108.911 188.257C104.973 180.918 101.902 173.151 99.5577 165.156C93.9877 165.134 88.6203 163.129 83.1404 162.892C79.98 163.842 73.5618 165.244 75.486 169.788ZM163.615 160.605C163.921 169.56 163.48 178.563 161.736 187.371C167.546 189.185 175.529 189.953 179.637 184.496C183.611 178.145 186.466 171.076 188.47 163.875C188.801 162.153 189.629 159.281 187.079 159.018C179.277 156.538 171.305 158.996 163.615 160.605ZM133.346 156.628C132.713 160.139 133.088 163.695 133.531 167.193C134.377 173.546 134.694 179.954 135.873 186.25C136.123 188.322 138.022 189.616 139.897 190.136C144.876 191.575 150.208 191.029 155.133 189.626C156.922 188.91 159.382 188.335 159.812 186.14C161.849 177.873 161.579 169.277 161.579 160.83C152.007 161.498 142.091 160.965 133.346 156.628ZM125.839 156.981C125.151 158.383 124.868 160.252 123.214 160.875C116.475 164.17 108.844 164.781 101.472 165.166C103.907 172.62 106.759 179.967 110.43 186.908C111.551 189.4 114.223 190.564 116.758 191.029C122.761 191.958 129.33 191.292 134.219 187.394C132.863 177.745 131.559 168.086 130.643 158.383C129.057 157.875 127.448 157.387 125.839 156.981ZM124.843 138.432C124.778 144.037 124.888 149.632 125.218 155.222C127.991 155.417 131.436 157.672 133.776 155.405C134.674 149.722 133.303 143.992 132.713 138.332C130.088 138.352 127.473 138.387 124.843 138.432ZM97.1229 130.535C94.3054 131.193 90.3418 132.079 89.8564 135.502C88.1799 143.709 87.4993 152.097 85.9254 160.329C97.9738 164.148 111.481 163.852 123.192 159.031C123.054 151.942 123.382 144.84 122.986 137.766C122.839 134.829 119.976 133.235 117.576 132.226C111.111 129.699 103.907 129.542 97.1229 130.535ZM145.101 128.691C141.523 129.767 137.379 131.093 135.513 134.616C134.719 141.637 135.59 148.739 135.951 155.768C147.911 158.996 161.001 160.024 172.956 156.276C174.771 156.085 173.977 153.898 173.807 152.77C172.053 146.041 170.149 139.338 168.135 132.679C167.557 131.148 167.196 129.179 165.472 128.511C158.951 125.951 151.715 127.152 145.101 128.691ZM125.206 125.758C109.784 126.371 94.0327 126.674 79.1668 121.855C80.0375 126.777 82.2345 132.204 87.4067 133.89C91.0425 131.07 94.9961 128.453 99.7604 128.228C108.075 127.582 118.187 127.965 123.87 135.011C125.809 137.867 129.567 136.1 132.362 136.155C134.502 130.252 140.344 127.174 146.212 126.188C154.139 124.807 163.378 123.992 170.034 129.416C174.951 125.195 177.43 118.817 177.453 112.421C161.193 120.458 143.165 124.197 125.206 125.758ZM183.148 105.988C183.568 106.226 184.407 106.688 184.825 106.929C183.115 108.262 181.246 109.488 179.913 111.245C177.928 115.917 178.159 121.434 175.063 125.678C173.367 128.738 169.663 131.476 170.875 135.387C172.278 142.123 174.34 148.691 175.914 155.395C183.906 155.337 190.567 160.004 198.117 161.736C202.308 144.342 200.599 126.381 201.107 108.693C201.537 108.47 202.41 108.027 202.853 107.802C204.245 126.028 204.099 144.548 200.644 162.561C198.537 172.583 195.379 183.115 187.78 190.406C183.138 195.153 176.332 196.429 170.136 197.903C149.27 202.034 127.833 202.242 106.647 201.311C95.7993 200.328 84.5766 199.239 74.6802 194.347C62.3591 187.146 53.5087 174.52 50.3133 160.672C46.7101 146.099 47.8236 130.9 49.8053 116.177C50.6311 116.167 52.2825 116.132 53.1083 116.112C49.2598 133.145 49.6101 151.466 55.6781 167.951C60.1747 167.183 64.7062 166.65 69.2103 165.949C74.2748 165.256 78.7339 162.641 83.2529 160.444C84.7468 152.562 86.1156 144.67 87.3617 136.746C84.3715 134.478 80.9909 132.284 79.4946 128.668C77.9082 125.746 77.2951 122.045 74.465 119.983C71.3873 117.706 68.1369 115.657 65.3594 112.987L66.3027 112.626C78.5763 121.489 94.0677 123.721 108.844 124.117C124.628 124.514 140.457 122.588 155.726 118.554C165.417 115.814 175.121 112.226 183.148 105.988Z" fill="black"/>
<path d="M67.8113 47.0905C69.8832 35.993 85.182 31.3738 93.5245 38.6329C89.0205 37.8397 84.3087 36.6186 79.8472 38.3051C74.8427 39.6413 71.2194 43.4447 67.8113 47.0905Z" fill="black"/>
<path d="M149.55 37.571C150.998 37.561 152.437 37.5485 153.883 37.5485C153.683 40.4586 153.503 43.3687 153.24 46.2688C157.261 46.1437 161.26 46.6291 165.131 47.6601C166.024 44.785 166.988 41.9199 168.006 39.0874C169.287 39.6554 170.556 40.2309 171.82 40.8214C170.293 43.3587 168.787 45.906 167.215 48.4082C169.91 50.5276 178.698 55.94 174.665 55.6898C171.029 53.3002 167.691 50.2424 163.399 49.0989C151.949 46.1887 138.792 49.8345 131.17 59.0278C126.869 63.4918 126.166 69.8551 123.368 75.1098C121.865 74.0664 121.782 72.007 121.091 70.4556C119.633 65.4061 116.215 61.2373 112.466 57.6941C111.548 56.8784 110.629 56.0752 109.656 55.3395C101.877 50.3325 91.7425 47.6601 82.8995 51.4085C71.4392 56.0852 64.6255 68.1335 63.2317 80.0242C62.7763 79.9241 61.8581 79.719 61.3951 79.6039C62.7313 69.5598 67.6107 60.0612 75.4603 53.5604C73.979 51.999 72.4676 50.4576 70.9762 48.8937C72.2098 48.2056 73.456 47.535 74.7121 46.8694C75.6304 48.6235 76.5237 50.3775 77.407 52.1441C80.0895 50.8079 82.8294 49.5743 85.5944 48.4208C85.2866 45.7684 84.9613 43.121 84.6435 40.4711C85.717 40.4461 87.8714 40.3785 88.9449 40.346C88.8298 42.9283 88.7298 45.5232 88.6297 48.1055C91.9252 48.138 95.2181 48.2281 98.5135 48.3958C98.7262 46.404 98.9439 44.4096 99.1816 42.4178C100.495 42.7582 101.809 43.0859 103.135 43.4263C102.455 45.318 101.751 47.1972 101.063 49.0764C110.947 52.7247 119.317 60.2514 123.356 70.0578C125.928 61.5901 131.658 54.3286 139.425 50.0372C137.932 47.9103 136.448 45.7684 134.951 43.629C136.13 43.0409 137.306 42.4529 138.485 41.8523C139.628 44.207 140.729 46.5741 141.838 48.9412C144.76 48.0254 147.703 47.2297 150.681 46.494C150.273 43.5288 149.877 40.5487 149.55 37.571Z" fill="black"/>
<path d="M142.742 96.4021C147.859 92.0756 155.244 90.6593 161.597 92.7437C155.256 93.6846 148.915 94.5779 142.742 96.4021Z" fill="black"/>
<path d="M209.052 41.7463C214.019 39.6719 216.319 46.7608 214.169 50.284C213.138 53.7921 207.974 54.6779 205.822 51.7553C204.093 48.2671 205.847 43.7506 209.052 41.7463Z" fill="#9E9D06"/>
<path d="M40.2115 43.9583C43.9149 43.02 48.4215 44.5263 49.6576 48.4299C51.6269 54.7055 49.9954 62.405 44.8683 66.7314C41.6729 69.3913 36.3656 68.5781 34.3463 64.8522C29.9423 58.2037 31.2685 45.9301 40.2115 43.9583Z" fill="#9E9D06"/>
<path d="M131.179 59.0254C138.801 49.8321 151.958 46.1863 163.408 49.0965C167.7 50.24 171.038 53.2978 174.673 55.6874C174.446 55.8451 174.003 56.1528 173.778 56.308C169.531 54.9968 164.562 55.1419 161.334 58.595C154.665 65.5288 154.187 76.7014 158.456 85.0264C149.671 85.4893 140.713 86.6779 132.798 90.7441C130.466 88.1717 127.646 86.1574 124.546 84.6285C124.883 80.3722 123.365 76.4537 120.952 73.0231C120.987 72.3775 121.055 71.0988 121.1 70.4507C121.791 72.0047 121.871 74.064 123.377 75.1074C126.175 69.8527 126.875 63.4894 131.179 59.0254Z" fill="#FDFDFD"/>
<path d="M145.105 128.692C151.721 127.153 158.955 125.952 165.478 128.512C167.2 129.18 167.562 131.149 168.138 132.68C170.155 139.339 172.056 146.042 173.813 152.771C173.981 153.899 174.776 156.086 172.962 156.277C161.004 160.025 147.915 158.997 135.957 155.769C135.594 148.74 134.725 141.638 135.516 134.617C137.383 131.094 141.526 129.768 145.105 128.692Z" fill="#FDFDFD"/>
<path d="M125.844 157.015C127.453 157.421 129.06 157.909 130.649 158.419C131.562 168.12 132.868 177.782 134.224 187.428C129.335 191.326 122.767 191.994 116.764 191.064C114.226 190.601 111.557 189.435 110.436 186.942C106.765 180.004 103.91 172.654 101.477 165.2C108.849 164.815 116.481 164.204 123.217 160.911C124.871 160.288 125.156 158.419 125.844 157.015Z" fill="#FDFDFD"/>
<path d="M133.342 156.613C142.085 160.949 152.004 161.482 161.573 160.814C161.573 169.262 161.845 177.857 159.806 186.125C159.376 188.319 156.918 188.895 155.129 189.61C150.202 191.014 144.87 191.559 139.891 190.121C138.019 189.6 136.117 188.307 135.869 186.235C134.691 179.939 134.373 173.531 133.525 167.177C133.082 163.679 132.709 160.123 133.342 156.613Z" fill="#FDFDFD"/>
<path d="M163.618 160.563C171.308 158.954 179.28 156.497 187.082 158.977C189.632 159.239 188.804 162.112 188.473 163.836C186.469 171.037 183.614 178.104 179.64 184.454C175.532 189.912 167.55 189.144 161.739 187.33C163.483 178.522 163.924 169.519 163.618 160.563Z" fill="#FDFDFD"/>
<path d="M75.4873 169.749C73.5605 165.207 79.9813 163.804 83.1417 162.853C88.6216 163.091 93.989 165.097 99.559 165.117C101.904 173.112 104.971 180.879 108.91 188.218C103.603 190.685 97.7824 192.655 91.8595 192.157C88.3063 191.614 86.4346 188.251 84.4904 185.648C81.1373 180.561 77.8069 175.389 75.4873 169.749Z" fill="#FDFDFD"/>
<path d="M82.8997 51.387C91.7427 47.6386 101.877 50.3085 109.654 55.3155C103.361 56.8219 96.9724 59.6969 93.6444 65.5747C89.2855 72.1081 90.5516 80.5457 94.1298 87.0991C88.3672 87.6671 82.717 88.9908 77.2471 90.8825C73.749 85.9681 69.1648 81.6768 63.232 80.0027C64.6232 68.112 71.4394 56.0637 82.8997 51.387Z" fill="#FDFDFD"/>
<path d="M161.295 60.838C156.088 67.7092 156.088 77.3604 159.991 84.8447C162.836 84.9347 165.691 85.0248 168.531 85.2175C165.474 79.7376 164.578 71.6628 170.208 67.4865C173.886 64.664 178.383 67.0211 181.688 69.2181C180.239 65.0844 178.418 60.5778 174.317 58.4133C170.138 56.0011 164.137 56.7393 161.295 60.838ZM109.658 55.3005C110.634 56.0362 111.552 56.8394 112.468 57.6577C105.099 57.0321 97.5348 60.6328 94.2944 67.4515C90.8538 73.5194 92.798 80.6434 95.3253 86.6438C99.0962 86.7239 102.877 86.8365 106.648 87.0066C105.822 83.1556 104.326 79.2271 105.074 75.241C105.845 70.847 110.849 67.982 115.073 69.0354C117.338 69.8061 119.149 71.4826 120.948 72.9865C123.361 76.4196 124.879 80.3381 124.542 84.5945C127.642 86.1208 130.462 88.1377 132.794 90.71C140.706 86.6438 149.667 85.4552 158.452 84.9898C154.183 76.6673 154.661 65.4922 161.33 58.561C164.558 55.1079 169.527 54.9602 173.774 56.2739C173.999 56.1163 174.442 55.811 174.669 55.6533L175.588 54.9602C180.772 60.3826 183.818 67.5866 184.623 75.0058C179.063 77.5181 176.616 83.3133 172.923 87.7323C159.801 86.3836 146.079 86.9165 133.802 92.1688C134.14 96.6328 134.29 101.104 134.153 105.576C143.484 110.863 154.819 110.265 164.84 107.513C169.425 106.357 173.751 104.297 177.532 101.467C177.827 101.752 178.418 102.303 178.71 102.588C170.911 109.732 159.901 112.134 149.609 112.179C143.904 112.337 138.319 110.535 133.63 107.307C132.737 108.363 131.853 109.427 130.96 110.49C132.284 104.365 133.382 97.2333 129.624 91.7284C126.919 87.8099 121.018 87.7323 117.61 90.7675C112.696 94.9112 111.552 102.235 113.284 108.181C114.518 112.702 118.549 115.45 121.652 118.63C117.225 117.447 113.702 114.421 111.097 110.741C102.865 115.89 92.5603 115.913 83.347 113.978C79.0982 113.188 75.4073 110.841 72.1894 108.056C72.5297 107.785 73.2104 107.242 73.5507 106.97C84.2954 114.068 98.8685 114.769 110.519 109.529C108.675 102.926 109.898 96.0648 113.171 90.1444C101.679 88.4679 89.7528 88.8533 78.6578 92.4866C78.3075 92.0787 77.6043 91.2755 77.2515 90.8676C82.7214 88.9759 88.3691 87.6522 94.1343 87.0842C90.5535 80.5308 89.2899 72.0932 93.6488 65.5598C96.9768 59.682 103.365 56.8069 109.658 55.3005Z" fill="black"/>
<path d="M82.1031 98.8121C87.1752 94.9611 94.4919 94.2129 100.23 96.9754C94.1165 96.8978 88.126 98.0289 82.1031 98.8121Z" fill="black"/>
<path d="M161.296 60.8721C164.139 56.7735 170.139 56.0353 174.318 58.4474C178.419 60.6119 180.241 65.1185 181.69 69.2522C178.384 67.0552 173.887 64.6981 170.209 67.5206C164.579 71.6969 165.475 79.7716 168.533 85.2516C165.693 85.0589 162.838 84.9688 159.993 84.8787C156.089 77.3945 156.089 67.7433 161.296 60.8721Z" fill="#32BCF3"/>
<path d="M94.2979 67.5408C97.5383 60.7222 105.103 57.124 112.474 57.7471C116.223 61.2902 119.641 65.459 121.1 70.5085C121.054 71.1541 120.987 72.4328 120.952 73.0784C119.155 71.572 117.341 69.8955 115.079 69.1273C110.853 68.0738 105.848 70.9364 105.08 75.3304C104.332 79.3165 105.826 83.245 106.652 87.096C102.883 86.9258 99.0997 86.8132 95.3288 86.7332C92.8015 80.7328 90.8573 73.6113 94.2979 67.5408Z" fill="#32BCF3"/>
<path d="M33.472 69.8655C37.1278 67.4984 40.3657 72.5129 39.2772 75.856C39.087 79.5343 33.8548 79.8747 31.9856 77.3048C30.189 75.0403 30.9447 71.2343 33.472 69.8655Z" fill="#9E9D06"/>
<path d="M184.637 75.0901C193.567 71.6095 204.112 72.9807 212.014 78.3731C202.968 75.7332 192.404 73.3335 183.921 78.9136C175.714 83.7504 174.92 96.692 182.425 102.525C189.481 108.628 199.445 106.829 207.733 104.892C206.161 105.943 204.552 106.951 202.866 107.825C202.423 108.05 201.552 108.495 201.122 108.715C195.662 109.511 189.901 109.341 184.837 106.951C184.419 106.714 183.581 106.248 183.16 106.01C181.634 104.962 180.138 103.861 178.724 102.67C178.431 102.387 177.841 101.834 177.545 101.551C175.316 97.2275 174.285 92.4557 172.936 87.8166C176.63 83.3976 179.074 77.6024 184.637 75.0901Z" fill="#CA5821"/>
<path d="M35.1768 88.8046C41.45 81.2502 51.7418 77.5144 61.3905 79.5763C61.8534 79.6889 62.7717 79.894 63.2271 79.9941C69.16 81.6706 73.7441 85.962 77.2448 90.8764C77.5951 91.2843 78.2983 92.0876 78.6486 92.4979C77.5851 97.5225 76.359 102.61 73.5414 106.978C73.2011 107.251 72.523 107.794 72.1802 108.064C70.2359 109.596 68.2992 111.135 66.2974 112.574L65.354 112.936C61.423 114.495 57.3143 115.596 53.1005 116.059C52.2747 116.082 50.6233 116.117 49.7976 116.124C47.3178 115.902 44.9732 115.028 42.6511 114.192C51.2688 114.1 60.3295 112.824 67.2358 107.216C72.2978 103.65 76.5416 96.7067 73.2587 90.6062C69.25 83.2546 59.8066 81.523 52.1372 82.2612C45.8565 82.4063 40.6242 86.1672 35.1768 88.8046Z" fill="#CA5821"/>
<path d="M192.804 91.1581C195.033 90.3699 199.08 88.3931 199.845 89.982C200.611 91.5709 195.596 94.0882 193.767 94.5361C191.933 94.979 193.119 92.2791 192.804 91.1581Z" fill="#CA5821"/>
<path d="M201.876 80.1349C203.505 79.9872 204.924 81.1107 203.145 82.3669C201.799 84.3236 197.462 85.6473 196.734 84.2235C196.008 82.7998 199.579 80.3951 201.876 80.1349Z" fill="#CA5821"/>
<path d="M184.212 88.9971C182.598 87.1955 189.947 81.02 191.811 82.734C193.673 84.4531 185.828 90.7987 184.212 88.9971Z" fill="#CA5821"/>
<path d="M57.5378 87.7972C58.2735 85.8179 62.6448 85.0072 64.2738 86.2458C65.9028 87.4819 56.7996 89.774 57.5378 87.7972Z" fill="#CA5821"/>
<path d="M45.3347 90.9246C47.4166 89.0555 52.0707 88.3023 52.934 89.701C53.7948 91.0973 49.7387 94.5804 46.6934 94.3202C44.8943 94.7731 43.7033 91.8079 45.3347 90.9246Z" fill="#CA5821"/>
<path d="M52.8408 100.368C52.0852 97.9162 59.9822 95.0186 60.5077 96.5525C61.0307 98.0863 53.599 102.823 52.8408 100.368Z" fill="#CA5821"/>
<path d="M184.834 106.894C189.896 109.281 195.659 109.451 201.118 108.658C200.61 126.346 202.317 144.307 198.126 161.701C190.576 159.967 183.918 155.302 175.923 155.36C174.352 148.656 172.287 142.088 170.886 135.352C169.673 131.441 173.376 128.701 175.075 125.643C178.168 121.397 177.938 115.882 179.922 111.21C181.255 109.451 183.125 108.227 184.834 106.894Z" fill="#5F2227"/>
<path d="M53.115 116.058C57.3288 115.592 61.4376 114.494 65.3661 112.932C68.1436 115.602 71.394 117.654 74.4718 119.931C77.3018 121.991 77.9149 125.694 79.5013 128.617C80.9977 132.23 84.3783 134.427 87.3685 136.691C86.1223 144.616 84.756 152.508 83.2597 160.393C78.7406 162.59 74.2816 165.204 69.2196 165.895C64.713 166.596 60.1814 167.129 55.6849 167.899C49.6194 151.412 49.2666 133.093 53.115 116.058Z" fill="#5F2227"/>
<path d="M125.198 125.771C143.157 124.207 161.186 120.469 177.445 112.429C177.42 118.827 174.943 125.203 170.026 129.427C163.37 124.002 154.132 124.818 146.205 126.199C140.337 127.185 134.494 130.263 132.352 136.166C129.557 136.111 125.799 137.877 123.862 135.022C118.177 127.976 108.065 127.593 99.7527 128.238C94.9884 128.464 91.0349 131.081 87.3991 133.901C82.2244 132.215 80.0274 126.787 79.1591 121.863C94.0251 126.685 109.777 126.382 125.198 125.769" fill="#EE959C"/>
<path d="M204.611 113.335C205.925 122.553 205.925 132.007 204.611 141.228C203.978 131.952 203.978 122.611 204.611 113.335Z" fill="#FFF258"/>
<path d="M97.1252 130.51C103.909 129.517 111.113 129.674 117.579 132.202C119.978 133.21 122.841 134.804 122.989 137.742C123.384 144.816 123.056 151.917 123.194 159.006C111.483 163.825 97.976 164.123 85.9276 160.305C87.5015 152.072 88.1821 143.684 89.8586 135.475C90.3441 132.054 94.3076 131.168 97.1252 130.51Z" fill="#FDFDFD"/>
<path d="M124.845 138.395C127.475 138.35 130.09 138.318 132.717 138.295C133.305 143.958 134.676 149.688 133.778 155.368C131.439 157.635 127.993 155.381 125.22 155.188C124.893 149.598 124.78 144 124.845 138.395Z" fill="#5F2227"/>
<path d="M189.425 167.291C190.016 165.922 190.263 164.281 191.462 163.272C193.581 163.012 195.711 163.047 197.838 163.07C195.383 173.009 191.66 183.2 183.752 190.154C182.349 189.521 180.955 188.885 179.554 188.252C183.482 181.581 186.888 174.607 189.425 167.291Z" fill="#FDFDFD"/>
<path d="M57.2435 170.647C62.0203 168.618 67.2275 167.587 72.4146 168.325C76.2981 177.158 81.5079 185.39 87.8961 192.624C83.3195 195.615 78.2499 192.772 74.1837 190.315C66.9247 185.445 60.8868 178.627 57.2435 170.647Z" fill="#FDFDFD"/>
<path d="M161.009 188.82C165.481 190.484 170.328 190.779 175.002 189.896C177.391 189.272 179.714 190.088 181.913 190.982C179.556 192.25 177.041 193.201 174.436 193.802C153.07 198.601 131.045 198.874 109.258 198.253C101.648 197.878 94.0289 196.994 86.6573 195.045C89.3197 192.328 93.1356 194.152 96.4185 193.847C101.21 193.927 105.807 192.273 109.928 189.928C117.207 195.003 127.637 194.152 134.726 189.112C139.688 193.349 146.514 193.156 152.617 192.418C155.709 192.07 158.427 190.449 161.009 188.82Z" fill="#EE959C"/>
<path d="M188.13 199.79C192.829 197.515 196.565 193.78 200.753 190.732C199.17 197.923 192.058 201.762 185.672 204.014C171.475 208.43 156.411 208.012 141.713 208.613C127.47 209.474 113.2 209.121 98.9442 209.429C88.7425 210.004 77.7376 209.281 69.0623 203.313C66.0621 201.389 64.0452 198.366 62.3261 195.318C66.57 197.866 70.4761 201.001 75.0302 203.018C81.7337 205.988 89.1279 207.059 96.4069 207.074C107.732 207.059 119.065 207.132 130.378 206.426C144.33 206.076 158.29 205.578 172.175 204.174C177.665 203.506 183.135 202.227 188.13 199.79Z" fill="#EE959C"/>
<defs>
<filter id="filter0_d_1_2347" x="0.499878" y="-0.000152588" width="245" height="245" filterUnits="userSpaceOnUse" color-interpolation-filters="sRGB">
<feFlood flood-opacity="0" result="BackgroundImageFix"/>
<feColorMatrix in="SourceAlpha" type="matrix" values="0 0 0 0 0 0 0 0 0 0 0 0 0 0 0 0 0 0 127 0" result="hardAlpha"/>
<feOffset dy="1.5"/>
<feGaussianBlur stdDeviation="3.75"/>
<feComposite in2="hardAlpha" operator="out"/>
<feColorMatrix type="matrix" values="0 0 0 0 0 0 0 0 0 0 0 0 0 0 0 0 0 0 0.25 0"/>
<feBlend mode="normal" in2="BackgroundImageFix" result="effect1_dropShadow_1_2347"/>
<feBlend mode="normal" in="SourceGraphic" in2="effect1_dropShadow_1_2347" result="shape"/>
</filter>
</defs>
</svg>
