<svg width="246" height="245" viewBox="0 0 246 245" fill="none" xmlns="http://www.w3.org/2000/svg">
<g filter="url(#filter0_d_1_2351)">
<rect x="13" y="11" width="220" height="220" rx="15" fill="#F7E948" stroke="#FDFDFD" stroke-width="10"/>
</g>
<path d="M49.3421 44.8034C51.5906 44.2932 54.6564 44.2006 56.0966 46.3656C60.1828 53.7002 50.9473 63.9493 43.2559 60.2899C38.1358 54.9689 43.1001 46.3769 49.3421 44.8034Z" fill="#9E9D06"/>
<path d="M189.25 160.142C193.937 159.253 199.854 160.04 202.54 164.483C205.021 168.897 202.928 174.321 199.976 177.958C194.634 183.609 185.756 187.02 178.267 183.762C174.599 182.23 172.434 177.958 173.495 174.098C175.202 166.833 182.067 161.409 189.25 160.142Z" fill="#9E9D06"/>
<path d="M68.6478 171.186C72.0702 170.155 76.382 171.186 77.9239 174.692C81.7752 182.546 78.6486 194.071 70.0904 197.36C65.7853 198.983 61.3854 195.694 59.9654 191.721C57.6154 184.038 60.9362 174.365 68.6478 171.186Z" fill="#9E9D06"/>
<path d="M203.532 46.5286C205.584 45.6911 208.494 46.1313 209.427 48.3978C211.093 51.9331 208.291 55.7934 205.483 57.8071C203.277 59.6041 198.925 59.5138 198.056 56.3262C196.861 52.2807 199.823 48.0208 203.532 46.5286Z" fill="#9E9D06"/>
<path d="M109.073 50.5837C114.331 51.8592 119.104 56.0491 119.747 61.6275C120.016 64.4764 120.474 67.8582 118.338 70.1473C118.061 66.0296 118.277 61.6275 115.968 57.9996C114.496 54.794 110.839 53.5252 109.073 50.5837Z" fill="black"/>
<path d="M126.063 88.7708C128.637 88.7708 131.222 88.6376 133.807 88.8227C131.303 90.4888 128.066 90.3127 125.296 91.3354C128.045 93.0014 130.199 95.7781 133.071 97.0762L133.581 97.9047C135.409 105.034 136.218 112.574 133.825 119.694C144.358 130.862 162.91 133.731 176.017 125.498C184.989 120.042 191.107 110.481 192.732 100.153L191.741 100.018L191.996 98.7106C194.285 99.2118 196.635 99.1712 198.812 98.2411C198.737 96.6066 199.73 94.4823 197.992 93.3987C194.99 91.0487 190.973 91.3466 187.42 90.7529C187.226 90.4888 186.838 89.956 186.644 89.6896C188.429 89.5768 190.208 89.4549 191.996 89.3533C190.084 75.3996 178.081 63.7418 164.199 61.8207C147.004 58.7866 128.759 71.3835 126.063 88.7708ZM52.5384 89.4345C56.3897 88.6489 60.2636 87.852 64.1961 87.5563C64.0404 87.8407 63.7357 88.3938 63.5822 88.6692C58.137 90.5181 52.1275 90.6829 47.0729 93.6448C47.1452 95.6562 47.2671 98.6091 49.9942 98.5887C54.1209 98.1508 58.2499 97.7715 62.4082 97.6903L61.9567 98.7106C58.4937 98.8145 55.0194 99.2524 51.7392 100.408C53.0712 108.039 56.9902 115.179 62.8981 120.216C70.6188 127.173 81.6851 130.013 91.8597 128.153C99.5217 126.519 106.764 122.401 111.771 116.333C111.064 110.183 110.015 103.758 112.649 97.8438C111.453 97.3629 110.279 96.8618 109.042 96.5254C110.484 96.6676 111.922 96.8008 113.365 96.934C115.634 94.8593 118.239 93.2362 120.668 91.376C117.46 90.5272 114.098 90.5678 110.902 89.7528C110.728 89.5068 110.383 89.0169 110.207 88.7821C112.985 88.7392 115.764 88.7618 118.543 88.6602C117.776 83.5515 115.6 78.7497 112.721 74.4988C105.886 64.8457 93.5032 59.7483 81.8476 61.2382C67.2596 62.4844 53.683 74.5395 52.5384 89.4345ZM63.7153 66.2251C78.7029 53.9352 104.005 57.1318 114.796 73.4581C118.135 77.9732 119.717 83.4092 120.986 88.8024C121.034 90.1389 123.53 92.051 123.682 89.6806C125.664 74.4085 138.895 61.5769 154.126 59.7257C166.344 57.8768 179.368 63.0578 187.032 72.7425C191.034 77.6165 193.222 83.6643 194.416 89.7935C197.504 90.8951 202.272 92.1029 201.947 96.2703C201.661 100.223 197.389 101.246 194.161 101.593C192.181 111.226 186.919 120.421 178.449 125.713C164.901 135.018 144.995 133.424 133.448 121.586C131.384 125.363 130.016 129.492 127.657 133.12C129.689 124.681 133.807 116.498 132.978 107.58C132.958 102.081 129.526 96.5863 124.264 94.7374C119.442 93.848 115.245 97.925 114.275 102.39C111.687 111.206 115.929 119.859 117.399 128.44C114.579 125.785 114.232 121.667 112.538 118.346C106.856 123.568 100.328 128.399 92.4828 129.553C85.5861 130.289 78.353 130.268 71.8446 127.591C60.7602 123.218 52.333 112.788 50.2809 101.061C47.5945 100.214 43.9892 98.8642 44.3843 95.3695C43.996 91.8749 47.5018 90.4775 50.0867 89.3239C51.9559 80.4248 56.2881 71.7515 63.7153 66.2251Z" fill="black"/>
<path d="M39.2304 64.5672C41.5308 64.6237 41.8334 65.0345 42.1201 65.8946C42.4068 66.757 40.9439 73.3219 38.0543 71.9832C35.1669 70.6445 36.7381 65.0436 39.2304 64.5672Z" fill="#9E9D06"/>
<path d="M74.1601 87.4882C80.1064 87.416 86.0708 87.4273 92.0171 87.6711C86.4207 89.7864 79.5037 90.7368 74.1601 87.4882Z" fill="black"/>
<path d="M149.798 89.4028C155.742 89.3419 161.72 89.7505 167.624 88.8113C166.585 89.5766 165.569 90.579 164.181 90.579C159.727 90.9357 155.151 91.4571 150.737 90.5361C150.502 90.2516 150.033 89.6895 149.798 89.4028Z" fill="black"/>
<path d="M141.385 98.2855C140.802 106.582 149.259 113.233 157.199 111.914C163.96 111.302 169.087 105.081 169.488 98.4909C168.066 98.2765 166.657 98.062 165.235 97.8566C163.614 101.719 161.282 106.735 156.216 106.182C151.403 106.367 148.475 102.148 147.135 98.0823C145.213 98.1636 143.294 98.2155 141.385 98.2855ZM133.068 97.1319C152.704 96.0393 172.543 95.4049 191.993 98.7664L191.738 100.073C184.995 99.3488 178.223 98.9718 171.459 98.5925C170.538 104.047 167.597 109.422 162.4 111.822C156.086 115.519 147.342 113.467 143.046 107.645C140.965 105.029 140.014 101.76 139.391 98.5316C137.452 98.3578 135.508 98.1726 133.578 97.9582L133.068 97.1319Z" fill="black"/>
<path d="M99.2888 97.7149C98.5754 99.9205 98.2075 102.424 96.5188 104.151C94.2546 106.652 90.392 107.185 87.3173 106.07C84.0687 104.713 82.7616 101.207 81.5764 98.1845C79.8878 98.2342 78.2037 98.2861 76.5196 98.3674C77.0794 101.239 77.8154 104.212 79.7975 106.479C84.5586 112.569 94.5277 112.937 100.117 107.788C102.98 105.377 104.224 101.708 105.052 98.1845C103.151 97.8572 101.219 97.7352 99.2888 97.7149ZM62.4214 97.7443C77.917 96.5704 93.5277 95.1617 109.055 96.5817C110.292 96.918 111.468 97.4192 112.662 97.8978C110.73 97.9384 108.791 97.9587 106.869 97.9294C105.788 101.648 104.571 105.551 101.691 108.298C96.9207 112.854 89.1774 114.601 83.2921 111.158C78.3278 108.707 75.752 103.435 74.4968 98.2974C70.3159 98.2974 66.1486 98.6857 61.97 98.7669L62.4214 97.7443Z" fill="black"/>
<path d="M99.2902 97.71C101.22 97.7303 103.153 97.8522 105.054 98.1795C104.225 101.704 102.981 105.372 100.119 107.783C94.5291 112.932 84.56 112.564 79.7989 106.474C77.8168 104.207 77.0808 101.234 76.521 98.3624C78.2051 98.2811 79.8892 98.2292 81.5778 98.1795C82.763 101.202 84.0701 104.708 87.3187 106.065C90.3934 107.18 94.2559 106.647 96.5202 104.146C98.2088 102.419 98.5768 99.9156 99.2902 97.71Z" fill="#32BCF3"/>
<path d="M51.732 100.456C55.0122 99.3002 58.4865 98.8623 61.9472 98.7607C66.1281 98.6772 70.2955 98.2911 74.4741 98.2911C75.7315 103.427 78.3051 108.698 83.2716 111.152C89.1547 114.595 96.9003 112.848 101.67 108.292C104.549 105.542 105.768 101.641 106.849 97.9209C108.77 97.9525 110.709 97.9322 112.64 97.8915C110.005 103.806 111.057 110.233 111.764 116.383C106.756 122.451 99.5144 126.566 91.8502 128.203C81.6779 130.061 70.6115 127.221 62.8886 120.263C56.983 115.227 53.064 108.086 51.732 100.456Z" fill="#FDFDFD"/>
<path d="M133.59 97.8915C135.52 98.106 137.464 98.2889 139.403 98.4627C140.026 101.693 140.977 104.96 143.058 107.576C147.354 113.401 156.097 115.453 162.412 111.755C167.608 109.353 170.55 103.98 171.471 98.5259C178.235 98.9029 185.007 99.2799 191.75 100.007L192.741 100.14C191.116 110.468 184.996 120.029 176.027 125.485C162.92 133.718 144.367 130.849 133.834 119.681C136.227 112.561 135.419 105.021 133.59 97.8915Z" fill="#FDFDFD"/>
<path d="M141.382 98.2297C143.292 98.1597 145.211 98.1078 147.132 98.0265C148.473 102.092 151.401 106.312 156.214 106.126C161.28 106.68 163.612 101.663 165.233 97.8008C166.655 98.0062 168.064 98.2207 169.486 98.4351C169.084 105.025 163.957 111.247 157.196 111.858C149.256 113.177 140.8 106.526 141.382 98.2297Z" fill="#32BCF3"/>
<path d="M53.4975 129.151C54.4682 127.874 56.8183 129.415 55.8069 130.765C54.8249 132.021 52.4974 130.499 53.4975 129.151Z" fill="#CA5821"/>
<path d="M192.204 129.4C193.919 129.409 193.615 132.22 192.018 132.168C190.294 132.148 190.621 129.369 192.204 129.4Z" fill="#CA5821"/>
<path d="M69.6616 134.705C70.6029 133.429 72.9936 134.879 71.9529 136.249C71.0116 137.545 68.5893 136.073 69.6616 134.705Z" fill="#CA5821"/>
<path d="M172.831 135.418C173.86 133.937 176.436 135.643 175.262 137.122C174.219 138.594 171.635 136.91 172.831 135.418Z" fill="#CA5821"/>
<path d="M183.851 140.488C185.373 139.343 186.955 141.98 185.517 142.989C184.005 144.145 182.399 141.499 183.851 140.488Z" fill="#CA5821"/>
<path d="M60.3731 141.542C61.9895 141.023 62.7458 143.75 61.0707 144.095C59.4656 144.585 58.7387 141.919 60.3731 141.542Z" fill="#CA5821"/>
<path d="M57.481 158.14C59.2463 157.662 61.2397 158.447 61.9147 160.224C64.9285 164.953 58.9326 171.758 53.8645 169.204C49.6339 165.996 52.2413 158.375 57.481 158.14Z" fill="#9E9D06"/>
<path d="M105.418 169.152C105.235 171.717 104.959 174.279 104.971 176.866C110.784 176.73 116.595 177.13 122.408 177.336C122.396 173.186 122.439 169.039 122.396 164.901C116.678 166.037 110.978 167.332 105.418 169.152ZM130.183 163.461C129.704 167.761 129.541 172.105 129.365 176.426C134.677 176.753 140 176.487 145.324 176.712C145.506 171.951 145.66 167.19 145.425 162.429C140.316 162.379 135.271 163.194 130.183 163.461ZM105.011 167.834C121.243 161.551 139.183 158.74 156.374 162.267C153.518 162.531 150.645 162.664 147.787 162.919C147.089 168.294 147.601 173.739 146.886 179.101C140.359 179.347 133.819 178.909 127.291 178.959C127.343 173.994 127.882 169.039 127.711 164.075C127.027 164.156 125.656 164.319 124.972 164.402C124.369 169.274 124.196 174.189 124.053 179.092C117.127 179.695 110.17 179.214 103.221 179.44C103.275 176.394 103.377 173.349 103.415 170.317C101.158 170.879 98.9318 171.583 96.6336 171.951C99.1575 170.082 102.119 168.978 105.011 167.834Z" fill="black"/>
<path d="M130.183 163.397C135.271 163.131 140.317 162.313 145.425 162.363C145.66 167.124 145.507 171.885 145.324 176.646C140.003 176.423 134.677 176.687 129.368 176.362C129.542 172.039 129.704 167.698 130.183 163.397Z" fill="#FDFDFD"/>
<path d="M105.412 169.154C110.972 167.335 116.673 166.039 122.391 164.903C122.434 169.041 122.391 173.189 122.402 177.338C116.589 177.132 110.778 176.733 104.965 176.868C104.954 174.281 105.229 171.719 105.412 169.154Z" fill="#FDFDFD"/>
<path d="M143.9 189.452C147.566 188.971 150.815 187.113 153.993 185.334C151.451 190.955 144.972 193.283 139.15 192.996C132.94 192.619 126.777 190.054 120.533 191.486C114.896 192.772 109.207 194.714 103.342 194.028C99.4791 193.181 96.5082 190.278 93.955 187.429C97.9417 188.91 101.77 191.373 106.182 191.199C112.771 191.402 118.952 188.429 125.531 188.521C131.694 188.235 137.751 190.709 143.9 189.452Z" fill="#EE959C"/>
<path d="M169.862 188.773C171.894 188.168 174.45 189.191 174.436 191.602C175.328 195.516 170.558 199.397 167.135 196.844C163.968 194.494 166.512 189.394 169.862 188.773Z" fill="#9E9D06"/>
<defs>
<filter id="filter0_d_1_2351" x="0.499863" y="-0.000152588" width="245" height="245" filterUnits="userSpaceOnUse" color-interpolation-filters="sRGB">
<feFlood flood-opacity="0" result="BackgroundImageFix"/>
<feColorMatrix in="SourceAlpha" type="matrix" values="0 0 0 0 0 0 0 0 0 0 0 0 0 0 0 0 0 0 127 0" result="hardAlpha"/>
<feOffset dy="1.5"/>
<feGaussianBlur stdDeviation="3.75"/>
<feComposite in2="hardAlpha" operator="out"/>
<feColorMatrix type="matrix" values="0 0 0 0 0 0 0 0 0 0 0 0 0 0 0 0 0 0 0.25 0"/>
<feBlend mode="normal" in2="BackgroundImageFix" result="effect1_dropShadow_1_2351"/>
<feBlend mode="normal" in="SourceGraphic" in2="effect1_dropShadow_1_2351" result="shape"/>
</filter>
</defs>
</svg>
