<svg width="246" height="245" viewBox="0 0 246 245" fill="none" xmlns="http://www.w3.org/2000/svg">
<g filter="url(#filter0_d_1_2341)">
<rect x="13" y="11" width="220" height="220" rx="15" fill="#F7E948" stroke="#FDFDFD" stroke-width="10"/>
</g>
<path d="M42.29 36.7155C44.9766 34.8702 48.9607 36.3442 50.0793 39.3219C52.2387 44.5599 50.1527 51.5193 44.9445 54.0913C42.3726 55.3888 38.8561 54.559 37.5495 51.8632C35.0898 46.584 37.3638 39.746 42.29 36.7155Z" fill="#9E9D06"/>
<path d="M204.094 40.8693C206.086 39.6567 209.031 39.957 210.535 41.8138C214.334 47.3016 206.551 56.8238 200.671 52.6335C198.035 48.7732 200.233 43.0997 204.094 40.8693Z" fill="#9E9D06"/>
<path d="M138.206 61.2014C130.552 66.8955 125.624 75.7852 124.418 85.2158C128.04 86.4513 131.412 88.7321 133.083 92.2921C137.067 98.7633 135.987 106.656 135.105 113.815C144.006 122.633 157.721 125.797 169.721 122.56C177.46 120.371 184.14 115.206 188.851 108.774C198.547 94.8825 196.34 73.8573 183.34 62.7693C171.33 51.365 151.05 50.9112 138.206 61.2014ZM58.4473 65.4743C50.344 75.164 48.1961 89.3419 52.7693 101.076C56.0473 108.242 61.1821 115.018 68.3823 118.576C76.9327 123.307 87.4475 124.084 96.7543 121.377C102.513 119.77 107.118 115.827 111.538 112.008C110.54 107.58 110.522 103.025 110.708 98.5135C110.935 92.6544 114.949 86.9373 120.851 85.6192C119.636 73.7931 112.791 62.4232 102.015 57.0202C87.8441 49.3111 68.6848 52.9949 58.4473 65.4743ZM83.4337 43.0256C84.7953 42.9546 86.1524 42.8812 87.5117 42.817C87.9083 45.4326 88.2155 48.0596 88.3645 50.7026C93.4236 51.3559 98.1733 53.1828 102.937 54.9135C105.665 53.5244 107.045 50.0997 109.277 47.9541C110.291 48.8985 111.34 49.82 112.429 50.6934C110.747 52.9949 109.192 55.3927 107.604 57.7675C112.42 61.9373 116.682 66.8841 119.38 72.6836C120.945 75.9731 121.621 79.5835 122.74 83.0266C124.971 72.3627 131.318 62.5997 140.769 56.9881C139.804 55.0075 138.768 53.0453 138.115 50.9318C139.1 49.7489 140.27 48.761 141.402 47.7249C142.709 50.0401 144.006 52.353 145.228 54.7072C149.9 52.8413 154.876 51.9267 159.887 51.6676C160.064 49.0315 160.22 46.3976 160.541 43.7706C162.037 43.9494 163.53 44.1259 165.022 44.3139C165.228 46.8859 164.265 49.8315 165.822 52.1238C170.301 53.325 174.783 54.5926 178.881 56.8231C180.229 54.5628 181.339 52.1146 183.145 50.1639C185.139 49.5014 186.111 51.9358 187.523 52.8803C185.955 55.1336 184.64 57.5474 183.324 59.9452C188.8 65.1213 193.465 71.4182 195.489 78.7743C199.006 91.1482 195.604 105.473 186.382 114.583C179.452 121.48 169.815 125.797 159.99 125.733C150.436 125.902 141.152 121.948 134.016 115.713C131.13 121.586 129.608 127.933 127.939 134.212C126.009 123.649 133.736 114.353 133.083 103.887C132.46 98.917 131.176 93.2641 126.713 90.3391C123.196 88.3379 118.373 89.8623 116.432 93.3787C112.138 100.026 113.995 108.306 115.157 115.598C115.843 121.45 118.291 127.009 118.123 132.965C115.634 126.835 113.683 120.506 111.661 114.209C105.655 119.27 98.5699 123.846 90.4986 124.291C83.7569 124.646 76.7034 124.488 70.4156 121.709C58.1241 116.265 49.2346 103.722 48.4666 90.2589C47.6689 77.4952 53.9957 64.8943 64.3088 57.4557C63.1672 55.4018 62.0555 53.325 61.0491 51.2023C62.2732 50.494 63.4974 49.781 64.71 49.075C65.7668 51.1381 66.7983 53.2012 67.8459 55.2666C72.8431 53.0774 78.0719 51.3879 83.5185 50.7232C83.5093 48.1512 83.4566 45.5884 83.4337 43.0256Z" fill="black"/>
<path d="M86.774 76.2605C77.7583 78.264 72.2407 88.5542 75.4041 97.2055C77.7927 105.868 88.1746 110.65 96.4315 107.567C105 104.206 109.991 92.9646 105.468 84.6527C102.19 77.8697 94.0155 74.3327 86.774 76.2605ZM58.4478 65.4316C68.683 52.9522 87.8445 49.2707 102.013 56.9775C112.792 62.3805 119.637 73.7504 120.849 85.5765C114.949 86.8946 110.933 92.6116 110.706 98.4708C110.52 102.982 110.538 107.539 111.538 111.966C107.118 115.785 102.511 119.728 96.7547 121.334C87.4479 124.042 76.9308 123.265 68.3827 118.533C61.1825 114.975 56.0477 108.202 52.7697 101.034C48.1965 89.2992 50.3421 75.1212 58.4478 65.4316Z" fill="#FDFDFD"/>
<path d="M150.988 74.9557C140.688 77.3833 135.872 91.3756 142.107 99.7885C146.123 105.609 153.853 108.43 160.668 106.48C167.731 103.523 172.762 96.0657 171.962 88.2947C171.144 78.5959 160.148 71.6869 150.988 74.9557ZM138.208 61.1582C151.05 50.8679 171.332 51.3219 183.341 62.7262C196.341 73.8141 198.549 94.8416 188.852 108.731C184.141 115.163 177.462 120.328 169.723 122.517C157.722 125.754 144.008 122.59 135.106 113.774C135.989 106.615 137.069 98.7202 133.082 92.249C131.414 88.689 128.042 86.4081 124.42 85.1726C125.625 75.7443 130.554 66.8546 138.208 61.1582Z" fill="#FDFDFD"/>
<path d="M36.8895 61.5593C37.96 59.9294 40.5481 58.8544 41.7447 59.9524C42.9435 61.0458 41.1235 63.925 39.8971 65.5227C38.6615 66.7262 36.8369 68.9658 35.3239 67.6707C33.8087 66.3732 35.3766 63.2098 36.8895 61.5593Z" fill="#9E9D06"/>
<path d="M150.028 77.1645C145.216 78.7393 142.03 83.3881 141.193 88.2318C139.634 96.585 147.039 105.951 155.827 104.954C163.887 104.934 170.62 97.1215 169.966 89.1969C169.937 83.3675 165.359 78.2442 159.924 76.6143C156.666 75.9083 153.171 76.0343 150.028 77.1645ZM150.993 74.9868C160.153 71.7179 171.149 78.627 171.968 88.3258C172.768 96.0968 167.736 103.554 160.673 106.511C153.858 108.459 146.129 105.64 142.112 99.8195C135.877 91.4067 140.693 77.4121 150.993 74.9868Z" fill="black"/>
<path d="M86.7427 78.2389C79.4394 80.043 74.9463 88.1441 76.8146 95.3535C78.2679 104.131 89.3261 109.504 97.0765 105.052C106.908 100.935 107.676 85.2924 98.8575 79.7313C95.3205 77.4206 90.7565 76.9507 86.7427 78.2389ZM86.7839 76.2561C94.0253 74.3283 102.197 77.8653 105.478 84.6483C110.001 92.9602 105.01 104.202 96.4392 107.562C88.1845 110.646 77.8026 105.864 75.414 97.1988C72.2506 88.5498 77.7682 78.2596 86.7839 76.2561Z" fill="black"/>
<path d="M152.049 82.13C145.22 84.5461 145.128 95.5515 151.405 98.676C156.665 101.654 164.858 98.7585 165.399 92.2437C167.432 84.796 158.634 78.5701 152.049 82.13ZM150.013 77.0892C153.156 75.9591 156.654 75.833 159.911 76.5391C165.346 78.1666 169.922 83.2922 169.954 89.1216C170.607 97.0461 163.872 104.858 155.815 104.879C147.026 105.874 139.62 96.5074 141.178 88.1565C142.015 83.3129 145.204 78.664 150.013 77.0892Z" fill="#32BCF3"/>
<path d="M87.8838 83.6739C81.4951 85.533 79.2325 95.0233 84.7318 99.1632C89.8849 104.204 99.9781 100.864 100.239 93.3728C101.422 86.6196 94.1212 81.1432 87.8838 83.6739ZM86.733 78.2801C90.7469 76.9941 95.3108 77.4618 98.8479 79.7747C107.666 85.3359 106.899 100.979 97.0668 105.096C89.3165 109.545 78.2583 104.172 76.805 95.3946C74.939 88.1875 79.4297 80.0865 86.733 78.2801Z" fill="#32BCF3"/>
<path d="M152.065 82.2034C158.651 78.6434 167.449 84.8693 165.415 92.3171C164.874 98.8319 156.682 101.727 151.421 98.7493C145.145 95.6249 145.236 84.6195 152.065 82.2034Z" fill="black"/>
<path d="M87.8979 83.6467C94.1353 81.116 101.436 86.5924 100.254 93.3455C99.9922 100.837 89.8991 104.177 84.746 99.1359C79.2467 94.996 81.5092 85.5058 87.8979 83.6467Z" fill="black"/>
<path d="M54.3384 126.694C55.3539 125.137 58.0154 126.831 56.7867 128.356C55.7712 129.91 53.1166 128.218 54.3384 126.694Z" fill="#CA5821"/>
<path d="M68.6992 126.727C70.3886 126.198 70.9686 126.771 70.4299 128.449C68.729 128.988 68.1513 128.417 68.6992 126.727Z" fill="#CA5821"/>
<path d="M179.323 129.233C178.768 128.665 179.073 127.269 179.573 126.725C180.07 126.184 180.911 125.46 182.3 125.976C183.687 126.489 182.99 130.806 179.323 129.233Z" fill="#CA5821"/>
<path d="M194.471 126.801C196.264 126.198 197.146 129.196 195.248 129.59C193.465 130.161 192.571 127.184 194.471 126.801Z" fill="#CA5821"/>
<path d="M62.5099 136.256C64.0113 135.045 65.7673 137.647 64.2223 138.685C62.7048 139.91 60.9626 137.294 62.5099 136.256Z" fill="#CA5821"/>
<path d="M186.031 136.028C188 135.374 188.821 138.62 186.829 139.056C184.849 139.73 184.039 136.454 186.031 136.028Z" fill="#CA5821"/>
<path d="M131.643 166.419C131.549 171.258 131.345 176.113 131.414 180.969C137.392 181.457 143.378 180.781 149.361 181.186C149.542 176.304 149.542 171.416 149.416 166.531C143.492 166.169 137.569 166.903 131.646 166.419H131.643ZM108.291 166.16C107.856 171.426 107.113 176.675 107.287 181.975C112.897 182.069 118.52 182.11 124.134 182.257C124.106 176.893 124.134 171.524 124.083 166.16C118.82 165.869 113.552 166.169 108.291 166.16ZM99.3926 163.304C110.265 163.407 121.138 161.594 131.996 162.845C136.448 163.347 140.939 163.169 145.4 163.595C159.319 165.113 173.503 164.996 187.163 168.407C175.266 167.983 163.396 166.781 151.479 166.635C151.522 172.187 151.252 177.732 151.279 183.281C144.169 184.962 136.819 183.323 129.589 183.834C129.012 178.076 129.518 172.297 129.787 166.541C128.521 166.467 127.258 166.396 125.99 166.334C126.084 172.196 126.073 178.053 126.188 183.914C119.37 185.947 112.163 184.402 105.201 184.15C105.201 178.137 105.749 172.164 106.437 166.199C93.0543 165.981 79.7543 167.508 66.4244 168.43C77.0883 165.151 88.3046 164.042 99.3926 163.304Z" fill="black"/>
<path d="M108.301 166.219C113.56 166.228 118.83 165.927 124.091 166.219C124.141 171.583 124.111 176.954 124.141 182.315C118.53 182.169 112.907 182.127 107.297 182.033C107.118 176.733 107.866 171.484 108.301 166.219Z" fill="#FDFDFD"/>
<path d="M131.648 166.46C137.571 166.944 143.494 166.21 149.418 166.572C149.544 171.457 149.544 176.345 149.365 181.227C143.38 180.821 137.397 181.498 131.419 181.009C131.347 176.154 131.556 171.299 131.65 166.46" fill="#FDFDFD"/>
<path d="M195.693 168.506C199.562 167.135 205.422 167.656 206.701 172.311C209.387 181.13 200.899 190.402 192.133 190.384C188.713 190.535 185.382 187.849 185.132 184.376C184.075 177.373 189.343 170.812 195.693 168.506Z" fill="#9E9D06"/>
<path d="M66.0763 178.984C69.0747 178.031 72.7676 179.764 73.5745 182.907C75.0828 188.486 73.288 195.487 68.0271 198.488C65.3497 200.117 61.1271 199.92 59.5729 196.858C56.2926 190.572 59.1672 181.412 66.0763 178.984Z" fill="#9E9D06"/>
<path d="M51.4802 171.312C52.7731 170.125 54.5497 171.693 55.7531 172.683C56.3973 174.565 55.0791 176.566 53.1582 176.901C50.1919 177.313 50.1873 172.499 51.4802 171.312Z" fill="#9E9D06"/>
<path d="M94.5692 186.929C100.431 188.795 106.207 191.349 112.442 191.64C117.648 191.961 122.682 190.166 127.865 190.152C133.438 190.063 138.864 191.688 144.436 191.688C148.719 191.791 152.897 190.757 157.088 190.063C154.559 192.105 151.944 194.5 148.542 194.801C140.906 195.736 133.394 192.852 125.752 193.609C119.507 194.159 113.084 195.933 106.893 194.074C102.226 192.82 98.1292 190.127 94.5692 186.929Z" fill="#EE959C"/>
<path d="M174.404 193.797C174.833 191.828 181.061 187.539 181.943 188.559C182.831 189.579 178.276 195.479 176.809 195.851C175.344 196.224 173.975 195.766 174.404 193.797Z" fill="#9E9D06"/>
<defs>
<filter id="filter0_d_1_2341" x="0.499863" y="-0.00012207" width="245" height="245" filterUnits="userSpaceOnUse" color-interpolation-filters="sRGB">
<feFlood flood-opacity="0" result="BackgroundImageFix"/>
<feColorMatrix in="SourceAlpha" type="matrix" values="0 0 0 0 0 0 0 0 0 0 0 0 0 0 0 0 0 0 127 0" result="hardAlpha"/>
<feOffset dy="1.5"/>
<feGaussianBlur stdDeviation="3.75"/>
<feComposite in2="hardAlpha" operator="out"/>
<feColorMatrix type="matrix" values="0 0 0 0 0 0 0 0 0 0 0 0 0 0 0 0 0 0 0.25 0"/>
<feBlend mode="normal" in2="BackgroundImageFix" result="effect1_dropShadow_1_2341"/>
<feBlend mode="normal" in="SourceGraphic" in2="effect1_dropShadow_1_2341" result="shape"/>
</filter>
</defs>
</svg>
