<svg width="246" height="245" viewBox="0 0 246 245" fill="none" xmlns="http://www.w3.org/2000/svg">
<g filter="url(#filter0_d_1_2344)">
<rect x="13" y="11" width="220" height="220" rx="15" fill="#F7E948" stroke="#FDFDFD" stroke-width="10"/>
</g>
<path d="M67.7006 35.5367C79.9877 27.502 97.0952 29.5518 108.456 38.343C112.656 41.6146 117.469 44.922 119.297 50.1814C111.134 41.8317 100.906 34.575 88.9411 33.4964C78.5321 32.3939 68.7054 37.4148 60.6063 43.4831C56.4064 46.423 53.4043 50.6969 49.288 53.7442C53.8434 46.3252 60.2936 40.0802 67.7006 35.5367Z" fill="black"/>
<path d="M139.113 43.1063C146.101 36.8971 154.997 32.3178 164.532 32.4801C178.788 31.5399 191.185 41.7007 198.086 53.3792C194.748 50.9357 192.6 47.2966 189.5 44.6072C179.523 35.3102 163.898 32.4801 151.393 38.033C143.865 40.8178 138.023 46.4017 131.881 51.2936C133.26 47.8049 136.479 45.5904 139.113 43.1063Z" fill="black"/>
<path d="M67.5976 85.9863C71.0434 78.3525 79.4884 73.4057 87.8357 74.2695C98.8508 74.8518 107.747 85.6307 106.8 96.5027C106.196 104.256 100.805 111.276 93.6129 114.116C88.0409 116.125 81.4834 115.975 76.3553 112.82C76.2694 112.367 76.0999 111.451 76.0092 110.995C80.6338 114.374 86.7357 114.269 92.0691 112.982C100.956 110.909 106.258 101.082 105.244 92.4102C104.27 84.4304 97.7913 77.5746 89.9738 75.8899C83.7336 74.6681 76.8946 76.6224 72.4155 81.1898C67.4377 86.3203 65.4403 94.3097 68.0747 101.049C67.2753 100.629 66.4546 100.23 65.6337 99.8531C65.5024 95.1759 65.2662 90.2291 67.5976 85.9863Z" fill="black"/>
<path d="M134.38 90.0373C136.671 81.9835 144.348 75.8507 152.685 75.3425C159.097 75.0919 165.913 77.3398 169.962 82.5324C174.162 87.2859 175.124 93.9151 174.573 100.038C174.251 100.244 173.611 100.664 173.289 100.869C173.776 94.8767 172.998 88.3192 168.958 83.5919C162.598 75.8794 150.049 74.4762 142.207 80.7403C136.129 85.4819 133.29 94.1322 135.774 101.508C137.881 108.612 144.326 114.046 151.636 115.091C156.539 116.041 161.205 113.733 165.514 111.712C165.33 112.242 164.942 113.289 164.755 113.807C158.062 117.26 149.715 117.759 143.248 113.504C135.516 108.806 131.724 98.6781 134.38 90.0373Z" fill="black"/>
<path d="M37.5882 47.4938C41.7141 46.3269 45.3651 50.5625 45.0167 54.5118C45.0716 59.535 40.8932 65.7227 35.3331 64.9233C28.5274 61.2293 31.2621 50.2905 37.5882 47.4938Z" fill="#9E9D06"/>
<path d="M194.051 156.55C196.729 156.261 199.008 158.452 199.893 160.817C202.043 166.258 200.046 172.763 196.015 176.786C192.15 180.676 184.396 177.705 184.334 172.133C183.144 165.644 186.394 156.681 194.051 156.55Z" fill="#9E9D06"/>
<path d="M60.2039 180.148C65.0409 177.354 69.9329 182.602 69.5773 187.41C70.0856 192.894 66.6279 200.905 59.9462 199.384C52.2576 195.982 53.4316 183.907 60.2039 180.148Z" fill="#9E9D06"/>
<path d="M205.944 50.6992C209.486 49.3247 211.516 54.3144 210.221 57.0587C209.507 59.9199 206.992 62.4684 203.84 61.7C199.833 58.9939 201.312 51.7897 205.944 50.6992Z" fill="#9E9D06"/>
<path d="M82.4296 50.9464C84.0379 50.9369 85.6462 50.9584 87.2665 50.9894C87.362 54.2944 87.2235 57.5971 87.1257 60.914C90.9819 61.5607 94.7715 62.5128 98.592 63.3099C101.339 61.4748 102.773 58.301 104.524 55.5997C106.025 56.1414 107.557 56.6903 108.724 57.8261C107.836 60.914 105.441 63.3218 103.93 66.1281C112.113 71.2037 117.601 79.5511 120.267 88.6882C122.405 79.4007 128.454 71.4948 136.348 66.3094C135.257 63.7752 134.231 61.2171 133.203 58.647C134.835 57.8906 136.498 57.2104 138.214 56.6592C139.338 59.0025 140.538 61.3149 141.834 63.57C146.077 61.9306 150.623 61.6919 155.092 61.2791C155.818 58.4418 155.407 55.4398 156.281 52.6312C157.438 51.0944 159.727 52.3925 161.344 52.1467C161.065 55.3396 160.71 58.5277 160.419 61.723C163.819 62.4245 167.081 63.6225 170.307 64.8658C171.615 65.6652 172.414 63.873 173.18 63.1595C174.574 61.4652 175.817 59.6612 177.046 57.8572C178.626 58.4943 180.299 59.3032 180.945 61.0094C179.717 63.4387 177.769 65.3836 176.302 67.6529C176.39 69.0227 177.824 69.7243 178.614 70.7074C185.491 77.1122 189.302 86.4212 189.498 95.7731C189.011 95.7922 188.019 95.8446 187.532 95.8685C187.167 88.5807 185.038 81.1952 180.32 75.5015C173.992 67.5766 163.852 62.8254 153.701 63.2454C144.76 63.3098 136.174 67.641 130.051 74.0243C124.438 79.8994 121.756 88.0295 121.271 96.0332C125.073 96.3243 129.759 96.3339 132.158 99.8537C136.701 106.235 135.288 114.582 133.551 121.679C144.846 130.825 162.285 131.549 173.818 122.466C174.498 122.586 175.86 122.824 176.54 122.932C164.735 133.837 145.547 133.145 133.01 123.817C130.862 128.439 129.738 133.555 126.745 137.758C127.643 130.122 131.878 123.33 132.675 115.641C133.313 111.494 132.838 107.089 130.902 103.331C128.528 99.3335 122.567 97.6607 118.689 100.481C113.766 103.86 112.58 110.458 113.019 116.021C114.22 122.595 117.556 128.85 116.79 135.715C114.241 130.673 113.831 124.917 111.628 119.746C106.345 124.552 100.224 128.721 93.0868 130.057C83.229 132.054 72.3212 129.842 64.5681 123.285C65.086 123.091 66.1215 122.693 66.6417 122.497C79.4705 132.477 99.6634 130.136 110.072 117.746C111.218 113.773 110.149 109.365 111.812 105.459C112.936 101.744 116.165 99.3907 118.551 96.5391C119.255 81.6342 108.28 66.5266 93.2704 64.0329C81.747 61.4319 68.9518 65.3286 61.1319 74.2391C55.4334 80.7203 52.8394 89.4327 52.9587 97.9733C52.4194 97.9852 51.3503 98.0067 50.8206 98.0067C50.4316 86.7457 55.4953 75.4919 64.3747 68.5048C62.7425 65.5673 60.8979 62.7586 59.2537 59.8354C59.8265 57.986 62.4061 58.4633 63.8976 57.7402C65.5489 60.2434 67.1166 62.792 68.6415 65.362C72.9034 63.7298 77.2441 62.3052 81.685 61.2266C82.482 57.8667 82.2458 54.3684 82.4296 50.9464Z" fill="black"/>
<path d="M32.1033 73.0891C36.6825 70.834 38.4627 77.5824 36.043 80.5199C35.2341 82.4958 32.1772 83.0804 31.0652 81.0831C29.0464 78.7374 29.9866 75.0434 32.1033 73.0891Z" fill="#9E9D06"/>
<path d="M187.541 95.8928C188.028 95.8689 189.021 95.8164 189.508 95.7973C197.91 95.4489 207.002 98.1717 212.368 104.965C215.22 108.905 215.845 114.921 212.671 118.873C209.712 122.025 205.403 123.581 201.138 123.657C204.735 121.474 209.679 120.923 211.872 116.909C214.12 112.685 211.808 107.49 208.589 104.467C200.945 98.6895 190.414 97.902 181.44 100.622C176.486 102.209 171.064 104.555 168.754 109.564C167.198 112.575 168.766 116.098 171.042 118.257C173.503 120.849 177.447 120.861 180.115 123.137C178.924 123.137 177.738 123.075 176.55 122.956C175.87 122.848 174.507 122.607 173.827 122.49C170.05 120.503 167.155 117.319 164.778 113.831C164.962 113.313 165.351 112.263 165.535 111.735C166.916 107.404 169.033 103.009 173.309 100.892C173.634 100.687 174.271 100.267 174.593 100.062C178.731 98.1836 183.038 96.6277 187.541 95.8928Z" fill="#CA5821"/>
<path d="M30.7853 106.506C36.0327 101.192 43.4087 98.331 50.8181 98.0064C51.3455 98.0064 52.4146 97.9873 52.9563 97.9754C57.2325 98.0398 61.5303 98.5242 65.6228 99.8343C66.4413 100.211 67.2645 100.61 68.0639 101.032C72.0037 102.977 75.6667 106.325 75.9984 110.978C76.0867 111.432 76.2585 112.348 76.3444 112.804C74.3161 117.071 70.6436 120.158 66.637 122.499C66.1192 122.695 65.0835 123.094 64.5632 123.287C63.8951 123.32 62.5659 123.409 61.8977 123.44C66.897 119.736 74.8793 116.538 73.5596 108.883C64.6301 99.0349 48.8304 98.4192 37.653 104.65C32.9997 107.21 29.9213 112.758 30.7398 118.039C32.1454 122.974 37.6959 124.206 41.4543 126.797C36.4431 126.217 30.6778 124.497 28.1602 119.712C26.7595 115.3 27.5661 109.962 30.7853 106.506Z" fill="#CA5821"/>
<path d="M186.838 121.586C187.652 119.555 187.852 115.613 191.05 116.544C191.05 119.016 190.427 121.424 189.993 123.841C189.01 123.075 186.678 123.247 186.838 121.586Z" fill="#FDFDFD"/>
<path d="M143.253 113.51C149.713 117.765 158.06 117.266 164.754 113.813C167.131 117.302 170.025 120.488 173.805 122.473C162.272 131.555 144.831 130.832 133.536 121.685C135.004 115.691 136.238 108.811 133.858 102.982L134.713 102.679C136.245 107.117 139.204 111.059 143.253 113.51Z" fill="#FDFDFD"/>
<path d="M169.953 82.542C165.905 77.347 159.088 75.1015 152.685 75.3497C144.338 75.8579 136.661 81.9931 134.37 90.0469C133.108 94.1728 133.301 98.6304 134.705 102.68L133.853 102.983C133.411 101.904 132.848 100.857 132.134 99.8641C129.739 96.3419 125.052 96.3324 121.251 96.0389C121.737 88.04 124.415 79.9075 130.03 74.0324C136.153 67.6515 144.739 63.318 153.68 63.2559C163.832 62.8335 173.971 67.5846 180.3 75.5119C185.017 81.2008 187.146 88.5888 187.511 95.879C183.01 96.6116 178.701 98.1674 174.565 100.048C175.114 93.9246 174.155 87.2931 169.953 82.542Z" fill="#FDFDFD"/>
<path d="M95.0621 92.4157C93.3893 95.2649 87.9772 92.5756 85.9059 90.0294C84.6077 88.7766 83.5936 85.5695 85.9679 84.8894C90.1583 83.6891 96.7349 89.5641 95.0621 92.4157Z" fill="#FDFDFD"/>
<path d="M95.0663 92.3836C96.7391 89.532 90.1625 83.6569 85.9721 84.8572C83.5977 85.5373 84.6119 88.7445 85.9101 89.9973C87.9814 92.5435 93.3935 95.2329 95.0663 92.3836ZM81.7745 81.0224C90.0765 78.6695 99.5143 84.6401 100.218 93.3883C101.901 103.163 90.7279 111.636 81.7077 108.291C76.212 106.692 71.6542 101.497 71.8069 95.6004C71.1698 89.198 75.7586 82.9243 81.7745 81.0224ZM75.9758 97.7051C74.7874 99.5426 78.7725 104.196 80.2401 102.039C81.7077 99.8791 77.1618 95.8701 75.9758 97.7051ZM91.8281 101.941C90.7805 99.6285 84.786 101.822 85.6523 104.131C86.5137 106.444 92.8733 104.253 91.8281 101.941Z" fill="black"/>
<path d="M85.654 104.125C84.7902 101.815 90.7822 99.6217 91.8298 101.934C92.875 104.246 86.5155 106.437 85.654 104.125Z" fill="#FDFDFD"/>
<path d="M61.1147 74.2279C68.9322 65.3199 81.73 61.4206 93.2534 64.0241C108.273 66.5178 119.231 81.6254 118.534 96.5279C116.145 99.3771 112.916 101.732 111.792 105.448C110.129 109.357 111.198 113.762 110.055 117.735C99.6438 130.122 79.451 132.466 66.6222 122.488C70.6265 120.145 74.2989 117.055 76.3297 112.791C81.4698 115.943 88.013 116.096 93.585 114.086C100.777 111.247 106.166 104.226 106.772 96.4731C107.721 85.6011 98.8254 74.8221 87.8102 74.2375C79.4606 73.376 71.0154 78.3204 67.572 85.9542C65.2406 90.1994 65.4769 95.1462 65.6081 99.8234C61.5132 98.5133 57.2154 98.0289 52.9392 97.9621C52.8199 89.4215 55.4115 80.7091 61.1147 74.2279Z" fill="#FDFDFD"/>
<path d="M75.9732 97.6765C77.1592 95.839 81.7051 99.848 80.2375 102.008C78.7699 104.167 74.7848 99.5139 75.9732 97.6765Z" fill="#FDFDFD"/>
<path d="M92.0599 112.965C86.7265 114.251 80.6247 114.358 76.0025 110.979C75.6684 106.324 72.0078 102.976 68.0657 101.033C65.4312 94.2942 67.4285 86.3025 72.4087 81.1743C76.8902 76.6069 83.7246 74.6502 89.9648 75.872C97.7823 77.5567 104.263 84.4125 105.235 92.3947C106.251 101.067 100.949 110.893 92.0599 112.965ZM81.7154 108.268C90.7332 111.616 101.908 103.14 100.226 93.366C99.5219 84.6178 90.0841 78.6472 81.7798 81.0001C75.7663 82.902 71.1775 89.1756 71.8146 95.5781C71.6619 101.477 76.2173 106.67 81.7154 108.268Z" fill="#32BCF3"/>
<path d="M53.2472 129.146C55.3089 128.389 57.2848 126.943 59.5422 126.962C62.8138 130.053 65.8253 133.41 69.0874 136.51C66.0425 139.793 62.8902 142.967 59.6066 146C56.9173 140.633 54.2852 135.107 53.2472 129.146Z" fill="#FDFDFD"/>
<path d="M50.1278 116.552C50.8723 116.543 52.3423 116.507 53.0749 116.5C54.6833 119.414 56.2607 122.354 58.1722 125.093C56.4445 126.281 54.6523 127.439 52.6001 127.978C51.4355 124.253 50.345 120.473 50.1278 116.552Z" fill="#FDFDFD"/>
<path d="M142.214 80.7938C150.053 74.5322 162.602 75.9354 168.962 83.6455C173.011 88.3775 173.78 94.9327 173.29 100.925C169.014 103.041 166.9 107.434 165.518 111.766C161.209 113.784 156.543 116.097 151.64 115.147C144.33 114.099 137.885 108.668 135.778 101.562C133.294 94.1858 136.133 85.5354 142.214 80.7938ZM168.487 94.6392C168.346 86.0008 158.92 80.0493 150.886 82.092C144.827 83.7982 140.357 89.4346 140.076 95.7202C139.374 104.055 147.926 111.021 155.916 110.081C163.466 109.661 169.577 102.113 168.487 94.6392Z" fill="#32BCF3"/>
<path d="M163.346 94.6529C161.103 97.4043 150.885 88.7564 153.629 85.9501C156.371 83.1415 165.592 91.8991 163.346 94.6529Z" fill="#FDFDFD"/>
<path d="M161.431 101.903C161.853 103.741 156.128 103.839 156.765 101.882C157.405 99.9275 161.011 100.068 161.431 101.903Z" fill="#FDFDFD"/>
<path d="M163.351 94.6202C165.596 91.8664 156.375 83.1086 153.634 85.9173C150.889 88.7236 161.108 97.3716 163.351 94.6202ZM149.369 103.065C150.567 101.531 147.704 98.0636 146.367 99.178C145.026 100.29 148.169 104.6 149.369 103.065ZM155.922 110.052C147.93 110.99 139.378 104.025 140.079 95.6892C140.361 89.4037 144.831 83.7672 150.889 82.061C158.926 80.0207 168.352 85.9698 168.491 94.6082C169.581 102.082 163.472 109.63 155.922 110.052ZM161.439 101.898C161.019 100.063 157.414 99.9226 156.774 101.877C156.139 103.831 161.862 103.734 161.439 101.898Z" fill="black"/>
<path d="M149.367 103.039C148.165 104.574 145.027 100.264 146.363 99.1521C147.704 98.0377 150.563 101.505 149.367 103.039Z" fill="#FDFDFD"/>
<path d="M58.9369 103.462C59.8174 102.507 61.6978 104.001 60.7409 105.254C59.784 106.507 58.0563 104.414 58.9369 103.462Z" fill="#CA5821"/>
<path d="M181.956 103.473C182.8 102.721 184.86 104.06 183.793 105.231C182.722 106.405 181.111 104.224 181.956 103.473Z" fill="#CA5821"/>
<path d="M204.717 105.595C205.744 104.113 208.712 105.58 207.419 107.234C206.381 108.701 203.422 107.234 204.717 105.595Z" fill="#CA5821"/>
<path d="M37.325 107.997C38.2962 106.702 40.9546 108.059 39.8426 109.551C38.8689 110.858 36.1915 109.489 37.325 107.997Z" fill="#CA5821"/>
<path d="M192.969 107.657C194.072 106.19 196.868 107.872 195.625 109.471C194.525 110.917 191.738 109.232 192.969 107.657Z" fill="#CA5821"/>
<path d="M48.0697 109.948C49.7759 109.399 50.5204 112.227 48.7737 112.604C47.0317 113.188 46.2561 110.296 48.0697 109.948Z" fill="#CA5821"/>
<path d="M95.5215 185.012C103.621 188.997 112.583 191.739 121.699 191.092C122.11 178.423 123.262 165.778 122.637 153.1C115.943 153.164 109.245 152.41 102.692 151.072C100.056 162.323 97.7885 173.672 95.5215 185.012ZM124.828 152.931C123.813 165.607 124.527 178.371 123.179 191.028C132.335 190.842 141.169 187.701 149.082 183.241C147.54 172.377 145.522 161.59 143.469 150.823C137.301 151.988 131.051 152.315 124.828 152.931ZM84.5946 145.846C80.9316 153.176 78.0729 160.898 74.2262 168.146C79.8531 174.56 86.3223 180.507 94.1613 184.072C96.1372 172.937 99.1177 161.989 100.728 150.778C95.2519 149.482 89.885 147.757 84.5946 145.846ZM145.262 150.217C146.653 160.929 148.986 171.503 150.38 182.213C157.615 177.614 165.001 172.217 169.354 164.709C167.161 157.811 164.211 151.167 161.61 144.419C156.405 146.979 150.853 148.738 145.262 150.217ZM60.1541 147.387C63.5569 154.398 68.0051 160.844 72.9972 166.805C76.9775 159.913 79.8197 152.444 82.9314 145.132C78.6337 142.973 74.701 140.176 70.5656 137.735C66.5471 140.056 63.7526 144.366 60.1541 147.387ZM163.469 143.447C165.182 150.368 168.294 156.858 170.344 163.683C176.197 157.076 180.388 149.084 183.846 141.028C181.717 138.381 179.211 136.05 176.749 133.716C172.776 137.532 168.339 140.877 163.469 143.447ZM53.2649 129.139C54.303 135.1 56.9373 140.629 59.6267 145.994C62.9102 142.961 66.0626 139.787 69.1075 136.503C65.8454 133.403 62.8339 130.046 59.5623 126.958C57.3025 126.937 55.3267 128.385 53.2649 129.139ZM185.485 123.534C183.349 126.698 180.574 129.366 178.295 132.432C179.925 135.067 182.201 137.291 184.743 139.061C186.437 134.637 187.862 130.098 189.406 125.617C188.134 124.851 186.838 124.147 185.485 123.534ZM186.855 121.524C186.695 123.188 189.029 123.018 190.012 123.782C190.441 121.362 191.069 118.954 191.069 116.482C187.871 115.554 187.666 119.496 186.855 121.524ZM50.1341 116.556C50.3488 120.479 51.4394 124.257 52.6086 127.984C54.6585 127.443 56.453 126.288 58.1807 125.102C56.2693 122.357 54.692 119.422 53.0836 116.504C52.3462 116.513 50.8786 116.549 50.1341 116.556ZM43.481 119.279C46.9268 115.413 56.0687 114.077 57.5196 114.745C58.9752 115.411 58.9466 115.89 59.4215 116.265C58.3834 116.344 56.3098 116.494 55.2741 116.566C60.0277 127.302 69.7232 135.002 79.8626 140.422C101.731 152.033 128.393 153.176 151.759 145.586C166.125 141.006 179.891 131.697 186.155 117.551C185.518 117.196 184.234 116.494 183.595 116.148C188.284 114.561 194.739 113.428 198.435 117.53C196.748 117.325 195.087 117.053 193.422 116.721C190.938 127.335 187.613 137.787 183.034 147.702C174.794 163.631 163.424 178.822 147.311 187.441C134.678 194.495 119.279 196.034 105.336 192.44C92.2928 188.94 81.2991 180.38 72.2837 170.594C60.1231 155.563 51.0957 137.627 48.3848 118.36C46.7526 118.685 45.1347 119.033 43.481 119.279Z" fill="black"/>
<path d="M185.48 123.507C186.831 124.12 188.127 124.824 189.401 125.59C187.857 130.071 186.43 134.608 184.736 139.034C182.197 137.264 179.92 135.04 178.288 132.405C180.567 129.337 183.342 126.669 185.48 123.507Z" fill="#FDFDFD"/>
<path d="M163.459 143.508C168.329 140.938 172.765 137.592 176.738 133.777C179.203 136.111 181.707 138.442 183.835 141.088C180.38 149.145 176.187 157.136 170.336 163.744C168.284 156.919 165.174 150.428 163.459 143.508Z" fill="#FDFDFD"/>
<path d="M60.1579 147.367C63.7565 144.341 66.5533 140.034 70.5694 137.712C74.7073 140.153 78.6375 142.948 82.9352 145.11C79.8235 152.419 76.9838 159.89 73.001 166.782C68.0089 160.821 63.5632 154.376 60.1579 147.365" fill="#FDFDFD"/>
<path d="M145.246 150.23C150.84 148.75 156.39 146.991 161.597 144.431C164.196 151.179 167.145 157.823 169.34 164.722C164.985 172.229 157.6 177.627 150.367 182.225C148.973 171.515 146.637 160.942 145.246 150.23Z" fill="#FDFDFD"/>
<path d="M84.5877 145.87C89.8782 147.782 95.2451 149.507 100.722 150.803C99.1109 162.014 96.1303 172.964 94.1545 184.099C86.3155 180.531 79.8462 174.585 74.2193 168.17C78.066 160.923 80.9248 153.201 84.5877 145.87Z" fill="#FDFDFD"/>
<path d="M124.819 152.969C131.04 152.353 137.292 152.026 143.461 150.862C145.513 161.629 147.532 172.415 149.073 183.279C141.16 187.739 132.326 190.882 123.17 191.066C124.518 178.409 123.805 165.645 124.819 152.969Z" fill="#FDFDFD"/>
<path d="M95.5034 184.994C97.7703 173.654 100.037 162.305 102.674 151.054C109.227 152.392 115.925 153.146 122.619 153.082C123.244 165.76 122.091 178.405 121.681 191.074C112.565 191.721 103.602 188.979 95.5034 184.994Z" fill="#FDFDFD"/>
<path d="M51.6315 162.936C54.2874 160.776 58.3824 163.661 57.9815 166.878C58.3585 170.045 56.1679 174.643 52.376 173.619C48.348 171.684 48.5555 165.69 51.6315 162.936Z" fill="#9E9D06"/>
<path d="M174.602 192.39C173.922 188.254 179.418 183.551 181.697 185.317C183.978 187.078 183.155 189.142 182.074 190.91C180.79 193.64 176.535 195.609 174.602 192.39Z" fill="#9E9D06"/>
<path d="M79.2104 186.375C83.2719 188.663 86.2524 192.412 90.2996 194.722C94.6737 197.228 99.3413 199.679 104.493 199.917C110.929 200.5 117.071 197.075 123.517 198.254C130.688 199.354 138.14 202.053 145.321 199.497C150.527 198.08 154.381 194.116 159.101 191.754C157.156 196.405 154.935 198.202 147.805 200.738C140.674 203.272 107.973 203.814 96.8238 200.941C93.4543 200.123 90.71 197.834 88.0016 195.801C84.6989 193.061 81.1457 190.315 79.2104 186.375Z" fill="#EE959C"/>
<defs>
<filter id="filter0_d_1_2344" x="0.499878" y="-0.00012207" width="245" height="245" filterUnits="userSpaceOnUse" color-interpolation-filters="sRGB">
<feFlood flood-opacity="0" result="BackgroundImageFix"/>
<feColorMatrix in="SourceAlpha" type="matrix" values="0 0 0 0 0 0 0 0 0 0 0 0 0 0 0 0 0 0 127 0" result="hardAlpha"/>
<feOffset dy="1.5"/>
<feGaussianBlur stdDeviation="3.75"/>
<feComposite in2="hardAlpha" operator="out"/>
<feColorMatrix type="matrix" values="0 0 0 0 0 0 0 0 0 0 0 0 0 0 0 0 0 0 0.25 0"/>
<feBlend mode="normal" in2="BackgroundImageFix" result="effect1_dropShadow_1_2344"/>
<feBlend mode="normal" in="SourceGraphic" in2="effect1_dropShadow_1_2344" result="shape"/>
</filter>
</defs>
</svg>
