<svg width="246" height="245" viewBox="0 0 246 245" fill="none" xmlns="http://www.w3.org/2000/svg">
<g filter="url(#filter0_d_1_2353)">
<rect x="13" y="11" width="220" height="220" rx="15" fill="#F7E948" stroke="#FDFDFD" stroke-width="10"/>
</g>
<path d="M47.5337 46.2834C50.7426 45.0889 55.7397 44.8557 57.3748 48.5429C60.4117 56.3578 53.141 65.6335 45.0599 65.5793C41.0287 65.5487 38.4159 61.5411 38.8753 57.7879C39.1321 52.6706 42.8829 48.1588 47.5337 46.2834Z" fill="#9E9D06"/>
<path d="M197.928 46.3132C199.879 45.5687 202.086 46.1224 203.768 47.2627C206.647 53.042 199.912 60.1101 194.12 57.8719C189.557 54.4392 193.694 47.913 197.928 46.3132Z" fill="#9E9D06"/>
<path d="M84.0449 88.119C81.9975 90.1028 81.0999 92.864 80.2493 95.4957C81.8373 95.5617 83.4253 95.6253 85.025 95.6772C85.9957 93.823 86.7732 91.7756 88.3517 90.3266C90.5381 88.3098 93.9284 88.4818 96.5813 89.3347C99.7266 90.5811 100.24 94.2494 102.033 96.7114C103.609 96.8834 105.2 96.8834 106.785 96.9259C106.147 94.0468 105.518 90.9981 103.598 88.6609C98.8643 83.0111 89.1198 82.8297 84.0449 88.119ZM65.2273 69.2896C57.6456 76.0491 54.1587 86.4557 54.8962 96.457C62.7936 95.0057 70.8347 95.3261 78.831 95.3261C79.6203 92.308 80.3011 89.0025 82.7326 86.8185C88.4059 80.6339 99.5051 80.8907 104.834 87.3933C107.372 90.0486 108.291 93.6839 108.887 97.2015C110.955 97.5879 113.012 98.0025 115.081 98.396C116.784 95.3803 119.39 93.0667 121.543 90.4232C120.561 81.998 116.723 73.7472 109.964 68.4485C97.5096 57.8063 77.1888 57.9878 65.2273 69.2896ZM84.8648 48.9029C86.4339 48.8629 88.0124 48.8204 89.591 48.7875C89.8973 51.8362 88.7994 55.3443 90.1423 58.1173C94.4067 58.8854 98.6829 59.6417 102.745 61.1872C104.462 58.7888 106.126 56.3668 107.928 54.0438C109.367 54.7694 110.805 55.5045 112.256 56.2396C110.859 58.8524 109.271 61.3687 107.692 63.8849C115.401 68.875 120.38 76.9137 122.95 85.6028C124.816 77.1258 129.891 69.7608 136.554 64.3208C135.519 61.8045 134.591 59.2459 133.814 56.633C135.265 55.9309 136.714 55.2053 138.184 54.522C139.112 56.8474 140.05 59.1823 140.978 61.5077C145.938 59.3637 151.17 57.9359 156.554 57.4247C156.587 54.4914 156.728 51.5581 156.841 48.6272C158.517 48.6814 160.18 48.745 161.853 48.8204C161.907 51.7089 161.78 54.6092 161.577 57.4883C166.555 58.4354 171.277 60.3037 175.928 62.2852C177.73 60.3768 179.137 57.9241 181.462 56.6118C182.76 57.2951 183.978 58.1173 185.234 58.9066C183.721 61.1448 182.037 63.2558 180.279 65.3032C184.979 69.6642 189.117 74.8239 191.176 80.9873C192.973 85.518 192.945 90.4538 192.997 95.2507C195.598 96.4664 198.649 97.5125 199.756 100.453C196.656 99.7719 193.572 99.0039 190.448 98.5256C189.022 98.29 187.59 98.0662 186.165 97.8541C184.157 97.3311 182.185 96.702 180.192 96.1884C183.752 95.8374 187.338 95.656 190.928 95.5806C191.282 87.351 189.232 78.7561 183.915 72.3171C177.975 65.282 169.338 60.3768 160.074 59.6841C148.188 58.9702 135.722 64.5564 129.389 74.8569C126.394 79.3876 125.337 84.7923 124.272 90.0274C128.708 91.0193 132.855 93.3541 134.655 97.7575C135.776 98.1392 136.907 98.535 138.045 98.8884C137.291 98.919 135.776 98.9921 135.008 99.0251C135.048 104.378 134.443 109.71 133.611 114.985C142.003 124.538 155.991 127.59 167.931 123.803C168.688 124.39 169.479 124.956 170.278 125.488C157.814 129.774 142.738 127.333 133.163 117.993C131.137 122.321 129.356 126.895 126.116 130.499C128.366 120.873 132.876 111.458 131.842 101.329C131.99 97.1826 127.681 92.8852 123.48 94.3884C118.643 96.2544 117.255 102.001 116.565 106.619C114.942 114.101 117.107 121.532 119.154 128.676C116.063 125.83 115.253 121.544 114.122 117.685C107.417 123.016 99.5994 127.429 90.9316 128.325C86.0051 128.527 81.1776 127.29 76.4114 126.181C77.0098 125.841 78.2114 125.158 78.8074 124.807C90.7714 127.738 105.155 124.967 112.873 114.742C113.962 109.985 113.853 105.016 114.963 100.25C108.098 98.9615 101.103 98.4196 94.1169 98.396C84.1509 98.396 74.2038 97.1403 64.2354 97.6821C61.1867 97.8424 58.171 98.4502 55.3532 99.6235C53.7016 100.231 52.0501 100.86 50.3843 101.435C51.5152 99.0039 53.5532 96.7986 53.1032 93.9196C52.5283 82.3279 58.8425 71.4642 67.508 64.1818C66.2923 62.1037 64.7372 60.1412 64.1694 57.7639C64.8197 56.3998 66.7846 55.2383 68.2878 55.5469C70.0477 57.2527 70.9313 59.6417 72.1894 61.7197C76.0792 60.365 80.0137 59.1728 84.0661 58.3624C84.2357 55.2053 84.5561 52.0506 84.8648 48.9029Z" fill="black"/>
<path d="M79.9272 102.986C88.2746 99.9046 97.9037 100.661 106.081 103.903C102.774 104.105 99.4775 103.797 96.1932 103.443C90.7909 102.868 85.3295 103.53 79.9272 102.986Z" fill="black"/>
<path d="M141.548 104.283C146.729 102.674 152.242 102.586 157.595 103.142C159.767 103.43 162.095 103.663 163.876 105.093C159.812 105.093 155.748 104.624 151.688 104.74C148.307 104.709 144.842 105.317 141.548 104.283Z" fill="black"/>
<path d="M129.397 74.8517C135.73 64.5512 148.193 58.965 160.079 59.6813C169.345 60.3716 177.983 65.2768 183.92 72.3143C189.237 78.7533 191.287 87.3458 190.936 95.5777C187.345 95.6531 183.76 95.8345 180.197 96.1856C177.104 96.2704 174.013 96.506 170.936 96.3458C169.034 93.6693 168.844 90.034 166.603 87.4966C161.507 80.8337 150.622 79.7452 144.574 85.7036C141.101 88.6699 139.952 93.2547 139.172 97.5615C137.671 97.6157 136.165 97.6769 134.662 97.7523C132.862 93.3513 128.716 91.0141 124.277 90.0222C125.342 84.7895 126.4 79.3824 129.397 74.8517Z" fill="#FDFDFD"/>
<path d="M65.2418 69.3155C77.2034 58.016 97.5241 57.8322 109.978 68.4744C116.738 73.7731 120.576 82.0263 121.558 90.4491C119.405 93.0925 116.801 95.4062 115.095 98.4219C113.027 98.0284 110.97 97.6138 108.901 97.2297C108.305 93.7098 107.389 90.0769 104.851 87.4216C99.5197 80.9166 88.4204 80.6598 82.7495 86.8444C80.3157 89.0308 79.6348 92.3363 78.8456 95.352C70.8492 95.352 62.8105 95.0339 54.9107 96.4829C54.1756 86.4815 57.6601 76.075 65.2418 69.3155Z" fill="#FDFDFD"/>
<path d="M128.897 148.401C134.144 148.603 139.348 147.814 144.579 147.656C144.645 152.623 144.645 157.634 145.573 162.537C140.102 161.302 134.313 161.335 129.142 163.68C128.96 158.595 128.909 153.499 128.897 148.401Z" fill="#FDFDFD"/>
<path d="M39.7652 70.4144C41.1412 68.5273 42.642 66.4963 45.6507 68.506C48.6617 70.5157 46.5884 73.6022 44.8001 75.4893C43.2616 77.4731 40.6911 79.4169 38.4034 77.1857C36.111 74.9522 37.8286 72.132 39.7652 70.4144Z" fill="#9E9D06"/>
<path d="M55.7012 173.919C52.4711 170.67 57.758 161.22 63.6528 163.703C65.5635 166.957 60.14 169.911 60.6159 173.396C61.0894 176.883 58.9313 177.166 55.7012 173.919Z" fill="#9E9D06"/>
<path d="M144.198 88.5408C142.269 90.9486 141.842 94.0845 141.545 97.0484C142.888 96.9754 144.231 96.8882 145.586 96.8034C146.575 92.8052 148.964 87.9329 153.804 88.1238C158.516 88.1779 160.608 92.9018 162.165 96.5913C164.062 96.4405 165.947 96.3015 167.834 96.1437C167.249 93.1138 166.642 89.8625 164.337 87.6125C159.093 81.9298 148.946 82.5282 144.198 88.5408ZM144.592 85.6947C150.637 79.7339 161.524 80.8224 166.62 87.4853C168.861 90.0227 169.052 93.6581 170.948 96.3345C174.03 96.4947 177.121 96.2591 180.212 96.1743C182.208 96.6856 184.18 97.3146 186.185 97.8377C170.15 98.5845 154.103 98.2429 138.065 98.872C136.927 98.5186 135.799 98.1251 134.677 97.7411C136.181 97.668 137.684 97.6044 139.187 97.5502C139.967 93.2434 141.116 88.6586 144.592 85.6947Z" fill="black"/>
<path d="M84.0544 88.0944C89.1293 82.8051 98.8739 82.9865 103.607 88.6363C105.527 90.9735 106.156 94.0222 106.795 96.9013C105.209 96.8588 103.619 96.8588 102.043 96.6868C100.25 94.2248 99.7362 90.5565 96.5909 89.3101C93.938 88.4572 90.5476 88.2852 88.3612 90.302C86.7827 91.7509 86.0052 93.7984 85.0345 95.6526C83.4348 95.6007 81.8468 95.5371 80.2589 95.4711C81.1094 92.8394 82.007 90.0782 84.0544 88.0944Z" fill="#32BCF3"/>
<path d="M144.177 88.5587C148.924 82.5461 159.072 81.9476 164.316 87.6304C166.621 89.8804 167.228 93.1317 167.813 96.1616C165.926 96.3195 164.041 96.4585 162.144 96.6093C160.587 92.9197 158.495 88.1959 153.783 88.1417C148.943 87.9508 146.554 92.8231 145.565 96.8213C144.21 96.9061 142.867 96.9933 141.524 97.0663C141.821 94.1024 142.247 90.9666 144.177 88.5587Z" fill="#32BCF3"/>
<path d="M190.451 98.5682C193.575 99.0488 196.659 99.8145 199.76 100.498C205.028 101.852 210.687 103.685 213.927 108.397C216.872 111.863 217.374 117.122 214.987 121.023C211.83 126.374 205.483 129.029 199.461 129.156C204.446 126.15 210.93 123.879 212.916 117.803C214.459 111.8 209.269 106.404 204.055 104.369C194.32 101 183.105 100.531 173.754 105.382C168.477 108.388 166.25 115.831 169.183 121.181C171.12 124.861 175.837 125.158 178.669 127.877C175.747 127.696 172.793 127.109 170.277 125.533C169.483 124.998 168.691 124.435 167.932 123.848C164.149 119.049 162.349 111.83 166.634 106.734C172.444 99.8804 182.347 100.264 190.449 98.5682" fill="#CA5821"/>
<path d="M50.394 101.422C52.0597 100.848 53.7113 100.218 55.3628 99.6106C63.2532 99.9828 71.7301 99.6318 78.7346 103.908C82.8482 106.306 86.2409 111.061 85.2372 116.009C84.1605 119.559 81.3592 122.224 78.8171 124.794C78.2233 125.145 77.0194 125.828 76.421 126.168C74.6304 126.359 72.8186 126.255 71.0257 126.201C75.2806 122.598 81.934 119.632 82.0518 113.214C80.888 107.628 75.1181 104.483 69.9796 103.267C62.3178 101.891 54.3521 102.926 46.9942 105.357C43.0903 106.69 39.1887 108.801 36.8774 112.352C34.9455 115.113 35.2353 119.175 37.4853 121.67C40.3384 125.157 44.723 126.7 48.4337 129.049C40.4162 129.857 31.7578 123.76 32.0052 115.271C34.1138 106.957 43.135 103.854 50.394 101.422Z" fill="#CA5821"/>
<path d="M65.7768 104.693C66.8205 103.105 69.5699 104.842 68.3024 106.411C67.2469 107.956 64.5187 106.262 65.7768 104.693Z" fill="#CA5821"/>
<path d="M178.617 104.847C180.365 104.272 180.951 104.859 180.398 106.586C178.65 107.16 178.053 106.586 178.617 104.847Z" fill="#CA5821"/>
<path d="M204.09 106.028C205.766 105.493 206.588 108.278 204.837 108.671C203.165 109.215 202.354 106.402 204.09 106.028Z" fill="#CA5821"/>
<path d="M46.2385 107.962C47.9843 107.408 48.571 107.995 48.0055 109.722C46.2573 110.276 45.6612 109.689 46.2385 107.962Z" fill="#CA5821"/>
<path d="M191.596 108.83C192.449 107.563 194.699 108.948 193.698 110.237C192.833 111.495 190.604 110.109 191.596 108.83Z" fill="#CA5821"/>
<path d="M55.0438 110.081C56.0875 108.524 58.8394 110.23 57.5789 111.799C56.5352 113.356 53.7833 111.66 55.0438 110.081Z" fill="#CA5821"/>
<path d="M128.903 148.366C128.915 153.465 128.967 158.561 129.148 163.645C134.32 161.301 140.109 161.268 145.579 162.502C144.651 157.599 144.651 152.588 144.585 147.622C139.355 147.78 134.15 148.569 128.903 148.366ZM123.699 147.749C123.56 152.473 123.744 157.185 123.744 161.897C124.352 161.725 125.567 161.374 126.175 161.204C126.569 157.055 126.964 152.739 126.1 148.632C125.504 148.42 124.297 147.973 123.699 147.749ZM104.936 161.831C110.234 160.735 115.375 162.547 120.577 162.995C121.546 158.09 120.876 152.982 121.31 148.003C115.971 147.749 110.639 147.322 105.362 146.394C105.202 151.544 105.077 156.695 104.936 161.831ZM49.0577 118.727C52.8532 113.193 61.5305 111.402 66.8622 115.742C63.3776 115.592 59.8695 115.316 56.4132 116.02C57.9918 120.584 60.8496 124.643 64.6782 127.598C77.6528 137.557 93.5913 143.836 110.001 144.549C128.991 146.693 148.96 146.415 166.765 138.706C177.647 134.539 188.812 126.893 191.392 114.772C188.214 114.962 185.104 115.573 181.966 115.987C186.402 111.69 194.964 110.783 199.092 115.902C197.297 115.752 195.53 115.485 193.758 115.207C192.342 126.542 182.277 133.622 172.968 138.567C164.953 143.4 155.805 145.647 146.762 147.683C147.24 152.023 147.787 156.353 147.945 160.726C151.048 159.774 154.214 158.921 157.499 159.081C154.513 160.778 151.175 161.718 148.065 163.134C148.147 163.911 148.329 165.478 148.425 166.267C141.379 162.406 132.781 163.049 125.909 166.951C126.215 166.149 126.847 164.552 127.167 163.753C125.504 163.782 123.85 163.838 122.198 163.89C122.912 165.405 123.657 166.908 124.34 168.444C119.041 163.923 111.716 162.856 104.99 163.732C101.597 164.253 98.4117 165.619 95.0544 166.331C96.9415 164.774 98.9984 163.464 100.98 162.033C97.8345 162.09 94.7316 162.62 91.6099 162.823C94.4442 160.297 98.2939 160.146 101.896 160.201C102.325 155.552 102.398 150.871 102.431 146.203C91.419 144.231 80.6285 140.721 70.8934 135.168C63.6957 130.925 56.5427 125.103 54.738 116.487C52.8956 117.373 51.0297 118.183 49.0577 118.727Z" fill="black"/>
<path d="M104.921 161.861C105.063 156.722 105.188 151.572 105.348 146.424C110.625 147.35 115.957 147.777 121.296 148.033C120.862 153.012 121.531 158.12 120.563 163.025C115.361 162.577 110.22 160.763 104.921 161.861Z" fill="#FDFDFD"/>
<path d="M180.814 158.126C183.712 157.094 186.952 156.934 189.918 157.733C193.822 158.854 195.174 163.691 194.11 167.232C192.446 173.299 187.22 178.343 181.09 179.762C177.059 180.73 172.071 179.003 170.717 174.791C169.044 167.682 174.319 160.558 180.814 158.126Z" fill="#9E9D06"/>
<path d="M66.7715 176.491C69.9899 175.284 74.6077 175.746 75.9412 179.433C77.9556 185.554 74.1153 192.441 68.6045 195.266C65.2118 197.056 59.906 196.566 58.1979 192.707C55.7453 186.141 60.4809 178.708 66.7692 176.491" fill="#9E9D06"/>
<path d="M173.463 187.048C175.327 186.325 178.324 185.747 179.252 188.115C181.511 192.957 174.792 198.68 170.389 195.718C167.267 193.018 170.294 188.2 173.463 187.048Z" fill="#9E9D06"/>
<defs>
<filter id="filter0_d_1_2353" x="0.499878" y="-0.000144958" width="245" height="245" filterUnits="userSpaceOnUse" color-interpolation-filters="sRGB">
<feFlood flood-opacity="0" result="BackgroundImageFix"/>
<feColorMatrix in="SourceAlpha" type="matrix" values="0 0 0 0 0 0 0 0 0 0 0 0 0 0 0 0 0 0 127 0" result="hardAlpha"/>
<feOffset dy="1.5"/>
<feGaussianBlur stdDeviation="3.75"/>
<feComposite in2="hardAlpha" operator="out"/>
<feColorMatrix type="matrix" values="0 0 0 0 0 0 0 0 0 0 0 0 0 0 0 0 0 0 0.25 0"/>
<feBlend mode="normal" in2="BackgroundImageFix" result="effect1_dropShadow_1_2353"/>
<feBlend mode="normal" in="SourceGraphic" in2="effect1_dropShadow_1_2353" result="shape"/>
</filter>
</defs>
</svg>
