<svg width="246" height="245" viewBox="0 0 246 245" fill="none" xmlns="http://www.w3.org/2000/svg">
<g filter="url(#filter0_d_1_2343)">
<rect x="13" y="11" width="220" height="220" rx="15" fill="#F7E948" stroke="#FDFDFD" stroke-width="10"/>
</g>
<path d="M148.31 53.6427C162.572 50.0147 178.872 61.6744 178.862 76.5615C173.74 77.5869 171.348 82.4356 170.487 87.0917C167.507 86.1599 164.493 85.3688 161.453 84.6504C160.243 79.3515 156.472 74.0525 150.795 73.1676C143.823 72.1552 137.191 78.6357 137.639 85.5951C135.674 86.3733 133.694 87.1125 131.705 87.8673C130.079 86.264 128.254 84.8873 126.227 83.8618C124.603 70.0939 134.435 55.8888 148.31 53.6427Z" fill="#FDFDFD"/>
<path d="M113.474 87.1299C112.532 85.4096 112.295 83.4785 112.415 81.5369C112.789 75.4806 106.913 69.596 100.791 70.4158C94.5373 70.6058 89.7172 76.5425 89.129 82.5025C85.6649 83.0542 82.2008 83.6684 78.8018 84.5143C79.0126 82.3359 79.6346 79.9935 78.7523 77.8827C77.2688 75.2098 74.3253 73.9268 71.6159 72.8701C72.8053 67.022 75.6448 61.4888 80.0459 57.4391C88.8011 49.1576 103.662 47.5673 113.341 55.1305C121.906 61.5122 125.334 72.8571 123.874 83.1713C119.939 82.8538 116.147 84.1863 113.474 87.1299Z" fill="#FDFDFD"/>
<path d="M63.1896 76.1103C64.8969 76.1103 65.4409 79.5276 63.0361 79.3506C62.4114 79.6681 61.9091 79.5614 61.5656 79.2543C60.7406 78.5152 60.8108 76.5944 62.3671 76.3575C62.6612 76.1806 62.9423 76.1103 63.1896 76.1103Z" fill="#CA5821"/>
<path d="M51.7829 80.0106C54.336 77.4886 55.6556 83.0713 52.6053 82.9412C50.6403 83.6257 50.3566 80.6092 51.7829 80.0106Z" fill="#CA5821"/>
<path d="M196.708 83.1878C197.804 81.4935 201.216 83.2242 199.698 85.0252C198.509 86.4879 195.492 84.968 196.708 83.1878Z" fill="#CA5821"/>
<path d="M75.7804 78.5841C72.1497 75.8279 67.6783 74.7427 63.1628 74.7661C60.3728 74.7791 57.5724 75.2137 54.9541 75.9451C49.5016 77.6055 43.7915 80.5022 41.0015 85.7075C38.9272 89.2653 41.1056 94.0125 44.64 95.6834C47.7137 97.5572 51.4458 96.9326 54.863 97.1096C52.7184 99.7929 48.8431 99.3713 45.8761 98.6166C41.3424 97.4037 37.0064 93.6585 36.3115 88.8411C36.7462 84.5207 39.419 80.6715 42.8363 78.0897C50.4802 72.3431 60.7398 70.0449 70.0572 72.4471C70.4424 72.5538 71.2206 72.7854 71.6084 72.9077C74.3177 73.967 77.2612 75.2501 78.7473 77.923C79.6296 80.0337 79.005 82.3761 78.7942 84.5545C78.7239 84.9918 78.5703 85.8506 78.5 86.2853C76.6964 87.2639 75.023 88.4533 73.3521 89.6166C72.9643 89.8691 72.1965 90.3844 71.8218 90.6343L70.6557 91.376C71.5406 87.6178 76.2618 85.9183 76.2618 81.7776C76.1447 80.9733 75.8975 79.3857 75.7804 78.5841Z" fill="#CA5821"/>
<path d="M184.492 80.8182C186.142 79.5794 189.002 81.3466 186.92 82.9967C185.788 85.4692 182.561 82.2419 184.492 80.8182Z" fill="#CA5821"/>
<path d="M190.379 85.7481C191.426 84.2854 194.726 85.5711 193.323 87.3617C192.253 89.1055 188.625 87.6636 190.379 85.7481Z" fill="#CA5821"/>
<path d="M180.059 75.9409C186.326 74.408 193.088 75.2928 199.142 77.3905C204.628 79.3555 209.963 83.7254 210.411 89.9196C211.236 94.9947 206.184 99.3567 201.271 98.4483C203.558 96.3767 207.35 94.8203 207.35 91.2287C206.869 85.8907 202.192 82.2054 197.458 80.5475C191.532 78.6008 184.9 77.6951 178.906 79.8995C175.775 81.0759 173.417 84.3266 174.091 87.7542C174.289 90.1799 176.337 91.4291 178.354 92.4988C179.026 92.8528 179.695 93.1963 180.283 93.5502C179.835 93.6439 178.94 93.8313 178.485 93.9355C177.93 94.0552 176.821 94.3154 176.267 94.4429C173.735 92.8527 171.593 90.7446 169.992 88.2278C170.112 87.952 170.346 87.4132 170.471 87.1426C171.333 82.4891 173.724 77.6378 178.849 76.6124C179.143 76.4484 179.755 76.1049 180.059 75.9409Z" fill="#CA5821"/>
<path d="M59.7438 81.4492C60.9826 81.4492 62.2657 82.3783 61.2897 83.651C61.0529 84.0882 60.6651 84.3328 60.2279 84.4317C58.8485 84.7362 57.0501 83.5338 58.2942 82.0737C58.6247 81.6391 59.179 81.4492 59.7438 81.4492Z" fill="#CA5821"/>
<path d="M67.5663 137.32C72.5243 137.898 77.6125 138.58 82.076 140.972C84.611 142.255 86.3989 141.349 89.0953 141.302C90.2378 136.805 94.9851 120.833 95.8804 116.921C94.8549 115.414 92.9602 115.11 91.4637 114.295C81.6778 110.068 73.4561 102.859 66.7648 94.6608C65.4817 93.1669 64.4901 91.2357 62.5381 90.5044C61.583 95.4259 62.6318 100.407 62.6552 105.368C63.6572 116.109 65.2578 126.78 67.5663 137.32ZM69.8645 153.103C63.3866 131.868 60.5002 109.631 60.1697 87.4906C56.8852 88.2089 54.3034 90.3743 51.8309 92.5293C53.3508 89.9162 55.0373 87.1236 58.0512 86.0305C58.8033 85.8535 59.5581 85.7233 60.3232 85.6427C63.3865 85.2991 66.5305 85.7468 69.3362 87.0872C67.2827 86.9935 65.2344 86.9934 63.1966 87.1131C72.9044 103.234 89.3425 115.016 107.811 118.771C117.209 121.007 126.961 120.445 136.526 119.88C151.001 117.889 165.274 112.882 176.7 103.541C176.663 103.955 176.593 104.767 176.546 105.178C169.267 111.305 160.433 115.037 151.517 118.074C151.282 119.006 155.124 141.313 154.002 145.932C153.791 145.943 153.591 145.966 153.393 145.99C152.896 141.513 150.28 119.396 150.236 118.571C143.735 119.654 137.304 121.361 130.67 121.434C129.48 129.088 128.965 136.815 128.541 144.707C132.286 145.766 136.242 146 139.81 147.684C141.343 147.226 144.276 146.601 148.032 146.096C149.645 146.13 151.4 146.164 153.393 145.99C153.437 146.411 153.474 146.674 153.474 146.755C153.724 146.708 153.885 146.424 154.002 145.932C155.842 145.729 157.878 145.342 160.176 144.626C166.086 142.682 172.353 143.07 178.488 143.244C183.128 126.66 187.24 109.868 189.335 92.7556C184.966 95.5326 183.295 102.13 177.676 102.742L177.468 102.458C181.811 99.4106 185.226 95.2282 188.209 90.8922C185.757 90.6684 183.245 90.4809 181.34 92.3184C182.105 91.4465 182.86 90.5617 183.612 89.6794C188.724 88.5368 195.108 89.3046 197.604 94.5801C195.626 93.2606 193.625 91.8135 191.16 91.66C191.079 93.8878 190.892 96.1104 190.481 98.3019C186.827 119.49 182.329 140.795 173.569 160.536C166.37 176.849 153.133 191.143 135.961 196.892C120.72 201.897 103.173 198.456 90.8989 188.142C79.9081 179.418 73.9038 166.202 69.8645 153.105V153.103ZM101.512 146.404C95.9506 144.376 89.7798 141.526 83.8327 143.601C82.7865 147.874 78.2371 163.596 77.3549 166.649C77.8598 169.523 79.7467 171.925 81.1599 174.413C84.9155 179.912 88.9677 185.417 94.9746 188.566C94.9486 182.924 101.416 148.345 101.512 146.404ZM90.8755 139.855C92.6323 142.671 96.1302 142.502 98.8031 143.848C103.444 146.557 109.755 143.718 114.786 144.746C115.15 144.059 116.457 124.362 116.548 121.398C110.226 120.552 103.735 119.667 97.9286 116.864C94.8211 124.271 92.9004 132.105 90.8755 139.855ZM76.6339 165.988C78.4375 159.758 82.7709 143.848 82.8542 142.638C78.1305 140.48 73.0319 139.324 67.9203 138.559C70.0154 147.45 72.3604 156.416 76.2696 164.692L76.6339 165.988ZM119.307 147.38C113.747 146.404 107.73 145.133 102.301 147.312C102.358 149.384 97.0594 181.065 95.3963 189.118C101.604 193.605 109.06 196.176 116.621 197.108C116.22 192.181 119.588 152.738 119.307 147.38ZM139.058 148.712C133.064 146.448 126.573 146.804 120.329 147.52C120.072 159.945 117.563 192.842 117.552 197.045C124.962 197.42 132.439 196.658 139.303 193.691C138.998 178.694 139.459 163.708 139.058 148.712ZM127.481 144.764C127.645 139.618 128.236 123.789 128.387 121.325C124.876 121.304 121.355 121.361 117.844 121.528C117.586 125.533 116.868 140.959 115.939 144.683C119.32 147.062 123.911 146.273 127.481 144.764ZM160.269 145.943C153.768 148.145 146.775 146.294 140.237 148.225C139.81 162.985 140.247 177.755 140.024 192.509C149.068 189.097 156.417 182.278 162.531 174.952C162.224 172.375 160.449 148.92 160.269 145.943ZM161.282 145.191C161.576 149.089 163.497 172.242 163.624 173.619C170.008 164.554 174.605 154.269 177.71 143.671C172.226 144.116 166.451 142.752 161.282 145.191Z" fill="black"/>
<path d="M82.8598 142.58C82.7766 143.79 78.4431 159.697 76.6395 165.931L76.2752 164.635C72.366 156.356 70.0211 147.392 67.9259 138.502C73.0375 139.267 78.1361 140.42 82.8598 142.577" fill="#FDFDFD"/>
<path d="M101.531 146.317C101.435 148.262 94.97 182.838 94.9934 188.48C88.9866 185.334 84.9343 179.826 81.1787 174.327C79.7655 171.841 77.8786 169.439 77.3737 166.561C78.2559 163.511 82.8053 147.788 83.8516 143.514C89.7986 141.443 95.9694 144.293 101.531 146.317Z" fill="#FDFDFD"/>
<path d="M95.4053 189.046C97.0684 180.988 102.367 149.306 102.307 147.237C107.736 145.059 113.756 146.329 119.316 147.305C119.597 152.664 116.229 192.107 116.627 197.031C109.069 196.102 101.613 193.53 95.4053 189.046Z" fill="#FDFDFD"/>
<path d="M177.731 143.631C174.626 154.229 170.03 164.512 163.646 173.582C163.518 172.205 161.597 149.05 161.303 145.151C166.472 142.712 172.247 144.079 177.731 143.631Z" fill="#FDFDFD"/>
<path d="M160.272 145.934C160.449 148.914 162.227 172.364 162.534 174.943C156.42 182.269 149.071 189.086 140.027 192.503C140.25 177.746 139.813 162.979 140.24 148.219C146.775 146.288 153.771 148.136 160.272 145.934Z" fill="#FDFDFD"/>
<path d="M139.08 148.715C139.478 163.711 139.02 178.7 139.325 193.693C132.459 196.663 124.982 197.425 117.572 197.048C117.585 192.845 120.094 159.95 120.352 147.525C126.595 146.81 133.084 146.453 139.077 148.715" fill="#FDFDFD"/>
<path d="M153.39 145.926C151.396 146.1 149.645 146.066 148.029 146.033C144.273 146.537 141.34 147.162 139.807 147.62C136.239 145.936 132.285 145.702 128.538 144.643C128.962 136.752 129.477 129.024 130.669 121.367C137.301 121.297 143.732 119.59 150.233 118.507C150.28 119.332 152.895 141.449 153.39 145.926Z" fill="#FDFDFD"/>
<path d="M97.9308 116.832C103.737 119.635 110.228 120.52 116.55 121.366C116.459 124.333 115.152 144.027 114.788 144.711C109.757 143.683 103.446 146.523 98.8053 143.816C96.1324 142.473 92.6345 142.637 90.8777 139.824C92.9026 132.071 94.8233 124.242 97.9308 116.832Z" fill="#FDFDFD"/>
<path d="M189.345 92.755C187.25 109.867 183.137 126.659 178.497 143.243C172.362 143.069 166.095 142.681 160.185 144.625C157.887 145.341 155.851 145.729 154.011 145.932C155.131 141.312 151.292 119.005 151.526 118.076C160.442 115.039 169.276 111.304 176.555 105.177C176.602 104.766 176.672 103.954 176.709 103.543L177.685 102.741C183.304 102.13 184.975 95.532 189.345 92.755Z" fill="#5F2227"/>
<path d="M128.398 121.338C128.244 123.8 127.656 139.63 127.489 144.778C123.921 146.285 119.33 147.076 115.949 144.697C116.878 140.973 117.597 125.544 117.854 121.539C121.365 121.375 124.884 121.315 128.398 121.338Z" fill="#5F2227"/>
<path d="M91.4659 114.245C92.9624 115.057 94.8598 115.364 95.8827 116.871C94.99 120.783 90.2401 136.753 89.1002 141.253C86.4038 141.3 84.6133 142.205 82.0809 140.922C77.6174 138.53 72.5293 137.846 67.5687 137.271C65.2627 126.73 63.6595 116.057 62.6601 105.316C62.6366 100.358 61.5878 95.3762 62.543 90.452C64.495 91.186 65.4865 93.1171 66.7696 94.611C73.4584 102.807 81.6801 110.019 91.4659 114.245Z" fill="#5F2227"/>
<path d="M147.953 78.645C143.185 78.9885 143.76 86.4685 138.518 85.7684C138.188 84.7585 138.331 82.804 139.109 80.6491C141.157 77.5858 143.926 74.3351 147.927 74.0176C154.277 73.0546 159.602 78.8454 160.825 84.6284C159.633 84.5816 157.27 84.4879 156.091 84.4411C155.019 81.0108 151.911 77.5753 147.953 78.645Z" fill="#32BCF3"/>
<path d="M95.2068 79.7488C94.5093 82.9631 92.5209 82.4087 89.6216 82.4582C90.5533 78.052 93.2262 73.7784 97.2915 71.7041C99.9514 71.0327 102.049 70.5382 105.474 71.5871C111.635 74.5801 112.413 81.7971 112.022 85.8754C107.465 86.828 108.433 81.8206 106.9 79.1373C104.805 74.3797 96.8985 74.921 95.2068 79.7488Z" fill="#32BCF3"/>
<path d="M154.009 145.934C153.892 146.426 153.73 146.712 153.481 146.756C153.481 146.676 153.444 146.415 153.4 145.991C153.598 145.97 153.798 145.944 154.009 145.934Z" fill="black"/>
<path d="M145.686 89.7687C151.044 89.2846 156.403 89.9691 161.564 91.4291C153.34 91.9106 144.78 90.6275 136.912 93.8418C139.01 91.0622 142.599 90.6978 145.686 89.7687Z" fill="black"/>
<path d="M151.265 200.889C147.73 205.296 142.111 207.321 137.049 209.455C121.194 215.732 101.984 211.422 90.0664 199.323C108.16 210.798 132.809 212.424 151.265 200.889Z" fill="black"/>
<path d="M107.088 90.5135C98.9258 89.2539 90.6572 88.9571 82.5292 90.6072C89.9649 85.9798 99.4801 86.771 107.088 90.5135Z" fill="black"/>
<path d="M113.301 87.5448C102.1 84.1744 89.9244 83.6929 78.4989 86.2591C78.5692 85.8244 78.7227 84.9656 78.793 84.5283C82.1946 83.6825 85.6587 83.0657 89.1228 82.5139C89.711 76.5539 94.5285 70.6199 100.783 70.4299C106.907 69.6075 112.783 75.4946 112.406 81.5483C112.286 83.4899 112.523 85.4236 113.465 87.144L113.301 87.5448ZM105.48 71.6454C102.055 70.5939 99.9575 71.091 97.2977 71.7624C93.2323 73.8341 90.5595 78.1077 89.6277 82.5139C92.5271 82.4671 94.5155 83.0214 95.213 79.8045C96.9047 74.9767 104.809 74.4354 106.907 79.193C108.44 81.8763 107.471 86.8837 112.029 85.9311C112.419 81.8528 111.641 74.6358 105.48 71.6454Z" fill="black"/>
<path d="M113.325 55.1254C103.646 47.5621 88.782 49.1524 80.0294 57.434C75.6283 61.4837 72.7888 67.0168 71.5994 72.8623C71.209 72.7426 70.4335 72.5083 70.0457 72.4016C71.6333 63.2872 77.9343 55.3362 86.1794 51.2605C84.9301 48.4471 83.7407 45.6076 82.4342 42.8176C83.5429 42.357 84.636 41.8859 85.7421 41.4252C86.627 44.4442 87.4286 47.4919 88.4775 50.4615C91.9754 49.0222 95.7778 48.9545 99.4892 48.5069C99.2757 44.8294 99.2393 41.1571 99.0649 37.4822C100.371 37.5889 101.678 37.6826 102.985 37.7867C102.529 41.4252 102.269 45.0923 102.068 48.7516C105.4 49.2825 108.593 50.4225 111.597 51.9684C112.984 48.585 114.293 45.173 115.894 41.8755C116.531 42.4871 117.791 43.7233 118.428 44.3349C117.143 47.4086 115.139 50.1284 113.962 53.2516C119.852 58.3059 124.55 65.1247 125.375 73.0263C127.873 65.1378 133.209 57.9987 140.816 54.4643C139.723 51.2501 138.247 48.1764 136.623 45.1964C137.883 44.3818 139.239 43.8405 140.699 43.5594C141.217 46.7606 142.276 49.8603 142.995 53.0277C146.386 52.4395 149.743 51.6014 153.194 51.4609C153.194 47.5518 153.041 43.6296 152.913 39.7048C154.256 39.7543 155.586 39.8115 156.929 39.861C156.518 43.7727 155.857 47.6585 155.433 51.5677C156.939 51.7186 158.449 51.8852 159.956 52.0622C161.393 52.5905 162.85 53.0277 164.347 53.3582C165.656 50.2377 166.775 47.0469 168.024 43.9003C169.047 42.5209 170.791 44.2282 171.532 45.1392C169.744 48.2571 168.152 51.4739 166.257 54.5346C174.125 58.6233 179.413 66.6056 181.048 75.2177L180.059 75.9231C179.752 76.0896 179.143 76.4332 178.848 76.5945C178.859 61.7075 162.559 50.0503 148.296 53.6758C134.419 55.9244 124.586 70.1296 126.21 83.8975C128.238 84.9203 130.065 86.2997 131.691 87.903C133.677 87.1482 135.658 86.409 137.625 85.6308C137.175 78.6688 143.809 72.1908 150.782 73.2007C156.455 74.0856 160.227 79.3846 161.437 84.6835C164.477 85.4044 167.491 86.1956 170.471 87.1247C170.343 87.3954 170.109 87.9341 169.989 88.21C157.707 84.8396 144.408 84.6158 132.277 88.7149C134.034 92.3664 134.278 96.4161 133.243 100.315C138.471 105.156 145.303 108.69 152.593 108.323C162.332 108.771 171.556 102.754 176.267 94.4277C176.818 94.2976 177.927 94.0374 178.481 93.9176C174.091 101.871 166.418 108.453 157.21 109.703C148.296 111.353 139.179 107.959 132.605 101.939C130.981 103.589 129.404 105.307 127.389 106.509C129.544 102.894 132.254 99.0058 131.652 94.5657C131.075 89.3604 125.825 85.2404 120.643 85.8859C112.914 88.171 110.725 98.3369 114.033 104.919C116.578 109.716 122.455 110.702 127.355 111.15C121.218 113.354 113.103 110.856 111.112 104.18C104.528 107.064 97.0375 108.383 90.0546 106.181C81.9761 104.024 75.5659 97.8996 71.8103 90.5888C72.1851 90.339 72.9528 89.8237 73.3432 89.5712C76.6173 97.1241 83.4596 103.071 91.5382 104.885C97.9484 106.522 104.845 105.403 110.654 102.319C109.101 97.2776 110.027 91.6819 113.291 87.5255L113.457 87.1247C116.13 84.1812 119.922 82.8486 123.858 83.1662C125.315 72.8519 121.89 61.507 113.325 55.1254ZM156.081 84.379C157.26 84.4284 159.623 84.5221 160.815 84.569C159.589 78.7859 154.264 72.9925 147.916 73.9554C143.916 74.273 141.144 77.5237 139.096 80.587C138.32 82.7419 138.177 84.6965 138.508 85.7089C143.747 86.409 143.174 78.9291 147.942 78.5855C151.898 77.5158 155.008 80.9513 156.081 84.379Z" fill="black"/>
<path d="M64.6399 26.9647C68.4814 25.1012 73.6242 26.6237 75.3003 30.663C79.1392 40.108 70.587 53.358 59.9526 51.7105C55.208 50.4378 53.6179 44.8187 54.4039 40.4645C55.5594 34.7726 59.0105 29.0833 64.6399 26.9647Z" fill="#9E9D06"/>
<path d="M192.714 52.9037C185.588 52.3858 185.163 41.067 191.431 38.9589C196.165 37.9595 198.734 43.6462 197.518 47.5449C197.271 50.2646 194.785 51.631 192.714 52.9037Z" fill="#9E9D06"/>
<path d="M49.3257 55.0981C52.1027 52.2717 56.3685 56.1938 55.5565 59.4575C55.723 63.1194 51.7878 66.5211 48.2535 64.6498C45.7575 62.0836 46.2182 57.0189 49.3257 55.0981Z" fill="#9E9D06"/>
<path d="M52.9544 156.511C54.6617 155.23 57.3112 154.936 58.8415 156.675C61.6472 160.553 58.9013 165.781 55.5804 168.374C53.4462 170.292 49.3862 170.268 48.1968 167.301C47.1818 163.119 49.5137 158.822 52.9544 156.511Z" fill="#9E9D06"/>
<path d="M185.898 157.454C190.694 154.994 197.643 156.48 199.869 161.719C204.025 170.599 198.125 182.072 189.055 185.057C184.167 186.853 178.009 184.438 176.159 179.443C173.309 171.094 177.853 161.001 185.898 157.454Z" fill="#9E9D06"/>
<path d="M62.2065 177.467C67.4638 176.442 71.4536 181.764 71.7477 186.545C72.5624 193.674 68.661 202.955 60.6527 203.707C55.8613 203.86 52.6809 199.173 52.2202 194.853C51.3718 187.898 54.7552 179.161 62.2065 177.467Z" fill="#9E9D06"/>
<path d="M172.746 190.263C174.797 189.074 178.281 189.058 179.437 191.523C181.592 195.997 178.635 202.204 173.698 203.196C171.265 204.034 169.284 201.697 168.542 199.662C168.235 196.151 169.602 192.145 172.746 190.263Z" fill="#9E9D06"/>
<defs>
<filter id="filter0_d_1_2343" x="0.499863" y="-0.00012207" width="245" height="245" filterUnits="userSpaceOnUse" color-interpolation-filters="sRGB">
<feFlood flood-opacity="0" result="BackgroundImageFix"/>
<feColorMatrix in="SourceAlpha" type="matrix" values="0 0 0 0 0 0 0 0 0 0 0 0 0 0 0 0 0 0 127 0" result="hardAlpha"/>
<feOffset dy="1.5"/>
<feGaussianBlur stdDeviation="3.75"/>
<feComposite in2="hardAlpha" operator="out"/>
<feColorMatrix type="matrix" values="0 0 0 0 0 0 0 0 0 0 0 0 0 0 0 0 0 0 0.25 0"/>
<feBlend mode="normal" in2="BackgroundImageFix" result="effect1_dropShadow_1_2343"/>
<feBlend mode="normal" in="SourceGraphic" in2="effect1_dropShadow_1_2343" result="shape"/>
</filter>
</defs>
</svg>
