<svg xmlns="http://www.w3.org/2000/svg" width="246" height="245" fill="none"><g filter="url(#a)"><rect width="220" height="220" x="13" y="11" fill="#F7E948" stroke="#FDFDFD" stroke-width="10" rx="15"/></g><path fill="#000" d="M91.368 19.765c1.09.058 3.269.177 4.358.236.344 4.513.178 9.06.414 13.584 2.83.438 5.602 1.846 8.455 1.764 1.281-2.57 2.204-5.281 3.21-7.958 1.374.308 2.747.65 4.109 1.007-1.372 3.208-2.475 6.549-3.043 9.994 7.769 5.436 13.156 14.282 14.222 23.732 1.635-9.213 6.419-17.787 13.927-23.471a184.88 184.88 0 0 0-3.447-9.39 377.295 377.295 0 0 1 3.885-2.145c1.054 3.068 2.084 6.136 3.162 9.19 2.842-1.03 5.731-1.907 8.657-2.723.153-4.572.237-9.154.745-13.701h4.395c-.073 4.582-.393 9.165-.273 13.748 2.7.2 5.353.769 7.875 1.764 1.611-2.464 3.115-4.985 4.595-7.532 1.255.675 2.498 1.362 3.742 2.05-1.232 2.533-2.57 5.008-3.92 7.47 10.113 6.172 16.319 17.777 16.472 29.547-.485.013-1.457.025-1.942.025-.379-8.777-3.54-17.68-9.983-23.826-7.875-7.794-21.114-10.434-30.802-4.477-10.088 6.004-15.406 17.846-15.43 29.322 3.435.84 7.354 1.799 9.001 5.304 3.576 6.75 1.302 14.673-1.007 21.435 5.34 5.992 12.624 11.072 21.007 10.658 9.262.9 17.586-4.891 22.585-12.257.804-.202 2.427-.604 3.232-.805.379.023 1.125.07 1.504.095-.639.142-1.93.45-2.57.603-4.737 8.432-14.022 14.222-23.72 14.483-8.645 0-16.792-4.263-22.619-10.48-.675 2.984-1.444 6.135-3.825 8.242 1.67-8.881 5.91-17.597 4.37-26.81-.675-3.813-3.659-6.869-7.378-7.852-6.098 1.244-8.644 7.875-8.206 13.512-.462 7.023 4.227 13.429 2.723 20.499-.959-3.293-1.788-6.62-2.794-9.888-6.028 7.425-15.111 13.026-24.964 12.315-10.753-.474-19.906-7.98-24.702-17.277.225.142.675.438.9.592.438.285 1.303.853 1.74 1.149 4.311 5.861 9.877 11.321 17.266 12.86 10.99 3.115 22.749-2.652 28.8-11.948-1.35-5.436-2.889-11.358-.615-16.77.971-3.078 3.611-5.055 5.743-7.294 1.434-14.281-8.585-29.855-23.198-32.376-9.735-2.428-19.872 2.924-25.721 10.599-4.016 5.316-6.017 11.84-6.917 18.38-.39-.037-1.172-.108-1.562-.143.995-11.288 6.892-22.37 16.958-28.032-1.825-3.078-3.991-6.039-5.01-9.52 1.433-.118 3.635-2.025 4.571-.06 1.753 2.452 3.126 5.14 4.631 7.745 2.119-.508 4.227-1.006 6.37-1.421.415-4.583-.035-9.166.024-13.748Z"/><path fill="#000" d="M146.988 64.048c-3.374 1.375-5.471 4.75-6.585 8.076-1.491 5.318 1.979 10.967 6.94 12.945 6.964 2.877 16.07-2.653 15.597-10.516.603-8.077-8.858-13.667-15.952-10.505Zm-8.479 10.505c-.248-8.171 8.349-15.432 16.343-12.695 7.732 1.551 12.244 10.8 8.917 17.893-1.954 5.163-7.52 7.176-12.458 8.29-6.526-1.078-13.146-6.347-12.802-13.488ZM92.428 64.172c-4.855 1.552-7.626 6.858-7.223 11.76.12 5.4 5.317 9.651 10.48 9.924 6.679.865 13.063-5.683 12.221-12.328-.698-7.094-8.774-12.374-15.478-9.356Zm2.547-2.368c10.492-2.298 18.96 11.392 12.577 19.86-4.808 7.91-17.255 7.33-22.347.06-5.305-7.462.699-19.398 9.77-19.92Z"/><path fill="#000" d="M93.785 69.267c3.055-1.16 7.27-.32 8.513 3.032.64 2.367.805 5.14-.473 7.319-2.795 2.748-8.04 2.558-10.41-.652-2.391-3.067-1.314-8.147 2.37-9.699ZM148.044 69.105c4.026-2.426 10.598.367 10.232 5.472.415 3.754-3.34 6.94-6.986 6.418-6.005.403-8.895-9.332-3.246-11.89Z"/><path fill="#000" d="M93.666 171.496c1.587 1.196 3.174 2.382 4.76 3.578.107-.959.32-2.902.427-3.874 1.67 2.154.604 4.999.592 7.461-.64 7.437-2.144 15.442 1.219 22.452 2.63 5.934 8.16 10.126 14.199 12.187 7.651 3.388 16.236 5.235 24.561 3.598 8.692-1.598 16.389-8.393 18.273-17.169 3.588-9.842-2.63-20.049-.13-29.96.201.958.626 2.878.828 3.836 1.552-1.919 3.102-3.825 4.654-5.731-9.498-4.371-20.973-4.122-30.34.496-1.456.545-2.486 1.706-3.386 2.914-10.055-7.342-26.61-10.1-35.657.212Zm13.737-45.484c-.142 3.741-.45 7.472-.782 11.213 5.282-.45 10.516.533 15.785.486a233.7 233.7 0 0 0 .012-10.457c-5.056.166-9.982-1.043-15.015-1.242Zm32.969-.865c-3.885 1.35-8.006 1.728-12.068 2.225-.237 3.198-.224 6.396-.189 9.605 4.582.248 9.142 1.018 13.749.923-.403-4.263-.628-8.549-1.492-12.753Zm37.669-22.513c-8.36 9.427-19.077 16.958-31.109 20.82-1.469.545-2.96 1.089-4.193 2.072-.745 4.546 1.137 9.023.747 13.583-5.27 1.976-11.097.106-16.567-.047-.699-4.099 1.148-8.811-1.504-12.365-3.091 3.53-1.362 8.515-1.753 12.767a120.27 120.27 0 0 1-17.905-.438c-.285-4.56.035-9.118-.024-13.69-6.644-1.656-13.027-4.239-19.15-7.247-10.764-5.341-19.076-14.994-23.316-26.184-.58 8.668 1.61 17.338 3.422 25.793 3.623 17.123 11.64 33.028 21.648 47.284.793 1.079 1.61 2.206 2.771 2.927 4.749-1.741 9.047-4.867 14.245-5.163 8.267-1.279 16.367 1.54 23.294 5.873 10.623-6.548 24.159-8.23 35.776-3.257 8.301-11.582 13.453-25.082 17.822-38.545 2.972-11.69 5.341-23.828 4.655-35.942-3.139 3.79-5.483 8.17-8.859 11.759ZM60.59 74.449c.368-.875.758-1.74 1.15-2.617.01.687.01 2.05.022 2.725 2.108.164 3.708 1.456 4.62 3.303-.936-.284-2.795-.828-3.731-1.113.829 12.151 4.796 25.094 14.933 32.685 14.01 10.242 31.726 14.839 48.932 14.672 18.687-.024 37.101-8.361 49.619-22.227 5.399-5.923 11.048-12.85 11.131-21.28-1.551.402-3.103.78-4.654 1.147 1.517-3.564 6.822-4.547 8.752-.853-.722.06-2.155.166-2.878.226 1.102 19.883-.864 40.323-8.301 58.916-4.962 13.548-11.582 26.762-21.209 37.622.082.911.248 2.736.343 3.647a59.25 59.25 0 0 0 .77 4.582c3.765 12.175-4.319 30.782-14.696 31.988-10.378 1.205-21.863 1.44-27.45 0-5.588-1.441-10.267-4.242-14.52-7.674-6.003-4.963-7.65-13.478-6.702-20.88.202-1.811.391-3.622.568-5.434.166-1.717.332-3.423.522-5.116-11.665-8.384-18.368-21.671-24.455-34.294-7.532-15.503-10.693-32.698-12.386-49.714-.746-6.087.413-12.174-.06-18.25-1.468.592-2.948 1.16-4.429 1.717.438-2.119 2.286-3.043 4.109-3.778Z"/><path fill="#9E9D06" d="M48.945 31.683c2.476-3.422 6.04 1.019 5.968 3.874.06 4.013.607 12.49-3.197 11.877-3.804-.614-4.263-10.433-2.771-15.751ZM189.114 32.874c3.709-1.905 5.823 11.485 2.545 12.08-3.277.593-4.822-11.234-2.545-12.08ZM49.434 59.175c-2.989-.005-2.304-9.546.013-9.415 2.316.132 2.976 9.42-.013 9.415ZM191.018 113.102c1.256-1.017 3.683-.059 3.28 1.813.64 6.644-.734 13.406-3.422 19.481-.758 1.385-1.824 3.589-3.801 2.854-1.777-1.291-1.314-3.849-1.374-5.743.403-6.372 1.456-13.146 5.317-18.405ZM59.164 131.272c-1.41-1.166-2.405-7.453-.45-7.886 1.954-.435 3.78 6.565 3.256 7.437-.523.87-1.396 1.615-2.806.449ZM58.894 134.912c2.555-1.251 5.34 4.582 6.797 7.71 1.705 4.394 3.15 9.046 3.185 13.795.32 1.859-2.238 4.831-3.683 2.356-5.068-6.584-8.856-22.609-6.3-23.861ZM184.708 145.995c5.081.011 2.831 10.479-1.539 9.568-1.741-2.926-1.409-7.768 1.539-9.568Z"/><path fill="#FDFDFD" d="M94.975 61.806c-9.07.52-15.075 12.457-9.77 19.919 5.092 7.27 17.539 7.85 22.347-.06 6.383-8.468-2.085-22.157-12.577-19.86ZM72.298 46.565c5.85-7.674 15.987-13.026 25.72-10.599 14.614 2.522 24.633 18.095 23.2 32.376-2.133 2.24-4.773 4.216-5.744 7.295-2.274 5.412-.735 11.333.615 16.77-6.05 9.295-17.81 15.062-28.8 11.948-7.39-1.54-12.955-7-17.266-12.861 3.53-1.764 7.2-3.848 9.178-7.414 2.547-4.263 1.208-9.923-1.871-13.535-3.15-3.257-7.662-4.618-11.949-5.6.9-6.54 2.902-13.063 6.916-18.38ZM138.511 74.549c-.344 7.14 6.275 12.41 12.801 13.487 4.938-1.113 10.504-3.126 12.458-8.29 3.328-7.093-1.184-16.342-8.917-17.892-7.994-2.737-16.59 4.523-16.342 12.695Zm1.669-35.894c9.688-5.957 22.927-3.317 30.802 4.476 6.443 6.145 9.604 15.05 9.983 23.826-5.21 1.266-10.741 3.66-13.251 8.716-3.802 6.786 2.001 15.099 8.621 17.444-4.998 7.366-13.323 13.156-22.584 12.257-8.383.414-15.667-4.666-21.007-10.659 2.308-6.76 4.583-14.684 1.006-21.434-1.646-3.506-5.566-4.464-9-5.305.024-11.475 5.341-23.318 15.43-29.321ZM140.368 125.15c.864 4.204 1.089 8.49 1.491 12.753-4.606.095-9.166-.675-13.748-.923-.036-3.209-.048-6.407.189-9.605 4.062-.497 8.183-.874 12.068-2.225ZM107.402 126.007c5.033.2 9.958 1.408 15.015 1.242a233.7 233.7 0 0 1-.012 10.457c-5.269.047-10.504-.936-15.785-.485.332-3.742.639-7.472.782-11.214Z"/><path fill="#32BCF3" d="M93.78 69.269c-3.684 1.55-4.761 6.631-2.37 9.698 2.37 3.21 7.615 3.4 10.41.652 1.279-2.18 1.113-4.951.474-7.32-1.244-3.35-5.459-4.19-8.514-3.03Zm-1.351-5.093c6.703-3.019 14.779 2.261 15.477 9.355.842 6.645-5.541 13.192-12.22 12.328-5.163-.272-10.362-4.523-10.48-9.923-.403-4.903 2.368-10.208 7.223-11.76ZM148.042 69.113c-5.649 2.558-2.759 12.293 3.246 11.889 3.646.522 7.401-2.664 6.986-6.418.367-5.104-6.206-7.898-10.232-5.471Zm-1.054-5.069c7.094-3.162 16.555 2.428 15.952 10.505.473 7.863-8.633 13.393-15.597 10.517-4.961-1.98-8.431-7.628-6.94-12.945 1.114-3.328 3.21-6.702 6.585-8.077Z"/><path fill="#CA5821" d="M44.446 70.828c4.903-5.222 12.564-6.276 19.374-6.027l1.563.142c4.286.983 8.798 2.344 11.948 5.6 3.08 3.613 4.418 9.272 1.871 13.536-1.977 3.566-5.648 5.65-9.177 7.413-.438-.294-1.302-.863-1.741-1.148 3.446-2.51 7.342-5.116 8.598-9.45 1.622-3.943-.793-8.324-4.323-10.244-7.436-4.345-17.763-4.37-24.49 1.386-2.45 2.001-3.552 5.483-2.356 8.48 1.527 4.393 5.992 6.477 8.906 9.793-3.648-.723-6.928-2.664-9.64-5.164-3.802-3.647-4.619-10.574-.533-14.317ZM167.713 75.685c2.51-5.057 8.04-7.45 13.251-8.716.485 0 1.456-.011 1.942-.024 6.217.024 12.648 1.895 17.337 6.1 3.209 3.137 5.222 8.56 2.439 12.599-1.788 3.21-5.388 4.476-8.727 5.388 2.486-2.593 6.004-4.582 7.01-8.253.474-4.536-2.522-8.93-6.714-10.553-7.91-4.285-20.286-2.889-24.17 6.17-1.492 6.407 4.062 11.654 9.485 13.928-.805.2-2.427.602-3.232.805-6.62-2.346-12.423-10.658-8.621-17.444Z"/><path fill="#CA5821" d="M66.719 70.02c1.942-.58 2.582.083 1.954 2.001-1.943.58-2.593-.083-1.954-2.001ZM53.019 70.76c1.977-.686 2.616-.072 1.93 1.836-1.978.687-2.617.07-1.93-1.836ZM178.776 72.543c1.988-.712 2.687-.131 2.095 1.751-1.99.711-2.687.13-2.095-1.751ZM192.168 74.787c-.521-1.848.166-2.711 2.085-2.57.496 1.943-.19 2.796-2.085 2.57Z"/><path fill="#5F2227" d="M178.039 102.63c3.375-3.589 5.72-7.97 8.858-11.76.687 12.115-1.682 24.253-4.655 35.942-4.369 13.464-9.521 26.964-17.821 38.545-11.618-4.972-25.154-3.29-35.776 3.257-6.928-4.333-15.028-7.152-23.294-5.873-5.199.296-9.497 3.423-14.245 5.163-1.161-.721-1.978-1.848-2.772-2.926-10.007-14.257-18.024-30.161-21.648-47.285-1.812-8.454-4.002-17.124-3.422-25.793 4.24 11.191 12.553 20.843 23.317 26.184 6.123 3.008 12.506 5.592 19.149 7.248.059 4.571-.261 9.13.024 13.689 5.945.592 11.938.736 17.905.439.392-4.252-1.338-9.238 1.754-12.767 2.651 3.554.805 8.266 1.503 12.365 5.471.153 11.298 2.023 16.567.046.39-4.559-1.491-9.036-.746-13.583 1.232-.982 2.723-1.526 4.193-2.072 12.031-3.862 22.748-11.393 31.109-20.819Z"/><path fill="#EE959C" d="M68.925 144.605c5.033 10.825 10.114 21.92 18.285 30.815 3.008 3.186 5.565 7.284 10.077 8.466a410.03 410.03 0 0 1-.568 5.435c-2.109-2.521-4.618-4.642-7.047-6.855-9.9-10.588-18.06-23.447-20.747-37.861ZM167.418 173.607c4.679-6.287 6.976-13.88 10.8-20.64-2.878 12.22-8.194 24.808-18.129 32.909a59.274 59.274 0 0 1-.77-4.583c4.002-.841 5.862-4.713 8.099-7.686Z"/><path fill="#EE959C" d="M93.661 171.493c9.047-10.312 25.603-7.554 35.658-.212.9-1.208 1.93-2.369 3.386-2.914 9.367-4.618 20.842-4.866 30.34-.496a1892.72 1892.72 0 0 0-4.654 5.732c-.202-.959-.628-2.878-.829-3.837-2.499 9.911 3.719 20.118.131 29.96-1.884 8.777-9.581 15.572-18.274 17.17-8.324 1.636-16.91-.211-24.56-3.599-6.04-2.061-11.57-6.252-14.199-12.187-3.363-7.01-1.86-15.015-1.22-22.451.013-2.463 1.078-5.307-.591-7.462-.106.972-.32 2.915-.427 3.874-1.587-1.196-3.174-2.382-4.76-3.578Z"/><defs><filter id="a" width="245" height="245" x=".5" y="0" color-interpolation-filters="sRGB" filterUnits="userSpaceOnUse"><feFlood flood-opacity="0" result="BackgroundImageFix"/><feColorMatrix in="SourceAlpha" result="hardAlpha" values="0 0 0 0 0 0 0 0 0 0 0 0 0 0 0 0 0 0 127 0"/><feOffset dy="1.5"/><feGaussianBlur stdDeviation="3.75"/><feComposite in2="hardAlpha" operator="out"/><feColorMatrix values="0 0 0 0 0 0 0 0 0 0 0 0 0 0 0 0 0 0 0.25 0"/><feBlend in2="BackgroundImageFix" result="effect1_dropShadow_1_2356"/><feBlend in="SourceGraphic" in2="effect1_dropShadow_1_2356" result="shape"/></filter></defs></svg>