<svg width="246" height="245" viewBox="0 0 246 245" fill="none" xmlns="http://www.w3.org/2000/svg">
<g filter="url(#filter0_d_1_2349)">
<rect x="13" y="11" width="220" height="220" rx="15" fill="#F7E948" stroke="#FDFDFD" stroke-width="10"/>
</g>
<path d="M47.6772 42.9338C53.6355 40.6655 57.7081 47.7835 57.3857 52.8929C57.5828 57.7008 54.0459 64.3248 48.3683 62.6015C41.0625 59.3383 40.4851 46.5658 47.6772 42.9338Z" fill="#9E9D06"/>
<path d="M197.743 45.9022C203.286 43.8032 207.967 52.4519 203.727 56.2926C198.11 59.1477 192.516 49.2605 197.743 45.9022Z" fill="#9E9D06"/>
<path d="M42.4439 67.0537C46.3774 66.0146 46.7995 72.4692 44.6356 74.443C40.5444 76.426 38.8977 68.2388 42.4439 67.0537Z" fill="#9E9D06"/>
<path d="M191.44 153.973C196.035 151.57 203.709 153.931 203.47 159.945C205.01 169.958 194.052 179.425 184.375 176.046C181.24 174.408 180.57 170.452 180.869 167.251C181.481 161.246 186.036 156.292 191.44 153.973Z" fill="#9E9D06"/>
<path d="M58.1555 169.796C61.5556 166.542 65.9135 173.06 62.5529 175.444C59.6143 177.826 55.7086 172.095 58.1555 169.796Z" fill="#9E9D06"/>
<path d="M67.7186 179.441C73.0182 177.416 78.2551 182.412 79.1272 187.44C80.1871 190.84 78.7887 195.982 74.5397 196.024C69.4373 195.878 65.6823 191.019 64.9262 186.294C64.3905 183.766 65.3042 180.67 67.7186 179.441Z" fill="#9E9D06"/>
<path d="M175.599 179.142C177.751 177.431 180.753 179.479 180.458 182.06C181.307 186.279 174.59 190.539 172.062 186.163C171.557 183.424 173.069 180.351 175.599 179.142Z" fill="#9E9D06"/>
<path d="M141.76 95.3435C143.029 101.378 142.43 107.603 140.73 113.48C156.548 127.396 185.159 121.373 192.662 101.232C190.867 100.539 189.104 99.7617 187.339 98.9848C191.319 99.4579 195.329 100.464 199.348 99.8568C202.013 97.8831 199.61 93.9264 196.818 93.4115C178.672 89.413 159.633 90.4196 141.76 95.3435ZM154.28 75.7802C149.451 77.733 146.902 82.5386 145.571 87.3048C145.893 88.9097 146.271 90.5054 146.598 92.122C148.307 91.7207 150.031 91.3334 151.752 90.9461C151.531 88.868 150.975 86.4953 152.401 84.6909C154.72 81.2584 159.487 80.8919 163.13 82.0237C165.879 83.253 166.969 86.1799 166.697 89.0466C169.049 89.0674 171.398 89.0976 173.75 89.1602C173.655 87.546 173.583 85.9201 173.507 84.292C170.603 77.0395 161.692 72.1157 154.28 75.7802ZM96.3227 74.4674C89.8078 76.1373 83.2975 81.5413 84.3365 88.9399C86.1108 88.6059 87.885 88.258 89.6477 87.9124C90.3295 84.3546 92.6396 80.8687 96.5128 80.4396C101.339 79.4516 105.447 84.2595 104.742 88.8889C107.049 89.4965 109.38 90.0439 111.7 90.5889C111.732 88.4899 111.7 86.4002 111.7 84.3013C108.919 78.3731 102.926 74.3839 96.3227 74.4674ZM84.7354 57.6641C81.1173 67.876 71.752 75.1934 61.3847 77.6681C59.0863 83.3666 58.6549 89.6218 59.6314 95.6589C66.4942 92.2055 74.0296 90.6515 81.514 89.1927C82.3002 83.7678 85.1018 78.3407 90.1185 75.7175C93.6369 74.0801 97.7305 72.8416 101.592 73.985C108.875 75.6224 114.102 83.3666 112.917 90.7559C114.891 91.628 116.844 92.5626 118.764 93.5576C120.801 91.1873 123.013 88.9399 125.627 87.1981C125.008 82.8749 123.929 78.5726 121.828 74.7086C115.278 61.4422 98.9899 54.4542 84.7354 57.6641ZM166.266 53.5705C166.676 51.5458 167.263 49.5628 168.008 47.6308C167.263 55.4724 171.586 62.8802 177.684 67.5188C182.295 70.8679 187.805 72.5679 193.179 74.2587C192.326 74.7086 191.477 75.1493 190.625 75.59C180.434 73.2405 169.805 67.0689 167.052 56.2679C160.252 54.9041 153.011 56.2261 146.786 59.1461C136.595 64.2138 129.721 75.0357 128.881 86.3167C133.858 86.8409 138.569 89.2344 141.076 93.7153C142.252 93.3071 143.439 92.9082 144.634 92.5418C144.172 87.3674 145.169 81.7199 148.989 77.9418C154.238 72.1273 164.144 71.9696 169.833 77.239C173.245 80.21 175.072 84.6492 175.01 89.1509C182.179 89.7076 189.354 90.1598 196.463 91.3659C196.285 85.8251 195.412 80.3445 194.288 74.929C197.029 74.3515 199.852 74.646 202.623 74.7504C201.596 77.3851 198.479 75.968 196.389 76.3043C198.235 81.1006 198.699 86.2634 198.393 91.3659C200.851 93.0868 203.083 95.7934 202.299 99.0173C201.918 102.459 197.639 102.995 194.981 101.977C190.625 110.173 184.004 117.437 175.302 121.048C163.812 125.937 149.954 123.504 140.227 115.862C137.551 121.278 135.303 127.009 131.432 131.722C134.529 122.317 140.635 113.564 140.266 103.289C140.51 97.9573 138.485 91.7114 133.121 89.5823C127.401 87.6179 121.084 92.3956 120.084 98.0733C118.47 105.576 121.893 112.778 123.403 119.967C123.653 122.18 124.296 124.984 122.343 126.601C121.9 121.93 121.021 117.321 119.685 112.829C112.087 120.218 101.687 125.455 90.8676 124.564C91.0114 124.112 91.2851 123.198 91.4336 122.746C101.854 123.231 111.595 117.887 118.342 110.226C117.282 105.001 117.083 99.6156 118.437 94.4204C99.9222 87.7246 78.9001 89.2136 61.0809 97.3474L60.9858 97.3705C59.7357 97.2847 58.4786 97.2012 57.2285 97.1177C57.6275 90.8417 56.7438 84.3546 59.2231 78.3731C57.0058 78.5726 54.7816 78.6329 52.5574 78.51C63.6599 75.968 74.6418 70.3228 80.8227 60.4055C83.1722 57.191 83.9376 53.2667 85.357 49.6463C85.7861 51.5574 85.7768 53.5195 85.6701 55.4724C92.3868 53.8976 99.514 54.7998 105.906 57.2443C116.832 61.5072 125.101 71.7701 126.961 83.3364C128.881 77.8165 130.277 71.9185 134.118 67.3101C141.561 57.5806 154.154 52.5524 166.266 53.5705Z" fill="black"/>
<path d="M78.6779 98.9473C81.0204 96.1039 84.9215 96.1874 88.2613 95.6516C93.8438 95.1692 100.236 94.2554 104.854 98.2539C96.1631 96.5654 87.3173 97.3308 78.6779 98.9473Z" fill="black"/>
<path d="M151.629 98.7345C155.458 96.3409 160.161 96.1299 164.549 95.9536C166.794 96.2783 169.798 95.8168 171.055 98.1477C164.57 98.0619 158.104 98.4817 151.629 98.7345Z" fill="black"/>
<path d="M68.9551 156.63C72.4502 159.893 75.7066 163.398 78.9166 166.935C81.099 163.63 82.7804 160.03 84.942 156.702C81.4468 155.192 78.1511 153.249 75.3494 150.658C73.1136 152.537 70.9613 154.51 68.9551 156.63ZM52.8662 140.467C56.4449 144.329 60.1186 148.097 63.5836 152.064C65.9215 150.027 68.3267 148.065 70.7619 146.135C68.0646 142.197 65.6084 138.064 64.0962 133.507C60.2879 135.722 56.5098 137.99 52.8662 140.467ZM58.7873 118.32C61.7467 113.387 69.5233 115.634 71.497 120.335C69.5326 119.38 67.5798 118.406 65.4716 117.838C64.3676 125.31 65.439 133.194 69.3354 139.741C75.2775 149.869 86.3986 158.057 98.6492 156.681C95.3302 159.622 90.7148 158.372 86.8925 157.342C84.2601 161.582 81.7809 165.917 79.726 170.463C74.6444 166.735 70.5206 161.941 65.9215 157.658C67.2643 153.471 73.5334 152.117 72.9651 147.353C69.4375 149.545 66.3228 152.316 63.0804 154.888C58.8291 151.004 54.7123 146.963 51.02 142.545C49.633 141.232 51.6926 139.994 52.4789 139.092C55.5218 136.046 59.5945 134.37 62.8809 131.702C62.7023 127.126 62.0924 122.562 62.7534 117.995C61.7677 118.07 59.7823 118.237 58.7873 118.32Z" fill="black"/>
<path d="M146.795 59.1625C153.02 56.2448 160.261 54.9205 167.061 56.2865C169.814 67.0875 180.443 73.2568 190.634 75.6086C191.485 75.1656 192.334 74.725 193.188 74.275C193.459 74.442 194.025 74.7783 194.296 74.9476C195.421 80.3632 196.293 85.8414 196.472 91.3845C189.363 90.1761 182.187 89.7239 175.018 89.1696C175.081 84.6655 173.253 80.2264 169.844 77.2553C164.152 71.9859 154.247 72.1436 148.998 77.9581C145.178 81.7362 144.181 87.3837 144.642 92.5581C143.448 92.9268 142.261 93.3234 141.085 93.734C138.577 89.2531 133.867 86.8595 128.89 86.3354C129.729 75.052 136.604 64.2301 146.795 59.1625Z" fill="#FDFDFD"/>
<path d="M84.7278 57.7341C98.9822 54.5219 115.271 61.5123 121.823 74.7787C123.919 78.6403 125 82.9449 125.619 87.2681C123.008 89.0099 120.793 91.2573 118.759 93.6277C116.838 92.6304 114.883 91.698 112.91 90.8259C114.097 83.4366 108.869 75.6925 101.587 74.055C97.7228 72.9093 93.6293 74.1501 90.1132 75.7853C85.0966 78.4107 82.2949 83.8356 81.5063 89.2627C74.0243 90.7216 66.4865 92.2755 59.626 95.7266C58.6473 89.6918 59.0787 83.4366 61.3771 77.7381C71.7467 75.2611 81.1073 67.946 84.7278 57.7341Z" fill="#FDFDFD"/>
<path d="M52.8839 140.506C56.5252 138.029 60.3033 135.763 64.1139 133.548C65.6238 138.104 68.0823 142.239 70.7797 146.175C68.3421 148.104 65.9393 150.069 63.5991 152.103C60.1364 148.137 56.4626 144.368 52.8839 140.506Z" fill="#FDFDFD"/>
<path d="M68.9526 156.685C70.9588 154.566 73.1112 152.592 75.347 150.713C78.1487 153.304 81.4444 155.248 84.9396 156.757C82.778 160.086 81.0966 163.685 78.9141 166.99C75.7042 163.453 72.4478 159.949 68.9526 156.685Z" fill="#FDFDFD"/>
<path d="M96.3245 74.4988C102.928 74.4153 108.921 78.4045 111.702 84.3327C111.702 86.4316 111.734 88.5213 111.702 90.6203C109.382 90.0753 107.051 89.5279 104.744 88.9202C105.449 84.2909 101.341 79.483 96.5147 80.471C92.6414 80.9001 90.3315 84.386 89.6496 87.9438C87.8846 88.2894 86.1126 88.6373 84.3383 88.9713C83.2993 81.5727 89.8073 76.1687 96.3245 74.4988Z" fill="#32BCF3"/>
<path d="M154.276 75.8327C161.686 72.1682 170.597 77.0921 173.503 84.3446C173.577 85.9727 173.652 87.5986 173.747 89.2151C171.395 89.1502 169.043 89.12 166.694 89.0991C166.965 86.2325 165.875 83.3055 163.124 82.0763C159.481 80.9445 154.714 81.3109 152.395 84.7435C150.969 86.5479 151.526 88.9206 151.746 90.9987C150.027 91.3883 148.304 91.7756 146.592 92.1745C146.268 90.558 145.89 88.9623 145.565 87.3573C146.896 82.5912 149.447 77.7856 154.276 75.8327Z" fill="#32BCF3"/>
<path d="M60.9989 97.3738L61.094 97.3529C70.5382 98.1925 80.1841 101.709 86.5135 109.054C89.4614 112.948 92.3188 117.64 91.4467 122.752C91.2983 123.204 91.0246 124.115 90.8808 124.568C89.1065 128.42 85.2425 131.692 80.7941 131.379C84.5607 129.113 89.1367 126.11 89.0231 121.135C87.8889 113.055 81.4135 106.63 74.001 103.828C67.0245 101.203 59.1412 99.4194 51.847 101.822C48.8667 103.042 45.1279 104.719 44.8565 108.416C45.056 110.64 45.6219 112.813 46.0324 115.005C44.6896 113.433 43.124 111.816 42.8921 109.643C42.6439 104.972 45.8933 100.449 50.2837 98.9672C53.496 97.7101 57.0096 98.1415 60.3494 97.5941L60.9989 97.3738Z" fill="#CA5821"/>
<path d="M59.9704 102.587C61.4199 101.464 63.4564 103.888 61.87 105.001C60.4204 106.103 58.377 103.689 59.9704 102.587Z" fill="#CA5821"/>
<path d="M69.6012 111.254C71.4265 110.572 72.4631 113.784 70.6704 114.466C68.6967 115.211 67.7969 111.936 69.6012 111.254Z" fill="#CA5821"/>
<path d="M78.9784 111.528C80.7109 111.013 81.2769 111.59 80.6785 113.29C78.946 113.805 78.38 113.218 78.9784 111.528Z" fill="#CA5821"/>
<path d="M188.489 123.489C189.463 121.652 192.14 123.519 190.776 125.073C189.781 126.836 187.177 125.031 188.489 123.489Z" fill="#CA5821"/>
<path d="M175.45 125.514C177.148 124.915 177.83 127.812 176.12 128.127C174.45 128.589 173.727 125.892 175.45 125.514Z" fill="#CA5821"/>
<path d="M182.089 133.944C183.045 132.339 185.912 133.893 184.652 135.507C183.676 137.04 180.925 135.539 182.089 133.944Z" fill="#CA5821"/>
<defs>
<filter id="filter0_d_1_2349" x="0.499847" y="-0.000152588" width="245" height="245" filterUnits="userSpaceOnUse" color-interpolation-filters="sRGB">
<feFlood flood-opacity="0" result="BackgroundImageFix"/>
<feColorMatrix in="SourceAlpha" type="matrix" values="0 0 0 0 0 0 0 0 0 0 0 0 0 0 0 0 0 0 127 0" result="hardAlpha"/>
<feOffset dy="1.5"/>
<feGaussianBlur stdDeviation="3.75"/>
<feComposite in2="hardAlpha" operator="out"/>
<feColorMatrix type="matrix" values="0 0 0 0 0 0 0 0 0 0 0 0 0 0 0 0 0 0 0.25 0"/>
<feBlend mode="normal" in2="BackgroundImageFix" result="effect1_dropShadow_1_2349"/>
<feBlend mode="normal" in="SourceGraphic" in2="effect1_dropShadow_1_2349" result="shape"/>
</filter>
</defs>
</svg>
