<svg width="246" height="245" viewBox="0 0 246 245" fill="none" xmlns="http://www.w3.org/2000/svg">
<g filter="url(#filter0_d_1_2350)">
<rect x="13" y="11" width="220" height="220" rx="15" fill="#F7E948" stroke="#FDFDFD" stroke-width="10"/>
</g>
<path d="M21 21H21.297C21.2171 21.0674 21.0674 21.2147 21 21.2946V21Z" fill="#CA5821"/>
<path d="M182.976 112.075C194.399 111.862 206.419 117.452 212.328 127.452C211.943 127.552 211.152 127.754 210.757 127.856L210.046 128.051C203.685 119.601 193.064 114.698 182.494 115.769C166.71 115.737 153.21 129.801 152.014 145.188C151.373 151.918 152.816 158.833 156.443 164.582C159.189 169.654 164.146 172.84 167.861 177.101C158.859 173.823 153.168 164.979 150.332 156.214C149.967 155.074 149.618 153.933 149.303 152.789C147.519 146.951 148.941 140.757 151.006 135.203C155.719 122.017 168.924 112.304 182.976 112.075Z" fill="#CA5821"/>
<path d="M42.681 121.721C56.7677 108.74 81.3587 111.369 93.0064 126.349C98.5757 132.702 100.178 141.332 100.608 149.512C100.633 150.551 100.643 151.589 100.62 152.615C98.9701 160.559 95.66 169.078 88.5455 173.617C92.0129 167.79 97.1079 162.443 97.6271 155.339C97.9866 148.641 98.1788 141.554 95.2307 135.343C90.263 124.712 79.0646 117.27 67.327 116.851C53.9867 116.501 40.5117 124.547 35.3718 137.041C32.4337 143.644 34.0138 151.035 33.1576 158.002C30.1171 154.515 31.1356 149.433 30.9983 145.184C31.1231 136.057 35.6414 127.41 42.681 121.721Z" fill="#CA5821"/>
<path d="M74.3629 122.841C75.5038 121.204 78.3421 123.081 77.064 124.729C75.9331 126.379 73.0848 124.491 74.3629 122.841Z" fill="#CA5821"/>
<path d="M169.224 122.834C170.158 121.778 172.295 123.555 171.119 124.696C169.946 125.837 168.288 123.887 169.224 122.834Z" fill="#CA5821"/>
<path d="M202.961 125.088C205.028 124.502 205.954 127.947 203.853 128.443C201.728 129.097 200.69 125.495 202.961 125.088Z" fill="#CA5821"/>
<path d="M46.1178 126.143C48.387 125.329 48.8838 128.991 46.7494 129.396C44.4803 130.199 43.961 126.515 46.1178 126.143Z" fill="#CA5821"/>
<path d="M188.37 128.398C189.184 127.357 191.623 128.727 190.277 130.24C188.937 131.753 187.556 129.441 188.37 128.398Z" fill="#CA5821"/>
<path d="M60.7165 133.065C62.072 131.475 63.2278 134.002 62.6137 134.918C61.9996 135.834 59.361 134.656 60.7165 133.065Z" fill="#CA5821"/>
<path d="M118.459 186.327C124.243 184.195 130.571 184.302 136.612 185.051C136.43 185.446 136.073 186.237 135.888 186.631C128.661 187.151 121.397 187.695 114.654 190.62C115.84 189.14 116.561 187.038 118.459 186.327Z" fill="#CA5821"/>
<path d="M142.384 54.2338C144.743 48.8692 151.081 45.0049 156.922 46.7099C161.576 48.7194 162.674 54.1439 164.109 58.47C165.397 62.9533 168.425 66.6254 170.253 70.8741C163.895 66.2759 162.447 58.1205 158.605 51.7475C155.727 47.3739 149.241 49.1613 146.363 52.6062C141.932 57.3167 143.413 64.3862 140.814 69.9131C140.137 64.6808 140.307 59.159 142.384 54.2338Z" fill="black"/>
<path d="M101.881 47.7766C106.06 45.0756 113.062 46.0017 114.715 51.2564C116.555 57.5371 115.084 64.4818 111.832 70.0759C110.726 64.1348 114.985 57.9115 111.867 52.2474C110.738 49.7411 107.621 48.2284 105.022 49.4366C96.4022 52.7566 94.5474 63.6705 86.3146 67.4873C88.1918 64.3919 90.7205 61.7708 92.6527 58.7228C95.3162 54.7811 97.7476 50.3852 101.881 47.7766Z" fill="black"/>
<path d="M76.9336 85.9043C88.7162 81.024 98.1622 71.94 105.586 61.7651C99.4154 78.3929 82.4255 89.2718 65.1286 90.6822C68.7358 88.3556 73.0694 87.6667 76.9336 85.9043Z" fill="black"/>
<path d="M150.725 65.7813C153.371 68.2302 155.131 71.4404 157.593 74.0715C166.27 83.0282 178.152 88.9719 190.704 89.571C189.361 90.6444 187.688 91.231 185.958 91.0613C170.833 90.1901 155.696 80.3897 150.725 65.7813Z" fill="black"/>
<path d="M105.233 93.092C106.319 100.626 105.118 108.861 100.295 114.962C97.6439 118.522 91.8375 119.243 88.7072 115.911C83.093 110.239 81.9297 101.869 82.5064 94.2328C84.5633 101.1 84.2887 109.575 90.4471 114.395C93.51 117.041 97.4642 114.408 99.5636 111.867C103.945 106.624 103.752 99.4176 105.233 93.092Z" fill="black"/>
<path d="M145.884 95.3009C147.624 97.595 146.98 100.655 147.544 103.309C148.23 108.404 150.052 114.12 154.75 116.844C157.666 118.629 160.841 116.257 162.781 114.121C167.077 109.103 167.629 102.181 168.453 95.91C168.735 95.9549 169.301 96.0597 169.569 96.1022C168.997 103.763 168.5 112.73 161.982 117.927C158.66 121.203 152.988 119.924 150.437 116.347C146.141 110.304 145.479 102.485 145.881 95.3009" fill="black"/>
<path d="M117.833 103.11C120.601 98.4673 127.663 97.8782 131.595 101.313C134.633 103.832 136.835 107.494 137.107 111.481C138.023 120.09 135.149 128.493 131.742 136.264C130.758 138.301 130.057 140.705 127.968 141.891C130.149 134.639 134.258 127.939 134.882 120.235C135.616 114.149 134.588 106.341 128.432 103.348C123.811 101.088 118.886 105.325 117.586 109.661C114.752 119.014 117.77 128.685 120.354 137.712C116.784 134.357 116.063 129.239 115.057 124.686C113.981 117.492 113.926 109.513 117.833 103.11Z" fill="black"/>
<path d="M130.713 164.815C129.944 169.062 129.944 173.4 129.844 177.704C134.599 177.771 139.342 178.146 144.11 178.133C143.828 172.509 143.828 166.86 143.311 161.246C139.332 163.12 135.074 164.284 130.713 164.815ZM110.118 161.076C109.17 166.261 109.384 171.548 109.17 176.803C113.77 177.252 118.378 177.389 122.984 177.681C123.121 173.39 123.224 169.087 122.872 164.793C118.446 164.229 114.197 162.851 110.118 161.076ZM100.607 152.626C100.63 151.598 100.62 150.559 100.597 149.521C104.404 153.223 108.134 157.224 113.056 159.451C122.667 164.069 134.135 162.681 143.614 158.41C146.155 157.314 147.725 154.955 149.295 152.796C149.61 153.939 149.962 155.08 150.324 156.221C148.763 157.619 147.173 158.987 145.543 160.32C145.466 167.087 146.677 173.862 145.793 180.62C139.797 180.677 133.786 180.595 127.832 179.783L127.864 178.892C127.947 174.192 128.049 169.494 127.864 164.793C127.265 165.008 126.06 165.437 125.46 165.652C124.931 170.417 125.595 175.243 124.861 179.998C118.773 180.337 112.682 179.783 106.651 178.992C106.99 172.679 107.667 166.386 107.929 160.072C105.897 157.237 103.094 155.042 100.607 152.626Z" fill="black"/>
<path d="M57.7256 57.713C59.5754 57.1264 61.892 57.4634 63.0103 59.2158C65.7887 64.7301 63.24 75.1547 56.2004 73.924C49.1559 72.6933 51.4749 60.1969 57.7256 57.713Z" fill="#9E9D06"/>
<path d="M193.51 60.2809C196.865 58.3713 200.432 63.3638 198.592 66.3918C197.215 70.0988 193.847 74.6496 189.648 71.669C185.449 68.686 189.127 62.1207 193.51 60.2809Z" fill="#9E9D06"/>
<path d="M49.1374 84.3275C47.4848 82.8796 50.141 80.4456 51.444 79.809C52.7446 79.175 53.521 79.0351 53.9853 82.0108C54.4496 84.9915 50.795 85.7803 49.1374 84.3275Z" fill="#9E9D06"/>
<path d="M211.711 127.4L212.37 127.23C217.568 136.347 220.164 147.835 216.162 157.865C215.79 152.161 217.206 146.422 215.96 140.763C215.286 135.962 212.575 131.871 210.141 127.804C210.538 127.702 211.329 127.5 211.714 127.4" fill="#CA5821"/>
<path d="M180.751 166.169C184.954 165.368 189.313 165.243 193.539 165.942C196.373 166.551 199.266 170.428 196.69 172.947C191.844 177.41 184.647 178.705 178.277 177.68C175.723 177.16 171.722 176.002 172.516 172.54C173.312 169.075 177.261 166.948 180.751 166.169Z" fill="#9E9D06"/>
<path d="M49.9431 172.158C49.8507 169.092 56.4036 170.982 59.3617 172.325C61.6657 173.376 65.8645 174.776 65.2829 176.948C64.7013 179.12 50.0305 175.223 49.9431 172.158Z" fill="#9E9D06"/>
<path d="M74.6246 185.3C77.8223 184.815 82.6976 184.868 83.9458 187.536C85.1889 190.207 84.1729 192.472 82.0935 193.884C77.8123 197.309 71.9135 198.56 66.539 197.941C63.9404 197.342 60.5604 194.144 62.6872 191.458C65.498 187.761 70.1986 186.079 74.6246 185.3Z" fill="#9E9D06"/>
<path d="M168.871 189.541C170.196 186.8 180.396 187.392 180.426 190.342C180.456 193.295 170.723 193.735 169.705 192.998C168.689 192.262 167.545 192.282 168.871 189.541Z" fill="#9E9D06"/>
<path d="M110.131 161.067C114.21 162.842 118.458 164.22 122.884 164.784C123.236 169.078 123.134 173.382 122.997 177.673C118.391 177.381 113.783 177.243 109.182 176.794C109.397 171.539 109.182 166.252 110.131 161.067Z" fill="#FDFDFD"/>
<path d="M130.735 164.838C135.096 164.306 139.354 163.143 143.333 161.268C143.85 166.882 143.85 172.531 144.132 178.155C139.364 178.168 134.621 177.794 129.866 177.726C129.966 173.422 129.966 169.084 130.735 164.838Z" fill="#FDFDFD"/>
<path d="M127.886 164.782C128.068 169.483 127.966 174.181 127.886 178.879C127.401 174.201 127.731 169.47 127.886 164.782Z" fill="#FDFDFD"/>
<defs>
<filter id="filter0_d_1_2350" x="0.499847" y="-0.000152588" width="245" height="245" filterUnits="userSpaceOnUse" color-interpolation-filters="sRGB">
<feFlood flood-opacity="0" result="BackgroundImageFix"/>
<feColorMatrix in="SourceAlpha" type="matrix" values="0 0 0 0 0 0 0 0 0 0 0 0 0 0 0 0 0 0 127 0" result="hardAlpha"/>
<feOffset dy="1.5"/>
<feGaussianBlur stdDeviation="3.75"/>
<feComposite in2="hardAlpha" operator="out"/>
<feColorMatrix type="matrix" values="0 0 0 0 0 0 0 0 0 0 0 0 0 0 0 0 0 0 0.25 0"/>
<feBlend mode="normal" in2="BackgroundImageFix" result="effect1_dropShadow_1_2350"/>
<feBlend mode="normal" in="SourceGraphic" in2="effect1_dropShadow_1_2350" result="shape"/>
</filter>
</defs>
</svg>
