<svg width="246" height="245" viewBox="0 0 246 245" fill="none" xmlns="http://www.w3.org/2000/svg">
<g filter="url(#filter0_d_1_2354)">
<rect x="13" y="11" width="220" height="220" rx="15" fill="#F7E948" stroke="#FDFDFD" stroke-width="10"/>
</g>
<path d="M200.746 39.1737C203.471 37.9402 207.396 38.2988 209.022 41.1005C212.005 48.478 203.124 57.4571 195.79 54.2202C190.576 49.5585 195.13 41.2081 200.746 39.1737Z" fill="#9E9D06"/>
<path d="M46.0722 42.215C49.1322 41.0794 53.4712 41.6102 54.9199 44.9427C57.8077 51.163 53.4831 58.4209 47.8222 61.2968C44.0283 63.3766 37.7935 62.6069 36.713 57.7396C35.4268 51.2491 40.1435 44.5745 46.0722 42.215Z" fill="#9E9D06"/>
<path d="M37.3973 70.2777C37.3113 68.8577 37.94 67.8537 38.7911 68.0425C39.6445 68.2338 41.7626 69.9574 41.7411 71.0499C41.7172 72.1448 42.3196 74.9824 39.874 75.1402C37.4284 75.298 37.4834 71.6954 37.3973 70.2777Z" fill="#9E9D06"/>
<path d="M194.122 123.444C195.872 122.839 196.48 123.422 195.951 125.196C194.187 125.791 193.58 125.206 194.122 123.444Z" fill="#CA5821"/>
<path d="M179.26 127.331C180.362 125.6 182.915 127.668 181.672 129.193C180.568 130.922 178.027 128.835 179.26 127.331Z" fill="#CA5821"/>
<path d="M65.7778 134.352C66.8822 132.631 69.457 134.654 68.2139 136.191C67.1094 137.9 64.5251 135.878 65.7778 134.352Z" fill="#CA5821"/>
<path d="M185.59 136.326C187.136 135.083 189.063 137.732 187.43 138.825C185.884 140.061 183.947 137.421 185.59 136.326Z" fill="#CA5821"/>
<path d="M55.6461 140.904C56.6836 139.238 59.4424 141.002 58.1993 142.602C57.1593 144.258 54.3815 142.494 55.6461 140.904Z" fill="#CA5821"/>
<path d="M189.909 150.416C193.543 149.269 198.097 150.772 199.397 154.593C202.187 162.078 196.949 170.16 190.428 173.686C186.436 176.034 179.988 175.319 178.288 170.464C175.293 162.133 181.664 152.515 189.909 150.416Z" fill="#9E9D06"/>
<path d="M58.2847 156.248C59.982 155.036 61.5957 153.855 64.1273 155.373C66.659 156.889 61.9518 168.105 56.3387 165.583C53.1878 162.913 55.3729 158.132 58.2847 156.248Z" fill="#9E9D06"/>
<path d="M66.6298 173.195C69.8882 171.93 73.9857 173.324 75.3579 176.635C78.0522 184.426 71.27 194.084 62.953 193.708C58.7575 193.242 56.6442 188.753 57.218 184.921C57.6387 179.599 61.6884 174.937 66.6322 173.195" fill="#9E9D06"/>
<path d="M178.963 185.543C179.556 182.911 180.928 182.445 182.202 182.287C183.479 182.129 186.08 182.438 186.261 184.678C186.443 186.915 185.348 188.921 182.852 189.28C180.354 189.638 178.373 188.175 178.963 185.543Z" fill="#9E9D06"/>
<path d="M144.676 57.5584C134.518 62.048 127.227 71.5578 124.207 82.1052C129.292 82.0932 134.982 84.5508 136.519 89.7862C138.792 98.0505 136.847 106.695 134.389 114.68C139.603 119.98 146.591 123.432 153.982 124.307C167.891 126.114 182.574 118.887 189.387 106.575C194.929 96.4823 195.588 83.4248 189.906 73.2551C185.345 64.5796 177.033 57.709 167.332 55.7416C159.844 54.2164 151.678 54.1183 144.676 57.5584ZM78.3842 55.3734C61.5376 59.5163 49.6061 77.7447 52.8525 94.8615C55.2527 111.046 70.4737 124.166 86.8757 123.809C97.6286 124.101 108.133 119.038 114.752 110.58C113.172 104.359 112.264 97.5652 114.774 91.4644C116.17 87.6657 119.35 85.0145 122.357 82.5044C120.509 76.5231 118.269 70.4534 113.952 65.7797C105.319 55.9902 90.9325 51.8568 78.3842 55.3734ZM84.3105 44.685C85.7521 44.6635 87.1984 44.6539 88.6399 44.6539C88.8336 47.2597 89.0941 49.8678 89.3834 52.4736C94.5232 53.0354 99.6295 54.1518 104.301 56.4133C105.525 54.6801 106.758 52.9613 107.992 51.2401C109.453 52.0959 110.935 52.9278 112.426 53.7287C111.226 55.438 110.002 57.1472 108.762 58.847C115.424 64.0704 120.076 71.3403 123.366 79.0667C125.984 71.5028 130.743 64.7637 137.04 59.8199C136.074 57.8955 135.137 55.9687 134.236 54.0203C135.515 53.2649 136.801 52.5166 138.099 51.7708C139.18 53.5566 140.251 55.3638 141.343 57.1472C146.062 54.7447 151.19 53.2099 156.478 52.7987C156.643 50.3866 156.803 47.9745 156.987 45.56C158.828 45.5839 160.666 45.6365 162.505 45.713C162.235 48.0056 161.943 50.2886 161.704 52.5812C166.789 53.535 171.788 54.9622 176.526 57.0612C177.91 55.1893 179.359 53.3605 180.843 51.5652C182.084 52.323 183.332 53.1023 184.565 53.8912C183.406 55.7942 182.27 57.709 181.132 59.6144C187.169 64.8378 192.115 71.4813 194.463 79.1743C198.51 92.4469 193.953 107.897 183.351 116.853C175.498 124.036 164.324 127.022 153.86 125.832C147.164 125.141 141.064 122.1 135.405 118.626C135.113 118.129 134.53 117.144 134.236 116.647C133.997 117.199 133.512 118.316 133.273 118.866C131.556 122.652 130.093 126.635 127.399 129.858C128.816 123.723 132.051 118.175 133.208 111.964C134.638 105.041 136.313 97.5007 133.284 90.7377C131.673 85.3707 123.409 83.5443 119.849 87.9359C116.483 91.3425 115.89 96.4608 116.311 101.027C116.734 110.157 120.564 118.973 119.426 128.201C117.815 123.355 116.787 118.335 115.446 113.403C108.121 121.158 97.7051 126.276 86.9067 125.951C77.789 125.27 68.3627 122.382 61.7981 115.729C51.0882 105.385 47.3015 88.316 53.5768 74.6632C55.891 69.1553 59.7542 64.4721 64.2222 60.5658C63.1488 58.4884 60.6411 56.638 61.442 54.0658C62.5871 53.3294 63.7656 52.6457 64.9681 52.0098C66.1467 53.8697 67.3348 55.7296 68.5181 57.5919C73.4476 54.9288 78.793 53.1334 84.3439 52.323C84.289 49.7818 84.2651 47.2382 84.3105 44.685Z" fill="black"/>
<path d="M83.0213 74.9094C77.5707 76.8888 73.7505 82.6645 74.3888 88.4857C74.3888 97.3357 84.3194 104.044 92.5742 101.012C101.216 98.6338 104.993 86.9509 99.8034 79.7982C96.2198 74.4648 88.907 72.5834 83.0213 74.9094ZM82.9878 72.9945C92.0411 69.2198 103.738 76.284 103.879 86.2481C104.917 95.1602 96.8916 103.74 87.9555 103.384C79.5716 103.599 71.9551 95.7555 72.4093 87.3932C72.6054 81.0652 76.8679 74.9094 82.9878 72.9945Z" fill="black"/>
<path d="M153.264 76.0012C148.019 77.4834 142.987 81.6359 142.695 87.4474C141.428 94.4471 146.386 101.705 153.319 103.132C162.004 104.918 171.253 97.5406 170.228 88.4204C170.12 80.0892 161.184 73.6847 153.264 76.0012ZM153.298 74.0744C162.698 71.4782 172.913 79.862 172.14 89.5894C172.468 97.7247 165.22 104.832 157.223 105.016C148.038 105.621 139.019 96.8162 140.663 87.4666C141.385 80.847 146.905 75.4275 153.298 74.0744Z" fill="black"/>
<path d="M80.1438 86.0403C81.3104 81.5723 86.2231 77.9697 90.8513 79.722C94.4779 80.7834 95.8716 84.5367 97.2056 87.6636C96.1776 91.2208 94.1098 95.182 89.9859 95.6577C84.5234 96.8698 79.1995 91.4503 80.1438 86.0403Z" fill="black"/>
<path d="M154.541 81.6039C159.509 79.787 165.272 84.2766 164.656 89.5431C165.416 97.291 153.396 100.329 149.75 93.8055C146.332 89.3925 149.533 82.945 154.541 81.6039Z" fill="black"/>
<path d="M135.901 120.905C139.752 123.188 143.41 125.882 147.713 127.278C154.01 129.645 160.751 130.283 167.296 131.66C156.142 134.331 142.446 130.934 135.901 120.905Z" fill="black"/>
<path d="M94.1627 129.448C99.7663 127.837 104.6 124.505 109.838 122.059C103.237 130.617 92.0853 134.629 81.4925 134.144C78.227 134.177 75.1215 133.018 72.2217 131.6C79.5991 132.305 87.1176 131.925 94.1627 129.448Z" fill="black"/>
<path d="M107.669 181.483C109.357 182.49 111.09 183.463 112.775 184.491C107.215 182.263 101.298 181.213 95.3023 181.72C93.2798 185.182 92.5675 189.143 92.8041 193.123C103.591 188.677 114.862 185.473 126.373 183.635C121.353 178.768 113.751 178.746 107.669 181.483ZM107.411 159.705C107.224 162.248 107.009 164.79 106.835 167.343C111.673 167.085 116.485 166.575 121.288 166.035C121.19 160.972 121.58 155.918 121.926 150.879C116.54 152.794 111.628 155.832 107.411 159.705ZM122.586 168.208C116.93 168.911 111.281 169.592 105.625 170.286C105.214 167.742 104.889 165.179 104.585 162.626C101.068 167.668 97.9965 172.989 95.6298 178.658C98.0706 179.081 100.519 179.513 102.983 179.795C108.611 180.563 113.717 176.43 119.373 177.663C124.817 178.151 128.733 183.57 134.403 182.736C142.569 181.916 150.8 181.861 158.947 182.965C158.981 173.769 157.821 164.249 153.451 156.038C151.46 152.122 147.458 150.044 143.435 148.801C143.877 154.988 145.445 161.132 144.883 167.355C138.89 169.031 132.357 167.582 126.189 167.128C125.962 161.144 126.179 155.141 125.443 149.191C122.285 155.01 123.939 161.923 122.586 168.208ZM128.061 149.612C128.137 154.871 127.941 160.128 128.288 165.375C133.212 165.655 138.142 165.72 143.069 165.655C142.708 159.996 141.821 154.393 141.302 148.758C136.868 148 132.4 148.639 128.061 149.612ZM104.133 159.781C112.343 150.154 125.486 146.54 137.731 146.485C144.795 146.387 152.49 149.418 155.734 156.071C159.92 165.213 161.694 175.425 161.24 185.454C153.157 183.766 144.84 183.84 136.684 184.945C120.824 186.102 105.579 190.948 90.4565 195.526C88.7592 191.77 89.658 187.596 90.6525 183.776C93.1172 174.83 98.2762 166.879 104.133 159.781Z" fill="black"/>
<path d="M82.9997 73.0333C76.8773 74.9482 72.6149 81.104 72.4188 87.4319C71.967 95.7943 79.5811 103.638 87.9673 103.423C96.901 103.779 104.929 95.199 103.889 86.2868C103.75 76.3228 92.0529 69.2585 82.9997 73.0333ZM78.381 55.4097C90.9293 51.8956 105.318 56.0289 113.951 65.8184C118.268 70.4921 120.506 76.5618 122.356 82.5431C119.349 85.0533 116.169 87.7021 114.773 91.5007C112.263 97.6016 113.171 104.396 114.752 110.616C108.132 119.076 97.6278 124.14 86.8748 123.846C70.4729 124.204 55.2519 111.082 52.8517 94.8978C49.6053 77.7834 61.5344 59.5551 78.381 55.4097Z" fill="#FDFDFD"/>
<path d="M153.295 74.0874C146.902 75.4381 141.385 80.86 140.66 87.4796C139.015 96.8269 148.038 105.634 157.222 105.027C165.216 104.843 172.467 97.7377 172.14 89.6001C172.909 79.8751 162.697 71.4912 153.295 74.0874ZM144.662 57.5779C151.662 54.1378 159.828 54.2358 167.315 55.761C177.019 57.7309 185.329 64.5991 189.892 73.277C195.575 83.4466 194.913 96.5018 189.374 106.597C182.558 118.909 167.877 126.133 153.966 124.328C146.575 123.451 139.589 120.001 134.375 114.699C136.83 106.714 138.779 98.07 136.505 89.8057C134.968 84.5702 129.279 82.1127 124.194 82.1246C127.213 71.5773 134.504 62.0675 144.662 57.5779Z" fill="#FDFDFD"/>
<path d="M133.256 118.893C133.495 118.343 133.981 117.227 134.217 116.674C134.511 117.172 135.097 118.157 135.389 118.654C134.858 118.721 133.787 118.84 133.256 118.893Z" fill="#FDFDFD"/>
<path d="M128.064 149.689C132.401 148.716 136.871 148.078 141.306 148.836C141.824 154.47 142.711 160.074 143.07 165.732C138.145 165.797 133.213 165.732 128.291 165.453C127.944 160.205 128.138 154.948 128.064 149.689Z" fill="#FDFDFD"/>
<path d="M107.411 159.732C111.631 155.859 116.541 152.818 121.927 150.906C121.583 155.945 121.193 160.999 121.291 166.06C116.489 166.602 111.674 167.109 106.838 167.37C107.01 164.817 107.227 162.273 107.411 159.732Z" fill="#FDFDFD"/>
<path d="M80.1393 86.0207C79.195 91.4306 84.5189 96.8501 89.9815 95.6381C94.1053 95.1624 96.1731 91.2011 97.2011 87.6439C95.8671 84.517 94.4734 80.7638 90.8469 79.7023C86.2187 77.95 81.306 81.5527 80.1393 86.0207ZM83.0152 74.8661C88.9009 72.5401 96.2162 74.4215 99.7973 79.7573C104.99 86.9076 101.21 98.5905 92.5681 100.972C84.3133 104 74.3827 97.2924 74.3827 88.4448C73.7444 82.6237 77.5647 76.848 83.0152 74.8661Z" fill="#32BCF3"/>
<path d="M154.519 81.6563C149.511 82.9975 146.31 89.4449 149.728 93.858C153.374 100.382 165.394 97.3435 164.634 89.5955C165.25 84.329 159.487 79.8395 154.519 81.6563ZM153.254 75.9978C161.172 73.6837 170.108 80.0881 170.216 88.417C171.244 97.5371 161.994 104.915 153.309 103.129C146.376 101.702 141.418 94.4437 142.685 87.444C142.977 81.6348 148.007 77.4799 153.254 75.9978Z" fill="#32BCF3"/>
<path d="M52.7121 129.46C51.9974 127.576 55.1028 126.775 55.7745 128.463C56.4893 130.304 53.3289 131.191 52.7121 129.46Z" fill="#CA5821"/>
<path d="M122.592 168.296C123.943 162.011 122.291 155.097 125.446 149.276C126.185 155.229 125.968 161.231 126.195 167.213C132.362 167.667 138.894 169.118 144.889 167.442C145.451 161.219 143.883 155.076 143.441 148.886C147.462 150.132 151.466 152.209 153.457 156.125C157.827 164.337 158.987 173.856 158.953 183.05C150.806 181.948 142.573 182.001 134.406 182.823C128.736 183.658 124.822 178.238 119.377 177.751C113.723 176.517 108.614 180.65 102.989 179.883C100.524 179.601 98.0764 179.168 95.6356 178.745C98.0023 173.077 101.074 167.753 104.591 162.714C104.894 165.267 105.217 167.83 105.628 170.373C111.287 169.68 116.936 168.999 122.592 168.296Z" fill="#5F2227"/>
<path d="M107.683 181.491C113.765 178.754 121.367 178.775 126.387 183.643C114.877 185.481 103.605 188.684 92.8185 193.131C92.5818 189.15 93.2942 185.189 95.3167 181.728C101.312 181.221 107.229 182.27 112.79 184.498C111.104 183.47 109.371 182.497 107.683 181.491Z" fill="#EE959C"/>
<path d="M134.491 191.775C142.562 191.235 151.713 195.973 158.93 190.618C158.433 192.088 157.945 193.57 157.467 195.052C149.451 198.796 140.862 193.42 132.66 195.841C129.081 196.903 126.26 199.628 122.655 200.582C117.31 201.079 112.086 199.434 107.054 197.854C111.154 197.919 115.268 198.222 119.368 197.854C124.797 196.783 128.67 191.514 134.491 191.775Z" fill="#EE959C"/>
<defs>
<filter id="filter0_d_1_2354" x="0.499863" y="-0.000152588" width="245" height="245" filterUnits="userSpaceOnUse" color-interpolation-filters="sRGB">
<feFlood flood-opacity="0" result="BackgroundImageFix"/>
<feColorMatrix in="SourceAlpha" type="matrix" values="0 0 0 0 0 0 0 0 0 0 0 0 0 0 0 0 0 0 127 0" result="hardAlpha"/>
<feOffset dy="1.5"/>
<feGaussianBlur stdDeviation="3.75"/>
<feComposite in2="hardAlpha" operator="out"/>
<feColorMatrix type="matrix" values="0 0 0 0 0 0 0 0 0 0 0 0 0 0 0 0 0 0 0.25 0"/>
<feBlend mode="normal" in2="BackgroundImageFix" result="effect1_dropShadow_1_2354"/>
<feBlend mode="normal" in="SourceGraphic" in2="effect1_dropShadow_1_2354" result="shape"/>
</filter>
</defs>
</svg>
