<svg width="246" height="245" viewBox="0 0 246 245" fill="none" xmlns="http://www.w3.org/2000/svg">
<g filter="url(#filter0_d_1_2342)">
<rect x="13" y="11" width="220" height="220" rx="15" fill="#F7E948" stroke="#FDFDFD" stroke-width="10"/>
</g>
<path d="M44.8348 37.8078C53.7574 32.8813 56.5798 44.775 50.7669 50.2738C40.7046 59.7883 32.6854 43.7011 44.8348 37.8078Z" fill="#9E9D06"/>
<path d="M198.951 47.3751C196.754 41.0167 208.94 34.103 210.74 38.9565C212.544 43.805 203.322 56.6875 198.951 47.3751Z" fill="#9E9D06"/>
<path d="M36.1311 60.832C38.1451 56.6969 44.9078 56.5532 43.4101 61.845C41.2452 69.4965 31.8793 66.3405 36.1288 60.832" fill="#9E9D06"/>
<path d="M195.968 160.316C210.777 155.837 207.647 179.91 196.289 183.243C181.973 187.454 187.045 164.363 195.968 160.316Z" fill="#9E9D06"/>
<path d="M53.7807 162.445C59.6812 160.672 60.877 169.466 57.9133 172.714C53.0891 177.991 47.2104 166.095 53.7807 162.445Z" fill="#9E9D06"/>
<path d="M61.2547 179.667C70.2432 170.408 77.1884 189.768 68.1294 195.325C60.1832 199.928 57.3681 184.118 61.2547 179.667Z" fill="#9E9D06"/>
<path d="M183.136 194.915C179.371 193.478 181.302 186.021 185.637 184.82C192.307 182.714 187.151 193.268 183.136 194.915Z" fill="#9E9D06"/>
<path d="M141.114 80.1932C140.42 85.1197 142.37 89.8805 145.972 93.2192C153.049 92.4692 160.213 92.3499 167.263 93.3508C170.373 90.1655 172.621 86.2423 173.247 81.7907C171.055 81.4279 168.851 81.1405 166.645 80.8337C167.451 86.3982 162.524 91.2687 157.028 90.8839C151.174 91.2224 146.712 85.5068 147.306 79.918C145.246 80.0057 143.176 80.0836 141.114 80.1932ZM126.39 80.8215C126.378 81.3304 126.368 82.3313 126.356 82.8378C132.792 83.3565 137.453 88.49 138.272 94.7291C140.064 94.4758 141.852 94.2006 143.637 93.9011C140.31 90.0802 138.082 85.1757 138.941 80.0057C134.743 80.0593 130.567 80.3807 126.39 80.8215ZM76.5776 80.6778C75.5767 84.9005 75.83 89.9463 79.2783 93.0317C80.5689 94.6073 82.5975 93.8134 84.3046 93.66C90.8384 92.5252 97.4963 92.7006 104.098 92.8881C106.509 88.8675 107.722 84.204 106.731 79.5332C104.505 79.4772 102.289 79.4529 100.073 79.4115C100.923 83.6537 99.9071 88.9673 95.0585 90.1241C88.593 93.9669 79.344 87.08 82.4417 79.8084C80.491 80.0714 78.5306 80.3685 76.5776 80.6778ZM132.98 71.4654C136.703 71.441 140.473 71.2121 144.165 71.8598C138.05 72.5222 131.801 73.3941 126.203 76.0728C126.29 76.8423 126.454 78.3765 126.546 79.1461C137.059 78.6614 147.557 77.624 158.097 77.736C170.921 78.1427 183.872 79.8523 195.941 84.4037C197.911 85.7139 200.799 83.0254 199.464 81.0407C194.903 76.348 188.004 76.2262 182.108 74.4534C185.016 74.1002 187.929 74.485 190.693 75.4762C189.636 73.6376 188.545 71.8282 187.451 70.0212C177.184 68.6672 167.419 64.0379 160.045 56.7298C149.323 56.9392 139.073 62.6912 132.98 71.4654ZM87.015 54.4382C90.2758 51.8301 92.5016 48.0603 96.1715 45.9441C95.0367 48.467 93.573 50.8024 92.0851 53.1159C102.401 54.7694 111.579 61.6245 116.549 70.7469C119.538 71.6285 122.445 72.812 124.946 74.7066C127.581 73.0093 130.61 71.6991 132.386 68.9765C138.457 60.9549 147.779 55.3197 157.887 54.538C156.1 52.5655 154.152 50.6246 153.39 47.9921C157.06 49.9428 159.285 53.6565 162.636 56.0479C170.436 61.778 179.189 66.8579 188.942 68.1608C191.949 68.6332 195.066 68.5893 197.967 69.6462C195.453 70.1089 192.897 70.277 190.352 70.3866C191.84 72.5125 192.84 75.3568 195.544 76.2262C198.042 77.3732 200.843 78.8709 201.802 81.6373C202.209 84.2479 199.851 85.5946 198.264 87.1458L197.879 87.7522C197.801 88.0079 197.623 88.5241 197.536 88.7774C196.303 88.4462 195.166 87.8423 194.031 87.2895C193.922 86.6295 193.715 85.3072 193.603 84.6448C187.51 83.4101 181.426 82.1755 175.243 81.4619C174.903 86.1424 172.609 90.2093 170.276 94.1446C170.858 94.4637 172.036 95.0822 172.621 95.4012C172.377 95.6983 171.893 96.3047 171.649 96.6018C160.939 94.0545 149.688 94.0887 138.91 96.239C138.094 101.253 137.19 106.255 136.197 111.238C145.412 122.454 162.152 125.221 175.234 119.656C175.882 119.666 177.16 119.712 177.81 119.722L178.273 119.744C171.627 124.726 162.736 125.177 154.834 123.867C147.36 122.557 140.661 118.59 135.218 113.41C133.555 118.268 133.014 123.91 129.035 127.556C131.373 117.43 135.812 107.524 135.14 96.9208C134.768 93.363 133.599 89.206 130.17 87.4234C128.075 86.1108 125.178 85.7139 123.086 87.2359C119.072 89.7247 117.628 94.7291 117.541 99.2051C116.968 107.127 120.538 114.511 121.354 122.279C121.595 123.92 120.913 125.486 120.353 126.996C118.466 121.782 118.269 116.164 116.528 110.906C110.454 116.77 102.63 121.122 94.1209 121.848C86.0895 122.698 77.9559 120.572 71.0033 116.571C71.3662 116.283 72.0822 115.711 72.4475 115.426C80.7126 119.931 90.6386 121.054 99.7317 118.699C106.024 116.987 111.457 113.057 115.831 108.315C115.105 104.548 114.643 100.734 114.543 96.8989C102.111 94.4223 89.2408 94.035 76.8114 96.7576C76.5459 96.1269 76.2488 95.5108 75.9395 94.9045L78.3723 95.148C74.7609 91.2127 72.9223 85.9014 74.3761 80.612C67.4552 81.5155 60.5976 82.9377 53.645 83.6318C53.2261 84.1042 52.3787 85.0417 51.9501 85.5166L50.9126 85.9014C50.7373 85.3607 50.372 84.26 50.1967 83.7072C61.7129 80.7533 73.3849 77.9211 85.3176 77.4949C96.0156 77.1175 106.765 77.2051 117.409 78.4179C117.166 78.8051 116.671 79.5771 116.428 79.9595C113.617 79.8085 110.819 79.6331 108.009 79.5332C109.814 84.2381 108.009 89.0209 106.003 93.3094C108.869 93.9133 111.723 94.5976 114.567 95.3136C115.831 89.8587 118.919 84.5352 124.505 82.6503C124.42 82.3094 124.252 81.6154 124.164 81.2599C122.158 80.9311 120.163 80.6121 118.157 80.2931C119.26 79.8182 120.353 79.3335 121.432 78.827C122.579 79.034 124.858 79.4529 125.993 79.6648C124.406 77.5705 123.051 74.9039 120.395 74.0101C116.693 72.7535 112.748 72.5125 108.991 71.4873C110.279 71.29 112.877 70.8808 114.18 70.6714C110.71 66.0347 106.784 61.4906 101.651 58.6487C98.0685 56.5885 94.0017 55.6947 90.0323 54.7377C82.1421 61.5247 72.7007 67.1769 62.0539 67.793C57.4586 67.2646 56.3456 72.5783 54.2757 75.5078C57.0494 75.2984 59.8281 75.0232 62.6164 74.8503C56.9083 77.042 49.6561 77.3952 46.4392 83.4224C47.4985 84.4135 48.5529 85.3948 49.6244 86.386C48.3654 86.8389 47.1088 87.3114 45.8644 87.8204L46.9359 87.3552C45.7987 85.4825 44.357 83.5562 44.9829 81.2306C46.3856 78.3765 49.6342 77.3854 52.2569 76.0168C53.5013 73.3405 54.8042 70.6836 56.2263 68.0925C52.9509 67.7175 49.5027 67.586 46.6486 65.7353C60.8071 66.78 76.0272 63.96 87.015 54.4382Z" fill="black"/>
<path d="M60.3809 54.119C65.2075 53.856 68.8335 50.7146 72.9003 48.5886C71.4806 53.0402 66.7977 55.4414 62.3754 55.5071C61.3502 55.6849 60.8996 54.7595 60.3809 54.119Z" fill="black"/>
<path d="M182.035 51.6251C185.143 53.9605 188.878 55.4582 191.689 58.1905C187.424 58.3147 183.304 55.8357 182.035 51.6251Z" fill="black"/>
<path d="M86.4114 100.161C90.8752 98.7505 97.7085 96.9095 100.991 101.273C97.2872 101.074 93.5857 100.346 89.8719 100.83C88.6153 101.12 87.4464 100.864 86.4114 100.161Z" fill="black"/>
<path d="M149.369 101.388C153.833 98.1125 160.025 99.2815 164.818 101.176C165.139 101.563 165.777 102.335 166.096 102.72C160.586 101.585 154.992 101.32 149.369 101.388Z" fill="black"/>
<path d="M145.108 158.145C145.096 167.135 144.293 176.097 144.283 185.088C150.661 183.05 156.924 180.252 162.179 176.031C163.314 170.236 162.971 164.228 163.204 158.332C157.175 158.266 151.138 158.432 145.108 158.145ZM164.836 158.101C164.483 163.6 164.646 169.123 164.261 174.621C170.423 170.06 175.568 164.294 179.823 157.947C174.818 158.123 169.826 158.045 164.836 158.101ZM126.33 158.101C125.471 167.91 126.218 177.782 125.911 187.623C131.488 187.82 136.997 186.873 142.398 185.607C142.719 176.428 143.676 167.269 143.389 158.067C137.703 158.057 132.017 158.057 126.33 158.101ZM107.377 158.298C106.846 166.885 106.317 175.503 106.471 184.109L107.109 184.932C112.676 186.598 118.44 187.543 124.238 187.711C124.314 177.911 124.258 168.119 124.28 158.32C118.65 158.001 113.007 157.935 107.377 158.298ZM89.5996 158.157C89.3658 164.194 89.137 170.236 89.2685 176.272C94.1292 179.358 99.2869 181.937 104.644 184.053C104.82 175.403 105.314 166.763 105.908 158.135C100.478 158.035 95.0326 158.001 89.5996 158.157ZM73.5661 159.27C75.3584 166.432 82.2915 169.96 87.3616 174.541C87.649 169.023 87.9144 163.49 87.9339 157.957C82.8101 158.223 77.5843 156.45 72.6261 158.32C72.0441 157.813 70.8848 156.81 70.3028 156.306C70.4587 158.067 72.1317 158.697 73.5661 159.27ZM124.18 143.467C123.729 147.542 123.135 151.677 123.686 155.785L125.227 156.272L126.386 155.578C127.29 151.608 127.222 147.522 127.387 143.477C126.584 143.477 124.974 143.467 124.18 143.467ZM129.36 143.102C129.197 147.3 128.997 151.499 129.028 155.7C134.737 154.95 140.579 154.95 146.287 155.722C146.365 150.717 146.165 145.715 146.177 140.713C140.645 141.958 135.024 142.793 129.36 143.102ZM105.436 141.636C105.027 146.144 104.511 150.629 104.177 155.137C109.853 156.503 115.63 154.84 121.372 155.249C121.623 151.38 122.129 147.534 122.419 143.677C116.762 142.961 110.991 143.046 105.436 141.636ZM56.1736 113.821C56.6022 123.464 59.5246 132.755 62.6441 141.826C64.2075 146.475 66.3675 150.914 69.1241 154.971C80.1119 155.059 91.0973 155.093 102.073 155.855C102.36 150.939 102.801 146.032 103.332 141.142C90.8756 138.032 79.0745 132.414 68.9269 124.543C64.3633 121.336 60.6495 117.116 56.1736 113.821ZM148.359 140.036C148.247 145.428 148.259 150.817 148.294 156.204C159.191 155.809 170.091 156.272 180.989 156.094C189.188 142.717 193.621 126.925 193.224 111.22C180.889 124.224 165.827 135.234 148.359 140.036ZM48.6512 109.569C51.7683 105.502 58.1243 103.22 62.6758 106.108C60.2965 106.605 57.9051 107.034 55.5258 107.472C63.5913 120.038 76.8269 128.279 90.34 133.955C125.195 148.886 169.003 137.891 192.926 108.522C191.779 108.51 189.464 108.497 188.307 108.497C191.689 104.949 198.391 106.384 199.901 111.113C198.579 110.438 197.268 109.71 195.966 108.994C195.328 113.745 195.274 118.538 194.687 123.289C192.461 135.003 189.663 146.906 183.161 157.078C175.271 168.911 165.143 179.911 151.873 185.675C135.621 193.485 115.981 192.681 99.7814 185.122C88.1142 179.623 77.4211 171.448 70.2031 160.658C66.4139 154.411 62.247 148.241 60.0748 141.195C56.7264 130.495 54.8197 119.432 53.0882 108.378C51.6807 109.004 50.368 110.67 48.6512 109.569Z" fill="black"/>
<path d="M117.408 78.4635C118.754 78.5414 120.096 78.6267 121.431 78.8726C120.352 79.3792 119.261 79.8614 118.158 80.3387C120.164 80.6553 122.156 80.9743 124.163 81.3055C124.253 81.6586 124.419 82.355 124.504 82.6935C118.918 84.5808 115.832 89.9019 114.566 95.3568C111.722 94.6433 108.868 93.9565 106.001 93.3526C108.01 89.0666 109.815 84.2837 108.01 79.5764C110.818 79.6763 113.616 79.8517 116.429 80.0051C116.67 79.6227 117.164 78.8483 117.408 78.4635Z" fill="#FDFDFD"/>
<path d="M126.385 80.8466C130.561 80.4058 134.737 80.0867 138.936 80.0307C138.076 85.2007 140.304 90.1053 143.631 93.9261C141.846 94.2257 140.058 94.5008 138.266 94.7541C137.448 88.5151 132.787 83.3816 126.35 82.8629C126.363 82.3564 126.372 81.3555 126.385 80.8466Z" fill="#FDFDFD"/>
<path d="M53.652 83.6381C60.6046 82.9441 67.4622 81.5219 74.3832 80.6184C72.9293 85.9077 74.7679 91.219 78.3794 95.1543L75.9465 94.9108C73.3116 92.1785 70.6475 89.3122 67.153 87.683C62.4798 85.3038 57.0809 85.126 51.9572 85.5205C52.3833 85.0481 53.2332 84.1106 53.652 83.6381Z" fill="#FDFDFD"/>
<path d="M175.249 81.4999C181.432 82.2159 187.516 83.4505 193.609 84.6852C193.721 85.3451 193.928 86.6675 194.04 87.3298C186.05 86.1731 178.103 89.731 172.626 95.4416C172.044 95.1226 170.863 94.5041 170.281 94.185C172.614 90.2497 174.908 86.1829 175.249 81.4999Z" fill="#FDFDFD"/>
<path d="M105.448 141.544C111.003 142.954 116.775 142.868 122.432 143.584C122.142 147.442 121.635 151.287 121.384 155.156C115.642 154.747 109.866 156.411 104.189 155.044C104.523 150.537 105.039 146.054 105.448 141.544Z" fill="#FDFDFD"/>
<path d="M129.379 143.051C135.043 142.742 140.663 141.904 146.196 140.662C146.182 145.661 146.381 150.666 146.306 155.67C140.595 154.896 134.756 154.896 129.047 155.648C129.016 151.448 129.215 147.249 129.379 143.051Z" fill="#FDFDFD"/>
<path d="M73.5619 159.2C72.1275 158.627 70.4544 157.997 70.2986 156.236C70.8806 156.74 72.0399 157.743 72.6219 158.25C77.58 156.38 82.8059 158.153 87.9296 157.887C87.9102 163.42 87.6448 168.953 87.3574 174.471C82.2872 169.89 75.3542 166.362 73.5619 159.2Z" fill="#FDFDFD"/>
<path d="M89.5967 158.105C95.0273 157.952 100.475 157.983 105.905 158.083C105.311 166.711 104.817 175.352 104.641 184.002C99.284 181.885 94.1263 179.306 89.2656 176.221C89.1341 170.184 89.3629 164.142 89.5967 158.105Z" fill="#FDFDFD"/>
<path d="M107.375 158.245C113.008 157.882 118.648 157.948 124.278 158.267C124.259 168.064 124.312 177.858 124.237 187.655C118.438 187.49 112.674 186.542 107.109 184.879L106.469 184.056C106.316 175.448 106.844 166.829 107.375 158.245Z" fill="#FDFDFD"/>
<path d="M126.341 158.041C132.027 157.995 137.714 157.995 143.4 158.004C143.687 167.21 142.728 176.366 142.409 185.547C137.007 186.811 131.499 187.758 125.922 187.563C126.229 177.722 125.479 167.848 126.341 158.041Z" fill="#FDFDFD"/>
<path d="M164.83 158.055C169.822 157.999 174.814 158.077 179.816 157.901C175.562 164.247 170.416 170.012 164.257 174.573C164.642 169.074 164.476 163.553 164.83 158.055Z" fill="#FDFDFD"/>
<path d="M145.125 158.097C151.155 158.384 157.192 158.219 163.221 158.285C162.988 164.18 163.331 170.188 162.196 175.984C156.941 180.204 150.678 183.002 144.3 185.041C144.31 176.05 145.113 167.088 145.125 158.097Z" fill="#FDFDFD"/>
<path d="M76.5893 80.7117C78.5424 80.4025 80.5028 80.1054 82.4534 79.8424C79.3558 87.114 88.6047 94.0008 95.0702 90.158C99.9188 88.9988 100.934 83.6876 100.084 79.443C102.3 79.4868 104.517 79.5112 106.742 79.5647C107.734 84.2379 106.521 88.899 104.11 92.922C97.508 92.7345 90.8501 92.5592 84.3164 93.694C82.6093 93.8474 80.5807 94.6413 79.29 93.0657C75.8417 89.9802 75.5884 84.932 76.5893 80.7117Z" fill="#32BCF3"/>
<path d="M141.108 80.2079C143.171 80.0984 145.241 80.0204 147.301 79.9327C146.707 85.5216 151.168 91.2372 157.023 90.8987C162.519 91.2834 167.445 86.4129 166.639 80.8484C168.846 81.1552 171.05 81.4426 173.241 81.8055C172.615 86.2571 170.368 90.1803 167.258 93.3656C160.208 92.3647 153.044 92.484 145.967 93.234C142.365 89.8953 140.414 85.1344 141.108 80.2079Z" fill="#32BCF3"/>
<path d="M50.9066 85.8684L51.9441 85.4836C57.0678 85.0891 62.4667 85.2645 67.1399 87.6437C70.6345 89.2729 73.2985 92.1391 75.9335 94.8715C76.2427 95.4778 76.5399 96.0939 76.8054 96.7246C79.3185 103.161 77.7868 110.864 72.4414 115.393C72.0762 115.678 71.3602 116.253 70.9973 116.54C69.7748 117.256 68.4501 117.775 67.0401 118.072C70.0597 114.28 74.2923 110.895 74.7671 105.716C75.9799 97.8838 69.5093 90.7632 62.172 89.1194C54.4109 87.3563 45.2544 89.5261 40.3937 96.1621C36.4583 100.955 35.8106 108.682 39.9992 113.53C42.2664 116.034 45.0328 118.06 47.0711 120.792C39.9651 118.113 33.2317 111.636 33.7139 103.524C34.6514 96.6711 39.6558 90.6634 45.8584 87.7874C47.1028 87.2784 48.3594 86.8084 49.6184 86.353C49.9374 86.2313 50.5852 85.9902 50.9066 85.8684Z" fill="#CA5821"/>
<path d="M172.61 95.4127C178.086 89.7021 186.033 86.1442 194.023 87.301C195.157 87.8538 196.295 88.4577 197.524 88.7889C203.698 90.3669 209.693 94.5726 211.588 100.912C214.476 108.592 210.244 118.146 202.575 121.09C206.245 116.439 210.85 111.127 209.187 104.693C206.63 93.8469 193.36 88.8887 183.476 92.4344C176.842 94.4752 170.924 100.824 171.74 108.13C171.684 112.815 175.308 116.185 177.801 119.733C177.149 119.721 175.873 119.677 175.223 119.668C172.015 116.061 168.852 111.865 168.643 106.851C168.292 103.181 169.79 99.689 171.64 96.6133C171.881 96.3162 172.366 95.7098 172.61 95.4127Z" fill="#CA5821"/>
<path d="M62.4472 91.8832C64.2128 90.6582 65.6227 92.5432 65.0285 94.2308C63.4383 95.1221 59.5055 92.6746 62.4472 91.8832Z" fill="#CA5821"/>
<path d="M41.3125 96.9236C42.3256 95.4674 45.5231 96.7483 44.1569 98.4894C43.1536 99.9311 39.9683 98.6526 41.3125 96.9236Z" fill="#CA5821"/>
<path d="M182.767 97.2091C183.846 95.6335 186.758 97.343 185.424 98.9722C184.333 100.536 181.445 98.8407 182.767 97.2091Z" fill="#CA5821"/>
<path d="M52.6807 98.1873C54.3659 97.4153 55.8562 100.226 53.7058 100.601C52.0425 101.341 50.5766 98.5842 52.6807 98.1873Z" fill="#CA5821"/>
<path d="M202.229 100.434C202.443 99.9812 202.996 99.6184 203.458 99.6209C203.921 99.6257 204.903 100.585 205.095 100.997C205.285 101.413 205.209 102.426 204.657 102.297C204.104 102.166 202.012 100.885 202.229 100.434Z" fill="#CA5821"/>
<path d="M194.64 103.09C195.687 101.558 198.629 103.1 197.394 104.775C196.359 106.353 193.361 104.763 194.64 103.09Z" fill="#CA5821"/>
<path d="M148.357 139.995C165.824 135.19 180.886 124.183 193.221 111.179C193.618 126.881 189.186 142.676 180.986 156.053C170.089 156.231 159.188 155.768 148.291 156.163C148.257 150.776 148.245 145.387 148.357 139.995Z" fill="#5F2227"/>
<path d="M56.169 113.726C60.645 117.023 64.3562 121.241 68.9198 124.448C79.0674 132.319 90.871 137.937 103.325 141.047C102.794 145.939 102.356 150.843 102.068 155.76C91.0926 154.998 80.1048 154.966 69.117 154.876C66.3628 150.819 64.2029 146.38 62.637 141.731C59.5199 132.66 56.5976 123.369 56.169 113.726Z" fill="#5F2227"/>
<path d="M124.178 143.405C124.972 143.405 126.58 143.414 127.383 143.414C127.22 147.459 127.286 151.548 126.382 155.518L125.225 156.212L123.684 155.724C123.131 151.614 123.725 147.481 124.178 143.405Z" fill="#5F2227"/>
<path d="M152.679 192.912C158.037 191.48 161.926 187.248 166.952 185.131C162.666 191.59 155.789 196.56 148.228 198.335C140.13 198.545 131.863 194.191 123.851 197.23C119.058 199.29 113.801 201.34 108.545 199.765C101.634 197.373 95.9479 192.437 90.868 187.323C97.0827 189.717 101.919 194.894 108.558 196.316C115.035 198.026 120.834 193.35 127.18 193.046C135.686 192.043 144.307 195.338 152.679 192.912Z" fill="#EE959C"/>
<defs>
<filter id="filter0_d_1_2342" x="0.499847" y="-0.00012207" width="245" height="245" filterUnits="userSpaceOnUse" color-interpolation-filters="sRGB">
<feFlood flood-opacity="0" result="BackgroundImageFix"/>
<feColorMatrix in="SourceAlpha" type="matrix" values="0 0 0 0 0 0 0 0 0 0 0 0 0 0 0 0 0 0 127 0" result="hardAlpha"/>
<feOffset dy="1.5"/>
<feGaussianBlur stdDeviation="3.75"/>
<feComposite in2="hardAlpha" operator="out"/>
<feColorMatrix type="matrix" values="0 0 0 0 0 0 0 0 0 0 0 0 0 0 0 0 0 0 0.25 0"/>
<feBlend mode="normal" in2="BackgroundImageFix" result="effect1_dropShadow_1_2342"/>
<feBlend mode="normal" in="SourceGraphic" in2="effect1_dropShadow_1_2342" result="shape"/>
</filter>
</defs>
</svg>
