<svg width="246" height="245" viewBox="0 0 246 245" fill="none" xmlns="http://www.w3.org/2000/svg">
<g filter="url(#filter0_d_1_2355)">
<rect x="13" y="11" width="220" height="220" rx="15" fill="#F7E948" stroke="#FDFDFD" stroke-width="10"/>
</g>
<path d="M50.0303 37.1337C53.2605 35.6994 57.1818 36.8092 59.5004 39.3631C65.2721 47.1562 63.0427 59.2174 56.5303 65.9677C52.5867 70.159 45.2989 70.5603 40.8376 66.9883C37.216 63.6788 37.2259 58.234 37.9814 53.7578C39.3562 46.9085 43.3618 39.9502 50.0303 37.1337Z" fill="#9E9D06"/>
<path d="M194.864 157.429C197.98 155.584 201.929 156.476 204.123 159.282C209.112 165.302 209.64 175.252 204.146 181.128C199.977 185.119 191.849 186.154 188.24 180.881C183.117 173.251 186.59 161.368 194.864 157.432" fill="#9E9D06"/>
<path d="M84.7325 52.8219C86.7984 48.046 89.8454 42.0612 95.788 41.8804C101.808 42.4303 104.015 48.9452 105.325 53.9317C102.556 50.6569 100.472 45.8041 95.7757 45.1229C90.809 45.0412 87.9627 49.775 84.7325 52.8219Z" fill="black"/>
<path d="M63.9471 83.4882C60.9869 89.9015 58.5197 96.84 59.0374 104.011C59.4288 108.284 63.6671 111.131 67.7346 111.155C77.0735 112.107 84.8195 104.574 88.2033 96.5254C90.5813 90.5183 92.3054 83.2974 89.3229 77.2135C88.0026 74.0279 84.4157 73.3319 81.4555 72.559C76.2213 77.0996 70.2217 80.6097 63.9471 83.4882ZM139.433 73.4656C129.433 79.9458 122.224 92.8047 125.576 104.777C129.242 106.558 132.292 109.295 134.712 112.555C138.358 112.411 142.245 112.131 145.262 109.82C153.186 104.138 157.987 94.5858 158.636 84.9323C158.646 80.2827 157.009 75.2145 152.906 72.6135C148.829 69.8341 143.278 70.6763 139.433 73.4656ZM149.255 69.1058C152.805 70.5971 156.506 72.5714 158.242 76.2103C161.874 83.1736 159.892 91.4348 156.776 98.2049C152.738 106.58 145.138 114.485 135.217 114.517C136.998 118.498 136.248 122.724 135.554 126.848C151.214 140.066 179.652 134.114 187.321 114.628C191.258 105.079 190.056 94.0358 185.483 84.9323C175.798 83.119 167.896 76.6264 162.267 68.8259C157.952 68.2438 153.58 68.7244 149.255 69.1058ZM85.9739 68.2537C85.1217 69.1752 84.2572 70.0917 83.405 71.0132C90.076 72.6035 93.4251 79.6882 92.5878 86.1015C91.6564 95.3834 87.1059 104.618 79.2137 109.865C73.1249 113.969 64.0808 114.259 58.812 108.621C60.1248 113.566 61.3782 118.733 64.5738 122.857C68.2177 127.856 74.0439 130.995 80.1005 131.983C89.697 133.264 99.8261 131.265 107.832 125.681C107.495 119.754 108.652 113.271 113.034 108.933C115.308 106.446 118.628 105.436 121.709 104.351C122.393 94.7443 120.698 84.1718 113.795 76.9633C106.98 69.2297 95.8379 66.9755 85.9739 68.2537ZM59.9762 81.7863C74.3585 74.8577 87.8788 64.9616 96.3184 51.1465C95.0749 56.6854 92.1271 61.6174 88.5971 65.9797C97.9459 65.6329 108.112 67.7409 114.805 74.7339C119.804 79.4628 122.17 86.1907 123.347 92.8171C125.286 85.5392 129.051 78.5884 135.096 73.9264C142.2 68.0853 151.638 65.7766 160.719 66.2125C159.609 63.0988 158.713 59.9132 158.108 56.6508C158.401 56.0909 158.983 54.9687 159.273 54.399C161.393 64.5553 168.465 73.1634 177.098 78.6453C182.545 82.1678 188.971 83.5996 195.28 84.697L195.751 83.2751C195.865 83.6244 196.098 84.3304 196.222 84.6747C193.499 85.4277 190.661 85.4377 187.856 85.5045C190.505 91.2689 192.107 97.5707 191.795 103.935C191.649 114.685 185.753 125.325 176.348 130.683C163.67 138.005 146.439 138.295 134.635 129.023C133.414 130.311 132.17 131.582 130.912 132.85C132.393 129.035 133.961 125 133.255 120.826C132.549 115.416 129.242 109.506 123.54 108.25C118.615 107.747 113.998 111.544 112.596 116.144C110.309 123.519 112.529 132.377 118.571 137.341C121.092 139.506 124.469 140.009 127.575 140.874C123.617 140.762 119.334 141.055 115.925 138.657C111.811 136.38 109.571 132.085 107.988 127.846C99.7839 133.195 89.6376 135.885 79.8974 134.114C71.4008 132.825 63.5309 127.319 59.9663 119.414C54.8411 108.554 56.2555 95.6608 61.1751 85.0017C56.5478 86.27 51.6257 87.0429 47.1198 84.9224C51.5589 84.6103 55.988 83.8473 59.9762 81.7863Z" fill="black"/>
<path d="M150.677 48.1033C152.203 44.125 157.437 41.8361 161.25 44.0234C164.881 45.3759 166.439 49.1437 167.988 52.3863C164.904 49.4013 161.18 44.6724 156.318 46.8697C152.124 48.6656 152.089 53.7066 151.799 57.5635C150.858 54.5389 149.154 51.2319 150.677 48.1033Z" fill="black"/>
<path d="M207.016 44.9544C212.25 43.5425 214.829 50.5602 214.17 54.7293C214.056 60.2806 205.718 61.5217 202.879 57.4195C200.256 53.139 202.33 46.7925 207.016 44.9544Z" fill="#9E9D06"/>
<path d="M65.7715 172.912C67.8473 171.936 70.5152 171.433 72.4325 173.058C79.5939 178.842 81.2536 190.255 76.5792 198.055C73.0146 203.82 63.8343 203.066 60.5273 197.451C55.7266 189.784 57.4458 177.406 65.7715 172.912Z" fill="#9E9D06"/>
<path d="M85.964 68.2214C95.828 66.9431 106.97 69.1998 113.785 76.9335C120.691 84.142 122.383 94.712 121.702 104.318C118.62 105.406 115.301 106.414 113.027 108.904C108.642 113.241 107.485 119.721 107.822 125.652C99.8187 131.233 89.6872 133.232 80.0907 131.953C74.0366 130.963 68.2078 127.826 64.5639 122.825C61.3684 118.701 60.115 113.533 58.8021 108.589C64.071 114.227 73.115 113.937 79.2039 109.835C87.0961 104.588 91.6465 95.3511 92.5779 86.0692C93.4177 79.6559 90.0661 72.5737 83.3977 70.9809C84.2498 70.0594 85.1119 69.1429 85.964 68.2214Z" fill="#FDFDFD"/>
<path d="M149.259 69.1348C153.584 68.7533 157.958 68.2703 162.274 68.8549C167.899 76.6555 175.804 83.1456 185.487 84.9613C190.062 94.0624 191.261 105.105 187.325 114.657C179.656 134.143 151.218 140.095 135.56 126.877C136.254 122.753 137.004 118.524 135.223 114.546C145.144 114.511 152.742 106.609 156.779 98.2339C159.898 91.4638 161.88 83.2025 158.248 76.2393C156.512 72.5979 152.811 70.6261 149.259 69.1348Z" fill="#FDFDFD"/>
<path d="M137.61 80.9134C132.903 83.4574 130.112 88.7164 129.235 93.8491C128.665 96.787 130.456 100.634 133.887 100.384C140.233 100.788 143.506 93.5691 144.377 88.2804C145.41 84.3319 142.227 78.5824 137.61 80.9134ZM139.423 73.4349C143.27 70.6456 148.819 69.8059 152.899 72.5852C157.001 75.1838 158.636 80.252 158.626 84.9016C157.98 94.5575 153.179 104.107 145.254 109.789C142.237 112.101 138.351 112.381 134.704 112.527C132.284 109.264 129.235 106.527 125.569 104.746C122.217 92.774 129.423 79.9176 139.423 73.4349Z" fill="#32BCF3"/>
<path d="M63.8983 96.1879C63.9082 99.4825 67.8121 102.564 70.8144 100.449C76.274 96.8815 78.1716 89.9331 77.2278 83.7353C75.8381 83.2176 74.4459 82.6899 73.0686 82.1772C67.6982 84.6518 63.71 90.1784 63.8983 96.1879ZM63.9553 83.4975C70.2323 80.6191 76.232 77.1089 81.4662 72.5683C84.4239 73.3412 88.0108 74.0373 89.3335 77.2229C92.316 83.3067 90.5895 90.5277 88.2114 96.5347C84.8276 104.583 77.0816 112.116 67.7453 111.165C63.6753 111.14 59.437 108.294 59.0456 104.021C58.5278 96.8493 60.9951 89.9108 63.9553 83.4975Z" fill="#32BCF3"/>
<path d="M35.3643 79.4979C38.3344 77.1224 41.146 80.8777 41.0122 83.771C41.1931 87.0334 39.5011 92.3915 35.285 91.4254C30.083 89.8574 31.7898 81.9974 35.3643 79.4979Z" fill="#9E9D06"/>
<path d="M137.625 80.9783C142.242 78.6474 145.426 84.3968 144.393 88.3454C143.521 93.6341 140.248 100.853 133.902 100.449C130.471 100.699 128.68 96.8519 129.25 93.914C130.127 88.7814 132.918 83.5224 137.625 80.9783Z" fill="black"/>
<path d="M63.89 96.1442C63.7017 90.1346 67.6899 84.6081 73.0604 82.1334C74.4377 82.6462 75.8299 83.1738 77.2196 83.6915C78.1633 89.8893 76.2658 96.8377 70.8062 100.405C67.8039 102.52 63.8999 99.4388 63.89 96.1442Z" fill="black"/>
<path d="M49.5002 122.376C46.0694 119.505 53.092 116.277 54.2414 117.454C55.3933 118.628 52.9979 123.743 49.5002 122.376Z" fill="#CA5821"/>
<path d="M197.247 118.082C198.758 116.849 202.023 116.732 202.481 118.028C202.939 119.319 199.343 123.237 196.147 122.712C194.064 121.122 195.775 119.294 197.247 118.082Z" fill="#CA5821"/>
<path d="M41.0342 123.371C42.8054 122.868 44.5443 123.319 44.7351 125.412C43.9622 127.597 41.6386 128.474 39.5008 127.947C37.9773 126.433 38.9162 123.651 41.0342 123.371Z" fill="#CA5821"/>
<path d="M206.788 123.801C208.185 121.963 211.594 120.838 213.189 122.176C214.78 123.518 213.7 126.555 211.861 127.509C210.561 127.9 208.27 129.308 206.912 128.064C205.555 126.818 205.394 125.636 206.788 123.801Z" fill="#CA5821"/>
<path d="M198.219 128.068C199.373 126.948 201.02 126.673 202.016 127.743C203.017 128.814 197.542 134.031 196.21 132.274C194.879 130.513 196.727 128.965 198.219 128.068Z" fill="#CA5821"/>
<path d="M49.1634 129.207C50.1815 128.996 52.4035 128.806 52.5051 130.24C53.657 133.302 48.5566 135.477 46.8771 132.843C46.1687 131.147 47.6697 129.702 49.1634 129.207Z" fill="#CA5821"/>
<path d="M153.49 163.49C154.367 166.014 157.379 164.847 159.341 165.261C158.838 162.157 158.209 159.073 157.614 155.991C155.888 158.246 153.4 160.373 153.49 163.49ZM156.72 154.364C157.773 153.534 158.848 152.739 159.945 151.978C161.372 156.37 161.909 161.067 161.852 165.677C161.159 169.115 156.497 170.034 154.32 169.061C152.142 168.087 150.745 165.843 151.06 163.455C151.572 159.779 154.198 156.888 156.72 154.364Z" fill="black"/>
<path d="M49.15 155.899C51.3695 153.871 55.3602 155.015 56.4031 157.76C57.5574 160.819 56.2321 164.768 53.2398 166.259C47.8272 167.255 44.9587 158.983 49.15 155.899Z" fill="#9E9D06"/>
<path d="M153.484 163.462C153.395 160.346 155.882 158.218 157.608 155.964C158.203 159.045 158.832 162.13 159.335 165.233C157.373 164.82 154.361 165.986 153.484 163.462Z" fill="#5F2227"/>
<path d="M143.434 177.662C143.345 176.44 143.243 175.219 143.144 173.998C146.149 177.573 150.34 180.129 155.139 180.015C160.001 180.463 164.026 177.372 167.68 174.602C165.676 177.709 163.734 181.509 159.667 182.123C153.793 184.018 147.705 181.821 143.434 177.662Z" fill="#EE959C"/>
<path d="M175.572 202.447C172.936 200.185 174.719 194.151 178.832 193.041C182.926 191.661 185.012 197.356 183.129 200.336C181.826 203.277 178.207 204.706 175.572 202.447Z" fill="#9E9D06"/>
<defs>
<filter id="filter0_d_1_2355" x="0.499847" y="-0.000144958" width="245" height="245" filterUnits="userSpaceOnUse" color-interpolation-filters="sRGB">
<feFlood flood-opacity="0" result="BackgroundImageFix"/>
<feColorMatrix in="SourceAlpha" type="matrix" values="0 0 0 0 0 0 0 0 0 0 0 0 0 0 0 0 0 0 127 0" result="hardAlpha"/>
<feOffset dy="1.5"/>
<feGaussianBlur stdDeviation="3.75"/>
<feComposite in2="hardAlpha" operator="out"/>
<feColorMatrix type="matrix" values="0 0 0 0 0 0 0 0 0 0 0 0 0 0 0 0 0 0 0.25 0"/>
<feBlend mode="normal" in2="BackgroundImageFix" result="effect1_dropShadow_1_2355"/>
<feBlend mode="normal" in="SourceGraphic" in2="effect1_dropShadow_1_2355" result="shape"/>
</filter>
</defs>
</svg>
