<svg width="246" height="245" viewBox="0 0 246 245" fill="none" xmlns="http://www.w3.org/2000/svg">
<g filter="url(#filter0_d_1_2346)">
<rect x="13" y="11" width="220" height="220" rx="15" fill="#F7E948" stroke="#FDFDFD" stroke-width="10"/>
</g>
<path d="M63.0373 38.3138C73.0869 31.8603 85.6603 28.2286 97.4722 31.4426C100.561 32.4919 104.539 32.8714 106.302 35.9963C96.9323 32.0539 86.3505 32.3314 76.66 34.8426C71.243 36.3299 66.3329 39.1415 61.0203 40.9396C61.3438 39.7884 62.0135 38.9123 63.0373 38.3138Z" fill="black"/>
<path d="M141.484 37.167C150.047 30.8535 161.342 29.2388 171.702 30.3925C175.922 31.3705 180.531 32.3739 183.621 35.6695C170.031 30.311 154.817 31.8417 141.484 37.167Z" fill="black"/>
<path d="M200.897 43.4688C199.812 38.8591 205.902 33.8853 209.091 35.7928C212.279 37.7003 210.28 43.7693 207.073 46.2601C204.942 48.4834 200.551 46.6268 200.897 43.4688Z" fill="#9E9D06"/>
<path d="M35.0272 38.0102C38.5061 35.2418 42.9324 38.7462 43.8798 42.3423C45.3646 48.0267 42.0793 57.4854 34.7267 55.6542C27.7639 52.3918 29.274 41.7769 35.0272 38.0102Z" fill="#9E9D06"/>
<path d="M84.7077 77.1658C81.3994 79.7355 81.053 84.1262 81.3204 87.9871C82.4257 87.8852 84.6389 87.6865 85.7314 87.5949C85.1355 81.8315 92.0373 76.6921 97.1767 79.817C100.118 81.177 100.141 84.7501 101.027 87.4217C102.214 87.4217 104.603 87.4344 105.785 87.4344C106.419 82.4427 103.885 77.9019 99.8049 75.1717C99.0791 74.8941 97.6376 74.344 96.9118 74.0639C92.6485 73.7302 87.8097 73.7073 84.7077 77.1658ZM82.1838 38.8573C83.5921 38.8802 84.9828 38.9031 86.3911 38.9388C86.3784 41.944 86.3097 44.9441 86.2638 47.9493C92.1647 48.5019 98.0222 49.7473 103.391 52.3043C104.529 49.6913 105.627 47.0401 106.699 44.3889C108.426 45.0459 110.132 45.8074 111.826 46.5765C110.652 49.5283 109.452 52.4571 108.357 55.4292C116.252 61.0652 121.048 70.0909 123.006 79.4478C124.837 70.5162 129.816 62.2978 137.146 56.8146C135.74 54.0921 134.416 51.3263 133.157 48.5274C134.655 47.6844 136.234 46.9713 137.953 46.7625C138.921 49.2863 140.072 51.7414 141.376 54.1048C146.368 51.5122 151.736 49.6556 157.347 49.0444C157.257 46.0723 157.186 43.0977 157.11 40.1256H161.844C161.995 43.1461 162.129 46.1513 162.201 49.1717C167.147 50.0937 172.342 50.5572 176.781 53.16C178.498 50.7635 179.972 48.1912 181.342 45.5782C182.817 46.1283 185.101 46.2098 185.529 48.0995C184.432 50.7966 182.611 53.1141 181.185 55.6151C191.349 62.6442 196.995 74.7795 197.191 86.9964C196.661 86.9505 195.589 86.8461 195.059 86.8003C194.412 78.6633 192.281 70.3532 186.818 64.0601C178.347 53.0555 162.756 49.0571 149.663 52.9409C140.996 55.1312 133.736 61.3657 129.08 68.8685C126.037 73.7175 125.184 79.4834 124.157 85.0023C127.766 85.4887 131.235 86.7188 134.161 88.9217C136.374 88.5168 138.564 88.0558 140.777 87.6662C140.133 81.559 143.485 75.0444 149.48 73.0528C154.397 71.6928 160.334 72.0367 164.035 75.946L163.492 77.1404C158.065 71.1504 146.413 72.7523 143.416 80.497C142.265 82.8375 142.54 85.4759 143.406 87.847C144.845 87.4344 146.273 87.0193 147.702 86.5813C147.531 81.9945 152.037 77.5122 156.692 79.2516C160.403 80.0819 162.165 83.7569 162.58 87.2281C163.642 87.3427 165.751 87.5719 166.81 87.6764C167.758 83.3876 165.061 79.8833 164.035 75.946C167.424 78.8493 168.771 83.2628 168.216 87.6178C172.319 88.0788 176.572 88.2417 180.423 89.9226C179.593 90.3505 178.785 90.7885 177.965 91.2266C170.88 88.4379 163.057 89.3343 155.597 89.1153C148.787 88.8759 141.974 89.1866 135.256 90.3021C139.061 97.1147 138.297 105.137 136.109 112.327C145.201 120.313 158.078 123.242 169.691 119.725C170.04 120.244 170.73 121.294 171.076 121.813C158.86 125.374 144.893 122.689 135.338 114.135C133.226 119.6 130.888 125.038 127.246 129.675C130.748 118.92 136.57 107.926 134.197 96.287C133.687 92.4236 130.725 89.2325 126.91 88.471C122.555 86.9837 118.014 89.7061 115.778 93.3811C112.378 98.9713 112.585 106.013 114.385 112.095C115.814 117.377 118.58 122.307 119.155 127.816C115.962 122.814 114.108 117.158 111.836 111.731C103.116 119.402 91.1154 123.958 79.4868 121.467C79.1074 121.133 78.3229 120.464 77.9435 120.13C78.4146 120.036 79.3696 119.865 79.8433 119.773C91.2324 121.271 103.032 117.502 111.018 109.161C108.851 102.567 110.489 95.4466 114.777 90.0958C100.854 88.6212 86.7706 88.8173 72.9416 91.0406C72.3864 90.6153 71.8209 90.213 71.2479 89.8208C74.0137 89.0491 76.8713 88.6798 79.7186 88.3335C78.5522 80.8077 84.4428 72.7268 92.269 72.6683C100.337 71.9119 107.71 79.4478 107.114 87.4701C111.884 88.1603 116.919 89.2554 121.081 86.0261C120.803 76.4069 117.553 66.4821 110.214 59.9344C97.5587 47.3635 75.3025 47.282 62.2579 59.29C55.0429 65.3997 51.0546 74.5961 50.3543 83.9173C49.7303 84.936 49.6488 86.0388 50.1098 87.2485L48.8314 87.7579C47.5886 76.058 52.8629 64.3505 61.7715 56.8452C60.1136 53.8833 58.3384 50.9952 56.874 47.9365C58.2034 47.1776 59.5353 46.4059 60.8749 45.6444C62.5711 48.3313 64.1119 51.1174 65.668 53.8832C70.5221 51.1888 75.7991 49.2634 81.2849 48.3058C81.5268 45.1504 81.8145 42.0026 82.1838 38.8573Z" fill="black"/>
<path d="M62.2705 59.3315C75.3151 47.3209 97.5714 47.4024 110.226 59.9758C117.569 66.521 120.816 76.4483 121.096 86.0675C116.935 89.2968 111.897 88.2016 107.127 87.5089C107.725 79.4866 100.35 71.9507 92.2817 72.7097C84.4554 72.7657 78.5648 80.8466 79.7312 88.3723C76.8839 88.7187 74.0263 89.0905 71.2605 89.8596C64.886 86.806 57.7754 86.3782 50.838 86.7373C50.7234 86.0445 50.4815 84.6489 50.3669 83.9587C51.0698 74.6376 55.0555 65.4386 62.2705 59.3315Z" fill="#FDFDFD"/>
<path d="M149.679 53.0081C162.771 49.1242 178.363 53.1227 186.833 64.1273C192.296 70.4204 194.428 78.7305 195.075 86.8674C190.06 86.9489 184.956 87.7333 180.438 89.9898C176.588 88.3064 172.335 88.1459 168.232 87.6849C168.787 83.3274 167.44 78.9164 164.052 76.0105C160.349 72.1038 154.413 71.7574 149.495 73.1174C143.5 75.1115 140.148 81.6236 140.793 87.7333C138.582 88.123 136.389 88.5839 134.176 88.9889C131.25 86.7859 127.781 85.5533 124.173 85.0694C125.199 79.5506 126.052 73.7846 129.095 68.9356C133.751 61.4328 141.012 55.1957 149.679 53.0081Z" fill="#FDFDFD"/>
<path d="M34.7718 72.7897C30.9007 72.8406 29.3165 62.7248 33.6765 61.943C38.0391 61.1662 38.6428 72.7413 34.7718 72.7897Z" fill="#9E9D06"/>
<path d="M84.7105 77.2377C87.8125 73.7792 92.6514 73.8021 96.9147 74.1358C97.6405 74.4159 99.0819 74.966 99.8078 75.2436C103.888 77.9738 106.422 82.5147 105.788 87.5063C104.603 87.5063 102.217 87.4936 101.03 87.4936C100.144 84.8221 100.124 81.2489 97.1795 79.8889C92.0401 76.764 85.1383 81.9034 85.7343 87.6668C84.6417 87.7585 82.4286 87.9571 81.3233 88.059C81.0559 84.1981 81.4023 79.8074 84.7105 77.2377Z" fill="#32BCF3"/>
<path d="M143.427 80.5784C146.425 72.8337 158.076 71.2318 163.503 77.2243L164.048 76.0273C165.072 79.9672 167.772 83.4716 166.824 87.7578C165.765 87.6534 163.654 87.4242 162.592 87.3121C162.177 83.8383 160.414 80.1633 156.704 79.3356C152.048 77.5936 147.543 82.0785 147.716 86.6652C146.285 87.1033 144.858 87.5184 143.417 87.931C142.551 85.5574 142.276 82.9189 143.427 80.5784Z" fill="#32BCF3"/>
<path d="M50.1282 87.2606C49.6647 86.0509 49.7488 84.9482 50.3727 83.9294C50.4848 84.6222 50.7267 86.0178 50.8387 86.708C57.7812 86.3514 64.8917 86.7793 71.2638 89.8329C71.8393 90.2251 72.4022 90.6274 72.9599 91.0527C77.1086 94.524 80.9084 98.879 82.0061 104.332C83.305 109.586 81.3694 114.806 79.8591 119.785C79.3854 119.877 78.4305 120.05 77.9593 120.142C78.3388 120.476 79.1232 121.145 79.5027 121.479L78.1987 121.319C76.5407 122.722 74.9846 124.245 73.3242 125.663C69.8198 128.167 65.7984 129.835 61.6854 131.012C61.0971 131.103 59.9103 131.299 59.322 131.394C54.0553 131.956 47.9252 132.165 43.9038 128.108C51.3455 130.102 59.6454 130.956 66.7 127.171C73.7851 124.023 79.3982 116.89 79.3982 108.954C79.9178 101.831 75.2266 95.1785 69.1525 91.8601C62.5029 88.506 54.4221 87.6528 47.3828 90.3269C43.4989 91.6742 40.1677 94.1547 36.6404 96.2074C39.0497 91.4781 44.1917 89.5094 48.8472 87.77L50.1256 87.2606H50.1282Z" fill="#CA5821"/>
<path d="M180.433 89.92C184.948 87.6636 190.055 86.8817 195.069 86.7977C195.599 86.8435 196.671 86.9479 197.201 86.9963C201.479 87.307 206.122 88.2391 208.875 91.8581C204.912 91.1399 201.339 88.8606 197.201 88.9523C186.713 87.9718 175.039 93.5645 171.42 103.889C169.148 109.4 170.727 115.747 174.267 120.346C179.073 127.215 187.831 130.503 196.024 130.022C199.681 129.833 203.089 128.394 206.603 127.467C205.959 128.728 205.037 129.879 203.619 130.248C197.04 132.566 189.443 133.233 182.944 130.307C179.361 129.016 176.029 127.055 173.256 124.426C172.492 123.571 171.766 122.71 171.089 121.811C170.74 121.291 170.05 120.242 169.701 119.725C167.48 115.113 166.163 109.782 167.648 104.73C169.044 99.0018 173.264 94.5195 177.975 91.224C178.795 90.7859 179.603 90.3479 180.435 89.92" fill="#CA5821"/>
<path d="M53.8652 92.2901C54.8839 91.8037 57.2702 94.2536 56.6768 95.1017C56.0834 95.9472 54.6165 95.8173 53.7047 94.7069C52.7879 93.6016 52.8439 92.774 53.8652 92.2901Z" fill="#CA5821"/>
<path d="M177.101 98.3089C178.115 97.3156 181.066 97.3284 180.641 99.241C179.752 100.718 175.833 100.165 177.101 98.3089Z" fill="#CA5821"/>
<path d="M82.3784 95.862C87.3217 91.53 95.4229 91.0563 100.229 95.8518C94.3151 94.5734 88.3124 95.1031 82.3784 95.862Z" fill="black"/>
<path d="M147.428 95.1751C152.048 93.9654 157.559 92.3074 161.753 95.5546C156.749 95.5215 151.795 96.2142 146.862 96.9375C147 96.502 147.288 95.6132 147.428 95.1751Z" fill="black"/>
<path d="M198.825 93.3295C199.966 91.8447 203.101 93.4212 201.774 95.1759C200.633 96.6633 197.534 95.0486 198.825 93.3295Z" fill="#CA5821"/>
<path d="M72.7793 101.244C73.388 100.469 75.652 102.046 74.7403 102.993C73.8209 103.946 72.1681 102.02 72.7793 101.244Z" fill="#CA5821"/>
<path d="M60.1579 103.127C60.9092 102.48 62.9186 104.168 62.0145 105.065C61.1053 105.954 59.4041 103.776 60.1579 103.127Z" fill="#CA5821"/>
<path d="M188.397 103.74C189.884 102.049 192.695 104.641 190.946 106.172C189.446 107.751 186.703 105.308 188.397 103.74Z" fill="#CA5821"/>
<path d="M171.61 126.705C172.152 125.956 172.705 125.22 173.258 124.494C176.034 127.12 179.367 129.084 182.951 130.372C179.989 133.034 180.75 137.531 179.563 141.023C175.713 155.738 167.392 169.661 155.211 178.952C153.214 180.979 150.553 179.515 148.317 178.868C139.859 175.906 130.395 176.174 121.948 179.077C119.286 180.159 116.508 179.031 113.872 178.466C106.321 176.334 98.2322 176.854 90.7982 179.191C87.7421 180.636 85.2438 177.798 83.1223 176.023C70.9742 164.222 63.1251 147.963 61.6861 131.065C65.7992 129.888 69.8205 128.22 73.3249 125.714L74.1907 126.545C81.2656 134.625 92.5377 136.459 102.218 139.836C102.159 144.838 102.103 149.827 102.012 154.829C108.452 155.947 115.125 155.634 121.512 154.378C123.886 150.668 122.236 145.75 122.595 141.53C123.229 141.703 124.497 142.037 125.141 142.21C125.753 146.506 123.873 151.809 126.501 155.489C132.552 156.225 138.693 155.542 144.708 154.702C145.093 149.84 145.172 144.94 144.91 140.065C152.733 137.934 160.753 135.756 167.655 131.33C169.491 130.293 170.708 128.562 171.61 126.705Z" fill="#5F2227"/>
<path d="M127.001 141.852C127.093 145.715 127.184 149.574 127.256 153.445C132.892 153.055 138.548 153.343 144.171 152.65C143.448 148.664 143.125 144.63 143.066 140.583C137.695 140.815 132.359 141.482 127.001 141.852ZM104.215 153.284C109.678 153.159 115.118 152.627 120.581 152.388C120.626 148.835 120.476 145.3 120.306 141.747C115.062 140.988 109.701 141.23 104.561 139.86C104.411 144.332 102.937 148.894 104.215 153.284ZM74.1835 126.543C86.9759 134.937 102.59 137.438 117.563 138.602C136.037 139.478 156.23 138.164 171.603 126.706C170.701 128.563 169.484 130.294 167.648 131.331C160.746 135.755 152.726 137.935 144.9 140.066C145.165 144.941 145.086 149.841 144.701 154.703C138.686 155.543 132.545 156.226 126.494 155.487C123.866 151.81 125.745 146.507 125.134 142.211C124.49 142.035 123.222 141.702 122.587 141.531C122.228 145.748 123.876 150.669 121.505 154.379C115.118 155.635 108.445 155.948 102.004 154.83C102.096 149.828 102.152 144.839 102.211 139.837C92.5304 136.46 81.2584 134.627 74.1835 126.543Z" fill="black"/>
<path d="M90.849 181.676C93.9815 185.18 98.6496 186.599 102.893 188.282C115.502 192.981 129.827 192.128 142.075 186.737C144.935 185.341 148.335 184.419 150.26 181.702C140.985 178.093 130.736 178.08 121.171 180.456C123.175 181.872 125.172 183.337 126.909 185.089C122.024 183.128 117.31 180.489 111.997 179.868C104.92 178.564 97.6718 179.672 90.849 181.676ZM59.3045 131.405C59.8928 131.314 61.0797 131.115 61.668 131.023C63.107 147.921 70.9561 164.182 83.1042 175.984C85.2257 177.757 87.724 180.594 90.7801 179.152C98.2141 176.814 106.303 176.295 113.854 178.426C116.49 178.989 119.268 180.12 121.93 179.038C130.377 176.132 139.841 175.867 148.302 178.829C150.538 179.476 153.196 180.938 155.193 178.91C167.374 169.622 175.695 155.699 179.545 140.981C180.732 137.49 179.971 132.995 182.933 130.333C181.723 157.877 162.268 184.383 135.568 192.304C130.887 193.845 125.941 193.883 121.089 194.364C114.004 193.916 106.753 193.674 100.173 190.689C87.0338 185.779 77.2593 174.912 70.2073 163.156C64.3853 153.476 60.8377 142.563 59.3045 131.405Z" fill="#0D0000"/>
<path d="M104.228 153.284C102.95 148.891 104.424 144.329 104.577 139.86C109.714 141.23 115.075 140.988 120.319 141.747C120.492 145.297 120.64 148.835 120.596 152.385C115.131 152.627 109.693 153.159 104.228 153.284Z" fill="#FDFDFD"/>
<path d="M126.99 141.845C132.348 141.476 137.683 140.809 143.055 140.577C143.113 144.624 143.437 148.658 144.16 152.644C138.537 153.336 132.88 153.048 127.244 153.438C127.173 149.567 127.081 145.709 126.99 141.845Z" fill="#FDFDFD"/>
<path d="M194.031 152.152C197.42 151.034 202.063 152.178 203.24 155.921C205.511 162.286 202.651 169.878 197.316 173.82C194.087 175.916 189.169 177.482 186.067 174.362C183.752 172.506 183.474 169.404 183.579 166.661C183.36 160.21 188.12 154.299 194.031 152.152Z" fill="#9E9D06"/>
<path d="M59.2208 172.864C64.5792 170.164 70.0778 175.385 71.1703 180.456C73.4064 186.346 70.7679 195.624 63.4383 195.797C57.2955 194.333 53.9185 187.429 54.5042 181.472C54.6214 178.118 55.8311 174.234 59.2208 172.864Z" fill="#9E9D06"/>
<path d="M50.9554 160.926C57.0957 158.344 58.4124 169.952 53.0514 170.848C48.755 170.377 47.3721 163.103 50.9554 160.926Z" fill="#9E9D06"/>
<path d="M90.855 181.652C97.6778 179.648 104.926 178.54 112.003 179.844C117.316 180.465 122.03 183.104 126.915 185.065C125.178 183.313 123.181 181.848 121.177 180.432C130.742 178.056 140.991 178.069 150.266 181.678C148.341 184.395 144.941 185.317 142.081 186.713C129.833 192.104 115.508 192.957 102.899 188.259C98.6557 186.575 93.9876 185.157 90.855 181.652Z" fill="#EE959C"/>
<path d="M179.247 188.154C171.81 183.817 178.272 177.725 181.98 179.671C185.683 181.617 186.684 192.489 179.247 188.154Z" fill="#9E9D06"/>
<path d="M86.3734 191.283C91.4211 193.944 96.1938 197.505 101.99 198.289C108.813 199.662 115.417 196.619 122.204 196.642C130.02 196.341 137.51 200.064 145.334 198.809C150.096 198.254 153.506 194.36 158.07 193.242C154.138 199.914 145.716 202.104 138.432 201.771C132.185 201.62 126.355 198.106 120.039 199.257C113.158 200.192 106.152 203.592 99.2244 200.963C94.1997 199.038 89.3124 195.903 86.3734 191.283Z" fill="#EE959C"/>
<defs>
<filter id="filter0_d_1_2346" x="0.499863" y="-0.000152588" width="245" height="245" filterUnits="userSpaceOnUse" color-interpolation-filters="sRGB">
<feFlood flood-opacity="0" result="BackgroundImageFix"/>
<feColorMatrix in="SourceAlpha" type="matrix" values="0 0 0 0 0 0 0 0 0 0 0 0 0 0 0 0 0 0 127 0" result="hardAlpha"/>
<feOffset dy="1.5"/>
<feGaussianBlur stdDeviation="3.75"/>
<feComposite in2="hardAlpha" operator="out"/>
<feColorMatrix type="matrix" values="0 0 0 0 0 0 0 0 0 0 0 0 0 0 0 0 0 0 0.25 0"/>
<feBlend mode="normal" in2="BackgroundImageFix" result="effect1_dropShadow_1_2346"/>
<feBlend mode="normal" in="SourceGraphic" in2="effect1_dropShadow_1_2346" result="shape"/>
</filter>
</defs>
</svg>
