<svg width="246" height="245" viewBox="0 0 246 245" fill="none" xmlns="http://www.w3.org/2000/svg">
<g filter="url(#filter0_d_1_2352)">
<rect x="13" y="11" width="220" height="220" rx="15" fill="#F7E948" stroke="#FDFDFD" stroke-width="10"/>
</g>
<path d="M43.9608 41.0923C47.3888 39.3619 52.7252 40.4124 53.6068 44.6258C55.4943 52.6564 43.8225 59.5005 37.67 54.089C34.2327 49.1041 39.1964 42.9399 43.9608 41.0923Z" fill="#9E9D06"/>
<path d="M191.558 171.799C195.221 169.794 200.684 170.844 202.053 175.152C204.398 182.983 197.235 192.247 189.15 192.223C184.503 192.275 182.454 186.896 183.326 182.983C184.215 178.312 187.188 173.857 191.558 171.799Z" fill="#9E9D06"/>
<path d="M203.156 42.2951C205.097 41.5846 207.264 42.1989 208.865 43.4111C212.047 49.2142 202.434 55.1135 198.499 50.1357C196.832 46.7101 199.899 43.1227 203.156 42.2951Z" fill="#9E9D06"/>
<path d="M135.892 65.2002C129.939 70.0279 126.703 77.2121 124.764 84.4572C128.073 86.3892 131.775 88.2251 133.538 91.8454C137.24 98.6989 135.182 106.795 133.336 113.881C144.943 127.196 166.983 128.334 180.392 117.128C192.66 107.599 196.894 89.0856 189.422 75.3762C181.243 72.0655 173.22 68.0326 166.685 61.9763C164.458 60.2459 162.833 57.6339 160.244 56.4686C151.449 56.3302 142.556 59.4065 135.892 65.2002ZM83.7415 57.6339C76.1752 64.5953 66.998 69.4887 57.2488 72.6071C49.5464 83.7374 51.1478 99.5571 58.9135 110.275C64.8221 119.208 75.5397 123.972 85.9806 124.683C96.4849 125.023 106.131 119.696 113.346 112.406C112.68 106.134 109.822 99.6837 112.358 93.4866C113.568 89.6155 117.06 87.3341 120.166 85.1067C120.71 81.4771 118.577 77.7209 117.111 74.4102C112.487 65.3175 103.711 58.3772 93.5353 56.8062C90.309 56.5624 86.2691 54.7382 83.7415 57.6339ZM81.6945 56.6163C85.4203 53.5494 87.8494 49.2844 91.3829 46.0488C91.0757 48.9562 89.7791 51.5869 88.1777 53.9856C96.3583 54.4099 104.59 57.1579 110.649 62.8251C116.774 68.2038 120.57 75.6623 122.811 83.3974C125.229 75.3012 129.463 67.5871 136.307 62.4218C142.706 57.2423 150.926 54.6866 159.119 54.6655C158.303 53.05 157.496 51.4275 156.88 49.7299C160.085 52.0863 162.282 55.4908 165.356 57.995C171.663 63.2377 178.42 68.0654 185.846 71.5778C191.236 74.1241 197.201 74.8346 202.887 76.3938C199.459 76.5017 196.034 76.3938 192.606 76.225C200.521 94.2205 190.685 117.107 172.486 124.216C159.215 130.338 143.161 126.029 132.797 116.312C130.727 121.339 129.018 126.552 126.354 131.314C126.366 126.54 128.964 122.413 130.26 117.956C132.063 111.888 133.855 105.499 132.816 99.1209C131.937 94.7504 129.622 89.9227 125.121 88.3635C120.942 87.5569 116.38 90.2533 115.371 94.4855C111.894 105.339 118.609 116.024 117.601 126.976C116.169 122.91 115.395 118.636 113.824 114.603C107.775 120.833 99.7206 125.131 91.0639 126.158C73.7906 128.683 55.38 116.629 51.4972 99.4726C49.4808 90.952 50.2475 81.721 54.3296 73.9014C51.7622 74.0819 49.1854 74.3047 46.6179 74.0397C48.7821 72.511 51.4152 72.0655 53.8841 71.28C63.964 68.2132 73.5889 63.3972 81.6945 56.6163Z" fill="black"/>
<path d="M56.5439 60.8248C62.3681 59.1483 66.9519 55.1694 71.6249 51.5187C68.8018 56.8458 63.0691 59.4227 57.7021 61.4414C57.4137 61.282 56.8323 60.9819 56.5439 60.8248Z" fill="black"/>
<path d="M176.905 52.3674C181.233 56.0369 186.094 58.9139 191.036 61.6713C185.36 60.9304 179.294 57.7791 176.905 52.3674Z" fill="black"/>
<path d="M85.2945 77.2078C80.6567 78.767 76.6473 82.3544 74.9474 86.9922C71.4679 96.6782 79.5852 109.168 90.27 108.308C97.4964 108.413 104.68 103.194 106.005 95.9372C108.795 84.6991 96.4248 72.6989 85.2945 77.2078ZM83.7541 57.6647C86.2817 54.7667 90.3216 56.5932 93.5479 56.8371C103.724 58.4057 112.5 65.346 117.124 74.4387C118.589 77.7494 120.723 81.5056 120.179 85.1352C117.072 87.3627 113.579 89.6441 112.371 93.5175C109.834 99.7122 112.692 106.165 113.358 112.435C106.144 119.724 96.4975 125.051 85.9933 124.711C75.5523 124.001 64.8347 119.236 58.9261 110.303C51.1605 99.5856 49.5591 83.7659 57.2614 72.6356C67.0106 69.5172 76.1878 64.6238 83.7541 57.6647Z" fill="#FDFDFD"/>
<path d="M127.835 145.992C133.268 145.513 138.691 144.824 144.133 144.601C144.006 148.761 143.72 152.911 143.868 157.059C138.288 157.068 132.707 157.059 127.134 156.782C127.148 153.164 127.57 149.589 127.835 145.992Z" fill="#FDFDFD"/>
<path d="M151.163 77.415C144.893 79.5792 139.768 85.9966 140.328 92.8314C139.958 101.605 148.554 108.949 157.074 108.428C166.188 108.313 174.263 98.74 171.693 89.6895C170.209 80.5546 160.003 74.1348 151.163 77.415ZM135.904 65.2531C142.568 59.4617 151.461 56.3831 160.256 56.5215C162.844 57.6891 164.469 60.2988 166.697 62.0292C173.231 68.0879 181.255 72.1207 189.433 75.4314C196.906 89.1385 192.671 107.655 180.406 117.183C166.995 128.386 144.957 127.252 133.348 113.936C135.194 106.848 137.252 98.7518 133.55 91.8982C131.787 88.2804 128.084 86.4421 124.776 84.5124C126.715 77.265 129.951 70.0832 135.904 65.2531Z" fill="#FDFDFD"/>
<path d="M32.9299 67.2665C33.917 65.515 35.7694 64.4082 37.7764 65.59C39.7882 66.7717 34.665 73.6792 33.1832 72.6358C31.7013 71.5924 31.6052 68.9007 32.9299 67.2665Z" fill="#9E9D06"/>
<path d="M87.5338 78.4317C82.6427 79.4071 78.2276 83.0039 76.7856 87.8551C74.5371 94.1248 77.3812 102.041 83.5665 104.852C88.6686 107.525 95.1305 106.601 99.7355 103.335C103.97 99.9279 105.55 93.8505 104.057 88.7015C102.165 81.8386 94.535 77.0413 87.5338 78.4317ZM85.2969 77.2008C96.4272 72.6919 108.798 84.6897 106.008 95.9279C104.681 103.187 97.4987 108.406 90.2724 108.299C79.5876 109.159 71.4679 96.6712 74.9498 86.9828C76.6473 82.345 80.6591 78.76 85.2969 77.2008Z" fill="black"/>
<path d="M153.331 78.5239C148.524 79.7244 144.377 83.361 142.836 88.1043C139.516 96.5499 146.986 107.003 156.091 106.494C163.636 107.045 170.607 100.297 170.553 92.7937C170.935 84.0644 161.936 76.2847 153.331 78.5239ZM151.167 77.3797C160.006 74.0995 170.213 80.5192 171.697 89.6542C174.267 98.7047 166.192 108.276 157.078 108.393C148.557 108.911 139.961 101.57 140.332 92.7937C139.772 85.9613 144.897 79.5438 151.167 77.3797Z" fill="black"/>
<path d="M126.175 182.896C127.249 184.009 128.341 185.123 129.403 186.26C118.601 181.123 105.774 180.647 94.7184 185.285C100.191 188.202 106.475 188.964 112.552 189.716C127.439 190.3 143.155 190.642 156.82 183.775C147.324 179.118 136.011 179.522 126.175 182.896ZM127.842 145.95C127.577 149.545 127.155 153.123 127.141 156.741C132.714 157.017 138.295 157.027 143.875 157.017C143.727 152.867 144.013 148.719 144.14 144.56C138.698 144.783 133.275 145.472 127.842 145.95ZM105.539 142.832C105.241 147.169 104.733 151.498 104.564 155.85C109.56 155.84 114.538 156.389 119.525 156.656C119.586 152.93 119.736 149.207 119.856 145.481C114.974 145.334 110.219 144.114 105.539 142.832ZM48.6662 123.275C45.2735 126.095 44.0096 130.893 44.7318 135.16C45.7189 140.994 48.9851 146.119 52.1785 151.001C59.6605 162.459 70.4203 171.221 81.4333 179.109C83.8624 180.731 86.3244 182.546 89.2318 183.161C94.3573 182.799 99.1944 180.741 104.32 180.328C109.774 179.618 115.216 180.602 120.573 181.571C124.859 182.469 128.808 180.019 132.935 179.32C139.898 178.089 147.218 177.761 154.03 179.934C156.365 180.551 158.635 181.644 161.087 181.644C164.522 180.975 167.514 179.001 170.541 177.336C178.445 172.72 186.244 167.786 193.149 161.746C199.73 155.979 203.92 147.784 205.693 139.296C207.093 132.888 204.481 125.631 198.659 122.33C195.751 120.56 192.206 121.577 189.339 122.862C180.673 126.862 173.861 133.906 165.214 137.938C159.144 140.963 152.398 142.098 146.105 144.55C145.256 149.313 146.327 154.236 145.509 158.947C143.237 160.03 140.489 159.446 138.03 159.636C134.051 159.423 129.87 160.105 126.029 158.851C125.085 154.553 125.835 150.056 125.509 145.683C124.681 145.737 123.028 145.845 122.201 145.885C121.701 149.971 121.689 154.129 120.712 158.129C120.458 158.363 119.95 158.83 119.694 159.064C114.111 158.926 108.594 157.864 103.035 157.432C102.939 152.506 103.218 147.582 103.344 142.661C98.1017 139.741 92.3267 137.981 87.0019 135.254C77.656 130.576 68.4789 125.343 58.3756 122.426C55.2149 121.565 51.4377 121.153 48.6662 123.275ZM191.421 119.603C197.447 117.291 204.312 121.418 206.488 127.19C210.828 137.27 206.628 148.879 200.164 157.05C189.149 170.766 173.395 179.66 157.446 186.492C144.745 192.286 130.517 193.515 116.723 193.156C102.21 192.729 88.2564 187.064 76.479 178.79C65.0908 170.11 54.5022 160.03 47.1281 147.648C44.6052 143.221 42.2277 138.375 42.631 133.132C42.4176 128.22 44.4012 122.51 49.4001 120.728C56.1997 118.288 63.2338 121.544 69.337 124.431C83.7545 131.561 98.2941 139.371 114.409 141.716C133.117 144.475 153.172 142.534 169.828 133.071C177.076 128.675 183.357 122.574 191.421 119.603Z" fill="black"/>
<path d="M87.3717 84.3901C81.1677 85.7594 79.0644 93.8204 82.1336 98.8404C86.4924 104.901 97.7938 102.512 98.8114 94.8521C100.732 88.2846 93.5898 82.3197 87.3717 84.3901ZM87.5311 78.4486C94.5347 77.0582 102.164 81.8531 104.054 88.7184C105.548 93.8673 103.967 99.9448 99.7329 103.352C95.1303 106.618 88.6683 107.542 83.5639 104.869C77.3787 102.057 74.5345 94.1416 76.7831 87.8696C78.2274 83.0208 82.6401 79.424 87.5311 78.4486Z" fill="#32BCF3"/>
<path d="M151.295 84.7959C145.661 88.0949 145.375 97.5276 151.579 100.339C157.511 104.255 166.119 98.7796 165.225 91.7972C164.824 85.3164 156.726 81.368 151.295 84.7959ZM153.331 78.5028C161.936 76.2636 170.935 84.0433 170.552 92.7749C170.606 100.276 163.636 107.024 156.09 106.473C146.986 106.981 139.518 96.5311 142.838 88.0855C144.376 83.3422 148.524 79.7032 153.331 78.5028Z" fill="#32BCF3"/>
<path d="M87.3672 84.3785C93.5853 82.3081 100.727 88.273 98.807 94.8405C97.7894 102.501 86.4879 104.89 82.1291 98.8288C79.0599 93.8088 81.1632 85.7478 87.3672 84.3785Z" fill="black"/>
<path d="M151.283 84.8474C156.714 81.4194 164.812 85.3679 165.213 91.8486C166.107 98.8312 157.499 104.306 151.567 100.39C145.363 97.5791 145.649 88.1464 151.283 84.8474Z" fill="black"/>
<path d="M48.6746 123.296C51.446 121.174 55.2233 121.587 58.384 122.447C68.4849 125.364 77.662 130.595 87.0103 135.275C92.3351 138.002 98.1101 139.763 103.351 142.682C103.226 147.604 102.945 152.528 103.041 157.451C108.603 157.885 114.12 158.947 119.702 159.086C119.956 158.851 120.467 158.385 120.72 158.15C121.698 154.15 121.707 149.991 122.207 145.906C123.037 145.864 124.69 145.758 125.515 145.705C125.843 150.077 125.093 154.575 126.035 158.872C129.878 160.127 134.059 159.444 138.036 159.658C140.498 159.468 143.245 160.052 145.517 158.969C146.333 154.258 145.262 149.332 146.113 144.57C152.404 142.12 159.15 140.985 165.222 137.96C173.87 133.927 180.681 126.881 189.347 122.881C192.214 121.599 195.757 120.579 198.667 122.351C204.489 125.653 207.099 132.91 205.701 139.318C203.929 147.805 199.739 155.998 193.157 161.768C186.252 167.806 178.453 172.741 170.55 177.358C167.523 179.023 164.531 180.995 161.093 181.665C158.641 181.665 156.373 180.573 154.038 179.956C147.224 177.78 139.904 178.111 132.941 179.339C128.816 180.04 124.868 182.491 120.582 181.59C115.224 180.624 109.782 179.637 104.326 180.35C99.2027 180.762 94.3633 182.821 89.2402 183.182C86.3327 182.566 83.8708 180.753 81.4417 179.128C70.4263 171.243 59.6665 162.481 52.1869 151.022C48.9934 146.141 45.7249 141.015 44.7378 135.179C44.018 130.914 45.2818 126.117 48.6746 123.296Z" fill="#5F2227"/>
<path d="M105.546 142.809C110.226 144.092 114.979 145.311 119.86 145.461C119.743 149.185 119.593 152.908 119.532 156.634C114.545 156.369 109.567 155.818 104.571 155.827C104.739 151.478 105.248 147.15 105.546 142.809Z" fill="#FDFDFD"/>
<path d="M49.2002 168.192C51.5449 167.095 56.8698 174.633 53.1651 177.827C51.0455 179.538 48.4148 177.681 47.8098 175.419C46.7383 172.917 46.8555 169.294 49.2002 168.192Z" fill="#9E9D06"/>
<path d="M126.171 182.919C136.007 179.545 147.321 179.142 156.817 183.798C143.152 190.666 127.435 190.323 112.549 189.74C106.471 188.987 100.188 188.225 94.7151 185.308C105.77 180.67 118.598 181.146 129.4 186.284C128.338 185.146 127.245 184.033 126.171 182.919Z" fill="#EE959C"/>
<path d="M59.9936 182.307C67.8038 178.774 75.1052 193.332 67.3278 197.301C59.8483 199.243 53.6606 186.816 59.9936 182.307Z" fill="#9E9D06"/>
<path d="M176.275 189.428C185.621 188.709 175.978 201.14 176.275 189.428V189.428Z" fill="#9E9D06"/>
<path d="M89.0803 192.793C95.819 193.874 102.29 196.233 109.071 197.152C120.316 198.704 131.873 198.99 143.046 196.697C148.223 195.722 153.177 193.907 158.324 192.793C152.045 197.534 144.16 199.307 136.518 200.444C122.928 202.47 108.973 200.517 95.9972 196.254C93.5259 195.468 91.2351 194.214 89.0803 192.793Z" fill="#EE959C"/>
<defs>
<filter id="filter0_d_1_2352" x="0.499863" y="-0.000144958" width="245" height="245" filterUnits="userSpaceOnUse" color-interpolation-filters="sRGB">
<feFlood flood-opacity="0" result="BackgroundImageFix"/>
<feColorMatrix in="SourceAlpha" type="matrix" values="0 0 0 0 0 0 0 0 0 0 0 0 0 0 0 0 0 0 127 0" result="hardAlpha"/>
<feOffset dy="1.5"/>
<feGaussianBlur stdDeviation="3.75"/>
<feComposite in2="hardAlpha" operator="out"/>
<feColorMatrix type="matrix" values="0 0 0 0 0 0 0 0 0 0 0 0 0 0 0 0 0 0 0.25 0"/>
<feBlend mode="normal" in2="BackgroundImageFix" result="effect1_dropShadow_1_2352"/>
<feBlend mode="normal" in="SourceGraphic" in2="effect1_dropShadow_1_2352" result="shape"/>
</filter>
</defs>
</svg>
